<?xml version="1.0" encoding="UTF-8" standalone="no"?>
<!-- Created with Inkscape (http://www.inkscape.org/) -->

<svg
   width="102.00337mm"
   height="99.999962mm"
   viewBox="0 0 102.00337 99.999961"
   version="1.1"
   id="svg1"
   xml:space="preserve"
   xmlns="http://www.w3.org/2000/svg"
   xmlns:svg="http://www.w3.org/2000/svg"><defs
     id="defs1" /><g
     id="layer1"
     transform="translate(76.462828,-777.39444)"><g
       id="g26"
       transform="matrix(0.48304208,0.48304208,-0.48304208,0.48304208,409.86568,384.11328)"><path
         style="fill:#eb9b2f"
         d="m 37.262264,934.41923 c -5.907683,-0.008 -12.083435,-2.51575 -12.1809,-9.32822 -0.705769,-3.54014 -3.810254,-11.39507 -2.941981,-12.54267 6.829839,5.98751 13.652314,12.07945 19.311417,19.22057 1.476946,2.80911 -2.282263,4.00508 -4.188536,2.65032 z M -1.5404049,910.14726 c -1.2726519,-5.66084 -9.2415161,-7.76656 -13.0194441,-12.79097 -7.13304,-5.44961 1.471216,-11.47742 3.620059,-16.97148 -0.902951,-5.83129 11.50608605,-6.14722 8.8340657,-2.81486 -10.0041087,3.49486 -6.9436086,15.38008 1.0401997,19.21291 4.9121386,6.64185 13.4320256,6.40599 18.1911166,-0.16979 7.653903,-4.05907 9.864269,-15.07125 19.218027,-15.07938 4.323391,-2.50696 9.937344,0.77402 4.848574,4.88492 -5.633888,7.13122 -12.718729,12.90593 -18.869914,19.55913 -3.244343,1.612 -1.519652,6.948 -5.932213,2.65021 -5.333782,-2.89546 -16.47745709,-1.0749 -17.9304709,1.51931 z M -8.3186,848.41279 c -5.637076,-2.36231 -14.410815,-0.21793 -18.416674,-3.31688 2.886239,-6.40005 8.062077,-11.52817 12.643493,-16.76993 2.618728,-3.25899 9.3534759,-5.24334 6.6800646,1.18817 -2.9208816,6.56222 -0.6682994,13.57919 5.5863491,16.59659 -0.419558,2.61372 -4.4579395,2.69147 -6.4932327,2.30205 z"
         id="path31" /><path
         style="fill:#1c9dca"
         d="m -11.156501,995.64712 c -2.607034,-3.35871 0.765047,-15.64709 3.6927261,-7.04972 3.8742484,3.43826 2.2958362,12.2277 -3.6927261,7.04972 z m 34.485245,0.72018 c -3.234865,-7.25696 6.248871,-12.56842 7.313251,-19.51694 1.640538,-4.26534 0.09154,-12.35836 -5.996679,-10.78114 7.326352,-4.05551 -11.248172,-9.96653 -7.569047,-10e-4 -3.816592,4.31437 -10.8821533,2.88611 -15.8942527,5.39459 -3.3832007,0.62264 -10.3750751,4.65943 -6.6687861,-1.96708 1.9063054,-7.33129 9.5709612,-6.10042 15.1911397,-7.8811 2.6933851,-1.12208 14.0389321,-2.16853 5.9444691,-4.27365 -9.6340511,-3.52256 4.786797,-10.37935 9.19078,-5.71897 5.729778,3.1313 11.31122,7.49505 17.985239,8.16568 4.138512,-6.4163 -3.290013,-13.67895 -1.659615,-20.79981 -0.585724,-3.52795 0.990767,-8.4547 3.507213,-2.86163 5.986608,10.65827 3.458788,23.91645 -1.249324,34.57815 -4.136781,9.19461 -10.428851,17.28677 -17.397709,24.46723 l -1.292687,0.78005 z M 44.747069,855.09377 C 38.514904,850.91219 31.521837,846.70856 29.98455,838.69909 28.41989,834.206 18.707506,825.07017 25.401008,822.17013 c 5.712797,3.01833 9.078921,9.18465 12.926155,14.20022 3.45731,5.94639 8.101567,11.93961 8.480893,19.01755 -0.234867,1.10785 -1.793785,-0.0639 -2.060987,-0.29413 z"
         id="path30" /><path
         style="fill:#ef4045"
         d="m -20.85667,950.63697 c -4.764022,-1.75747 -14.923378,-2.80251 -10.370978,-10.32409 5.341053,-12.85922 18.050872,-20.12356 28.1374008,-28.87396 6.5308991,-5.97767 18.0468222,-6.0331 24.0851192,0.61669 2.806342,5.57359 3.382496,12.12205 5.554687,18.02453 -6.156072,-4.69782 -13.388962,-17.04389 -21.6329589,-12.35338 -5.65021061,4.30204 -18.1635781,11.59875 -12.5772824,19.67215 5.7509822,2.74204 6.2436074,10.33255 -1.1021703,10.61753 -3.9396974,1.23554 -7.9771214,2.2199 -12.0938174,2.62053 z m 4.168619,-54.91037 c -9.058954,-7.43091 -17.470197,-18.05494 -16.08466,-30.49586 0.836012,-6.12037 1.479859,-17.64914 7.835305,-18.87987 6.811015,-0.006 13.549058,2.15315 20.2322209,1.7788 5.49288278,-2.34257 11.7610012,0.41652 15.5346451,4.47612 4.200093,6.21455 -2.1632493,6.87288 -6.2883009,3.53032 -6.2580735,-2.70898 -14.4203134,-5.45059 -20.4369671,-0.78276 -7.109018,7.93606 3.763151,17.68504 12.176231,13.38315 7.9759748,-2.50481 16.073707,-6.81476 24.19764,-2.26226 7.979835,2.80602 17.595516,-1.89653 24.554167,4.20667 4.995432,4.98353 -1.014242,13.86487 -7.441413,10.47111 -3.960471,1.90141 -10.269214,2.74391 -6.194224,-3.40401 -0.193818,-9.66989 -12.974805,-7.74383 -19.21454,-5.39205 -6.1802919,1.52164 -11.92394955,6.23114 -17.7000007,2.8183 -6.6425043,1.51544 -6.0576193,10.0925 -11.0536343,13.8751 -4.324359,3.07352 6.541544,12.34784 -0.116472,6.67724 z"
         id="path29" /><path
         style="fill:#344eae"
         d="m -12.688861,993.77629 c -11.375138,-12.68892 -21.03358,-28.81623 -20.07433,-46.44487 6.778375,-0.32781 13.415404,6.38624 20.37853,1.75423 4.8959088,0.0362 10.5242946,-4.65758 10.2229071,-7.31626 8.728792,2.92969 17.6578369,5.77746 26.8716899,6.47892 7.893468,0.20173 8.721257,-9.30724 4.610497,-14.17175 -1.36171,-3.15177 7.076185,0.89771 9.699664,0.79881 5.486349,3.58262 0.241762,11.91989 4.499724,17.13005 3.500676,6.05779 -2.592439,10.24956 -7.528174,5.81322 -5.770757,-2.18677 -10.547608,-7.6166 -16.940028,-7.5982 -5.804949,1.80525 -9.9206448,6.14974 -15.8562471,1.84223 -5.9921212,-2.03118 -13.5827179,-4.88371 -19.2304629,-0.74116 -5.70374,7.46441 4.974975,14.20427 12.0020255,12.35448 5.2359315,0.53221 -6.8252755,8.51832 -0.549301,9.4972 -7.3690045,-0.19866 -6.2088745,12.20183 -5.0025609,12.06244 -3.6916346,-2.31739 -0.7265326,10.75156 -3.1039336,8.54066 z m 29.072113,-26.44538 c 0.335389,-5.31644 4.678011,-9.73233 9.208093,-4.79043 6.518441,4.44927 -7.51491,3.93487 -9.208093,4.79043 z m 30.790489,-94.18473 c -4.354286,-7.14332 -14.09666,-5.73704 -21.200966,-5.48087 -4.818749,-0.9584 -13.187398,-3.63444 -15.710752,-3.63717 3.643564,-1.03266 5.810562,-3.7366 1.796352,-5.3658 0.728578,-3.61497 -4.62258,-10.08592 1.712616,-6.82417 5.865968,2.50846 18.61569,4.07929 17.986304,-5.49045 -1.205086,-7.91779 2.409816,3.33182 6.166009,3.89376 6.550466,3.57959 11.90338,7.89692 10.267534,16.20474 -0.03283,2.25309 -0.104601,4.60109 -1.017097,6.69996 z"
         id="path27" /></g></g></svg>
