<?xml version="1.0" encoding="UTF-8" standalone="no"?>
<!-- Created with Inkscape (http://www.inkscape.org/) -->

<svg
   width="112.48461mm"
   height="100.00009mm"
   viewBox="0 0 112.48461 100.00009"
   version="1.1"
   id="svg1"
   xml:space="preserve"
   xmlns="http://www.w3.org/2000/svg"
   xmlns:svg="http://www.w3.org/2000/svg"><defs
     id="defs1" /><g
     id="layer1"
     transform="translate(184.09676,-461.82352)"><path
       style="fill:#e8a303;stroke-width:0.433582"
       d="m -129.16615,561.36445 c -3.41857,-1.42973 -4.08915,-5.15646 0.20112,-3.91202 1.93895,0.003 3.8779,0.007 5.81684,0.0108 -0.3171,2.36499 -3.60605,5.56071 -6.01796,3.90123 z m -26.96362,0.0548 c 2.36728,-1.39107 5.39738,-8.78725 7.34224,-6.77781 -1.31883,3.79977 -2.76111,6.80587 -7.34224,6.77781 z m 54.65171,-0.48636 c -3.1627,0.55194 -6.44669,-6.86331 -4.12711,-6.85728 1.68657,1.99171 5.52544,5.99638 5.54602,7.23236 l -0.5944,-0.15333 z m -66.44355,-3.22852 c 3.95419,-2.66889 5.43879,-7.42147 6.7138,-11.75998 5.09925,-4.09394 2.33758,4.05601 0.42413,5.9778 -1.09784,3.35731 -4.57657,6.93257 -7.13793,5.78218 z m 78.608783,-0.0718 c -4.732442,-1.15911 -5.823403,-7.37187 -7.945598,-11.19598 0.331983,-4.70574 4.996556,1.66757 4.522525,4.13137 -0.04992,2.86692 5.516695,6.88542 4.783318,7.38701 l -0.591036,-0.13531 z m -41.980373,-2.54968 c -4.09205,1.36224 -8.30571,-7.74333 -2.12451,-5.25782 4.75331,1.18774 10.97024,-0.83175 14.9065,0.2031 -0.46091,5.83203 -6.95172,5.23843 -11.20503,5.12563 l -0.58798,-0.0166 z m -20.20553,-1.30553 c 0.22386,-2.75931 0.50825,-11.33903 4.54859,-7.92955 0.41272,3.53974 -1.15844,6.85184 -4.54859,7.92955 z m 46.92174,-0.19677 c -4.12112,-0.71623 -5.64654,-12.22656 -0.55863,-7.14995 0.0314,1.53629 1.99129,7.16798 0.55863,7.14995 z m -25.51167,-5.95632 c -3.3789,-0.65451 -9.682,0.51191 -9.48242,-4.58496 -0.17764,-4.77524 6.53902,0.54081 9.64509,-0.66004 4.68738,0.71077 10.03152,-1.15992 14.09341,-1.0399 0.80096,7.67454 -9.2824,6.10416 -14.25608,6.2849 z m -32.40355,-4.25189 c 0.42526,-2.89908 -0.8007,-11.56632 4.356,-9.76972 4.33611,0.66438 -0.0693,6.06054 0.18808,8.86123 -1.01736,0.30612 -4.00906,2.42022 -4.54408,0.90849 z m 68.711976,0.51652 c -5.031428,0.0574 -4.78713,-6.68561 -5.358268,-9.71776 5.482625,-3.63358 6.190045,3.96296 6.275359,7.66071 -0.09047,0.62099 0.174214,2.42998 -0.917091,2.05705 z m -57.452996,-0.47666 c 0.0431,-3.24927 -0.63374,-6.77878 2.24064,-9.36299 6.57683,-1.9424 2.24283,5.23497 1.80218,8.29233 -1.08592,0.29905 -3.21082,1.9708 -4.04282,1.07066 z m 44.63054,-0.33273 c -3.43334,-0.92 -2.44989,-6.10587 -3.59772,-8.66767 5.78058,-2.70089 6.63628,5.21335 5.99047,9.03322 -0.33149,0.98481 -1.80013,-0.40044 -2.39275,-0.36555 z m -24.289,-3.82437 c -4.58465,-0.0338 -12.15642,-1.87268 -8.91056,-8.07873 -0.45158,-3.21056 8.81442,-4.86212 2.40826,-5.29565 -2.97178,0.20626 2.0254,-4.4247 3.5159,-2.13439 2.90546,3.98001 9.216,4.10117 12.19266,0.12865 2.54117,-2.69528 7.40848,3.69243 1.75039,2.23223 -1.99175,1.57718 5.67306,2.45197 4.65189,6.01281 2.30774,6.53497 -6.3777,6.97599 -10.67486,7.17331 -1.64235,0.0863 -3.29476,0.12804 -4.93368,-0.0382 z m 7.62878,-2.8195 c 4.39714,0.0307 7.11879,-5.76413 1.91706,-6.21172 -3.08809,1.1959 -3.60335,-2.07424 -6.31318,-1.54867 -2.86505,-0.82115 -3.11887,2.85573 -6.35036,1.55611 -3.58436,-0.16085 -4.15698,4.90723 -0.0822,5.51269 2.70302,1.64936 5.64604,0.59963 1.28039,-0.98124 -2.48394,-3.1974 3.79607,-2.11467 5.27003,-1.15477 1.80276,-1.70222 8.53442,-1.06032 4.08051,1.64808 -1.81123,0.79325 -2.65954,1.9554 0.19773,1.17952 z m 23.03827,-4.10584 c -6.90652,-1.88792 2.19854,-10.86861 4.105707,-3.97418 -0.0737,1.9804 -1.894982,4.46769 -4.105707,3.97418 z m -56.89662,-0.0689 c -6.07283,-3.03271 2.39267,-10.26756 4.32184,-3.54204 0.71863,2.33383 -2.29261,4.21745 -4.32184,3.54204 z m 9.65274,-0.38082 c -6.39515,-0.88781 1.23872,-7.93372 3.77187,-9.7302 2.04382,-2.32412 9.77546,-4.81961 4.27095,-0.36066 -3.87829,2.49942 -2.17719,10.20721 -7.15678,10.30379 z m 36.87507,0.11415 c -3.32036,-2.9439 -2.65827,-9.32758 -7.16818,-12.1291 -0.9251,-2.37222 5.98585,2.0579 7.24717,3.17725 2.83477,2.54483 8.03555,10.18863 -0.079,8.95185 z m 5.82355,-7.04419 c -2.6971,-5.05185 -11.10326,-5.89838 -12.78088,-10.33425 5.52841,0.34081 10.69507,3.17309 15.79323,5.16002 3.299748,1.74852 3.506859,4.17073 -0.21601,5.0919 -1.5409,1.32551 -1.6264,1.74164 -2.79634,0.0823 z m -48.27985,0.3156 c -2.21391,-1.26273 -5.65006,-2.47506 -1.87789,-4.68583 4.91723,-3.07379 10.70443,-4.64734 16.29245,-6.03222 3.29584,1.78778 -5.40399,4.19959 -6.8132,5.79382 -2.65026,0.50706 -5.30804,6.83326 -7.60136,4.92423 z m 23.77913,-1.66608 c -4.37024,0.24054 -6.39607,-9.86287 -1.01138,-4.74976 3.00123,3.23213 10.32327,-5.35114 7.93477,1.48707 -0.9543,2.81015 -4.20055,3.99744 -6.92339,3.26269 z m 33.368092,-2.93064 c -1.65085,-1.49746 3.236106,-2.1514 0.02552,-4.66184 -1.741801,-2.92026 -6.079222,-6.178 -0.144928,-6.50755 -0.255087,-2.14343 -3.254941,-5.92585 1.04024,-3.54237 2.888968,0.72768 7.16241,6.36667 8.397222,1.12162 -4.542509,-2.46867 -0.525371,-2.28855 2.34464,-2.38598 4.023538,-0.37661 13.48615,-2.43956 8.968566,4.46022 -0.866979,1.65796 -3.609151,4.66354 -0.04806,2.36771 1.78902,-1.48034 3.917226,-2.15171 1.336141,0.55317 -4.256332,7.22857 -14.247907,8.82729 -21.919341,8.59502 z m 5.40778,-2.578 c 2.290692,-0.89293 9.498396,-1.85858 8.559131,-4.34366 -2.273485,-0.47686 -8.692278,4.35747 -7.743428,0.0483 2.505082,0.74953 7.456129,-3.96898 3.397147,-3.5049 -2.68689,2.6797 -11.234253,0.64513 -6.367341,5.75268 0.151748,1.41257 0.218499,2.95139 2.154491,2.04755 z m 10.864123,-8.18957 c 2.070561,-1.66536 2.842994,-5.57138 -1.042326,-3.18519 -4.350496,-1.15696 -0.427207,4.96661 1.042326,3.18519 z m -85.736325,10.60645 c -6.23969,-0.74589 -13.17738,-3.02343 -16.35713,-8.85627 -3.94344,-4.4562 6.98522,4.12903 2.07319,-1.52498 -2.52476,-3.10207 -2.64553,-7.4397 2.43509,-5.9128 3.24191,0.41345 8.5117,0.17068 10.58073,1.11951 -5.78597,2.46128 1.92061,5.90745 3.48969,1.90022 2.09176,-1.15812 7.30756,-3.65006 3.89849,0.82319 -1.44839,3.11514 6.12163,1.49573 2.04646,4.42214 -2.6662,2.37679 -4.31254,6.59859 -2.91396,8.11891 -1.74922,0.0789 -3.50787,0.0679 -5.25256,-0.0899 z m 2.17307,-2.33825 c 0.12107,-3.22788 4.11497,-6.29519 -1.26753,-6.00148 -2.0046,-0.42912 -7.98792,-4.27539 -5.55547,0.22434 2.18648,0.28594 7.14792,2.65013 2.47084,3.0569 -1.50152,-0.87673 -9.27105,-2.88871 -4.90029,0.0325 2.91228,1.20335 6.06994,2.85646 9.25245,2.68772 z m -11.35591,-7.92525 c 2.77394,-2.37787 2.00731,-3.94044 -1.40348,-3.86701 -4.27458,-2.67082 0.0999,5.00415 1.40348,3.86701 z m 45.3988,6.45821 c -5.97809,-3.13355 -10.28533,-9.71178 -9.18289,-16.6058 -0.51343,-2.56867 4.83989,-0.13086 2.40052,-3.04293 -2.02044,-1.60438 -3.6904,-1.98794 -2.56517,-4.73954 -1.7032,-2.1975 -8.5349,-3.66418 -5.47887,-6.47848 2.88825,-4.83524 4.08101,3.2756 6.96415,3.87146 5.25902,2.92817 8.86953,-6.34868 13.23123,-0.24686 4.14349,2.47274 8.46327,-1.00846 9.24222,-4.77918 2.69165,-1.91978 6.51029,3.72061 2.16359,4.30526 -2.70913,1.48983 -5.51482,3.48436 -4.45527,6.38444 -3.29378,0.1732 -4.9839,5.29529 -0.63679,3.51013 1.70255,6.99535 -2.22096,14.28398 -8.43388,17.60259 -1.04554,0.92249 -2.09559,1.3301 -3.24884,0.21891 z m 2.97877,-5.3821 c 7.44446,-0.49488 7.64088,-12.11145 0.35375,-13.00963 -6.49947,-2.39894 -12.89603,6.30852 -7.23282,11.15546 1.79089,1.74515 4.46341,2.34798 6.87907,1.85417 z m -3.05755,-1.8608 c -5.53725,-1.33622 -3.35165,-9.85963 2.06295,-8.84216 5.54612,0.33471 5.48047,9.09135 -0.2851,9.05549 l -0.90259,-0.0151 -0.87526,-0.19819 z m 2.46088,-2.94476 c 3.48876,-6.63547 -8.21893,-0.10578 0,0 z m 1.06168,-10.61512 c 0.15384,-1.82296 5.87408,1.60964 3.66838,-1.93573 -3.18018,-2.84186 -10.47472,-2.50286 -11.84574,1.21513 1.42033,2.14842 3.92356,-1.55376 4.94602,0.8811 1.23472,-4.58183 1.5393,0.65829 3.23134,-0.1605 z m -31.45503,20.91773 c -0.96504,-3.2838 10.48684,-6.89682 2.17202,-8.08757 -2.81963,-2.24434 4.36467,-3.11456 6.14696,-2.32034 2.64873,0.0251 11.53616,-0.62591 8.10168,3.70522 -4.72994,3.28288 -10.16083,5.99165 -15.90022,6.79908 z m 8.94805,-5.41384 c 3.77418,-2.96664 -4.23224,-4.68959 -1.43647,-0.53312 -0.41614,1.21842 1.05105,0.75333 1.43647,0.53312 z m 48.755387,5.41153 c -5.931017,-1.18797 -11.764457,-3.66845 -16.336607,-7.68698 1.04659,-4.68006 7.6099,-1.68898 11.11691,-2.78505 3.60804,-1.06883 7.868386,2.89577 2.06375,3.02453 -4.77088,1.42156 9.331445,7.21301 3.155947,7.4475 z m -6.364627,-5.62917 c 3.35807,-3.72304 -4.48459,-3.63755 -1.78039,-0.54246 -0.44471,0.84427 1.94019,1.63737 1.78039,0.54246 z m -37.05635,-7.21581 c -8.43328,-0.78007 -17.39919,0.68168 -25.33426,-2.90805 -1.92065,-2.24561 7.23488,-2.53527 4.33997,-6.82581 -1.57885,-3.36609 4.23836,-5.56689 6.23684,-3.41329 0.80606,1.95131 8.22136,0.86404 3.71166,2.30074 0.11068,2.26957 -0.42007,8.09856 -4.55241,4.81937 -2.12246,-3.13834 5.26479,-1.48585 0.7505,-3.96141 -6.20527,-0.85591 -2.65391,9.11583 2.39592,6.90334 4.33852,-0.0657 1.86573,-6.77915 6.62904,-5.65902 -1.0174,-4.04208 -5.92774,-5.6225 -8.4613,-8.74046 -3.36692,1.24586 -7.0035,1.97921 -10.16165,3.62635 1.49717,2.46364 1.71729,7.8934 -2.07214,7.09578 -2.18115,-4.48607 -1.3693,-11.74312 -6.78639,-13.77446 -4.44511,-1.55145 -9.46314,-3.38558 -7.45844,-9.1585 -0.064,-5.98604 7.9454,-0.27012 11.39875,0.30425 10.82435,4.53098 19.68537,12.46906 28.96534,19.43605 -1.57284,1.75706 -1.66795,4.88234 -4.47718,5.23552 -4.54656,-0.59081 5.19363,4.86379 3.56228,-0.47581 1.23515,-2.72134 4.54388,0.0919 3.38288,2.9595 0.87931,2.39424 0.43627,2.59138 -2.06941,2.23591 z m -24.43157,-17.06991 c 4.35099,-1.40402 0.71227,-5.78322 -1.97714,-6.63089 -1.26106,-1.50362 -9.57186,-2.98081 -7.54799,-1.41614 3.36193,2.80332 9.46017,1.86041 8.30268,7.75487 0.33636,0.22208 0.79925,0.68027 1.22245,0.29216 z m 52.1361,16.93151 c 0.42061,-2.68729 0.44455,-8.1037 3.8685,-5.36016 -2.18024,5.88237 9.28123,0.12078 2.42755,0.25735 -2.33412,-1.34544 -4.86347,-5.89078 -0.67741,-6.82652 11.356134,-8.56732 22.934485,-18.40441 37.486286,-20.58066 0.553806,4.37947 1.669941,10.30375 -4.348031,10.85826 -5.870628,0.92654 -7.369624,6.28197 -8.493683,11.27899 -0.266252,3.493 -1.911062,5.43539 -4.474643,2.15388 0.863657,-3.49015 2.46257,-7.03353 -2.785112,-7.10993 -2.02136,-0.66667 -4.041454,-1.33717 -6.062231,-2.00561 -2.732376,3.11209 -7.866736,4.80608 -8.624116,9.11554 3.20596,-0.7365 4.69361,1.11537 3.93214,4.46707 4.042202,3.56009 11.789654,-2.3133 7.094529,-6.03459 -3.105329,-1.19561 -5.369679,3.39565 -0.962526,2.01011 0.697378,5.17097 -7.630183,1.87752 -4.253733,-2.18646 -1.29677,-1.30478 -3.884,-1.37062 -0.0738,-1.93509 3.053117,-0.96798 8.10725,-3.68831 9.593515,0.68952 -2.230751,4.56556 2.842286,6.36279 4.851927,8.06951 -7.15059,3.89139 -15.682292,2.5086 -23.504102,3.19054 -1.56539,-0.13956 -3.64784,0.50827 -4.99505,-0.0517 z m 28.178664,-16.96868 c 0.363083,-3.25525 0.839141,-6.12064 5.031559,-5.98258 1.685858,-0.95487 6.828971,-3.47821 1.665758,-2.54281 -3.68461,-0.18481 -13.416517,5.07366 -8.148601,8.46058 l 0.77309,0.25726 z m 2.818296,12.1111 c 2.999205,-3.91882 0.970747,-11.70924 5.970111,-13.97035 2.577367,-1.3648 7.606038,-2.84903 4.576135,1.85943 -1.690778,5.10898 -6.055287,8.35679 -9.76369,11.94161 l -0.50162,0.27906 z m -90.43102,-2.64427 c -3.79717,-3.31457 -7.45473,-7.64258 -7.93889,-12.80567 5.15128,0.11287 9.56225,3.4166 9.10817,9.06936 0.35783,2.20736 3.95526,9.0641 -0.25778,4.62449 l -0.43033,-0.41775 z m 39.59985,-8.69412 c -2.71789,-0.71053 4.10779,-2.13842 3.68585,-4.70916 0.99982,-4.46562 3.54932,0.42795 5.62498,-2.25636 0.89354,2.78377 5.17125,5.94249 5.78151,6.87091 -3.79442,0.78135 -6.77756,-5.81688 -10.73067,-2.01998 -1.50393,0.5301 -2.61623,2.52488 -4.36167,2.11459 z m -13.26209,-1.66253 c -1.25889,-3.47535 -5.94278,-8.20713 -1.9751,-11.50649 2.59763,-0.23722 3.49424,5.69827 5.57829,6.7743 -0.0631,1.94939 -0.8399,5.65192 -3.60319,4.73219 z m 39.56316,0.0558 c -5.42462,-4.20297 1.34628,-7.01834 2.08696,-11.61286 4.96335,0.64027 2.2147,6.19438 0.56338,9.19936 -0.10531,1.56462 -0.87174,2.9282 -2.65034,2.4135 z m -28.61436,-1.11851 c -3.79218,-3.01858 5.8445,-10.37896 6.1267,-6.02711 -1.4844,2.11531 -2.76074,6.79978 -6.1267,6.02711 z m 17.32357,-0.0199 c -2.36315,-1.68015 -7.63744,-10.00602 -1.08527,-6.67455 2.58923,0.77962 6.43181,7.84664 1.08527,6.67455 z m -8.42089,-5.47103 c -0.92817,-4.5683 -7.14405,-2.87342 -7.51084,-8.10659 -2.28708,-4.85085 -7.85332,-5.17075 -12.06989,-6.8848 -7.48689,0.41901 2.99787,-4.17779 5.67163,-2.03042 5.56943,1.55765 9.85044,6.4605 11.152,12.03097 2.11642,0.22725 4.28744,-4.36846 5.47649,0.0907 3.53,-0.91308 3.3852,-7.46848 7.25553,-9.24638 3.86019,-3.723 10.48148,-4.79972 14.65706,-0.97836 -3.75733,-0.28955 -6.86393,1.59779 -10.4499,2.27532 -5.73025,1.57562 -5.07509,9.7213 -11.21731,10.18953 -0.80541,0.75405 -1.36161,3.78206 -2.96477,2.66005 z m -24.51006,-4.85758 c -0.41367,-4.01766 -7.12172,-5.49375 -7.85641,-7.22605 3.33044,-0.91019 7.84039,0.36972 9.30971,3.36706 1.88511,1.34335 -0.67191,4.56796 -1.4533,3.85899 z m 49.92677,0.0462 c -3.62405,-2.18669 -0.0713,-6.44144 2.92817,-6.92476 2.201522,-1.73668 7.830191,-0.0926 2.837745,1.46232 -2.69225,0.84389 -4.377285,4.16864 -5.765915,5.46244 z"
       id="path23" /></g></svg>
