<?xml version="1.0" encoding="UTF-8" standalone="no"?>
<!-- Created with Inkscape (http://www.inkscape.org/) -->

<svg
   width="100.14411mm"
   height="100.00003mm"
   viewBox="0 0 100.14411 100.00003"
   version="1.1"
   id="svg1"
   xml:space="preserve"
   xmlns="http://www.w3.org/2000/svg"
   xmlns:svg="http://www.w3.org/2000/svg"><defs
     id="defs1" /><g
     id="layer1"
     transform="translate(-166.31165,-775.33234)"><g
       id="g33"
       transform="matrix(0.45068663,0,0,0.45068663,15.543342,421.18173)"><path
         style="fill:#f05b96"
         d="m 427.5154,963.01532 c -15.63159,-2.5017 -1.9407,-19.66697 -4.80176,-29.10132 -2.00002,-6.03807 2.14725,-17.85319 7.26369,-7.40583 11.35145,6.29126 26.75791,4.6927 36.2277,-4.02646 3.7884,8.02786 -1.53959,19.96383 4.34773,28.75783 4.16049,14.31685 -16.21947,14.24736 -20.11204,3.07768 -8.45814,-9.09121 -16.86064,3.95621 -22.92532,8.6981 z m 74.26822,-39.15834 c -8.44275,-7.97589 -34.99605,4.76304 -31.42714,-12.78403 1.89742,-8.89739 12.72209,-16.33709 1.26462,-22.6671 -10.18285,-11.95335 9.15795,-18.46462 18.85191,-16.14445 8.58538,-1.48617 30.09686,-0.0647 19.2044,13.01478 -6.64277,5.98146 -16.04005,13.73667 -4.35329,20.4974 9.78019,6.25173 9.01978,17.19626 -3.5405,18.0834 z m -111.94889,-1.06756 c -17.18298,2.77148 -10.43069,-22.03541 1.31525,-23.54205 1.83692,-10.24385 -22.72511,-13.87441 -9.70626,-25.64255 11.27248,-4.4894 24.45503,1.0854 36.23764,-0.0294 12.60393,8.47943 -6.49061,16.56655 -3.32005,26.78893 7.85962,4.70263 10.70927,24.20789 -3.4859,19.99591 -7.06412,-0.26554 -14.26815,0.31206 -21.04068,2.4292 z m 32.90505,-53.77785 c 2.85997,-11.67539 -3.09904,-24.74174 -1.89947,-34.99974 11.69917,-5.77287 4.62498,11.7139 14.616,13.65109 5.88717,1.35095 5.86788,13.86274 10.91999,7.91186 10.36222,1.43823 3.76888,-12.99689 13.34213,-16.39276 4.40805,-3.03391 4.17912,-0.15153 5.06971,-6.33993 13.17534,4.47957 -2.3085,20.93384 2.9068,30.6119 1.7671,7.83666 -3.96928,9.11352 -7.75892,3.26698 -10.92169,-5.3762 -27.07068,-5.7249 -34.95721,4.90414 -1.93886,2.33512 -2.98082,-1.11024 -2.23903,-2.61354 z"
         id="path39" /><path
         style="fill:#e3a218"
         d="m 431.97773,988.43167 c -12.0199,-9.89979 5.08578,-24.1296 7.63656,-30.02627 -3.48916,3.29354 -13.33154,5.94509 -6.61015,-1.56957 5.82503,-6.01072 21.48395,-7.26961 21.35425,4.08261 -9.68297,-4.76818 5.63168,9.09432 6.83954,12.51414 6.21685,10.42378 -11.56579,17.2501 -12.66053,3.95679 -7.04169,-7.7484 -10.13358,10.49554 -16.55967,11.0423 z m -50.8,-21.62956 c -12.19601,-9.68974 17.57929,-16.48392 8.05701,-2.60882 -1.86716,2.26098 -5.15333,3.90016 -8.05701,2.60882 z m 123.34503,-0.005 c -15.46336,-10.55477 17.41651,-15.39174 5.0723,-0.3752 -1.46692,0.99089 -3.47916,1.21927 -5.0723,0.3752 z M 360.27565,913.5568 c -12.39933,-1.45103 -3.88105,-13.55738 2.86837,-15.96116 -0.50656,-6.37577 -17.57549,-11.85507 -5.5019,-17.13089 11.48953,5.16181 25.41914,0.60241 32.49189,13.8681 2.92973,9.02545 -10.0053,17.23697 -18.42331,16.20557 -6.05951,-5.1849 -5.66118,5.77183 -11.43505,3.01838 z m 167.64157,-0.0307 c -6.40082,-10.49168 -17.96931,3.44935 -24.43452,-8.40119 -8.99868,-9.6547 3.61433,-23.11022 14.41329,-21.092 6.57628,-0.26608 19.43848,-9.8369 18.9234,3.88196 -3.43612,5.04235 -14.08027,8.15059 -4.44237,14.4404 8.73816,6.42436 5.04942,10.80265 -4.4598,11.17083 z m -84.05786,-61.2819 c -6.48742,-3.99494 -24.54105,-13.94133 -12.30028,-20.24839 6.80576,3.02439 8.69404,-0.85716 1.95382,-3.81336 -10.18493,-5.5512 -3.36257,-28.15261 6.16464,-14.11557 6.60078,10.52518 19.89,-16.48273 22.45784,2.0671 0.78726,7.62296 -8.92648,12.57166 -10.08773,17.12406 9.56614,-5.57709 14.07555,4.77346 4.20201,8.87951 -3.92842,3.59242 -7.58536,7.65028 -12.3903,10.10665 z M 388.0569,838.08992 c -13.66269,4.28635 -5.45389,-21.6066 1.88596,-8.36388 1.55676,2.41479 2.31954,8.14079 -1.88596,8.36388 z m 112.26907,-0.64526 c -9.25751,-11.77912 20.67004,-13.65934 9.18675,-1.78258 -2.93563,1.19957 -6.2701,0.51239 -9.18675,1.78258 z"
         id="path38" /><path
         style="fill:#10acb5"
         d="m 413.88759,958.37783 c -5.4991,-2.65516 -1.03876,-11.0878 -9.62399,-5.54339 -9.77768,6.66422 -16.00196,-0.49084 -13.59324,-10.42228 0.89355,-6.54322 -15.50292,-3.99833 -7.82365,-9.76094 5.23342,-12.61569 21.758,-13.88673 33.35846,-11.707 10.83709,5.88551 7.09161,20.6136 4.29659,30.19336 -1.34529,3.03603 -3.62505,5.73242 -6.61417,7.24025 z m -6.51611,-8.07812 c 13.86576,-8.84151 -3.40193,-27.89039 -12.2717,-12.59782 -3.54152,5.86523 4.40774,3.085 5.12582,8.29406 2.1715,1.77749 4.95547,2.55597 7.14588,4.30376 z m 120.24211,7.67072 c -2.34903,-1.80658 -4.63893,-14.57583 0.32857,-8.74955 -1.1361,-17.76296 14.69377,10.64306 -0.32857,8.74955 z m -51.84999,-1.57401 c -10.79389,-6.26223 -11.31504,-25.37409 -3.87423,-33.54983 2.37732,0.27073 21.62723,-6.00617 29.73506,2.28263 3.28026,3.56845 0.70069,6.98256 5.4542,6.88706 6.55493,5.61106 -6.70311,4.3539 -0.33292,7.42661 -14.96138,-7.30265 0.0691,21.82762 -15.6089,15.80094 -15.06182,-5.93867 16.24294,-16.21906 -1.68999,-22.21556 -11.3762,-4.41187 -12.68062,8.021 -9.98102,15.4235 -1.00389,2.69264 -2.01091,5.72348 -3.7022,7.94465 z m -34.39316,-25.8217 c -11.11866,-0.93858 -19.78356,-12.09183 -5.05088,-15.20012 3.11052,-4.3854 8.9292,-20.9013 12.17811,-7.49262 2.68161,7.41676 24.15794,15.00548 9.00837,19.72386 -5.1007,2.07111 -10.62646,3.13704 -16.1356,2.96888 z m -21.05816,-25.86246 c -16.05393,-2.4341 2.0634,-27.83407 9.4374,-12.6182 5.30478,2.15413 17.41443,4.98249 5.09329,7.16935 -4.60649,2.3048 -9.14107,5.58122 -14.53069,5.44885 z m 46.78972,0.67588 c -2.75306,-6.31285 -25.72148,-5.98635 -10.57103,-12.1442 8.28827,-10.8431 28.49252,-2.00387 17.17127,9.87524 -1.86666,1.45442 -4.2232,2.31415 -6.60024,2.26896 z m -22.01211,-8.84938 c 1.3771,-12.43889 -16.66687,-19.52703 -17.06708,-28.17647 7.587,-7.215 20.42968,-5.46283 26.71581,-2.3802 9.05968,-5.03382 12.85157,12.3774 1.55337,10.3345 -6.25062,4.95326 -9.16304,12.77711 -11.2021,20.22217 z m 27.24404,-22.90126 c -7.0707,-9.57287 -7.85457,-25.19022 3.1415,-31.80133 9.8965,1.3748 -3.32357,19.60351 10.05628,19.33849 13.68457,0.006 7.12586,-14.02177 0.62762,-19.04386 6.13933,-10.06444 20.94244,2.0745 11.07738,9.83411 -2.7681,6.22753 1.29443,11.3166 3.09242,8.17986 4.91971,12.64923 -11.54348,14.2811 -20.00899,12.38796 -2.69137,0.0448 -5.40168,0.31716 -7.98621,1.10477 z m -59.48052,-0.47844 c -8.37623,0.0718 -23.43641,1.05391 -21.74956,-8.33842 -2.05868,-0.54761 2.76372,-2.92558 2.40209,-4.14768 4.87619,-0.51092 2.60012,-5.49718 8.36763,-0.38866 10.93949,5.56684 16.27391,-13.54648 6.63904,-15.36286 -3.65387,-6.12891 11.05156,5.02325 7.12322,-4.85241 9.59269,5.73865 5.94505,19.85901 6.11275,28.95467 -5.55802,-3.20802 -3.95268,6.33998 -8.89517,4.13536 z m -17.15493,-18.29217 c -14.0685,-5.23164 5.21652,-26.90698 7.38347,-11.26725 -2.09086,3.99685 -6.75442,6.50325 -7.38347,11.26725 z"
         id="path37" /><path
         style="fill:#d7194c"
         d="m 440.27161,1006.6755 c -15.00395,-4.8632 -6.71233,-25.15134 3.43602,-30.90356 7.03764,2.20131 13.85325,11.74198 15.43084,18.8001 -0.32263,8.96606 -10.52787,15.76356 -18.86686,12.10346 z m -23.9043,-19.05393 c -2.63014,-8.34349 -7.34674,-29.64879 6.26077,-27.94493 8.04524,7.06588 9.04395,30.28271 -6.26077,27.94493 z m 107.42083,-1.33948 c -14.37129,2.59691 -18.87645,-32.34207 -2.98695,-24.33272 5.59344,2.98967 18.47182,-2.01475 12.48668,8.58584 -3.40786,5.44476 1.63182,18.85464 -9.49973,15.74688 z m -161.77155,-0.2138 c -5.74157,-8.23062 -7.17139,-22.23252 6.26507,-20.97442 12.7859,-8.26598 15.66002,9.60519 7.80157,16.49812 -3.52257,3.65485 -9.0112,6.05483 -14.06664,4.4763 z m 112.02589,-0.56339 c -15.79934,4.18837 -15.11602,-20.45256 -5.22437,-26.18917 11.85892,-2.51578 8.18858,17.79006 6.29442,24.83576 -0.35668,0.45114 -0.71337,0.90227 -1.07005,1.35341 z M 348.49902,934.17142 c -12.246,-1.66959 3.27359,-17.7744 3.14232,-4.89079 0.1459,2.59133 -0.005,4.62649 -3.14232,4.89079 z m 75.37282,-14.20196 c -10.61455,-10.3359 10.18867,-27.03723 18.88818,-19.96073 1.9245,9.25933 -9.71033,20.83141 -18.88818,19.96073 z m 39.72359,-0.0293 c -9.82168,0.94986 -25.07457,-22.27032 -8.83304,-21.64619 8.71762,1.38775 23.13118,17.55928 8.83304,21.64619 z m -120.25311,-9.69148 c -14.42816,-3.43328 -10.00939,-29.85159 5.07197,-27.19316 6.80193,4.89885 21.49527,14.39683 7.77751,20.95769 -2.95399,3.79557 -7.50943,8.63762 -12.84948,6.23547 z m 196.59454,0.16111 c -5.10688,-6.33271 -18.16609,-15.61958 -5.55716,-21.90904 9.86412,-14.41595 31.07903,5.6136 18.45317,17.16686 -2.98887,3.75395 -8.1155,6.12058 -12.89601,4.74218 z m -95.65601,-14.20947 c -10.13068,0.54692 -24.61361,-7.20536 -22.69274,-18.85104 8.57094,-13.18984 23.1919,10.02167 22.69274,18.85104 z m 1.42388,-0.0959 c 0.22434,-10.51354 13.86394,-30.30354 23.74208,-18.10107 2.13996,11.36448 -12.5666,17.00026 -21.76203,18.16731 z M 443.2122,858.1813 c -3.54982,-4.44727 -7.75516,-12.91892 0.15322,-6.66604 4.88121,-2.34491 12.48719,-7.38851 9.08784,1.50478 -1.47119,3.46992 -9.06535,0.52173 -9.24106,5.16126 z m 19.71598,-20.38003 c 1.60483,-9.63743 -5.3005,-24.79441 6.04086,-29.98704 12.38788,0.0697 8.08476,20.89072 4.71353,29.07205 -5.63938,-1.9692 -10.20475,-5.43673 -10.1476,-1.6892 -0.69754,0.41821 1.10818,4.83539 -0.60679,2.60419 z m -46.08634,-1.47733 c -4.90567,-8.14192 -7.38174,-33.5751 7.39653,-28.13363 8.30182,8.26695 5.49972,26.2277 -7.39653,28.13363 z m -39.06398,-1.6447 c 0.61687,-12.35856 -21.11659,-16.70229 -22.17795,-9.22471 2.23871,-9.72461 6.06128,-29.10003 18.99866,-16.41135 8.92703,4.33294 5.97296,17.93179 3.17929,25.63606 z m 134.43155,-5.65366 c -10.30994,-9.69729 9.71294,-31.87259 18.13596,-19.9422 4.98467,5.91188 3.60284,16.36546 -5.85634,13.51147 -4.27291,1.49174 -7.43314,7.16421 -12.27962,6.43073 z m -67.51985,-9.75894 c -9.97871,-6.70664 -21.17509,-24.75968 -5.87814,-32.11698 11.91882,-6.33137 27.37598,11.15101 17.22932,21.31553 -3.44398,3.95912 -8.97927,5.8832 -11.35118,10.80145 z"
         id="path36" /><path
         style="fill:#0a6c8e"
         d="m 397.37957,979.23225 c -9.68088,-7.71162 -9.5758,-27.42926 5.59723,-26.11452 5.80722,-4.05484 8.86507,-1.37937 8.68737,4.15643 7.4121,-0.43552 5.43965,-2.61934 2.67878,4.52005 -2.29099,5.06934 -19.91697,-2.90129 -15.72614,9.45471 0.23435,-2.18876 4.24531,8.17681 -1.23724,7.98333 z m 93.84547,-0.7388 c 4.85614,-11.81518 -10.12627,-15.73347 -15.50549,-17.75299 -1.35649,-6.52869 4.11622,-17.15402 10.29944,-9.13913 12.30835,1.01511 19.32642,14.32342 10.20568,23.8207 -1.28591,1.5144 -3.03864,2.66735 -4.99963,3.07142 z M 367.28711,958.46881 c -11.61167,-1.60598 -8.38657,-19.10117 2.20091,-19.22862 5.23284,-4.79615 17.51891,-13.87852 19.44002,-14.41889 -3.09104,3.10063 -6.77556,10.39203 -7.90166,8.41865 -0.52451,6.94185 16.42382,5.29294 10.0768,15.34843 -0.91963,10.05289 -16.58688,9.39862 -23.81607,9.88043 z m 148.70314,0.10093 c -9.52599,-0.17891 -23.82968,-9.53551 -15.68274,-19.55054 1.65331,-1.01589 9.17644,1.31661 3.94401,-1.83494 11.92376,1.93473 -8.52446,-14.15266 3.79347,-8.37181 7.23708,4.73954 12.69388,14.32479 19.56097,15.03653 -0.73567,1.86236 0.6141,7.65385 -1.61993,2.37364 -3.30293,5.7688 6.41581,15.29631 -4.9822,12.29017 -1.64276,-0.17059 -3.41267,-0.63468 -5.01358,0.057 z M 388.14324,869.35283 c -7.62704,-7.29785 -15.4948,-16.29338 -26.33658,-17.98275 -12.03208,-11.09007 7.50083,-24.16726 17.46646,-13.90634 10.02571,5.2863 13.59038,-4.06976 12.64098,-12.21869 1.72724,-6.00522 8.99502,-10.58478 5.81186,-0.89459 5.61841,5.8056 22.30746,5.48909 20.13449,17.01222 -3.44895,0.4802 -6.67074,5.4305 -11.60894,0.55554 -6.9889,-7.3474 -21.96162,-1.86563 -13.90248,8.50068 2.62614,4.25414 8.36339,10.25376 -0.35999,10.64973 3.5373,1.73117 -5.68552,3.84531 0.15704,5.46486 -4.82147,-3.77934 -0.33831,4.00937 -4.00284,2.81934 z m 112.89262,0.0878 c 1.5213,-3.8037 -1.67543,-11.09829 -3.36526,-8.56574 -4.74237,-6.60687 10.62119,-26.36457 -5.91552,-21.69539 -4.69978,4.05697 -13.16377,6.24396 -16.58484,2.88004 -6.02652,7.83436 -7.70705,0.807 -1.92908,-3.70488 2.95926,-8.71453 12.60428,-11.5702 16.31044,-17.46788 3.57704,-14.11488 10.19626,6.8865 10.83903,12.01956 5.97574,13.05809 22.61421,-7.11428 31.68973,5.44746 8.47508,13.84295 -14.41407,14.88192 -21.293,22.10316 -3.50101,2.81268 -6.15846,6.29636 -9.7515,8.98367 z"
         id="path35" /><path
         style="fill:#372a62"
         d="m 402.6659,990.71007 c -7.24677,-6.25884 -1.60919,-18.32379 -4.00524,-25.80226 5.11196,-1.70392 16.76227,-0.92185 16.26159,-4.14508 -3.9017,9.56223 4.6432,21.61742 -4.36828,29.23919 -2.30615,1.57044 -5.31727,1.48522 -7.88807,0.70815 z m 78.2917,0.0551 c -9.66075,-6.03563 -7.7039,-33.66811 6.8188,-24.76422 6.71262,6.98662 6.726,26.74371 -6.8188,24.76422 z m 20.50269,-0.76312 c -6.88764,-6.48559 -2.72976,-24.24165 0.32466,-27.22061 10.29202,4.85952 14.96178,18.32309 6.41234,27.00256 -1.87659,1.60855 -4.73653,1.60569 -6.737,0.21805 z m -118.92124,-0.003 c -10.51742,-6.03381 0.63598,-33.83964 9.14863,-20.39327 2.56722,7.40666 2.68845,22.68659 -9.14863,20.39327 z m -27.25486,-21.78109 c -0.5308,-3.57693 8.03811,-5.24851 1.94281,-7.6353 4.91041,-2.46049 20.52018,-5.01382 19.46658,1.55443 -6.2254,3.82704 -14.42595,4.18008 -21.40939,6.08087 z m 171.51888,-2.71726 c -1.11319,-6.29867 -10.41749,-2.49362 -14.34018,-7.41273 5.25995,2.47204 23.55491,-3.54253 18.46037,5.82233 l -1.80965,0.96481 z M 349.27959,934.2009 c 10.73939,-6.65285 -13.04285,-11.57235 -0.1234,-15.114 11.0191,-2.30566 24.62384,-3.62059 34.53443,2.61823 8.55392,10.7801 -15.01981,13.35379 -22.33096,12.83936 -4.02767,-0.0805 -8.05014,-0.37004 -12.08007,-0.34359 z m 166.77484,-0.13837 c -8.48267,-0.65031 -17.25845,-13.35545 -4.07841,-14.78288 10.24749,-2.97052 30.78969,-6.06586 34.12329,6.61939 -3.29942,11.39257 -16.15156,8.46208 -25.86633,8.24885 -1.39217,-0.0531 -2.78525,-0.0893 -4.17855,-0.0854 z M 346.94568,874.90202 c -11.78197,-13.25591 11.62159,-21.77139 21.85944,-16.79967 8.19349,-1.34304 27.74474,12.51243 11.58352,15.65429 -10.76861,3.16022 -22.46483,2.47133 -33.44296,1.14538 z m 165.78448,0.62312 c -6.17123,-3.14993 -15.02929,-9.10493 -3.88155,-13.40831 10.75935,-6.85403 24.38748,-4.49811 35.92793,-1.22908 8.27835,13.97618 -12.86212,17.82339 -22.4499,14.78251 -3.19917,0.0235 -6.40076,0.0262 -9.59648,-0.14512 z M 386.28704,839.28757 c -9.05549,-5.77929 -26.25618,-0.96518 -30.123,-11.80207 1.90863,-13.09708 19.7787,-3.03991 21.43592,5.74754 2.26572,2.63131 7.25859,2.9689 8.68708,6.05453 z m 124.77902,-2.87352 c 0.91467,-10.47604 24.14551,-22.95056 23.93697,-7.07335 -5.1229,7.52339 -16.32191,4.61322 -23.93697,7.07335 z m -96.66422,-1.60825 c -2.58168,-9.78965 -22.40675,-3.55284 -16.52335,-18.33765 -4.41357,-13.25836 18.23573,-18.26694 16.80889,-3.39758 -0.7458,7.29976 -1.03761,14.4197 -0.28554,21.73523 z m 62.04287,-13.92744 c -10.61642,-12.82412 18.57458,-26.64072 14.87376,-7.13124 0.42071,10.78396 -7.6714,10.77835 -13.70448,17.47385 -4.00912,0.31352 0.12673,-7.93808 -1.16928,-10.34261 z m 23.56607,8.88789 c -3.83875,-8.18001 -3.85074,-32.59361 9.89512,-23.44294 6.35025,8.8656 -2.60746,18.82033 -9.89512,23.44294 z m -109.26841,0.23811 c -11.07926,-2.82442 -18.82603,-24.66136 -3.38769,-25.80003 10.35935,2.90784 4.17181,18.54579 3.38769,25.80003 z"
         id="path34" /></g></g></svg>
