<?xml version="1.0" encoding="UTF-8" standalone="no"?>
<!-- Created with Inkscape (http://www.inkscape.org/) -->

<svg
   width="88.587166mm"
   height="100.00003mm"
   viewBox="0 0 88.587165 100.00003"
   version="1.1"
   id="svg1"
   xml:space="preserve"
   xmlns="http://www.w3.org/2000/svg"
   xmlns:svg="http://www.w3.org/2000/svg"><defs
     id="defs1" /><g
     id="layer1"
     transform="translate(185.80556,-778.7237)"><path
       style="fill:#4e2175;stroke-width:0.595589"
       d="m -142.41214,878.24169 c -4.35072,-3.40099 -8.74232,-7.03284 -13.98233,-8.9236 -0.737,-2.24805 -0.19852,-4.77716 -0.35424,-7.14522 2.08219,-2.30404 5.02648,-4.05615 6.22343,-6.97299 -1.10644,-4.08217 4.88364,-1.35657 5.12081,-3.87085 -0.0876,-2.53471 0.21982,-5.15221 -0.21461,-7.62577 -4.25793,-4.38134 -6.76468,5.27391 -10.10085,2.81144 -1.82534,-1.74344 -3.62276,-3.51577 -5.43191,-5.27593 1.93823,-1.85587 3.75362,-3.85401 5.83547,-5.54991 -0.0604,-4.45936 -5.10118,-2.38134 -8.13097,-2.85738 -2.59989,-0.85531 -8.70071,1.63083 -9.36883,-1.2735 0.0242,-2.25446 0.0486,-4.50892 0.0728,-6.76338 5.51541,-0.002 11.03082,-0.003 16.54622,-0.005 1.32508,-2.39325 0.69686,-4.18922 -1.80155,-5.58487 -5.64474,-2.86223 0.92694,-7.08496 3.56103,-9.00687 2.81541,2.38033 5.19311,6.77322 9.06458,3.48559 -0.13576,-2.83369 0.45957,-5.92808 -0.243,-8.5773 -3.01934,-0.10824 -5.40145,-0.2212 -5.34178,-3.8726 -1.64105,-2.33719 -4.26447,-4.11315 -5.78694,-6.41321 0.16098,-2.34469 -0.38387,-4.85799 0.35541,-7.07889 5.60969,-1.55383 9.86112,-5.79158 14.54116,-9.01774 4.33251,0.59897 7.06914,5.59699 11.31564,7.17766 4.15703,0.7545 5.67388,2.58418 4.82777,6.81704 0.29434,1.78834 -0.14419,3.27723 -1.69106,4.31325 -2.09969,2.11223 -4.6926,4.31821 -4.4982,7.59077 -2.17043,0.0528 -6.00037,-0.38301 -4.99914,2.78927 0,2.11289 0,4.22578 0,6.33867 4.31191,3.88014 6.36906,-3.01237 9.94892,-3.26908 2.06335,1.82891 3.90183,3.90239 5.87897,5.82642 -1.87139,1.90671 -3.87718,3.69533 -5.58499,5.752 0.23326,4.77252 6.6819,1.74565 9.89777,2.69782 2.34747,0.0382 4.69494,0.0764 7.04241,0.11459 0.0307,2.58452 0.0615,5.16902 0.0922,7.75354 -5.44333,0.355 -10.90881,0.1486 -16.36208,0.20448 -0.56935,1.51461 -1.5425,3.12861 0.41434,4.02137 0.78948,1.66462 5.48089,3.37413 3.74189,5.08086 -1.88852,1.84528 -3.77704,3.69055 -5.66556,5.53587 -2.62374,-1.56426 -4.70032,-6.59095 -8.20594,-4.08211 -2.19504,0.16537 -1.10267,2.55252 -1.35337,4.0319 -0.976,3.79128 1.5126,6.04636 5.15682,5.45012 0.34261,3.8409 3.29091,6.84791 6.18703,9.12431 -0.0217,2.40446 0.083,4.81957 -0.19969,7.21265 -5.30354,2.13709 -9.78616,5.84178 -14.33659,9.21526 -0.64976,0.46426 -1.60829,0.38862 -2.17104,-0.17892 z m 4.51298,-8.29114 c 5.14372,-1.405 5.07216,-8.98572 0.69257,-11.22495 -4.27798,-2.67968 -11.14601,0.028 -11.1472,5.46346 -0.28097,5.17853 6.28272,8.0177 10.45463,5.76149 z m -5.27051,-2.08921 c -4.93996,-2.35847 -0.0649,-10.17749 4.30076,-6.90985 4.14891,2.8275 0.30423,9.45475 -4.30076,6.90985 z m 5.64609,-26.05496 c 8.18268,-1.89372 12.42707,-12.21424 8.24529,-19.42329 -3.82322,-7.59737 -15.16359,-9.65125 -21.14503,-3.41255 -6.75697,5.91908 -4.9659,18.09406 3.11237,21.9063 2.9903,1.54193 6.55893,1.85219 9.78737,0.92954 z m -6.14574,-5.0191 c -6.03831,-1.49151 -7.96062,-10.03984 -3.33373,-14.08355 4.13903,-4.14989 12.03596,-2.31866 13.74076,3.33582 2.04916,5.08597 -2.11311,11.09743 -7.57959,11.09758 -0.9529,0.0524 -1.91809,-0.0553 -2.82744,-0.34985 z m 5.02298,-37.81932 c 5.53818,-1.13972 6.55516,-9.34235 1.10539,-11.41644 -4.88346,-3.44301 -13.21355,2.2758 -10.04013,8.04822 1.60506,3.17942 5.64378,4.51439 8.93474,3.36822 z m -4.15627,-2.91518 c -5.14664,-2.24587 -0.46272,-10.07802 4.00276,-6.72198 4.07896,2.57298 0.16532,8.99592 -4.00276,6.72198 z m -32.68133,68.19935 c -2.69333,-3.42023 -7.88609,-4.50873 -10.32162,-7.51366 3.15442,-4.60385 2.12677,-10.3486 2.52815,-15.5797 2.8374,-2.66233 7.48818,-1.12387 11.13451,-1.51109 1.69083,0.0124 3.38167,0.0248 5.07251,0.0372 -0.13239,4.375 2.76569,8.47685 6.62723,10.36278 0.10177,3.48962 0.0666,7.14142 -3.40156,9.12711 -3.32177,3.3864 -6.43236,6.56917 -11.63922,5.07734 z m 5.02551,-8.54879 c 6.32133,-2.83447 -0.67218,-12.05377 -5.19978,-7.00211 -3.2315,3.54757 0.78392,9.17243 5.19978,7.00211 z m 54.50469,5.94207 c -2.55828,-2.83697 -6.94738,-5.24827 -5.9684,-9.69762 -0.64714,-3.0359 3.75857,-3.35657 4.7952,-5.85483 2.48181,-1.3623 0.66735,-6.1005 3.09392,-6.36925 4.86258,-0.1574 9.95321,-0.60041 14.662809,0.7324 1.01143,1.10413 0.18919,3.25965 0.45688,4.79022 -0.89435,4.29194 1.30671,8.63665 1.59265,12.30834 -3.754289,1.74025 -6.739869,5.15756 -10.350389,6.75517 -1.93168,-0.3676 -4.5823,1.05699 -6.06107,-0.54091 -0.74053,-0.70786 -1.48107,-1.41566 -2.2216,-2.12352 z m 7.87118,-5.90312 c 4.40324,-1.80029 2.46154,-8.98804 -2.24954,-8.39495 -5.62461,0.23108 -4.99644,9.6221 0.73109,8.81222 l 0.77704,-0.1358 z m -71.04294,-38.03421 c -6.19744,0.66712 -3.89286,-5.96325 -4.41206,-9.84513 1.27799,-2.91272 -2.2934,-6.17889 -1.5347,-8.06633 3.49374,-2.62604 7.33196,-5.58705 11.33925,-7.29338 5.31391,-0.91047 8.3553,4.24309 11.79823,7.29827 4.42745,4.45015 0.51275,9.18713 -3.46643,11.9744 -2.61226,1.99779 0.24154,7.55634 -4.59312,6.04786 -3.04319,0.0145 -6.09101,0.0383 -9.13117,-0.11569 z m 8.51661,-7.96482 c 5.43676,-2.23327 1.36111,-10.90573 -3.8174,-7.94613 -4.36678,2.00114 -1.95665,9.20854 2.72393,8.27178 l 0.57214,-0.11934 z m 58.99195,7.99524 c -1.45885,-0.24616 -4.14332,0.79969 -3.58225,-1.57583 0.18767,-4.25565 -3.75295,-6.81031 -6.88125,-8.9161 -0.16565,-3.11907 -0.0999,-6.48271 2.98244,-8.28097 3.22099,-2.81639 6.12302,-8.01544 11.12431,-6.15912 3.58308,2.00567 7.20118,4.46093 10.576879,6.84608 1.018,2.26062 -2.705619,5.90945 -1.50662,9.15327 -0.09,2.75472 -0.13939,5.51054 -0.20547,8.2659 -3.609759,0.5039 -7.251959,1.00788 -11.002159,0.6846 l -0.73096,-0.009 -0.77492,-0.009 z m 3.60672,-8.11181 c 6.11861,-2.79614 -0.57,-11.77745 -5.09723,-7.09371 -3.31742,2.98336 0.41789,8.81295 4.5208,7.29811 z"
       id="path26" /></g></svg>
