<?xml version="1.0" encoding="UTF-8" standalone="no"?>
<!-- Created with Inkscape (http://www.inkscape.org/) -->

<svg
   width="120.30074mm"
   height="97.861206mm"
   viewBox="0 0 120.30074 97.861205"
   version="1.1"
   id="svg1"
   xml:space="preserve"
   xmlns="http://www.w3.org/2000/svg"
   xmlns:svg="http://www.w3.org/2000/svg"><defs
     id="defs1" /><g
     id="layer1"
     transform="translate(-134.22322,-467.6271)"><path
       style="fill:#022e28;stroke-width:0.645154"
       d="m 187.6998,565.09168 c -1.93472,-1.32051 -2.52944,-5.07222 -5.42134,-4.28248 -1.56777,-0.25483 -0.30336,-3.32904 -0.7041,-4.74563 -0.61451,-2.12791 0.97654,-3.33384 2.38123,-4.61769 0.41609,-3.5866 0.0555,-7.49761 0.17323,-11.20886 1.81712,-1.53473 3.39025,-3.6738 5.35153,-4.85146 3.36917,-0.005 6.73835,-0.009 10.10752,-0.0136 1.53279,1.76232 3.69211,3.26545 4.86045,5.17855 0,3.53964 0,7.07929 0,10.61893 1.18421,1.40997 3.37562,2.401 2.73115,4.57158 -0.21862,1.57278 0.43822,4.02102 -0.30941,5.0648 -2.55071,-0.7497 -3.67353,1.33959 -4.96982,3.14829 -1.14492,2.51214 -4.10111,1.09209 -6.22473,1.46053 -2.63886,-0.11346 -5.42521,0.29546 -7.97571,-0.32298 z m 16.57726,-8.55262 c 0.6338,-2.41192 -2.57239,-0.98385 -3.96878,-1.36558 -5.27736,0 -10.55471,0 -15.83207,0 -0.52919,2.3678 0.40743,3.26978 2.78466,2.73115 5.67207,0 11.34413,0 17.01619,0 0,-0.45519 0,-0.91038 0,-1.36557 z m -55.87483,6.88478 c -0.19344,-3.14291 -0.0857,-6.29712 -0.11378,-9.44524 1.5807,-0.2294 4.05754,0.43734 5.1209,-0.30941 0.3835,-1.4835 -0.78373,-4.51772 0.61881,-4.9822 2.35991,0.53204 3.24747,-0.41839 2.72892,-2.78462 0.54669,-2.27232 -0.94152,-6.6069 0.68508,-7.79859 1.54114,-0.2334 3.99535,0.44628 5.01419,-0.30941 0,-1.77452 0,-3.54905 0,-5.32358 7.16928,0 14.33855,0 21.50783,0 0.48959,-2.38156 -0.29495,-3.49548 -2.78463,-2.91294 -4.84704,-0.0247 -9.69408,-0.0495 -14.54112,-0.0742 0.23489,-4.0135 -0.83776,-8.35565 0.7576,-12.09717 2.95575,-1.05345 0.88077,-4.83231 1.56373,-7.16384 -0.31705,-3.57468 5.91267,0.38193 4.59192,-3.50582 -1.08889,-2.69277 1.97518,-3.2464 1.8765,-5.40448 -1.50568,-4.08447 2.43469,-3.92233 4.43929,-4.3145 -1.04545,-4.84142 5.13921,-3.79646 4.67859,-7.83085 3.35492,0.21791 2.39041,-2.51376 2.49068,-4.89985 -0.56597,-1.35897 -3.57976,-0.30443 -5.14217,-0.68092 -2.04959,1.00494 -1.94189,-3.2973 -0.90845,-3.34878 1.98936,0 3.97872,0 5.96808,0 2.37659,-2.7436 -0.99204,-4.26689 -2.59567,-6.18989 -1.45247,-2.41249 2.47314,-4.37457 3.4571,-1.30946 1.32764,1.08765 2.38398,3.50542 4.25627,1.92262 1.1669,-1.13353 0.24984,-3.69687 0.58465,-5.4013 -1.03926,-2.07704 3.17858,-1.94461 3.25794,-0.8641 0.028,2.01876 0.056,4.03751 0.084,6.05626 2.85207,1.99429 4.53334,-2.01457 6.65484,-3.57524 1.09403,0.89944 3.64603,2.4022 1.18054,3.5759 -2.05787,1.169 -4.60079,5.15968 -1.33749,5.79104 1.87387,0.0265 3.74773,0.053 5.6216,0.0795 0.0854,1.89205 0.6838,4.28997 -2.06891,3.3817 -1.46174,0.42454 -4.96823,-1.18782 -4.48898,1.17025 0.0526,2.23883 -0.6012,4.69119 2.59486,4.41092 -0.61185,3.51613 2.08994,1.92795 3.31021,4.00853 1.9836,0.88891 -0.40086,4.5663 2.14651,4.01295 5.65564,-1.50028 2.07786,5.57427 5.31566,7.29747 -0.83436,3.77033 1.58518,4.14605 4.46089,4.36613 0.0321,4.07524 0.36915,7.38056 2.76252,10.33201 0.0927,3.42094 0.0331,6.84415 0.0498,10.26613 -5.8037,0 -11.60741,0 -17.41111,0 -0.48885,2.38435 0.29289,3.49813 2.78466,2.90186 6.29796,0 12.59591,0 18.89387,0 0,1.87766 0,3.75533 0,5.63299 1.71549,0.20841 4.26206,-0.41426 5.4623,0.30941 0,3.4246 0,6.84921 0,10.27381 1.89217,-0.0322 4.28183,-0.56197 3.41394,2.16585 -0.28516,2.15211 -0.1446,3.87851 2.47512,3.12575 2.77447,-0.81495 2.6778,1.24125 2.4751,3.40348 0,2.05185 0,4.10371 0,6.15556 -5.7468,0 -11.49361,0 -17.24041,0 -0.17955,-2.94256 0.43672,-6.04542 -0.4088,-8.86658 -5.35569,-2.03473 -3.87478,-8.34656 -5.48161,-12.76755 0.16262,-3.89626 -3.67453,-8.1459 -7.08255,-6.20082 -0.68296,2.46733 0.85866,2.7101 2.95207,2.40107 2.41311,-0.0815 1.16769,4.25938 2.21023,5.83555 1.47686,4.09141 0.10113,10.08804 4.55082,12.27907 0.81407,1.40538 0.12346,3.6098 0.35542,5.3243 0.91007,2.80792 -1.93054,1.8715 -3.70951,1.99494 -2.10976,0 -4.21953,0 -6.32929,0 -0.0381,-3.65093 -0.0761,-7.30186 -0.1142,-10.95279 -1.4085,-1.30826 -3.30647,-2.40217 -2.65453,-4.61278 -0.13704,-3.16501 0.28357,-6.54097 -0.19686,-9.57609 -2.28217,-1.59173 -4.16124,-4.05976 -6.33571,-5.58381 -4.46044,0 -8.92089,0 -13.38134,0 -1.71669,2.34925 -4.48731,3.95752 -6.11184,6.13166 -0.0318,3.79524 -0.0636,7.59049 -0.0954,11.38573 -1.44075,1.16084 -3.20649,2.17035 -2.54791,4.30869 0,2.96646 0,5.93293 0,8.89939 -3.35704,0 -6.71409,0 -10.07113,0 0.003,-2.36131 0.007,-4.72262 0.01,-7.08393 1.53984,-1.05181 3.46509,-1.85386 3.23682,-4.0513 1.10169,-4.59313 1.43269,-10.23485 2.90637,-14.29863 1.5943,-0.27045 4.69797,0.96847 3.91926,-1.67499 0.29182,-2.13157 -3.09719,-0.58231 -4.46308,-1.05616 -2.39563,1.28269 -1.72626,4.56444 -2.56703,6.81405 -1.24543,4.75107 -0.80838,10.52739 -5.75569,12.91415 -0.37855,2.78512 -0.10923,5.62659 -0.18718,8.43681 -5.76587,-0.029 -11.53643,0.081 -17.29909,-0.1137 z m 40.34141,-36.58606 c 0.3853,-2.27722 -0.0602,-3.72367 -2.60321,-3.07255 -0.29936,1.79165 -0.0418,4.14025 -0.12794,6.1451 2.36779,0.52919 3.26978,-0.40743 2.73115,-2.78466 z m 6.99858,-0.76814 c -0.26558,-1.57298 0.96997,-4.64709 -1.675,-3.84068 -2.11732,-0.27877 -0.60922,3.06788 -1.05616,4.45949 -0.1963,2.03486 -0.31437,3.99149 2.29379,3.22188 0.99856,-0.0942 0.15864,-2.97411 0.43737,-3.84069 z m 6.82788,0.76814 c 0.3853,-2.27722 -0.0602,-3.72367 -2.60321,-3.07255 -0.29938,1.79163 -0.0418,4.14025 -0.12795,6.1451 2.3678,0.52919 3.2698,-0.40742 2.73116,-2.78466 z m -21.16643,-0.94803 c -1.57661,-2.39165 -1.5299,-5.80097 -0.73005,-8.61413 3.20347,0.75145 3.19075,-1.24924 2.9491,-3.72023 -0.45427,-2.31062 0.16758,-3.54511 2.6352,-2.93383 1.70457,-0.20518 0.34177,-3.47774 0.77875,-4.95051 0.16157,-2.46297 -0.32487,-5.24066 0.24319,-7.50619 2.77911,-1.1172 5.97062,-0.0159 8.94246,-0.34557 3.25578,-0.40379 6.90069,0.0672 5.49298,4.56557 0.003,2.74558 6.9e-4,5.49117 10e-4,8.23675 1.87289,-0.0699 4.09573,-0.48967 3.24324,2.16585 0.42856,1.42419 -1.09918,4.80469 1.23763,4.32064 3.51396,-0.53831 2.53973,4.92285 1.93873,6.93962 -2.34401,2.19226 0.83558,4.10629 2.24736,2.03382 1.96298,-1.22079 0.71664,-3.82599 1.06277,-5.74425 -0.2426,-1.86688 0.8307,-4.39353 -1.39075,-5.35548 -3.20177,0.90835 -1.9755,-2.31346 -2.19388,-4.24929 1.25919,-3.27969 -3.81354,-1.71642 -3.24325,-4.07966 -0.14802,-2.79411 0.28999,-5.81808 -0.21035,-8.47401 -1.33105,-1.23095 -2.25773,-3.38819 -4.4051,-2.74925 -4.1423,0 -8.28459,0 -12.42688,0 -1.4449,1.81964 -4.14862,3.09667 -3.44131,5.76674 0,2.23138 0,4.46277 0,6.69415 -4.16162,-0.92828 -3.41151,3.82603 -3.41394,6.51314 -3.09008,0.30375 -4.12498,3.92624 -3.40991,7.44709 -0.41787,2.30401 0.26181,5.1202 3.15428,5.07233 1.17522,0.13225 0.95867,0.0267 0.93842,-1.0333 z m 4.46324,-5.11172 c 1.38898,-2.01428 4.07314,-0.76816 6.12667,-1.10953 3.31656,0 6.63311,0 9.94966,0 1.55059,1.68789 4.20589,3.31603 1.77101,-0.34693 -1.35758,-2.38455 -3.83586,-2.38507 -6.2178,-2.21244 -3.4018,0.1321 -6.98641,-0.26044 -10.2755,0.19513 -1.81346,0.44386 -5.25205,6.87349 -1.35404,3.47377 z m 12.77715,-7.25462 c 0.61434,-2.49201 -2.81894,-0.9364 -4.26743,-1.36558 -1.46487,0.41279 -4.85466,-1.09933 -4.26741,1.36558 -0.61433,2.49199 2.81893,0.93639 4.26741,1.36557 1.37565,-0.42675 5.03758,1.11502 4.26743,-1.36557 z m 0,-5.46231 c 0.61433,-2.492 -2.81895,-0.93639 -4.26743,-1.36557 -1.46487,0.41279 -4.85465,-1.09933 -4.26741,1.36557 -0.61434,2.492 2.81892,0.9364 4.26741,1.36558 1.37566,-0.42675 5.03759,1.11502 4.26743,-1.36558 z m -2.56046,-22.70753 c 6.47914,-3.74893 -3.49513,-11.62591 -5.64185,-4.39638 -0.87658,3.13024 2.82412,5.98073 5.64185,4.39638 z m -61.79231,70.85003 c -0.13923,-2.09186 -0.28639,-4.30264 1.98523,-5.30276 -1.47469,-3.83317 3.07711,-4.09651 3.76003,-6.16308 0.32345,-1.73419 -0.44869,-3.96974 0.60005,-5.37203 1.48632,-1.52212 3.99744,-0.40773 5.94242,-0.74986 0.40473,-1.98955 0.057,-4.73157 0.17305,-7.0098 -0.66036,-2.4362 0.24121,-10.87152 2.90185,-7.25402 -0.99258,2.12108 1.54314,3.31558 2.446,1.7045 0.16027,-3.79675 2.32725,-6.60518 2.7932,-10.09248 3.24055,-1.18681 2.08925,2.1189 2.22213,4.06698 0.91757,1.07436 3.87636,0.70383 2.78052,-1.66116 -0.0347,-2.0132 -0.47696,-4.48611 2.09842,-5.16022 1.74879,1.70122 -0.47058,6.1975 1.23017,7.31226 1.32475,0.5885 0.25465,3.57184 0.59744,5.14229 -0.32015,1.49919 1.01479,4.65346 -1.55334,3.90466 -3.35548,-0.54087 -2.72652,2.93567 -2.7141,5.02926 -0.13199,1.68297 -3.2791,0.35084 -4.67046,0.77444 -2.03013,-0.1653 -0.49601,3.26439 -0.99748,4.64094 -0.0168,1.95231 -0.0336,3.90462 -0.0504,5.85693 -4.22176,-1.09788 -2.53739,4.23129 -3.94739,5.3769 -2.29436,-0.42857 -5.21095,0.37015 -4.3314,3.2254 -0.36393,1.55526 0.76373,4.60211 -0.61881,5.13875 -3.54907,0 -7.09813,0 -10.6472,0 3e-5,-1.13597 6e-5,-2.27193 9e-5,-3.4079 z m 108.9047,-0.1937 c -0.1238,-1.6759 0.64558,-4.21277 -1.47016,-4.76245 -1.63381,-0.14502 -4.36339,0.80572 -3.48006,-1.85644 1.26408,-3.18064 -2.50961,-3.00829 -3.41433,-4.05395 -0.0284,-3.29303 -0.0567,-6.58606 -0.085,-9.87909 -1.71977,-0.2618 -4.2535,0.2809 -5.46835,-0.47995 -0.42058,-1.76351 0.90416,-4.56483 -1.28875,-5.33947 -3.21561,0.88165 -3.10168,-1.33771 -2.8872,-3.78242 0.20772,-1.67343 -0.41937,-4.18168 0.30941,-5.33406 1.24671,-0.54207 0.20543,-3.37213 0.54408,-4.82226 -1.38339,-3.6239 3.43672,-2.20804 2.91433,0.42966 0.44186,1.47364 -1.00742,4.79939 1.39078,4.35706 2.40979,0.70066 0.94712,-2.70524 1.4045,-4.07515 3.72296,-2.57126 1.85537,4.5378 4.58995,5.83914 0.39577,2.28898 -0.40549,5.29623 2.85745,4.33121 -1.28471,-3.15553 2.73607,-4.60822 2.77451,-0.79261 0.13154,4.24578 0.13547,8.49425 0.19919,12.74138 3.19072,-0.0991 7.9156,-0.13425 6.57184,4.58429 -1.49742,3.8726 4.40419,2.49203 3.56675,6.46121 0.55607,2.57115 3.06596,4.53041 2.06623,7.89886 0.89283,2.84268 -1.81125,2.08845 -3.71289,2.13667 -2.4608,0 -4.92161,0 -7.38242,0 4e-5,-1.20054 7e-5,-2.40109 1.1e-4,-3.60163 z"
       id="path17" /></g></svg>
