<?xml version="1.0" encoding="UTF-8" standalone="no"?>
<!-- Created with Inkscape (http://www.inkscape.org/) -->

<svg
   width="82.617271mm"
   height="99.73188mm"
   viewBox="0 0 82.61727 99.73188"
   version="1.1"
   id="svg1"
   xml:space="preserve"
   xmlns="http://www.w3.org/2000/svg"
   xmlns:svg="http://www.w3.org/2000/svg"><defs
     id="defs1" /><g
     id="layer1"
     transform="translate(162.08389,-193.41386)"><g
       id="g3"
       transform="matrix(0.63813618,0,0,0.63813618,-195.3685,6.8658046)"><path
         style="fill:#de9908"
         d="m 111.25078,432.40774 c -3.73764,-2.52959 -8.68443,-4.38085 -4.18613,-8.9534 -0.44375,-7.65974 -8.129387,-10.29183 -12.388498,-15.1162 -4.817694,-4.61612 -9.921973,-11.216 -17.521873,-9.72993 -7.704895,0.63084 -8.852137,8.94786 -9.777739,14.3098 -5.869199,7.63555 -8.289749,-4.15631 -7.012164,-8.8857 1.917339,-11.21082 14.84522,-16.15607 24.967703,-13.59679 6.590359,1.62188 13.543674,3.78516 18.283581,8.72254 4.60437,6.13053 11.61388,11.74442 12.10091,20.1483 0.4875,4.06219 -0.75517,12.26554 -4.46579,13.10138 z m 3.36703,-45.34613 c -4.00837,-5.09461 -12.1292,-8.80543 -14.07124,-14.38156 3.68991,-6.46042 10.92278,-9.43346 15.60963,-15.01175 4.71049,5.05361 10.44288,9.14314 14.67816,14.58924 1.7379,2.42296 0.47077,8.28924 -2.45111,7.63528 -1.75119,-2.76773 -7.96246,-4.4256 -6.69747,-8.07171 -1.16528,-8.83624 -7.83058,-7.53227 -11.29858,-1.13786 -2.30119,5.60841 10.30981,8.40811 10.62219,13.52894 1.01173,0.44593 0.0453,4.03829 -2.53928,4.64454 -1.28412,1.68142 -2.83151,-1.2412 -3.8523,-1.79512 z m 30.23505,-5.75053 c -5.55491,0.97863 -5.59393,-4.60913 -1.27452,-4.24264 7.47737,1.05652 16.17643,-6.29862 12.84921,-14.08328 -4.50987,-3.45945 5.77492,-13.12632 8.23758,-6.52934 1.65093,3.9144 10.08782,7.43051 8.56477,11.11445 -6.69962,5.60032 -12.53142,14.47367 -22.23608,14.1783 -2.05454,0.0657 -4.11712,-0.0752 -6.14096,-0.43749 z m -62.044785,0.0885 c -8.674482,-0.14533 -14.621234,-6.85469 -20.238648,-12.54634 -5.573683,-5.39594 7.051053,-10.21909 10.169229,-14.31845 2.905624,-2.17779 6.845089,3.75642 8.204711,5.70952 -6.568675,4.90886 -2.722733,15.36746 4.94458,16.41069 4.051527,-1.2181 9.708632,3.22365 3.238609,4.39332 -2.071132,0.40937 -4.215154,0.62138 -6.318481,0.35126 z m 29.324565,-34.30361 c -7.10206,-6.98725 -12.900063,-15.19679 -20.424159,-21.76306 0.05494,-7.1007 9.970669,-10.13644 13.548339,-16.04557 4.08412,-4.49372 8.53769,-8.8579 11.33354,-14.31546 7.0651,10.51249 16.68253,19.15909 26.71232,26.71995 -4.02342,6.93222 -10.50832,12.13193 -15.63778,18.27842 -4.15796,2.50834 -8.11337,12.22132 -12.37039,10.32617 -1.06805,-1.05278 -2.11825,-2.12351 -3.16187,-3.20045 z m 6.39418,-10.13848 c 3.06155,-5.05212 12.41211,-9.52702 12.27528,-14.63127 -5.65178,-2.25089 -9.99759,-13.81902 -15.56431,-11.40781 -3.0647,5.26867 -12.53719,8.22681 -12.58791,13.79233 4.88289,4.32843 9.07187,10.86846 14.80417,13.48463 l 0.47587,-0.49827 z m -5.4901,-9.58285 c -7.82047,-2.95189 3.5161,-15.24464 7.18328,-8.25997 1.03335,1.83719 6.44605,3.59584 3.02952,5.49516 -3.33266,2.61421 -6.50846,9.30726 -10.2128,2.76481 z"
         id="path4" /><path
         style="fill:#173231"
         d="m 58.598701,448.26021 c -7.066081,-3.35085 -3.150181,-13.58769 3.027816,-15.71416 8.714479,-10.21665 18.860211,-19.12479 27.585466,-29.32546 2.992682,2.5426 5.740567,5.35007 8.411125,8.22408 -8.06324,10.18945 -17.257098,19.41495 -25.701292,29.25407 -2.658034,5.14677 -7.072504,9.1691 -13.323115,7.56147 z m 108.994759,-0.25507 c -7.69702,-2.87022 -9.87978,-11.87296 -16.13738,-16.58977 -5.92825,-5.93402 -10.73948,-12.9061 -16.64146,-18.82586 -5.36196,0.94859 -11.38287,10.56237 -6.02717,15.31359 -3.38403,2.7677 -8.283,6.34817 -8.72257,-0.67768 -3.18653,-6.81909 -0.56327,-14.44965 4.01579,-19.91189 7.81558,-4.39819 -2.8335,-8.97893 -2.13016,-13.52239 4.34953,-3.19809 10.13293,-13.55337 13.31491,-4.10041 2.27237,8.16344 8.92692,0.14663 14.3916,0.48154 9.13343,-1.87051 21.73872,1.86537 23.21983,12.39802 2.4537,5.10138 -5.88568,16.78049 -7.31221,6.95054 0.37114,-8.09224 -8.43175,-14.4814 -15.77163,-10.26485 -10.03222,2.808 -0.54856,10.07185 3.36653,13.97972 5.77634,5.67742 10.57537,12.21788 15.95668,18.24201 3.16713,4.2971 10.1155,6.70324 6.14022,13.50683 -0.3746,3.66428 -4.94976,3.98057 -7.66298,3.0206 z m -59.98604,-47.45802 c -4.39774,-3.19573 -16.591348,-6.10031 -8.101174,-12.78597 3.331134,-7.1757 9.264134,4.28599 12.910234,6.16794 2.2715,1.80773 -3.35032,5.73157 -4.80906,6.61803 z M 88.364324,360.79392 C 80.781224,351.86925 69.730065,346.22864 64.17618,335.5711 56.369293,322.79869 50.348789,307.52513 52.65842,292.33268 c 4.225343,2.35286 7.283165,10.94116 11.512828,15.27932 3.766687,4.50586 7.559229,8.47245 11.294639,11.74508 8.500231,8.42884 16.775032,17.11617 24.931823,25.88131 0.67359,3.72825 9.25934,6.82797 5.90855,9.89896 -3.64157,3.48257 -7.007143,7.27189 -10.813106,10.56528 -3.151862,1.38715 -4.96731,-3.38395 -7.12883,-4.90871 z m 6.796879,-10.09746 c -0.974619,-8.17814 -6.976262,-13.29199 -13.424712,-17.53111 -3.682122,-2.37025 -8.951871,-8.46458 -11.381096,-9.09494 3.022266,10.83137 11.197772,19.35947 19.526366,26.48518 2.10122,0.54836 8.134298,5.69373 5.279442,0.14087 z m 42.494707,13.07667 c -3.07592,-3.73821 -8.59856,-7.06982 -10.41999,-11.06589 4.75765,-5.54096 8.91676,-11.55192 14.33893,-16.5264 13.38807,-13.61668 28.30813,-26.08167 38.8322,-42.19078 2.55738,4.55159 0.38185,12.0301 -0.17043,17.55832 -3.00208,12.7342 -9.74923,24.49558 -17.95569,34.58936 -5.55377,4.58817 -11.56349,8.77149 -16.35416,14.28791 -2.69773,1.86067 -4.99368,8.89633 -8.27086,3.34748 z m 3.13407,-11.75016 c 11.40973,-6.39841 18.7397,-18.15885 23.68618,-29.89963 -5.73544,6.03694 -12.06367,11.46893 -18.98382,16.13735 -4.10855,2.82689 -8.37722,11.65331 -7.1334,14.91689 l 1.02051,-0.45415 z"
         id="path3" /></g></g></svg>
