<?xml version="1.0" encoding="UTF-8" standalone="no"?>
<!-- Created with Inkscape (http://www.inkscape.org/) -->

<svg
   width="74.989365mm"
   height="100.00003mm"
   viewBox="0 0 74.989364 100.00003"
   version="1.1"
   id="svg1"
   xml:space="preserve"
   xmlns="http://www.w3.org/2000/svg"
   xmlns:svg="http://www.w3.org/2000/svg"><defs
     id="defs1" /><g
     id="layer1"
     transform="translate(-33.18221,-1066.6261)"><g
       id="g40"
       transform="matrix(0.32704216,0,0,0.32704216,-175.35696,896.07806)"><path
         style="fill:#ffffff;stroke-width:4.70001;stroke-linecap:round"
         d="m 723.13042,686.83429 -73.29024,100.51235 16.75207,21.63808 91.4383,10.47004 97.72031,-18.84606 -29.3161,-110.28439 z"
         id="path40" /><path
         style="fill:#639cca"
         d="m 726.38997,826.79709 c -34.10584,-1.0925 -51.9427,-3.8223 -71.52688,-10.9469 -20.04815,-7.2934 -20.94392,-10.0857 -11.05956,-34.4746 6.13796,-15.145 8.596,-24.918 10.60952,-42.1829 5.43518,-46.6036 15.51256,-68.3162 47.71883,-102.8141 3.5692,-3.8232 6.66483,-7.2016 6.87919,-7.5077 0.60367,-0.8618 3.09283,-0.5546 5.34036,0.6591 2.95923,1.5981 6.03935,2.1891 13.68662,2.6261 2.15991,0.1234 2.17758,0.1665 0.80554,1.9632 -5.86886,7.6856 -11.87347,19.3954 -15.3056,29.848 -1.91945,5.8457 -0.83998,9.067 3.12499,9.3255 3.15418,0.2057 3.84584,-0.648 6.2485,-7.7121 4.2232,-12.4169 9.39785,-21.7967 17.05992,-30.9238 l 1.7279,-2.0583 3.19326,0.074 3.19325,0.074 0.1692,1.7198 c 0.41534,4.2216 0.82127,13.9145 0.98064,23.4157 0.2071,12.3472 0.42867,13.1288 3.90681,13.7813 4.89971,0.9192 5.50978,-0.9708 5.30245,-16.4272 -0.14402,-10.7366 -0.30636,-14.6707 -0.85433,-20.7036 l -0.17423,-1.9183 h 2.39907 2.39908 l 1.81992,2.1829 c 7.05118,8.4571 13.72931,19.9102 17.3945,29.8317 2.4193,6.549 2.99517,7.4426 5.04405,7.8269 3.28942,0.6171 5.53683,-1.4528 5.33809,-4.9164 -0.3116,-5.4305 -11.44822,-27.4821 -17.17067,-33.9996 -1.11028,-1.2646 -1.19804,-1.2338 4.60101,-1.6132 5.5934,-0.3659 8.38172,-0.9844 11.31102,-2.5089 0.90687,-0.472 2.14588,-0.8681 2.98714,-0.9549 l 1.43753,-0.1484 1.16061,1.2856 c 0.63833,0.7071 2.52983,2.7182 4.20332,4.4692 32.8827,34.4055 44.28533,58.0644 49.60488,102.9233 2.35506,19.8598 4.38497,28.0768 11.17693,45.2437 9.89547,25.0112 8.96868,26.9653 -16.88103,35.5932 -22.5868,7.5388 -64.02659,10.6921 -117.85183,8.9679 z m 42.73021,-19.1608 c 24.25024,-1.834 43.50179,-6.2798 62.97084,-14.5421 12.1238,-5.1451 12.44132,-9.5346 0.99757,-13.7906 -5.86546,-2.1815 -6.42812,-2.4592 -17.13716,-8.4578 -1.38244,-0.7744 -3.34697,-2.1705 -4.36562,-3.1025 -2.46138,-2.252 -2.56965,-2.2969 -6.15627,-2.5574 -4.35556,-0.3164 -8.51324,-1.7157 -11.8354,-3.9832 -1.9116,-1.3048 -3.17344,-1.8064 -5.28227,-2.0997 -2.51752,-0.3501 -2.02125,0.01 -7.02085,-5.0392 -5.2983,-5.3466 -10.119,-8.6161 -13.32553,-9.0376 -1.03841,-0.1365 -2.75608,-0.3629 -3.81705,-0.503 -2.6283,-0.3473 -4.72925,-0.3084 -7.86055,0.1452 -1.45521,0.2109 -3.54192,0.3857 -4.63715,0.3885 -5.43659,0.014 -8.03551,0.7773 -12.42847,3.6498 -1.67349,1.0943 -4.23334,2.6027 -5.68855,3.3521 -1.4552,0.7493 -3.41974,1.9382 -4.36562,2.6419 -2.79452,2.0792 -4.6674,2.5831 -9.78958,2.6342 l -3.04271,0.03 -2.64584,1.5524 c -3.43048,2.0128 -3.85349,2.3143 -6.22269,4.4361 -2.75001,2.4629 -4.57533,3.4888 -8.4426,4.7453 -1.82951,0.5944 -5.29091,2.0114 -7.692,3.149 -2.40109,1.1375 -5.55625,2.4505 -7.01146,2.9178 -1.45521,0.4673 -3.89599,1.4221 -5.42396,2.1216 -1.52796,0.6996 -3.55203,1.4689 -4.49791,1.7095 -11.17424,2.8427 -14.02292,4.5695 -14.02292,8.5002 0,3.6143 3.27976,5.5447 17.19792,10.1227 28.72161,9.4473 60.97444,13.3285 91.54583,11.0165 z m 52.47083,-45.9241 c 1.38756,-0.3853 2.93372,-1.9939 3.29873,-3.4319 1.14059,-4.4936 -3.92,-8.1487 -7.50074,-5.4175 -4.26652,3.2542 -0.9327,10.2752 4.20201,8.8494 z m -121.41821,-7.4862 c 3.27338,-2.4967 2.37667,-7.5988 -1.56412,-8.8994 -2.76006,-0.9109 -6.35888,2.424 -5.86959,5.4391 0.60811,3.7474 4.61315,5.6116 7.43371,3.4603 z m 104.96428,-0.8397 c 2.60304,-1.6702 3.04219,-5.2203 0.92724,-7.4959 -2.19832,-2.3653 -5.47914,-2.0554 -7.29711,0.6892 -2.8419,4.2905 2.08544,9.5557 6.36987,6.8067 z m -72.06593,-10.5983 c 3.29516,-1.9309 2.77764,-7.7255 -0.81142,-9.0854 -4.31698,-1.6357 -8.0203,3.4224 -5.65507,7.7238 1.26433,2.2993 3.91413,2.8573 6.46649,1.3616 z m 58.79146,-2.4824 c 4.52932,-2.3107 2.42394,-9.6927 -2.626,-9.2074 -2.44358,0.2348 -3.98297,2.0292 -3.97103,4.6288 0.0174,3.7962 3.45458,6.1817 6.59703,4.5786 z m 23.5962,-2.5123 c 2.68881,-1.7794 2.76286,-6.2431 0.13308,-8.0221 -4.3753,-2.9599 -9.56099,2.4515 -6.62283,6.9111 1.35624,2.0586 4.29709,2.562 6.48975,1.111 z m -47.09854,-2.6314 c 4.80349,-2.0201 3.32223,-9.4144 -1.88592,-9.4144 -1.60364,0 -2.5426,0.4372 -3.65184,1.7006 -3.14592,3.583 1.14559,9.5608 5.53776,7.7138 z m -53.27635,-1.6218 c 3.23913,-1.3534 4.13237,-5.0926 1.8402,-7.7032 -2.35523,-2.6825 -6.69175,-2.0973 -8.16049,1.1012 -1.86115,4.053 2.21941,8.3154 6.32029,6.602 z m 84.35723,-9.6197 c 1.26174,-0.573 2.04767,-1.5671 2.46538,-3.1183 1.08149,-4.0164 -3.14804,-7.3512 -6.69047,-5.2752 -5.06042,2.9656 -1.10879,10.8159 4.22509,8.3935 z m -44.98612,-5.326 c 2.70711,-1.3105 3.91761,-5.4299 2.37105,-8.0689 -1.75416,-2.9933 -6.27579,-2.5834 -7.92094,0.718 -2.30186,4.6192 1.31013,9.4034 5.54989,7.3509 z m 22.30551,-7.2138 c 1.44553,-0.9566 2.53162,-3.1902 2.34712,-4.827 -0.49858,-4.4234 -6.26696,-5.888 -8.79914,-2.2341 -3.02491,4.365 2.08148,9.9534 6.45202,7.0611 z m -40.4007,-2.7692 c 2.29471,-1.3555 2.99552,-4.9681 1.40355,-7.2352 -2.1954,-3.1265 -6.43826,-2.9362 -8.03407,0.3603 -2.1575,4.4568 2.51777,9.3044 6.63052,6.8749 z m -19.49487,-85.4098 c -8.28183,-1.3011 -12.44203,-4.9693 -12.43063,-10.9604 0.0132,-6.96185 4.7829,-10.86285 11.51568,-9.41838 8.49399,1.82234 25.11638,2.51484 48.40766,2.0167 15.02421,-0.32132 18.94441,-0.65549 25.33872,-2.1599 5.01831,-1.18068 9.42633,2.00569 10.41307,7.52718 1.11661,6.2481 -2.7092,10.9217 -10.38562,12.6869 -3.21516,0.7393 -68.36033,1.0146 -72.85888,0.3079 z m 31.76441,-27.98753 c -0.91759,-0.9176 -7.19319,-9.39348 -9.33368,-12.60617 -3.01915,-4.53148 -6.23393,-10.20913 -9.71162,-17.15178 -3.27321,-6.53445 -3.87064,-7.4389 -5.26185,-7.96601 -2.64141,-1.00081 -5.73746,0.99015 -5.73746,3.68955 0,3.57442 11.64075,25.66164 17.25471,32.73918 l 1.31168,1.65364 -2.0733,-0.003 c -1.14032,-10e-4 -3.44252,-0.11878 -5.11601,-0.26063 -8.33979,-0.70688 -10.71177,-0.79637 -12.64599,-0.47714 -2.73879,0.45203 -3.16126,0.1738 -6.06186,-3.99218 -1.27792,-1.83541 -3.68487,-5.18258 -5.34878,-7.43815 -10.43819,-14.14985 -14.21138,-19.51664 -19.34589,-27.51667 -9.47589,-14.76429 -9.18694,-24.25039 0.67231,-22.07099 8.19179,1.81081 11.54416,2.18016 15.6227,1.72122 7.29176,-0.8205 10.75573,-2.51922 18.37626,-9.01163 7.981,-6.79952 7.93586,-6.80067 20.37292,0.51796 11.00397,6.47533 14.46118,6.44067 24.45064,-0.24512 9.5637,-6.40085 11.2596,-6.49184 17.05084,-0.91488 9.9438,9.57587 16.9676,11.45111 31.60556,8.4382 17.34281,-3.56964 13.44482,9.26333 -14.10488,46.43607 -2.42661,3.27422 -5.49295,7.50094 -6.81408,9.39271 -3.58953,5.13996 -2.683,4.68516 -9.51134,4.77179 -3.17205,0.0403 -7.01752,0.19826 -8.54549,0.35114 -5.07606,0.50789 -8.28398,0.34427 -7.13788,-0.36405 2.64142,-1.63249 14.8902,-25.54867 16.61052,-32.43262 0.97271,-3.89238 -2.94482,-6.55027 -6.36507,-4.31845 -1.02696,0.67012 -1.44969,1.44627 -5.10364,9.37032 -5.65722,12.26838 -11.48786,21.99956 -16.19976,27.03696 l -1.19117,1.27346 h -3.54769 c -3.37303,0 -3.57837,-0.0307 -4.1707,-0.623 z"
         id="path23" /></g></g></svg>
