<?xml version="1.0" encoding="UTF-8" standalone="no"?>
<!-- Created with Inkscape (http://www.inkscape.org/) -->

<svg
   width="120mm"
   height="98.486107mm"
   viewBox="0 0 120 98.486106"
   version="1.1"
   id="svg1"
   xml:space="preserve"
   xmlns="http://www.w3.org/2000/svg"
   xmlns:svg="http://www.w3.org/2000/svg"><defs
     id="defs1" /><g
     id="layer1"
     transform="translate(-132.0932,-1193.8637)"><g
       id="g42"
       transform="matrix(0.56776112,0,0,0.56776112,-93.101351,602.42745)"><path
         style="fill:#e4a83c"
         d="m 494.77083,1212.2274 c -32.47308,-11.7146 -64.86471,-23.6552 -97.36412,-35.2964 0.11559,-6.8325 -0.29699,-13.6966 0.32846,-20.5022 35.14254,10.3156 70.06468,21.3873 105.13757,31.9446 11.97697,-2.2788 23.93309,-4.6619 35.95149,-6.7173 -12.59909,-2.0597 7.17846,-3.0875 11.44356,-4.5685 8.82257,0.063 17.76311,0.6655 26.66615,-1.9528 8.21885,-1.427 15.73894,-3.0548 23.94836,-4.3341 4.24841,-0.5192 -11.76313,-3.0186 -1.12515,-2.5814 4.57334,0.1105 9.66693,0.7088 7.83094,6.3523 -0.0527,6.7396 -0.033,13.4806 -0.18758,20.2187 -34.10842,6.8098 -68.24418,13.5124 -102.40698,20.0273 -3.61848,0.5058 -6.88908,-1.572 -10.2227,-2.5902 z m 14.81667,-36.3396 c -13.16375,-3.7218 -26.31092,-7.8575 -39.47869,-11.3511 -0.55766,5.5893 1.81092,14.8361 -6.59436,9.0973 -6.19453,-1.2707 1.76337,-13.6525 -8.55357,-12.1947 -8.86108,-2.5088 -17.55895,-5.7045 -26.13701,-8.8024 0.25904,4.5988 1.01182,10.5609 -4.12259,4.8042 2.21116,-6.996 -6.10009,-5.953 -10.36986,-8.0296 -4.79272,-2.8827 -14.871,-1.8799 -16.9268,-6.8209 0,-7.9829 0,-15.9659 0,-23.9488 37.57954,11.3388 75.02642,23.1361 112.7006,34.1508 10.34379,-1.6701 20.74676,-3.7255 31.03495,-5.9237 -3.89225,-1.9062 -16.48438,-2.8603 -5.04082,-4.0369 15.11197,-2.749 31.01583,-6.6838 45.58755,-8.8958 5.42986,3.8638 15.25854,3.6821 14.52864,-0.917 -8.92133,-2.3439 15.27626,-6.5035 11.22475,2.7962 -1.35718,7.5165 3.35404,20.0103 -2.51624,24.2651 -8.43492,2.0135 -17.38424,2.8366 -26.05467,4.4689 -22.52003,3.8625 -45.05272,7.6517 -67.56165,11.5787 l -1.71979,-0.2443 z m -37.63749,-36.3631 c -8.61828,0.1751 -3.52396,-9.4387 -6.66451,-12.8468 -11.78949,-3.4561 -23.52529,-7.1931 -35.0759,-11.2626 0.29714,4.241 0.03,9.8395 -4.53969,5.6874 2.8884,-8.4546 -6.72073,-7.7337 -12.1149,-9.8629 -8.38015,-2.5113 -20.04304,-2.8728 -16.1443,-14.7347 0.1745,-7.2175 -2.62546,-19.0606 8.31399,-12.2711 5.03659,1.1573 10.05269,3.1249 15.09806,3.8545 3.58109,-0.9788 13.89496,-2.1374 4.90835,-3.6472 -3.34964,-0.9667 -9.45993,-1.7101 -2.62898,-2.4905 2.96445,-7.9668 -7.51015,-6.1592 -12.12137,-8.4054 -4.52539,-1.1508 -9.05079,-2.3016 -13.57618,-3.4524 0.22831,-5.3637 -0.51713,-11.1431 0.46302,-16.2156 20.65504,4.5564 41.57093,8.2798 62.07982,13.2866 -8.75164,2.3047 5.26716,3.7489 8.75566,4.4555 3.83372,1.6697 8.33237,-2.5419 11.5502,-0.3265 10.19292,2.1698 20.36586,4.6073 30.65911,6.2029 3.76185,-1.8357 8.89324,-1.6133 1.63438,-2.7941 -8.90613,-2.0951 -18.16764,-3.1231 -26.86836,-5.814 -6.9918,-4.6918 -17.46343,-2.7746 -25.73,-5.2169 -18.9658,-3.7892 -37.97416,-7.3841 -56.89019,-11.412 25.68555,-4.1451 51.49297,-7.6221 77.33506,-10.5596 42.42864,6.7109 84.92488,13.0688 127.35504,19.7831 -0.0959,7.1693 0.14526,14.3553 -0.39689,21.5095 -32.17733,5.1819 -64.37779,10.2241 -96.57291,15.2962 -13.97285,-3.4684 -27.92644,-7.0161 -41.92261,-10.3894 0.83145,5.5335 -1.08224,14.9291 -6.14381,7.956 -6.37626,1.9807 -21.17977,-1.5691 -22.99471,4.2857 9.69509,5.4352 20.57046,-1.738 30.13414,3.0449 8.65722,2.8386 17.54573,-5.3529 26.03081,-0.5666 5.55651,1.4271 11.05666,3.8008 16.63625,4.8387 30.77276,-5.4768 61.49154,-11.4625 92.32337,-16.4708 4.84098,-0.5645 2.01963,5.2712 2.72778,8.1374 -0.0533,7.5203 -0.0664,15.0413 -0.18514,22.5609 -27.73759,5.4531 -55.56434,10.4797 -83.27921,16.0344 -7.82417,2.5698 -16.85632,2.653 -24.74337,-1.0108 -7.1859,-1.44 -16.03105,-6.1346 -22.25773,-5.909 -1.47901,4.9298 4.05002,14.5466 -5.15428,8.7252 z m -9.25124,-49.8289 c 0.79635,-6.2498 -9.30784,-3.8829 -13.12591,-6.4191 -5.94321,0.6345 -16.20114,-7.9396 -19.0836,-3.989 -1.86746,7.4506 2.03809,7.1744 8.50356,7.4815 7.85796,1.2415 16.18977,5.7798 23.82771,5.0325 l -0.12175,-2.1059 z m 63.72369,-26.312 c -7.01083,-4.4167 -18.16104,-3.8373 -26.79543,-6.2 -18.4432,-3.1363 -36.82833,-6.8199 -55.31169,-9.5883 -1.33896,4.8138 12.6237,3.211 17.19439,5.2747 21.34714,3.6961 42.64606,7.7626 64.02783,11.1965 l 0.58073,-0.2538 z m -53.66496,-1.2026 c -3.28457,-5.3849 -15.01535,-3.877 -21.75489,-6.0143 -4.22842,-2.0509 -9.92619,0.8651 -2.52836,1.7718 8.03879,1.2964 16.35449,3.5858 24.28325,4.2425 z m 67.95246,-4.6183 c -5.98191,-4.465 -16.92216,-3.3639 -24.76762,-5.6677 -7.40492,-0.044 -18.46078,-5.7168 -23.50848,-1.7899 15.65203,3.1505 31.63009,5.6692 47.45047,8.1264 l 0.56566,-0.2131 z"
         id="path44" /><path
         style="fill:#42737b"
         d="m 508.13229,1184.2784 c -10.25134,-3.0394 -20.27736,-6.9281 -30.65624,-9.4748 -4.8304,1.1358 -9.1791,1.5452 -7.57605,-4.7696 -2.43821,-10.5146 9.45857,-1.5929 14.653,-1.437 8.96124,2.4807 17.81193,5.4859 26.86393,7.5535 24.1931,-4.2398 48.3983,-8.4377 72.63803,-12.3946 4.14197,1.2672 13.39688,2.7951 14.63984,4.4121 -26.63964,5.0965 -53.3847,9.6476 -79.97277,14.9778 -3.50525,0.3096 -7.0929,1.76 -10.58974,1.1326 z m -55.29791,-17.9498 c -7.82142,-2.7582 -15.94113,-4.645 -23.7866,-7.2442 -2.04679,-4.6079 0.55087,-8.5337 5.04297,-4.6036 8.60261,3.7441 17.9552,5.531 26.64514,9.0014 2.88647,8.363 -3.63521,3.78 -7.90151,2.8464 z m -34.4991,-10.1032 c -3.93668,-1.0076 -7.50023,-2.3876 -0.9062,-2.4588 4.03599,-1.1142 9.6199,-1.83 6.89645,4.2323 -2.0156,-0.5227 -3.998,-1.1695 -5.99025,-1.7735 z m 79.21368,-12.1435 c -4.38197,-1.1864 -8.7278,-2.9144 -13.13175,-3.7713 -5.85438,2.2259 -9.06035,0.2025 -7.37118,-6.4462 -1.03656,-8.1014 9.71477,0.6068 14.14551,0.4061 7.37625,1.6222 14.49076,5.5639 22.09651,5.4699 7.29654,-0.9925 13.87792,-2.6906 21.17028,-4.0991 16.29984,-2.9476 32.49645,-6.5061 48.84294,-9.165 3.82772,0.3712 15.21001,1.6661 14.77371,3.8591 -26.50188,5.5611 -53.15273,10.4983 -79.60404,16.2575 -7.22681,2.9037 -13.98007,-0.6201 -20.92198,-2.511 z m -47.36041,-15.6 c -5.99447,-3.5003 -17.29036,-3.1524 -20.21568,-8.0128 -1.5262,-10.3085 10.87881,0.5564 16.29634,0.422 6.68227,2.0476 13.37408,4.0641 20.05892,6.1034 0.49936,4.2642 0.53167,9.0961 -5.16331,5.1307 -3.66392,-1.1987 -7.32157,-2.4173 -10.97627,-3.6433 z m -31.15391,-10.2248 c -3.38681,-0.9473 -8.75183,-2.4141 -1.9834,-2.5007 4.20545,-0.5379 10.99777,-2.4373 8.174,4.3976 -2.07091,-0.6076 -4.12827,-1.261 -6.1906,-1.8969 z m 88.56849,-12.0176 c -9.95351,-2.9255 -19.87598,-6.4731 -29.88061,-8.9865 -4.36148,0.4434 -11.25099,3.2698 -9.14543,-4.0627 -1.86613,-10.111 10.59742,-1.3114 16.18226,-1.3912 8.82111,2.0605 17.61795,4.6427 26.45077,6.4206 24.55126,-3.8278 49.08506,-7.7665 73.63209,-11.6212 6.21348,1.4226 12.48573,2.7055 18.67237,4.1572 -29.82666,5.8636 -59.84481,10.94 -89.75722,16.4243 -2.12013,0.4607 -4.18149,-0.2493 -6.15423,-0.9405 z m -51.46146,-15.0216 c -7.68309,-1.7458 -15.19146,-4.4645 -23.00763,-5.4977 -4.98717,2.0697 -1.70464,-5.8189 -2.44685,-8.2616 6.44688,2.2433 13.01482,4.6403 19.93453,6.0903 3.45093,2.3409 12.63778,0.2199 12.06841,5.8049 1.3751,5.6467 -3.75954,2.0903 -6.54846,1.8641 z"
         id="path43" /><path
         style="fill:#e27862"
         d="m 503.05525,1201.7548 c 0.0167,-4.4695 0.0333,-8.939 0.05,-13.4085 5.09875,-2.901 4.22953,4.9003 6.67822,7.8308 0.84407,3.0595 7.53777,10.1362 8.74631,4.8623 -5.57435,-2.3625 -7.38404,-8.8152 -9.35255,-13.6754 3.9582,-0.6338 12.97103,-3.4481 14.14367,-2.6523 0.81387,6.7543 8.83478,10.3256 14.72144,12.429 11.80644,4.2027 23.64607,-2.1547 33.91422,-7.4573 2.99137,-0.281 12.06344,-7.2631 4.87315,-5.8007 -10.60927,5.7075 -22.03765,12.7206 -34.57355,11.2142 -6.74713,-1.3175 -13.8488,-5.2781 -17.14796,-11.0774 5.98232,0.024 12.75879,-4.4393 18.13388,-0.7505 2.72669,3.1188 9.26575,-0.3455 3.5038,-1.9714 -3.10368,-1.1214 6.30386,-1.71 7.73046,-2.2865 7.29394,-1.4573 14.67317,-2.4449 21.98748,-3.7999 -3.42165,2.9707 0.10956,7.2033 1.43543,2.0595 -1.56369,-4.2726 8.44219,-3.4147 10.33812,-3.0401 2.62728,6.4179 -3.9406,11.9497 -8.56746,15.3738 -2.76475,3.7476 -12.17001,2.9997 -11.91466,7.6785 7.16866,-1.158 14.31291,-4.6357 19.47802,-9.85 3.86785,-3.8956 4.93676,-9.5742 4.50477,-14.8679 4.21797,-1.5138 6.50042,-1.2179 5.57321,3.8292 -2.13518,5.7812 -7.84316,13.2987 -3.75842,19.3675 2.81472,-4.2459 1.61555,-11.8701 6.19171,-16.1024 3.22359,-2.6901 -1.44755,-8.4087 0.46816,-8.8016 4.03135,-0.9815 9.30991,-2.8512 7.36266,3.7816 -0.0156,6.7058 -0.0692,13.4115 -0.1026,20.1172 -6.8806,1.4783 -13.78888,2.8407 -20.71559,4.0811 3.87868,-2.8764 -1.27474,-8.3744 -2.28518,-2.216 3.30184,5.2755 -7.67277,2.7757 -11.01008,4.9121 -23.36885,4.5564 -46.72715,9.1727 -70.11474,13.6296 -0.59609,-4.4009 -0.18591,-8.9605 -0.29192,-13.4085 z m 24.52392,5.3338 c 9.96118,-1.3328 20.2163,-1.3038 29.8734,-4.3146 4.79171,-4.7383 -6.5396,-1.3363 -8.86719,-0.9807 -8.91346,1.0416 -17.83756,2.2093 -26.77288,2.9402 -5.0434,1.273 -14.61648,-4.549 -16.54563,0.5837 7.22624,1.7539 14.88769,2.9995 22.3123,1.7714 z m -1.77592,-7.9524 c 3.31391,0.4921 10.0051,-1.1951 3.65501,-3.3536 -3.79098,-2.2175 -12.78052,4.6847 -3.65501,3.3536 z m 21.35508,-7.6336 c 7.23389,1.2509 14.86175,-1.5754 19.69854,-7.0485 -2.46941,-3.4222 -8.64156,4.9287 -13.23382,4.4338 -3.23156,0.2585 -14.03902,-2.5815 -10.90937,2.8562 1.48222,-0.067 2.95443,-0.2988 4.44465,-0.2415 z m -36.11562,-15.413 c 0.44046,-7.7601 0.0849,-15.5537 0.12155,-23.3283 4.61176,-0.3039 10.33421,-3.1815 14.25401,-1.7823 3.48343,4.8313 9.65453,7.149 15.28159,8.4935 6.35207,-1.0486 -1.79657,-3.9948 -4.14582,-4.3105 -3.42799,-1.4066 -13.71462,-6.6429 -4.23646,-6.4266 3.65107,1.0188 13.5969,-6.127 12.18919,0.9656 2.80477,7.506 12.31277,8.9046 18.20453,4.1018 2.70869,-0.1566 10.91086,-6.6413 4.13064,-5.3404 -5.54802,2.8604 -13.15447,8.645 -18.4387,2.0482 -4.11366,-4.7364 1.97414,-5.5939 5.52782,-5.85 6.5835,-0.8535 13.2102,-3.2481 19.77889,-3.11 2.87847,0.8462 0.15315,8.4602 4.1787,4.7364 1.19451,-3.4519 -2.02457,-7.7397 3.85387,-6.8526 6.37509,-1.9178 11.00798,3.9402 8.41157,10.0028 -3.95748,6.3725 -12.01868,8.1336 -18.42341,11.1181 -8.41011,3.6733 -17.64967,5.0801 -26.77287,4.1257 -2.99924,-1.9653 -12.02098,2.5661 -5.48886,3.0483 11.03916,0.2853 22.64062,1.0041 32.79517,-4.15 7.18251,-2.6497 14.522,-5.943 19.98436,-11.4179 4.56192,-4.5668 -1.99891,-11.9041 0.35176,-15.2986 9.41542,-0.7418 2.66247,10.2981 3.19607,14.892 6.95749,-0.9219 2.68105,-12.5331 5.62689,-16.8052 3.48475,-0.916 7.43611,-1.8615 6.06009,2.8996 1.17931,5.0605 -1.92524,6.5608 -2.47193,10.8809 -1.09535,4.4312 -3.44395,10.4487 -6.79769,12.5724 -29.10683,4.957 -58.22285,9.9344 -87.33407,14.8488 l 0.16307,-0.061 z m 24.54626,-8.043 c -3.13811,-3.988 -12.54602,-2.3933 -18.06884,-2.2284 -3.15848,4.9256 8.02974,1.9219 11.21276,2.6204 2.28411,-0.1003 4.59457,-0.026 6.85608,-0.392 z m 26.52517,-6.8171 c 8.12679,-1.8013 15.56783,-5.8905 22.16424,-10.8165 3.6136,-1.8105 2.24873,-7.3309 -1.19318,-3.2804 -9.44306,8.4543 -22.93749,14.5342 -35.70811,11.071 -5.39274,1.8685 5.06124,5.0953 7.53915,3.9684 2.42354,-0.052 4.84475,-0.356 7.1979,-0.9425 z m -51.00006,-33.3077 c 0.32748,-6.0303 -2.19994,-14.9525 6.76112,-13.8421 24.68085,-4.4107 49.38465,-8.6991 74.06424,-13.1127 5.87074,2.0678 8.47145,8.4762 11.54114,13.4135 0.29149,3.7464 2.94347,6.4573 4.07104,4.1308 1.20365,3.3917 -1.58539,3.6142 -4.10838,3.9835 -3.09407,0.6676 -0.17443,-10.0723 -5.03218,-7.2461 0.81007,3.9819 3.62751,9.5344 -3.09861,8.7731 -2.22365,0.4366 -6.17215,1.9408 -2.86822,-1.6067 3.59467,-7.0481 -3.40897,-13.8622 -9.9258,-15.44 -5.85963,-2.4582 -6.70739,2.8433 -0.5669,3.0152 7.44621,1.3906 10.15349,9.1858 7.05501,14.95 -4.42703,1.5355 -11.64439,2.3735 -17.08574,3.5681 -9.19585,1.5995 -18.33341,3.8394 -27.57076,5.0295 -2.67627,-5.7853 -13.63945,-3.1922 -16.46241,-7.5181 -2.76581,-5.2773 8.58913,-7.9387 5.12167,-11.2365 -5.49554,1.2527 -10.3668,8.2506 -6.2132,13.2492 0.47044,3.4859 8.7558,3.2306 12.9153,5.2535 4.2105,2.3374 -7.61673,2.39 -9.96785,3.2943 -7.6297,3.7677 -10.45648,-6.5621 -9.99061,-12.402 -0.38944,-2.748 7.56595,-10.686 1.63954,-8.6139 -4.34591,4.8154 -7.04974,12.7963 -2.46415,18.3794 1.49214,3.225 7.16968,5.4522 0.34815,4.7467 -3.87351,0.324 -10.01079,3.5604 -8.18521,-3.0864 -0.007,-2.5608 0.009,-5.1217 0.0228,-7.6823 z m 55.888,0.2091 c 6.29261,-1.7444 13.27908,-3.7589 17.55928,-8.9914 -0.39903,-5.9947 -6.87823,3.3105 -10.2655,3.2646 -8.73816,4.1437 -20.18968,5.5661 -28.4316,-0.4031 -6.99732,-0.6367 1.65614,6.6541 5.09138,5.9666 5.24673,1.1785 10.78353,1.3262 16.04644,0.1633 z m -29.88052,-0.8186 c -1.78507,-6.9902 5.77971,-10.1196 11.72517,-11.2246 6.01894,-2.1087 13.58743,0.5853 18.15653,-4.8176 0.93759,-5.7742 -4.55152,1.0593 -7.41243,0.5084 -7.87873,0.6811 -16.18994,1.8861 -22.88574,6.363 -2.343,1.3785 -4.34045,10.5532 0.41647,9.1708 z m 32.9214,-5.6649 c 5.73772,-0.1375 11.49718,-9.3259 2.86716,-9.9364 -6.28536,1.1262 -0.32079,3.6427 1.45709,4.3253 -2.71255,2.0682 -6.06235,4.2291 -9.64811,3.5893 -4.16986,1.0649 -11.61782,-3.3837 -13.17824,1.0396 5.48712,2.3081 12.64105,2.3187 18.5021,0.9822 z m 36.9573,-5.495 c -2.23583,-5.5621 -4.70606,-11.6071 -9.5711,-15.3762 0.52094,-1.0198 9.54991,-3.9768 10.17437,-1.5836 -0.12946,5.8187 0.0544,11.6568 -0.36996,17.4594 l -0.23336,-0.4996 z m -95.64887,-18.1114 c -0.30154,-7.058 -0.13192,-14.1285 -0.17639,-21.1923 3.62052,-0.4731 9.02644,-1.9456 11.33458,-1.4714 -4.54481,5.7764 0.62188,12.7616 6.40217,14.8682 2.18503,3.5872 8.36886,1.7251 3.37928,-1.2378 -5.83621,-2.3968 -11.0568,-7.7969 -7.75653,-14.0536 5.55556,-1.3624 11.32444,-2.1675 17.00644,-2.7908 -4.24774,5.8109 4.22829,9.6193 9.09734,10.2815 6.63146,3.2877 12.62124,-1.8917 18.4202,-2.5637 2.51339,6.9056 -8.3149,5.3491 -12.26177,7.1425 -7.02319,0.1444 -14.98363,-1.0839 -20.21181,-6.116 -3.53409,-6.5088 -4.51008,3.3226 0.53406,4.1384 8.24958,4.7703 18.62778,6.4832 27.69076,3.0953 5.76081,-1.7822 15.18561,-2.5063 15.41148,-10.3498 -1.10694,-8.5229 -11.50055,-9.3514 -17.67117,-5.8349 -2.88163,2.7431 -12.52795,-3.162 -11.02124,2.3731 6.07954,1.7549 11.98614,0.551 17.85624,-1.449 7.12301,-2.3014 10.94706,10.5276 2.51723,9.5751 1.67052,-9.0492 -8.85314,-4.9653 -13.00587,-2.0837 -4.94764,-0.485 -15.78688,0.2621 -15.08733,-6.7195 -2.8824,-3.2854 4.15377,-1.9727 6.84322,-3.125 18.94909,-3.0103 37.99786,-6.1042 56.87419,-9.0842 0.50629,2.9974 0.0526,6.735 0.18652,10.0179 -1.04428,3.4081 2.04757,10.5893 -1.8308,11.7684 -3.58011,-0.053 -10.50894,4.0491 -8.53737,-2.1121 -1.46319,-4.4425 -4.4012,-13.7624 -9.86965,-12.3906 2.38668,4.9552 7.27857,9.2683 8.3675,15.1424 -1.70692,2.9225 -11.02132,1.9137 -15.5013,3.4639 -18.42581,2.8233 -36.81766,5.9636 -55.25188,8.6664 0.9083,-4.0058 -7.058,-7.6058 -9.57973,-6.6179 0.34669,4.0121 14.26776,7.4724 4.04938,7.5481 -2.69992,0.2546 -5.58655,1.2412 -8.20775,1.1111 z m 78.03798,-14.2687 c 0.73118,-5.4072 -5.01533,-14.6429 -10.02769,-13.7193 3.1528,4.5163 6.67255,10.1839 9.55646,14.5744 z m 13.75914,-1.8553 c 0.10157,-4.5289 -2.12965,-15.9636 -7.70287,-14.0335 3.23317,4.2913 4.16474,11.1431 7.17194,14.9268 l 0.30219,-0.3088 z"
         id="path46" /></g></g></svg>
