<?xml version="1.0" encoding="UTF-8" standalone="no"?>
<!-- Created with Inkscape (http://www.inkscape.org/) -->

<svg
   width="65.83773mm"
   height="100.00003mm"
   viewBox="0 0 65.83773 100.00003"
   version="1.1"
   id="svg1"
   xml:space="preserve"
   xmlns="http://www.w3.org/2000/svg"
   xmlns:svg="http://www.w3.org/2000/svg"><defs
     id="defs1" /><g
     id="layer1"
     transform="translate(-165.48746,-1064.7374)"><g
       id="g41"
       transform="matrix(0.64027701,0,0,0.64027701,-74.544805,378.98828)"><path
         style="fill:#e92328"
         d="m 388.79729,1224.4361 c 14.31754,-23.2887 28.57219,-46.6234 42.47355,-70.1619 -7.21298,-0.5607 -14.50903,0.1713 -21.69584,-0.5373 11.50986,-21.3966 23.21726,-42.7093 35.00584,-63.9616 4.55542,-4.3278 10.96313,-6.3754 16.26375,-9.7701 5.6164,-3.0033 11.10115,-6.2995 16.87052,-8.9858 -13.52751,23.0046 -28.01255,45.4446 -41.68177,68.3684 8.03887,0.1827 16.08205,0.076 24.12286,0.1046 -23.37727,28.8786 -47.49967,57.1566 -71.36478,85.6352 -1.35576,1.7818 -0.67983,0.095 0.006,-0.6915 z"
         id="path42" /><path
         style="fill:#1a1f20"
         d="m 386.82694,1227.2018 c 5.76388,-18.972 11.71386,-37.8891 17.40101,-56.8854 -7.91822,-0.1171 -15.85393,0.1012 -23.75712,-0.3863 5.45797,-13.7434 11.08396,-27.4237 16.58084,-41.1535 -7.38783,-0.088 -14.77565,-0.1764 -22.16348,-0.2646 26.42864,-19.0949 52.92642,-38.0975 79.39846,-57.1319 -1.0073,3.8228 -6.13352,11.3275 -8.67202,16.4797 -12.09938,21.9097 -24.1956,43.8361 -36.03963,65.8769 7.18676,0.7087 14.48287,-0.024 21.69584,0.5373 -14.28555,24.0878 -28.77074,48.0697 -43.586,71.8358 l -0.46127,0.6607 -0.39663,0.4311 z"
         id="path41" /></g></g></svg>
