<?xml version="1.0" encoding="UTF-8" standalone="no"?>
<!-- Created with Inkscape (http://www.inkscape.org/) -->

<svg
   width="82.781509mm"
   height="100.00004mm"
   viewBox="0 0 82.781507 100.00004"
   version="1.1"
   id="svg1"
   xml:space="preserve"
   xmlns="http://www.w3.org/2000/svg"
   xmlns:svg="http://www.w3.org/2000/svg"><defs
     id="defs1" /><g
     id="layer1"
     transform="translate(-446.74655,-621.40324)"><g
       id="g34"
       transform="matrix(0.36940306,0,0,0.36940306,164.79889,492.18703)"><path
         style="fill:#afa2b3"
         d="m 893.46299,617.32516 c -4.88731,-7.58244 -11.94986,-15.38036 -19.39229,-18.26758 -0.37089,-10.67187 -0.13554,-25.75852 -13.3354,-28.6667 -6.31051,-4.6745 -21.85262,8.65412 -14.47672,-3.79503 0.62239,-16.09057 22.96598,-14.23368 27.78154,-2.465 -3.79452,14.79738 21.97381,20.98349 26.10683,6.44882 1.90879,-3.82837 5.36033,11.01307 8.2199,14.53659 5.71966,11.82508 12.0972,23.32429 18.95747,34.524 -10.528,0 -21.05601,0 -31.58401,0 -0.75911,-0.7717 -1.51821,-1.5434 -2.27732,-2.3151 z m -5.46776,-155.40411 c 5.07756,-7.63665 -7.1642,-23.65022 -6.12724,-22.81474 5.91373,2.14009 20.85332,1.41628 15.88706,10.58473 -3.87698,3.56062 -7.01231,7.76152 -9.75982,12.23001 z m -32.63101,-1.75395 c -1.41945,-5.40181 -14.36765,-11.60135 -8.82723,-11.64611 0.43598,-7.32219 19.05192,-6.41734 10.15673,2.30383 -1.65609,1.23232 0.88092,13.25743 -1.3295,9.34228 z m -78.30288,-15.94348 c -8.97919,0.0206 -16.04338,-1.25739 -12.61125,-12.02905 -0.59646,-4.78311 6.85966,-1.45574 9.97288,-2.5025 4.77235,-1.52071 1.57913,-0.033 9.3015,1.38315 11.41078,-0.006 13.82734,16.35636 0.47538,13.94179 -2.39904,-0.0158 -4.78961,-0.31854 -7.13851,-0.79339 z m 111.3629,-48.91875 c -13.22905,-8.89996 -15.47998,-29.7305 -3.43735,-40.57801 3.41391,-5.17124 8.95615,-5.03829 14.34991,-4.69388 10.37779,-0.75179 22.99597,0.0834 28.03034,10.87755 4.74081,10.34907 0.56055,20.60551 7.03486,29.69161 -6.40329,8.88864 -24.90466,3.23871 -36.01815,5.85372 -3.18707,-0.43036 -7.47455,1.45795 -9.95961,-1.15099 z m 33.25269,-29.3726 c 9.94402,-6.92722 -9.99044,-13.57385 -6.81396,-2.32393 1.12965,2.52678 4.425,3.49407 6.81396,2.32393 z"
         id="path36" /><path
         style="fill:#e4500c"
         d="m 817.37403,586.27831 c -15.05152,-1.48893 -13.44467,-19.69912 -7.78047,-29.49226 9.27144,-25.66847 17.22564,-53.11636 14.10248,-80.65413 -6.4893,-10.21155 -0.16465,-28.71817 13.85994,-24.38661 14.27781,6.41494 16.85836,23.94124 15.80377,37.87433 -1.57276,31.26922 -9.22482,62.11823 -20.66259,91.18966 -3.10589,4.96183 -9.91771,6.26456 -15.32313,5.46901 z m 7.95412,-5.53298 c 12.73075,-10.20082 -18.28355,-13.95318 -9.59232,-0.88279 2.6414,2.16399 6.5605,2.02622 9.59232,0.88279 z M 844.66238,521.482 c 12.66299,-6.18499 -3.04717,-22.56978 -11.64172,-13.00403 -7.21224,7.13071 3.99868,17.23571 11.64172,13.00403 z m -10.97012,-53.24955 c 9.45359,-9.12264 -14.63823,-9.04813 -4.79052,0.0667 l 2.30743,0.52678 z m -25.13647,-13.18277 c -18.14233,-3.35659 -7.40831,-22.17976 6.66531,-15.32055 11.24854,5.03014 3.50059,18.07123 -6.66531,15.32055 z m 155.42359,-10.93991 c -17.92145,-4.92851 3.06414,-16.90557 12.57717,-14.21815 8.3521,-2.29499 12.45536,0.57215 10.16083,8.75294 0.27037,8.12673 -16.6368,4.14032 -22.738,5.46521 z m -19.44235,-52.45003 c -12.28365,-10.04407 -9.89243,-31.31848 4.24445,-38.42682 11.24288,-5.89579 29.95953,-4.69293 35.34434,8.54666 3.36768,9.56447 2.28892,19.82966 2.48553,29.78407 -13.41357,-0.64981 -26.84463,0.77386 -40.20349,1.86093 -0.62361,-0.58828 -1.24722,-1.17656 -1.87083,-1.76484 z m 34.80922,-20.69598 c 11.32082,-8.04409 -13.89145,-13.27966 -7.4591,-1.31157 1.93492,1.86604 4.99993,2.38009 7.4591,1.31157 z m -180.05991,21.24942 c -11.62221,-0.75868 -23.28434,-0.97511 -34.925,-0.55912 0.4028,-13.03079 -2.34344,-29.28721 9.72904,-37.93515 13.99021,-8.39586 36.30569,-3.13518 40.30864,14.09725 2.57264,9.09921 -3.0741,27.58658 -15.11268,24.39702 z m 9.525,-22.44367 c 11.04555,-10.18015 -15.96431,-11.64755 -6.82665,-0.51575 1.92652,1.48076 4.68806,1.61373 6.82665,0.51575 z"
         id="path35" /><path
         id="path58"
         style="fill:#bd031d"
         d="m 932.63635,580.10526 c 13.38998,-16.72328 -25.95143,-5.79341 -3.482,0.75431 l 1.79971,-0.16473 z m -20.0294,-59.51376 c 14.66367,-7.35085 -6.56763,-24.65111 -12.3638,-10.38015 -2.9686,7.25878 5.82538,13.77366 12.3638,10.38015 z m 8.40829,-52.59491 c 12.07612,-7.5257 -12.87008,-11.45907 -5.54981,-0.9135 1.57476,1.23049 3.69568,1.47496 5.54981,0.9135 z m -2.73405,118.13014 c -7.06567,-10.3425 -9.60739,-24.50235 -13.73605,-36.63932 -6.50297,-25.81877 -12.95901,-52.99652 -8.31488,-79.66884 2.52448,-10.70372 14.29343,-25.09919 26.23102,-17.51096 13.2312,8.66401 0.11449,23.46604 2.28802,35.44358 0.94939,31.6075 10.80551,62.4136 24.22739,90.82619 -9.47017,4.71397 -19.95544,8.52263 -30.6955,7.54935 z M 937.5997,453.77812 c -18.69464,-5.30056 2.62152,-24.11328 13.11007,-13.33149 12.41115,7.5886 -6.75582,15.05762 -13.11007,13.33149 z m 42.38792,-35.35255 c 9.79498,-9.24645 -13.29027,-9.78101 -4.63249,-0.2697 1.36009,0.95012 3.19914,1.03845 4.63249,0.2697 z m -11.51653,5.14928 c -15.11753,-4.28853 -5.88648,-26.47598 7.89939,-22.93191 15.17674,0.79908 12.262,21.99666 -1.09578,23.09054 -2.23128,0.49882 -4.60284,0.53644 -6.80361,-0.15863 z M 866.95453,380.35326 c 13.77671,-10.08483 -16.47263,-16.83051 -9.46769,-1.96264 2.17156,2.85636 6.3314,3.45188 9.46769,1.96264 z m -11.17965,15.81133 c -10.52637,-1.20568 -24.80535,2.52534 -29.58397,-10.09194 -7.78236,-12.34434 -2.29138,-31.6759 12.77272,-35.082 12.53201,-2.16672 25.43174,-0.36623 38.12932,-0.56393 -4.67312,4.81422 -12.59568,6.43739 -4.8631,13.3022 5.28295,11.78273 -0.44327,27.52449 -12.21602,32.5887 -1.41354,-0.0305 -2.82866,-0.0439 -4.23895,-0.15303 z" /><path
         id="path34"
         style="fill:#542b5c;fill-opacity:1"
         d="m 802.62647,614.13475 c 11.96842,-10.04835 -17.29018,-11.57969 -6.81772,-0.38785 1.94583,1.53456 4.66975,1.16837 6.81772,0.38785 z m -1.09117,6.11021 c -16.16889,-0.75164 -16.03043,-24.79912 -1.30555,-28.19396 11.12559,-5.87633 24.99777,5.47337 18.96832,17.37981 -2.21066,7.49659 -9.96743,12.26378 -17.66277,10.81415 z m 63.59224,-29.64417 c 9.46169,-9.08954 -18.07545,-6.4352 -3.58318,0.4248 l 1.75574,0.15946 z m -43.15715,28.81686 c 6.77039,-14.11721 15.58572,-28.07599 20.98925,-43.13311 2.72097,-9.98856 19.54641,-7.66256 25.46985,-1.50326 5.8362,6.16263 6.26578,19.50891 4.69019,25.5444 -11.90308,-0.27594 -13.72832,15.33724 -22.06152,19.27007 -9.69516,-0.0411 -19.3972,0.12621 -29.08777,-0.1781 z m 133.28783,-6.35991 c 12.93444,-10.50737 -18.1406,-10.34152 -5.20874,0.0931 1.68193,0.48963 3.56308,0.58073 5.20874,-0.0931 z m -12.2584,6.32669 c -16.31047,-0.72851 -20.98025,-29.48323 -1.94201,-29.44274 12.0181,-2.03595 25.81808,12.16949 17.85625,23.40069 -3.63686,4.76711 -10.06743,6.97158 -15.91424,6.04205 z m -59.40705,-40.89375 c -11.29649,-1.49373 -13.12623,-18.0003 -2.48031,-21.99954 9.93713,-6.16338 23.32747,5.84383 18.09646,16.11651 -3.01781,5.38111 -9.89571,7.228 -15.61615,5.88303 z m -8.23872,-30.59097 c 13.52039,-9.55388 -16.95638,-14.83565 -8.64941,-0.95595 2.57351,1.73174 5.75747,1.61442 8.64941,0.95595 z m -6.47548,5.97507 c -15.37917,-2.23632 -18.49934,-26.61184 -4.0929,-32.38835 13.12497,-7.02766 29.5751,4.61127 26.06562,19.45637 -2.15971,9.51663 -12.65229,15.4036 -21.97272,12.93198 z m 1.37597,-36.38694 c -14.34392,-0.93609 -12.95415,-23.85601 -1.62592,-27.98899 14.54893,-5.6033 20.56481,13.36656 16.08076,23.78041 -3.76712,3.56101 -9.41151,4.80822 -14.45484,4.20858 z m 6.39317,-54.87541 c 14.70546,-7.99086 -8.97398,-25.34349 -12.07962,-8.40002 -0.95362,6.31522 6.48816,11.40856 12.07962,8.40002 z m -37.92106,-22.1044 c -0.8287,-8.13178 -19.10691,-14.66428 -25.21248,-10.87694 8.67718,2.73275 16.36332,9.49257 25.21248,10.87694 z m 28.49146,-8.21887 c -4.40722,-6.7856 -17.63922,-7.81047 -25.43906,-12.48265 -9.80556,-3.2647 -23.1056,-11.56412 -31.93747,-7.60157 14.21637,3.37436 27.52478,9.35109 40.37281,16.22888 5.26911,2.16426 11.13079,5.81536 17.00372,3.85534 z m -19.0793,-0.10678 c -4.67302,-9.61235 -18.87573,-10.65562 -28.56238,-13.04411 -4.34209,-2.04212 -26.11094,0.71786 -11.51116,2.70466 13.8647,0.70066 26.74296,6.12324 39.54457,10.73406 z m 47.46671,-2.36319 c 14.69404,-8.57317 32.33074,-9.10483 47.8145,-15.6082 3.69832,-5.39954 -13.67909,-0.24613 -17.54937,0.8566 -11.0844,4.19315 -23.24344,7.48637 -32.47422,15.04428 -0.68054,1.65806 2.48031,-0.33318 2.20909,-0.29268 z m 18.3777,0.40545 c 7.68619,-3.25549 23.76045,1.94309 26.17075,-6.51985 -8.77463,-1.58512 -23.28526,3.43139 -27.62596,6.90039 z m -37.40579,-8.24418 c 18.78129,-2.96528 36.86853,-9.34569 55.73164,-12.05813 6.812,0.45269 16.06715,-7.27804 3.51551,-4.61739 -18.1123,1.70826 -35.31287,8.03638 -53.01694,11.6126 -17.79628,1.84976 -34.59149,-5.92794 -52.09576,-6.96905 5.17581,4.97322 17.86649,7.31229 26.29702,9.93687 6.39191,1.46919 12.98542,2.68361 19.56853,2.0951 z m -5.76745,64.04726 c -12.23041,-5.32685 -14.35489,-23.1292 -14.17015,-34.95072 9.96473,-9.46867 -12.30328,-10.15333 -10.23128,-0.90958 -12.2402,-11.37557 -29.10696,-15.18656 -43.97035,-21.70622 -11.05255,-8.21027 -3.33226,-30.20725 11.66738,-24.59588 42.99026,4.9256 86.4602,4.19357 129.44428,-0.32993 13.72417,-2.46835 15.59214,21.7266 3.24044,24.26242 -17.24202,3.51322 -34.62959,9.2422 -48.19503,20.88939 1.48256,-11.67656 -15.23912,-5.71795 -18.21413,-10.23293 10.33602,7.58671 9.37013,22.18326 4.31365,32.55039 -1.07344,7.10584 -4.62826,17.31541 -13.88481,15.02306 z M 776.1561,419.64269 c 9.87254,-6.56065 -10.02081,-13.23663 -5.92965,-1.76578 1.0965,2.0567 3.88697,2.79844 5.92965,1.76578 z m -11.79501,3.14757 c -4.38939,-12.25065 4.74456,-27.64252 18.70397,-19.89217 13.1415,5.3415 9.03095,26.15528 -5.85348,23.23552 1.96857,5.09691 -9.48,4.11624 -12.85063,2.96634 4e-5,-2.10323 9e-5,-4.20646 1.4e-4,-6.30969 z" /></g></g></svg>
