<?xml version="1.0" encoding="UTF-8" standalone="no"?>
<!-- Created with Inkscape (http://www.inkscape.org/) -->

<svg
   width="86.742088mm"
   height="99.999962mm"
   viewBox="0 0 86.742087 99.999961"
   version="1.1"
   id="svg1"
   xml:space="preserve"
   xmlns="http://www.w3.org/2000/svg"
   xmlns:svg="http://www.w3.org/2000/svg"><defs
     id="defs1" /><g
     id="layer1"
     transform="translate(-39.02231,-465.51126)"><g
       id="g18"
       transform="matrix(0.56492975,0,0,0.56492975,-185.70421,265.62168)"><path
         style="fill:#608fb5"
         d="m 473.89067,521.12908 c -4.22823,-4.12431 -8.45357,-8.25159 -12.68015,-12.37759 0.15517,-3.92062 -0.38716,-7.6879 2.82291,-2.43203 5.53209,2.23071 7.54887,13.77365 12.19105,7.91164 3.82959,-1.70954 9.6101,-9.9727 11.49069,-9.37531 1.68169,3.77664 -1.65025,5.75631 -3.86023,8.06979 -2.95022,1.85438 -6.93401,8.82676 -9.96427,8.2035 z m 19.597,-18.43488 c 0.61841,-4.58338 -3.2605,-10.61416 0.36543,-14.26086 -0.20222,4.839 3.79606,2.52478 4.71939,1.22833 -1.97121,1.95659 -5.26124,3.74538 -3.04366,6.8976 9.4577,-7.59864 17.84859,-16.53341 27.03295,-24.47416 -0.4398,-1.03083 2.18033,-3.10573 1.18809,0.91796 -3.02454,5.31966 -9.39847,9.30568 -13.46381,14.22136 -5.76304,4.90815 -10.94907,10.98234 -16.7984,15.46977 z m -37.9657,-0.22525 c -2.48346,-1.34239 -7.55607,-6.24406 -10.9651,-9.78075 -6.51998,-6.39586 -12.89093,-12.94864 -19.57951,-19.16999 0.156,-3.05548 -0.0523,-8.00635 1.23986,-2.43808 9.10582,7.51426 17.04837,16.38186 25.85791,24.24848 4.03814,1.98757 1.63371,-12.00545 5.27396,-3.69845 -0.24376,4.24688 -0.53769,6.68756 -3.23815,6.06926 -2.12368,3.42089 3.49954,3.31413 1.41103,4.76953 z m 37.87698,-18.0327 c -1.43248,-3.46482 6.99583,-10.50391 0.38142,-5.47003 -2.71121,2.01336 -2.65767,-8.17416 1.84104,-8.2113 3.14067,-3.88101 13.88178,-9.7295 11.17573,-10.01321 3.11436,-1.03119 8.56045,-8.52879 10.42312,-3.31713 3.41061,7.46604 -9.02688,11.45521 -12.68237,16.86266 -3.81768,3.26179 -7.20797,7.03791 -11.13894,10.14901 z m -38.80302,-1.0184 c -7.61398,-7.16203 -15.43262,-14.10731 -23.41672,-20.84496 -2.00983,-7.01012 4.31024,-8.99893 8.45132,-3.78053 6.10708,4.16225 13.49775,9.16508 17.08204,15.37117 1.09561,5.05327 -1.41068,4.44194 -3.425,4.04602 1.67618,-0.0443 3.73295,8.42421 1.30836,5.2083 z m 7.00759,-31.15672 c -5.37676,-3.71712 -9.89419,-8.81912 -16.00342,-11.37306 -1.14377,-4.61814 1.48628,-7.07491 5.16609,-2.35098 4.00947,5.09445 14.69469,8.26501 14.03098,15.26719 -0.98735,0.91922 -2.30635,-1.35782 -3.19365,-1.54315 z m 22.51804,0.61436 c 1.89518,-7.09751 10.4096,-10.27506 15.44693,-15.25056 6.97123,-6.43587 5.9538,6.2282 -0.59659,6.03549 -4.66059,0.67022 -11.40289,12.17441 -14.85034,9.21507 z M 471.0001,435.11647 c -6.64406,-2.89272 -7.51538,-8.00225 -2.78928,-13.35077 1.04897,-5.05108 4.41128,-6.0967 8.81432,-5.41303 3.07249,1.10166 4.2877,7.25987 5.57882,9.67081 5.35753,5.16458 -5.47338,8.44861 -8.0332,11.771 -1.3849,-0.61727 -2.3694,-1.80208 -3.57066,-2.67801 z m -41.84058,1.99671 c -6.22154,-4.07946 -15.48439,-6.18588 -18.41095,-13.57706 2.37996,-0.58002 10.458,5.88934 14.64471,7.51363 2.79279,5.93496 10.47709,-4.17946 9.08901,1.31661 2.74745,-1.55634 -4.6273,5.54092 -5.32277,4.74682 z m 87.54735,-1.94395 c -1.87577,-4.16708 -2.96324,-0.21107 -2.79184,-1.36845 -1.21658,-7.45276 4.79368,0.86732 8.08207,-1.25703 4.75929,-1.59955 13.19118,-10.05275 15.65578,-7.88932 -3.73898,6.14782 -13.13852,10.90969 -19.28418,12.16093 l -0.75578,-0.7421 -0.90613,-0.90403 z m -72.65713,-16.36125 c -0.91492,-4.0411 0.22485,-9.31922 0.0847,-13.90442 3.55842,-1.49068 9.49827,1.77215 10.97177,5.47176 0.66519,4.64664 2.38441,10.68169 -4.71767,8.58388 -2.11224,-0.0219 -4.23227,0.0275 -6.33879,-0.15122 z m 49.56644,-2.29303 c -1.24355,-6.84478 4.23024,-13.04911 11.21807,-12.20082 0.38555,4.77095 0.43513,9.56011 0.59648,14.34196 -3.74434,0.18754 -8.96399,0.97017 -11.88715,-0.12804 0.0242,-0.67103 0.0484,-1.34207 0.0726,-2.0131 z m -15.57742,-18.34723 c 1.3574,-4.57174 -3.10568,-3.0371 -5.84804,-3.41417 3.06411,-0.27824 6.76126,1.05956 8.72662,-2.02361 3.66821,-2.5915 5.69598,-7.74115 1.46083,-2.82791 -4.20761,0.49762 8.27269,-5.42873 4.06558,-9.335 -0.0271,-3.24651 2.25282,-3.63395 1.93981,-1.59466 -1.40761,-6.52051 1.49898,0.57527 0.062,4.26518 2.60589,4.5879 -6.05141,12.08897 -10.40684,14.93017 z m -4.92199,-29.07084 c -6.05885,-4.34202 -6.14186,-3.51029 -0.18383,-7.71933 2.32303,-3.07819 8.55981,5.3891 7.01073,2.61271 4.18963,0.65274 -5.68029,7.80283 -6.8269,5.10662 z"
         id="path19" /><path
         style="fill:#263643"
         d="m 473.53931,530.51934 c -18.53518,-18.04032 -36.88406,-36.27258 -55.50432,-54.22627 0.4042,-3.39797 -0.53032,-7.20502 0.6919,-10.35302 3.7169,-6.38057 8.01138,-12.82646 10.56395,-19.64595 -3.46343,-5.93226 -12.52819,-7.2633 -17.78422,-12.02606 -7.47721,-3.22759 -7.87098,-12.00329 -10.76576,-18.57683 -1.63852,-5.0382 -6.72583,-12.86993 2.11858,-9.15379 6.60625,2.76847 19.29109,-1.28821 21.16751,7.54298 0.0415,4.40014 3.55276,3.89866 6.77678,3.65858 8.38841,2.83592 7.6432,-12.65843 1.79404,-14.1397 -7.35429,-4.24484 -11.30025,-11.44705 -9.48719,-19.9298 0,-3.21927 0,-6.43853 0,-9.6578 5.42396,0.0467 10.84791,0.0933 16.27187,0.14 1.67236,2.94131 2.61467,7.75134 6.92129,6.50937 2.16046,-0.53706 6.6381,1.30655 7.23624,-0.83563 0.0433,-3.47874 0.0867,-6.95749 0.13007,-10.43623 7.91058,1.70182 3.92235,-8.72497 11.168,-10.48177 5.84695,-7.96318 15.89699,-5.863 21.08032,1.49013 4.34404,1.06526 4.49481,4.58799 4.13189,8.19144 0.73543,2.03521 6.85412,-1.31283 5.29166,3.02028 0,3.01183 0,6.02365 0,9.03548 3.63081,-0.0477 7.26161,-0.0953 10.89242,-0.143 1.9754,-2.7524 2.555,-7.84285 6.92833,-6.48229 4.20811,0 8.41622,0 12.62433,0 -0.23091,6.86224 0.25283,13.95041 -0.41779,20.67363 -2.95414,5.37822 -9.8416,8.22738 -12.82928,12.82465 0,3.36765 0,6.73531 0,10.10296 3.59225,-0.32504 8.86403,1.7276 11.31097,-0.68841 0.32001,-8.4161 8.04047,-8.59021 14.71152,-9.28717 4.92686,-0.009 17.34119,-5.54866 11.0256,4.1373 -3.2818,6.77927 -3.43774,15.83862 -9.72002,20.68986 -6.17386,4.65773 -12.91153,8.51518 -19.85523,11.89819 -0.28958,6.60007 5.80462,12.03808 8.1247,18.13423 2.59209,2.6643 2.84337,5.94447 2.62163,9.43912 0.59623,3.13739 -0.17436,5.71751 -2.93424,7.48653 -17.00753,16.90654 -34.50581,33.29502 -51.5461,50.1708 -0.57005,0.50753 -1.84471,1.85871 -2.73945,0.91819 z m 10.34533,-17.59376 c 1.78812,-2.12414 5.14704,-3.65638 3.91647,-6.91802 -0.61826,-12.08908 -1.96736,-24.18423 -2.1705,-36.25562 8.63689,-8.09025 18.12774,-15.45116 27.61687,-22.32809 0.35975,-4.78708 0.39573,-10.83622 1.069,-14.9316 5.42234,9.95088 14.88288,-1.52681 21.25416,-4.66022 2.05165,-3.21897 7.87592,-12.90551 3.89016,-13.81785 -5.42317,-0.15347 -9.51024,2.42518 -6.57868,3.88739 -3.28204,8.37181 -13.7084,6.07526 -20.78664,6.47131 -5.68673,0.0961 -11.37113,0.2877 -17.05623,0.44864 -6.60846,5.41539 -13.32853,10.75249 -19.66709,16.45156 -7.3288,-2.88574 -12.39747,-10.1563 -18.94201,-14.59823 -2.63281,-3.20368 -7.10616,-1.43597 -10.69573,-2.05985 -7.52506,-0.36317 -15.09238,-0.11477 -22.59343,-0.69495 -4.3457,-1.56489 -7.9383,-5.39627 -5.76575,-7.87382 -2.19345,-1.65644 -12.76826,-4.67901 -9.00014,1.03762 1.44793,7.47144 5.96448,12.93904 12.974,15.86441 4.98806,3.66073 10.03655,6.57877 13.4096,-0.34169 2.28553,4.49742 -1.0503,12.13828 2.22646,15.9389 9.58865,6.51531 18.98448,13.48492 27.18472,21.71042 -0.94512,12.83452 -2.18268,25.65452 -2.95914,38.49558 4.45379,4.34685 8.90412,8.69725 13.36145,13.04047 3.183,-2.87183 6.28653,-5.83018 9.31245,-8.86636 z m -10.12902,-3.11661 c -3.3967,-3.27237 -9.36269,-6.30697 -7.6463,-11.88543 0.98779,-3.39504 -1.50046,-15.65347 3.35971,-10.33215 3.83914,7.29819 8.5515,2.49352 12.52548,-1.30661 0.71732,5.22108 1.27354,11.14343 0.93313,16.31616 -2.55231,2.33283 -5.94655,8.24884 -9.17202,7.20803 z m -2.56729,-29.97404 c -2.35701,-1.85421 -4.23855,-3.89826 -3.2543,-7.08655 -0.43891,-2.50425 1.42149,-6.03665 -0.84921,-7.72182 -8.2542,-6.91121 -16.58219,-13.77825 -25.58576,-19.70271 0.62077,-2.974 -0.88461,-13.62564 -1.58388,-10.71493 -3.25943,-5.00968 2.48383,-3.3023 5.46922,-3.49018 4.04974,-0.5556 7.41358,0.56754 10.02442,3.91259 5.07622,4.01971 9.94273,8.29764 14.65752,12.73407 -0.48455,4.71911 0.26466,8.21781 4.28025,11.07623 1.35241,-1.14832 4.4321,-3.38621 4.68322,-5.62938 -0.6699,-3.81729 0.0939,-7.01525 3.94533,-8.88053 5.21927,-4.35936 10.22312,-9.58478 15.85086,-13.16241 4.54844,0.46108 13.38222,-2.20319 9.53578,5.18373 -0.41463,5.29807 0.44454,10.51758 -5.82763,12.36983 -7.28393,5.13648 -13.98993,11.03858 -20.82535,16.73255 -2.52571,3.78489 1.79942,9.48434 -1.98866,12.43741 -1.94351,1.16366 -3.85336,5.66734 -5.81929,4.6076 -0.90418,-0.8885 -1.80835,-1.777 -2.71252,-2.6655 z m -6.29224,-27.02029 c -1.11981,-6.4478 -10.71897,-10.07467 -15.16039,-15.13727 -3.84978,-4.96819 -5.23347,0.78738 -3.70611,3.40274 7.03211,2.87969 11.72305,9.79237 18.56569,12.74863 l 0.23237,-0.35864 z m 22.02946,0.0713 c 4.19416,-6.69054 16.70008,-7.83993 17.37903,-15.64482 -1.94793,-4.54439 -9.24454,4.99629 -12.49427,6.48016 -2.68087,0.42507 -12.90613,13.12388 -4.88476,9.16466 z m 13.04642,44.02076 c 8.15196,-7.49344 15.98471,-15.31545 23.84722,-23.11247 -0.26809,-2.63817 0.77359,-5.65694 -1.31837,-7.76511 -4.81514,-3.58202 -10.7083,7.68056 -15.68346,10.22203 -4.94555,4.59907 -10.27725,8.85054 -14.59753,14.07028 1.02517,4.39673 -0.76573,17.34341 5.22674,9.10205 0.8459,-0.83481 1.68629,-1.67521 2.5254,-2.51678 z m -44.06953,4.54512 c -2.04413,1.33991 -2.86555,-7.66407 0.41731,-3.20609 2.26728,-5.11619 0.69622,-9.84374 -4.10994,-12.79529 -5.8839,-5.59462 -11.36867,-11.54928 -17.91474,-16.32385 -3.96556,-2.77412 -6.85057,-9.47905 -8.68555,-1.30046 -2.87715,5.1874 1.98492,8.23764 5.28351,11.34692 7.79378,7.3733 15.05618,15.51367 23.17656,22.41628 -0.34276,-0.96464 3.09827,2.63724 1.83285,-0.13751 z m 46.05391,-24.80607 c 5.36895,-5.70048 12.83123,-9.66418 16.66875,-16.58815 -1.34946,-6.36159 -5.2011,-4.52311 -9.14633,-1.21904 -3.68849,1.80006 -2.6595,2.9451 -1.96995,2.63577 -5.32648,3.74581 -12.23531,8.15651 -15.49193,13.36266 0.038,3.69245 0.54438,7.234 3.71079,2.40276 3.0136,-1.92089 -6.55596,9.46694 -0.53396,5.78647 2.22387,-2.15872 4.47856,-4.28555 6.76263,-6.38047 z m -46.75293,3.96711 c -3.14647,-2.75884 -1.60628,-3.8059 1.14725,-1.5828 3.0749,-8.36154 -7.23983,-11.53626 -11.49424,-16.84507 -4.61012,-4.62398 -16.8075,-10.995 -13.20511,0.86484 8.21691,6.80994 16.19213,13.92388 23.87065,21.3341 -0.0392,-1.24451 0.43696,-2.65469 -0.31855,-3.77107 z m 21.58246,-44.35758 c 5.38933,-3.56565 9.71431,-7.3478 5.01397,-12.76238 -2.16499,-2.3624 -2.11202,-8.43904 -6.51714,-7.14025 -6.0476,-1.76187 -6.66337,6.07805 -9.30969,9.80071 -3.89192,5.40856 5.17946,8.52971 8.5217,11.25498 l 0.76269,-0.0804 z m -13.1181,-16.92607 c 2.58656,-2.72157 2.73274,-9.4826 7.76138,-8.00011 3.25247,0.003 6.50493,0.007 9.7574,0.0105 1.91351,2.72287 3.41818,9.44033 5.88509,9.40645 2.86659,-1.79379 3.15919,-4.83444 3.27277,-7.95347 2.46142,-5.06446 -6.42223,-7.88848 1.00605,-10.83929 4.55758,-5.04784 9.72624,-8.32803 16.67727,-7.03263 4.47842,-1.88962 1.43607,7.35072 6.6189,2.54418 2.95674,-2.16079 7.75519,-7.8535 1.9399,-2.13134 -0.62045,0.88887 3.97462,-4.15127 2.45214,-7.42153 -0.63048,-2.21723 1.69011,-7.32096 -1.25031,-7.27881 -4.63505,-1.39599 -5.13872,2.43608 -5.02623,6.35 -6.05475,-0.0355 -12.10973,0.0633 -18.15828,0.34548 -3.58151,5.63347 -8.80033,9.84229 -13.58203,14.3933 -4.27022,0.13535 -8.92581,0.68674 -12.96156,-0.32098 -4.00324,-4.22173 -8.00647,-4.50727 -10.38465,-10.4645 -1.39072,-3.63242 -4.33707,-4.24468 -7.85775,-3.68379 -4.38509,-0.52989 -11.43057,1.69115 -14.02689,-1.84606 0.3767,-3.5894 -0.71499,-5.62838 -4.56636,-4.75344 -2.85611,-3.3e-4 -0.65234,5.14852 -1.29823,7.39742 -0.37117,3.01416 0.0724,5.67009 2.8973,7.27889 2.59229,3.14917 7.12621,5.39994 5.57661,-0.40885 4.68565,0.55519 10.54394,-1.66958 13.94506,2.32971 3.00846,3.71589 12.52636,6.84679 6.57806,11.23558 0.64491,3.4083 0.0238,7.33139 1.49802,10.40247 1.48232,1.45989 1.8672,4.12893 3.24634,0.44085 z m -7.67157,-0.52916 c -0.96295,-3.92936 0.72335,-9.46798 -3.70183,-11.59378 -2.84007,-3.39609 -10.17979,-4.46095 -8.28578,1.60444 -0.62353,5.77601 -1.96277,12.71906 6.37992,10.14845 1.86971,-0.0184 3.7442,0.0285 5.60769,-0.15911 z m 48.02806,0.0249 c 3.24215,-0.4604 0.20755,-6.34126 1.13659,-8.77374 2.80372,-8.74534 -7.69609,-5.92657 -10.37472,-1.09121 -0.39821,2.62679 -3.86617,11.39544 1.56335,10.03721 2.55857,-0.007 5.12261,0.0225 7.67478,-0.17226 z m -32.46932,-21.64139 c -1.0028,-3.73445 5.06803,-2.22815 6.32432,-1.79172 0.51269,6.77748 6.01352,-3.41534 9.07488,-5.30049 3.62606,-2.67885 1.27525,-7.98636 1.75271,-11.87487 1.04978,-2.89378 -5.98794,-2.74386 -4.21628,0.5364 1.13012,4.30923 -2.97521,8.80678 -7.0377,8.84059 -3.07914,-0.59539 -7.03651,1.06117 -9.31031,-1.59931 -4.90982,0.66122 -2.22121,-11.20365 -3.4016,-5.49258 0.65859,-3.43448 -0.58819,-4.92066 -4.08994,-4.10104 -0.54781,3.47684 -0.0762,7.97307 -0.23479,11.83917 3.45197,2.69191 9.91655,11.53861 8.21263,7.67126 0.85729,0.26228 2.48421,3.68522 2.92608,1.27259 z m 5.0014,-28.35274 c 4.8045,-2.28728 5.89154,-5.07938 0.0375,-7.24386 -4.49185,-2.68018 -12.43326,5.24163 -4.18354,6.95835 1.33918,1.34185 2.78623,2.43546 4.14607,0.28551 z"
         id="path18" /></g></g></svg>
