<?xml version="1.0" encoding="UTF-8" standalone="no"?>
<!-- Created with Inkscape (http://www.inkscape.org/) -->

<svg
   width="100.62637mm"
   height="100.00003mm"
   viewBox="0 0 100.62637 100.00003"
   version="1.1"
   id="svg1"
   xml:space="preserve"
   xmlns="http://www.w3.org/2000/svg"
   xmlns:svg="http://www.w3.org/2000/svg"><defs
     id="defs1" /><g
     id="layer1"
     transform="translate(47.633495,-192.03561)"><path
       style="fill:#29263f;stroke-width:0.469531"
       d="m -27.259734,291.62102 c -0.760115,-0.11259 -1.281402,-3.97304 0.224229,-3.5397 20.1333461,0.0205 40.266696,0.0403 60.400046,0.0614 0.21313,2.35678 0.31993,4.79667 -3.12762,3.56044 -19.16537,0.0273 -38.3320299,0.0497 -57.496655,-0.0822 z m 11.491285,-9.93189 c -1.68936,-6.62995 6.6711701,-3.15262 10.5873601,-3.99891 8.71471,0.0121 17.4293399,0.0523 26.1440199,0.0791 0.0136,2.56743 0.0272,5.13485 0.0408,7.70227 -12.2573699,0.0209 -24.5147399,0.0417 -36.7721,0.0626 -2e-5,-1.28171 -2e-5,-2.56341 -4e-5,-3.84512 z m 48.26338,-5.56523 c -5.94904,-2.88702 -12.43243,-4.93924 -17.3307,-9.61155 -4.24208,-3.1842 5.08284,-1.12451 7.05588,-1.70495 9.91313,0.0288 19.82908,-0.0228 29.74007,0.1739 -4.94985,5.30713 -11.76606,8.02324 -18.21782,10.9878 l -0.7635,0.20049 z m -60.127355,-0.14893 c -6.011466,-2.85274 -12.479326,-5.03671 -17.386314,-9.73878 -3.35833,-2.67535 5.034611,-0.82686 6.982705,-1.38362 10.069467,-0.018 20.140164,-0.0834 30.2089041,0.0538 -4.8562601,5.42065 -11.8566201,8.04777 -18.3313391,10.99013 l -0.828502,0.17033 -0.645454,-0.0919 z m 21.7402651,-0.29515 c 1.8571,-2.81118 4.29782,-5.44817 5.83906003,-8.37425 -0.0208,-16.22323 -0.0416,-32.44647 -0.0624,-48.66971 -8.59497003,-0.25943 -17.50489013,1.36942 -24.82116913,5.98686 5.876889,12.88816 12.548239,25.45159 18.1748591,38.46451 -13.6222901,0.10721 -27.2511041,0.16636 -40.8716851,-0.0352 6.037675,-12.84753 12.454248,-25.5158 18.489894,-38.36432 -2.495993,-1.5978 -9.241876,-8.36355 -2.564249,-7.18922 4.318253,-0.46898 1.558636,-5.68875 3.776926,-7.99672 4.998094,-3.16213 10.819574,-5.03524 16.392824,-7.03756 5.1344501,-0.47007 9.1944901,-2.46837 11.44708013,-7.30551 1.45879997,-2.71847 3.18668997,-4.99209 4.69038997,-0.84892 2.43507,4.09151 4.9974,7.92491 10.2923999,7.62673 6.52092,1.80487 13.00676,4.07141 18.82674,7.57357 1.04736,3.64446 0.70617,9.35988 6.30989,8.0775 2.49233,1.72777 -4.17034,5.73177 -5.08193,7.42451 6.09892,12.63819 12.27778,25.24559 18.04639,38.03721 -13.57834,0.1857 -27.16921,0.18776 -40.74747,-4.7e-4 5.85902,-13.02941 12.6841,-25.65958 18.52713,-38.67383 -6.57679,-3.45966 -13.80667,-5.7206 -21.2929699,-5.68067 -2.05003,3.6e-4 -5.13407,-1.04442 -4.1464,2.11554 0.006,15.54945 0.0116,31.0989 0.0175,46.64835 2.23468,2.66906 4.23752,5.5175 6.2736099,8.33751 -5.8325499,-0.005 -11.70173987,0.22098 -17.5164099,-0.11574 z m -5.3419001,-15.05248 c -5.2161,-10.94643 -10.47545,-21.8736 -15.810611,-32.7629 -5.383666,10.8609 -10.576598,21.83437 -15.868048,32.74714 10.55869,0.0832 21.119959,0.0949 31.678659,0.0158 z m -28.504766,-2.79701 c 4.254162,-8.75748 8.304989,-17.6728 12.802865,-26.27776 4.478361,9.15383 8.827291,18.3739 13.324401,27.52017 -8.8927,0 -17.785414,0 -26.67812,0 0.18362,-0.41414 0.367235,-0.82827 0.550854,-1.24241 z m 13.625601,-3.81996 c 2.667584,-2.49893 4.382855,-3.93453 0.473531,-6.10936 -1.890965,-3.60036 -3.461997,2.1082 -5.808009,2.64056 2.077187,0.57431 3.981055,6.38504 5.334478,3.4688 z m 74.549745,6.46467 c -5.0813,-10.8777 -10.36272,-21.66081 -15.6049,-32.46116 -3.82942,7.09621 -7.06751,14.71331 -10.77145,21.95965 -1.38443,3.40878 -4.22175,7.61573 -4.77203,10.60792 10.28295,0.0798 20.57112,0.19125 30.85225,0.0175 z m -28.2653,-1.49454 c -0.69375,-2.27669 3.55969,-7.32035 4.42015,-10.44676 2.85628,-5.62133 5.3306,-11.50417 8.36795,-16.98968 4.16354,9.22789 8.80047,18.243 13.07668,27.42165 -8.61961,0.12266 -17.24486,0.11278 -25.86478,0.0148 z m 13.37144,-4.75273 c 2.16317,-2.46382 5.50277,-3.80185 1.15316,-5.83282 -2.02754,-3.88389 -3.63798,0.44547 -5.92928,1.86307 -0.49934,0.21564 4.44309,6.34718 4.77612,3.96975 z m -53.67759,-36.90209 c 7.52359,-1.37386 15.0329501,-3.09292 22.7397201,-2.79542 7.05205,-0.0913 14.0822499,0.73705 20.9182699,2.48213 3.89481,2.0763 10.49912,-0.80096 6.36936,-5.38879 -5.62481,-3.25494 -12.06143,-5.02422 -18.44832,-6.06975 -2.6805599,0.50892 -4.1119299,3.35232 -6.1555699,4.99887 0.20459,2.06115 0.24211,3.88384 -2.39083,2.95129 -2.66308997,0.67468 -3.40593997,-0.49911 -2.95105997,-2.90679 -1.97818003,-1.69307 -3.49068003,-4.50576 -6.13569003,-5.0889 -6.3850801,0.96009 -12.7965901,2.86673 -18.3016081,6.28716 -2.788469,3.44957 0.152776,7.06446 4.355728,5.5302 z M 3.5402011,206.86161 c 3.69429,-1.42412 0.3092,-4.15786 -1.18466,-5.02812 -3.32134997,1.79416 -2.55111997,5.13389 0.54109,5.75437 z"
       id="path5" /></g></svg>
