<?xml version="1.0" encoding="UTF-8" standalone="no"?>
<!-- Created with Inkscape (http://www.inkscape.org/) -->

<svg
   width="75.203812mm"
   height="100mm"
   viewBox="0 0 75.203811 99.999999"
   version="1.1"
   id="svg1"
   xml:space="preserve"
   xmlns="http://www.w3.org/2000/svg"
   xmlns:svg="http://www.w3.org/2000/svg"><defs
     id="defs1" /><g
     id="layer1"
     transform="translate(-86.068709,-189.97449)"><g
       id="g5"
       transform="matrix(0.66564076,0,0,0.66564076,-165.05787,-38.98324)"><path
         style="fill:#d3040e"
         d="m 431.10923,412.67386 c -8.52186,-1.69393 -9.50208,-15.34438 -1.13159,-17.98695 6.407,-2.69123 14.63898,3.31799 12.68644,10.41769 -1.0217,5.06776 -6.4058,8.97258 -11.55485,7.56926 z m 22.29803,-13.48778 c -9.54249,-3.16114 3.62587,-13.27216 4.36909,-3.61337 -0.34839,1.93481 -2.19893,4.12444 -4.36909,3.61337 z m -42.41233,-0.49066 c -7.26286,-5.9287 8.40653,-11.11429 5.84435,-2.0831 -0.84658,2.19735 -3.79657,3.45915 -5.84435,2.0831 z m 20.30279,-14.51114 c -7.76247,-4.67639 4.93668,-13.97548 6.90004,-4.95149 0.69185,3.44095 -3.89124,7.0101 -6.90004,4.95149 z m -0.28759,-31.64448 c -4.87335,-2.13231 0.45486,-9.88877 3.29488,-8.38089 5.92919,2.80173 3.17154,11.81045 -3.29488,8.38089 z"
         id="path7" /><path
         style="fill:#1b1814"
         d="m 390.04932,493.33028 c -6.10372,-2.3308 -2.95654,-15.72674 0.20644,-13.17816 2.76137,4.31037 2.93542,-4.61737 7.52398,-1.35516 7.23345,-1.96063 5.35475,-9.84248 5.58107,-15.63948 0.004,-9.67931 0.23585,-19.37796 -0.22263,-29.04422 -1.94175,-2.06216 1.3219,-4.952 0.14661,-8.34898 -2.94253,-1.40592 -8.62522,-0.47701 -12.01457,-2.96455 -4.72776,-1.62699 -5.18707,-5.94737 0.81874,-4.29873 3.72732,0.0317 7.45437,0.0895 11.18155,0.13414 1.15647,-3.71755 -2.53902,-2.41848 -4.91906,-2.52813 -3.91838,0.65927 -4.21396,-4.80929 -8.30758,-2.09926 -2.97569,-3.83054 -8.01475,-6.93012 -12.23499,-10.26585 -2.31409,-1.23695 3.50862,-0.27961 4.66439,-0.58082 6.64961,-0.001 13.29923,-0.002 19.94884,-0.003 -1.31381,-3.7031 1.79248,-5.53473 1.6192,-0.57991 2.1746,1.86631 5.44223,-0.19792 3.09601,-3.58009 -3.46921,-4.55325 -10.88686,-4.97018 -13.95408,-10.40673 -1.47039,-2.85086 -2.89408,-8.47457 1.85815,-4.58432 5.58959,2.28184 12.38717,6.25348 18.30318,3.00756 2.73285,-4.1767 8.89557,-5.69163 11.75396,-8.66966 0.88441,-3.96197 -2.52269,-8.69881 1.55865,-10.68727 2.94022,-2.47843 4.95655,-12.42725 7.40345,-11.18115 2.22039,4.56143 4.27434,9.5208 8.10353,12.98946 -0.0553,3.20512 -0.11053,6.41024 -0.1658,9.61536 4.95156,1.84542 9.27337,5.13584 12.83721,8.99543 4.99419,0.34084 9.91887,-0.66496 14.3443,-3.03259 2.93347,-0.86968 8.93373,-5.01165 5.55593,0.93309 -1.79055,6.20052 -8.71477,8.66675 -13.77147,11.51469 -3.2659,3.30101 -0.39967,7.35468 2.76519,5.2908 -0.23168,-6.43991 1.43822,-1.8677 2.67617,0.3743 7.9481,0.0444 15.8962,0.0888 23.8443,0.13318 -4.38652,2.18854 -7.55216,6.11932 -11.70771,8.52543 -1.03542,4.53195 -6.23421,-0.77341 -7.49314,4.11995 -2.63615,-1.09465 -10.90565,0.9888 -5.75634,2.56817 4.96296,0.19271 10.08091,-0.47813 14.92873,0.45011 -3.74615,4.93602 -10.73922,6.46967 -16.75852,6.16447 0.17335,5.4476 0.3936,10.69132 0.0379,16.16281 -0.0656,10.93914 -0.0278,21.87858 -0.0379,32.81787 2.01716,6.65943 10.24248,3.21363 14.71054,5.94531 6.46705,3.36356 2.24787,15.03676 -4.81154,13.91241 -27.34211,0.43332 -54.69332,0.13025 -82.03952,0.21784 -0.42439,-0.2814 -0.84878,-0.5628 -1.27317,-0.8442 z m 77.05753,-8.88004 c -4.61363,-5.38422 -6.65924,-12.38652 -6.12339,-19.42204 -0.15097,-10.78608 -0.20027,-21.57331 -0.29844,-32.35997 -4.7455,-1.32108 -9.1212,-4.36956 -11.63226,-8.53986 -2.21797,2.10859 -5.89811,4.36215 -6.98993,6.65414 -0.1521,3.13682 0.28354,6.45872 -0.22829,9.48226 -3.77373,4.52733 -5.04807,10.51221 -7.67919,15.73384 -1.7565,2.86312 -3.40647,-6.86855 -5.20569,-9.35861 -1.63792,-7.59765 -11.43394,-1.83976 -16.60316,-4.53334 2.98258,-2.54244 13.54368,1.34378 13.21579,-1.28064 -1.77065,-1.84365 -0.53098,-4.84956 -0.95972,-7.21131 1.19969,-3.87383 -2.03265,-4.37563 -3.53813,-6.98733 -4.68782,-6.54939 -7.51929,6.35264 -13.74703,5.53638 -2.45501,0.83457 -0.74812,4.251 -1.26945,6.28514 -0.13279,11.05665 0.0767,22.17424 -0.26793,33.19317 -1.86202,4.77603 -2.80097,10.1641 -6.71735,13.80044 23.00215,0 46.0043,0 69.00645,0 -0.32076,-0.33076 -0.64152,-0.66151 -0.96228,-0.99227 z m -54.4437,-6.28386 c 0.8596,-1.49952 4.46543,-0.2528 6.4159,-0.66145 11.6197,0 23.23939,0 34.85909,0 0.31319,2.64119 -3.90034,0.75566 -5.66109,1.32291 -11.8713,0 -23.7426,0 -35.6139,0 v -0.37741 z m 0.47767,-3.07441 c 2.45947,-2.30973 11.94674,-0.66425 17.08471,-1.21676 7.87861,0.14589 15.82687,-0.45663 23.65865,0.37917 -4.20864,1.67772 -11.30006,0.42914 -16.59062,0.90563 -8.04947,0.0158 -16.10804,0.19577 -24.15274,-0.068 z m -0.0908,-3.96843 c 4.97902,-2.03869 12.15981,-0.52882 17.97561,-1.02242 7.42337,0.1424 14.89709,-0.34125 22.28576,0.38036 0.81634,2.15512 -3.90365,0.61374 -5.43127,1.08936 -11.55039,0.0389 -23.10079,0.0777 -34.65119,0.11656 l -0.11414,-0.35973 z m -0.21053,-3.32 c 3.00082,-2.33424 11.45242,-0.60586 16.57181,-1.14647 8.21769,0.17824 16.51166,-0.41302 24.67627,0.43704 -4.62332,1.70533 -11.47656,0.41205 -16.94034,0.87908 -8.10096,-0.0155 -16.21389,0.152 -24.30774,-0.16965 z m 0.8158,-3.44789 c -2.35759,-2.3969 3.38571,-1.06885 4.93349,-1.40281 11.61472,0.10037 23.2463,-0.26177 34.84723,0.278 -1.21911,2.23814 -10.46546,0.59092 -14.66722,1.18314 -8.36996,0.0307 -16.74694,0.19486 -25.1135,-0.0583 z m -0.81417,-3.69424 c 3.00595,-2.33818 11.47728,-0.60642 16.60733,-1.1481 8.17549,-1.1e-4 16.35097,-2e-5 24.52646,-5e-5 -0.15971,2.45095 -4.02896,0.64298 -5.83006,1.20944 -11.76736,0.003 -23.53967,0.18755 -35.30373,-0.0613 z m -3.56381,-36.18348 c 0.0323,-4.24285 6.9906,-5.94684 1.70491,-8.60362 -1.9033,0.45208 -6.06424,-1.36106 -5.19831,1.86957 0.55634,2.77297 -1.90348,11.5411 2.79066,7.90235 0.3824,-0.23163 0.83058,-0.66062 0.70274,-1.1683 z m 51.53996,-3.08028 c -0.56311,-1.78698 1.38054,-6.08071 -1.50962,-5.54064 -2.66703,-0.16664 -5.41085,-0.45717 -5.83699,2.92369 4.64486,-0.18385 3.51295,9.50831 7.27072,7.23397 0.11228,-1.5364 0.063,-3.07816 0.0759,-4.61702 z m -28.77856,-0.71833 c -0.79985,-4.90197 -10.93408,-4.55174 -10.90894,-11.53555 0.66729,-5.57098 -7.0879,-3.63512 -2.8889,1.0247 1.83732,5.62878 7.31587,11.31277 13.6026,10.7923 z m 7.76121,-0.51187 c 5.64484,-2.40661 8.75279,-7.99951 9.90485,-13.73317 -3.20375,0.58954 -5.72411,-1.29238 -2.95951,-3.83021 -0.91982,-8.24424 -10.15108,-14.04152 -17.88225,-10.74213 -4.47295,1.46703 -10.86216,9.09825 -7.19703,12.17999 -1.4262,6.90122 6.4957,13.05225 13.04137,11.97581 5.02605,0.57047 8.39373,-6.20086 10.9229,-7.16075 0.59054,7.49011 -10.5735,6.68657 -11.15408,11.90822 1.59568,0.82629 3.765,-0.002 5.32375,-0.59776 z m 16.45526,-21.83276 c 6.95175,-7.66765 -11.19581,-9.36683 -5.09295,-0.39626 1.24712,1.44137 3.67599,1.83161 5.09295,0.39626 z m -41.37395,0.48663 c 7.16388,-4.02635 -4.36663,-12.10097 -5.60145,-3.70892 -0.41884,3.00176 3.03077,5.03561 5.60145,3.70892 z m 20.3624,-14.57495 c 8.35015,-3.69155 -3.03386,-14.17346 -6.16243,-5.63162 -1.25311,3.40492 2.74949,7.79072 6.16243,5.63162 z"
         id="path6" /></g></g></svg>
