<?xml version="1.0" encoding="UTF-8" standalone="no"?>
<!-- Created with Inkscape (http://www.inkscape.org/) -->

<svg
   width="76.600464mm"
   height="100.00003mm"
   viewBox="0 0 76.600463 100.00003"
   version="1.1"
   id="svg1"
   xml:space="preserve"
   xmlns="http://www.w3.org/2000/svg"
   xmlns:svg="http://www.w3.org/2000/svg"><defs
     id="defs1" /><g
     id="layer1"
     transform="translate(-55.951493,-904.95423)"><path
       style="fill:#19b1d0;stroke-width:0.603554"
       d="m 92.365186,1004.7589 c -5.704473,-1.1793 -1.512335,-8.95709 -2.817242,-13.02702 -0.0096,-13.46928 0.32053,-26.93584 0.369097,-40.40474 -6.797537,-2.54756 -9.74968,-12.2178 -4.667935,-17.73648 5.601299,-6.76307 18.495884,-4.33559 20.548584,4.46385 1.57004,5.15635 -1.51778,10.97802 -6.345206,13.11943 -0.705783,4.11692 0.08771,8.33159 -0.21441,12.49124 0.0186,13.4167 0.07797,26.83428 -0.130791,40.24992 -1.746481,1.8405 -4.572836,0.5177 -6.742097,0.8438 z m -24.190473,-0.1902 c -5.556946,-0.8373 -5.940004,-7.72923 -4.550322,-12.02775 0.907901,-4.96657 1.886853,-9.96739 1.826521,-15.0388 0.840213,-4.64263 2.665998,-10.57922 1.172198,-14.70662 -4.129157,-4.41835 -8.45856,-9.08422 -9.698252,-15.22787 -4.539301,-17.18117 7.336982,-36.33455 24.419879,-40.67424 14.068081,-4.29236 30.801603,-1.57391 41.230573,9.30591 8.93946,8.6525 12.43849,22.63188 8.15864,34.36158 -1.57736,4.28837 -4.59133,7.826 -7.83808,10.92982 -1.41005,4.51908 1.70304,9.21189 0.41807,13.93671 0.11109,6.54661 1.50963,12.93602 2.87377,19.30193 1.86567,5.69043 -2.8111,10.85283 -8.60054,9.95093 -3.67683,0.6862 -6.97744,0.3544 -5.67125,-4.1963 -0.13604,-13.47513 -1.70599,-26.87647 -2.74377,-40.29448 0.91016,-5.33499 6.95702,-7.85254 8.12025,-13.2342 3.74919,-10.05034 -1.89508,-21.86483 -11.4331,-26.29232 -11.330633,-5.75128 -27.264799,-1.98647 -33.270421,9.66472 -4.711942,8.15043 -2.879366,19.7188 4.875239,25.36604 3.32037,4.10185 1.158134,9.74718 1.328179,14.54076 -1.090856,10.5236 -1.796217,21.08374 -1.77161,31.66678 1.076655,4.7642 -4.900467,2.239 -7.760417,2.7368 l -0.542933,-0.031 z"
       id="path45" /></g></svg>
