<?xml version="1.0" encoding="UTF-8" standalone="no"?>
<!-- Created with Inkscape (http://www.inkscape.org/) -->

<svg
   width="104.53763mm"
   height="100.00003mm"
   viewBox="0 0 104.53763 100.00003"
   version="1.1"
   id="svg1"
   xml:space="preserve"
   xmlns="http://www.w3.org/2000/svg"
   xmlns:svg="http://www.w3.org/2000/svg"><defs
     id="defs1" /><g
     id="layer1"
     transform="translate(79.55497,-903.47932)"><g
       id="g42"
       transform="matrix(0.62536461,0,0,0.62536461,-334.13925,343.41384)"><path
         style="fill:#348b9e"
         d="m 431.28918,1034.1221 c -5.7482,-6.5402 -14.77028,-16.3736 -14.72903,-23.638 8.23674,-3.1643 15.56069,-8.5534 23.56262,-11.89871 4.37008,4.17381 7.27167,10.88911 12.82481,14.87991 0.20412,8.4211 -11.89048,14.2799 -16.88014,21.1949 -1.44143,2.4478 -3.54632,1.3237 -4.77826,-0.5381 z m 113.63869,-0.1518 c -5.14538,-6.7028 -15.52784,-13.5145 -17.50657,-20.0368 5.8344,-3.5792 8.63229,-13.6539 14.00754,-15.02519 7.6775,3.77279 17.99861,7.69919 23.5266,12.46309 -3.81146,9.6278 -10.64177,17.6542 -17.80554,24.9716 l -1.11102,-1.1864 z M 540.06,947.63198 c -1.00444,-7.44316 -15.76012,-13.38094 -7.57553,-19.21658 5.7912,-4.93847 11.21743,-13.79097 17.46859,-16.07039 6.53887,5.1155 10.34208,12.80502 15.28518,19.32687 4.28503,8.82135 -10.68862,8.3331 -15.43943,12.98693 -3.1418,0.16019 -8.45192,7.94373 -9.73881,2.97317 z m -112.85512,-4.92781 c -8.21719,-1.90805 -16.88587,-9.17774 -7.99608,-16.50189 3.62461,-4.56604 8.29939,-15.12553 13.64045,-14.02575 6.70782,6.43643 13.2002,13.09156 19.79987,19.63766 -5.90265,4.09761 -8.7204,14.2646 -14.17469,16.31793 -3.96163,-1.36237 -7.45449,-3.74059 -11.26955,-5.42795 z m 24.05963,-22.8763 c -2.61665,-5.32617 -17.30084,-11.77475 -9.1032,-17.28957 4.02759,-3.18164 15.20639,-12.03226 13.80647,-1.19973 0.44357,7.80802 0.50311,15.63463 0.30048,23.45152 -1.79444,-1.52294 -3.35231,-3.29224 -5.00375,-4.96222 z m 74.71931,2.10564 c -2.90347,-7.93391 -2.69093,-20.28129 -0.36683,-26.35115 5.77368,2.06677 15.11767,6.67731 16.23313,11.59975 -5.13672,4.6645 -9.09408,13.18615 -15.8663,14.7514 z"
         id="path44" /><path
         style="fill:#094867"
         d="m 516.29635,1054.495 c -6.86839,-18.3612 -14.05535,-36.7705 -24.42358,-53.4908 -8.10571,-1.99241 -8.07505,12.2037 -12.95777,16.7532 -6.26592,12.2782 -11.689,24.9582 -17.28913,37.5469 -6.512,-3.6303 -19.15408,-8.0115 -19.97432,-14.1935 12.48999,-13.9611 25.44244,-27.538 37.05464,-42.25728 -2.17285,-7.67733 -13.59457,-9.80728 -12.95415,-19.42845 -3.06984,-15.78336 11.2638,-32.5618 27.62101,-30.26463 15.781,1.21801 26.40574,19.913 19.78204,34.21017 -1.79907,8.55143 -17.64192,11.77974 -7.46779,20.13659 10.33966,11.4651 20.70191,22.9202 30.97722,34.4571 8.75284,7.1338 -8.46498,11.321 -13.50473,15.1225 -1.81549,-0.022 -6.05459,4.2934 -6.86344,1.4082 z m -21.91423,-67.00974 c 11.27367,-2.7599 13.39771,-20.1466 3.35629,-25.82316 -9.01414,-6.19258 -22.63875,1.99676 -21.37102,12.85471 0.4091,8.60392 9.41485,16.43518 18.01473,12.96845 z m -79.05738,23.34664 c -10.67343,-23.52335 -11.01992,-51.56666 -0.69987,-75.27183 7.30227,5.57022 16.26582,8.42151 24.20705,12.96063 -0.19443,7.32334 -5.65113,18.78117 -3.5855,28.23789 -0.81458,7.4485 5.68191,16.69675 3.85016,22.16429 -7.76712,4.02482 -15.94773,9.10282 -23.77184,11.90902 z m 137.29868,-6.5766 c -4.98626,-3.5374 -16.61119,-4.48266 -10.07675,-12.12968 5.1583,-13.79431 4.12599,-29.4429 -1.43929,-42.94794 8.52448,-3.41776 18.47943,-11.43723 26.29025,-11.63426 9.94015,22.90496 8.74918,49.86383 -1.4228,72.47648 -5.0003,-0.3371 -8.82926,-4.0579 -13.35141,-5.7646 z"
         id="path43" /></g></g></svg>
