<?xml version="1.0" encoding="UTF-8" standalone="no"?>
<!-- Created with Inkscape (http://www.inkscape.org/) -->

<svg
   width="86.419403mm"
   height="100mm"
   viewBox="0 0 86.419402 99.999999"
   version="1.1"
   id="svg1"
   xml:space="preserve"
   xmlns="http://www.w3.org/2000/svg"
   xmlns:svg="http://www.w3.org/2000/svg"><defs
     id="defs1" /><g
     id="layer1"
     transform="translate(-180.81311,-195.12114)"><g
       id="g7"
       transform="matrix(0.53634691,0,0,0.53634691,-3.6683822,19.490676)"><path
         style="fill:#c89e2e"
         d="m 365.44187,472.60082 c -1.18012,-2.16971 -6.65658,-4.20948 -4.54865,-6.47864 4.08926,-3.12264 4.81119,-9.14134 8.10777,-3.44721 4.71959,4.82039 13.17472,8.32204 3.92518,13.31976 -2.10883,4.07629 -4.34389,-0.97248 -6.52977,-2.46626 -0.31817,-0.30922 -0.63635,-0.61843 -0.95453,-0.92765 z m 109.74866,1.90797 c -7.13483,-5.24192 6.83483,-10.86796 7.39742,-15.21266 2.15148,3.24493 9.86311,6.79789 3.98334,10.02604 -3.41523,2.36396 -7.62787,11.83186 -11.38076,5.18662 z m -131.06037,-56.4224 c 0.7253,-2.36469 -1.6073,-7.80405 1.47668,-7.79714 5.94474,-0.6982 11.79731,-0.0753 9.23895,7.74081 2.10161,7.35024 -1.42865,8.85172 -7.91434,7.85956 -4.403,1.3393 -2.35757,-3.77434 -2.80129,-6.39708 0,-0.46872 0,-0.93743 0,-1.40615 z m 149.96952,7.57665 c 1.54565,-6.28101 -3.74846,-18.80663 7.5452,-15.37946 4.51134,-1.42883 3.25007,2.91972 3.35194,5.90402 0,3.23454 0,6.46908 0,9.70362 -3.6309,-0.0604 -7.2822,0.15239 -10.89714,-0.22818 z m -59.60233,-18.54435 c -3.64334,-2.25462 -9.98235,-4.74027 -14.60284,-8.9303 -3.35859,-2.8031 -11.85119,-7.77064 -4.4803,-9.46466 7.18118,5.85277 13.4515,12.72621 19.97346,19.17619 l -0.89032,-0.78124 z m -15.11423,-19.65782 c -11.78668,-11.96129 -23.73266,-23.77555 -35.24253,-36.00324 3.26277,-1.88592 7.92656,-9.48006 11.08127,-4.12711 9.18988,8.54691 17.34949,18.32376 27.6157,25.62256 8.33245,2.37038 13.01099,-9.03689 19.16072,-13.34097 6.22308,-3.74618 11.66704,-18.15785 19.35255,-11.34103 7.98826,5.13032 -6.52041,11.34312 -9.27454,16.76406 -6.51748,6.72762 -13.04903,13.44158 -19.5753,20.16067 -0.64309,4.30137 1.23289,13.99031 -1.34418,14.02383 -3.95262,-3.89134 -7.86152,-7.8269 -11.77369,-11.75877 z m 64.9762,-6.92117 c -0.18698,-5.4767 -16.26737,-12.07871 -5.97154,-16.50007 3.80009,-0.34161 7.09302,6.57211 10.61941,9.46855 3.98118,2.3609 -3.6704,4.86224 -4.64787,7.03152 z m -119.99027,0.36992 c -10.83889,-5.00769 0.38823,-12.1616 4.78658,-17.33026 10.41909,4.21018 0.7583,10.19869 -3.62769,15.78488 -1.84003,-0.8996 -0.26367,2.81756 -1.15889,1.54538 z"
         id="path9" /><path
         style="fill:#172822"
         d="m 416.80238,513.55687 c -0.30053,-14.97796 -0.132,-29.96194 -0.17639,-44.94268 -21.65302,-3.09972 -40.21272,-20.84422 -43.81412,-42.4994 -7.60049,-0.79447 -21.67111,3.23015 -17.96639,-9.34047 -3.44958,-9.31305 5.85254,-5.96551 11.81236,-6.47641 4.92559,0.84941 7.73388,-0.39819 7.20796,-6.26707 0.2206,-4.99704 7.30341,-10.74714 0.82622,-13.86984 -3.45792,-3.19796 -6.91583,-6.39593 -10.37375,-9.59389 5.47285,-2.48388 8.36049,-17.1783 13.80374,-9.03996 4.23548,2.43621 9.01477,12.7538 13.37348,5.55923 3.09054,3.57986 7.59481,6.35755 9.46979,10.68081 -6.77216,7.06835 -12.68543,15.82447 -13.2737,25.96962 -2.22693,19.61518 13.418,39.63239 33.49946,40.50469 17.60008,1.77009 35.70319,-10.2645 39.34227,-27.86628 3.43105,-13.75512 -2.12248,-28.46692 -12.15622,-38.0943 1.16574,-3.8189 8.24561,-14.60715 12.56626,-8.20109 2.42168,-1.19056 4.82198,-4.38858 7.23652,-6.33796 4.01607,-4.0377 7.29828,-8.64672 10.24335,-1.07381 3.91381,4.33572 9.61608,7.93692 1.87295,11.67333 -6.11808,4.73433 -11.47495,9.5808 -6.01845,16.98393 1.84627,3.61779 0.28534,10.75975 6.17264,8.96887 4.31067,0.75519 12.85139,-1.89183 13.91511,1.55214 -0.16579,6.10757 2.53757,16.96499 -7.50951,14.05027 -3.5537,-0.0179 -7.10747,-0.003 -10.6612,-0.005 -3.45737,21.51936 -21.67886,39.52729 -43.23075,42.76626 -0.95925,14.32145 -0.26337,28.86043 -0.46302,43.27744 0.5013,3.56178 -5.07478,1.04619 -7.38349,1.79796 -2.76934,-0.0331 -5.5532,0.0471 -8.31512,-0.17632 z m 49.89503,-47.95376 c -4.14554,-3.19599 -7.50926,-7.27356 -0.92831,-9.94332 3.58196,-3.77895 6.7798,-10.65642 10.82846,-2.82612 4.23592,3.94308 9.11334,7.80192 1.7776,11.633 -3.50183,4.20222 -6.78258,9.34629 -10.54638,2.29526 z m -89.22975,5.05959 c -1.47702,-4.48896 -14.14251,-7.96287 -9.11573,-12.40948 3.57693,-2.4508 7.79628,-12.66866 11.35684,-7.00551 2.45857,4.86802 13.07185,7.81194 4.88019,12.55484 -2.30493,2.34034 -4.4173,4.96757 -7.1213,6.86015 z m 48.97502,-35.03353 c 0.01,-3.70187 -0.28042,-7.42277 1.43811,-10.8255 -0.52821,-9.2094 -13.26641,-13.27978 -18.58937,-20.42159 -2.66448,-2.04681 -5.50236,-4.07253 -1.67046,-6.67721 3.25838,-3.22706 4.41859,-9.54178 7.68213,-3.34595 5.45183,5.27841 13.50294,9.99861 18.77151,12.31753 6.45538,4.8217 12.54434,12.39718 8.07454,20.77492 -2.26502,7.22924 -6.49406,16.52523 -15.6984,15.10898 -0.15641,-2.14512 0.0183,-4.66152 -0.008,-6.93118 z m -12.69812,4.96367 c -10.59746,-4.11071 -15.89483,-16.08668 -14.7134,-26.93656 6.70677,3.46617 13.91456,7.54201 17.4625,14.48428 -0.0895,4.44721 0.47339,8.95469 -0.17838,13.35701 l -0.89986,-0.26743 -1.6709,-0.6373 z m 9.82723,-67.0968 c -11.65268,-7.7639 -20.1179,-19.67647 -31.03254,-28.06801 2.776,-4.25749 5.28556,-2.25199 7.60761,0.87486 5.48745,5.5834 10.97492,11.16678 16.46239,16.75017 0.0182,-11.79599 0.0766,-23.59204 0.0477,-35.38802 5.26894,-0.34197 10.56061,-0.14707 15.83995,-0.19843 0.0453,11.82459 0.0907,23.64918 0.136,35.47377 6.6623,-6.80617 13.18648,-13.75235 20.01461,-20.39253 10.57079,3.60675 -5.89619,9.02339 -7.92303,14.41454 -6.21493,5.42528 -11.17575,12.69308 -18.41474,16.68789 l -1.42112,0.12275 -1.31721,-0.27701 z"
         id="path8" /></g></g></svg>
