<?xml version="1.0" encoding="UTF-8" standalone="no"?>
<!-- Created with Inkscape (http://www.inkscape.org/) -->

<svg
   width="75.000267mm"
   height="99.999969mm"
   viewBox="0 0 75.000264 99.999972"
   version="1.1"
   id="svg1"
   xml:space="preserve"
   xmlns="http://www.w3.org/2000/svg"
   xmlns:svg="http://www.w3.org/2000/svg"><defs
     id="defs1" /><g
     id="layer1"
     transform="translate(-306.39511,-624.50421)"><g
       id="g1"
       transform="matrix(0.30648163,0,0,0.30648163,68.565021,541.83891)"><path
         style="fill:#bcbac3"
         d="m 894.02711,591.59865 c -16.66013,-3.41943 -15.73388,-25.51505 -9.85344,-37.47912 6.7254,-13.32477 12.78636,-27.04111 17.85495,-41.05865 0.94105,-11.66574 -0.39475,-29.30352 -15.27885,-30.54613 6.3348,-9.93035 20.13197,-16.6995 23.13677,-29.56075 3.24613,-15.13569 -11.8768,-24.33378 -22.2682,-31.83771 -2.16841,-13.93247 -22.86865,-12.76642 -21.73721,-28.35624 -12.49252,-24.05179 -39.55112,-33.92702 -59.95211,-49.7585 -11.72494,-9.09524 -26.67857,-18.07352 -29.92112,-33.57242 -0.40462,-16.33905 17.14954,-25.13603 31.01517,-27.83275 8.32111,9.6412 -7.57053,28.56628 0.60988,41.59758 7.35755,18.64499 26.5232,28.00106 41.19386,40.10988 10.49713,6.98329 27.99166,17.79513 38.69797,6.12024 0.44017,-9.79626 3.63831,-13.34479 13.5109,-12.48661 12.57962,-2.06417 -2.02625,19.21992 7.60037,26.12445 17.07297,10.07557 -13.317,14.12447 -11.81711,27.88609 -6.53956,19.99955 21.40501,26.83784 34.78685,18.01593 17.12175,-8.50911 29.59386,-27.33647 50.48741,-27.16375 14.06491,-1.42471 33.108,12.78719 24.6142,27.70578 -11.94558,19.19876 -37.98689,19.50325 -57.94836,16.05718 -13.51466,-5.53225 -28.79852,0.17541 -33.11719,14.79864 -3.66753,10.11562 -3.19969,20.7076 -10.70596,27.65967 0.16286,20.24447 -2.5978,40.30706 -7.36473,59.9487 -6.27715,14.95577 7.25481,30.06744 3.44424,43.47652 -2.13503,1.23499 -4.75718,0.67995 -6.98829,0.15197 z"
         id="path4" /><path
         style="fill:#e14e22"
         d="m 834.62815,563.36798 c -17.61777,1.39341 -22.54428,-18.06351 -13.39079,-30.28966 14.47143,-25.95812 40.48123,-42.7223 57.45162,-66.73182 6.38882,-10.5037 -1.52087,-23.24578 -10.6818,-27.22267 8.70586,-15.75871 28.44446,-10.20309 29.91072,7.14098 -0.47993,16.10435 -16.40381,25.64486 -25.58414,37.13086 -15.13011,18.04525 -35.8174,35.26928 -38.66979,60.0971 -3.85835,8.61499 9.42704,17.45557 9.63164,19.98951 -2.88896,0.0493 -5.78136,0.0345 -8.66746,-0.1143 z m 21.96041,-9.09177 c -18.32489,-2.86827 -7.85871,-25.69497 -1.18145,-35.31431 8.12938,-10.87635 15.85746,-23.94365 28.54171,-29.75762 17.2746,3.5389 7.38246,29.325 -0.28518,39.21322 -7.47188,9.40252 -12.19591,27.47089 -27.07508,25.85871 z M 892.1375,349.66785 c -10.30708,-9.60517 -19.65831,-21.15963 -33.97252,-25.4859 -14.99419,-7.29606 -32.61409,-16.02844 -37.97505,-33.02828 -2.26737,-14.75475 15.43229,-22.39712 27.75756,-21.33202 17.8327,0.86585 23.09364,19.35327 25.51737,33.7361 7.11944,15.45666 21.01373,26.25775 30.43218,40.12763 3.13121,6.77085 -7.78334,7.55292 -11.75954,5.98247 z"
         id="path3" /><path
         style="fill:#bd1f37"
         d="m 815.01979,443.6691 c -12.15386,1.33988 -29.10219,-10.41283 -19.32875,-23.16868 12.59549,-16.37482 35.46622,-15.39143 53.89446,-12.96209 13.70183,-1.83333 34.56016,13.48169 16.94756,24.97005 -14.69731,10.22712 -34.1528,11.69347 -51.51327,11.16072 z m 109.16982,-62.70893 c -19.65959,-7.3965 -7.18714,-30.42261 8.73863,-33.21012 16.1965,-7.07082 26.95019,-21.29636 38.77458,-33.65199 14.24826,-12.43205 31.04508,5.83269 20.89664,20.43365 -9.0037,13.94926 -26.37215,17.59538 -40.05711,24.91992 -7.60132,8.84553 -14.08865,23.86649 -28.35274,21.50854 z M 867.38753,365.63824 C 851.6482,361.8809 846.788,342.73587 840.63727,329.83376 c 10.05405,-4.91037 23.04713,11.97325 32.59575,17.73272 10.2846,6.98351 8.92762,21.57311 -5.84549,18.07176 z m -31.04207,-17.80351 c -13.13915,-5.90952 -22.77711,-19.21192 -26.39567,-32.9406 4.80587,-18.00274 19.40167,6.97899 22.86696,14.64236 0.45981,4.26444 18.63137,23.1535 3.52871,18.29824 z"
         id="path2" /><path
         style="fill:#652162"
         d="m 925.81431,595.18011 c -20.54898,-6.38077 -26.6124,-31.52523 -24.28816,-50.6095 1.69362,-15.74191 11.66477,-29.89892 9.33319,-46.21903 3.2422,-13.2485 26.9469,-6.59037 23.29528,7.3364 1.32308,10.07354 7.51112,18.97316 10.27214,28.7314 6.47127,16.91339 12.10224,37.80477 1.66377,54.29399 -4.49621,6.39641 -12.93923,8.69063 -20.27622,6.46674 z m 2.47634,-110.71277 c -17.21678,-1.89793 -10.1574,-22.579 -0.28867,-29.3296 8.072,-10.87674 35.07841,-0.96541 14.53861,7.67108 -6.61772,4.99043 -5.93794,21.70169 -14.24994,21.65852 z m -13.09688,-62.57179 c -14.7391,-9.73083 6.92299,-26.00382 16.66137,-31.59786 13.84911,-7.2735 27.2508,-15.30922 38.90114,-25.82948 13.94209,-11.43975 35.05272,-19.99203 36.49742,-40.53103 1.3847,-12.70227 -9.27494,-24.44938 -20.42469,-26.7914 15.79119,-0.41167 32.98389,9.71754 33.55359,26.93729 3.0794,20.39285 -15.8628,34.56634 -31.49237,43.38443 -19.62221,11.07996 -42.5964,20.70101 -54.14013,41.24449 -0.75798,10.60725 -9.67963,14.80482 -19.55633,13.18356 z m -82.55,-24.38849 c -15.71994,-1.30761 -35.28626,1.38422 -46.35125,-12.32719 -9.01852,-19.66839 19.25059,-20.74801 31.3882,-15.40186 14.6745,4.16372 31.83544,8.96624 40.2458,22.76573 2.90283,10.45193 -20.02934,3.29072 -25.28275,4.96332 z m 92.73646,-61.19899 c -3.11769,-10.82397 9.78787,-24.81178 14.48789,-35.74519 5.53947,-12.06032 28.49188,-24.58081 31.5159,-4.25462 -2.45867,13.20832 -15.61732,21.06044 -24.39794,30.28423 -6.07504,4.81543 -13.15522,11.43711 -21.60585,9.71558 z"
         id="path1" /></g></g></svg>
