<?xml version="1.0" encoding="UTF-8" standalone="no"?>
<!-- Created with Inkscape (http://www.inkscape.org/) -->

<svg
   width="68.202309mm"
   height="100.00001mm"
   viewBox="0 0 68.202308 100.00001"
   version="1.1"
   id="svg1"
   xml:space="preserve"
   xmlns="http://www.w3.org/2000/svg"
   xmlns:svg="http://www.w3.org/2000/svg"><defs
     id="defs1" /><g
     id="layer1"
     transform="translate(-45.290679,-35.152487)"><g
       id="g1"
       transform="matrix(0.92514198,0,0,0.92514198,-33.197866,-66.418349)"><path
         style="fill:#534d58"
         d="m 129.38963,177.70486 c -1.1738,-3.97025 3.65824,1.39924 4.5111,-1.18304 -3.07504,-2.50745 4.68496,-0.10807 1.44591,-2.33307 5.32515,-1.90632 5.16582,7.34877 -0.0576,4.59126 -1.65524,0.16295 -6.75387,-2.10254 -5.76485,1.22696 l -0.14587,-1.14464 z m -19.34373,-1.26303 c -1.43762,-2.05484 -11.113017,-3.56428 -4.66704,-5.27817 2.68904,0.46788 3.3246,-5.98173 5.37163,-1.44388 2.54909,1.70028 -3.6385,3.18623 -0.4056,1.13526 -4.17181,-1.2703 -2.41265,3.14308 0.47315,3.06871 1.70713,1.26879 2.14202,3.1008 -0.77214,2.51808 z m -5.70943,-1.917 c -7.115292,0.59506 -7.686483,-9.261 -13.903727,-10.59465 5.596441,-1.47211 -4.882072,-1.10591 -0.562113,2.59706 3.736353,1.75981 -2.207367,0.12367 -1.116258,-2.54533 -1.095535,-2.32546 -4.304619,0.27268 -0.625361,-0.72846 1.956187,-1.74339 3.967457,-7.17975 3.425755,-7.6273 -1.433958,7.43246 10.527214,2.98806 11.263494,4.14998 -4.579093,1.16572 0.4735,5.54909 3.27223,3.04657 2.33479,-0.22265 10.27598,-0.0452 8.78767,0.49909 -5.83651,0.51445 -11.70387,-0.36531 -17.534157,0.28754 -4.680774,2.49558 0.942213,9.80997 4.985377,6.24562 1.28333,-1.36561 -2.952663,4.03107 0.64476,0.74174 1.19724,0.1594 -1.87384,2.59039 -0.14092,0.53371 -5.625391,1.80128 6.80967,4.35363 1.50325,3.39443 z m 18.97028,-4.29717 c -1.37436,-2.97478 -7.0196,-6.34062 -5.14273,-8.78609 0.26237,-3.32379 -1.94682,2.98743 -3.58538,-0.32217 1.74401,3.77201 -6.51907,0.11799 -7.08748,0.69843 -3.55947,1.27201 3.04288,-3.10561 4.62178,-2.28601 5.8146,-0.25032 0.91996,-9.83853 -2.36324,-5.67754 -1.30846,0.24567 1.33841,1.95225 -0.68813,-0.10515 -2.93285,-2.54546 -4.93956,9.30812 -6.2859,2.14076 -1.95277,-3.3416 6.45141,-8.78734 5.41834,-6.86154 -2.12798,1.35486 5.85127,-1.48967 7.04995,-2.29708 -2.48851,-3.31162 -6.77398,-4.3696 -5.396,-8.67245 -1.21757,-2.5958 1.40267,-6.54284 0.0496,-1.7841 -1.69751,5.53902 8.39689,8.79615 8.25612,9.80892 -0.0684,0.64542 1.47001,1.49015 -0.89788,1.63336 6.55312,0.35578 -4.58255,8.48773 2.78164,6.18578 4.70972,-1.54674 4.04483,-11.07723 -0.91139,-10.7983 -2.09267,4.01706 -11.19373,-3.1676 -5.04624,-5.96671 2.56249,-0.91878 5.50298,5.04784 5.62703,-0.58978 -0.69376,-7.88189 0.25641,-15.78615 -0.24079,-23.66868 1.69744,-7.08357 11.01728,-0.48159 7.39358,4.7837 0.81454,2.80373 -1.36822,9.97368 2.82439,8.78838 -0.33359,-2.89492 0.0969,-10.86535 4.27581,-6.69659 0.47305,2.87909 -0.89863,-0.92935 -0.22912,2.30513 2.257,3.72414 7.11796,6.40023 10.51216,8.18566 3.22276,-0.26209 0.74138,2.0198 1.61678,1.90677 2.57022,1.65316 -1.76056,3.19598 1.01895,6.36308 -0.5905,1.79866 -3.42195,0.15563 -0.82183,1.94094 -1.78325,-0.31 -10.47419,-1.95893 -6.11992,0.71893 1.70814,-0.3227 9.82817,1.62705 5.99865,2.4225 -2.04649,-1.09497 -5.3072,-0.9762 -1.68545,0.79867 2.67856,-3.10411 2.39053,4.49373 -1.2935,1.71548 -2.28988,-0.58829 -9.94288,5.11211 -4.65224,2.57851 1.47334,2.31536 3.61304,4.27748 6.05343,3.41157 -4.68168,-0.11826 -7.68934,3.41591 -12.61199,2.00244 4.15492,2.91831 10.37459,1.4478 14.06447,-1.65858 3.60085,-2.36633 2.10977,-7.28533 3.17454,-10.24229 1.05341,1.55391 5.60392,9.31054 5.68898,4.49463 1.20682,4.62544 0.0403,11.89542 3.79272,14.32785 0.26635,2.78416 -3.92281,1.47472 0.0867,1.99365 0.26586,0.72763 -6.89234,0.0579 -9.37009,0.43131 -3.63888,0.4341 -7.76885,-0.63317 -11.03539,-0.41074 -4.453,1.2356 -10.12212,-1.29699 -12.65842,4.14767 -2.42336,0.0415 -2.33276,7.32437 -2.18249,3.03968 z m 25.46322,-10.5723 c 4.65287,1.40061 4.50641,-4.1148 0.0367,-3.05592 -5.01818,0.98699 6.70872,-0.7314 0.13626,-0.76481 -1.31843,-1.20381 4.26022,-6.4116 0.37706,-8.7853 0.0747,5.4257 -7.01702,10.6767 -10.36126,9.15185 -3.50281,1.7594 -7.72085,-2.07979 -9.00159,-2.50543 -0.25974,3.76146 0.0365,-3.09527 -2.47747,-1.50062 3.0476,-0.53494 1.28003,-6.20424 1.07182,-4.1401 4.97265,3.21771 10.48476,-2.80249 15.93612,-2.41223 1.06866,-1.59404 -6.92491,-4.26711 -8.97628,-1.46862 -3.27394,5.48565 3.86649,-7.45117 -0.0148,-4.12052 -2.05871,4.11282 -2.13619,0.14157 -1.26525,0.58137 -0.14314,4.09153 -8.99087,2.73582 -2.82931,2.90557 0.53357,-0.49005 -4.16776,-1.04946 -1.0895,-0.659 -3.79033,-0.47629 1.30623,-5.74654 1.28819,-6.06824 -3.68178,3.04597 5.85418,-6.05191 1.50294,-2.50457 -3.68459,2.35816 -3.81217,-6.56262 -5.5643,-1.04378 -0.93799,1.96035 -4.94141,-5.95361 -2.62276,-0.73186 1.84764,3.01956 4.48091,9.85709 -0.0866,11.20062 -0.5795,-2.03691 1.37446,-3.44225 -1.11192,-1.27629 -0.20593,-2.51496 -1.35917,-3.80892 -1.21296,-0.28471 1.24877,4.10832 -0.10362,9.29421 4.59486,12.94726 2.08717,2.22109 5.17606,-0.83763 3.92557,3.10014 4.29711,3.04441 10.23406,0.83196 15.22187,1.47938 0.63759,-0.19179 2.10619,0.78736 2.52259,-0.0442 z m -46.70873,-3.98093 c -2.978665,-4.90133 -3.135512,-10.74592 -3.027313,-16.1864 -1.190122,2.07631 1.065053,-4.5431 1.950333,-6.0397 2.0813,-5.65041 7.37463,-8.22682 11.7702,-11.5757 0.95449,-2.22234 -0.45955,-12.25514 3.00524,-6.24517 -0.57439,4.8805 1.10721,8.67474 -0.0213,12.9913 -0.0874,4.25473 -3.69547,-0.41676 -4.95698,3.45687 1.39564,-1.97419 3.24089,-4.42634 1.64614,-3.87272 1.91334,-5.73007 -5.9982,0.91301 -6.41573,3.8176 -2.15476,4.66577 -2.05163,10.02049 -1.16586,14.98153 -0.60955,2.15319 -3.73468,3.90399 -0.43961,1.41631 3.39842,1.52639 -3.80101,5.8191 -3.10587,3.04477 -0.81781,0.99246 2.25647,4.46895 0.76078,4.21131 z"
         id="path2" /><path
         style="fill:#14131c"
         d="m 121.33313,217.01196 c -3.4361,-2.35898 -1.2581,-7.22278 -1.78311,-10.85358 0,-2.22779 0,-4.45558 0,-6.68337 -3.74974,-3.23808 -1.17367,8.79974 -3.82223,3.53499 1.26149,-2.37154 -1.11233,-8.7911 -0.98414,-2.77448 0.59241,2.15732 -0.41337,11.41844 -1.18226,4.80911 1.53966,-5.64789 -0.18041,-11.18005 -6.08167,-13.02168 -5.11368,-3.14285 -10.219755,-6.29811 -15.313669,-9.47291 0.653659,-4.44053 0.02351,-11.80589 -6.411944,-8.57043 -3.633067,-2.90054 4.584313,-2.91573 6.749464,-3.09078 2.757322,-0.2703 -1.055502,-0.53004 -0.145621,-2.75817 -3.80552,-0.4929 -3.807587,-6.40114 -0.12939,-4.62553 -3.777871,-0.18932 3.43064,1.55482 3.204936,4.30307 0.630412,4.00819 7.741324,7.3179 9.092134,6.36824 -3.202,0.9221 -2.69374,-3.65985 -2.10407,-2.20542 2.49313,-2.96811 -3.942659,1.60881 -0.0246,-1.66377 0.38295,-1.90993 -6.478936,3.23446 -5.797778,-1.7618 -2.237732,-1.91282 -0.654979,-3.64726 0.711151,-3.8824 3.294497,-3.4199 9.286777,0.12692 13.656787,-1.19708 2.31576,0.27487 7.7484,-0.5279 2.03026,-0.75437 -3.41082,-0.80582 -12.21597,2.6379 -12.11145,-2.00574 5.77352,-1.80903 -3.698607,-0.48581 -5.777413,-0.83781 -5.939719,-0.74143 -2.610466,-8.92001 -2.604016,-12.98326 2.008327,-3.18699 4.336162,-9.65749 7.038928,-10.37691 -2.971679,2.65981 -4.043316,7.1119 -0.509916,5.74384 -0.532325,3.95175 1.380777,11.30528 2.832647,12.50115 -0.4517,-1.04737 -0.078,-5.2053 0.34418,-1.70097 2.99609,-0.098 4.27613,-7.37962 0.56381,-3.23926 5.127,-3.33362 -1.63049,-8.63791 2.77702,-12.3997 2.34402,-2.46326 6.11382,-6.83426 4.02777,-0.93054 -1.33067,1.54526 2.43262,6.97385 -0.0705,4.30803 1.51912,2.90505 9.18873,6.34798 2.9083,7.21706 -2.93241,0.80189 -5.99215,2.24529 -3.78028,0.38915 -5.24775,-0.0568 -7.81128,9.62137 -3.77314,9.46484 -0.60055,-3.24243 4.9745,-5.39 4.82621,-3.79337 2.87346,-3.35193 5.22029,0.73776 5.02712,3.9364 -1.69443,3.19423 -7.96148,0.8771 -8.22265,4.33569 1.4028,-0.45033 2.99744,-1.97712 1.4861,-0.0541 1.70307,-0.28017 9.33045,1.94994 6.29936,-1.50771 1.25235,3.94718 5.14928,-1.76231 3.75079,0.0367 -1.42608,3.45277 3.42698,6.24938 5.46454,9.3315 -0.7368,3.4028 0.29932,-3.52419 2.84175,-3.65596 2.39874,-4.74963 7.85865,-2.17963 12.33446,-3.40978 4.87139,1.82162 12.49344,-2.29105 15.68661,2.0562 0.1894,5.90356 0.89293,12.7999 -1.30386,18.15987 -5.21556,3.3456 -10.60655,6.44639 -15.95881,9.62433 -6.38217,2.72874 -5.06985,10.603 -5.29122,16.20991 0.58083,4.32091 -2.65397,4.78109 -2.53241,0.36027 -0.31434,-2.86904 1.84339,-9.34833 -1.20464,-10.15487 -3.35862,4.62393 0.18725,10.42237 -1.59658,15.57831 -0.45289,1.99193 -3.57481,4.23802 -5.13695,2.09713 z m 8.33973,-37.69191 c 0.98802,-4.54449 6.4419,2.90156 8.71842,-0.90637 0.95759,2.04664 2.93287,-4.74208 -1.15106,-4.15532 -3.39661,-0.32798 0.45977,2.41057 -2.72306,0.77789 -1.03323,2.10006 0.055,2.98899 -3.51308,1.71627 -3.5896,-3.81057 -0.87505,7.81512 -1.33122,2.56753 z M 110.7495,176.3325 c 5.60234,-0.52808 -7.78517,-5.39398 -1.16067,-5.52745 1.4409,3.58933 2.45232,-3.8403 -1.35558,-2.4507 0.9611,2.89713 -9.777469,3.9363 -3.02359,5.3196 2.00106,0.5605 3.42637,2.39987 5.53984,2.65855 z m 37.83825,-16.4873 c -5.40787,-1.53477 -14.91983,2.99163 -17.48918,-3.27711 4.22325,-2.51008 9.59317,1.9023 13.69014,-1.62728 3.52106,-0.53337 3.02484,-7.41899 5.30757,-6.92357 2.91394,3.5847 -5.65135,8.6273 1.23822,8.22571 -2.32186,-0.85688 -5.85855,2.33169 -1.65518,0.12298 4.71126,0.70217 3.26779,3.915 -0.67661,3.09319 l -0.41494,0.38608 z m -19.71041,-3.899 c -5.84978,-1.27644 -4.69983,-8.53621 -6.55702,-12.44548 -0.64256,-2.17934 1.62311,-6.05916 1.40295,-1.4785 1.17049,1.12569 2.02259,-2.82511 0.9701,0.53247 2.0045,3.64385 3.68919,-3.61331 1.8692,-6.19182 -0.30569,-2.53707 -5.01664,-9.33597 -1.09731,-4.20972 1.72517,2.19191 2.21084,1.35829 2.65835,-0.4711 2.55731,-1.29876 1.92216,5.60445 5.37512,2.53519 2.23811,-2.93198 -1.28689,2.64042 -2.88017,3.0448 4.73809,-3.36101 -6.41229,6.09042 0.82973,6.16578 2.71696,0.3225 -5.72049,-0.48661 -1.11003,0.52755 3.57307,-0.3538 3.22246,-4.91928 3.71784,-2.20998 1.67006,-2.74559 3.85584,-3.7972 2.23038,0.21564 -1.01381,1.90836 -2.99106,5.24129 -0.0735,1.84819 2.44257,-3.63295 13.07683,2.74764 4.938,2.43001 -3.3797,1.34719 -11.02124,3.65772 -12.20536,2.48106 1.40771,2.87357 -3.20644,3.28011 0.61128,4.65276 0.26246,3.14794 0.0674,0.81248 1.06482,-0.22963 1.62993,1.69752 0.84711,4.77679 -1.74434,2.80278 z m 6.7629,-0.4459 c -2.95844,0.47734 -5.45499,-2.97054 -1.12995,-1.23518 2.72235,0.33289 8.86452,-2.6012 9.16009,-2.1534 -3.39541,1.45637 -4.51559,-5.36903 -7.63712,-2.46323 2.0413,-4.76306 9.20991,-1.06807 10.08438,-5.71696 -2.42199,0.85039 -4.97276,-2.02114 -0.8045,-0.56511 6.02758,0.91287 -2.00847,-2.83438 -4.40657,-1.93613 -4.74089,-0.85339 0.0237,-3.22481 2.39155,-1.29304 3.16465,1.14699 0.69039,-1.4116 3.71174,-0.25464 -0.51394,-2.12031 -1.79229,-7.3376 -0.009,-2.34614 2.32101,5.36553 2.697,13.32385 -3.24842,16.46544 -2.44999,1.3603 -5.34729,1.77434 -8.11232,1.49839 z m -17.94231,-0.59762 c -1.08287,-1.55043 -0.5044,-4.92496 1.32034,-2.80739 2.79531,-1.85019 -2.43516,-5.18315 -0.22126,-5.19046 -2.50425,-1.45218 2.53535,-0.86311 -1.37033,-1.69812 -6.0205,-1.21787 -10.77807,-9.57105 -4.26511,-13.35222 0.91511,-2.9829 1.68657,0.39748 4.08453,-2.21625 3.83364,-2.60392 1.89085,2.93804 2.30392,5.02754 -0.11816,1.95701 0.87734,6.69986 -2.41085,3.80661 -4.27893,-5.30145 -7.63992,3.9417 -2.01822,5.21319 3.18599,2.26068 5.09977,-3.41297 7.18165,1.17642 2.32074,4.01932 -0.0562,9.20089 -4.60467,10.04068 z"
         id="path1" /></g></g></svg>
