<?xml version="1.0" encoding="UTF-8" standalone="no"?>
<!-- Created with Inkscape (http://www.inkscape.org/) -->

<svg
   width="70.330414mm"
   height="100mm"
   viewBox="0 0 70.330413 99.999999"
   version="1.1"
   id="svg1"
   xml:space="preserve"
   xmlns="http://www.w3.org/2000/svg"
   xmlns:svg="http://www.w3.org/2000/svg"><defs
     id="defs1" /><g
     id="layer1"
     transform="translate(-3.3416404,-12.932275)"><g
       id="g10"
       transform="matrix(1.4683675,0,0,1.4683675,-162.47818,-331.98289)"><path
         style="fill:#eeedea"
         d="m 136.05194,301.48576 c -0.18803,-2.52199 0.55367,1.46678 0.31582,-0.92692 -0.12489,-3.38598 -1.08694,-6.65996 -1.53979,-10.00348 0.72442,-1.17051 1.39619,-2.05376 -0.3406,-1.03133 -4.5162,0.3132 -1.07863,-6.17498 1.81986,-3.05307 3.62236,0.61933 1.89214,3.85181 1.34505,6.16581 -0.26872,3.21696 0.57728,6.41992 0.81227,9.59312 2.97995,0.83574 3.39626,-3.00033 3.04905,-5.22412 0.007,-2.41244 -0.0566,-4.85315 -0.64571,-7.20531 -2.95405,-1.56818 -0.52034,-5.38576 1.79952,-3.95811 2.36971,-2.1445 4.26144,2.17158 1.33179,3.10471 -1.47071,2.49343 -0.58622,5.55743 -0.88642,8.29929 0.0713,4.5604 4.26705,-0.56061 6.20006,-1.19396 3.83321,-2.42499 7.64948,-4.87717 11.51218,-7.25521 0,-10.70848 0,-21.41697 0,-32.12545 -7.85607,-4.83453 -15.51734,-9.98204 -23.45656,-14.68201 -3.67904,0.90642 -2.52529,-3.80559 -3.58564,-6.04807 -2.41528,-3.6703 -2.99941,3.36611 -2.97916,5.21043 0.7503,3.57561 -1.57634,5.92862 -4.76839,7.08059 -4.22877,2.98383 -8.71133,5.62577 -13.09979,8.37974 0,10.71658 0,21.43317 0,32.14975 5.97503,3.8005 11.87736,7.71468 17.88317,11.46687 0.14914,-3.98819 -0.69642,-8.03832 -2.25938,-11.70401 -0.48658,-0.65132 -0.61032,0.74006 -0.96311,-0.76648 -0.22915,-2.35406 4.50096,-2.0409 2.70858,0.40384 0.38768,3.02306 2.0281,5.74927 2.15544,8.84024 0.0395,2.1455 1.15736,6.70313 3.60884,5.90441 0.0764,-0.47236 0.0284,-0.94966 -0.0171,-1.42127 z m -6.18486,-17.83524 c -3.20961,-1.7863 -0.4322,-5.87118 2.41903,-5.55009 1.55099,-0.12282 2.81086,1.0473 0.94576,-0.36716 -0.53987,-3.09869 4.67001,-3.34358 2.98795,0.11773 0.51402,3.17118 -0.66477,7.30297 -4.69444,6.42838 -0.60064,-0.007 -1.23453,-0.17636 -1.6583,-0.62886 z m 7.579,0.38614 c -1.03004,-1.65891 -1.75523,-6.45788 1.02408,-6.23768 1.76135,1.02681 0.71413,4.00429 2.91453,3.75848 -2.91637,-1.87054 1.48926,-4.43815 2.93067,-4.89914 1.47307,1.54676 1.75609,-3.85641 0.75643,-0.84549 -1.74633,1.23503 -1.18402,-4.7659 -1.42446,-1.31461 0.3224,2.11513 -3.18382,5.99617 -4.61123,3.48143 -1.87242,-0.65388 -2.73993,-1.56569 -1.05188,-3.19205 1.11602,-1.22789 0.76856,0.70182 1.87286,-0.99043 1.62965,-1.96333 5.23379,-5.52666 6.27775,-1.49958 1.80209,0.88315 -2.01296,2.30229 0.50331,1.4126 1.87059,-1.37067 4.02274,0.72979 1.67813,2.12032 -1.41896,0.67972 -1.3085,5.48974 -3.00541,2.39161 0.17672,0.16387 0.0457,4.62861 -2.58949,4.43995 0.0426,1.56303 -3.58495,1.69029 -5.27529,1.37459 z m 11.77034,-11.0209 c -0.74375,-0.59868 -1.26105,-2.88934 -1.24183,-0.67298 -3.38224,-0.16506 -1.95746,-4.88383 0.60005,-4.8732 0.91807,-1.6623 -1.09796,-6.32293 2.33421,-5.12331 -0.19104,2.39008 0.20066,5.03555 -0.63224,7.39794 -1.263,0.63803 -2.91497,0.36193 -0.48039,0.67831 2.51898,0.76343 0.94392,-3.99483 2.66499,-5.25126 -1.30128,2.65597 1.41652,7.09056 -1.41892,8.6675 -0.68719,-0.0209 -1.31289,-0.39313 -1.82587,-0.823 z m -19.96509,-11.58143 c 0.0643,-2.37338 -4.97282,-6.3726 0.17865,-6.57792 1.93821,1.43754 2.15763,4.83342 3.65695,6.32787 -1.62448,-1.47581 -2.88081,0.38754 -3.8356,0.25005 z m 6.34831,-10.98152 c -2.64116,1.21151 -5.22872,-2.65226 -2.34606,-3.84798 0.982,0.67289 2.31541,1.78379 0.77936,0.26276 -1.29918,-1.12573 -2.33415,-3.78653 -2.42745,-4.82538 3.28794,-2.03465 3.62212,3.26619 3.46747,5.33477 -0.0359,0.56965 2.51842,4.10466 0.52668,3.07583 z"
         id="path12" /><path
         style="fill:#9a6b45"
         d="m 137.32159,284.87154 c -1.31516,-0.77373 -0.67745,-2.18775 0.43722,-0.76882 2.04103,0.55004 4.54126,-0.54692 5.33606,-1.59503 3.24425,0.68276 1.44699,-6.86033 2.68273,-3.28115 2.24148,-0.093 0.90623,-3.35668 2.81239,-3.20728 0.91006,-1.1152 -0.27952,-3.99514 1.20411,-1.52808 -0.61497,3.03576 -2.83126,5.90495 -4.50866,8.52721 -2.09347,1.5286 -5.45593,2.71603 -7.96385,1.85315 z m -2.95663,-11.87726 c -2.52989,-0.17769 -4.36481,-3.50371 -3.58814,-4.97242 0.61526,1.49855 4.25694,2.52245 1.25647,0.94782 -1.33893,-0.57507 -1.96127,-4.22682 -0.3872,-1.39687 2.29301,2.0136 1.53215,-0.21299 0.32068,-1.49968 -1.10363,-0.61335 -2.5782,-5.42834 -1.02307,-2.54984 1.38895,1.57559 2.25467,4.79289 4.09571,5.27654 -0.78173,-2.7424 -0.254,-6.44956 -2.40181,-8.59675 1.14983,-2.76437 -1.27195,-5.58963 -0.69027,-7.97111 1.27432,-1.04754 -0.73278,1.0899 1.06475,0.95043 1.65677,0.53483 4.23191,1.97249 2.41539,3.03142 0.29384,3.22589 -0.86552,-3.07179 -1.49569,-0.56542 0.58674,1.78003 1.49986,2.98232 3.57824,2.50954 2.58806,0.22656 4.54898,2.55819 5.67765,4.06961 1.47135,2.22005 0.69675,5.36697 -0.36879,7.66775 -1.78689,2.75257 -5.31548,3.8738 -8.45392,3.09898 z"
         id="path11" /><path
         style="fill:#060b22"
         d="m 134.52759,302.47908 c -2.30068,-2.31694 -1.39381,-5.98495 -1.7776,-8.93072 0.21044,-2.65756 -1.78738,-4.29958 -1.70782,-6.65345 -1.85364,-2.84242 -4.95785,0.46517 -2.52543,2.52484 1.52022,3.13283 2.37338,6.90713 2.05309,10.29471 -3.04503,-1.40532 -5.92947,-3.73229 -8.92121,-5.4674 -2.64951,-2.3131 -7.41363,-3.46502 -8.69395,-6.51344 0.0392,-10.1888 -0.16306,-20.38073 0.16227,-30.56673 1.86989,-2.53639 5.16759,-3.32359 7.54071,-5.28293 3.50554,-2.22313 7.01935,-4.43384 10.486,-6.71747 1.6054,1.71115 -1.2353,6.55801 2.05198,5.5751 1.39552,-0.83668 4.08521,0.99078 2.62864,-1.38943 -1.34208,-2.53334 0.28612,-8.29376 -3.82345,-7.99645 -1.16812,0.62411 -1.64718,2.28539 -0.79173,0.18882 2.34973,-1.54735 4.74242,1.10963 7.18794,0.98032 3.17845,2.14225 6.38399,4.22709 9.66291,6.23225 4.20882,2.66807 8.4241,5.32595 12.63306,7.99381 -0.099,10.71602 0.0237,21.43596 -0.34338,32.14806 -5.52338,3.54091 -11.04823,7.08016 -16.62525,10.53626 -0.74559,-3.1954 0.21256,-6.51396 0.94652,-9.61815 2.0757,-2.25416 0.97437,-6.11513 -2.38958,-4.21679 -2.52304,-0.28555 -4.03142,1.66943 -2.40393,3.77509 1.08487,3.92935 0.49422,8.03154 0.57803,12.04423 -2.70418,1.81474 -2.32029,-3.85582 -2.45312,-5.40429 -0.0294,-3.09734 2.56254,-7.3586 -0.80939,-9.51409 -1.98496,-1.93078 -7.06661,-0.0382 -4.81037,2.85887 1.05743,1.24562 2.56341,0.24174 1.66172,2.15022 1.14436,2.91766 1.31131,5.89748 1.45286,8.98943 0.0167,0.63655 0.21859,2.46024 -0.96952,1.97933 z m 0.0788,-17.54416 c 2.98163,-2.31805 0.52647,-6.67978 2.33737,-9.62436 -0.23607,-2.26723 -4.61667,0.55405 -4.1542,-1.3492 1.50282,-1.35949 -3.76433,-1.23638 -3.67108,-2.38401 -2.10094,-2.74255 -6.46717,1.99138 -3.56346,4.27742 1.19226,3.24609 1.80206,7.13799 4.72019,9.3477 1.37337,0.71082 2.98032,0.25068 4.33118,-0.26755 z m 7.28418,-0.33848 c 3.65493,-0.18042 4.93388,-4.00649 6.58097,-6.60323 1.89408,-2.0034 1.41404,-5.31406 -1.70861,-5.17696 -1.08871,-1.56135 -2.65628,-4.67533 -4.23954,-1.47144 -2.30943,1.96963 -6.62359,3.36447 -5.54756,7.07013 -1.16253,2.53135 -0.94689,7.8907 3.25825,6.72737 0.57515,-0.13422 1.06602,-0.46635 1.65649,-0.54587 z m 10.36572,-10.9671 c 0.78288,-2.85753 -0.90757,-5.9277 0.5955,-8.69024 1.35599,-1.53751 0.35245,-5.72011 -1.37021,-2.62406 0.10017,1.42946 -1.55656,-1.73943 -2.47086,0.0842 -0.87137,2.31525 0.0953,5.49863 -2.89289,6.52073 -1.13669,3.17814 3.17016,4.80199 5.50553,5.28004 l 0.33837,-0.19936 z m -13.07281,-0.79908 c 6.09465,-1.76096 6.51552,-11.69641 0.61915,-14.00121 -3.33468,-0.68958 -2.78063,-3.84367 -3.11612,-6.28293 -2.13103,-3.50462 -6.85167,0.0327 -4.22881,3.1899 0.35342,3.02478 0.83357,5.31484 1.81425,8.26065 0.48176,3.74794 -0.61377,-1.75451 -1.22022,-2.89411 -1.91811,-2.45267 -1.61754,-6.36798 -4.32878,-8.08967 -2.2815,-1.2517 -4.15619,4.18372 -1.50019,2.07126 0.80339,-1.24653 4.21368,-0.44988 1.2342,-0.28369 -3.90104,1.16595 0.56397,4.4026 0.39278,6.80265 0.65936,2.11485 2.09399,-2.39508 3.00052,-0.5481 -3.69029,0.47017 -0.60665,4.08365 0.59196,5.70127 1.20275,2.44039 2.60603,0.78183 2.47166,0.47834 0.90464,3.62607 -3.72575,-0.0724 -4.39289,-0.7372 -0.25925,1.72354 4.83653,4.56288 1.29228,2.60033 -1.22868,-1.53156 -1.62446,-1.31884 -1.03683,0.45219 0.43598,3.50044 5.01202,4.10217 7.82054,3.42552 l 0.58654,-0.1452 z m -13.93576,-1.55942 c 3.57516,-1.21783 0.41629,-4.82246 -1.88245,-4.96677 1.75117,-0.6591 -1.66104,-1.17234 -0.16971,-1.33456 2.66393,0.23075 -3.05253,-5.46998 -1.89099,-1.22651 1.09582,2.63206 2.36913,5.61775 2.94918,8.14947 0.40786,-0.0729 0.65954,-0.41761 0.99397,-0.62163 z m 0.56851,-5.63612 c 0.44084,-1.58526 4.17419,-1.30078 1.67672,-3.29261 -0.43691,-2.34809 -3.27763,-5.95134 -5.10295,-2.46698 -0.45384,2.35523 2.24784,4.72333 3.29389,6.05604 z m 24.01757,-5.43407 c 0.73009,-1.69801 -2.72746,-4.85259 -1.99295,-4.54383 0.6943,1.03496 3.18104,2.19574 1.321,0.16921 -1.06624,-0.66335 -2.18704,-4.91127 -2.95634,-1.65889 -0.64751,2.45738 0.20314,7.78559 3.41289,7.20521 0.29884,-0.30476 0.32611,-0.78251 0.2154,-1.1717 z"
         id="path10" /></g></g></svg>
