<?xml version="1.0" encoding="UTF-8" standalone="no"?>
<!-- Created with Inkscape (http://www.inkscape.org/) -->

<svg
   width="66.189476mm"
   height="100mm"
   viewBox="0 0 66.189475 99.999999"
   version="1.1"
   id="svg1"
   xml:space="preserve"
   xmlns="http://www.w3.org/2000/svg"
   xmlns:svg="http://www.w3.org/2000/svg"><defs
     id="defs1" /><g
     id="layer1"
     transform="translate(-85.626589,-12.399815)"><g
       id="g12"
       transform="matrix(1.3163388,0,0,1.3163388,-133.83324,-144.17093)"><path
         style="fill:#f1a950"
         d="m 184.79892,156.58789 c -3.55328,-1.60609 0.93876,-4.8781 -0.28427,-6.31075 -2.71646,-2.43016 -5.19707,-5.32969 -6.25942,-8.86567 2.30878,-1.17055 2.5987,-2.9844 2.3043,-5.26306 0.10717,1.4248 0.27192,1.88847 2.23577,1.70788 0.8065,-2.81217 2.03581,-1.26869 0.36374,0.40435 -1.39451,-0.59048 -3.28933,0.16391 -1.39349,1.37436 0.94506,0.57081 3.3495,-2.12337 3.74742,-2.25307 -0.84942,0.49482 -0.691,-3.93528 0.26006,-1.53415 3.25566,-0.36324 2.61077,-5.1684 1.87781,-4.4621 0.25916,-1.43602 0.84328,-3.24745 -0.01,-2.87428 0.87232,-1.5572 2.60196,-2.22881 0.97596,-0.006 0.32155,1.90143 1.53954,3.8362 2.42717,4.40159 -0.35084,-2.47829 -1.64154,-4.88273 0.42456,-7.1195 -0.96959,-2.66801 -1.5895,-3.87987 0.93511,-6.12785 1.62183,-2.39709 -0.67778,1.9222 -0.32717,2.82343 1.69486,1.0556 1.89967,7.10865 2.80448,2.65891 1.0039,0.58919 -0.007,2.48846 -0.96575,2.38889 1.76873,-1.37647 -0.45856,4.35018 1.47669,2.41558 1.88521,-0.39545 -1.31242,5.22144 2.21642,5.43739 2.30198,0.14336 -1.84683,-5.80669 1.33873,-5.06202 -1.65451,1.48513 1.1495,4.064 1.97174,1.79067 -0.86881,1.82223 0.88224,6.61122 0.32935,6.38554 -1.58449,-1.27252 -0.39557,0.76509 1.29106,1.05627 1.05584,0.55917 0.75529,1.21225 0.87409,-0.32457 0.96253,0.74209 2.59255,1.54943 0.78823,2.28123 0.97028,0.61825 0.61786,0.70982 1.72961,-0.42914 -1.21962,3.68478 -3.81378,6.7217 -6.35206,9.59107 1.30733,2.03716 1.2758,7.59122 -2.55366,5.76215 -0.62303,-0.86591 -2.21074,-2.88553 -0.37614,-2.11599 -3.95844,-1.98599 -1.12818,-6.15783 1.23985,-6.58097 -1.56293,-1.31885 -5.02701,1.65735 -2.05218,-1.0569 1.58109,-1.21752 2.57046,-3.56294 0.15674,-1.14108 -2.35148,2.07919 -5.94937,2.06283 -8.01181,4.79274 -1.89489,1.56389 -1.09914,1.47984 0.56539,1.21885 -1.0695,1.02077 -4.63387,2.98682 -1.08295,1.57351 4.168,-2.06583 -4.40062,3.49451 0.0833,1.38492 2.66664,-2.00554 0.0732,2.00909 -0.56444,2.32888 -0.72601,0.18276 -1.52101,0.0997 -2.18441,-0.2513 z"
         id="path15" /><path
         style="fill:#b44f2b"
         d="m 198.79272,182.98924 c -0.67068,-2.77807 -3.25811,-4.58491 -5.14342,-6.73148 -0.58681,0.54024 -0.98961,2.12264 -1.5069,3.05665 -0.63592,-1.12804 -1.27184,-2.25607 -1.90776,-3.38411 -1.26928,1.51123 -2.89836,2.71397 -3.78253,4.26169 -0.65256,1.00473 -0.89307,1.60481 -1.59929,0.15082 -0.64733,1.26276 -0.85504,-2.02059 -0.9027,0.71505 -0.92934,2.03325 -2.16208,-0.28323 -0.77314,-0.15596 0.13998,-0.25242 1.4793,-5.01689 3.23843,-4.81567 -0.31239,1.6942 0.0107,2.5063 0.46274,0.18546 0.85724,2.41478 1.92039,-2.47207 2.43937,-3.91736 0.86675,0.18152 -1.01183,-3.7472 0.86844,-3.75555 0.20551,2.80676 -1.16065,5.90293 -1.77595,8.09283 1.27679,-0.95146 2.53384,-5.29194 1.58077,-1.21257 1.19912,0.93468 2.25017,4.7987 2.91616,1.22994 1.06864,-1.36827 1.03237,-5.50382 1.36145,-1.70967 0.63566,2.88107 0.95871,1.04306 1.01492,0.99178 2.20285,4.32155 -2.14892,-6.00802 0.33991,-1.08894 0.36501,1.50797 1.70715,4.28426 1.13957,0.98176 0.87814,0.20785 4.13885,2.68216 4.72654,5.54125 -1.90897,-2.70754 2.0658,-3.29399 2.609,-3.70119 -2.19978,1.69701 -6.17946,-2.30593 -3.80585,-2.88658 -0.39048,-1.10287 -3.84052,-1.48343 -3.15348,-2.66255 1.27919,-0.14823 -3.96032,-3.35403 -2.49948,-4.06266 1.25103,1.44384 4.60586,2.79966 2.35865,0.0296 -0.24012,-0.56986 -0.75419,-5.89337 0.18889,-3.48807 0.86788,1.53369 2.68228,4.72839 0.48432,1.57867 -1.36961,-3.44854 -0.70039,2.69311 0.58049,3.37596 2.27238,1.78964 0.82609,-1.54168 0.59406,-1.54767 0.96394,2.07604 7.6285,2.23061 3.91294,-0.13243 -1.42768,-2.05399 -6.4995,-4.5645 -4.6919,-6.40901 0.54271,3.05879 1.09461,2.51816 3.66359,4.58775 1.67828,1.73931 4.90853,3.76663 6.68246,1.67539 -1.97814,-1.4652 -1.72762,-1.51244 -3.07784,-2.15602 -1.71875,-2.35736 5.45456,2.07756 6.67016,-0.88764 -1.43041,0.32788 2.31969,-0.80352 -0.1594,-1.36167 1.9225,-0.46549 0.81627,1.96569 1.10761,3.04843 -0.002,3.66784 0.034,7.33596 -0.008,11.00357 -0.37535,-1.57891 0.2172,-7.32105 -0.62723,-6.47586 -1.97446,3.21328 -4.58612,7.05812 -8.16336,8.07464 -0.92522,-0.82647 1.62922,2.18495 -0.84751,1.54116 -0.86743,-0.28191 -0.50149,2.63412 -2.36158,1.02439 -0.79397,-0.37684 -1.77917,2.21832 -2.15302,1.39586 z m -19.54925,-3.25386 c -0.12524,-3.09575 -4.87261,-3.2729 -6.07208,-6.79197 -1.99652,-2.43445 -3.17504,-7.26262 -1.13943,-9.60995 0.14946,-0.21281 -0.80765,1.13569 0.69881,1.56113 1.0107,1.46819 5.55858,0.26901 6.6311,0.16304 -0.51519,0.88899 -2.25015,1.75474 -3.32331,2.35046 0.48486,1.34552 3.80482,2.32428 4.65448,0.47905 1.0757,-1.01923 5.12256,-5.28603 4.73843,-4.08044 -1.99666,2.55303 -3.40568,3.01832 -5.2624,5.13013 0.37318,1.72693 3.76697,0.38445 4.4095,0.0937 -2.42749,3.12046 3.47704,-1.43109 1.81404,1.41184 1.51173,-0.12601 3.81427,-4.89939 2.62747,-1.05449 -1.0802,0.87184 -3.66944,3.14216 -1.86239,2.59385 -0.51182,1.71212 -3.93192,1.77258 -3.55578,3.16483 2.20279,0.96425 -1.16236,2.93051 -3.07825,2.79969 -1.39091,0.77362 3.55552,-0.002 0.93932,1.43423 -0.62105,0.41381 -1.50863,0.84736 -2.21951,0.35493 z m 26.01131,-22.80323 c 1.86658,-2.45688 -3.3332,1.20297 0.13912,-1.31386 1.90893,-1.00555 2.46131,-5.44079 1.47524,-6.90427 -0.95356,1.01089 -5.30796,5.85822 -2.59033,2.33382 1.64104,-1.06982 3.50856,-4.69374 1.92224,-5.37961 -1.95929,3.51648 0.069,-1.20461 -0.0739,-1.87621 -0.99933,2.31456 -2.473,5.03956 -4.54359,6.19708 1.85654,-1.95784 4.88077,-5.31655 3.92341,-7.70469 0.67432,-0.79083 2.30095,-3.3555 1.05404,-0.53206 -0.87986,2.30915 0.95523,2.92603 1.5284,0.38616 2.04806,-4.18252 4.95961,-9.00709 2.80425,-13.74599 -0.38718,-2.26918 -1.60504,-2.72991 -1.31179,-0.0169 -0.0539,3.67525 -0.40686,7.43902 -1.78706,10.8733 -1.13527,0.84398 -0.13354,-1.27025 -0.0909,-1.01185 0.7387,-1.61196 1.00907,-4.33135 1.29681,-6.88366 0.57939,-2.14258 -0.76532,-5.78498 0.38542,-7.01704 1.85993,1.25826 1.8266,5.0919 2.91054,5.89 0.0208,-5.11687 2.02059,1.78998 2.2524,3.42065 1.13143,3.72815 -0.40825,7.32037 -2.55674,10.31133 -2.34633,3.21873 1.17832,-2.70009 1.72807,-3.85903 2.16273,-2.95871 -0.44754,-6.4876 -0.44118,-9.78775 -0.67866,1.4241 -0.88045,6.64436 -2.50299,9.28759 -0.68645,3.07373 -4.44292,5.43918 -3.4449,8.69213 1.36355,0.40051 3.71181,-3.1601 1.66829,-0.26882 -2.06582,2.20748 -0.52637,1.96673 0.71834,0.0814 2.84994,-3.47059 5.92305,-7.38068 6.01543,-12.0773 1.24401,-2.25094 1.23523,4.33126 1.15904,5.83346 0.19483,2.81041 -1.60208,5.08269 -3.65566,6.7623 2.51685,-2.37621 3.81887,-5.74935 3.3577,-9.2147 0.17033,-1.59266 -0.58611,-3.79295 -0.84132,-0.82215 -1.60421,4.6378 -4.69665,8.60127 -7.86057,12.24618 -0.86873,3.02998 -0.37464,4.25824 -3.0933,6.77118 l 0.45545,-0.67111 z m -26.62663,-1.90167 c -2.28123,-2.20259 -2.79948,-5.67492 -5.27545,-7.85271 -2.29329,-3.0024 -4.31986,-6.27101 -5.46226,-9.89398 -0.4999,3.41157 -0.36342,7.08366 1.85466,9.9277 -3.44884,-2.65818 -2.58462,-7.70529 -1.98836,-11.509 0.97774,-1.68464 0.566,4.04428 1.80455,4.83801 1.69596,3.39217 3.78589,6.70742 6.54538,9.31967 -1.12666,-2.77544 -3.70314,-5.26528 -5.14723,-8.10914 -2.72856,-3.10009 -1.62803,-7.11811 -0.50634,-10.64573 0.62151,-0.93341 1.4365,-4.66311 1.41603,-1.18681 0.84272,3.88896 1.8078,7.82026 3.66698,11.4029 0.9532,1.57304 1.62344,4.35561 0.10215,1.09823 -1.56942,-3.29466 -2.92711,-7.37546 -3.99857,-10.44659 0.55055,4.86261 2.68899,9.5408 5.56209,13.47472 1.35465,-3.36783 -1.17475,-6.62507 -1.81442,-9.89771 -1.12187,-3.26558 -0.93754,-6.73013 -0.804,-10.12103 -0.80514,1.55426 -2.85318,6.7216 -1.77898,2.75519 0.48362,-1.88028 3.63776,-7.06846 2.37493,-2.3389 -0.66363,2.92371 -0.40024,5.79181 0.33009,8.35766 0.28161,1.52066 0.89103,2.90043 1.19256,4.38133 0.96917,1.74061 0.76801,3.69766 2.30639,6.1367 0.4027,1.674 3.76341,4.55758 3.3947,5.19712 -1.76199,-0.9417 -3.98781,-6.2681 -4.26917,-5.4365 0.92057,1.35 -1.39004,0.62276 0.36807,1.28627 -0.57331,0.85217 4.04413,6.50611 1.04821,3.03529 -1.05249,-1.26577 -2.25013,-4.61092 -1.83794,-1.2604 0.12823,1.50818 4.76442,6.65388 1.3156,3.13659 -1.90239,-3.09426 -2.75426,-6.54023 -4.93231,-9.52959 -1.6178,-3.24845 -2.78292,-6.79751 -2.77209,-10.44866 -1.43311,2.63369 -2.28629,6.47753 -0.73956,9.36625 1.63577,3.05048 3.2285,6.42047 5.97398,8.59408 0.57115,-1.04278 3.29938,4.13226 1.68562,1.84019 -3.46762,-2.83695 0.31983,3.13846 2.11091,3.74825 -0.83217,0.37695 -3.79953,-4.11562 -3.28454,-2.02263 -0.19855,1.36966 5.42692,5.57697 1.55832,2.80323 z"
         id="path14" /><path
         style="fill:#490e0f"
         d="m 186.88647,191.84245 c -5.64405,-3.64196 -11.31179,-7.24729 -16.9226,-10.94054 0.0888,-4.13403 -0.25689,-8.31612 0.31356,-12.41139 0.6757,3.8954 0.41481,7.91585 0.60211,11.8684 6.69019,4.47843 13.46465,8.8656 20.36786,12.99375 3.7951,-0.17343 6.63952,-3.85988 10.05326,-5.41376 3.9948,-2.54905 8.02293,-5.04739 11.96125,-7.68374 0.25563,-3.82297 0.12403,-7.72738 0.54396,-11.49291 1.17714,1.98319 0.3746,5.08827 0.59763,7.54723 0,1.46782 0,2.93564 0,4.40346 -7.45881,4.69574 -14.84787,9.50601 -22.30527,14.19944 -1.83454,-0.83011 -3.50086,-2.01531 -5.21176,-3.06994 z m 4.23333,1.12415 c -6.58815,-4.30446 -13.2243,-8.5374 -19.84375,-12.79455 0.061,-3.2834 -0.069,-6.58436 0.19474,-9.85347 1.49663,3.26841 4.88083,6.34753 7.32561,7.9087 -0.53938,2.67652 3.40851,1.31692 3.7366,0.26136 -1.63812,-0.10918 -3.58467,-0.31799 -0.6291,-0.88555 2.05127,0.77259 4.73868,-4.41055 2.0792,-1.60914 0.76664,-1.29102 -1.54934,-0.89618 0.92244,-2.01572 0.81017,-0.46424 3.38413,-2.84146 1.45177,-1.86568 0.9638,-1.08271 3.62635,-3.55574 2.89165,-4.33643 -1.49051,1.46152 -3.93931,4.35398 -2.12371,0.68758 0.76223,-1.5018 -0.33957,-6.91754 -0.0251,-2.60813 1.42685,2.01157 -3.0507,5.61315 -2.89092,3.88732 1.08731,-1.13334 3.64068,-6.59571 1.13931,-2.57268 -0.004,2.31477 -5.32288,3.61297 -4.76449,1.77729 1.65567,-1.84268 3.97912,-3.78609 5.07532,-5.63992 -2.88566,1.59454 -5.09979,6.7929 -8.87432,5.00261 -2.5811,-0.88616 2.40487,-1.99847 3.01329,-3.21794 1.26034,-0.86323 5.0576,-3.41652 1.38526,-1.48398 -2.63098,1.83075 -6.79989,3.17114 -9.28761,0.38617 3.09153,-1.02448 7.15656,-2.52335 10.5618,-1.90415 1.85499,0.42731 3.22523,-0.45647 3.70046,0.28014 0.002,-1.431 -4.67212,0.13076 -3.4169,-1.41378 -1.30737,0.9371 -3.89047,-1.90529 -0.7717,-1.06813 4.6083,-0.10241 -2.59967,-0.47823 -3.82971,-0.51521 -3.37843,-0.50181 -7.82563,-0.81055 -9.56717,-4.24106 -1.62879,-2.65789 0.70622,-0.76693 2.08091,0.0828 2.31802,0.7864 6.37309,3.10685 7.6571,3.06505 -1.97769,-1.74104 -6.44759,-2.62143 -8.50755,-5.48906 -1.06779,-0.47514 -3.30506,-3.36974 -1.3762,-1.36794 -0.61141,-0.82523 -2.52481,-5.02544 -1.16889,-4.30756 2.86685,3.02651 5.8572,6.06862 9.25379,8.46972 -3.36946,-3.04098 -6.98694,-6.02106 -9.79206,-9.65324 2.28779,1.39819 4.5626,4.26575 6.98427,6.07413 1.28568,1.44382 5.54997,4.0999 2.0988,1.25684 -4.98313,-3.45611 -9.16505,-9.38563 -7.93732,-15.71273 0.71668,1.33472 2.28565,5.55085 3.90037,7.4265 3.26002,3.1117 4.37029,7.68476 7.55837,10.62654 1.17839,0.9232 -3.88429,-4.46642 -1.96828,-3.77449 1.29171,1.38827 4.58978,3.65453 1.2947,0.91616 -1.97104,-1.00332 -2.69089,-4.97632 -0.28049,-2.11189 1.33742,1.96485 -1.30522,-3.08607 -1.81253,-1.97153 -2.93726,-2.41249 -4.70328,-6.05866 -6.34798,-9.44662 -1.02518,-2.4213 -0.11243,-7.02417 1.17871,-8.27629 -0.0576,5.43755 2.54448,10.49232 5.52439,14.87392 -0.10402,1.94514 2.64431,6.26329 3.43742,5.88229 -1.55199,-0.56184 -3.52506,-6.1921 -2.35585,-5.38309 0.40585,1.57399 4.3181,5.7003 1.67507,2.21978 -0.92143,-1.41079 -1.3727,-3.30418 -1.68908,-3.24976 1.03959,0.46801 -0.75667,-2.97895 0.66977,-0.46231 0.84147,1.59323 2.98923,5.01792 3.97678,4.92824 -2.42065,-2.62916 -5.077,-6.94082 -5.39918,-9.76439 1.70999,3.5031 3.42954,7.09459 6.49313,9.64225 2.03095,1.90682 -2.63647,6.87139 2.35662,7.47695 1.48657,-0.13731 2.67768,-1.40118 1.94083,-1.59106 1.64806,-2.05011 1.27976,-1.84808 -0.50304,-1.28118 0.71726,-1.35706 2.96628,-2.63706 0.18782,-1.43669 3.28351,-2.06433 0.372,-1.30266 -0.30805,-1.62381 2.34151,-3.39623 6.61889,-3.61754 9.57899,-6.05234 -0.75165,1.22334 -5.0346,5.11906 -1.36852,2.5425 1.53577,-0.81448 3.39429,0.90059 0.7466,0.69519 -3.64355,1.83866 -0.43922,5.27637 -0.13998,7.06313 2.10071,4.48751 6.63159,-1.91822 3.26718,-4.2747 0.2423,-1.56708 2.91368,-2.86638 3.66628,-4.57114 0.89151,-1.25786 3.67757,-6.71196 2.23814,-2.11712 -0.0895,2.75016 -5.15951,5.0008 -2.98507,7.07365 -1.06502,-2.90641 3.49694,-4.75507 3.77224,-7.84976 -0.0642,1.30629 -1.8469,5.26524 0.0301,1.98911 2.31635,1.43268 -2.29351,5.58659 -2.89278,6.83177 1.43299,-1.23311 4.68322,-6.19769 4.00959,-1.50218 0.2787,2.49322 -1.78536,5.08678 -3.18188,5.6512 2.34462,-1.85166 1.13929,0.56301 0.58223,1.07575 1.68182,-2.23743 3.52484,-4.27967 5.88105,-5.85473 1.98768,-1.38859 4.97617,-4.80154 6.21385,-5.14411 0.89788,1.24261 -1.53999,6.42455 -4.17724,7.65555 -1.4191,1.58539 -6.96789,3.29707 -6.62849,3.9022 3.76889,-1.4008 7.42494,-3.1323 10.9628,-4.99808 -1.34728,1.99558 -3.83563,4.84748 -5.47746,5.03402 -0.0575,0.1448 -3.89285,-0.0206 -2.56234,0.74425 -2.18822,-0.35327 -6.68445,1.27114 -6.73287,2.563 3.55683,0.27267 6.94149,1.67917 10.48077,2.03341 -2.33081,3.37034 -6.79857,1.58695 -9.76191,0.0795 -4.38015,-2.28929 2.09687,2.01168 3.37694,2.6289 2.13796,0.55046 2.59595,2.1924 0.0547,2.17543 -3.29538,-0.88664 -7.07451,-3.37668 -8.22805,-6.42766 -1.13,-2.028 -0.12461,3.20912 1.89534,3.15858 1.2218,1.5506 6.65271,4.84843 1.76984,4.38674 -2.8321,-0.63559 -3.82687,-3.67937 -5.08368,-5.95782 -0.14934,2.1155 0.10689,4.44214 1.00891,6.16562 -1.23795,-1.32586 -3.70928,-4.71737 -1.49346,-1.31838 2.16024,3.20748 -3.53891,-2.76056 -1.35092,0.78898 0.50024,1.41158 3.56728,2.86002 2.14029,3.04435 0.59858,1.5299 4.86181,2.43151 2.41407,3.07002 2.3102,3.17592 -3.84745,-2.97696 -0.56942,0.49822 1.02942,1.83231 3.42812,1.73463 4.79695,2.28823 -2.67519,-0.8059 -2.50864,2.18582 -2.33716,3.06186 -0.34804,-2.99041 -3.79858,-5.14914 -4.54839,-5.419 0.97623,5.53345 -3.18614,-6.10763 -1.47987,-1.00231 1.17409,3.058 0.4842,2.08465 -0.16159,0.93979 0.17146,4.16021 -1.68924,-5.97488 -1.27902,-1.1372 -0.99822,1.62646 -1.65614,5.75799 -2.93918,1.81742 -1.88076,-0.60259 0.37838,-5.00644 -1.2915,-1.41916 -2.6188,3.85505 0.0115,-1.42714 0.28375,-2.98065 -0.0866,-1.20028 0.91012,-5.62402 -0.57467,-2.21979 1.06128,2.6338 -1.01053,4.38927 -1.63027,7.05114 -0.69231,0.20117 -1.07791,-1.4489 -1.15934,0.8217 0.27996,-3.81999 -3.75326,1.02242 -2.90997,2.72703 -0.30211,1.46112 -0.82831,-0.75894 -1.17486,1.40385 2.14652,0.38888 1.14807,-3.13571 2.24121,-1.19843 1.50314,-0.35116 -0.7993,3.17815 1.59562,3.92305 1.02812,1.51584 5.29347,5.94305 4.42522,6.08959 -1.08097,1.28762 1.76822,1.88526 2.45469,-0.59548 2.42359,-2.85615 4.84396,-5.74874 7.39856,-8.47453 1.41295,0.52238 2.44133,0.28716 2.4479,-1.22175 2.19123,1.11258 1.00497,-1.74742 0.88994,-1.53437 3.55475,-0.44008 5.91934,-4.32278 7.99933,-7.0601 1.66538,-3.53238 0.62915,5.26645 0.98685,6.8442 -0.64273,3.27058 -5.25541,4.02838 -7.58312,6.23128 -4.39551,2.86189 -8.9377,5.5037 -13.26456,8.46023 l -0.418,-0.0398 -0.50011,-0.34306 z m -0.21728,-3.40923 c -1.28358,-0.86889 -1.07433,-2.01653 -0.44009,-3.24353 0.79177,-1.92182 0.67013,-3.49452 -0.0649,-0.69764 -0.36814,1.1966 -0.52218,3.23023 -1.68143,1.33401 0.46444,-1.4349 2.66105,-5.84561 0.5475,-2.02891 -0.49722,3.01706 -3.78035,-1.24885 -3.60765,-2.76877 1.15361,-2.3163 2.83524,-4.30776 4.60562,-6.17426 0.64995,0.92436 1.34762,2.84976 1.9674,3.14119 0.58044,-0.64718 0.80744,-3.12586 1.60785,-2.63327 1.92107,1.84083 3.75115,3.87655 4.95587,6.25645 -1.94764,2.83549 -4.64643,5.49283 -6.93308,7.82666 -0.37441,-0.28228 -0.65134,-0.66326 -0.95712,-1.01193 z m -18.17126,-27.17404 c -2.36233,0.26322 -4.10323,-4.72961 -0.46411,-2.83319 3.04177,0.46925 6.84955,-0.8546 9.12816,1.84539 -2.71121,0.44118 -5.46351,0.43457 -8.20239,0.4254 0.85747,0.20834 4.77413,0.20014 1.97756,0.48959 -0.80244,0.0987 -1.64098,0.29969 -2.43922,0.0728 z m 32.89033,-0.62666 c -2.20451,-0.3236 -3.80357,-0.64269 -0.94359,-1.68079 2.9105,-0.20786 6.85175,-0.71897 9.19597,-0.34063 -0.35994,1.17139 2.19637,-2.01064 0.47577,0.49757 -1.76894,3.16504 -5.87256,1.78452 -8.72815,1.52385 z m 1.37321,-7.80593 c 0.22723,-3.82008 3.83165,-5.84949 5.49365,-8.99946 1.72625,-2.35283 3.01918,-5.60547 3.84283,-7.96054 1.01369,3.94701 -0.15782,7.96815 -2.8659,10.96813 -1.7441,1.78017 -4.12904,6.45936 -6.47058,5.99187 z m 0.2785,-6.18789 c -0.5253,-3.19898 3.0651,-5.48451 3.69469,-8.61693 1.51318,-2.51272 1.63845,-7.61645 2.30648,-8.83393 0.89172,3.97283 1.86873,8.44171 -0.61257,12.08439 -1.16497,1.1245 -4.10373,7.95089 -5.3886,5.36647 z m -30.9408,-3.50573 c -2.31586,-3.74323 -4.34824,-7.96279 -4.67252,-12.40309 1.3693,4.19381 2.73163,8.48453 4.96533,12.30248 -0.72297,-2.71916 -2.71666,-5.76751 -3.51089,-8.7805 -1.4284,-2.49491 -0.22275,-8.47675 1.39393,-8.85887 -0.45269,4.71888 0.73847,9.32709 2.39281,13.70686 0.82755,0.85256 1.18231,7.45751 -0.56866,4.03312 z m 30.32029,-0.19412 c -1.11175,-1.72952 1.82447,-5.73627 -0.56662,-2.22476 0.51242,-1.80772 3.19386,-7.82864 1.49796,-3.05555 -0.31557,2.13016 2.12481,-4.60396 1.78651,-6.01387 0.5281,-1.37322 -0.45189,-7.11296 0.95532,-5.95009 1.73647,3.41009 1.70948,7.40643 -0.0729,10.79117 -1.10439,1.99916 -1.87484,5.33605 -3.60026,6.4531 z"
         id="path13" /></g></g></svg>
