<?xml version="1.0" encoding="UTF-8" standalone="no"?>
<!-- Created with Inkscape (http://www.inkscape.org/) -->

<svg
   width="69.573837mm"
   height="100mm"
   viewBox="0 0 69.573836 99.999999"
   version="1.1"
   id="svg1"
   xml:space="preserve"
   xmlns="http://www.w3.org/2000/svg"
   xmlns:svg="http://www.w3.org/2000/svg"><defs
     id="defs1" /><g
     id="layer1"
     transform="translate(-154.33601,-30.586061)"><g
       id="g3"
       transform="matrix(0.93094722,0,0,0.93094722,-21.046811,-53.02559)"><path
         style="fill:#aba08e"
         d="m 226.48041,171.06522 c -4.52176,0.22715 -4.79518,-9.90843 -4.19216,-9.28312 1.09179,3.78045 0.18083,-3.01139 1.9066,0.36592 0.93935,-3.01181 1.71619,0.40712 1.72873,1.80633 2.47032,0.0742 5.13509,-5.18193 3.84473,-0.25607 -0.26139,2.64089 -0.41232,3.3868 -0.99368,2.50621 -0.50834,1.56689 -0.026,4.64854 -2.29422,4.86073 z m -0.78658,-11.75103 c -0.141,-1.96685 -1.00025,-2.4838 -1.32605,-0.22696 -1.33205,-1.19483 -2.42923,0.56326 -2.21771,-2.52938 -1.77213,2.33475 -0.73665,-6.65097 -4.09494,-6.92385 -6.63219,0.63172 -2.66282,-6.30396 -3.50793,-9.97887 -1.75765,-3.39143 3.38731,-11.09334 5.54903,-5.31747 -1.84462,1.91158 -3.24571,3.47758 -3.20275,6.03503 -3.25579,4.14159 2.43415,8.87386 5.95688,4.77599 4.69423,-2.28101 -3.62337,10.13824 1.78847,8.71001 1.65674,-3.96389 2.10205,1.28148 1.32446,2.59193 2.41654,-0.36342 2.06155,-0.0716 1.37907,-1.35264 2.13333,-1.39717 2.35762,-4.00174 4.40264,-5.09473 -5.05534,1.8973 -2.17402,-5.91231 1.4196,-3.30415 4.74075,-1.54973 1.08357,-6.78601 -0.25595,-8.31902 0.75508,-2.27654 -2.25036,-4.90409 -2.0026,-1.2704 -0.94962,-1.97512 -1.41827,-8.18127 -2.202,-4.31241 -2.52871,-4.91349 7.78692,-1.23833 8.4926,2.31202 0.0699,-0.35182 -0.91682,-8.81506 4.05288,-8.90439 -1.02624,-3.33133 -0.13616,-10.55598 4.27193,-5.73009 3.55096,0.73102 6.88877,6.43852 2.14049,8.10462 4.22303,2.43807 -7.92567,0.7242 -2.84403,3.42314 1.44324,5.97339 -9.4619,0.29341 -7.64704,7.2775 1.08696,4.78307 1.58496,11.12885 -4.6627,11.67902 -2.17952,1.94137 -0.55643,9.01565 -3.17301,6.1852 0.87099,2.70974 -4.25321,0.20145 -3.64139,2.16994 z m 37.39265,-2.23479 c -5.33928,0.2167 -8.59148,-5.11586 -13.84009,-5.577 -6.57505,-2.5215 3.49962,-3.29057 5.33189,-0.96868 2.85499,1.62097 9.10389,3.52123 8.5082,6.54568 z m -69.05625,-11.26332 c 0,-1.90569 0,-3.81139 0,-5.71708 2.72607,0.4371 9.22436,-0.17824 9.05071,1.89863 -1.55072,-0.12512 -3.82805,1.46506 -0.80915,1.59803 0.0227,3.74881 -2.56729,-1.03618 -2.7004,1.41433 -3.71326,0.14543 2.00284,4.25568 -2.34775,5.03808 -1.61726,0.88376 -3.80747,2.77205 -3.21409,-0.90102 0.0207,-1.10947 0.18941,-2.22474 0.0207,-3.33097 z m 43.89091,0.2266 c -1.15567,-1.86559 1.57249,-4.07888 1.60926,-4.29199 2.53969,-0.21305 8.92901,0.15333 8.65144,1.66318 -3.59168,0.14781 -6.62548,3.03858 -10.2607,2.62881 z m -43.89091,-12.03422 c -1.88436,-6.78682 6.56102,-8.73495 10.488,-12.15285 1.53955,-2.6909 3.09772,1.93852 3.20955,-1.7893 3.87587,-3.97902 3.70087,3.02226 3.08352,5.39735 3.43111,2.47078 6.57161,8.63394 0.59162,10.36553 -2.71603,0.25189 0.30492,4.63079 -2.65013,1.65049 -1.06247,-3.75999 -2.18868,3.13679 -5.49707,1.51655 -4.49074,-0.65759 -11.19128,2.0306 -9.22549,-4.98777 z"
         id="path6" /><path
         style="fill:#645a4f"
         d="m 238.21334,190.88993 c -0.85692,-8.39279 -1.5141,-16.80882 -2.45429,-25.19896 -0.50933,-5.09436 -0.91288,-10.31367 -1.8009,-15.29491 1.8451,-1.03251 1.28374,3.4471 3.16121,0.0269 2.33379,-5.08314 1.37216,7.07007 1.75739,0.5708 -1.78281,-2.72035 5.22395,-5.33561 1.45137,-1.86903 -0.0146,-2.36932 -1.16149,3.39549 1.06453,0.0712 0.95861,-0.48139 3.38304,-3.54433 2.4166,-0.50059 2.67457,-3.69128 0.0527,1.85688 3.9814,0.33563 3.26904,-1.27889 -0.71411,-5.21719 3.42255,-6.22321 -2.25102,-0.49949 -4.22564,-0.61298 -5.78698,-2.43665 -0.58779,0.24618 5.97904,-0.30993 8.21858,-0.005 5.88072,-1.81126 4.66505,6.62457 3.49808,10.14163 -3.13844,0.70691 -6.85318,-3.42439 -10.13191,-0.82932 -1.83803,-0.61064 1.43204,2.44042 -0.87868,2.84142 3.61194,0.31249 -2.27204,6.34264 3.43262,5.18924 3.65369,2.49624 -0.0275,-5.77083 4.7055,-4.29213 0.19425,-0.02 5.01969,2.6775 3.98591,4.16917 -2.42632,-3.73012 0.43224,3.99268 -0.24837,5.88293 1.0581,3.2162 -4.08995,9.00178 -6.34939,6.5094 -0.93835,-2.12285 -0.027,-9.15873 -0.15245,-3.59272 -1.03586,5.28115 -5.43501,1.58816 -5.6388,-1.93555 -2.21167,-2.40506 -2.7839,-5.45903 -2.88577,-8.0128 -4.6876,-1.94246 5.3468,-4.93316 -0.29021,-4.62634 -1.48255,0.44282 -4.80304,4.19485 -1.47063,1.91669 0.88082,3.72059 -3.91889,2.81471 -2.56549,1.65455 -0.4397,12.20649 -0.0626,24.42367 -0.37338,36.63242 l -0.0685,-1.1249 z m -24.13794,-6.21771 c -0.83092,-8.87367 0.0571,-17.81465 -0.86534,-26.68256 -2.59705,-0.97371 -2.68771,-5.29859 -0.39173,-1.5201 2.14283,-0.49156 -0.0619,-9.49452 2.49116,-4.48327 4.81068,2.62935 -0.12535,9.52256 0.84501,13.9475 -0.70156,6.43092 -0.95115,12.9061 -1.8116,19.3204 -0.0892,-0.19399 -0.17833,-0.38798 -0.2675,-0.58197 z m 18.29498,-3.39548 c -1.04518,-3.1072 -0.13013,-12.30278 4.19801,-7.04426 -1.8053,2.81213 2.1532,6.08243 -2.02045,7.51681 -2.70603,-0.56692 -0.58619,-9.89491 -1.76319,-3.61778 0.007,0.36807 -0.3504,7.59868 -0.41437,3.14523 z m -19.99945,-2.0834 c -5.43048,-3.395 -10.84117,-6.8336 -16.2882,-10.1909 -1.70262,-2.73549 5.82492,-1.12559 7.5742,-0.94802 3.03598,1.45543 4.39381,-1.95749 4.86519,-3.09887 4.92037,2.56708 5.0128,9.15445 4.77754,14.02693 0.0673,0.52738 -0.72238,0.68502 -0.92873,0.21086 z m 28.29211,-0.84791 c -2.38576,-2.79796 -3.62149,-10.63653 0.67991,-10.83136 1.39493,3.30577 1.49326,7.84335 -0.67991,10.83136 z m -50.33698,-21.75475 c -2.16707,-4.15326 6.22,-4.01359 6.98254,-6.93339 3.39266,-0.41377 10.16149,-3.23722 10.36416,-5.12111 -1.84382,-0.88422 -9.61464,-1.30703 -3.41424,-2.08697 3.9462,-2.10276 12.54209,-1.85263 9.7614,4.60165 -1.61761,0.74786 -3.53755,-2.20592 -2.52275,-0.0397 -4.28227,0.90232 -4.39165,3.9804 -0.17148,5.4009 2.73117,1.71188 1.93437,4.22212 -0.0887,0.94179 -2.26054,-2.15399 -9.00331,-1.36976 -5.62568,-3.57433 -4.25099,2.98711 -10.32323,2.80898 -14.01016,6.33356 l -0.67155,0.35906 z m 58.34063,-17.50863 c -2.66685,0.0129 -10.6643,0.48503 -7.81531,-3.53932 2.61735,-0.0774 6.54301,-3.23407 2.48806,-4.91268 2.65836,0.0192 6.50986,-0.82879 5.26998,-2.82065 1.48186,-2.9619 3.16406,-3.88814 3.12494,-0.91689 2.79065,-4.45536 8.19196,3.82708 6.40937,7.55726 1.39234,6.70559 -5.53334,4.58035 -9.47704,4.63228 z m -22.61783,-4.69627 c -0.83844,-4.40375 -4.46649,-4.84593 -7.87936,-3.60983 -3.59722,-0.22069 -4.47096,-5.89057 0.0191,-3.04801 -0.15727,0.83477 1.85606,0.38453 2.60662,1.25465 -2.13465,-5.09102 -9.97913,0.92214 -9.89207,-5.89978 0.49929,-5.67054 0.24865,-11.33477 0.0423,-17.01594 1.38516,-5.13221 1.47059,5.91288 2.55051,7.74752 0.16992,1.65438 1.72965,6.41109 0.90198,2.30064 2.97616,-1.94921 5.12019,-4.01058 4.31123,-7.84885 1.55039,-5.15852 -0.18449,7.14757 3.41939,2.22684 2.48578,-1.35714 1.7599,-9.31946 2.02065,-3.58895 0.0142,2.19994 -2.14678,10.2574 0.51215,4.59114 0.0917,-4.19886 1.09543,-8.29505 0.66613,-12.700279 0.23246,-2.647573 -0.64671,-8.692113 0.77635,-8.981407 -0.24768,4.771012 0.71067,9.725069 0.8672,14.105966 -1.4161,2.36432 0.38241,9.14518 1.7123,8.96656 -1.66767,-5.10051 4.52283,1.26248 3.42702,-2.88473 2.06504,-4.01452 1.36782,5.72159 1.94491,7.37459 -0.26776,2.21358 1.90618,9.24429 2.01874,3.39099 0.56171,-1.59345 -0.41138,-5.68947 -1.31818,-2.14772 -1.74999,-1.90608 -0.21042,-6.82659 2.0812,-3.34974 3.7543,-3.23866 1.60227,-9.23715 3.88565,-13.33695 0.97337,-0.82339 -0.14883,6.65318 0.18606,8.91427 0.0537,4.02522 0.24204,8.0742 -0.30813,12.07625 2.23346,6.56994 -7.33566,1.19733 -9.0471,5.94384 -3.61934,0.59759 -4.83055,3.62304 -5.50464,5.51893 z"
         id="path5" /><path
         style="fill:#1a1614"
         d="m 224.341,195.52014 c -3.10749,-3.52708 0.83905,-10.76155 -5.58425,-11.88849 -5.75212,-1.58694 -3.60849,-7.39794 -3.17268,-11.62354 0.67305,-6.59341 1.52261,-13.18924 1.51346,-19.82836 -2.06312,1.09962 -3.94131,-4.38232 -3.42835,0.41369 0.63794,3.20077 -0.64481,5.14308 -2.80611,2.29422 3.398,3.05563 2.80392,7.88517 2.74898,12.35193 0.0484,6.89138 -0.0218,13.78538 0.22768,20.67378 1.46287,-6.30656 -3.25555,-11.06886 -8.70132,-13.0902 -3.8012,-3.68704 -13.54813,-4.8836 -10.97232,-11.71961 0.84475,-3.90439 5.31272,2.21518 4.09519,-2.73809 -0.97801,-5.32026 -8.1813,-2.3039 -9.86949,-3.54866 1.47091,-3.61473 7.15104,-5.12504 5.37393,-9.9206 0,-2.33492 0,-4.66983 0,-7.00475 6.78638,-0.12545 13.51534,1.07623 20.29989,1.01749 -3.58695,0.79244 -10.28274,1.22378 -12.13456,1.58514 4.21363,-0.33822 2.81338,-1.95503 -0.49475,-1.88818 -5.27717,-2.24639 -9.44158,0.96342 -7.50267,6.43569 -0.83791,2.99405 1.73071,6.06664 2.91816,2.74831 0.0363,3.00663 -7.74906,1.81832 -6.59396,6.22476 3.63152,-2.17653 7.51143,-2.6422 11.56083,-4.53014 1.90026,-0.44998 5.4619,-3.19591 2.66239,-0.39699 3.09243,1.01119 6.23479,0.5868 8.23079,4.11475 1.25331,-2.15549 -8.82147,-6.55127 -2.17488,-7.96657 2.8442,0.11828 -1.22292,-2.41581 1.74845,-0.1983 2.24801,1.70034 4.92852,4.57593 6.94118,4.26004 1.71578,5.03355 1.3852,10.63473 2.0591,15.76786 1.55418,2.12959 0.78299,8.30657 2.76108,7.95593 -1.08605,-6.18356 6.25484,-2.92982 3.63671,0.42031 2.71385,-3.63881 2.18969,-9.2168 3.34916,-13.54462 1.56043,-3.08406 -1.90731,-9.87265 3.28943,-10.0773 0.91891,9.78691 2.26345,19.55111 2.818,29.36518 -3.9087,1.57582 -9.79835,4.558 -7.93506,10.17884 0.10076,2.35294 -3.10099,8.80477 -4.77308,4.31823 l -0.0909,-0.16175 z m 8.40414,-16.68857 c -0.57416,-2.96536 1.23352,-4.82577 0.38957,-0.84291 -1.54443,4.6796 5.99717,3.80917 3.12472,0.0267 0.85257,-2.26164 -0.42196,-7.77021 -3.56326,-4.63996 -1.10012,1.52752 -0.53618,8.60679 -0.0268,7.54397 0.0312,-0.6957 0.0534,-1.39174 0.0758,-2.08776 z m -19.40033,-3.09821 c 0.64416,-3.82129 -2.33229,-11.11168 -5.36931,-10.69499 -0.53492,6.37703 -7.90045,0.69718 -11.83781,2.68563 -0.36855,2.6352 6.17815,4.0055 8.33876,6.27784 2.91049,0.84947 9.35858,8.5889 8.85981,2.69136 z m 25.056,4.3748 c 0.22849,-8.64151 -0.2022,-17.29508 0.33469,-25.92916 -2.15164,3.93529 4.07564,2.19648 2.36159,-0.35229 -5.1097,1.80154 6.88672,-5.41312 1.70871,-0.0376 -1.88859,2.32562 1.55413,3.13217 0.23576,5.69397 2.6294,2.86223 2.77713,9.82659 7.29683,9.34717 2.18504,-1.75943 0.49184,-6.99709 0.94936,-1.76549 -1.04038,7.64689 7.76547,0.92784 6.75526,-3.28286 0.69099,-2.00624 -1.78238,-9.03246 -0.98898,-7.99208 2.16781,2.53205 0.77373,6.0599 1.13765,9.11676 1.07507,3.70454 -3.25074,4.3822 -5.55497,6.19874 -4.72745,2.91276 -9.44291,5.84501 -14.14368,8.80066 0.008,2.64052 -0.19675,5.05533 -0.10081,1.01722 0.003,-0.27166 0.006,-0.54333 0.009,-0.81499 z m 2.98983,-2.37189 c 0.49057,-2.92606 2.93818,-10.85264 -1.93464,-9.99789 -1.39802,2.94155 -1.4183,9.53012 1.93464,9.99789 z M 218.2396,146.52054 c -7.04124,-3.50006 5.11841,-11.07041 5.31662,-3.33019 -0.32453,2.3368 -3.04448,4.1855 -5.31662,3.33019 z m 13.01934,-0.15549 c -8.03052,-2.33449 3.91657,-11.54391 4.37436,-3.09642 0.0614,2.1121 -2.31097,4.27661 -4.37436,3.09642 z m -40.40371,-6.73814 c 6.13868,0.49815 1.13682,-10.39816 3.61761,-10.44606 -1.49434,4.92893 -1.44709,12.31748 5.73751,9.73493 2.67501,0.0905 7.40957,1.05463 7.90453,-2.7251 0.49795,4.0688 3.50671,1.44847 4.02572,-0.37378 6.00978,-1.22172 -1.19714,-10.15208 4.40442,-9.31174 2.53027,-0.53023 6.02089,4.91587 2.189,1.46236 -0.31956,2.88874 -0.12542,-2.78224 -2.95575,-0.6776 -4.43685,2.31213 6.44747,2.69314 1.36633,4.98461 -2.3307,2.6759 -3.6271,8.87853 -9.22365,6.87191 -5.67898,0.11931 -11.4532,0.34568 -17.06572,0.48047 z m 45.07718,-6.28072 c -1.14153,-2.32695 -8.58698,-2.82746 -3.57105,-5.70436 3.70507,-1.94229 11.00501,0.44935 8.26242,-6.54059 -0.11619,-4.58767 1.27547,5.02202 -0.39304,6.04894 -4.52328,-0.2993 -2.47814,4.91961 -3.57664,7.03121 z"
         id="path4" /></g></g></svg>
