<?xml version="1.0" encoding="UTF-8" standalone="no"?>
<!-- Created with Inkscape (http://www.inkscape.org/) -->

<svg
   width="67.605835mm"
   height="100mm"
   viewBox="0 0 67.605834 99.999999"
   version="1.1"
   id="svg1"
   xml:space="preserve"
   xmlns="http://www.w3.org/2000/svg"
   xmlns:svg="http://www.w3.org/2000/svg"><defs
     id="defs1" /><g
     id="layer1"
     transform="translate(-170.9392,-18.67267)"><g
       id="g16"
       transform="matrix(1.4505047,0,0,1.4505047,-233.42054,-141.48427)"><path
         style="fill:#7091a2"
         d="m 284.38544,168.1842 c -2.31733,-1.86628 -6.25619,-3.12744 -5.27893,-6.92043 -0.11703,-4.52143 -0.11028,-9.04472 -0.16395,-13.56707 1.97781,0.44345 3.93065,-0.88963 4.42186,-2.2499 0.62612,1.20692 2.02317,2.88919 1.8188,0.34159 0.20664,-2.39907 -0.30466,-1.07324 -1.05671,-0.74204 -0.73445,-2.05475 -0.33589,-3.01251 1.94616,-3.62952 2.48019,-1.0264 0.75465,-4.30527 -1.50753,-3.68788 3.4e-4,-2.4176 -6.03339,-2.46984 -3.36154,-5.65368 0.11182,-2.31264 -3.97603,-4.75796 -1.78521,-6.52429 1.2855,3.9895 3.15949,-2.47225 4.98821,-1.12235 0.891,0.65089 2.40283,3.56258 2.49233,0.77657 0.76859,-1.5673 1.96039,1.82158 2.53562,-0.81412 0.73326,-1.61907 3.84078,-4.82747 4.28459,-1.3326 0.57938,1.07326 2.70544,2.23896 0.80943,0.52868 -1.83875,-0.8839 0.80055,-4.93768 0.56467,-1.48848 0.70827,1.46068 2.59179,2.81827 0.68764,0.52063 -1.0677,-1.76147 -0.36794,-2.31306 0.75405,-0.60819 1.89122,1.39328 -1.73922,-2.94638 0.44344,-0.72062 1.59052,2.19478 -0.53631,-1.93743 0.78915,0.67311 0.86042,2.77803 1.41439,-3.83438 1.54123,-0.86774 -0.54576,1.14636 -1.17169,5.16237 0.12851,2.09573 1.29655,-0.83886 -0.97274,-1.51289 0.7307,-2.56866 0.2228,0.97119 0.46546,1.54403 0.9869,1.63985 -0.89952,0.74117 -2.66364,3.12143 -0.61052,1.68497 1.03089,0.0936 1.73299,-3.79006 1.66557,-0.85844 0.70167,2.11261 0.15375,3.89026 -1.37079,2.58204 0.44685,2.36509 -1.57107,3.47988 -3.26466,3.5985 -1.9392,3.28525 -3.90177,-1.34187 -6.51635,0.45762 -1.40601,-0.0689 -4.6583,4.00145 -1.84711,1.76988 1.39983,-2.50322 5.11866,-1.69163 7.05538,-0.4893 1.36111,-1.0966 2.39779,-2.70478 4.26087,-1.95796 1.54586,-0.16842 0.28591,-3.69032 1.58048,-1.3875 2.00865,3.11554 0.57087,-3.25895 3.39847,-2.448 2.82051,1.07293 4.81237,-2.84277 7.39453,-0.97771 0.57657,1.41789 -0.82725,2.63508 0.74906,4.00383 0.63398,0.89248 -2.72965,3.21988 0.10867,3.8497 2.00687,0.083 -2.28557,-0.59134 -0.47415,-2.12064 1.79054,-4.12027 6.25812,-1.4205 6.88609,1.97742 0.45341,1.23378 1.71518,5.30169 2.16934,4.97342 -1.66081,-2.65556 -1.42626,-6.23859 -3.93658,-8.39365 -1.26106,-2.09907 -3.93943,-0.13629 -4.60732,-0.52843 -1.26155,-1.60108 -0.2743,-3.69745 1.78231,-2.62158 2.78426,-1.14947 2.48819,2.92186 4.92279,2.53971 -1.28966,1.76974 2.09697,1.98813 1.67191,0.12356 0.94412,1.14672 -0.12212,5.91085 0.6627,2.13517 1.12049,-0.79787 0.025,3.13111 0.4208,4.05138 1.7478,2.37915 2.48583,5.22533 1.95479,8.16632 -1.03372,2.92823 1.53776,7.37283 -1.01785,9.33389 -1.56863,0.85471 -2.9286,1.4913 -4.79759,1.51763 -0.6058,2.44649 -2.80789,4.07927 -1.32734,6.47118 0.8838,-3.45901 2.13661,2.61991 -0.56103,1.28662 -1.48193,-0.30305 -4.21342,-1.70988 -1.39604,-0.0727 -0.94219,0.98554 -2.97295,-0.82004 -3.1822,1.33413 -2.3726,1.28339 -5.55833,1.51457 -6.21503,4.66692 -2.63679,1.88547 -5.46436,-1.18021 -8.33789,0.11189 -2.71671,1.58534 -5.99095,3.59252 -8.90791,1.34454 -2.18561,-0.33163 -2.11055,-4.4572 -2.21137,-4.57718 -0.48166,1.78316 0.18086,5.2298 -0.49832,5.97165 -0.79325,-0.52919 -1.5833,-1.06322 -2.37313,-1.59743 z m 18.81038,-2.45544 c 1.37068,-0.45948 0.46518,-0.53735 0.11244,-0.68593 0.15444,-1.68783 -2.8511,-1.5589 -0.26896,-2.19771 -0.72522,-0.50397 -2.1528,-0.34791 -0.8686,-1.54819 0.27202,-1.18832 0.61906,-4.86823 1.20275,-4.65102 1.17147,0.72796 -0.10381,-2.12205 1.04554,-0.98092 2.07728,-0.74565 3.13638,-1.08666 4.54583,-1.99086 1.47279,0.48291 -2.3556,-1.58755 0.0269,-0.61534 -1.34505,-1.72552 3.32747,3.14156 1.11448,0.40714 -1.40671,-1.25943 -0.57426,-1.19937 0.40845,-1.82262 1.27277,-2.61536 1.86607,-6.42604 5.76824,-5.41842 1.84843,0.21429 3.07111,-0.96436 0.49969,-0.87033 -2.66366,-0.22168 -5.26499,-0.20195 -5.08757,-3.28966 -0.92719,-1.46629 -1.17416,-3.54665 -3.62038,-2.57983 -0.67246,0.26194 4.6184,-3.52167 1.56586,-1.96263 -2.08425,0.78488 -3.85683,-1.42682 -4.83761,-1.78174 -1.19846,0.14684 -1.85318,0.30302 -1.45007,-0.39964 -1.07269,-2.08938 -0.5471,-3.95406 -1.21212,-6.60852 -0.7854,2.82885 -0.0185,7.03881 -3.67325,7.77553 -1.29033,-0.0196 -3.40916,2.63557 -4.48196,0.007 1.17416,1.38197 -0.0345,0.83249 -0.47866,0.66807 1.93617,2.6025 -1.80933,4.51744 -1.55499,7.46112 -1.05259,0.66385 -5.34049,0.0167 -4.36493,1.45874 2.10869,0.17825 5.16766,-0.16007 4.97221,2.3448 -0.46465,0.82577 1.35257,2.59533 1.79274,3.57565 0.86392,-0.06 1.30419,-1.29897 0.90944,-0.0876 0.99881,-0.65875 2.02607,-1.54592 0.55855,-0.13815 -0.5804,0.44861 -3.10118,1.56381 -1.09317,0.97467 -0.83037,0.86888 -2.38427,2.26986 -0.12739,1.10095 1.78107,-0.52012 4.46755,1.69142 5.36269,1.9844 1.92035,0.9837 0.83685,4.24111 1.88339,5.12177 -0.21571,1.40083 -2.35596,5.83478 1.3505,4.74933 z m -21.01311,-19.80947 c -0.0144,-1.77879 -2.26212,1.38857 -1.25257,-0.83802 0.76687,-1.51259 -3.05016,2.00263 -1.95662,-0.94355 0.0422,-3.64213 0.006,-7.28594 0.14796,-10.92631 -0.0122,1.30817 -0.20463,4.07598 1.88395,3.4995 -2.76826,-1.93686 5.76255,-0.31853 2.41791,1.84762 -1.25769,-0.36867 1.08142,1.77612 0.009,2.89921 -0.70801,0.93304 0.69726,3.53226 -0.52419,2.20471 -0.54027,0.47609 -0.32183,2.18336 -0.7251,2.25684 z"
         id="path17" /><path
         style="fill:#294760"
         d="m 299.99439,178.16957 c -3.14446,-2.03911 -6.26499,-4.16071 -9.36523,-6.22685 -2.68413,-0.75986 -4.28418,-3.27409 -3.51501,-5.99023 0.0982,-1.57044 0.38529,-4.04332 0.23821,-0.91867 -0.24005,2.91606 3.77438,4.76081 6.31948,4.1795 2.61465,-0.5581 5.26574,-3.23334 8.36808,-2.22664 2.97101,1.60031 5.30971,-0.31012 6.6266,-2.95473 1.59403,-1.12631 3.95987,-0.38989 4.79294,-2.78174 0.94027,-0.51808 4.08704,0.48597 1.52174,-0.96637 -1.77757,-1.18234 3.13385,2.00147 4.12063,0.0733 0.8235,-1.17405 -0.78431,-2.84942 -1.17016,-0.90732 -0.32596,-3.19783 1.3965,-6.83118 4.68787,-7.08628 2.57836,-2.21237 2.9794,0.89438 2.60964,2.84262 0.0175,3.18545 0.0351,6.37089 0.0526,9.55633 -7.72922,4.7937 -15.26068,9.90121 -23.0538,14.59269 -0.8998,0.0346 -1.4665,-0.86633 -2.23359,-1.18561 z m 1.47565,-19.16193 c -0.26147,-2.61081 -0.82052,-5.77866 -3.9229,-6.07638 -1.43431,-0.99539 4.50979,1.40471 2.06899,0.10769 -3.03722,-0.41054 -0.86193,-2.25246 0.0285,-3.04409 -1.93977,0.2114 -5.38077,4.3862 -5.66482,3.70209 0.91848,-0.71018 0.82025,-1.26879 0.22053,-0.94822 2.40467,-1.41267 4.7755,-4.14165 5.8916,-6.24475 -2.56625,-2.1794 -6.40745,-0.22521 -9.50165,-0.81121 -1.17624,0.33354 -5.351,-0.24929 -2.16324,-0.56314 3.29914,0.46975 5.9307,-1.26635 6.55777,-4.53378 1.52507,-1.69649 0.54662,3.09455 -0.17952,3.30181 -1.36828,-1.49878 -0.79678,1.07218 0.76932,0.16311 2.0169,0.38242 4.19493,-1.41279 1.50076,-2.69162 -0.62666,-0.91123 -2.8212,-4.5314 -1.91666,-2.06684 -1.01236,-0.88393 -2.44975,-3.52658 -0.29542,-1.21186 2.64494,1.34688 3.9917,4.37147 6.39146,5.70729 1.67876,-2.31017 0.29296,-5.98056 0.76846,-8.81972 -0.14693,-1.55888 0.12533,-6.59444 0.52687,-2.48174 -0.3474,2.88623 1.09601,5.38568 4.00815,5.81246 2.10715,2.36384 -4.05479,-1.17298 -1.45416,1.16444 -1.31306,0.42874 -1.88711,-2.95229 -1.26826,-0.0673 1.07836,2.01099 -1.14239,6.47471 2.20316,6.02328 4.25585,0.30651 8.52851,0.0581 12.78585,0.32775 -2.83282,1.16852 -7.91046,-0.50331 -8.83172,3.4048 -0.24614,1.99207 -1.50561,2.70193 -2.24991,0.44057 -1.42948,-1.85579 0.0743,-0.93934 0.60733,0.17796 -0.43839,-1.30635 1.11736,-3.59239 0.98674,-1.16775 -1.26219,4.043 3.01256,-3.18934 -0.82114,-1.48639 -1.64774,0.28174 -4.62532,0.55949 -1.96927,2.34597 1.17591,1.38216 4.19025,4.74015 4.16037,4.86898 -2.16916,-2.30257 -5.42576,-3.80993 -6.68439,-6.54398 -3.27557,-0.56983 -1.23008,4.63099 -1.82474,6.71463 -0.1021,2.11746 0.17551,6.1219 -0.13019,7.05157 -0.29234,-0.82828 -0.38102,-1.70799 -0.59783,-2.55566 z m -17.4943,-12.72644 c -1.00254,-2.95386 -1.2701,2.44307 -1.58228,-0.37548 -0.57568,-1.38942 1.21819,-2.37104 1.06231,-2.14867 -0.32526,-1.61242 0.36317,-4.80566 -0.28243,-5.26216 3.04298,-1.3275 -2.29377,-3.55048 -2.92966,-2.39762 1.84612,1.63039 -2.51235,-0.131 -0.97468,-1.72971 0.0781,-1.42226 -1.24454,-6.67892 1.51782,-4.42772 0.64751,2.33209 -1.29207,5.75285 2.71463,6.05351 1.40797,0.91835 1.0213,2.27215 3.04086,2.11737 2.14451,2.26982 -0.73159,3.83154 -2.73461,4.25525 0.0452,0.76332 -0.25018,3.94658 1.01103,2.87584 0.67004,-3.11416 0.67471,4.6714 -0.84299,1.03939 z m 37.49385,-10.69932 c -1.08329,-2.8081 -2.28709,-8.62534 -6.23542,-7.58156 -1.51715,0.66853 -3.66507,3.93772 -0.66737,4.01718 -2.86979,0.75726 -1.5519,-2.7023 -0.80286,-3.56944 -1.45804,-1.441 -0.59355,-2.59936 -0.74752,-4.12513 -2.61937,-2.04926 -4.94188,2.05918 -7.96063,1.00964 -2.47306,-0.0456 -0.99644,5.30893 -3.10336,1.91836 -1.60032,-1.41981 0.56579,2.38646 -1.75275,1.72418 -2.78391,-0.90307 -3.42801,3.7471 -5.84522,1.25476 -2.1727,-1.47338 -4.66612,0.31761 -6.21323,2.07609 0.48692,-1.87779 3.881,-3.64006 5.99287,-2.64414 1.27437,1.33443 2.97965,1.16511 3.43043,-0.58259 2.3688,0.0688 3.70342,-1.55013 3.34524,-3.64545 0.89104,0.30211 2.70707,2.24781 1.66841,0.0379 -0.78118,-1.10226 0.15909,-4.98342 -1.16018,-2.71003 -0.43791,1.31417 -0.70698,1.21759 -1.13228,1.57224 -2.5616,0.86324 2.39717,-2.77598 0.17709,-2.16014 0.74333,-2.19451 -1.91268,-1.02023 -0.67455,0.29681 0.50962,-0.50206 -1.88587,3.90598 -1.0434,0.88442 0.70492,-1.23746 0.6378,-4.76498 -0.13104,-1.59135 -0.0678,2.65165 -2.28605,-2.79413 -0.90843,0.2988 -0.93186,-1.30893 -2.04988,-1.76187 -0.64598,0.0574 1.00801,1.485 -2.89124,-2.92303 -1.65261,-0.37264 0.76886,1.35119 2.11588,3.48663 0.12643,1.16062 -0.66642,-1.21872 -0.79494,-3.53913 -1.56487,-1.08786 -0.63076,1.42377 2.91206,3.97209 0.14586,1.69701 -0.40524,-2.297 -2.5286,-2.74906 -3.62521,-0.64129 -0.71638,1.4415 -2.04698,3.33358 -3.24384,1.82603 -0.78423,0.83021 -0.78075,3.17159 -1.4502,0.87311 -1.6393,-2.59995 -3.98257,-0.19683 -4.85195,1.27088 -2.08056,0.62365 -1.96461,-4.11361 -0.67024,-1.25342 1.26886,2.74785 2.44608,-2.92181 3.46795,-2.34857 -1.50359,-0.23948 -4.67145,2.84408 -4.7792,-0.0321 0,-1.19313 0,-2.38627 0,-3.5794 2.41879,1.75519 5.64854,1.30654 8.45548,1.46013 3.05712,-0.92889 5.48812,-3.22087 8.61322,-4.04036 2.98402,-1.60491 5.71714,-3.59589 8.33139,-5.73898 3.30479,-3.15088 4.12173,3.01105 7.68023,2.85418 2.2082,0.13776 4.93728,-0.54741 5.5453,2.44313 2.34131,-0.17417 6.40338,-1.42889 7.69246,0.3267 -0.0553,6.72546 0.0743,13.45539 -0.24022,20.17632 -2.54932,-1.66196 -1.25449,-5.05059 -2.03304,-7.35245 -0.4236,1.31489 -0.50297,3.40252 -0.5184,0.65274 0.0625,-1.72644 0.12326,-2.81683 -1.23775,-0.97799 -1.74555,0.45045 -0.007,-2.55678 -2.07014,-1.72497 -0.82262,-2.34668 -4.13992,-3.36526 -6.05334,-1.83579 0.10927,1.51744 1.27025,3.6789 2.33968,1.57862 3.02684,-0.13041 4.98773,3.1783 5.35847,5.83953 0.36317,1.22635 2.63316,5.99798 0.88762,2.79321 l -0.24292,-0.50434 z"
         id="path16" /></g></g></svg>
