<?xml version="1.0" encoding="UTF-8" standalone="no"?>
<!-- Created with Inkscape (http://www.inkscape.org/) -->

<svg
   width="82.495613mm"
   height="103.0642mm"
   viewBox="0 0 82.495612 103.0642"
   version="1.1"
   id="svg1"
   xml:space="preserve"
   xmlns="http://www.w3.org/2000/svg"
   xmlns:svg="http://www.w3.org/2000/svg"><defs
     id="defs1" /><g
     id="layer1"
     transform="translate(-261.83322,-34.066731)"><g
       id="g20"
       transform="translate(14.806866,-132.76823)"><path
         style="fill:#70a1b1"
         d="m 272.60102,243.079 c -4.58637,-2.51636 7.00701,-3.01136 1.98388,-0.52383 -2.03211,-1.502 -0.81249,-0.16684 -1.98388,0.52383 z m 34.67859,-9.78028 c -2.67993,-0.28756 -7.47868,-7.46532 -4.66217,-7.27999 1.24697,2.62136 3.79689,4.454 4.66217,7.27999 z m -11.18639,-4.30879 c -1.42861,-4.81413 7.02973,1.8902 1.09384,0.67391 -0.64487,0.23422 -0.7915,-0.34802 -1.09384,-0.67391 z m -19.53266,-1.59341 c -3.397,-3.0283 4.01408,-5.94059 1.95412,-1.67859 -0.41422,0.79466 -1.20314,1.26056 -1.95412,1.67859 z m -13.46505,-12.03758 c -3.08662,-2.94735 7.83909,-6.05195 6.55263,-3.91742 -5.39409,-1.9142 -4.09186,5.86155 -1.95374,3.25979 -1.42888,0.54295 -3.0804,1.42777 -4.59889,0.65763 z m 1.24798,-3.93884 c 0.92184,-2.49766 -10.48665,-0.67379 -5.39365,-4.82065 1.89676,-1.07194 3.87806,-0.69997 0.53365,-0.59554 -6.34695,0.76706 3.1594,-6.86215 -0.89351,-2.67073 -2.96749,5.11874 5.67166,1.16661 2.47042,-0.67786 3.86838,-3.40106 9.05449,4.19194 4.07695,5.58089 -4.61036,0.72029 5.03527,2.38716 -0.75816,3.44427 z m 12.50454,-2.41352 c -1.08062,-1.91016 -5.1432,-5.32523 -3.90271,-6.91901 1.55485,0.38561 8.30397,6.64776 3.90271,6.91901 z m 19.49369,-3.70673 c -2.84525,0.45464 0.82317,-4.45544 -1.19133,-1.63739 2.01029,-2.0904 6.8255,-2.95126 3.63749,1.1693 -0.61673,0.5479 -1.69387,1.18058 -2.44616,0.46809 z m -0.87491,-7.22263 c 3.68413,-0.32347 2.36737,-1.00873 -0.49014,-0.6165 -2.47638,0.89297 3.91362,-2.27134 3.82593,-0.29038 2.36459,0.22653 4.62962,-4.62162 1.48788,-1.16298 0.47341,-1.67694 4.46354,-4.97768 5.05276,-5.71468 -0.28961,4.06824 -5.71693,8.7901 -9.87643,7.78454 z m -22.93953,-6.35734 c -3.02935,-2.99452 6.45823,-6.91917 1.64688,-2.72041 1.44502,-3.21979 8.64084,2.34631 3.57792,-0.137 -2.62168,-1.96644 -3.40536,2.03602 -5.2248,2.85741 z m 26.79216,-1.34172 c -0.16422,-2.19421 -7.48494,-3.28837 -2.10307,-5.17524 2.27804,-1.63209 4.74991,3.95955 3.07642,1.96357 -0.0358,0.74969 -0.1401,3.43525 -0.97335,3.21167 z m -16.77593,-2.96192 c -6.01661,-0.16959 2.45315,-7.1963 0.99825,-1.50673 -0.21058,0.31903 -0.67232,2.89114 -0.99825,1.50673 z"
         id="path24" /><path
         style="fill:#afa06e"
         d="m 287.62827,216.33573 c -4.64032,-1.0407 -9.52642,0.92765 -14.07215,-0.61387 -1.70317,-2.16485 0.35797,-3.29795 -1.90292,-3.71008 2.31654,-1.26718 11.19025,1.52727 4.41893,1.81656 -0.59565,4.33091 7.4049,0.38642 3.85931,-2.34697 2.68667,0.6822 1.49198,-4.82201 2.96132,-0.9702 -1.70375,1.80095 5.61348,2.75859 1.0428,4.91886 1.4186,0.18422 9.64147,-0.0997 3.69271,0.9057 z m 0.18878,-3.35309 c 1.97158,-2.8438 -5.76644,-6.051 0.0904,-6.45012 1.32521,-1.82959 0.78839,-7.19683 0.93686,-7.40001 0.13211,5.00678 0.53828,10.24105 -0.79913,15.11982 -0.076,-0.42323 -0.15206,-0.84646 -0.22809,-1.26969 z m -5.26857,-5.63419 c -3.0662,1.46027 -6.39693,-6.58563 -2.58574,-2.29361 1.36697,2.23641 5.45598,-3.21918 3.19526,1.05127 1.47275,1.85952 1.5942,1.77161 -0.60952,1.24234 z m -25.15055,-7.27677 c 0.31085,-5.89115 10.52394,-5.13886 7.71693,0.78791 -1.69366,1.15253 -8.04079,2.59206 -7.71693,-0.78791 z m 19.42558,-0.93081 c -2.84308,-2.76175 -9.22159,-2.69497 -8.90908,-5.4468 3.00659,2.08419 -4.14571,-5.45333 -0.0731,-1.73022 2.10415,3.5637 5.65359,5.18152 9.45195,6.25825 -1.42584,-2.66201 -4.70752,-0.0958 -3.87153,-3.95377 3.39157,3.9967 7.75854,3.1815 12.33699,3.35701 -2.2759,2.56354 -5.88948,0.89291 -8.93526,1.51553 z m -1.93701,-6.09558 c -3.86101,-2.85849 5.05417,-6.64418 4.78534,-1.53041 -0.95661,1.24552 -4.17104,1.70396 -4.78534,1.53041 z m 7.73407,-2.15536 c -0.20143,-2.73147 1.67267,-6.74503 3.21524,-6.7012 1.56865,-3.64303 0.74533,-7.80381 2.29854,-11.46748 0.44359,5.0137 0.97564,10.78161 -2.28606,14.97618 -0.58866,2.43683 -3.62865,4.24651 -2.43194,0.35593 -0.28986,0.11821 -0.44688,4.55218 -0.79578,2.83657 z"
         id="path23" /><path
         style="fill:#616dad"
         d="m 293.78219,250.94618 c 0.70445,-3.43068 4.45209,-6.60862 2.7852,-9.83445 2.56664,-2.82593 8.37299,1.75655 3.70189,3.74324 -1.21686,2.62179 -3.4237,5.72294 -6.48709,6.09121 z m -14.63448,-2.9855 c -3.26126,-0.23984 -4.89373,-4.49083 -7.05156,-5.17186 2.70089,0.0442 4.64648,-1.97924 3.52832,-2.54982 1.42667,0.21486 5.93044,1.92204 2.3604,0.35614 5.31836,-1.53488 3.9883,5.01884 1.87676,6.85243 0.82833,1.48028 0.27449,1.72769 -0.71392,0.51311 z m 6.54948,-3.97368 c -2.04054,0.66145 -3.38487,-4.22243 -1.32572,-1.11929 -3.7883,-1.58043 0.92898,-7.12647 1.37923,-2.55578 -0.27015,1.34637 -1.92074,0.42519 0.0302,2.23707 0.42117,0.34826 0.67343,1.30903 -0.0837,1.438 z m -15.07563,-1.27615 c -4.70193,-0.84084 -0.96064,-6.04059 2.28221,-4.86429 -3.40852,0.85705 -2.95411,3.69679 -1.36491,3.62101 -0.10213,-0.26155 -1.02344,2.38218 -0.9173,1.24328 z m 35.81547,-6.05819 c -2.08756,-1.38725 -4.66335,-3.26936 -5.52526,-5.48305 2.32427,1.41121 6.98766,4.19686 6.88555,6.26049 l -0.55108,-0.27825 z m -46.9251,-0.85402 c -5.54718,-1.92175 4.20425,-5.26284 0.9856,-0.88415 -0.45499,-0.0126 -0.40715,1.51655 -0.9856,0.88415 z m 59.14882,-4.39424 c 0.14662,-1.94359 -6.72919,-4.85047 -4.26855,-5.29693 2.5501,0.98536 4.80622,4.939 5.58596,3.86783 -0.43574,1.03274 0.2979,2.83442 -1.31741,1.4291 z"
         id="path22" /><path
         style="fill:#565a5e"
         d="m 288.39666,262.59202 c -1.08797,-4.50252 -0.60333,-10.76886 -5.71949,-12.8149 -6.96412,-0.84986 3.34167,-8.01527 -2.39732,-9.47202 -2.10471,-0.003 -9.65571,0.87486 -5.27685,-2.67977 -1.94115,1.07104 -5.01645,5.00585 -2.8038,0.76699 -2.83803,-2.41696 -5.95293,4.1458 -9.44895,4.37807 2.01842,-2.94644 6.89602,-4.85501 9.39357,-7.94755 -3.91887,2.88974 3.45062,-4.04761 4.76376,-4.95447 1.21507,-2.35065 7.47186,-3.90338 5.46258,0.0418 -2.03209,2.49089 -9.25561,4.1188 -8.35546,7.03837 1.14408,-3.83188 5.44921,5.86052 6.98242,1.18191 0.41668,-0.77952 -0.13332,-1.10447 -0.60356,-2.94978 1.35402,1.75128 2.07597,3.5488 0.91959,0.46623 -1.03503,-1.72899 0.27025,-3.45161 1.75241,-1.36135 -6.65176,-0.17456 1.85243,-6.90955 2.14735,-2.12315 0.83361,-0.86054 1.62701,9.22515 2.46007,3.94368 -0.60043,-1.59957 -0.37002,-6.63569 0.79205,-2.46177 -0.18285,6.14682 0.57022,12.33532 -0.16659,18.45197 -1.2355,-5.10396 -0.14176,3.79322 0.0164,5.38233 0.21726,0.77766 0.65188,9.54444 0.0818,5.11341 z m -0.82494,-16.18745 c -0.30111,-3.00807 -2.6196,-9.37756 -3.64466,-9.63468 -2.67425,3.59913 1.23851,7.25997 3.64466,9.63468 z m 2.14366,7.78693 c 1.00385,-7.27544 -1.10779,-14.70441 0.45356,-21.91489 0.2436,-2.53399 1.74914,3.04468 1.36137,-0.42731 -0.9181,-4.64263 3.40158,-3.08274 5.29006,-0.84425 2.38295,0.70898 9.61881,3.61353 7.91916,4.55717 -0.4688,-0.0843 8.41123,6.0684 2.89048,3.03349 -3.70662,-0.49747 2.72325,5.56023 -1.02985,1.6709 -2.1462,-4.21778 -4.45646,4.2655 -5.54275,0.0386 2.20096,-0.80938 3.32315,-3.0929 -0.0249,-2.02173 -2.45119,0.4337 3.29544,-3.5279 1.07806,0.009 4.18804,-0.8514 -1.43398,-3.76382 -2.9083,-1.63329 -1.6587,-3.1377 -0.39526,1.82689 -2.17042,1.75346 -1.42947,3.00235 1.01849,8.94276 -3.22105,9.86938 1.74586,-0.49683 3.45035,-5.79665 1.11946,-2.28446 1.17749,-2.46897 -3.22909,0.25347 -1.50617,-3.24586 -2.72037,-3.30965 -3.52831,5.85881 -0.76943,0.90056 0.91682,-1.1977 -2.38571,5.58632 0.14458,1.38368 -1.4541,5.25453 -1.05244,10.91222 -2.86596,16.0555 -0.56142,-1.17086 -0.10837,-4.81869 -0.2179,-6.89995 z m 12.00757,-18.43579 c 3.19234,-2.94898 -4.79334,-3.31271 -6.3917,-4.9988 -4.49809,-2.46802 -4.42631,6.9884 -0.0772,3.36248 1.68537,-1.37693 2.54817,-1.46913 0.82436,0.58123 1.80397,2.10771 5.08008,-3.45811 6.01309,0.1473 -0.12172,0.47156 -2.08431,2.0781 -0.36856,0.90779 z m -9.00315,-1.80244 c -1.79452,-6.19491 8.07298,-0.76439 0.88078,0.15736 -0.18877,0.31257 -1.5043,1.25453 -0.88078,-0.15736 z m 28.90343,15.47634 c -0.93069,-1.93999 -4.77633,-2.47007 -2.88431,-4.30034 -1.40898,-0.97485 -2.72109,3.17811 -2.38699,-0.56952 -0.39727,-1.91312 -2.37517,-2.41981 0.96332,-1.34286 2.67803,0.77699 3.40547,3.93791 4.30798,6.21272 z m -65.28441,-0.90695 c -0.39972,-3.57115 7.03592,-0.7471 2.75312,-4.06669 4.17835,-2.70753 2.50855,5.48976 -1.0845,3.48832 -0.28418,0.24932 -1.4348,1.66536 -1.66862,0.57837 z m 57.44495,-6.52029 c -5.02523,-2.03128 -6.56913,-7.93559 -11.15052,-10.46125 -2.89045,-0.16053 -8.56494,-1.08513 -6.81507,-2.94105 1.945,1.63739 8.27507,2.24063 3.84948,-1.12222 -1.91244,-3.06507 -6.44763,-5.5962 -8.25996,-4.55954 2.16349,-1.01961 0.91831,-5.65617 4.02536,-5.04034 -4.77184,1.44946 1.72716,4.7158 2.23843,7.08556 2.45324,2.45345 7.5807,8.05435 9.21469,7.26852 -1.36185,-3.12711 -4.63742,-8.56085 -7.47851,-5.34887 -2.33079,-1.72926 1.57775,-6.7558 2.32827,-2.74551 -1.93124,-4.06857 7.91199,-4.17896 2.32022,-0.84689 -4.49939,1.32742 3.00283,5.78003 1.44897,1.81191 -3.51851,3.14405 3.46624,-2.49759 5.23903,-2.61525 0.21575,-2.35763 5.23258,-4.33561 8.01622,-5.13224 1.83484,-0.68877 7.3492,-0.66646 6.63936,0.10187 -4.10414,1.20133 -8.89086,1.52862 -12.2181,4.41199 0.0104,0.15455 7.63997,-1.78341 2.69927,0.0786 -4.16985,0.29765 -7.61596,2.71296 -9.56312,5.78875 0.80071,-2.38272 0.88662,-4.17795 -0.88605,-1.31428 -0.96211,2.3179 2.67079,4.29493 1.57398,1.86552 1.97716,0.21327 3.63045,-3.14058 1.47591,0.078 -2.01873,4.57853 3.53813,-0.78015 5.74584,1.83257 4.84414,0.4048 -1.39851,6.11145 3.53937,4.70364 5.37831,-0.3202 -5.37622,1.90522 -2.59352,5.08546 -0.70291,-1.09494 -5.57406,-5.9366 -4.84052,-3.9487 1.67118,1.4316 3.98272,5.55503 0.5472,1.94015 -1.88248,-1.65817 -6.74172,-7.21396 -6.66289,-6.38005 2.56882,4.0679 7.19937,6.3458 9.56666,10.40367 z m -49.40572,-1.31707 c 1.76358,-4.05045 -2.83841,1.11947 -2.07443,-2.70882 -3.56197,-0.27074 0.24306,-8.19228 -4.3697,-4.49158 -0.28301,-4.10529 3.225,-9.23219 7.63723,-8.88722 2.5108,0.72835 2.50485,6.23003 4.64823,5.90449 -2.26279,-3.68373 2.82372,1.81851 -0.20089,3.398 -1.59245,2.49456 -4.01786,4.32108 -5.64044,6.78513 z m 3.92211,-3.9563 c 3.95498,-4.16717 8.28916,-8.0135 11.67675,-12.68441 1.52638,1.92071 2.99302,-4.00796 0.45042,-1.45356 5.58467,0.53036 -2.99047,-7.72935 1.0348,-2.88005 1.62747,0.59403 2.7767,-0.56854 2.85137,0.93554 1.62019,-2.54913 5.02163,4.8066 1.03394,2.76089 -3.83619,-1.85617 -6.86021,5.33121 -7.7704,4.14076 -2.30296,3.61209 -7.97372,8.12726 -9.77043,9.77247 0.16452,-0.19721 0.32903,-0.39443 0.49355,-0.59164 z m 11.87555,0.87041 c -3.75653,-0.4476 -5.08798,-4.17659 -0.57936,-4.56007 -0.68188,1.97942 -0.24207,3.231 0.88224,4.41588 l -0.30286,0.14419 z m 39.29974,-4.11156 c -1.62479,-3.529 -10.48652,-2.95887 -7.963,-6.95476 0.26073,-5.24016 3.85438,-1.25423 5.93586,0.19867 -0.74265,-1.91249 -2.45743,-4.15353 0.0681,-1.49279 1.30991,1.90968 3.52252,7.20013 0.12476,2.97421 -1.00377,-1.08352 -6.16524,-3.66331 -2.6521,-0.57114 1.82843,1.06578 3.71846,3.71644 3.35378,3.29554 0.50349,0.40645 3.76539,2.83242 1.13262,2.55027 z m -48.02544,-3.9877 c 1.81363,-2.8973 3.14603,-7.64334 -1.17966,-9.02075 2.16163,-0.0936 3.84701,4.12986 3.25323,0.93829 1.32107,-1.34849 6.56147,1.51864 2.58295,1.22855 -1.66539,2.20305 -2.50979,5.03169 -4.65652,6.85391 z m 0.76864,-3.21435 c -5.45278,-4.37132 -12.04503,-7.12844 -18.82546,-8.63711 3.03638,-1.57341 10.06048,-0.83155 11.62306,0.67759 1.01252,1.45276 5.82848,2.85102 6.91162,5.77755 -2.27084,-2.71979 -4.84697,-2.07885 -6.35031,-4.8594 -4.32513,-1.28381 4.04589,3.22127 -1.3084,0.70254 -3.04305,-0.73491 4.56468,2.91287 5.69581,4.03071 0.74675,0.68273 2.08655,1.20083 2.25368,2.30812 z m 16.45938,-6.49014 c -3.5585,-3.1311 2.93547,-4.66082 3.11916,-4.32647 -4.40201,-3.27051 -2.66494,-9.31815 -2.39394,-13.95921 0.0313,-2.65519 -0.0165,-2.58608 1.88992,-0.88034 -0.13141,-4.67896 -2.77132,-9.07303 -1.71891,-14.01297 -0.0624,-6.59211 -0.53446,-13.19972 0.0468,-19.78171 0.85653,6.37015 0.97682,12.87698 2.76178,19.092 0.88238,2.12121 3.47713,3.53035 2.2049,0.0619 -0.51719,-3.14762 -2.12886,-6.88199 -1.12172,-9.78829 -0.005,4.83575 1.45599,9.48245 2.50058,14.04278 -2.14303,0.94556 -2.57419,2.39776 0.33334,1.63348 3.312,0.5806 -1.41746,1.63536 1.7021,3.32605 2.91453,2.69157 -5.44645,0.11641 -2.46617,2.96978 4.14239,-0.0506 8.93872,-2.36205 9.91879,-6.73172 2.83417,-4.52525 2.57126,3.79552 -0.74919,3.73146 -1.95032,1.81649 -6.90263,6.17925 -8.0649,4.02175 3.11285,-2.16047 -2.89474,1.30321 -4.16936,0.89243 0.71469,2.40152 -0.52714,5.53924 2.43524,4.6438 5.22136,1.34016 8.78475,-3.87765 11.68564,-7.32905 1.32515,-1.85708 6.51456,-7.40454 3.0032,-2.44505 1.22552,-0.54291 3.74103,-3.41904 1.13842,-0.78038 -4.77075,4.6187 -9.58084,9.20062 -14.20357,13.96868 4.2588,-5.96487 -3.52705,4.62551 -3.70867,1.99127 -0.94571,-3.0946 -0.53453,4.99972 1.54722,0.75686 -0.0947,0.18106 2.60258,3.74119 3.19449,5.11255 -3.938,-0.44751 -8.26043,-0.46231 -8.788,4.7743 -0.0897,-0.30736 -0.0521,-0.66293 -0.0972,-0.98395 z m 11.97927,0.26458 c -0.2088,-2.17667 5.0854,-0.25992 1.89165,-2.4734 2.53523,-2.17193 7.83714,0.38154 2.63383,2.05618 -1.31405,0.86799 -3.08143,1.10695 -4.52548,0.41722 z m -28.04583,-0.57101 c -1.60439,-1.68541 3.50282,-2.58694 -0.94105,-2.01603 -2.45243,-3.30704 10.54391,0.93827 3.44979,1.91227 -0.8467,-0.19863 -1.66592,-0.008 -2.50874,0.10376 z m 34.925,-0.86636 c 0.56683,-3.15088 11.10787,-1.69126 5.05704,-0.64679 -1.68677,0.19036 -3.33231,0.82495 -5.05704,0.64679 z m -58.86979,-1.91438 c -5.3265,-0.60354 3.88481,-1.74413 5.49574,-1.90126 3.01887,-0.24521 8.56531,-2.20653 5.9588,0.59198 1.6969,-0.0269 5.38211,0.18898 1.33761,0.29718 -4.28681,-0.01 -8.82193,0.48162 -12.79215,1.0121 z m 54.90104,-0.68717 c -3.47423,0.41756 -3.91373,-2.64217 -0.34072,-3.06682 2.3801,-0.30287 -2.04365,-0.7428 1.09688,-1.05771 4.12366,-2.05063 -3.95983,-5.631 -2.53309,-0.55657 -1.76355,0.94884 -4.67372,-5.80504 -0.40355,-6.81074 3.17966,-2.37638 5.47623,-6.76657 9.18778,-9.22367 1.62413,-1.90324 -3.54953,4.73588 -3.75472,6.57596 -1.40008,2.28294 -4.3432,7.13972 -0.81982,4.78965 3.62825,2.43405 -0.64394,-5.02543 1.97579,-0.17098 0.51503,2.23864 5.84975,3.88549 2.91634,1.32082 -1.78641,-3.15158 1.71087,0.82469 0.29617,-1.57941 1.13381,-3.69168 -5.12691,-2.65581 -2.87577,-6.04889 1.65492,-1.03996 1.22759,-3.3642 3.20381,-0.48922 1.28654,2.71255 3.33666,7.9082 5.86827,2.89046 -4.03187,2.86169 -6.80428,9.76268 0.12757,11.09817 2.94879,0.96932 6.94069,1.00336 9.36936,1.91611 -2.42988,0.16967 -8.96801,0.17748 -3.08641,0.34463 2.68425,0.19801 -4.3831,0.0502 -5.59116,0.0454 -4.87876,-0.0256 -9.75804,-0.0137 -14.63673,0.0228 z m 10.49229,-1.52348 c -2.02879,0.27819 -6.25659,-4.13664 -1.91686,-1.94147 1.01307,0.95339 6.01832,1.84113 2.17168,0.21566 -2.62094,-0.40802 -6.77789,-5.15438 -6.60958,-0.58932 -2.35024,2.79274 5.10026,2.47703 6.35476,2.31513 z m -37.03652,1.28727 c -4.26809,-2.22326 7.57085,-4.43422 2.64925,-0.35995 -0.62473,0.75795 -1.88592,1.1454 -2.64925,0.35995 z m 0.79507,-3.53981 c 2.76367,-4.4127 -2.29285,-10.18912 -6.04527,-10.77558 0.54504,1.474 0.17898,7.14659 -0.0875,4.43504 -0.52119,0.49715 -3.40207,4.35563 -1.57419,2.01352 -3.89447,0.76398 1.84067,-3.11224 -2.63621,-3.60075 0.41657,-1.22364 3.26338,-5.28529 0.44941,-4.43702 -3.68733,-0.65807 -1.40033,-3.93329 -4.55106,-5.96079 0.98048,-0.28663 6.83488,7.31992 6.94601,6.30594 -1.30078,-1.15514 -6.06036,-6.4608 -3.68424,-6.15866 1.60255,2.09432 7.69738,7.84137 7.61157,6.84139 -4.9623,-4.27583 -9.1,-9.52603 -14.67869,-13.05728 3.07272,-4.08287 1.93502,2.94291 5.44818,3.5039 1.75514,1.84474 6.60691,3.70659 2.54587,0.30564 -0.3255,-0.78305 4.59947,3.35771 6.09214,4.40514 1.42679,1.73513 2.42511,-0.0913 3.73605,2.55744 -2.29114,-0.64828 -7.26112,-4.13574 -2.71381,-0.75661 3.26255,2.98252 7.85124,-0.22973 11.01836,1.89907 0.97524,3.23075 -4.78682,5.15936 -3.29324,1.04 1.38457,-1.00977 -4.26917,0.12307 -5.6041,-1.53049 -3.58905,-1.72485 -6.56582,-4.51973 -10.25893,-6.04805 3.74124,3.87641 8.48297,6.90967 11.45874,11.44052 -2.31405,-1.25289 3.1584,3.26837 3.42289,4.67762 1.90879,2.6417 -1.72256,3.555 -3.60202,2.90001 z m -7.85572,-6.73377 c 4.30755,-3.51946 -3.77717,-4.31766 -0.95233,0.25383 0.28452,0.32597 0.77146,-0.007 0.95233,-0.25383 z m 2.18561,6.81084 c -6.0006,-0.80574 1.18258,-7.50165 1.53971,-7.43196 2.05676,2.65113 7.18161,8.19334 -1.53971,7.43196 z m 12.65249,-4.85188 c -4.14569,-1.9726 2.53927,-5.96663 3.94636,-6.91583 0.53285,2.54923 -1.47771,8.72775 -3.94636,6.91583 z m 10.68442,-3.96703 c 3.57325,-0.91786 -2.11379,-4.14941 2.16256,-2.07503 4.12388,-2.19371 4.83107,-4.67517 9.3674,-6.89786 0.1148,2.64811 -6.44388,5.28947 -9.1597,7.51755 -0.78682,0.49041 -1.57736,0.97484 -2.37026,1.45534 z m -14.48296,-6.06863 c -1.57981,-0.82156 -3.95018,-0.61626 -2.59256,-2.10818 1.96959,-0.66781 5.5605,-4.63051 3.8593,-0.53101 -1.07131,3.41772 3.27882,-2.91753 3.84694,-4.08818 1.54634,-1.43057 2.55276,-9.68601 2.60413,-4.37516 0.22113,6.28483 0.45323,-6.5681 0.49973,-0.66102 -0.15722,2.42195 0.092,6.2478 -0.56984,7.84606 -0.26303,-1.99516 -0.0149,-10.41243 -1.22895,-4.20602 -1.38946,3.05891 -1.07403,10.12992 -6.41875,8.12351 z m 19.26769,-4.38851 c -2.81319,-1.36007 0.7167,-2.39232 0.35267,-2.45773 0.0434,-2.40376 -0.69473,-7.14789 2.55692,-3.06242 4.20148,0.26855 -0.47292,7.60811 -2.90959,5.52015 z"
         id="path21" /><path
         style="fill:#25272a"
         d="m 288.93736,269.80191 c -0.2595,-2.51418 -1.34708,-7.76942 -0.68209,-8.81326 0.85785,3.79305 0.13921,-3.59315 -0.0111,-4.92626 -0.14847,-1.91929 -1.192,-9.02321 0.23397,-4.05626 0.13947,-5.34629 0.12277,-10.72481 0.0896,-16.08232 0.5647,-2.63981 -1.64399,-5.84759 -2.7327,-1.7952 1.07309,-0.92626 -0.3151,-4.6391 -0.95458,-1.79359 0.72972,-5.46848 -8.62529,2.04421 -1.97523,2.16181 -3.65225,-2.43489 0.68212,7.14846 -1.73242,1.32497 -2.30948,-3.54488 1.49847,5.50225 -0.67299,0.96389 -2.96499,-0.17149 1.30169,-5.56384 -1.74753,-3.11088 -3.1565,0.86426 -3.22256,3.58526 -6.04966,2.81479 2.91068,-3.33989 9.2504,-3.92935 10.39067,-8.50645 -4.78353,-2.29708 -7.83448,3.66704 -10.79206,6.41652 -2.65265,2.80689 -6.48935,4.81632 -8.69288,7.80263 2.0477,-0.83854 -3.62718,2.94119 -0.61329,0.0255 4.57861,-4.8168 9.78868,-8.97164 14.23524,-13.92562 2.81038,-2.63796 6.19512,-5.81256 10.19757,-4.63384 0.013,-5.0011 -6.10286,-2.6273 -7.42024,-6.02687 1.41996,1.33342 3.75184,4.38239 0.41972,4.94987 3.83119,-0.89407 -1.95815,4.28321 -2.08652,-0.003 -1.63326,-4.07615 -5.58464,2.35703 -5.74745,-1.45444 -1.7984,-2.08845 -3.3193,1.35581 -0.35694,0.26135 2.83657,2.81944 -0.68748,9.95021 -2.45723,6.79156 1.02012,1.45202 0.67531,2.69457 -0.58511,0.73002 0.80347,4.05163 -2.81361,-6.77671 -5.89452,-4.86496 -3.11323,1.26819 -4.49871,7.41356 -5.99857,7.92029 0.53163,-3.43936 -2.46604,-13.65435 4.01572,-10.45128 2.24417,1.22847 3.54779,0.69778 0.39081,-0.20621 -2.31554,-0.66258 -10.67109,-4.6045 -4.18766,-2.69267 5.23135,1.35103 9.73153,4.54174 14.36286,7.05825 -1.53338,-2.23973 -7.49339,-4.40753 -7.2882,-5.61145 4.17272,1.83262 -3.22723,-2.72126 1.42549,-0.54616 1.65697,2.22518 4.57662,2.48246 6.42131,4.99762 -0.91923,-2.90768 -6.18321,-4.10688 -6.62729,-6.19169 1.72363,1.08613 5.97724,-0.43444 2.17103,-1.14372 -6.32813,-0.63526 -12.69845,0.22745 -19.02372,-0.0375 -2.34956,-1.56709 4.85356,-0.32408 6.29653,-0.8449 5.38753,-0.32466 10.89741,-0.32709 16.10924,1.10037 2.29134,-0.017 2.87483,-0.52891 1.08336,1.22315 0.89879,3.14164 8.03554,-1.53463 2.84672,-2.11166 4.17309,0.10765 8.94548,-1.51214 12.61627,1.15191 1.95305,1.92852 0.48868,5.86306 1.1793,1.38773 2.10534,-4.67421 8.08483,-2.55325 12.09472,-2.7271 7.94556,-0.30109 15.91755,-0.0499 23.87144,-0.33584 -2.32404,-0.0779 -7.17878,-0.22323 -2.08582,-0.24333 2.56096,-0.3426 10.57782,0.45081 4.04239,0.81224 -5.50511,-0.0466 -11.6909,0.86097 -15.85769,4.74363 -0.44698,2.55051 -5.95865,3.65867 -7.81505,4.46809 -3.02826,-1.93306 5.39826,-4.89663 0.88988,-5.11148 -1.21334,1.05792 -4.0808,1.31249 -2.79636,3.63184 -2.66922,-4.75882 -3.94667,5.02759 0.42998,4.49722 4.94003,5.07036 10.10026,9.9338 14.77099,15.26059 -6.88399,-6.58773 -13.70823,-13.31281 -19.97207,-20.47349 -1.07272,-1.70251 -4.75552,-4.65377 -1.38934,-5.94739 -2.6596,0.25941 -3.2618,7.00156 -4.27819,5.83137 4.50931,-2.13516 8.12395,2.99185 10.62586,6.01504 1.14688,2.09002 5.20089,5.85636 1.68793,1.8427 -2.75034,-2.98253 -8.40568,-5.95817 -11.47519,-1.81607 -1.89123,1.87681 0.92947,5.93825 1.15337,1.4479 1.43959,-2.51834 6.72888,2.03487 8.92577,3.61141 2.26018,1.30092 0.45171,3.9796 -0.46026,2.58409 2.44016,-1.89951 -2.49912,1.32604 -3.099,2.4868 -5.7164,1.15065 3.67469,-3.23505 2.91602,-5.34237 -3.09906,-3.3749 -1.99687,2.96273 -4.88422,1.34485 -0.82758,-1.10173 0.0343,-2.47931 1.05411,-2.96044 -2.59015,4.02704 -5.67195,0.0599 -7.82926,-0.90016 0.24876,10.04492 0.0878,20.1394 0.11255,30.20459 1.2041,-6.07601 0.21301,2.90293 -0.12955,4.72151 -0.15544,0.51035 -0.38979,3.80098 -0.65841,3.10202 z m 5.63452,-36.22415 c 3.39344,1.02102 1.57447,-6.18818 -1.34563,-2.59291 -0.98398,1.07135 -0.7324,4.63862 1.34563,2.59291 z m 9.78959,-13.70301 c 4.18643,-0.29571 2.64457,-4.64599 -0.86165,-2.79454 -0.76443,0.80841 0.25155,2.27585 -2.18892,1.98023 -1.50712,2.47869 2.15759,1.15189 3.05057,0.81431 z m 5.55091,-1.41606 c 1.42287,-0.10232 7.5458,-1.64878 2.92836,-1.5301 -2.05073,-1.49004 -8.85006,2.53821 -2.92836,1.5301 z m -16.62513,35.93124 c -1.15569,-2.57331 -2.58441,-4.80921 -0.6976,-7.67841 0.17151,-2.86455 -2.26377,2.47618 -1.04706,-0.49494 0.83211,-2.40471 4.02605,-1.18093 3.49964,-0.57249 3.58734,-2.37238 -2.28051,2.16408 -1.32406,4.27023 -0.38218,0.97246 0.0106,8.0271 -0.43092,4.47561 z m 6.06804,-7.13413 c 0.3534,-3.81221 6.49844,-11.55192 8.37303,-4.52996 -2.71653,1.58952 -5.18701,3.99609 -8.37303,4.52996 z m 7.79249,-6.88706 c -3.16506,-4.84716 7.04104,2.57935 1.02797,1.09663 l -0.51399,-0.54832 z m -26.66604,-0.6197 c -3.66761,0.9305 -4.11409,-5.51135 -0.62123,-2.11951 0.50489,0.33961 3.13751,3.19691 0.62123,2.11951 z m 32.4529,-2.67971 c -0.29718,-0.37792 4.59789,1.79931 5.19804,-1.11439 4.4185,-3.37093 -4.37501,1.28579 -2.58106,-3.05727 3.34188,-1.5648 6.79539,2.77071 2.03689,3.76448 -1.23682,1.05803 -3.7402,2.93503 -4.65387,0.40718 z m -5.51402,-6.21373 c 0.80643,-2.18677 3.78106,-6.35168 0.64785,-2.35859 1.44336,-1.49916 2.54939,-5.54649 0.1998,-2.26612 1.85756,-5.06761 -4.64599,3.15527 -0.69757,1.34796 -1.04497,1.41473 -0.23351,2.65131 -2.46023,0.85531 -1.19703,-1.9541 1.99923,-4.63559 0.18004,-1.26382 3.1447,-4.05438 8.84266,-6.26301 13.89358,-5.31285 2.30562,0.92376 1.41759,5.80895 0.75839,7.65898 -1.78979,-1.79009 0.1806,-0.98712 -1.91371,-3.1111 -1.81239,-2.27357 -2.21434,-2.28913 -0.63457,0.23631 -1.49347,-0.58213 -6.56002,-6.20095 -6.12898,-0.77379 -3.60366,1.94203 3.67267,4.98337 -1.34342,3.30428 -0.99604,0.27206 -1.18824,2.51105 -2.50118,1.68343 z m 6.46585,-9.27844 c 2.03609,-2.66839 8.77415,-3.10786 9.16422,-1.25425 -3.10358,-0.042 -6.11238,0.8311 -9.16422,1.25425 z m -16.14925,-6.68849 c -5.65818,-2.20348 -0.84989,-7.79097 2.266,-9.96838 5.1916,-5.17163 10.36292,-10.38311 15.74705,-15.36459 -1.52011,2.06534 -4.03186,3.75861 -5.19162,5.84272 2.14702,-1.07864 3.26876,-2.02441 0.95422,0.29818 -2.15375,2.01627 -5.46189,7.12357 -0.93521,8.4817 -0.29243,-3.22877 1.75765,7.12126 -0.41628,1.85936 -1.15064,-2.51166 -2.52135,-3.24457 -0.46955,-0.27491 1.57595,1.64818 3.6518,4.97094 -0.006,2.92687 -0.97128,-0.67018 -3.31592,-5.23735 -2.09992,-1.55416 -2.24826,-3.67661 -7.63185,6.09714 -4.80794,0.96493 1.28621,-3.33508 5.56255,-6.7412 6.65094,-1.303 2.38892,2.15101 -4.11856,-4.69831 -2.24263,-6.92116 2.45896,-0.82444 1.55978,-3.42567 -0.33515,-0.96049 -2.01347,3.61246 -8.28955,5.43219 -7.76823,9.66934 0.83805,2.6059 7.33293,4.81262 1.47869,5.5925 -2.06026,1.42721 4.14503,1.72253 -0.16744,1.80724 -0.97957,0.13183 -2.2774,0.007 -2.65707,-1.09615 z m 17.73865,-1.33577 c -2.70356,-0.34474 -7.25747,-0.68647 -7.58654,-4.0632 1.63126,1.91624 8.3958,3.71705 8.42907,4.30319 z m 3.70226,0.36889 c -2.10745,0.0759 -9.14847,-4.6152 -3.26194,-2.58019 0.9008,0.46318 6.87765,1.70427 3.26194,2.58019 z m -3.06973,-2.92722 c -6.4431,-1.0961 0.5409,-7.53529 2.69581,-9.9887 0.68742,-1.15956 -5.08714,7.10195 -5.80763,1.39881 -1.57185,-1.93693 -4.194,-5.91422 0.20984,-7.00048 4.7108,-2.1338 7.84896,4.02659 3.41222,6.51725 -3.99483,6.22087 4.32933,-7.22069 3.85865,-0.28193 0.71979,2.22044 -3.87142,7.08029 -3.55515,5.13924 5.8698,-6.53679 5.07419,9.51275 -0.81374,4.21581 z m -49.70114,-2.30291 c -0.42868,-1.936 3.34107,-6.60662 3.27514,-6.14859 -1.54244,2.64416 -1.14484,1.36236 0.87613,0.31087 0.0777,3.38595 -2.35073,2.82888 -3.34468,5.6567 0.85981,-2.26956 1.67642,-4.36481 0.064,-1.05642 -0.14471,0.2514 -1.39221,2.79491 -0.87061,1.23744 z m 26.70788,-3.45872 c -0.73942,-3.44586 -0.80254,-6.95565 3.66758,-5.90695 2.38522,2.3544 -1.36215,3.67134 -2.74554,1.26706 -2.82455,0.91527 1.95726,2.7859 -0.38795,2.8496 -0.46732,0.14019 -0.53993,4.08387 -0.53409,1.79029 z m -15.06687,0.15587 c -5.30583,-5.22531 -11,-10.07842 -15.84388,-15.75565 5.73148,5.42221 11.56641,10.77819 16.79193,16.69714 -0.31602,-0.31383 -0.63203,-0.62766 -0.94805,-0.94149 z m 20.30125,-9.86867 c -4.41873,-2.95542 2.19513,-2.09452 1.02415,-1.22852 -3.20583,-0.8958 -2.34727,-4.29548 0.5898,-1.52658 1.57916,1.26474 -2.23137,-0.53657 0.48151,1.69266 -1.81404,0.51051 -3.74351,-1.48247 -1.54126,1.38912 -0.18473,-0.10889 -0.36957,-0.21782 -0.5542,-0.32668 z m -9.09705,-5.82083 c 0.14682,-5.25797 -0.5144,-10.5818 0.10957,-15.79574 0.25234,6.33542 0.362,12.69518 -0.0442,19.02489 -0.0612,-1.0754 -0.0373,-2.15293 -0.0654,-3.22915 z"
         id="path20" /></g></g></svg>
