<?xml version="1.0" encoding="UTF-8" standalone="no"?>
<!-- Created with Inkscape (http://www.inkscape.org/) -->

<svg
   width="60.938286mm"
   height="100mm"
   viewBox="0 0 60.938285 99.999999"
   version="1.1"
   id="svg1"
   xml:space="preserve"
   xmlns="http://www.w3.org/2000/svg"
   xmlns:svg="http://www.w3.org/2000/svg"><defs
     id="defs1" /><g
     id="layer1"
     transform="translate(-247.56185,-11.889321)"><g
       id="g21"
       transform="matrix(1.3504558,0,0,1.3504558,-207.40212,-150.13762)"><path
         style="fill:#bd6f3e"
         d="m 357.12719,186.50642 c -2.79703,-2.30169 -4.94256,-5.41311 -8.12811,-7.19298 3.50765,-2.79658 -3.15645,-3.14229 -4.347,-5.28713 -1.3311,-1.56335 -1.83941,-4.19826 -2.08189,-5.90655 0.99076,1.74786 4.58822,6.2138 5.79976,2.47316 -2.89461,-2.00828 -5.50403,-4.70986 -4.19572,-8.49077 -1.33062,-2.88885 -2.38081,-5.91304 -0.45887,-8.76407 0.56684,-3.08103 1.09922,2.11784 0.13031,3.02387 -0.54358,2.74615 1.55253,5.16651 3.13307,7.20134 4.10121,-0.64379 -2.0123,-5.1516 -0.62372,-7.78024 1.28762,-2.87443 4.61667,-5.53167 3.34857,-9.03007 -0.71057,-1.15259 -0.60748,-3.9646 0.49623,-1.30175 2.88803,2.39843 2.18471,6.12879 0.30661,8.81926 -1.1386,1.42727 0.53402,5.60158 1.6938,3.13707 -1.17224,-1.99761 0.45206,-4.86494 2.03213,-5.68375 0.0244,1.549 1.15456,4.13972 1.91032,1.2983 0.53041,-2.88204 -1.69474,-6.09203 1.46034,-8.35615 3.85996,-2.93704 0.50988,-6.89608 -0.3516,-10.28895 0.24352,-2.88916 3.80946,-4.73433 3.12283,-7.9474 2.31449,3.00908 -2.66322,6.50079 0.17158,9.47568 2.35502,2.6562 5.30877,6.45841 2.92055,10.04111 -1.76541,1.22055 -3.55081,7.16915 -0.0594,5.69143 0.97791,-1.82304 2.64912,-6.07131 3.54687,-2.54742 0.94992,-2.45523 -0.89564,-6.46551 1.82213,-8.88508 1.56001,-2.11756 -0.80239,2.23939 -0.32928,3.41829 0.28485,3.01161 2.09369,6.39849 -0.68235,8.93837 -1.92675,0.69595 -2.49215,6.0668 -0.15158,5.0826 0.91078,-2.39862 5.36473,-3.44141 3.82061,-6.7212 3.03455,2.26295 0.0258,5.63004 -1.6689,7.50517 -0.34778,3.98127 5.86443,2.38834 5.09972,-0.86878 -0.27381,-1.66638 0.10885,-5.59138 0.74842,-1.86273 1.85349,3.58384 -1.94438,6.76029 -1.85656,10.15258 -0.90597,1.10905 -4.7282,3.1762 -2.71519,4.10711 1.69378,-0.56468 5.0177,-2.05475 5.35011,-2.46067 -0.0522,2.60125 -5.29341,3.41792 -4.41522,5.09977 1.62938,-0.15933 5.94841,-4.86843 3.79784,-1.226 -0.76494,3.41333 -3.56129,4.97634 -6.32274,6.19084 -1.70945,1.01948 -0.0642,2.87034 -0.25399,3.17514 -2.91008,1.69171 -5.38453,3.94063 -7.76127,6.28732 -1.38118,1.57112 -3.22161,1.16748 -4.30837,-0.51672 z m 4.23256,-2.94877 c 6.84295,-4.04602 8.15245,-13.66279 4.82289,-20.41291 -1.38462,-3.18921 -4.86983,-6.25505 -8.54174,-4.91629 -4.73456,1.78418 -6.29965,7.35161 -6.61553,11.93049 -0.2174,5.45265 2.67065,11.37966 7.84931,13.56019 0.81101,0.23349 1.72404,0.24218 2.48507,-0.16148 z m 10.86733,-19.39469 c 0.35794,-1.31667 2.81074,-3.57065 0.0359,-2.08336 -1.73631,0.29209 -1.74719,5.76995 -0.0359,2.08336 z m -35.33018,0.33479 c 0.009,-2.59927 -0.0188,-8.30565 0.0531,-8.92757 0.0773,6.14977 0.0747,12.30054 -0.008,18.45024 -0.0679,-3.17378 -0.0334,-6.34847 -0.0454,-9.52267 z m 16.27364,-18.67035 c -0.72369,-1.99064 1.34652,-6.12125 1.44892,-6.54549 0.37887,1.62386 -0.32857,6.89388 -1.44892,6.54549 z"
         id="path22" /><path
         style="fill:#1c0520"
         d="m 353.30938,190.26232 c -5.41571,-3.43111 -10.78513,-6.93599 -16.25161,-10.28645 -0.007,-10.76726 -0.0135,-21.53453 -0.0202,-32.30179 4.53244,-2.92222 9.08777,-5.80869 13.62992,-8.71575 -1.15923,-2.67627 -2.44855,-6.37842 0.62017,-8.34781 -0.1522,0.90371 -1.81817,3.69115 0.44427,4.93533 0.95757,1.66899 3.57324,1.19691 2.26245,-0.94815 -0.20941,-3.84606 4.89517,-5.78783 3.82045,-9.83599 -0.50938,-1.65217 0.99065,-5.17792 1.83345,-4.74588 -2.56744,3.61829 2.85484,6.41665 2.24074,10.1481 0.7553,2.4602 2.08241,7.55472 5.07546,7.06079 1.05386,-1.53518 -1.99262,-6.20852 0.72092,-3.43677 3.33045,2.82257 1.20684,6.68728 -0.54797,9.49091 -0.35696,1.52482 1.20792,5.71985 -0.62943,5.50781 -0.70657,-3.68127 -2.25089,2.87691 -3.84084,3.35959 -3.70066,-1.77891 1.34148,-5.69722 1.61758,-8.32786 1.02157,-4.59852 -4.77014,-6.66875 -4.63839,-10.9701 1.11928,-1.35747 1.78893,-6.4036 0.73639,-5.6179 0.19854,3.44789 -5.09457,5.83467 -2.41369,9.44986 2.42567,2.99242 1.57426,6.59598 -1.17242,8.97367 -2.82772,2.60489 1.34062,6.54882 -1.62797,8.76252 -1.1699,-0.26688 -0.5436,-4.66879 -2.13189,-1.67583 -1.4757,1.7296 -0.92854,3.7209 -1.18115,5.60505 -4.11724,-1.58244 0.73019,-6.3775 0.47736,-9.33856 -0.29663,-1.57099 -3.1014,-4.67434 -2.98956,-4.54708 1.10752,3.63821 0.40005,7.26803 -2.2953,9.97373 -1.9478,2.89821 0.3473,5.56638 1.7149,7.83875 -1.13959,2.9065 -3.76181,0.0777 -3.75571,-1.92798 -1.90718,-2.04989 -1.41485,-4.57139 -0.41054,-6.74625 -0.002,-1.50993 -1.35074,-1.94885 -0.82563,-0.16538 -2.72674,3.11589 0.32764,6.68724 0.28012,9.93472 -0.70443,3.30093 1.5866,5.44987 4.07492,6.85137 0.70007,2.95667 -4.59341,1.70215 -4.39191,-0.79727 -2.54764,-3.29288 -0.41051,1.71118 0.0342,3.04142 0.20701,3.94913 7.29114,2.54704 5.67585,6.52594 0.7338,1.61896 4.46941,3.74454 5.97427,5.97612 1.667,1.50167 4.02773,4.64729 6.0959,1.94929 2.48353,-2.17742 4.7545,-4.70332 7.80655,-6.09116 -0.25302,-1.19649 -1.72279,-2.61412 0.39673,-3.47145 2.61163,-1.29935 5.46434,-2.33629 5.84185,-5.61691 0.9551,-0.98589 1.31367,-3.12154 -0.16807,-1.1293 -0.58219,1.50159 -6.08966,2.75388 -2.70315,0.66942 1.25945,-0.28831 4.2993,-3.57142 3.20137,-3.57629 -1.38363,1.15862 -4.36056,2.48223 -5.50062,1.80852 0.65193,-2.46796 4.63293,-3.11915 3.77609,-6.2174 2.06155,-2.63212 2.44847,-7.10376 0.81631,-9.24088 -0.0725,2.87909 0.29272,6.73814 -3.66009,6.94385 -3.26299,-1.459 -0.26119,-4.62179 1.21196,-6.07933 1.10314,-1.64083 -1.61839,-5.73658 -0.97037,-1.92012 -0.80835,2.00123 -4.06512,4.40071 -5.0951,4.78259 -1.76781,-3.35651 2.35509,-5.45573 2.88968,-8.3285 -0.10495,-3.14078 -2.35019,-7.12951 0.39587,-9.61139 4.09934,2.57553 8.15679,5.21802 12.26733,7.77615 -0.0455,10.76404 -0.0909,21.52807 -0.1364,32.29211 -7.37704,4.75695 -14.76089,9.50446 -22.225,14.12412 -2.21801,-1.07694 -4.25199,-2.48152 -6.35009,-3.7662 z m 0.47231,-44.36181 c 0.23901,-2.13082 1.77102,-4.86269 0.47382,-6.7123 0.17892,1.95439 -2.50644,6.64186 -0.47386,6.71229 z m 3.87897,37.4162 c -5.33298,-3.67164 -7.89909,-10.77895 -6.06538,-17.00347 0.83961,-3.92799 3.60469,-8.44969 8.10664,-8.39361 4.43173,0.35842 6.83032,4.94184 7.7333,8.81194 1.43712,5.88512 -0.34137,12.86011 -5.34501,16.54688 -1.32039,0.79851 -3.127,0.97669 -4.42955,0.0383 z m -0.82029,-14.01897 c 0.80727,-2.53419 -6.27324,-1.34457 -2.38932,0.0149 0.77221,0.25744 1.61596,0.20468 2.38932,-0.0149 z m 8.92215,-0.50781 c 1.13242,-3.0843 -7.03834,0.85215 -1.89197,0.56394 0.65694,-0.0634 1.3252,-0.20763 1.89197,-0.56394 z m 5.15227,-3.74318 c -1.39759,-2.05493 4.87829,-5.01241 1.82575,-1.99685 -0.58839,0.47592 -0.69194,3.39529 -1.82575,1.99685 z"
         id="path21" /></g></g></svg>
