<?xml version="1.0" encoding="UTF-8" standalone="no"?>
<!-- Created with Inkscape (http://www.inkscape.org/) -->

<svg
   width="57.853146mm"
   height="85.837296mm"
   viewBox="0 0 57.853145 85.837294"
   version="1.1"
   id="svg1"
   xml:space="preserve"
   xmlns="http://www.w3.org/2000/svg"
   xmlns:svg="http://www.w3.org/2000/svg"><defs
     id="defs1" /><g
     id="layer1"
     transform="translate(-86.575505,-37.371633)"><g
       id="g35"
       transform="translate(-382.67818,-107.88297)"><path
         style="fill:#756589"
         d="m 497.60846,222.11668 c -3.06454,-4.90641 -5.90574,-9.95097 -9.07881,-14.78975 2.71484,3.39575 5.04616,7.29916 7.09647,11.00658 0.70766,2.23204 3.12845,5.75254 4.39201,1.88594 0.90962,-1.22039 -2.07051,4.71575 -2.40967,1.89723 z m 24.5051,-9.04872 c 0.5723,-2.5731 -1.04396,-5.92427 -3.16145,-5.10808 -3.39741,-0.4679 -8.22096,-5.85886 -10.20874,-1.23587 -0.78513,1.7571 -3.4287,4.44441 -1.29148,1.22896 1.66023,-0.78392 3.04923,-6.40757 0.63653,-3.34441 -0.56331,1.42134 -3.79905,6.12823 -1.59471,2.16682 1.52998,-1.36491 2.27946,-4.49756 -0.89236,-3.43486 -1.5869,0.0143 -4.04075,-0.0569 -1.02516,-0.18455 1.87636,0.0703 3.43454,-0.26926 0.8288,-1.08123 -3.79375,-1.74545 -5.19235,2.48903 -6.33293,5.16115 -1.56129,2.80352 -3.22464,-4.91936 -1.17633,-0.44631 2.60043,-1.14729 4.26305,-6.82703 6.33449,-9.79391 2.1035,-4.60471 7.53257,-5.64485 11.86978,-7.11156 1.81389,-0.24904 3.93761,-2.13532 0.83764,-2.24465 -6.60404,-1.95485 -12.92436,-5.7498 -19.98224,-5.5702 -6.0998,0.56056 -11.36554,4.07735 -17.24502,5.47964 -5.03239,1.93331 1.19162,6.48411 2.24967,9.32028 0.65359,2.60531 2.273,1.5317 1.238,-0.53753 -0.6308,-2.37184 -4.43601,-5.11829 -3.78944,-7.00485 4.60234,1.98043 9.47747,3.29207 14.01804,5.42883 1.44594,-0.6287 1.08818,2.22961 0.20142,0.24919 0.25414,1.34191 -1.9745,-1.89373 -0.84157,0.28447 1.13383,1.429 1.43036,2.91077 0.10557,0.6437 -0.43569,-1.88973 -2.77965,-2.26023 -1.11112,-0.11746 1.23254,1.94055 3.854,7.10796 2.01964,5.74811 1.50702,-0.15083 -1.61063,-4.80708 -1.12265,-1.34655 -0.75554,2.21518 -2.03752,2.08771 -0.46323,0.0351 0.70895,-3.81579 -1.87988,-7.55532 -5.79248,-7.9615 -1.91778,-0.50379 -5.72663,-2.63055 -6.54972,-1.89464 1.13529,1.9401 3.03006,5.80887 4.26075,6.18593 0.46377,-2.56586 6.28353,-2.44076 5.03929,-1.95409 -4.74048,-0.98132 -5.56777,5.08237 -7.2737,8.15976 -1.48385,1.68171 -1.54783,5.0279 1.37326,2.74899 1.66344,-0.57062 5.37806,-3.05604 6.02693,-2.16393 -0.10079,2.54336 2.2723,6.10588 4.42815,7.55783 3.30305,-0.22096 -2.56384,-0.10349 0.29045,1.83048 2.16917,3.95243 -1.91613,-1.99167 -2.51419,-3.41175 -1.6307,-1.55868 -2.27648,-5.42692 -4.47789,-4.94592 0.94854,1.45963 1.04417,2.85857 -0.0175,0.61758 -2.97844,-2.48997 0.31805,4.46979 -1.80189,0.89445 -1.99629,-1.5409 -7.01462,2.82329 -6.67784,1.83205 1.84323,-0.66552 2.50297,-4.28412 -0.1144,-2.07838 -1.18108,0.27188 -1.97263,4.73229 -1.60207,1.83149 -1.23746,1.31448 -3.42961,5.10576 -2.47547,0.97854 0.27562,-14.26213 0.0859,-28.52726 0.13803,-42.79077 -0.65092,-1.91582 -2.50064,-4.7903 -1.87216,-0.93866 -0.12954,12.43227 -0.1249,24.86631 -0.39441,37.29682 -0.11628,-13.83874 -0.22383,-27.68065 0.099,-41.51754 0.62334,1.68726 2.49391,5.10439 2.0178,1.17737 0.49691,-4.86099 0.2572,2.09057 0.59055,3.57171 0.85852,3.18608 2.40844,1.12101 1.91922,-1.12981 0.0974,-1.61988 0.12396,-6.56496 0.20177,-5.99983 0.87837,3.45765 -1.78395,9.05946 1.83512,10.8413 2.63159,1.96862 6.31278,3.78413 7.60963,-0.57943 1.83146,-3.40387 4.21478,-6.49411 6.02868,-9.87871 -2.91298,-2.11754 -8.69139,-0.23022 -12.61241,-0.94573 -2.09599,-0.04 -2.98379,-0.16013 -0.46985,-0.18667 4.59807,-0.12977 9.1979,-0.0114 13.79677,-0.0309 1.45458,-3.19002 -5.21822,-0.92057 -7.16845,-1.63639 -1.61367,0.15866 -7.5116,-0.0816 -3.36909,-0.59011 1.67979,-0.24018 4.97692,-1.36642 1.34414,-1.29455 1.50394,-1.25054 6.79326,0.10779 9.63057,-0.23089 2.34215,1.0653 3.40175,-2.22784 0.48364,-1.64495 -2.1718,0.0644 -5.53584,0.53022 -7.05674,-0.30414 3.24274,-0.24663 6.50648,-0.0543 9.7575,-0.079 0.78551,-3.27773 2.71277,-0.93688 3.96813,2e-5 2.30638,0.0744 7.63634,-0.40763 7.96058,0.36525 -2.51658,0.52445 -6.80487,-0.57151 -8.20948,0.59278 2.55228,2.25514 6.96044,0.6491 10.2935,0.89635 2.49372,-0.36287 1.02396,0.8183 -0.58189,0.65743 3.32625,1.51184 -0.35795,-0.006 -1.40433,0.32807 2.03642,1.60702 -3.76566,-1.58658 -1.45406,0.51262 -2.45212,-1.59717 -1.977,0.72067 0.31278,0.31961 2.15418,0.28434 6.50284,-0.99206 7.30242,0.43086 -3.39383,0.027 -6.77155,0.20808 -10.1691,-0.0424 -3.5552,0.60251 0.1229,2.47093 1.92007,1.69197 3.7235,0.0219 7.45746,0.12906 11.16986,-0.22854 -2.93147,0.91146 -6.41192,0.29164 -9.5469,0.6107 -2.22522,-0.41515 -5.71962,0.10675 -2.97146,2.61164 2.27981,3.65887 4.41715,7.4182 7.00869,10.87171 2.75826,-0.49803 7.50289,-1.79631 7.29472,-5.0976 0.13997,-2.26295 -0.61545,-6.68995 0.37953,-7.59807 0.38437,2.63783 -1.09357,7.62802 0.54402,8.75658 2.37551,-1.20758 0.99934,-7.33927 1.6943,-6.82649 -0.16898,1.44403 0.22912,4.90627 1.20978,1.64966 1.96392,-2.01461 0.85562,3.94646 1.17591,5.18957 -0.0455,13.35348 -0.0895,26.7082 -0.40321,40.05866 -0.29589,-15.07269 0.1228,-30.15123 -0.29394,-45.2224 -2.50955,3.51365 -1.45789,7.83038 -1.66114,11.85062 0.01,10.84774 0.07,21.69655 -0.12714,32.54313 -0.2525,-5.66652 -0.1123,-11.33967 -0.15291,-17.00937 -2.02656,3.20942 1.55328,-3.05621 -1.25429,-3.74734 -2.1397,-2.86634 -4.25998,-8.12759 -6.40508,-9.50776 -1.06375,3.71249 3.70122,6.34345 4.79363,9.73294 2.68692,3.90894 -2.44127,7.12744 -3.84168,10.52714 -1.51045,0.84974 -1.63625,5.89665 0.21685,2.73042 0.98785,-1.25692 3.12897,-5.58373 3.38724,-4.84281 -1.27632,2.80749 -4.67956,5.11386 -3.80786,8.55252 -1.76597,-2.32279 -2.35081,-4.7097 0.062,-6.70432 1.05692,-2.04436 4.88917,-6.17682 3.78867,-7.24893 -2.82661,1.07741 -4.21594,6.67813 -5.61948,7.20605 0.71709,-1.63487 5.70654,-7.35503 1.11327,-5.40557 -2.76949,0.93773 -5.65377,1.72664 -8.10409,3.38149 2.13362,-0.0313 5.50553,0.0362 5.98721,2.66199 -2.38924,-4.78578 -8.15393,-1.35113 -9.36868,2.37402 -2.01146,2.35223 2.35027,3.35742 1.23914,0.55974 -0.44456,-2.43053 1.01605,2.9257 2.59566,2.6554 3.14569,1.30581 6.57158,3.45667 9.77562,3.78963 -0.58995,-1.20625 -2.15767,-3.57176 0.13874,-1.60989 1.55505,1.85353 3.92974,1.75534 2.92749,-1.02889 0.15971,-3.07421 -0.52106,-10.23878 0.61667,-11.04087 -0.80842,4.1461 -0.13767,8.37965 -0.34792,12.58278 -0.82375,2.25586 1.99376,3.56077 2.41321,3.89321 0.34235,1.8699 0.0395,5.95538 -0.20857,6.48663 -0.0779,-0.80759 -0.0864,-1.62066 -0.0886,-2.43021 z m -46.76777,-3.9487 c 1.01095,-3.79693 6.40498,-4.1091 7.29574,-8.12613 0.22476,-4.44562 -3.78346,-7.67895 -5.71802,-11.38814 -1.31819,-4.21603 5.37831,-8.03637 5.47857,-12.54617 -2.59895,-0.15219 -3.46746,5.28399 -5.6476,7.11275 -1.67328,2.21982 -2.67095,5.73497 -0.25097,7.84284 -0.76995,-1.77332 -2.25159,-2.77124 -1.70171,-0.10913 -0.0254,5.79047 -0.10447,11.5839 0.12709,17.37154 0.11334,-0.17827 0.21278,-0.2285 0.4169,-0.15756 z m 2.73342,-21.381 c 2.22473,-2.3443 4.94264,-6.25179 4.97485,-8.90264 -2.78142,2.17968 -3.90524,6.01001 -5.99788,8.85414 -0.28789,0.69987 1.06292,0.13047 1.02303,0.0485 z m 41.91768,0.12922 c -1.98532,-2.8142 -4.3455,-7.91229 -6.36725,-9.13184 0.26372,3.68592 3.39567,6.9186 5.88913,9.42047 l 0.27214,-0.0309 z m -35.62801,-2.18824 c 3.4025,-1.32613 9.19353,-3.59482 7.94558,-8.17062 -2.34569,-3.84273 -7.57882,-4.61475 -11.28683,-6.47269 0.18021,3.35231 2.71505,7.73303 4.85556,10.82041 3.79723,4.19324 8.47559,-5.55208 2.55706,-6.02421 -1.92597,-0.94164 -6.8865,-3.83597 -4.21079,0.29613 0.0875,2.39578 2.69304,5.68204 3.70819,5.99594 -3.70923,-0.88338 -3.17674,-5.10541 -5.00295,-7.72162 -1.52344,-3.64297 3.22556,0.54384 5.003,0.63428 5.32731,0.74663 4.57578,8.46714 -0.83191,7.88182 -2.18424,-0.58855 -3.66229,-3.93323 -5.23071,-0.34032 -0.8833,1.73937 -3.7275,5.96043 0.19066,3.9572 0.76542,-0.29108 1.51174,-0.63767 2.30314,-0.85632 z m 2.316,-4.97577 c -1.09798,-1.75259 -2.57486,-5.4031 -2.39959,-6.33402 2.0667,1.61653 6.64911,1.50205 6.38108,4.93388 -0.29571,1.79247 -2.65489,2.97861 -3.98149,1.40014 z m 3.08337,-0.41337 c 3.34419,-4.00451 -6.32993,-4.56156 -3.24265,-0.0648 0.73709,1.07468 2.43377,1.02216 3.24265,0.0648 z m 27.58281,6.7946 c -1.33541,-2.11022 -3.0587,-6.1692 -4.50819,-6.84411 -0.55358,2.48549 -5.64885,3.21837 -5.51145,2.56902 4.52085,0.48888 6.0135,-4.6045 7.24819,-7.91169 1.08443,-1.13398 2.61087,-5.35179 -0.43366,-3.33663 -3.46207,1.83264 -10.67793,2.9281 -9.34658,8.21209 1.16602,4.15942 5.72512,5.11297 9.15875,6.66966 1.08364,0.39542 2.22942,0.70033 3.39294,0.64166 z m -10.79056,-5.27281 c -4.04041,-3.13108 1.32637,-7.12893 4.59142,-7.70856 1.28571,-1.07063 4.66252,-2.06481 2.41852,0.65811 -1.31238,2.85622 -2.44776,9.31803 -7.00994,7.05045 z m 2.60812,-0.1173 c 2.85387,-1.0662 4.10337,-7.27501 3.86945,-8.00049 -1.5548,0.46375 -6.68207,3.24246 -2.64629,1.61697 4.0406,-2.36755 0.74351,5.52762 -1.48328,5.93979 -3.65338,1.28367 -2.50432,-4.67099 -2.26914,-4.63405 -2.63927,1.70177 -0.56264,6.50113 2.52926,5.07778 z m 0.12283,-0.91218 c 4.56476,-2.20447 -3.69095,-6.82413 -2.93938,-1.55612 0.23482,1.22777 1.74808,2.4988 2.93938,1.55612 z m 12.82211,-4.15786 c 0,-3.45426 0,-6.90851 0,-10.36277 -2.09084,1.35951 -2.31262,3.56711 -2.11667,5.81459 0,3.83922 0,7.67845 0,11.51768 0.58839,1.59144 2.6034,4.57131 2.07543,1.08059 0.0339,-2.68321 0.0398,-5.36671 0.0412,-8.05009 z m -46.33804,8.70583 c 1.73414,-4.10634 0.41638,-8.94265 0.87826,-13.34977 0.56669,-1.47559 -0.42432,-6.09003 -1.94178,-4.72515 0.1651,6.48042 -0.0928,12.98118 0.15408,19.46728 0.36876,-0.41859 0.62217,-0.91882 0.90944,-1.39236 z m 30.19846,-2.59139 c -2.76005,-4.28615 -4.801,-8.98836 -7.57991,-13.26323 -2.60613,4.41932 -4.88366,9.0223 -7.47235,13.4515 2.95633,-2.30375 3.88186,-6.47406 6.11741,-9.5037 2.79896,-3.21272 3.93787,3.61024 5.74608,5.20609 0.33055,0.30614 1.37104,5.55673 3.18877,4.10934 z m -25.53685,-4.94821 c 2.6825,-2.39625 0.0491,-5.42351 -1.32634,-7.77354 -1.29694,-1.49573 -1.91997,-0.82 -1.4984,-0.2023 -1.02141,-0.0216 -0.22718,2.50289 -0.47801,3.56188 0,3.25021 0,6.50043 0,9.75064 1.11023,-1.7731 2.21048,-3.55252 3.30275,-5.33668 z m 39.29518,-1.4142 c 0,-2.214 0,-4.42799 0,-6.64199 -2.16478,1.71689 -6.33837,4.45964 -3.66945,7.50848 0.90714,1.60166 4.04782,7.9492 3.65129,2.95748 0.0146,-1.2746 0.0157,-2.54937 0.0182,-3.82397 z m -16.04839,5.3162 c -0.83976,-1.85792 -2.78693,-3.75053 -3.23104,-5.43419 0.81686,1.54966 3.47232,4.53048 1.21674,1.30379 -1.02358,-1.97493 -1.87656,-3.48007 -3.69149,-2.55278 2.22947,0.15582 -0.0837,-4.33769 0.41717,-1.36831 -3.18475,2.19093 2.83617,4.76592 2.07221,7.33587 -0.76785,-3.46025 -1.29091,2.2851 0.70039,0.37304 -0.60113,-1.72679 1.84494,2.03909 0.54,-0.57674 -1.87488,-4.16122 2.69095,4.78081 1.97602,0.91932 z m -10.24864,0.4475 c 0.93674,-0.8717 2.14701,-2.61147 0.99052,-0.39263 2.14175,1.62497 3.79036,-6.75795 2.83254,-2.5687 -0.56667,3.70263 3.70005,1.60071 1.85727,-0.78911 -2.06106,-4.06563 -4.6278,5.73611 -3.02464,1.04793 1.61359,-1.64039 0.87247,-6.48297 -0.92337,-2.29583 -0.30799,1.00093 -3.60441,4.69222 -1.73232,4.99834 z m 1.68147,-7.57098 c -0.9044,-1.69469 -5.00137,-0.62815 -5.8405,-0.52266 1.67708,0.69585 4.24677,1.85856 5.8405,0.52266 z m 11.46308,-0.0835 c 2.67259,-0.91462 -5.95694,-1.49102 -4.48989,0.22265 1.36745,0.76866 3.13358,0.38247 4.48989,-0.22265 z m -9.49012,-3.43958 c 2.49639,-5.53344 2.75605,4.86968 6.84676,2.40855 2.2082,0.5162 6.32935,0.0979 3.10654,-2.60491 -1.06849,-2.23571 -2.9713,-5.46141 -5.6307,-3.79594 -3.3144,0.0262 -7.40475,-1.39207 -9.87725,0.96734 -1.26245,2.00827 -5.03862,6.48673 -0.11691,5.56302 2.54989,-0.30765 4.84052,0.60801 5.67156,-2.53806 z m -10.1244,1.5875 c 0.77588,-4.18137 4.21651,-7.14132 6.01805,-10.87427 1.92516,-2.59371 3.63152,-7.15126 5.54025,-8.62353 2.95605,4.07241 5.1105,8.66048 7.99978,12.77834 1.23352,1.86053 3.13455,6.13207 4.73518,5.94774 -0.21385,-3.80222 -3.62847,-6.41291 -5.21797,-9.7019 -2.54601,-4.00994 -4.70554,-8.27396 -7.60026,-12.05579 -4.56767,6.71908 -8.5267,13.84437 -13.0287,20.57678 -1.13035,2.62123 1.8321,0.46232 1.43382,2.19258 0.0864,-0.0346 0.0729,-0.16679 0.11985,-0.23995 z m 19.80242,-4.43744 c 0.14355,-0.80662 -2.25059,-2.32148 -0.33625,-1.34704 -1.49186,-0.21998 -2.10189,-5.32453 -2.53169,-3.87866 0.76891,3.812 -1.04113,-2.60962 -1.93084,-3.36998 -1.58753,-1.70413 -3.14115,-8.90353 -4.94619,-3.73388 -1.38827,3.33947 -3.67389,6.27117 -5.28777,9.22856 -1.83808,1.23192 -0.50357,1.62243 0.12336,0.20325 0.78077,1.40091 3.64842,-4.89025 2.02447,-3.1815 1.88521,-1.5739 3.18003,-5.72112 4.86108,-6.05635 2.56412,2.25411 3.03006,5.87191 4.98592,8.16259 0.79471,0.85774 1.48982,4.86497 3.03791,3.97301 z m -11.24811,-2.89949 c 1.9308,-0.89604 -0.59978,-4.7054 -0.90269,-1.74992 3.28144,-0.68906 -3.12426,1.41171 0.58845,1.27932 -1.50958,0.1632 -3.73777,2.08696 -0.85041,1.38633 0.45271,-0.20501 0.88092,-0.49913 1.16465,-0.91573 z m 5.48195,0.27442 c -1.01792,-3.56671 -8.75097,1.22401 -2.94285,0.68858 0.57922,-0.34032 4.43568,0.72249 2.94285,-0.68858 z m 1.42406,-2.06562 c -1.25119,-1.93004 -4.06915,-8.0877 -5.85755,-3.269 -2.1115,1.82475 0.9176,3.91752 1.77788,1.29051 0.91962,1.31728 1.53154,2.25764 2.60708,1.47168 -2.08366,1.85852 4.41038,2.79528 1.47259,0.50681 z m 24.57752,24.54011 c 0.0126,-5.23611 -0.0216,-10.47247 0.0436,-15.70835 0.0801,10.47203 0.0801,20.94466 0,31.41669 -0.0652,-5.23587 -0.0311,-10.47224 -0.0436,-15.70834 z m -57.68555,3.175 c -0.0213,-1.77335 0.03,-9.05132 0.0913,-3.814 0.0346,3.46882 0.0318,6.93833 -0.044,10.40662 -0.0714,-2.19686 -0.0345,-4.39511 -0.0473,-6.59262 z m 26.46992,2.52433 c -3.04836,-0.58746 2.8204,-0.12265 -0.28385,-0.9164 -2.0742,-1.33748 -6.30736,-2.86815 -6.61459,-4.73419 0.97887,-1.32584 -0.41265,1.42446 1.49692,1.28081 -0.73604,-3.21354 5.33932,-5.19834 8.34397,-5.30958 2.74672,7e-5 9.692,2.23899 6.78044,5.78521 2.26681,-2.67602 -1.35203,-4.26725 -3.48006,-4.6777 2.68828,1.06303 5.24528,4.29409 2.09056,5.24013 -0.71256,0.64326 -6.3717,3.76602 -2.33081,2.98762 -1.86178,0.93256 -4.02495,0.62779 -6.00258,0.3441 z m 4.21267,-1.74865 c 5.19117,-2.28514 -0.56368,-9.88514 -4.4092,-5.91098 -3.26969,1.7133 3.59645,8.70629 -0.58923,5.30278 -1.13961,-2.1309 1.07383,-6.8224 -2.41699,-3.92539 -4.86331,2.7748 5.40898,-4.06209 0.36098,-1.3059 -5.16832,1.36561 -0.3355,6.07581 2.84318,6.31164 1.39582,0.38228 2.95267,0.2824 4.21126,-0.47215 z m 3.25502,-1.52168 c 4.81976,-1.24976 -1.34742,-5.89042 -2.10514,-4.79746 3.62892,0.9665 -2.10487,8.83331 2.10514,4.79746 z m -18.84477,-0.67928 c -1.5936,0.19124 -3.29247,-2.24627 -1.92765,-1.61295 0.0381,2.12582 4.24626,0.66587 3.12114,-0.4642 2.90781,-0.28881 4.87614,-3.50193 8.05849,-3.69256 3.8444,-1.2245 8.03413,-0.97515 11.70954,0.68455 1.9588,0.84147 6.42064,1.8871 6.681,3.00203 -1.49625,0.58525 -3.22614,-2.48189 -5.52427,-2.20709 1.42723,0.79652 5.90139,3.21924 2.612,4.42924 2.4561,-3.50188 -4.59778,-4.3557 -6.78094,-5.83031 -3.94157,-1.18385 -8.08499,-0.0862 -11.84144,1.23257 -1.40798,1.34104 -6.98418,3.04735 -3.7029,5.23839 -0.8585,-0.0451 -1.60146,-0.53157 -2.40497,-0.77967 z"
         id="path37" /><path
         style="fill:#2f1c46"
         d="m 497.47598,219.48054 c -0.10265,-2.40695 -5.53458,-3.20419 -2.87586,-4.47391 -1.25389,-1.82199 2.72496,0.70591 1.60537,-1.83658 -1.98576,-0.73749 -0.74849,0.20817 -0.56557,-1.22952 -1.49977,-0.76034 -0.64491,-3.71711 -0.0621,-0.71529 0.30608,2.7414 3.02225,0.44091 3.3411,1.03584 1.27002,1.40353 3.55715,2.50643 4.2692,3.20021 -0.59864,2.05769 -2.76668,-0.49537 -1.19158,1.74949 -2.30092,0.78662 -1.06531,-1.43487 -0.60389,-2.50256 -1.52188,-2.92215 -5.79663,-1.13901 -6.06373,1.36695 -0.26486,-2.26 3.41761,4.35412 2.1471,3.40537 z m -20.55325,-1.06072 c -1.05806,-2.88689 0.94692,-8.50407 -1.70932,-9.40708 1.6347,-2.96868 2.15479,3.5487 1.98843,5.18752 -0.2393,0.85786 0.76872,4.6871 -0.27911,4.21956 z m -4.86571,-4.37837 c 0.24872,-12.5887 0.33629,-25.17975 0.49298,-37.76975 0.1045,12.1849 -0.13971,24.3753 0.32089,36.55524 -0.24369,0.84966 -0.9007,4.00764 -0.81387,1.21451 z m 52.39267,-2.7786 c -0.0859,-6.54915 0.0925,-13.09747 0.19582,-19.64532 9.9e-4,7.73716 0.17652,15.47569 -0.0226,23.21182 -0.17587,-1.18092 -0.10846,-2.37822 -0.17322,-3.5665 z m -47.18048,-4.70044 c -1.50539,-3.53405 -0.27291,-7.57239 -0.56937,-11.30536 0.48004,-1.39349 0.33357,3.83491 0.39183,4.86348 -0.29006,1.7452 0.61793,5.93804 0.17754,6.44188 z m 22.45838,-4.0763 c 0.0575,-1.11963 -2.28519,-3.61235 0.37028,-2.93617 -1.5437,-1.65121 0.74521,-0.47711 0.94203,-1.53373 2.20298,0.24958 -0.48392,-1.19038 -0.98858,-1.08401 1.2543,-0.0574 -0.36628,-2.54128 -2.17449,-1.67769 1.56723,0.35388 5.09976,0.17297 4.45883,0.77011 -0.68317,1.58011 -2.07212,-1.1839 -0.71104,0.95383 1.26621,-0.91189 2.96415,-3.74922 1.79492,-1.10747 1.05099,0.91773 -1.98912,0.88119 0.46924,1.46849 -0.85661,0.30182 -2.66629,2.11575 -2.57058,1.54631 -1.64336,0.69414 1.46155,1.49698 -1.11074,1.17024 -2.23478,-0.75401 0.42672,0.65354 0.0894,0.95533 2.06254,-0.7514 -1.19703,1.36519 -0.56923,1.47476 z m 11.6366,-0.6035 c -2.45361,-0.45121 -2.46055,-0.90291 -0.80778,-2.52365 0.79692,-1.57289 -2.30328,-4.15702 0.2607,-3.24936 -0.23479,1.74801 1.85828,2.01342 0.53625,3.15023 -0.36992,0.90835 -2.4728,1.89702 -0.24914,2.06905 0.90407,-2.06206 1.01852,0.071 0.25997,0.55373 z m -17.54713,-3.55597 c -0.5718,-3.52244 6.42312,-2.65563 3.45503,-0.17192 0.005,-0.90035 -0.40874,-0.3118 -0.12252,-1.5245 -1.33026,0.81823 -1.90234,1.75433 -0.4787,1.69128 -0.41677,1.24476 -3.53055,-0.8646 -2.15464,0.72062 -0.30085,-0.15962 -0.46167,-0.48387 -0.69917,-0.71548 z m -19.60878,-8.62734 c -0.0749,-6.41769 0.16974,-12.83872 -0.10213,-19.25384 -0.43631,1.90472 0.15725,4.64807 -0.66146,6.07751 -0.33552,-4.07351 -1.15042,-8.19485 -0.78783,-12.27402 2.54826,-1.12729 1.68541,4.92707 1.83545,6.77817 0.005,6.54783 -0.0111,13.10275 -0.17165,19.64534 -0.0341,-0.17612 -0.26202,-1.0007 -0.11238,-0.97316 z m 31.37181,0.0336 c 0.82502,-2.339 -0.59669,-0.18285 -1.55371,-2.14165 -1.7443,-1.87006 1.36397,-2.35859 0.9127,-0.60397 3.20907,-2.10472 2.51938,5.49311 1.59126,1.02775 -0.71491,-1.03834 0.36037,3.79143 -0.95025,1.71787 z m -10.21922,-0.29815 c -0.70441,-1.71373 -0.0814,-2.10833 0.26508,-0.19844 -0.91173,-0.91539 1.11488,-5.45832 0.66374,-2.43408 1.16304,-1.47077 8.25603,-0.72784 3.64141,-2.6223 -1.57104,-0.16079 -3.21243,-0.7559 -0.61146,-0.52548 2.54326,0.35666 6.03042,-0.95475 7.76543,0.69254 -1.47735,1.12382 -5.02348,-1.37211 -5.50442,0.23835 1.81323,0.95854 1.75832,0.49087 1.07733,1.35961 1.62481,2.85087 -2.88052,-2.01061 -1.06629,1.27435 0.14688,2.43079 -0.37668,2.26564 -0.74346,0.67549 0.26268,-2.90566 -6.18513,-1.5287 -4.96583,1.72829 0.91617,0.99889 -0.69065,0.34882 -0.52153,-0.18833 z m 27.18264,-1.42213 c -0.27504,-7.43839 -0.13772,-14.88285 -0.17752,-22.32422 0.46786,-2.08798 2.43279,-3.74887 1.82069,-0.52117 0.1332,5.06933 0.0143,10.1605 -0.17614,15.20951 0.18337,1.37988 0.41978,7.04726 -0.39264,2.90945 -0.53675,-1.67902 -0.81432,-7.48581 -0.86869,-6.5566 -0.15379,3.24663 0.26977,10.45702 -0.16679,11.46235 l -0.0388,-0.17932 z m -0.96794,-1.38686 c 0.4215,-4.52323 0.21426,-9.07057 0.0909,-13.60254 -0.0423,3.40587 -0.88259,6.73089 -1.17063,10.08842 1.19043,1.29601 0.13958,2.73972 -0.43,0.75821 0.38902,-3.8583 -0.15879,-7.67715 -0.0484,-11.55266 -0.46293,-1.95579 0.19439,-5.66585 2.09607,-5.43282 -0.0883,6.63735 0.2184,13.28906 -0.22993,19.91575 -0.0832,0.17475 -0.69964,0.10225 -0.30798,-0.17436 z m -46.76249,-10.42018 c 0.56482,-2.56735 -1.26808,-8.51743 0.98632,-8.90837 1.69131,3.1079 0.53791,6.73428 0.46491,10.05459 -1.08834,3.62793 -0.96742,-7.4007 -1.16795,-2.11326 -0.096,2.92413 -0.16809,9.36986 -0.22704,10.20168 -0.0188,-3.07821 -0.0375,-6.15647 -0.0562,-9.23464 z m 41.85126,8.88881 c -1.02102,-1.07242 -1.9278,-2.9753 -2.04826,-2.76501 -0.4083,-1.84894 -1.26063,-5.05143 0.0747,-4.98666 -1.91089,2.85366 2.67608,4.74835 2.85536,7.03343 1.10176,0.62753 -0.55857,1.44158 -0.88177,0.71824 z m -11.66746,-2.27564 c -1.26714,-1.62914 -3.88107,-5.95131 -2.909,-6.7502 0.80642,2.5106 2.07792,4.70326 4.00371,6.7356 -0.30169,0.26974 -0.76973,0.005 -1.09471,0.0146 z m 14.45886,0.001 c -0.11793,-1.48224 0.13076,-6.93554 -0.21965,-6.25731 -1.17497,1.43986 -2.13318,2.5797 -2.3506,0.25177 -4.74046,-0.398 0.81371,-4.47368 0.87695,-6.66666 1.34059,-2.13997 1.75367,-0.80197 0.39053,0.6667 3.05955,-0.39703 0.96104,5.50477 1.56915,7.82912 -0.17172,0.87024 0.20335,4.64409 -0.26638,4.17638 z m 5.46841,-10.40594 c 0.35257,-3.36957 -1.03672,-8.04854 0.63931,-10.59006 2.87568,1.81444 0.56191,6.50722 1.31664,9.50178 0.0221,3.74285 0.0306,7.49089 -0.24619,11.22589 -3.13534,-0.19436 -0.79345,-5.7222 -1.66987,-8.08727 -0.0147,-0.68341 -0.028,-1.36692 -0.0399,-2.05034 z m -30.2379,8.93563 c 1.69988,-0.14187 -3.33425,-1.74722 -0.62422,-2.34462 -1.43047,-2.75304 4.05494,1.46905 1.97031,0.68365 -0.008,-1.17755 -1.02471,1.22923 -1.03862,-0.43912 -2.96773,0.13827 2.59552,3.61282 0.28972,0.86665 1.69898,0.54789 0.91691,2.74462 -0.59719,1.23344 z m 4.82434,-0.07 c -1.68966,-0.96063 -2.63668,-2.71956 -1.47208,-4.0126 0.60148,2.88508 4.68357,-1.26585 4.02845,2.00741 -1.62764,-0.68303 2.92788,3.0007 -0.64108,0.5626 -1.72034,1.83308 0.47973,-3.67165 -1.58366,-0.68135 -0.65471,2.44361 3.43394,1.83516 0.32157,2.49676 z m 10.39906,0.0189 c 1.04052,-2.95961 -3.51557,1.54823 -3.55522,-2.20236 0.0402,-4.08782 5.79948,-1.85151 3.94062,1.45815 1.51458,-1.56052 0.73358,0.15752 -0.11903,0.6223 z m -21.81169,-0.34133 c -3.70165,0.37105 -0.51329,-6.88201 -0.78454,-2.37644 0.90263,0.17706 2.51748,-0.21039 1.41269,-1.76496 1.00621,0.31603 3.49696,1.37414 1.66085,1.86385 0.0729,0.68427 -2.08723,2.6319 -0.47909,1.5127 -0.44368,0.16884 -1.43863,1.08714 -1.80991,0.76485 z M 469.2821,176.2717 c -0.1597,-4.5631 0.4228,-9.12911 0.0471,-13.68814 3.87413,-3.53549 2.55576,3.19132 2.75743,5.41721 -0.0488,3.47555 -0.30516,6.95316 -0.87942,10.38317 -0.60583,-1.36956 -1.98127,-5.56276 -1.64183,-5.34894 -0.12642,2.04538 -0.19272,6.98869 -0.25844,7.17238 -0.009,-1.31188 -0.0164,-2.62388 -0.0248,-3.93568 z m 35.67885,1.94629 c 0.12941,-4.39793 6.38022,-4.42506 9.3232,-6.60756 2.98901,-0.59115 -4.98896,3.862 -2.99495,1.66813 -1.9509,1.90737 -6.99865,3.23965 -6.41717,6.04512 l 0.007,-0.36891 z m -27.39591,1.17428 c 0.0942,-3.03422 -0.94083,-9.30868 0.49158,-10.2749 1.68984,1.61831 4.00234,5.08313 3.04485,6.74197 -0.14898,-1.94362 -1.30215,0.33426 -0.34663,1.05854 -2.67082,-1.03276 2.16031,2.2491 -1.2574,1.29314 -0.69373,0.8006 -1.59935,1.33695 -1.9324,1.18125 z m 5.74783,-1.86647 c -0.69941,-1.93029 -2.7107,-6.0569 -2.22443,-6.54091 0.14812,1.01663 3.62451,1.14841 1.09552,1.59819 0.5044,1.59563 1.49834,3.20756 1.12891,4.94272 z m 15.15364,-0.61383 c -2.58217,-2.27178 1.05301,-4.98635 1.80421,-1.2877 1.92844,2.1435 -0.6229,1.36733 -0.81986,-0.24767 -2.4156,0.0897 1.09548,3.05734 -0.98435,1.53537 z m 1.45332,-2.99567 c 0.0743,-2.19353 -2.78958,-1.81601 -2.89485,-1.32921 0.39634,-3.69359 2.37866,-2.67861 3.21826,0.11482 0.89335,1.17053 1.89682,4.96441 -0.32341,1.21439 z m -11.58216,-0.48887 c 2.14381,-2.11009 2.82748,-8.11255 6.86808,-6.33052 3.03504,-0.83587 6.55056,0.14996 9.41142,-0.19702 0.39431,2.22023 4.05598,4.89732 3.22987,6.42749 -3.63227,0.72608 -7.53851,0.45806 -8.68589,-3.58636 -1.59006,-1.30535 -2.00827,1.8235 -3.10003,2.53372 1.14322,2.15767 -6.13249,0.99008 -7.72345,1.15269 z m -3.40895,-1.27437 c 0.68013,-0.91991 0.99935,-1.22615 1.64477,-2.60625 0.37653,-0.57895 2.78565,-5.43953 4.42,-7.54349 2.34143,-3.60377 4.57394,-7.22858 6.67482,-10.99043 2.46613,-1.7564 3.34722,4.14207 4.97124,5.67281 2.30615,3.88032 4.79952,7.65884 7.13399,11.5152 0.44148,1.41788 3.60375,5.08248 0.28682,3.39294 -1.8156,-3.59473 -4.45658,-6.74546 -6.42346,-10.28612 -2.22721,-2.08942 -2.58276,-7.7142 -5.86498,-7.71541 -2.18469,3.70161 -4.26764,7.50254 -6.71512,11.03014 -1.92881,3.24113 -3.47545,4.5644 -4.62207,7.71462 -0.51007,0.19891 -1.03642,0.005 -1.50601,-0.18401 z m -1.32917,-0.74843 c -2.89555,-1.95432 -7.98885,-2.4415 -6.45927,-7.16624 0.22503,-3.15227 -1.31769,-8.0614 3.46704,-6.61455 4.01622,0.0792 8.13342,-0.30036 12.06886,0.52362 -1.60858,2.93087 -3.60771,6.1244 -5.61883,8.99831 -1.38053,1.0762 -1.8243,4.86743 -3.4578,4.25886 z m 28.96757,-0.32034 c -2.52327,-2.32215 -3.26335,-5.77687 -5.61861,-8.21399 -1.23413,-1.96204 -4.50786,-5.90684 0.0651,-5.20787 3.96097,0.31667 8.30045,-0.84715 12.01115,0.51679 1.22737,3.01901 1.49279,7.97821 -0.66761,10.71496 -1.29704,-0.24539 -3.06837,2.29047 -2.76361,1.01006 -1.08199,0.13495 -1.95026,1.73411 -3.02646,1.18005 z m -36.46015,-3.77118 c -1.34023,-2.41677 -2.75152,-7.35615 0.0667,-9.04825 1.53752,0.91616 0.35795,5.66639 0.58832,8.01727 l -0.24376,0.62361 -0.41134,0.40737 z m 43.88992,-4.2725 c 0,-1.55405 0,-3.10809 0,-4.66214 3.39718,0.93942 2.09908,5.17849 1.62346,7.70805 -2.55699,4.05825 -1.35267,-1.2823 -1.62346,-3.04591 z m -24.20597,2.5089 c 0.92972,-3.44156 8.4947,0.76828 3.48753,0.70246 -0.73865,-0.44114 -4.17627,0.83334 -3.48753,-0.70246 z m -3.62912,-0.29078 c 0.51073,-3.34415 3.49934,-5.64422 4.57703,-8.86393 0.70995,-1.38708 2.14618,-4.45471 2.84019,-1.10779 0.61607,2.6203 4.2003,5.00175 3.20791,7.64762 -0.16968,-2.82089 -0.86468,0.25397 -0.97698,-2.35086 -1.01952,-1.97747 -3.60542,-7.01992 -5.17526,-2.61241 -1.64285,1.82642 -0.12535,4.09053 0.63233,0.98547 2.47908,-2.54967 3.76615,4.01662 5.58701,5.40986 -0.60967,0.86461 -2.05025,0.42048 -0.88535,-0.40774 -1.29315,-0.0382 -1.3827,0.47301 -0.90048,-1.37649 -1.81422,3.18115 -2.13136,-3.24207 -3.42202,-0.0631 -1.88306,1.60281 -2.01219,-4.33525 -3.42506,-0.83855 -1.3543,1.47313 1.63762,-1.07758 -0.0277,1.12582 -0.1291,0.22288 -2.48937,4.16106 -2.03158,2.45205 z m -14.0987,-8.17364 c 3.75105,-2.49375 8.44599,-0.56013 12.59309,-1.3544 2.00905,-0.61192 4.82602,1.16519 1.17723,1.38734 -4.24253,0.50443 -8.54738,0.20756 -12.80963,0.17888 l -0.48794,-0.0823 z m 25.14204,-0.41551 c 2.57869,-2.28079 6.78048,-0.17835 9.98898,-0.89103 2.62848,-0.54918 6.45634,2.03577 1.73073,1.53441 -3.75658,0.0854 -7.51421,0.0196 -11.27126,0.041 z m -16.54575,-3.28771 c -4.01079,-0.55142 2.79799,-1.48406 3.98736,-1.35099 1.52526,-0.36528 8.34024,-0.0275 3.7569,1.44525 -2.57586,0.28918 -5.1671,0.0252 -7.74426,-0.0943 z m 14.15251,-0.53102 c 0.30212,-1.82588 5.1257,-0.22944 7.1318,-0.82909 1.96472,-0.33749 4.99307,1.7199 1.26551,1.65234 -2.64124,-0.54071 -6.19657,0.74504 -8.27485,-0.58644 l -0.0951,-0.1839 -0.0274,-0.0529 z m -8.33167,-1.25406 c -1.48067,0.25138 -6.38794,-0.0599 -2.75286,-1.7011 2.98195,-1.21717 5.25787,-3.99986 8.44754,-4.64109 3.29324,1.07658 5.93987,3.63745 9.0599,5.17527 2.57844,1.3686 -3.19856,0.67517 -4.51294,1.06177 -2.6655,1.72894 -3.95328,-3.98385 -5.67186,-0.55849 -0.73337,1.40736 -3.20377,0.39598 -4.56978,0.66364 z"
         id="path36" /><path
         style="fill:#1a0f27"
         d="m 487.58544,224.85793 c -3.24034,-2.41764 -7.9668,-3.98642 -10.32759,-6.90645 -0.0449,-3.14997 -0.0897,-6.29994 -0.13456,-9.44991 2.76768,-0.48103 6.39887,-4.34099 8.64936,-1.55671 4.20072,6.64741 8.17979,13.46104 12.58921,19.98824 4.46818,-6.97077 8.82367,-14.0131 13.30375,-20.97629 2.63916,-0.46983 6.11553,1.31982 7.95775,3.00341 0.0463,2.96001 0.061,5.94742 0.12069,8.91923 -7.17933,4.41214 -14.29269,8.93316 -21.55294,13.21244 -3.62114,-1.92858 -7.08569,-4.13093 -10.60567,-6.23396 z m 9.86106,-0.0834 c -3.87557,-6.31381 -8.16161,-12.391 -11.5315,-19.00321 1.68198,-1.81392 3.22696,3.70581 4.55499,4.90966 2.44918,3.94733 4.83374,7.9343 7.28128,11.88263 3.89488,-1.71215 4.46394,-6.78014 7.23736,-9.72077 1.72061,-2.44844 3.71034,-7.00024 5.89158,-7.71914 -0.31681,3.6166 -3.85256,6.02029 -5.17366,9.33763 -2.45866,3.90464 -5.00019,7.7579 -7.36623,11.72025 -0.29794,-0.46902 -0.59588,-0.93803 -0.89382,-1.40705 z m -0.60065,-4.52512 c -1.39459,-1.14114 -1.67581,-5.06673 -0.002,-1.95776 0.65008,2.5225 2.29765,2.82325 3.00268,0.0725 3.66964,-4.54242 -0.74496,6.54177 -2.71013,2.47087 z m 0.0576,-2.80872 c -2.37331,-1.43542 0.29303,-5.96021 1.02592,-2.12841 1.03769,3.15583 1.21975,-4.58942 2.75181,-0.75567 0.73119,2.03816 -2.89062,7.484 -3.77773,2.88408 z m -21.25129,0.21481 c -1.49079,-2.0022 -1.24365,-6.49669 0.41052,-8.44884 0.73141,2.55619 1.0172,6.5549 0.012,8.70671 -0.14084,-0.0859 -0.28163,-0.17202 -0.42249,-0.25787 z m 44.34477,-4.59008 c -0.54862,-1.53298 0.37919,-6.4786 1.70175,-2.74822 -0.265,2.27826 1.27582,6.31776 -1.48666,7.1074 -0.71038,-1.16517 0.063,-2.98535 -0.21509,-4.35918 z m -46.7651,3.11217 c -2.08948,-1.51741 2.12068,-7.32407 1.20273,-2.47381 -0.0244,0.80732 0.56755,3.92292 -1.20273,2.47381 z m 49.14635,-2.63433 c -0.70716,-4.96902 4.06438,2.54864 0.19844,2.4956 -0.23971,-0.81093 -0.17275,-1.66266 -0.19844,-2.4956 z M 470.586,214.5526 c -2.48891,-2.14086 -0.44927,-6.61279 -1.09809,-9.67079 0.0138,-10.40319 -0.0444,-20.8082 0.21763,-31.2091 -0.16629,1.92664 2.19863,6.14579 1.88407,2.12897 0.061,-1.59382 0.44693,-2.96845 0.3522,-0.45875 0.1407,13.31073 0.25631,26.62463 -0.0329,39.93428 l -0.67599,-0.33526 z m 54.23272,-22.33594 c 0.0411,-5.62554 -0.0136,-11.25267 0.15842,-16.87653 0.1484,3.34246 -0.3741,6.6159 1.80306,9.16787 0.15392,3.96407 -0.0915,7.94218 0.0232,11.91977 -0.0181,5.69747 -0.0404,11.39493 -0.0595,17.0924 -3.82423,3.09891 -1.2324,-4.81429 -1.96323,-6.79197 0.0127,-4.83718 0.0254,-9.67438 0.0381,-14.51154 z m -1.60068,18.98777 c -1.68518,-2.85433 -0.45008,-6.30242 -0.71752,-9.42907 0.1479,-8.49293 0.13221,-16.9881 0.32592,-25.48033 -0.14223,4.24488 1.60971,8.31765 1.2093,12.59327 0.15499,7.91477 0.39736,15.83542 0.0857,23.74963 -0.60402,0.15657 -0.47967,-1.16651 -0.90342,-1.4335 z m -50.52022,-20.2484 c 0.0398,-6.50434 -0.0125,-13.00973 0.13595,-19.51302 0.22784,1.57546 0.78206,7.71076 1.02193,3.13135 -0.0497,-1.4188 0.34688,-5.51883 0.31984,-1.80935 0.13349,12.36917 0.0457,24.73938 0.14804,37.10873 -0.83472,1.87404 -2.05192,4.05251 -1.67003,0.89726 0.0147,-6.60499 0.0295,-13.20998 0.0443,-19.81497 z m 23.83038,21.36511 c -3.23761,-2.884 4.78037,-1.07141 4.35093,-0.8459 -1.05108,1.6951 -2.77524,0.009 -3.86425,1.33364 l -0.23877,-0.16686 z m -4.25288,-2.74796 c -1.82246,-2.20525 -5.24198,-7.47887 0.31571,-6.15583 3.70859,-1.27902 4.08931,2.79034 5.7641,5.00118 1.47553,-3.35077 2.83593,-6.12626 6.95418,-5.04871 4.6643,-0.70216 0.72993,3.62456 -0.31539,5.61611 -0.18118,2.68599 -3.12408,1.43703 -3.48321,1.25902 -2.59678,1.80791 -6.31176,-1.59545 -7.58679,0.57085 -0.6389,-0.12575 -1.69553,-0.38853 -1.6486,-1.24262 z m -17.33126,-6.38008 c 0.2379,-3.87767 -0.30847,-10.48564 0.35808,-12.66487 1.9298,1.90616 1.15075,4.60239 1.30352,7.00512 0,3.06448 0,6.12896 0,9.19344 -1.52671,3.11454 -2.12854,0.94436 -1.68084,-1.24942 0.005,-0.76143 0.012,-1.52289 0.0192,-2.28427 z m 46.02577,4.66266 c -2.30771,-3.09528 -0.24668,-7.78321 -0.83478,-11.48466 -0.0724,-1.94181 -0.17375,-5.33464 1.94265,-5.83475 -0.0123,6.12084 0.0843,12.27054 -0.0303,18.40231 l -0.54986,-0.53029 -0.52766,-0.55261 z m -24.24781,-3.22309 c -1.49648,-3.20056 -5.05945,-8.25793 -5.19808,-10.3376 1.31467,1.8477 3.05508,4.55107 3.89738,5.70424 -2.30843,-3.07449 0.94273,2.49597 1.55257,3.3841 1.78201,4.95056 3.67694,-2.17928 4.9899,-3.7898 1.63254,-2.25353 2.55877,-4.53405 3.75992,-5.0786 -2.60956,4.0338 -4.74707,8.34985 -7.25683,12.44514 -1.12404,-0.0877 -1.13413,-1.65159 -1.74486,-2.32748 z m -16.41258,1.82214 c 1.9735,-3.50519 3.16693,-7.4782 5.08988,-10.94077 0.88266,-1.50461 6.55307,-0.17876 2.64344,-0.51075 -3.50339,1.17445 -4.59995,6.47026 -5.18324,9.34063 2.86931,-1.22992 6.90719,-1.9923 8.64108,-4.73159 0.70403,-1.30581 -0.56115,-4.91571 0.71328,-1.90426 0.51175,5.19983 -6.27507,5.99074 -9.73193,7.96233 -0.71072,0.2966 -1.43293,0.56812 -2.17251,0.78441 z m 34.13124,-0.83066 c -3.47651,-2.06752 -10.40335,-2.66347 -10.0753,-7.86928 1.62175,-5.42936 8.2656,-3.14085 8.94284,1.61611 0.59014,2.23858 2.90369,5.15536 2.76006,6.94312 -0.57631,-0.14696 -1.06,-0.51788 -1.6276,-0.68995 z m -0.96328,-3.62176 c -0.832,-3.46491 -3.94879,-9.74276 -7.9418,-5.54671 -2.22839,4.26883 3.70276,6.04414 6.61852,7.36123 2.52507,1.33112 2.47094,0.1803 1.32328,-1.81452 z m -0.50515,1.68752 c -2.75798,-1.61858 -9.67834,-3.05095 -6.62332,-7.50347 1.45602,-2.08236 5.51825,1.07724 4.4382,1.11573 -2.7863,-5.04481 -7.71752,4.1058 -1.85123,3.87848 1.40662,0.57054 4.98149,3.152 3.01837,-0.14136 -1.87352,-5.03484 2.79246,2.74576 1.01798,2.65062 z m -5.32729,-3.47531 c -4.10409,-2.39246 3.57477,-6.33301 2.94055,-1.38058 -0.27351,1.22263 -1.81636,2.04522 -2.94055,1.38058 z m -30.50804,-0.46117 c 0.20104,-1.56533 -0.40061,-6.03892 0.30498,-5.77707 0.94708,3.06676 5.66692,5.9764 3.8776,9.13548 -1.26861,2.55421 -5.31632,3.42407 -4.17564,-0.59402 -0.009,-0.92144 10e-4,-1.84294 -0.007,-2.76439 z m 40.46017,5.28283 c -4.99033,-2.05786 -0.74625,-7.39248 1.13425,-10.20624 1.93794,-2.44273 0.57173,3.43598 0.98573,4.57109 -0.54142,1.75079 1.34681,8.79916 -2.11998,5.63515 z m -34.39102,-1.71845 c 0.30095,-1.67341 3.09613,-5.58933 1.29379,-1.73223 -0.20682,2.60467 4.40245,-1.25497 5.70593,-1.58949 2.53808,-2.74234 -3.46265,-6.25263 -4.59531,-2.60916 2.22587,-5.623 9.42788,3.02719 3.05184,3.94949 -1.70545,0.49623 -3.77471,2.55703 -5.45625,1.98139 z m -1.37732,-3.12163 c -2.41903,-3.97685 -5.00965,-7.85949 -7.11448,-12.01827 1.94011,-4.01094 4.89041,-7.55615 6.86436,-11.37645 2.60108,0.0658 -1.36148,4.16387 -1.91675,5.62597 -1.69255,3.0069 -5.32423,6.25625 -1.53401,9.29328 1.31426,2.63333 5.59726,6.25041 3.93095,8.9334 z m 32.36529,-0.0648 c 0.55488,-4.6174 4.9951,-7.45835 6.17808,-11.71872 -0.51965,-3.96454 -4.17343,-6.5459 -5.65521,-10.12153 -1.06453,-3.6006 1.61442,-0.19448 1.96621,1.33592 2.03349,2.3679 3.04643,5.49462 5.17494,7.82889 -0.38924,3.9796 -4.02676,7.28052 -5.8033,10.90318 -0.50997,0.1924 -1.64839,3.9015 -1.86072,1.77226 z m -27.48471,-0.18979 c -3.06762,-3.50569 5.37799,-5.13781 3.26259,-0.56709 -0.60634,1.12387 -2.3386,1.56874 -3.26259,0.56709 z m 11.2439,-0.92471 c -0.63072,-1.83583 0.20005,-4.95855 1.04741,-1.99213 0.44027,-1.38945 0.0993,2.55984 0.89235,-0.56749 0.41404,-1.44903 -0.33269,4.60022 -1.93976,2.55962 z m -16.44573,-2.96759 c -0.6765,-2.19781 -4.79649,-5.7434 -3.73904,-6.84139 2.87396,2.04299 4.63728,5.8252 5.61444,9.00046 -0.90244,0.52972 -1.31172,-1.61798 -1.8754,-2.15907 z m 31.73593,2.02963 c 1.04692,-2.86494 4.00214,-8.62196 5.87788,-8.37616 -1.52514,2.48933 -4.0003,7.70518 -5.87788,8.37616 z m -1.03622,-1.96909 c 0.22251,-2.98026 -8.18911,-1.1549 -3.30851,-3.12826 2.23781,-0.84259 6.38865,-2.94376 7.69094,-2.29635 -1.08806,1.22945 -2.90631,6.73741 -4.38243,5.42461 z m -29.11697,-0.61716 c -1.09954,-1.39678 -4.91577,-7.01192 -0.59619,-4.48001 2.40686,0.89382 8.41293,2.6991 7.96294,3.95434 -2.52576,-3.3273 -6.13709,2.80191 -7.36675,0.52567 z m 11.3744,-0.81959 c -5.54731,-1.84896 -11.08917,-3.75476 -16.41907,-6.1731 5.01814,-1.83406 10.0174,-3.828 15.09717,-5.4272 3.76332,-0.82904 7.85996,-1.09863 11.49224,0.42731 -3.23675,-0.0303 -8.00516,-1.07112 -11.95262,0.57581 -2.40485,0.39149 -6.11729,2.75306 -9.37482,3.28366 -3.92547,1.99358 3.01389,2.84685 4.4607,3.87252 4.88563,1.9279 10.32587,4.04158 15.56119,2.14352 3.90685,-1.21501 7.76716,-2.83978 11.42665,-4.55718 -1.41405,-2.37656 -6.06185,-2.35372 -8.61757,-4.04422 -3.28254,-1.60604 3.61415,0.30349 4.77426,0.88568 2.05906,1.75564 6.73687,1.30422 7.63647,3.01881 -5.653,2.03482 -11.1704,4.531 -16.94347,6.1816 -2.35745,0.41782 -4.82025,0.46263 -7.14113,-0.18721 z m -1.43661,-2.02035 c -2.18883,-1.0896 -9.17611,-3.93108 -4.37022,-5.90307 1.72875,-0.96257 5.34907,-2.50255 6.22435,-2.41301 -1.15189,0.81421 -5.53212,4.10522 -4.75893,3.13929 1.17506,-0.85088 3.04782,-3.05774 0.60965,-1.07542 -1.94646,0.97862 -3.27691,2.62725 -0.41771,3.59673 0.71987,0.21468 6.33748,3.89693 2.71286,2.65548 z m 9.90328,-0.30802 c 1.77914,-1.26525 8.36872,-3.87875 3.59129,-5.47694 0.53953,0.41587 2.57777,2.47156 -0.27514,2.73459 2.28086,-3.11126 -3.52984,-4.70159 -5.77903,-5.76423 3.53103,0.11302 6.06477,2.9582 9.09966,4.08007 0.49923,2.83215 -4.75303,4.23722 -7.24937,4.78213 0.20414,-0.11847 0.4086,-0.23736 0.61259,-0.35562 z m -5.59409,-1.12183 c -4.99165,-2.5884 3.56247,-7.94933 3.54607,-2.20327 -0.0334,1.69661 -1.98815,3.03386 -3.54607,2.20327 z m 2.33992,-0.73418 c 1.99991,-2.8699 -2.67231,-5.6406 -3.33801,-1.78782 0.21435,1.31308 2.15086,2.26493 3.33801,1.78782 z m 2.3052,0.64769 c 0.86327,-1.60607 -0.47075,-5.88918 2.31366,-2.8609 1.8734,0.86652 -1.87321,2.33591 -2.31366,2.8609 z m -8.99508,-1.44202 c -3.99965,-1.08528 2.85066,-4.90753 1.42648,-0.78644 0.069,2.2261 0.97402,2.51733 -1.42648,0.78644 z M 477.91161,186.392 c 1.10171,-1.72417 2.77791,-2.42954 2.90251,-4.57613 1.00751,-1.08148 2.9494,-4.71624 1.97915,-1.28227 -1.68576,1.87096 -3.30778,7.40186 -5.37028,6.76379 l 0.1842,-0.38902 z m 2.02989,0 c 1.07905,-1.8678 3.81155,-8.37145 5.44546,-3.55221 1.22783,1.27975 7.6225,-1.7271 3.52382,0.77601 -2.94969,1.32118 -6.28909,2.78899 -9.2857,3.38972 z m 35.55752,0.23394 c -1.92362,-0.95093 -8.3579,-2.45353 -7.64287,-3.34336 2.50209,0.82677 4.34823,-2.64993 5.49814,-2.38243 1.10372,2.1098 3.15746,4.05681 3.7834,6.29976 -0.603,0.0157 -1.11313,-0.34364 -1.63867,-0.57397 z m -40.63547,-0.43238 c 0.3169,-4.83737 0.0314,-9.69086 0.32689,-14.52901 0.61597,2.08841 -0.4779,5.18571 1.0384,6.67999 0.0897,-1.57195 0.32898,-3.99772 0.30424,-1.00685 -0.22353,2.99887 1.00795,6.66806 -1.66953,8.85587 z m 46.42635,-0.59531 c -1.67792,-3.5021 0.3144,-7.38543 0.33681,-11.06815 0.19034,-2.9553 0.10779,2.7098 0.16894,3.69118 -0.15524,2.17897 0.38985,7.24691 -0.31027,7.79683 -0.0651,-0.13998 -0.13042,-0.27987 -0.19548,-0.41986 z m -44.13458,-9.29281 c -0.0653,-1.19155 -0.11135,-6.60914 0.45896,-5.32487 0.0707,2.44371 -1.31424,7.75672 1.02659,8.26218 2.89183,-3.3262 -2.43553,6.46819 -1.43982,1.02757 -0.0299,-1.32141 -0.0407,-2.64321 -0.0457,-3.96488 z m 31.46453,6.00771 c 4.70195,-0.94206 3.67936,-7.09351 6.47287,-10.04328 2.11828,-2.9625 -0.84803,2.69422 -1.38842,3.53364 -0.69754,2.59549 -1.60022,6.77391 -5.08445,6.50964 z m 9.20968,-2.27969 c -1.52783,-0.5743 -1.39271,-4.56634 -0.64035,-2.57917 0.0142,2.12511 0.9404,-0.13455 1.89179,-0.54932 0.44544,-3.33303 0.34149,2.76719 0.369,4.04331 0.14025,2.58903 -1.01945,-0.0566 -1.62041,-0.91482 z m -30.24405,-5.17303 c -1.71896,-0.71719 -5.88287,-2.90669 -5.67192,-3.32867 2.36928,1.23738 6.06998,2.40069 7.4774,3.86181 -0.6392,-0.0299 -1.2194,-0.31233 -1.80548,-0.53314 z"
         id="path35" /></g></g></svg>
