<?xml version="1.0" encoding="UTF-8" standalone="no"?>
<!-- Created with Inkscape (http://www.inkscape.org/) -->

<svg
   width="86.766068mm"
   height="100mm"
   viewBox="0 0 86.766066 100"
   version="1.1"
   id="svg1"
   xml:space="preserve"
   xmlns="http://www.w3.org/2000/svg"
   xmlns:svg="http://www.w3.org/2000/svg"><defs
     id="defs1" /><g
     id="layer1"
     transform="translate(-7.5302614,-3.7843986)"><g
       id="g1"
       transform="matrix(0.48216004,0,0,0.48216004,26.031236,33.134563)"><path
         style="fill:#3a8bb1"
         d="m 50.448228,130.36696 c -2.033732,-3.05109 -2.931904,-16.33328 -4.927364,-5.774 -5.74911,-3.06256 0.526,-14.49198 -1.450332,-20.56173 1.869787,-5.437714 7.562392,-20.939974 -0.0039,-20.905882 -7.253581,6.749856 -0.08345,17.490832 -8.679961,23.413912 -3.790412,1.86636 -2.325373,10.68325 -4.663866,5.36007 -5.373577,-2.66964 8.67179,-10.33256 6.273654,-16.845175 -3.904737,-8.213257 -0.441988,-15.839175 8.626864,-18.235098 7.638993,-6.251223 3.861978,-17.760435 2.911282,-26.272817 2.313011,-7.817464 -2.573929,-14.82903 -3.955026,-22.279318 2.644156,9.19942 16.268523,-0.450874 15.235776,0.750723 -6.670033,8.042558 -3.313932,19.215738 -5.780638,28.649008 -4.199861,12.38256 7.00562,18.638208 12.298564,27.270866 0.805807,9.024368 1.660114,16.072671 6.164312,23.458991 0.397763,4.9661 -5.913922,-3.89545 -7.352988,-6.00326 -1.877062,-5.835081 -0.852738,-18.51096 -7.426778,-19.370413 -6.34774,9.499326 4.345365,17.127973 2.205148,26.537083 -1.805496,3.71481 4.313787,18.41142 -2.186862,13.41921 -2.353353,-14.58316 -0.679953,13.18725 -7.287878,7.38783 z m -34.308646,-24.0339 c 4.771003,-5.30257 9.685542,-22.680651 15.907001,-18.534811 -0.184519,2.503571 -2.148942,12.708521 -4.721334,6.521197 -2.952929,4.550167 -5.834332,9.948774 -11.185667,12.013614 z m 70.85592,-0.58203 c -5.33878,-0.25121 -8.399726,-15.823654 -12.631077,-7.906993 0.06134,-5.491825 -5.657081,-17.483955 2.936679,-9.099131 4.559677,4.865416 5.332961,12.063514 9.694398,17.006124 z M 4.0315425,50.652745 C 1.9599376,45.65639 -9.4185436,52.888229 -7.3381702,41.747297 -7.9920818,37.874126 -10.057523,28.43642 -10.296825,28.5354 -1.7620264,28.750865 5.8592819,27.579915 14.239014,25.144824 21.907417,29.376686 7.0221181,34.114093 3.7028984,33.181836 1.2815683,39.909186 17.007633,31.650325 13.19581,37.409763 9.1236403,41.627808 13.648092,51.812415 4.0315425,50.652745 Z M 93.927078,47.228122 c 2.386429,-5.020708 -10.202622,-12.213196 0.854259,-11.894283 6.465383,3.569048 7.566233,-6.076556 0.511684,-2.280593 -5.514076,1.263267 -12.519098,-8.487938 -2.877842,-6.400608 7.835691,-0.502362 21.778441,1.679601 18.435151,8.803649 2.82417,2.78811 -1.5192,5.304843 -2.1064,1.589868 -3.93421,3.426053 -12.883172,1.767048 -11.614158,8.159405 -0.279148,1.440524 -2.144338,1.628951 -3.202694,2.022562 z M 124.9278,27.344686 c 0.12612,-7.589099 -9.60667,4.577606 -8.23543,-2.159633 -6.51374,-0.74356 2.59634,-8.36221 -5.33374,-6.285487 -0.77055,-3.840084 -7.12338,-2.150098 -4.36919,-8.187406 -1.38828,-7.4304437 -20.369274,2.143369 -15.994413,-6.934664 5.711571,-2.82152492 -5.767035,-2.7096063 -1.049834,-0.4545774 -6.551281,-1.3800741 0.430315,-5.5851463 2.575232,-4.9606088 3.712869,-5.2121163 -12.397217,0.3848394 -7.864609,-4.6287638 -3.561517,0.4439604 -9.719479,-4.198692 -7.860085,0.7259109 -2.728226,-0.5900404 -4.243928,-1.9279804 -7.223756,-0.182923 -4.254662,-2.1957013 -14.092683,-0.4163068 -5.583737,-5.6087049 4.01785,-2.445943 -5.179533,-4.555272 -5.457406,-0.17875 -6.446704,-2.145691 -5.729266,2.4104776 -5.648861,6.3098162 -3.840731,2.9124064 -3.783877,-2.6018094 -6.577498,-1.0507172 -2.43381,-3.5661121 -5.732724,-9.906527 -9.713018,-6.052653 7.489076,2.4221993 1.189642,7.3065825 -2.292805,7.2728306 C 27.089222,-4.1460738 22.050103,3.4084467 14.720589,6.8926761 10.664792,9.6250014 6.5790761,4.0815994 6.4539395,10.865268 5.3219258,7.0890995 -2.5233809,7.3798838 3.0283703,10.543131 -4.9794679,9.1030267 4.5951139,16.341049 -1.94858,14.068343 c -3.4554726,-4.4790433 -0.1802309,8.62094 -1.8997696,6.104273 -4.757024,-4.950495 -6.7441804,1.698407 -1.4997617,2.494245 -4.5884087,-0.169925 -6.9322387,8.239741 -10.5306377,4.329721 3.062527,-2.805792 -8.140543,1.619219 -3.171246,-3.316376 -5.096924,-4.602484 2.461141,-9.35625 3.755796,-10.915891 4.006252,-0.770208 2.889955,-2.213102 0.450743,-3.0743771 -1.064256,-11.0726423 15.33866413,-9.12425782 16.0872951,-20.5286299 5.4729807,-2.115567 6.9774088,-8.128625 13.0993939,-6.78097 5.748625,-6.446007 12.357421,-8.080363 19.869737,-9.308576 1.39313,-1.577598 0.820625,-3.784667 1.804697,-4.951191 1.47957,0.212435 8.858514,1.364705 6.658499,-2.615266 5.992456,1.740623 6.682228,-3.00319 11.471784,-1.882516 5.293048,0.545346 12.160837,3.076582 17.997369,5.26768 6.007376,4.08965 -5.945655,6.831998 -7.145756,8.126958 6.299429,5.522526 12.302478,-5.842977 18.380816,0.385317 -0.471259,4.39561 11.239236,1.755141 8.881805,6.554514 4.733559,1.002935 16.024766,3.779915 12.499676,9.4533398 7.17104,-0.7066937 5.62211,10.7478194 13.32028,11.1454336 5.73277,3.1435124 -5.34751,6.0429076 1.93446,9.5388866 3.37559,0.750417 5.01383,6.491725 3.60252,9.355333 2.98042,-1.681468 0.95707,9.536698 1.30868,3.894435 z"
         id="path3" /><path
         style="fill:#17658b"
         d="M 47.88958,144.91808 C 18.962925,129.71189 -9.4841824,113.62031 -38.062407,97.775308 -38.491213,62.196392 -38.265435,26.614355 -38.371025,-8.9660284 -8.6825211,-26.767546 21.658734,-43.444645 51.564904,-60.872245 c 29.089065,16.422972 57.539576,33.933916 86.412756,50.720728 6.14533,5.5978793 2.29599,17.3147497 3.49029,25.443747 -0.26039,27.512545 -0.0531,55.028486 -0.18049,82.542886 -29.12012,16.250624 -58.539519,31.958194 -87.645875,48.233694 -1.966833,1.21919 -4.033959,-0.27973 -5.752005,-1.15073 z M 53.842705,131.6264 C 76.95428,119.75894 99.435066,106.72293 122.12288,94.077437 127.2599,84.470054 123.45305,73.193825 124.75072,62.848883 124.427,43.81345 125.94161,24.770166 125.15876,5.7653741 123.45385,-4.7078306 110.36901,-5.5639782 103.32304,-11.526235 98.993931,-17.329482 90.176826,-12.88531 91.302905,-19.16614 c -4.810318,-1.24574 -8.710696,-0.235026 -9.541503,-5.243763 -6.027393,-1.307203 -13.71093,6.953027 -16.843669,0.554945 3.996669,0.647769 12.237861,-4.487839 5.872162,-7.872863 -7.19945,-2.901103 -17.575761,-6.655794 -25.238203,-2.640817 -5.089903,0.01954 -0.963623,3.682967 -6.789643,2.570298 -5.534404,0.385328 -1.900565,0.382208 -3.504575,2.661096 -0.572135,5.264165 -8.228295,0.607065 -10.898658,5.509244 -7.267467,-0.762813 -8.311009,8.716496 -15.3381311,6.293825 -5.7347653,7.873621 -17.460543,6.899824 -24.2470209,14.0687632 -9.564362,3.45528989 -7.742201,13.3184298 -7.370809,21.2537788 0.0027,24.386956 0.117936,48.773693 0.18172,73.160522 12.679028,9.483411 27.3030565,15.897631 40.824254,24.045211 10.378063,5.6694 20.433592,12.06866 31.266379,16.81938 1.358634,0.37155 2.945604,0.46138 4.167497,-0.38708 z M 22.224998,74.564783 C 10.29505,70.235999 0.62013909,60.728387 -4.8705801,49.389768 0.98321813,45.633201 9.728757,55.521941 11.041013,44.478852 c -1.2501924,-5.455584 4.477515,-9.368973 3.34788,-1.630898 -0.468794,9.631889 1.198075,19.527198 7.615712,27.092938 0.739927,1.443394 4.416083,6.493783 0.220393,4.623891 z m 56.254001,-0.283016 c 8.376497,-11.087275 11.544125,-25.584801 9.828287,-39.263715 4.818838,-0.818937 11.264986,0.959034 2.756235,0.788415 -3.67058,2.478183 5.311645,9.318519 3.935608,11.163586 4.170963,-2.290649 2.506402,-9.288432 10.382401,-7.890417 4.17943,-1.84641 2.67123,-2.16342 5.67731,-0.13868 1.51706,-5.254593 -0.75241,-12.715613 -8.90009,-11.328924 -5.076885,-1.351153 -14.666408,-1.401891 -15.452898,-0.4059 -2.997945,-3.201353 -5.393402,-10.900713 1.882416,-6.947941 8.148286,-0.316538 18.079802,8.020758 24.917932,1.80683 -4.04906,2.762539 -15.94554,-0.204426 -15.00678,-2.212987 5.91625,1.338119 10.11209,1.664947 15.23479,0.685321 0.005,3.386046 4.94967,5.299742 -0.62983,8.612441 -0.40688,4.590177 -0.45029,11.195616 -3.74465,13.066028 2.48187,6.649372 -6.51944,15.125554 -10.816014,20.717974 -6.075663,4.327557 -12.175423,11.377548 -20.064717,11.347969 z M -2.645834,28.991274 c -3.7759585,-1.152075 -13.669762,-0.910651 -4.4727692,-3.251572 9.2116503,1.493121 14.3421465,-8.964527 23.3346312,-6.121812 6.894622,1.298815 -3.661539,0.841382 1.800771,3.460801 -4.690104,4.8709 -15.1271813,2.804712 -20.662633,5.912583 z M 101.23147,17.585341 c 5.90213,-10.3258995 -9.347537,3.158134 -14.160563,-2.000303 1.476426,-6.9721647 23.027473,-9.497459 19.564703,0.466351 6.94608,1.337484 -4.05668,2.175834 -5.40414,1.533952 z M 15.001649,15.369253 C 8.1163387,19.491617 4.9541151,3.8748891 8.9206098,7.6115685 8.7050532,10.042128 27.219624,13.515017 16.828492,15.577099 Z m 10.662932,-2.57175 C 16.233703,10.1683 17.906076,1.9514999 25.086197,0.136656 31.929509,-0.15071737 43.0234,-12.372943 43.72607,1.1984698 44.90026,5.3452937 36.509809,5.2778696 34.000133,4.1594746 29.33012,-1.8646623 31.593541,8.756813 26.851607,6.0968724 c 4.095637,2.5523369 3.546526,5.4345706 -1.187026,6.7006306 z m 54.068217,-0.367838 c -4.181523,1.087451 -4.848591,-5.3268452 -8.549045,-4.035998 1.85556,-4.3301934 9.959407,-9.7962012 9.621609,-12.7754021 5.792366,-0.030541 3.588395,1.0913101 5.522239,4.07638155 3.536071,-0.69032908 11.6115,-5.82695575 3.789477,-0.37960025 -8.603496,2.1961394 5.891625,5.4838596 -1.69409,9.8895616 -2.849276,2.0311622 -5.211097,3.5873512 -8.69019,3.2250572 z M 62.772392,3.5172439 c -0.845369,-6.301563 -5.310801,-5.5742027 -9.279062,-3.71829986 0.505364,-4.56670074 0.148675,-9.84285704 6.836336,-11.74588904 3.55249,2.1218621 -5.318721,6.3430649 1.917498,5.5097869 4.122999,1.2647908 10.453251,0.8086683 13.803636,4.8565529 -4.631291,1.83502121 -8.730589,5.6405584 -13.278408,5.0978491 z"
         id="path2" /><path
         style="fill:#56352c"
         d="M 48.286455,131.51595 C 27.453064,120.84255 7.3731184,108.76956 -13.128952,97.482839 c -4.979555,-2.612422 -13.535943,-8.047997 -2.731443,-7.666062 8.3637667,2.106139 8.9513737,-6.597771 13.0916055,-9.88393 6.686758,3.064217 12.2803456,12.640867 20.2752125,5.199938 C 24.790371,79.242702 33.547856,74.530122 37.749986,65.733319 42.071395,55.962755 42.097629,42.269815 30.746333,37.344128 21.599129,29.075876 27.528256,46.416689 24.922155,48.021872 23.588832,44.366754 24.439413,28.779035 21.46622,40.129257 21.811912,49.984693 20.176066,33.510793 20.186295,34.474315 16.092838,34.039612 2.1733894,37.001538 5.4097503,32.831761 14.990468,32.030908 24.298967,27.217935 34.018433,29.531558 32.319622,21.020747 21.174875,17.899585 13.123922,19.298715 4.605226,19.62818 1.4165263,27.339555 -7.4544324,25.668278 c -5.4225756,0.736409 6.87284345,-4.662067 -0.7530907,-5.134763 1.5293536,-7.233845 4.2085433,9.114519 9.09596782,2.168758 C 8.3285326,18.467292 0.84283772,19.93494 -2.6634642,19.513376 -2.0396384,15.966707 4.4412185,18.005895 6.0514912,13.387009 6.6632234,15.281109 -0.16758425,6.8510318 4.697673,9.7025579 6.985765,13.729307 17.642001,19.104078 19.665275,13.157132 17.525423,10.47344 2.3108848,7.9697634 13.156986,8.1661302 c 3.27872,0.688574 4.766211,-5.8448107 6.9358,0.921607 C 24.026921,14.34001 37.197272,22.598819 40.508302,20.26638 39.958013,12.096336 30.170275,10.719896 27.804189,5.6689877 c 4.835052,3.8861013 0.78265,-6.56862027 6.546601,-1.0300552 6.172812,8.7540375 14.656522,1.8792719 8.601131,-6.2382917 -1.242227,-4.4077971 -4.502703,-8.9532688 -4.909373,-12.3044978 5.884281,1.135392 5.091469,7.9562894 11.812439,8.9006302 1.161983,1.8023324 7.440188,-1.5199455 2.38421,3.5276459 C 48.976127,5.3918643 44.806328,13.806758 48.540906,21.6268 56.5689,30.815202 60.545428,8.613125 54.975003,3.1509941 53.009161,-4.0845495 66.159609,-0.91596014 59.085648,5.1604457 64.8261,8.9274834 70.439604,-1.4082539 76.277728,-0.92471257 77.821113,-4.6751576 63.548372,-5.0663264 72.02921,-5.3709477 c -1.347678,-3.347213 9.1229,3.165235 4.399848,-2.2138844 2.781145,-0.4054151 5.812258,1.2297168 7.118956,2.2964163 C 77.370862,-4.0024704 77.691769,4.9972924 69.93265,7.4993773 65.72551,10.836808 63.873738,18.163925 64.038004,22.476719 71.312704,16.656124 81.285528,14.825582 88.535503,8.6025372 93.163494,7.363004 99.146116,7.7213489 103.53078,9.3573425 c 2.52045,3.6678325 3.53271,-2.8123131 3.32161,1.3821625 -5.09196,-1.1486041 -22.331824,-2.3625595 -17.340413,6.100904 6.926362,-0.662326 16.026423,-6.384665 12.532103,0.746754 4.27947,-1.986242 19.76751,3.391189 7.6457,2.487912 -2.91598,0.483995 -18.572547,-1.542054 -7.76546,2.093886 4.45885,2.217251 17.06662,-0.461332 5.98581,1.933663 C 96.92409,23.78743 84.928043,15.276111 74.651832,22.43018 c -5.797959,3.612884 -6.048948,9.16082 1.660606,6.763723 6.904647,0.543079 17.943223,1.920712 22.37536,5.403403 -5.66016,2.829999 -19.437843,-5.303026 -15.776607,6.852854 -2.566872,7.058629 -2.310801,-13.223197 -3.282849,-1.703013 0.194724,4.047713 -0.932181,13.305177 -1.345129,4.933953 0.614742,-0.764074 0.727211,-15.942335 -5.492411,-7.310269 -11.630097,4.800317 -10.689279,19.201197 -6.776846,28.854409 6.895331,7.302959 14.184383,16.072272 23.098811,20.431164 9.237628,0.917707 16.938323,-14.261721 22.556883,-0.03718 1.59142,6.020496 17.65639,1.450293 8.79929,8.534517 -22.638523,12.164719 -44.679503,25.492519 -67.706314,36.955469 -1.514853,0.40581 -3.049444,-0.12477 -4.476171,-0.59326 z m 5.175051,-0.99787 c 1.762765,-2.82787 3.391982,-16.19777 4.610625,-6.5806 5.331069,2.82385 0.583597,-14.17144 2.064853,-18.5629 -1.475464,-6.753994 -8.209652,-19.605799 -0.106304,-23.089527 5.86563,7.177144 0.368912,20.226537 9.281816,24.817857 2.724412,8.46725 5.996476,-0.45264 0.535749,-2.70118 C 66.28492,94.583706 69.679207,82.414345 58.678312,76.011383 51.15268,68.935823 54.14893,58.549652 55.25254,49.658526 c -0.065,-7.885984 -0.01786,-15.52768 5.602395,-21.717943 -4.9428,3.713764 -9.841891,6.842165 -15.19686,0.995773 -4.12887,1.465159 5.626191,10.968241 2.953319,16.485667 -0.449747,8.166734 3.494033,18.93801 -0.306899,28.094948 -3.65861,6.815518 -17.726059,6.239339 -12.605436,17.667992 6.204307,9.246567 -8.236566,14.304397 -6.60571,22.266747 2.894304,-2.35708 3.255449,2.1105 4.319723,-3.81931 8.154198,-6.04758 5.655872,-15.804725 8.86989,-23.349501 6.158804,-10.561512 6.535337,7.925141 3.78787,12.024529 -3.620447,8.605232 -3.411647,18.420372 -2.055314,27.187852 2.049961,-1.0886 3.777264,-9.9456 4.251334,-1.6097 0.683056,2.54686 0.855268,9.02929 5.194654,6.6325 z M 19.314581,104.35079 c 3.68745,-3.90335 8.19737,-9.039982 11.118859,-9.194133 3.103119,-4.855848 1.533369,-14.078172 -4.072725,-5.683461 -2.12408,3.053163 -12.9133,19.180814 -7.298914,15.105894 z m 68.791664,1.66903 c -5.578794,-4.7789 -10.496144,-22.855581 -15.808124,-19.060589 1.560471,4.198894 -0.269174,14.029069 4.624625,8.308696 4.401944,2.573821 5.636896,10.450553 11.183499,10.751893 z"
         id="path1" /></g></g></svg>
