<?xml version="1.0" encoding="UTF-8" standalone="no"?>
<!-- Created with Inkscape (http://www.inkscape.org/) -->

<svg
   width="58.042274mm"
   height="85.299614mm"
   viewBox="0 0 58.042274 85.299613"
   version="1.1"
   id="svg1"
   xml:space="preserve"
   xmlns="http://www.w3.org/2000/svg"
   xmlns:svg="http://www.w3.org/2000/svg"><defs
     id="defs1" /><g
     id="layer1"
     transform="translate(-155.34028,-37.750331)"><g
       id="g37"
       transform="translate(-78.874266,-80.270269)"><path
         style="fill:#5a9ef5"
         d="m 262.36479,168.56057 c 0.47495,-4.46381 -3.06825,-3.65327 -5.12246,-1.22813 2.90354,-2.92329 2.89961,-5.78738 -1.87304,-5.56395 -5.71879,-1.38478 9.46632,-1.23045 2.66292,-5.44933 -2.49679,-4.17934 5.27157,4.60114 4.17933,-1.73475 0.15317,-3.03471 1.42963,-7.08816 1.90348,-1.59373 0.48748,3.09545 0.96086,6.56161 3.82594,2.69507 4.24505,-2.90044 -4.54087,5.0775 1.16478,4.28625 2.85052,-0.0774 5.38043,2.14032 0.77806,1.98124 -5.91438,-0.65518 0.2511,5.64678 -1.29191,4.77624 -4.93483,-6.39378 -3.65704,5.80629 -5.7298,4.11557 -0.15581,-0.76365 -0.33312,-1.52264 -0.4973,-2.28448 z m -9.42814,-15.04418 c 1.80891,-5.88598 4.91631,-13.44719 -0.62858,-18.4671 -2.58775,-3.4624 -9.89024,-3.09504 -11.54217,-4.13726 4.93374,-3.81154 11.85503,-1.31756 15.35971,3.21524 4.92062,5.30094 5.13658,14.49622 -0.50071,19.35311 -1.63393,0.56565 -1.29138,0.38706 -2.68825,0.036 z m 22.44046,-0.79003 c -3.9837,-5.61638 -0.35212,-14.40321 6.54551,-15.32843 3.56267,-2.16672 10.52798,4.33076 10.16804,0.0157 0.18228,2.42696 0.66679,8.58454 -2.89969,4.32623 -5.87838,-3.5641 -15.72821,2.36642 -12.91086,9.41101 1.60691,2.6796 -1.03866,-4.94601 1.47471,-5.65125 3.25736,-6.86401 16.05599,-2.60672 11.26083,4.57955 1.20731,-6.35992 -7.9794,-8.87498 -10.21879,-2.9914 -1.23806,1.57727 0.49126,9.69328 -3.41975,5.63856 z m 6.52981,-12.28849 c 3.16112,-1.3704 8.34299,1.54922 9.72775,1.18829 -3.30712,-3.72702 -10.33029,-2.56483 -13.76156,0.57661 1.29528,-0.42575 2.56936,-1.52118 4.03381,-1.7649 z m -33.46639,12.39141 c 1.72036,-5.21842 -3.88247,-11.85282 -8.92891,-7.86956 -3.05506,0.9594 0.055,9.20102 -2.76847,4.29529 -1.14387,-5.27601 5.06568,-9.38794 9.45622,-6.12556 3.79849,1.11281 4.4189,6.9817 3.68247,8.66437 4.44619,-7.24463 -6.73549,-13.8161 -12.73886,-9.76712 -3.02478,2.86935 -2.81334,0.3408 -0.0295,-0.86108 3.21431,-2.51329 11.17236,0.5046 11.15536,0.55987 -3.71532,-3.45129 -9.65721,-3.01738 -13.75734,-0.50346 2.40396,-5.8823 12.46564,-4.93624 16.14418,-0.35402 3.1344,2.53175 3.72636,13.8393 -2.21512,11.96127 z m 23.71628,-0.37008 c -6.36869,-1.14933 -6.98104,-11.89314 -3.61043,-16.57484 3.24113,-4.39032 9.06288,-6.43362 14.25201,-6.56332 2.19438,1.3372 5.10268,2.69434 0.32855,2.13054 -6.56189,0.0728 -12.80094,5.72586 -11.9407,12.54843 -0.91061,2.10459 4.18058,9.1038 0.97057,8.45919 z"
         id="path40" /><path
         style="fill:#205098"
         d="m 285.8058,182.02639 c 0.10688,-0.73053 -1.11506,0.18929 -1.14314,-1.74272 -0.42679,1.57812 -1.35562,-4.81643 -1.12528,-0.87526 -1.20957,5.2216 -0.84464,-4.91097 -4.25727,-4.74331 -2.60975,-2.22412 -7.9704,3.91327 -2.59109,1.42689 3.94957,3.02453 0.0381,4.01824 -2.72734,3.08339 -4.51409,0.45424 -2.72818,-9.1535 1.72467,-9.5552 6.69497,-0.94448 11.46106,7.21478 10.14884,13.07981 -0.01,-0.22453 -0.0197,-0.44907 -0.0294,-0.6736 z m -45.21457,-1.65364 c -0.75359,-5.96004 6.32891,-13.08312 12.09277,-9.96401 4.15245,2.87751 3.36487,10.7802 -2.80723,8.74796 -5.10835,0.0813 2.3336,-5.86776 3.74469,-1.21437 -1.37939,-5.29645 -9.28193,-3.94848 -9.5607,1.32089 -1.71035,3.43137 -0.2639,-4.19947 -1.73909,0.0949 -1.71689,-0.63713 -1.51571,2.30539 -1.73044,1.01462 z m 50.71147,-13.97729 c -6.30109,-4.95061 -14.66274,-8.60998 -17.59468,-16.63491 1.09479,-2.59256 -1.99283,-5.52291 -1.48903,-2.52782 0.312,3.83643 4.6769,9.61764 8.67952,12.50707 1.86597,1.70357 8.86128,5.97821 3.1829,3.14526 -7.00724,-3.12841 -13.82346,-7.73202 -17.33804,-14.75503 0.32801,-3.69198 -2.25857,1.77459 -2.44827,-0.68709 -2.10277,0.36479 0.67158,1.45315 -0.7381,2.14206 -1.98089,-7.94554 -5.61766,3.57466 -8.50649,5.29576 -4.03028,3.84643 -9.05468,6.42436 -14.11838,8.63086 5.17339,-3.95227 10.83413,-7.93946 13.13812,-14.33556 -0.10978,-0.27366 -2.45709,7.27427 2.24703,3.80659 1.61904,-2.54029 4.07824,-6.47444 3.84599,-6.8277 0.60849,-5.88655 -1.83036,-12.31504 -7.53683,-14.80726 -2.10532,-1.96923 -12.2754,-1.60626 -5.78842,-3.79877 7.22767,-0.35595 13.51399,5.11824 15.62163,11.81591 0.32314,2.55571 1.28264,4.17508 1.6062,0.44594 1.52874,-7.15699 8.44771,-12.08785 15.5581,-12.29348 6.64187,2.67697 -3.97786,1.82795 -5.80641,3.97241 -7.17694,2.96723 -9.38992,12.62306 -5.1139,18.83502 1.70321,3.90384 6.92043,2.39221 3.42474,-1.79766 -2.65337,-5.62974 -0.52072,-13.50177 5.76201,-15.55991 4.55059,-2.85272 11.15051,-1.40284 14.03597,2.63094 0.11594,2.7134 0.47889,5.36088 -2.94837,2.5949 -5.8927,-2.30781 -15.19074,0.4014 -15.31733,7.74606 -0.15642,2.84909 1.39704,9.89081 5.02347,6.69076 2.62344,4.77256 7.60958,7.30059 11.55787,10.91974 0.80886,0.17343 2.71433,3.86864 1.0607,2.84591 z m -56.66735,-0.3367 c 2.91153,-4.98089 9.03486,-7.02579 12.22028,-11.86844 0.19265,-3.75953 4.94739,1.27966 5.69157,-3.59846 1.48247,-4.84265 -0.61555,-10.70011 -5.64322,-12.44716 -3.77999,-2.90489 -10.57246,1.24798 -12.39251,0.55312 -1.0846,-3.84171 1.91051,-5.14945 4.75108,-6.8952 4.47161,-1.3713 9.82969,0.79927 13.23322,3.84984 2.26256,1.60735 5.06506,9.92017 2.27974,9.12952 -2.98656,-0.8928 -0.60382,7.08835 -3.77102,8.94161 -4.05529,5.64882 -10.61445,8.8339 -16.02603,12.81434 l -0.26178,-0.16057 z m -0.32957,-13.17942 c -0.35865,-4.28 0.48236,-8.86187 0.0982,-12.79088 1.28505,1.66702 7.21225,-2.61655 10.53425,-0.32339 2.21685,0.55194 5.82907,4.0229 1.78156,1.37049 -3.10965,-2.17544 -12.09704,-0.41899 -11.43458,2.39397 4.33489,-4.45314 13.19477,-3.05932 15.31421,3.02128 0.0755,-0.29454 -3.22557,-4.11402 -1.37354,-0.86142 -2.34465,-4.62147 -10.49374,-5.2187 -12.29971,0.22889 -1.95944,2.58919 2.9043,7.41538 0.78982,2.43127 -0.52658,-4.68929 8.40065,-5.94614 8.32092,-2.669 -2.49344,-2.46141 -5.96423,0.33772 -2.19352,2.41516 2.60962,4.22562 -4.53105,7.04462 -7.45814,8.99538 -2.82866,-0.0129 -1.70832,5.86515 -2.03079,0.81218 -0.0241,-1.67455 -0.0377,-3.34926 -0.0487,-5.02393 z m 2.62129,2.06422 c 4.19978,-0.34159 6.66947,-6.98738 2.85535,-8.66027 -2.65358,0.14354 -1.71329,4.4423 0.91783,4.7264 -4.04349,2.97801 -6.48189,-8.6163 -6.08932,-1.42763 -0.0214,1.7265 -1.11325,7.5698 2.31614,5.3615 z m 51.43235,1.06287 c -3.29983,-1.26399 -9.05919,-6.79339 -3.81833,-9.21319 1.25968,1.4253 -0.43442,6.67696 3.82357,7.55779 2.30869,2.37768 4.61598,0.15652 3.67768,-1.33825 0.45926,3.67875 0.0368,5.90075 -3.68292,2.99365 z m -12.03927,-4.786 c -2.95097,-7.02178 6.89138,-13.10239 12.76333,-9.46509 6.29826,1.38626 0.99017,11.71676 -2.91279,8.7925 6.60364,-2.70994 -2.75788,-9.31722 -5.97263,-4.65717 1.24415,-4.7803 10.60637,-1.24217 8.75328,4.48593 4.07616,-3.72106 -1.93279,-9.33352 -6.24586,-8.3646 -2.41747,0.11242 -1.27823,0.22954 -3.36083,1.25371 1.13754,-0.72939 -5.0863,4.70132 -2.7371,7.3892 0.37973,1.01766 0.65182,2.8539 -0.2874,0.56552 z m 1.93982,-9.43315 c 3.51859,-2.01264 9.34145,-4.1254 12.55882,-0.92792 2.36505,3.20866 -3.78239,-2.03567 -5.61606,-0.60643 -1.69058,-1.03319 -8.88099,3.01456 -6.94276,1.53435 z"
         id="path39" /><path
         style="fill:#0b254d"
         d="m 261.10209,202.52796 c -8.84965,-5.40262 -17.72552,-10.76209 -26.59062,-16.13928 0.076,-6.68368 -0.18832,-13.37623 0.2508,-20.052 6.09321,-3.70227 12.82235,-7.44504 16.87038,-13.55122 1.94206,-1.68543 1.21894,-11.49749 3.24925,-7.29739 -0.56575,6.12756 -5.17144,11.41773 -9.99289,14.99977 -2.06883,1.11538 -5.47895,4.23333 -1.18928,1.79619 6.75862,-3.16433 13.35227,-7.66172 16.52701,-14.67361 4.78432,-3.34155 2.07232,6.32097 1.23607,8.81237 -0.71344,2.02818 -6.64692,-4.8333 -3.59554,0.0284 5.48379,4.06939 -3.14785,2.91787 -4.77992,4.9841 3.46762,0.82212 9.5105,0.93231 4.36437,5.01414 -1.46956,3.25322 5.84699,-5.11561 4.55502,1.2366 0.17298,2.21423 1.88538,7.81436 2.15588,2.42427 -0.19131,-3.40963 1.82496,-6.64092 4.62936,-2.92214 2.58362,0.64548 -4.88871,-5.30877 0.34595,-4.72309 2.41203,-0.17207 6.908,-1.77676 2.1014,-2.27508 -3.66585,0.30999 -5.73133,-1.6559 -2.20119,-4.25155 2.72509,-5.14547 -5.12772,5.28206 -4.27763,-0.88305 -0.52616,-4.39587 -1.79979,-6.53217 -0.45787,-7.67161 1.47786,2.47096 2.24648,-3.44992 2.50167,0.7954 3.94114,8.04256 12.1665,12.61181 20.0944,15.96727 -5.82546,-4.17227 -12.46423,-8.80279 -14.63044,-15.94884 0.22575,-1.91593 -0.93909,-1.37758 1.13568,-2.88235 -0.74353,8.17558 6.78565,13.50116 12.81925,17.44251 8.37448,2.81643 5.13854,11.73613 5.69464,18.53251 1.64328,7.59838 -8.61431,8.49562 -13.01027,12.78157 -5.4421,3.01793 -10.519,7.37376 -16.37799,9.24836 l -0.73804,-0.30249 -0.68945,-0.48979 z m 24.97199,-21.42761 c 0.36754,-5.91509 -5.50191,-13.93121 -11.88021,-10.82496 -4.17824,2.44277 -3.84067,10.8966 1.85718,9.29021 2.89366,0.9878 3.44744,-3.67748 -0.4852,-3.16711 -3.95814,-1.56091 6.83578,-3.5146 6.70255,1.66926 0.26946,2.27762 1.0013,4.93589 1.1459,1.0114 -0.0821,-2.66817 2.50184,4.94092 2.37043,2.98844 0.16112,2.30259 0.32451,-0.1319 0.28935,-0.96724 z m -45.06007,-1.7604 c 1.72409,1.30785 2.37371,-3.53008 2.16378,0.6802 1.09167,-2.69825 5.38384,-8.53176 9.32714,-4.00116 3.49681,3.84721 -4.57061,-2.84494 -4.417,2.44149 3.58395,2.89333 10.14383,-0.9587 6.25981,-6.04919 -3.36799,-6.29797 -12.1322,-0.81888 -13.37159,4.44392 -0.61751,1.10883 -0.49102,6.52306 0.0379,2.48474 z m -6.4959,-17.62937 c -1.39724,-6.35377 8.18585,-5.62094 9.74763,-11.18689 1.71968,-2.379 -5.6552,-6.11345 0.14088,-5.53392 5.82754,1.12866 4.09584,8.93777 0.37415,11.58728 -3.30653,3.07521 -7.09955,5.59754 -10.26896,8.82866 0.002,-1.23161 0.004,-2.46401 0.006,-3.69513 z m 56.33536,2.36936 c -4.28793,-4.40681 -11.85339,-7.21345 -12.44427,-14.11718 -1.44787,-7.06851 12.69837,-7.59961 9.47519,-0.43308 -4.04312,3.91188 2.58155,0.7763 3.5749,-1.30404 0.78482,3.20794 1.68855,10.0561 -3.20521,6.05399 -4.1734,-0.93246 -2.44553,-5.81086 -3.68635,-7.52922 -6.23839,4.26282 3.67814,9.47094 7.33129,11.2081 -0.43651,1.15522 1.04378,8.99924 -1.04555,6.12143 z m -56.29431,-13.53897 c -0.14495,-2.63479 -0.0285,-4.98908 1.78343,-1.39225 1.07851,3.30819 6.69931,2.4509 2.19306,0.41049 -1.60504,-5.69548 5.20105,-1.87963 2.89652,1.83774 -1.41197,3.11984 -8.7358,6.65464 -6.88033,0.38665 l 0.007,-1.24263 z m 28.52731,-8.42763 c -1.23293,-6.81987 -6.12792,-13.60024 -13.46585,-14.30041 -5.82633,-0.54974 3.75971,-3.77529 5.46493,-5.57774 4.34234,-2.74203 8.77881,-6.89372 13.09803,-1.82229 3.02741,2.28506 9.23389,4.87643 10.32087,6.94941 -5.31534,1.28695 -11.04808,3.63906 -13.18154,9.14686 -0.92482,1.09761 -1.57171,6.17476 -2.23644,5.60417 z"
         id="path38" /></g></g></svg>
