<?xml version="1.0" encoding="UTF-8" standalone="no"?>
<!-- Created with Inkscape (http://www.inkscape.org/) -->

<svg
   width="81.705833mm"
   height="100mm"
   viewBox="0 0 81.705832 99.999999"
   version="1.1"
   id="svg1"
   xml:space="preserve"
   xmlns="http://www.w3.org/2000/svg"
   xmlns:svg="http://www.w3.org/2000/svg"><defs
     id="defs1" /><g
     id="layer1"
     transform="translate(-315.87019,-16.795683)"><g
       id="g22"
       transform="matrix(1.7062639,0,0,1.7062639,-183.50682,-273.77002)"><path
         style="fill:#9f93aa"
         d="m 316.77976,227.36401 c -3.55308,-2.43725 -7.4621,-4.32173 -10.84597,-7.00582 -2.27057,-1.31516 -3.77881,-2.3369 -5.78075,-3.56948 -1.87465,-1.63463 -5.08025,-1.9022 -4.2558,-4.84385 1.00229,-2.18223 1.1174,1.42122 2.23363,1.83102 0.44227,2.85963 3.31295,-0.22065 3.01398,-1.23452 -2.7577,-0.91182 2.493,-0.99928 1.3171,1.30904 -1.29846,2.43441 2.82816,3.29417 4.30385,4.50029 1.02663,-1.95972 3.41058,-1.55909 5.4008,-0.82545 1.77613,0.77467 1.81466,4.04431 4.55218,3.23183 2.70223,0.81946 3.21386,-2.16169 4.54956,-3.37975 2.1314,-0.39627 4.17685,-1.11832 5.75023,0.86922 0.91276,-0.4945 0.35215,-0.16975 1.24124,-0.86088 2.05461,-0.61188 3.99808,-1.77844 3.25809,-4.25126 0.0845,-1.12313 1.28835,-1.9692 -0.29444,-0.90117 1.39534,-0.62593 2.23291,-3.00334 3.28006,-2.96335 -1.45212,0.40623 3.17129,1.40574 2.94045,-0.48356 1.79375,-3.24833 1.33039,3.20101 0.80155,4.41744 -1.50493,2.65028 -4.9309,3.2277 -7.17032,5.16498 -2.06874,1.35514 -3.67731,2.53497 -5.97794,3.69279 -0.59629,1.0182 -3.67518,2.11019 -4.44424,3.06191 -1.34366,0.55634 -2.53468,2.08523 -3.87326,2.24057 z"
         id="path24" /><path
         style="fill:#1b1529"
         d="m 313.87248,226.98288 c -6.43926,-4.14952 -12.90588,-8.25632 -19.36359,-12.377 0.20697,-2.04653 -1.08539,-4.86065 0.82148,-6.30616 0.97234,-0.62039 4.33976,-2.03426 3.65977,-2.17507 -1.026,0.5347 -3.66884,1.9203 -1.40223,0.24039 1.42317,-1.69432 5.78353,-0.42992 2.87496,1.67772 -2.16492,1.45361 -6.45053,1.93309 -5.14879,5.62029 1.56114,1.59305 3.83735,2.51833 5.6635,3.88093 5.00921,3.22758 10.02551,6.44594 15.12385,9.53164 3.21462,0.51728 5.23119,-2.90239 7.9955,-3.97606 4.84149,-3.11264 9.72902,-6.15407 14.52837,-9.33194 -0.38431,-3.32189 0.55438,-6.78512 0.21536,-9.91555 -0.55898,-1.30377 -0.37932,-5.25532 0.60606,-4.65454 0.0993,5.03555 0.17904,10.07145 0.26756,15.10719 -7.64006,4.84233 -15.22093,9.77752 -22.87591,14.59639 -0.99033,-0.63676 -1.97745,-1.27868 -2.96589,-1.91823 z m 0.45095,-6.91875 c -0.36081,-2.58174 -3.3599,-3.20823 -5.45526,-3.55918 -1.42935,1.27797 -2.89523,1.91739 -4.41861,0.23293 -2.36834,-0.55049 -2.2961,-3.5667 -1.67549,-5.16776 1.51924,-0.46429 4.49887,-3.09178 5.14954,-2.00876 -0.70396,1.45497 -2.85484,1.33335 -1.41323,2.54312 0.16123,0.33451 1.2712,-1.51434 2.25807,-0.88484 -2.81349,-1.45544 2.24592,-4.24296 3.81439,-2.08769 7.02437,2.28837 15.45223,-1.90545 17.60372,-9.03824 0.6491,-2.4921 0.56703,-5.23744 3.64388,-5.86929 1.86892,-1.05953 6.16956,-4.55232 6.64633,-0.73873 0,1.38405 0,2.7681 0,4.15215 -2.60003,0.44068 -3.4775,3.25938 -3.2286,5.50772 2.81021,1.57194 0.25764,4.80665 -0.95144,6.2294 -2.53252,-1.12487 -4.7071,1.82084 -5.32904,3.76532 -0.13732,0.88835 0.80862,2.32168 -0.27127,2.73584 -1.75723,0.68641 -3.54235,3.21919 -5.14346,1.14138 -2.3441,-1.18308 -5.50011,0.22484 -6.05722,2.82202 -1.42534,0.67506 -3.55972,0.42125 -5.17231,0.22461 z m -15.69388,-8.63819 c -2.25413,-2.74024 3.46313,-2.35432 4.91511,-3.45941 2.62982,-1.17225 5.34367,-2.30442 7.55814,-4.19134 -2.45047,1.03451 -6.78169,3.81411 -7.97672,3.90636 3.19684,-2.06034 6.82016,-3.32568 9.98198,-5.43436 3.17347,-0.94039 0.50131,3.86017 -1.36148,3.96216 -3.94182,1.71641 -7.30899,4.86999 -11.67008,5.52382 -0.49684,-0.009 -0.98343,-0.13593 -1.44695,-0.30723 z m 15.78609,-2.25335 c -1.09368,-0.14075 -5.90958,-1.42237 -2.85275,-2.08524 2.72171,-0.0743 5.01168,2.60989 7.38368,0.54899 2.82947,-0.48204 5.28493,-1.94943 7.18355,-4.06807 1.71579,-1.80998 2.97378,-4.16626 3.07975,-6.69419 2.43069,-1.61346 0.60221,3.24784 0.064,4.30812 -2.51847,5.46939 -8.8126,9.27824 -14.85827,7.99039 z m -13.44156,-0.93841 c 3.21065,-1.21856 -3.01561,-3.88359 0.83593,-4.61669 1.73343,-2.78596 6.29076,1.86127 2.81764,2.66852 -0.45934,0.2223 -4.32302,2.76699 -3.65357,1.94817 z m -5.75435,-1.43894 c -1.13148,-3.04582 2.41062,-4.85843 4.63601,-5.98699 3.34345,-1.72327 6.4897,-4.0611 10.17603,-4.96647 2.21361,-1.06837 4.83152,2.15163 1.67763,2.85462 -5.43364,1.4478 -10.32957,4.31694 -14.77412,7.7012 -0.59379,0.0373 -1.45073,1.75499 -1.71555,0.39764 z m 0.77047,-6.35385 c 0.50613,-2.92229 -4.39414,-1.69071 -3.0985,-4.76671 -0.29322,-2.18862 0.19184,-3.47133 2.16003,-4.40587 1.21481,-2.00898 1.3409,-4.61138 -0.47759,-6.25132 0.84726,-2.09628 1.70793,-4.58297 4.4064,-4.19669 3.13087,-0.71032 3.46768,-4.04404 4.17416,-6.3991 1.74498,-1.65097 3.92752,-1.95965 5.8733,-0.57381 2.89195,0.78601 4.42852,-1.99147 5.72123,-3.55436 1.4743,0.0549 2.95216,0.0118 4.42899,0.0251 0.70263,2.65106 4.02983,4.74674 6.49676,2.91184 1.88393,-1.47205 5.01481,0.52343 5.34669,2.38773 -0.77913,2.44029 1.42877,4.21031 3.30449,5.30847 1.79955,-0.46896 4.58903,0.98313 3.42238,2.96296 -2.25361,-0.0824 -4.75324,-2.22864 -7.25757,-0.51164 -1.83501,0.89227 -3.83265,2.76232 -5.18991,0.0976 -5.35344,-4.3664 -13.52177,-2.98768 -18.33757,1.52721 -3.42515,3.07058 -5.53553,7.94817 -4.33763,12.5259 -0.50169,2.62676 -4.92879,3.97168 -6.33432,4.23691 -0.11453,-0.43813 -0.20257,-0.88275 -0.30134,-1.32419 z m 7.08283,-2.80458 c -1.54441,-6.85258 3.6646,-13.63153 9.90811,-15.93222 4.27746,-1.42624 9.10825,-0.0407 12.53842,2.70626 1.39792,2.10932 -1.85331,1.10615 -2.57096,0.003 -1.88149,-1.24376 -5.10834,-1.91646 -6.54652,-2.41367 -1.88055,1.53784 -5.56371,0.78826 -7.06577,3.12583 -1.25572,0.58735 -1.75084,0.15044 -1.96065,1.79075 -1.79069,2.20185 -3.27517,4.80908 -2.98819,7.74677 0.22382,0.76798 -0.18254,4.22065 -1.31444,2.97351 z m 18.92512,-0.0739 c -1.87322,-0.90538 1.46925,-2.90413 2.74038,-2.4802 3.24952,-0.67409 5.84477,-2.87411 8.85519,-4.13799 1.68942,-0.74334 3.964,-4.36966 5.69067,-2.61981 -1.09846,2.80429 -4.1366,4.40601 -6.61035,5.93476 -2.80201,1.35091 -5.559,3.02397 -8.62728,3.65403 -0.69682,0.0665 -1.42061,-0.0287 -2.04861,-0.35079 z m -4.27521,-3.78002 c 1.29239,-2.20534 2.41786,-4.81071 5.01293,-5.75181 3.23637,-1.7571 6.46829,-3.59719 9.94416,-4.83454 1.93521,-0.6821 4.71772,2.14898 1.45596,2.55781 -4.00301,1.19179 -7.72332,3.21928 -11.3076,5.32589 -1.63081,0.88589 -3.25391,2.55732 -5.10545,2.70265 z m 14.77346,-4.93261 c 0.56561,-3.27875 4.89367,-3.79732 7.24273,-5.37943 1.2086,0.83474 -2.78649,1.69701 -3.53692,2.4992 -1.15034,0.31357 -3.95995,2.85431 -1.36657,1.23493 1.50957,-0.95844 4.54614,-3.42103 5.72297,-2.00378 -1.33942,2.52327 -4.707,2.87495 -7.02111,4.20234 -0.42734,0.12069 -0.9342,-0.0909 -1.0411,-0.55326 z"
         id="path23" /></g></g></svg>
