<?xml version="1.0" encoding="UTF-8" standalone="no"?>
<!-- Created with Inkscape (http://www.inkscape.org/) -->

<svg
   width="57.989986mm"
   height="85.74131mm"
   viewBox="0 0 57.989986 85.741309"
   version="1.1"
   id="svg1"
   xml:space="preserve"
   xmlns="http://www.w3.org/2000/svg"
   xmlns:svg="http://www.w3.org/2000/svg"><defs
     id="defs1" /><g
     id="layer1"
     transform="translate(-226.69498,-39.124076)"><g
       id="g40"
       transform="translate(-66.310223,-39.088132)"><path
         style="fill:#db8969"
         d="m 350.78699,109.729 c -0.0213,-2.33904 0.034,-12.292011 0.0883,-5.13234 0.0331,4.66793 0.029,9.33631 -0.0426,14.00388 -0.067,-2.95673 -0.0334,-5.91438 -0.0457,-8.87154 z m -28.95241,-3.10263 c -1.8337,-3.10799 -7.59373,-4.1765 -3.59421,-8.198486 -2.31267,1.439211 -6.6709,-0.575899 -7.14632,1.086648 -3.69244,0.491158 -5.41747,-7.88804 -3.12294,-11.396461 1.42727,-2.158599 8.59269,-1.919004 3.55932,0.365879 -2.76021,3.368003 4.56564,-1.292795 6.09897,-0.958458 5.33387,-2.188842 12.6227,1.792895 16.27971,2.26089 -2.79879,-1.335047 -4.90422,-4.669282 -0.0767,-2.874982 4.94947,1.794363 3.97625,8.198493 1.52423,11.509461 -1.12065,0.625083 -1.54655,-2.962042 -1.59144,-0.07915 -1.80311,-1.0293 -7.58554,-0.469489 -7.4392,-0.70175 -4.35137,-2.266195 4.23977,5.125499 -1.06755,6.030589 -1.15523,0.96917 -2.23267,2.02952 -3.42386,2.95582 z M 303.3172,99.608683 c -1.52237,-2.361098 -1.92628,-4.332898 -3.93764,-5.01512 -2.91281,-3.688195 7.82734,-8.138712 2.70095,-2.668446 -1.62344,1.846333 2.14475,8.887533 1.23669,7.683566 z m 39.93803,0.738357 c 3.1792,-1.149958 -0.90414,-3.21371 0.20952,-4.576909 -1.22272,2.427639 -4.85595,6.635529 -1.66536,1.980302 2.75068,-3.180641 -4.55931,-11.986863 1.59775,-6.957173 2.49462,2.664981 0.60889,6.354936 4.43237,7.86836 -1.48213,0.585538 -3.08793,1.002297 -4.57428,1.68542 z M 319.9719,84.334366 c -2.53387,-0.468926 -12.29302,1.04791 -6.16058,-1.79548 4.36257,-2.755767 8.71807,-7.075089 13.08606,-1.921248 2.15291,1.637107 9.64999,4.84482 3.09602,3.890933 -3.34023,-0.07259 -6.68097,-0.118053 -10.0215,-0.174205 z"
         id="path44" /><path
         style="fill:#c67256"
         d="m 340.365,144.48412 c 1.39394,-8.73684 6.00801,-16.75449 6.58364,-25.61991 0.35877,-3.13042 -4.34825,-13.42156 1.72152,-8.31404 3.98389,3.58264 1.15547,10.22857 2.14734,15.15103 0.0651,3.5529 0.11245,11.97624 -0.0162,12.39124 -0.51702,-3.95488 0.67456,-12.32665 -0.74755,-13.46483 -4.62467,5.87914 -7.32878,12.85467 -9.68875,19.85651 z m -37.70873,-2.6744 c -1.9087,-6.97329 -6.15904,-13.20721 -9.59196,-19.20757 0.074,-5.77966 -1.28038,-12.16777 5.77146,-14.19607 -0.47299,5.77674 -3.23684,11.45663 -0.7347,17.19829 1.61896,5.64014 4.12241,11.05467 5.05929,16.86754 l -0.50408,-0.66219 z m 0.97297,-21.12078 c -5.56163,-3.40935 -4.38504,-13.89315 2.47927,-14.74685 5.77325,-1.28974 -2.866,-3.65074 -4.73232,-4.76536 -1.85222,-1.80496 -5.77454,-2.182782 -2.47489,-4.433049 -2.05499,0.455155 -6.69775,4.545569 -5.67208,-0.846445 1.29875,-2.289172 6.95724,-6.089792 6.27981,-0.673022 3.52255,1.00856 5.08814,8.865866 11.12082,6.879886 5.34587,-1.4924 -4.6333,-0.92442 -0.18511,-2.903654 1.98521,1.680414 0.44207,-2.213467 3.85373,-0.477785 2.75324,1.029244 5.54718,-1.457182 2.59183,2.226089 -0.5346,2.35998 3.96305,3.64647 5.35154,5.55508 3.64535,-2.06382 6.50858,-6.31392 2.40024,-9.610012 2.54835,1.23408 1.16929,-0.04254 3.95692,1.180979 2.4566,-0.538644 5.72811,-0.146354 5.53101,-0.376559 1.85122,1.364828 2.90577,-2.536089 0.95999,1.525919 -1.97853,-0.893937 0.5579,1.741433 -1.99716,2.180043 0.83134,3.38025 9.54093,-2.770895 8.82403,-3.185542 1.67377,-2.815179 2.17101,-2.985242 1.67239,-0.206067 3.77411,2.581529 -5.54487,4.530699 -7.65106,6.393509 1.74846,2.0627 9.0887,3.48557 8.1563,8.84412 0.61864,2.65443 -3.24083,8.61906 -4.16972,7.24134 3.95687,-3.31214 2.95052,-9.59704 -1.9499,-11.40227 -4.5694,-4.47184 -7.7202,1.8599 -11.78792,3.51882 -2.81762,2.51457 -4.51068,6.18963 -7.13699,0.91416 -4.33741,-1.21803 -6.49968,-8.02984 -11.20871,-5.4617 -4.18454,1.64892 -8.52292,6.45489 -5.01724,10.87402 0.45207,0.75304 3.20349,3.48738 0.80522,1.75435 z m 41.8629,-22.091937 c 3.09929,-1.062802 2.22252,0.478007 -0.0366,-1.916845 -2.63314,-4.209994 1.13806,-5.205525 3.85302,-2.180923 4.03333,3.390433 0.0567,5.242676 -3.81639,4.097768 z"
         id="path43" /><path
         style="fill:#944534"
         d="m 318.12387,158.89265 c -1.99256,-10.90836 -1.51901,-22.12971 -0.72168,-33.11704 0.75691,-7.12515 -6.2846,4.14744 -7.33324,6.80073 -1.27286,7.05401 3.45583,13.78448 2.38085,20.93557 -2.44419,-3.42528 -3.55556,-10.69163 -5.76629,-15.42812 -3.07099,-6.38025 1.72228,-11.84445 5.78259,-16.21394 2.841,-3.35897 3.36868,-9.58879 -1.23673,-11.70633 -4.47893,-0.44991 -2.35782,-4.20926 0.61988,-2.3145 2.09152,3.68368 7.17454,4.31689 9.43504,8.22059 2.58667,0.90941 5.50003,-6.01871 9.72988,-6.02354 -0.35016,-4.9014 8.67488,-1.75007 2.44962,-0.26644 -4.59437,2.09765 -5.43509,8.03394 -2.07457,11.65531 2.70508,4.08065 7.71892,7.26709 6.95332,12.79935 -0.70571,5.60025 -3.85555,10.59052 -5.11051,16.0918 -0.41488,2.65377 -1.73343,5.59968 -1.73456,1.12684 -0.0775,-6.54926 3.92872,-12.78523 2.4041,-19.29866 -1.46267,-2.80298 -5.65289,-9.33712 -7.14237,-8.59479 0.43877,11.42214 1.56546,23.07142 -0.75309,34.39586 -1.05946,-3.71968 -0.29126,-8.70788 -1.14166,-12.88182 -0.68942,-5.3032 -1.23983,-10.64231 -1.48096,-15.9701 -3.45,-6.11517 -2.74361,7.23676 -3.26038,9.88163 -0.91293,5.9649 -1.55749,11.94617 -1.58259,17.99269 -0.28149,0.47402 0.26713,1.7135 -0.41665,1.91491 z m -18.27589,-44.79803 c 0.17611,-2.87674 -2.65317,2.24315 -1.42548,-1.81254 -1.96691,-2.9431 4.1134,-6.49735 4.13349,-4.60624 -2.39797,1.13577 -2.04079,5.00753 -2.70801,6.41878 z m 44.24065,-0.81276 c 0.8267,-2.272 -5.04029,-7.73555 0.32376,-5.34588 1.54637,1.10016 2.93753,8.60698 -0.32376,5.34588 z"
         id="path42" /><path
         style="fill:#59231d"
         d="m 314.54794,159.59619 c -7.09449,-4.31236 -14.19629,-8.61268 -21.29896,-12.91156 0,-7.67447 0,-15.34893 0,-23.0234 5.16065,6.65965 8.15563,14.63721 10.89164,22.5014 -1.20278,-9.14578 -6.13652,-17.82368 -7.11791,-27.18088 -0.61903,-3.40631 3.20513,-8.12623 3.3748,-2.47828 0.17309,2.9059 6.8175,7.01131 2.72455,2.4936 -3.27444,-4.01976 -0.0212,-9.40207 4.50762,-10.33205 4.35745,0.7499 8.85372,5.35594 6.60164,9.9918 -2.13186,5.85489 -9.9348,9.40465 -8.27698,16.51361 1.35787,5.74501 3.93488,11.12867 5.39848,16.85769 1.88686,5.0647 1.14232,-4.87474 0.42223,-6.8015 -1.59498,-5.82108 -3.93291,-12.88081 1.25672,-17.689 1.43363,-1.71095 5.64137,-8.07789 4.33507,-2.07596 -0.67459,10.96207 -1.30028,22.13296 0.71861,32.97661 1.09617,-4.69385 0.47433,-12.24886 1.82508,-17.88126 1.26564,-3.89426 -0.7152,-12.51145 2.6628,-13.29349 1.81288,4.29358 0.82365,9.22608 1.8113,13.76769 0.82805,5.63299 1.01779,11.39926 1.40218,17.01457 1.98886,-6.71544 1.52193,-14.09898 1.56651,-21.115 0.272,-4.47214 -1.20106,-10.24657 -0.19162,-13.89568 3.3374,3.84944 7.9961,8.09073 7.13504,13.81065 -1.19379,5.66601 -3.12839,11.32061 -2.67014,17.21047 2.53377,-4.78314 3.31279,-10.54632 5.74397,-15.52306 2.84405,-5.82125 -0.51636,-11.59152 -4.82392,-15.5178 -3.94183,-3.68073 -4.7404,-10.99537 1.12519,-13.30981 3.54064,-3.24076 9.505,2.16247 8.57683,6.33249 -0.31166,2.02036 -5.01167,7.41529 -0.57961,3.96538 1.99379,-2.49572 3.28857,-9.94726 5.10126,-3.33023 0.60368,6.98141 -2.89328,13.49017 -4.57663,20.12239 -0.83285,2.66962 -2.64431,9.28448 -2.29341,9.54995 2.95159,-7.65628 5.24523,-15.88185 10.74793,-22.19674 -0.039,7.40246 -0.078,14.80492 -0.117,22.20738 -9.54762,5.87254 -19.02437,11.86148 -28.65548,17.59735 -2.48016,-1.38845 -4.8918,-2.89399 -7.32779,-4.35733 z M 293.21226,107.7698 c 0.0156,-4.10747 -1.68691,-11.182912 4.61673,-8.098942 3.00231,1.610452 9.02139,3.278182 9.79377,5.631742 -4.89099,0.55871 -12.42297,5.65244 -14.38297,5.85952 -0.009,-1.13078 -0.0184,-2.26155 -0.0275,-3.39232 z m 56.52527,3.3805 c -3.78021,-3.62834 -9.73643,-3.8395 -13.76662,-6.53791 4.53463,-1.54635 10.66598,-7.459383 14.69039,-4.617263 -0.54627,3.102063 1.09673,10.807113 -0.82438,11.237443 l -0.0993,-0.0823 z m -42.8625,-9.63154 c -5.28044,-1.50716 -6.35149,-8.841879 -2.5253,-12.419483 2.88991,-3.235964 6.94401,-5.311996 11.33199,-4.519927 5.78952,0.002 11.57905,0.004 17.36857,0.006 4.72212,2.352264 10.45851,6.84196 8.72504,12.829078 0.24666,4.169972 -12.51614,7.049182 -6.40697,2.128545 4.08591,-4.177215 2.58637,-13.811601 -4.42367,-13.158996 -3.67334,0.510436 5.62065,4.383929 0.82414,2.799899 -6.57271,-3.332351 -14.56412,-3.004328 -20.94084,0.62232 -0.36961,-0.501202 6.76381,-4.455601 0.91349,-3.490631 -5.24269,0.291786 -6.1027,6.488325 -4.19877,10.365685 0.17315,3.033664 6.18573,6.71935 0.36431,5.10305 l -1.03175,-0.26556 z"
         id="path41" /></g></g></svg>
