<?xml version="1.0" encoding="UTF-8" standalone="no"?>
<!-- Created with Inkscape (http://www.inkscape.org/) -->

<svg
   width="97.29464mm"
   height="100mm"
   viewBox="0 0 97.294638 100"
   version="1.1"
   id="svg1"
   xml:space="preserve"
   xmlns="http://www.w3.org/2000/svg"
   xmlns:svg="http://www.w3.org/2000/svg"><defs
     id="defs1" /><g
     id="layer1"
     transform="translate(-103.09982,-5.9105177)"><path
       style="fill:#027b9b;stroke-width:0.380348"
       d="m 150.53761,105.82339 c -11.37825,-4.39115 -22.16233,-10.125153 -33.20159,-15.273615 -4.91414,-4.48329 -4.90779,-11.663939 -7.91542,-17.247165 -2.17472,-5.668225 -4.64865,-11.236978 -6.32078,-17.084675 2.65879,-10.741489 8.14681,-20.474687 11.8201,-30.864977 2.20042,-6.163469 9.66279,-6.315403 14.47189,-9.538794 7.03148,-3.360952 14.06684,-6.7161376 21.17914,-9.9036466 6.5768,0.127592 11.66361,4.9915486 17.66188,7.0558526 6.2084,2.955798 12.40076,5.950752 18.71081,8.685978 4.5521,10.638168 9.65603,21.094774 13.32819,32.074118 0.89961,6.504984 -3.39089,12.12519 -5.04027,18.175373 -2.02055,5.478367 -4.05877,10.951973 -6.28294,16.351673 -4.86052,4.613662 -11.78347,5.792699 -17.44986,9.122177 -6.63656,3.124451 -13.06694,7.331491 -20.3808,8.534831 z m 2.96332,-1.45472 c 11.0902,-4.3248 21.40012,-10.351582 32.27343,-15.158123 4.50979,-4.559321 4.35526,-11.56374 7.68983,-16.836487 2.28023,-5.267846 4.42821,-10.651232 5.48111,-16.317708 C 196.96737,44.789781 190.98294,34.815908 186.259,24.570355 182.2471,19.530197 175.30277,18.767581 170.08475,15.411878 164.01521,12.447271 157.93033,9.4981374 151.66657,6.9610764 140.32968,12.4824 128.89808,17.806073 117.45935,23.11223 c -3.47732,9.006909 -8.01689,17.690676 -10.864,26.884552 -0.30253,6.432448 -0.54724,13.226492 2.64644,19.062371 2.50029,6.250405 5.17179,12.4407 7.28492,18.837791 5.09393,4.416238 11.96099,5.768428 17.70174,9.122199 5.61424,2.671754 11.13259,5.616557 17.0599,7.555577 l 1.11609,0.003 z m -3.31554,-1.4928 c -10.89147,-4.401965 -21.22872,-10.025724 -31.97518,-14.751977 -2.85289,-7.208235 -5.8206,-14.377869 -8.97666,-21.45126 -1.44676,-6.168793 -1.85954,-12.871919 -0.50739,-19.069837 2.49726,-6.844536 5.93781,-13.234428 8.82066,-19.916046 2.17876,-5.87151 9.1116,-6.278052 13.80069,-9.330002 4.66865,-2.511369 9.71952,-4.50165 14.3065,-7.009123 4.77074,-5.2356026 11.68435,-1.096296 16.54074,1.640463 7.40555,3.564719 14.73539,7.290934 21.92679,11.271416 4.23047,6.190474 6.20704,13.555088 9.63068,20.176549 3.54943,7.223473 3.29374,15.915971 0.61975,23.373208 -3.3071,6.393679 -5.44383,13.295434 -8.28198,19.899715 -10.7461,4.384962 -20.87978,10.145403 -31.51966,14.736104 -1.40868,0.4471 -2.91481,0.65804 -4.38494,0.43079 z m 0.29831,-2.26717 c -9.51522,-5.180898 -19.51631,-9.378102 -29.25504,-14.106241 6.61531,4.916019 14.6989,7.183764 21.84418,11.17585 2.33372,1.076381 5.29308,2.448911 7.41086,2.930391 z m 1.41496,-0.1157 c 1.7885,-5.824 -0.93942,-13.562874 3.35476,-18.092392 4.28086,-3.903837 9.06458,-0.248964 11.13016,3.070043 -0.49754,-3.677801 -2.98692,-7.42333 1.9663,-8.799961 2.77218,-4.639803 7.93393,-7.490031 12.47194,-3.32572 1.69463,1.506508 8.95198,4.06784 3.59161,0.588451 -5.19135,-1.790016 -9.87718,-5.775157 -7.13285,-11.558026 -0.19574,-5.33174 7.32362,-6.425795 6.49472,-0.521556 -0.37337,1.926796 -3.81171,9.051066 0.21135,7.126251 1.97055,-3.367285 0.13412,-10.41984 5.80158,-10.358288 -2.68815,1.346713 -8.6188,-2.590724 -2.83574,-2.840594 2.10554,0.419227 8.36364,-0.832007 2.98007,-0.979118 -1.94526,0.868304 -9.49526,-1.728697 -3.96354,-2.35241 1.70029,0.833179 7.3831,-0.364103 2.76258,-1.199507 -5.58291,1.432512 -2.3965,-10.39476 -6.84979,-8.175685 0.51903,3.472618 4.15541,11.324581 -2.49892,10.214608 -1.94125,-3.074728 -2.34722,-7.698458 -2.7969,-10.890909 1.32667,-3.37305 10.45619,-4.690655 8.75504,-7.195992 -4.41396,0.635778 -9.74742,8.274465 -13.53784,2.898046 -0.62368,-2.178998 -6.74693,-7.017859 -5.75394,-2.581596 1.98185,2.112376 8.00685,6.637257 2.59096,8.43391 -4.87492,-2.702725 -6.85844,-8.206824 -2.86837,-12.531123 1.00012,-3.252233 4.84055,-3.959821 5.64208,-0.421783 2.09699,1.099156 5.55149,7.759853 7.07791,4.159544 -2.02351,-4.591532 -7.57621,-9.469376 -12.45379,-9.276185 -1.77858,0.328065 -1.6148,-3.709484 -4.75325,-3.101361 -4.60894,0.389716 -5.72127,-3.397127 -6.70563,-6.595461 -2.7895,-1.414613 2.2925,3.31043 0.46758,5.026674 -1.65267,6.521042 7.95702,0.983736 9.4278,6.319557 0.007,3.237224 -1.82349,7.198609 -3.90482,9.595811 -2.70263,-0.30898 -10.47815,-2.09537 -5.61465,-5.687204 1.92844,1.007599 9.40786,2.03005 5.45489,-1.282172 -4.62288,-0.04878 -8.87404,-2.65247 -7.81216,-7.692936 -0.51528,-2.645152 0.693,-10.055299 -1.0648,-9.559128 -1.95453,5.031923 1.02337,12.070311 -2.61745,15.938076 -2.9665,0.550679 -7.20892,1.142497 -8.73929,2.797851 -1.79307,-1.987379 -2.71564,-10.109336 -6.2096,-5.858427 -0.12291,3.516811 7.21494,7.565957 0.64854,8.896262 -2.88929,4.915074 -8.41158,7.034464 -12.54294,2.396825 -2.43747,-1.551462 -5.92389,-1.133026 -1.68103,0.901835 4.46824,1.647637 8.8452,6.239623 5.24108,10.685362 1.2279,5.012407 -6.08954,7.232463 -5.57487,1.165534 0.57204,-2.066236 4.13973,-8.868242 -0.26582,-7.166436 -1.15969,3.977218 -2.65716,9.963378 -6.60142,9.997468 1.921,-0.649992 9.83681,0.521221 5.51928,2.385014 -1.98686,-0.475953 -10.59039,0.26196 -4.67677,0.957567 2.42566,-1.226994 8.28311,1.805664 3.72319,2.685705 -2.11903,-0.863177 -5.90888,0.327103 -1.72725,1.181384 2.5347,2.500182 2.6754,10.219479 5.72816,9.903475 -0.47492,-3.419803 -4.64905,-12.699862 1.69324,-11.218905 1.77133,3.607699 5.8471,10.130094 0.77922,12.621788 -1.5042,1.113175 -7.84213,3.811397 -5.88298,4.81415 4.26807,-1.144527 9.88885,-7.554386 13.4007,-1.980437 0.64897,2.735941 7.00574,3.797504 4.15553,0.434369 -3.13354,-1.301688 -5.33917,-7.956087 -0.049,-6.179052 3.03039,2.207527 5.65551,6.227189 1.4439,8.48763 -1.3276,2.273918 -4.69826,11.030687 -0.30094,5.522481 2.99663,-3.360203 3.35584,-10.804197 8.9277,-6.950767 4.47439,-0.79951 5.53257,6.51237 0.43791,4.111489 -1.68224,-1.283728 -8.05691,-2.24454 -5.56798,1.03328 5.51511,0.775951 11.9767,3.267268 9.58588,9.960394 0.194,3.36943 0.2324,6.89303 1.51865,10.062297 z m 1.33055,-21.927295 c -0.46921,-4.814261 11.14214,-5.343143 6.6929,-0.505482 -1.8881,0.773825 -5.20231,2.95237 -6.6929,0.505482 z m 9.77101,-1.790552 c -3.59151,-3.925617 4.89786,-9.725192 7.75266,-7.969924 0.6363,3.863459 -5.13472,6.15083 -7.75266,7.969924 z m -13.32958,-3.382799 c -6.5622,0.818965 -5.59377,-9.468019 0.18512,-8.942489 2.43781,1.914333 1.24874,6.71322 -0.18512,8.942489 z m 3.05743,-2.303056 c -0.6177,-2.556669 0.69586,-9.257843 1.45705,-3.09237 1.03807,2.496246 0.92982,-5.635427 2.35502,-1.006347 4.52984,2.467001 -2.34003,9.074995 -3.81283,4.497515 l 3.8e-4,-0.279198 z m 6.46841,-0.65407 c -2.04223,-2.204914 -4.3017,-9.95996 1.13902,-6.176233 0.0114,-1.372591 -2.01932,-4.762868 0.93537,-2.366254 6.31808,1.273553 3.57805,8.711282 -1.63895,8.973471 l -0.24781,-0.122107 z m -16.78543,-0.163477 c -5.3731,-1.218798 -5.36724,-8.29544 0.4694,-8.569435 3.96838,-1.761064 -3.1759,4.70954 1.64771,1.849947 5.67394,-2.418404 -0.75323,6.245168 -2.11711,6.719488 z m -13.14109,-3.559968 c -1.67188,-2.572734 -4.84258,-11.696968 0.99408,-9.568096 2.38077,2.380597 3.66846,8.957672 -0.99408,9.568096 z m 43.03238,-1.184986 c -4.53971,-2.371948 1.57305,-13.258589 3.71494,-7.099588 -0.35902,2.126506 -0.73676,7.521801 -3.71494,7.099588 z m -36.39342,-2.04955 c -3.39822,-3.43105 -1.46663,-9.900897 3.93888,-7.655083 6.11098,1.39987 -3.11708,1.337992 -2.90369,3.428152 2.04645,-1.824689 9.04487,0.179729 4.16545,1.74882 -1.87208,0.374955 -3.07212,3.847869 -5.20064,2.478111 z m 29.87469,-0.227775 c -2.64818,0.01126 -7.93459,-5.957899 -2.15762,-3.967477 2.98922,1.266262 5.35534,-1.563774 1.05428,-1.070687 -4.99817,0.137781 -4.20466,-6.262531 -0.72375,-6.908335 -1.89638,0.698075 -5.59652,1.498917 -2.37389,-1.099632 3.43871,-4.495663 9.53263,-0.739164 7.38882,4.221706 -1.79982,0.855171 -8.78802,1.402621 -3.12758,1.404576 6.16622,-1.644784 2.55664,9.090645 -0.0603,7.419849 z m -16.25234,-1.783687 c -4.01675,0.361319 0.27809,-4.907393 -3.33954,-3.601522 -2.52963,-1.31158 -0.35454,-5.930487 2.19593,-4.022084 -4.17936,-2.313702 3.42454,-6.470855 3.46326,-2.448718 2.81546,-5.252669 5.94523,1.187557 3.5438,2.646252 4.30934,-2.467336 2.83995,5.635033 -0.0438,4.007452 2.74518,4.503213 -4.55556,2.352087 -5.81963,3.41862 z m -9.50989,-6.219639 c -5.19025,2.34095 -8.39865,-5.118646 -3.31383,-7.050878 4.46007,-1.228151 10.14397,8.041719 3.31383,7.050878 z m -11.47224,-0.385665 c -4.03024,-1.950493 -0.0184,-12.927334 3.9557,-8.690555 0.0246,2.923115 -1.19842,6.748221 -2.51167,8.93497 l -0.74446,-0.02023 z m 44.00191,-0.08139 c -0.8993,-2.783428 -3.93508,-11.049149 1.56563,-8.836768 0.86771,3.098566 5.13853,10.619786 -1.56563,8.836768 z m -27.81634,-3.939343 c -5.31119,-0.560485 -9.75611,-9.031304 -2.09199,-9.358347 3.97134,1.374928 4.70997,9.247734 0.23148,5.249433 -0.29992,1.309028 3.26613,3.522775 1.86051,4.108914 z m 13.90391,-0.493311 c 2.46509,-1.269381 1.51061,-5.529179 -1.04972,-2.760033 -0.37946,-5.30971 6.96087,-8.355453 7.84225,-1.931422 -0.74439,2.93651 -4.96575,2.741909 -6.79253,4.691455 z m -8.43956,-3.207915 c 0.0564,-2.670499 -3.20976,-7.422924 0.68155,-8.564329 -0.31179,2.842679 0.73051,5.896115 -0.68155,8.564329 z m 2.46762,-1.157285 c -1.08766,-2.275177 0.26108,-8.995506 1.20076,-8.481371 2.25314,2.750003 0.46169,7.294039 -0.92668,9.450775 z m 2.90262,1.169771 c -2.02511,-2.977112 1.91389,-11.539592 3.71304,-5.875645 -0.87399,2.102731 -1.64095,4.656158 -3.71304,5.875645 z m -7.98246,-1.086509 c -1.51457,-2.003742 -5.04553,-7.780287 0.0734,-7.163298 0.62942,2.307799 1.05633,4.933291 -0.0734,7.163298 z m -13.51329,-2.504588 c -6.25331,-1.772508 2.46045,-7.937134 5.44639,-8.06735 4.09163,2.746013 -3.55284,6.505433 -5.44639,8.06735 z m 3.18211,0.08282 c 1.06446,-3.326934 8.27179,-6.651361 9.08993,-5.854459 -3.31175,1.394796 -6.60483,3.217975 -9.08993,5.854459 z m 5.31041,-6.675893 c -4.75463,-4.549115 8.64665,-8.727488 8.05974,-2.536603 -1.32258,2.856099 -5.84867,0.68827 -8.05974,2.536603 z m 12.65101,62.949753 c 9.44605,-4.145746 18.79989,-8.522699 27.86735,-13.448657 -7.41026,2.675082 -14.30327,6.622607 -21.50078,9.82339 -0.69164,0.309227 -9.94548,4.748636 -6.36657,3.625267 z m -8.03322,-10.754706 c 2.35816,-4.195309 -7.12107,-3.983174 -8.25958,-3.39767 0.39738,3.769955 5.98593,1.867576 8.25958,3.39767 z m 9.59304,-0.287524 c 2.93737,1.717385 7.7072,-4.288293 2.02965,-2.931371 -1.61469,-0.07757 -5.95202,2.446819 -2.02965,2.931371 z M 118.44546,83.73362 c -2.61625,-5.881746 -5.12182,-11.812895 -7.82228,-17.65702 1.47916,6.133372 4.98733,11.65648 6.8919,17.545122 0.10148,0.347413 1.4743,1.19705 0.93038,0.111898 z m 51.77161,0.186523 c 2.42749,-1.546419 10.13013,-6.263699 5.83456,-8.388562 -2.55017,1.460681 -8.8565,6.211344 -6.09469,8.557832 z m 15.79917,-0.201269 c 3.35816,-5.363845 4.51462,-11.754245 7.50591,-17.293396 0.215,-2.584319 -2.7668,4.29126 -3.28695,5.708212 -1.28659,3.478772 -4.33801,9.652085 -4.21896,11.585184 z m -52.5828,-0.806767 c 0.079,-3.798253 -6.45232,-8.035725 -8.4612,-6.495023 1.42358,3.28578 4.71513,6.433882 8.4612,6.495023 z m -7.13098,-46.289808 c 0.9284,-3.128097 9.11018,-5.909844 5.97973,-8.627209 -3.28731,1.095398 -8.90954,6.290749 -7.14594,9.032797 l 0.62525,-0.09619 z m 13.39687,-10.479108 c 3.71621,-1.71066 11.03035,-0.591951 8.95073,-6.922807 1.56506,-3.172554 -0.44676,-3.416726 -0.72173,-0.241213 0.68837,5.49311 -12.69646,2.457481 -8.229,7.16402 z"
       id="path4" /></g></svg>
