<?xml version="1.0" encoding="UTF-8" standalone="no"?>
<!-- Created with Inkscape (http://www.inkscape.org/) -->

<svg
   width="86.755074mm"
   height="99.047234mm"
   viewBox="0 0 86.755072 99.047234"
   version="1.1"
   id="svg1"
   xml:space="preserve"
   xmlns:xlink="http://www.w3.org/1999/xlink"
   xmlns="http://www.w3.org/2000/svg"
   xmlns:svg="http://www.w3.org/2000/svg"><defs
     id="defs1"><linearGradient
       id="linearGradient42"><stop
         style="stop-color:#ebcbd4;stop-opacity:1;"
         offset="0"
         id="stop42" /><stop
         style="stop-color:#d5e4f4;stop-opacity:1;"
         offset="1"
         id="stop43" /></linearGradient><linearGradient
       xlink:href="#linearGradient42"
       id="linearGradient43"
       x1="229.40309"
       y1="66.051208"
       x2="277.55209"
       y2="45.815159"
       gradientUnits="userSpaceOnUse" /></defs><g
     id="layer1"
     transform="translate(-210.34775,-10.604847)"><g
       id="g43"><path
         style="baseline-shift:baseline;display:inline;overflow:visible;opacity:1;fill:url(#linearGradient43);fill-opacity:1;stroke:none;stroke-width:2.11278;stroke-linecap:round;stroke-linejoin:round;stroke-dasharray:none;stroke-opacity:1;enable-background:accumulate;stop-color:#000000;stop-opacity:1"
         d="m 253.72528,17.226164 37.153,21.451148 v 42.902294 l -37.153,21.451154 -37.15482,-21.451154 V 38.677312 Z"
         id="path42" /><path
         style="baseline-shift:baseline;display:inline;overflow:visible;opacity:1;fill:#a6a8c9;fill-opacity:1;stroke:#3f405c;stroke-width:2.11278;stroke-linecap:round;stroke-linejoin:round;stroke-dasharray:none;stroke-opacity:1;enable-background:accumulate;stop-color:#000000;stop-opacity:1"
         d="M 252.43325,12.006835 212.69618,34.94922 a 2.5838588,2.5838588 0 0 0 -1.29204,2.236855 v 45.884767 a 2.5838588,2.5838588 0 0 0 1.29204,2.236854 l 39.73707,22.942394 a 2.5838588,2.5838588 0 0 0 2.58407,0 l 39.73707,-22.942394 a 2.5838588,2.5838588 0 0 0 1.29204,-2.236854 V 37.186075 A 2.5838588,2.5838588 0 0 0 294.75439,34.94922 L 255.01732,12.006835 a 2.5838588,2.5838588 0 0 0 -2.58407,0 z m 1.29203,5.219329 37.153,21.451148 v 42.902294 l -37.153,21.451154 -37.15482,-21.451154 V 38.677312 Z"
         id="path41" /><path
         style="fill:#e8dcca;fill-opacity:1;stroke:none;stroke-width:4.66701;stroke-linecap:round;stroke-linejoin:round;stroke-dasharray:none;stroke-opacity:1"
         d="m 230.86427,63.692714 c 0,0 -4.88601,2.094008 -4.71151,8.550529 0.1745,6.456521 0.698,10.470033 2.96651,11.691538 2.26851,1.221504 8.72503,4.711517 8.72503,4.711517 l 3.83901,-1.745006 2.09401,1.745006 0.349,3.664511 9.59753,5.235019 10.12104,-5.409519 1.39601,-5.93302 4.01352,1.919507 10.99351,-5.40952 1.39602,-2.966508 -0.34901,-10.644536 -2.61749,-3.839012 -2.44303,-0.174501 c 0,0 1.22152,3.664511 -1.22151,6.980023 -2.443,3.31551 -9.77201,3.664511 -9.77201,3.664511 l -4.53703,0.349002 -1.745,1.919507 -2.79201,-0.523502 -5.75852,0.872503 -2.61751,-2.79201 -12.38954,-2.966509 -4.01351,-3.664513 z"
         id="path43" /><path
         id="path5"
         style="fill:#363854;stroke-width:0.461743"
         d="m 253.55827,95.327227 c -1.56886,-2.569621 -6.89064,-4.279546 -9.19194,-5.363602 1.0697,3.583806 6.33232,4.158274 9.1707,6.340783 z m 5.04879,-1.202456 c 1.50513,-0.55031 6.57745,-3.33018 4.8071,-4.290554 -2.70693,2.105085 -7.69159,2.630451 -8.8981,5.775804 -0.39064,1.80645 3.61721,-1.739536 4.091,-1.48525 z m -5.0719,-1.882608 c -1.67184,-3.084016 -8.3593,-3.834643 -9.10404,-6.275234 1.93023,0.780922 5.91383,2.858967 7.07632,2.931982 -2.01529,-0.351894 -6.89364,-4.924351 -7.61174,-2.705262 0.81973,3.933871 6.61237,4.647218 9.67058,6.534346 z m 2.11234,0.198383 c 2.41164,-1.820669 8.83965,-3.254814 8.12412,-5.898849 -2.85061,1.854658 -6.06344,3.193481 -9.07398,4.82056 0.041,0.646015 -0.47754,2.381004 0.94986,1.078289 z m 0.0405,-4.699875 c 2.49657,-2.223808 9.75191,-2.476251 8.90509,-6.415521 -1.30311,-1.067401 -5.6527,-2.573564 -2.1377,-0.150985 4.13668,1.810096 -3.37701,3.582887 -5.22788,4.971998 -1.41154,0.348833 -2.83217,2.303999 -4.23539,1.180454 -2.19424,-1.844407 -8.30977,-2.990577 -8.03446,-5.484121 1.92606,-0.830024 6.83877,-4.201553 1.91673,-1.996612 -3.64125,0.59296 -4.92275,4.191935 -0.62955,4.901998 3.17864,0.990096 5.86799,4.666486 9.44316,2.992789 z m -17.05564,-1.129907 c -1.43581,-3.416697 -6.72056,-3.891184 -9.65138,-6.18724 -3.24905,-3.104965 5.023,1.025258 6.64458,2.074208 2.41749,2.005629 3.44504,1.456641 3.04281,-1.446155 -2.26551,-3.530623 -7.52914,-4.47515 -11.10659,-6.71878 -1.56404,2.948305 -0.2441,9.337327 4.68649,9.913771 1.59632,0.320592 6.337,4.738712 6.38409,2.364196 z m 33.59057,-0.344405 c 3.3237,-2.433799 9.81018,-3.226851 8.504,-8.684524 0.24067,-2.09627 0.37983,-4.874409 -2.44947,-2.182616 -2.63027,2.589818 -9.49789,2.289976 -8.4663,7.165775 0.85322,2.969771 5.52779,-2.275671 7.91927,-2.727158 1.97378,-1.790777 3.98858,-0.798192 1.14833,0.647972 -2.80017,2.590265 -8.79676,2.736961 -9.22868,6.967803 0.90698,-0.274557 1.7401,-0.744921 2.57285,-1.187252 z m -3.18784,0.127815 c -0.19247,-4.033903 -0.15715,-7.922801 -5.23598,-8.411565 -1.73271,-1.825042 -5.52792,-0.874088 -1.64528,0.607376 3.52491,0.940021 5.59729,3.72468 4.21497,7.273804 0.52962,0.105319 3.47334,2.601597 2.66629,0.530385 z m -13.87136,-0.676328 c 2.77529,-3.855962 -7.57218,-4.644392 -4.10334,-0.884172 1.28159,0.55471 2.68455,2.024067 4.10334,0.884172 z m 2.44514,-1.274844 c 3.32158,-0.573234 0.10378,-4.228805 0.50952,-4.139471 1.91625,-1.559019 2.81489,5.280682 3.16663,1.188484 -1.92438,-2.848768 -6.6727,-4.160338 -8.40058,-0.188359 0.97122,0.410337 2.398,-1.653607 2.08005,-0.130604 0.80236,-0.355001 -1.02732,1.989257 1.07692,2.750462 0.14071,1.320229 0.75207,1.006211 1.56746,0.519488 z m -16.88521,-0.82488 c 0.89545,-3.55823 5.74491,-4.308608 8.11971,-6.646143 -2.72323,-1.770109 -7.66074,1.511861 -9.05761,3.691069 0.16506,0.713591 -0.72314,5.014585 0.9379,2.955074 z m 8.77778,-0.500192 c 2.12299,-1.57529 3.39145,-3.858921 5.90421,-4.921054 -3.79082,-0.774979 -3.68653,4.389769 -7.30475,3.247653 -2.48512,0.674643 1.10254,3.505924 1.40054,1.673401 z m -10.14433,-5.211074 c 1.02456,-4.262997 -5.54447,-4.345077 -7.40016,-7.520208 -0.84615,-1.914736 -5.10543,1.942856 -2.42836,-1.127497 2.56152,0.02738 -0.20003,-2.788829 0.30116,-4.038457 -3.64276,3.041753 -3.57133,8.514003 1.74584,9.27181 0.67241,0.750475 1.77025,-4.894961 0.94815,-1.203379 -0.27478,2.51399 5.07426,4.240187 6.83337,4.617731 z m 12.6528,-0.252435 c 6.17376,0.928352 3.95548,-6.508202 7.751,-9.194307 3.3265,-3.587537 8.60865,-2.284287 12.28216,-4.882748 1.61054,-1.113797 4.04062,-6.529142 0.69342,-2.948314 -3.96877,2.33373 -9.47774,1.599342 -12.62648,5.496556 -2.71056,2.128643 -4.27963,6.36002 -4.71831,8.914842 -1.6011,-3.872063 -0.12511,-8.075149 -0.70483,-12.148596 -0.046,-2.830815 -3.6e-4,-5.661648 0.0679,-8.491659 -2.26984,-0.382568 -0.53375,3.399377 -1.21019,4.640781 -0.15686,4.55805 0.18236,9.513144 -0.98081,13.789897 -2.87265,-3.786031 -4.6229,-9.076636 -9.5994,-10.711939 -4.00403,-0.583172 -8.96724,-0.960513 -10.54378,-5.508354 -0.24874,4.159793 3.82296,9.333951 8.56075,8.127159 5.9477,0.652152 11.42918,5.934963 11.22205,12.118287 -2.56038,-2.994068 -6.37799,-6.834441 -11.03136,-6.253846 -4.4006,0.674144 -8.73259,-1.846832 -9.8345,-6.257762 -0.27169,6.006329 6.1942,9.122561 11.42969,8.794964 4.12138,-0.428848 6.53471,3.473671 9.24273,4.515039 z m 18.1991,0.08357 c 3.26214,-2.403236 10.83857,-2.87474 10.1753,-7.883946 -0.34456,-1.742801 -3.60532,-6.613872 -2.89863,-1.980534 -0.6063,4.69348 -3.68265,7.839956 -8.38624,8.389827 -4.40643,0.363082 -1.36862,1.420098 1.10957,1.474653 z m -11.66303,-0.56056 c 2.89908,-4.874335 9.16853,-0.748896 13.18534,-3.591176 2.40966,-0.374413 5.89611,-7.756006 2.06542,-3.194538 -4.62633,2.939814 -11.36712,0.180047 -15.1839,4.799246 -0.42552,0.492232 -1.8803,2.749872 -0.0669,1.986468 z m 1.21939,-4.565734 c 0.0499,-1.480144 3.99885,-1.829563 6.51727,-2.05807 2.87841,0.471836 10.49402,-1.59322 4.0687,-3.450062 -2.80567,-1.272743 -6.25605,0.335991 -8.63494,1.971461 -0.90854,-0.06539 -4.08286,4.916746 -1.95103,3.536671 z m -15.31613,-3.207194 c -1.52379,-3.006642 -7.65871,0.209926 -3.38499,-2.341511 -2.06067,-1.809879 -8.33886,-0.03112 -3.66872,1.961538 2.01795,0.438771 5.55146,1.165545 7.05371,0.379973 z m 12.11917,-4.955879 c 1.66545,-3.82008 5.07831,-7.059426 9.44761,-7.084032 5.33133,-0.512161 8.28131,-7.502243 6.02834,-12.045773 -0.67628,3.769762 -3.42441,7.883809 -7.69734,9.082826 -4.59262,1.486141 -8.18959,5.744549 -8.15284,10.683731 z m -4.92653,-2.457515 c -0.60444,-5.222456 -5.34566,-8.047268 -9.77441,-9.80359 -3.49051,-0.665611 -5.03642,-4.566761 -6.74208,-6.591812 -1.84127,4.228922 0.12658,10.515156 5.24131,10.919024 1.24681,-0.960628 4.29604,-0.36003 5.90223,0.940875 2.42386,0.454105 5.13631,6.531866 5.61563,5.653706 l -0.0979,-0.500696 -0.14474,-0.617511 z m 1.84671,-9.473434 c -0.75026,-2.135911 -5.2728,-7.737961 -6.25056,-4.216066 0.82043,2.587763 3.47889,4.787763 6.25056,4.216066 z m 3.53027,-0.149356 c 5.18795,-0.744878 5.0997,-9.124732 0.11668,-3.217563 -0.95638,1.406166 -4.14468,4.664549 -0.11668,3.217563 z m -2.34752,-2.353196 c 2.59979,-1.760234 2.06,-8.953347 -1.34982,-7.850367 -1.91212,1.711788 -2.10547,8.699409 1.34982,7.850367 z m -4.20687,-4.570813 c 1.11148,-3.631559 -6.07164,-5.444659 -3.24191,-0.283331 0.56767,1.402297 4.09822,3.445418 3.24191,0.283331 z m 8.87561,1.421812 c 2.8463,-0.618065 3.15655,-7.80118 -0.53381,-4.000166 -1.87453,0.789712 -1.05919,2.784006 -1.19923,4.341226 0.58281,-0.08541 1.16181,-0.196516 1.73304,-0.34106 z m -8.91173,-4.71341 c 0.47326,-2.619436 -0.75247,-6.404003 -3.60145,-5.869395 -0.20759,2.382814 1.29782,5.973789 3.60145,5.869395 z m 8.18785,-0.151569 c 3.30072,-0.567298 4.43452,-8.846466 0.23367,-4.487951 -1.01385,0.367087 -1.72682,5.57027 -0.23367,4.487951 z m -5.60791,-1.187061 c 1.25972,-3.74104 3.71196,4.374536 3.48422,-1.382225 0.32473,-2.477785 -2.53635,-9.493986 -4.08552,-3.746662 -0.8257,0.64912 -1.30588,8.222111 0.6013,5.128887 z m 7.10326,-5.1155 c 1.74286,-1.673793 2.13105,-7.000208 -1.21254,-3.657321 -1.73965,0.981772 -2.24074,7.265169 1.21254,3.657321 z m -9.70939,0.589999 c 2.26487,-3.317764 -4.91244,-8.029197 -3.2133,-2.2964 -0.0826,1.207635 2.44504,2.708964 3.2133,2.2964 z m 6.16803,-3.021307 c 1.7581,-1.949998 -1.10066,-8.42778 -3.26019,-6.796183 -2.15597,0.590405 -3.06327,7.759814 -0.92692,6.444071 2.19894,-4.175178 2.22477,0.187503 4.18711,0.352112 z m -3.94943,64.404857 c -3.37033,-2.557615 -9.93222,-3.121647 -9.9608,-8.318625 -0.16794,-3.336575 -4.56552,2.174037 -6.34881,-0.996556 -3.42202,-2.651132 -9.39386,-3.184029 -10.65286,-7.790489 -0.16417,-5.149751 -1.65387,-11.229844 2.01368,-15.535949 2.57472,-2.224926 5.8226,-3.441594 3.24747,-7.141071 -1.0695,-2.609442 1.19351,-7.648567 2.39483,-2.590635 1.61319,4.722546 6.29913,5.218232 10.44699,5.609069 3.57998,0.301463 6.65561,6.334707 7.9185,6.681416 -1.11095,-4.787297 -4.78171,-9.30054 -9.81117,-10.068561 -4.16942,1.656926 -9.14188,-2.970137 -8.9561,-7.265803 -1.11107,-2.778839 3.08905,-11.381585 4.24827,-4.945943 0.99445,5.634522 7.30295,5.893352 11.07946,8.807197 1.87991,0.03449 4.4649,6.94104 4.39853,4.410035 -0.40068,-1.293106 0.76457,-3.954031 -0.85343,-4.183831 -3.43144,-0.38846 -6.20202,-3.45155 -6.4547,-6.861312 -4.20629,0.634511 -6.97381,-8.316112 -2.76053,-8.333082 1.59327,1.363298 -1.6578,3.079669 0.52762,5.49331 3.12065,4.190626 1.69842,-1.466939 2.31973,-3.332626 -0.56509,-4.088403 0.0942,-8.521397 0.66672,-12.513806 2.16379,2.215406 3.00376,1.824565 2.98926,-1.26703 1.10712,-1.170797 2.3548,0.867299 2.9875,-1.859208 2.94875,-3.525552 4.23565,2.828884 6.95732,1.313497 1.11133,1.519025 0.20597,5.529404 2.48623,2.237241 2.31744,2.207068 1.51586,7.957748 1.40578,11.455655 1.50908,1.447895 -1.60716,7.826618 2.22022,4.255523 1.76186,-1.42182 -1.06319,-8.176945 2.35473,-4.944473 1.69382,4.169083 -2.24844,6.714997 -4.4635,8.467962 -0.31363,4.2023 -5.46145,4.832149 -7.04223,7.106767 0.0526,1.744935 -0.49206,5.784859 1.23445,1.822207 2.81344,-4.023375 8.52026,-4.047123 11.45641,-7.816787 1.48783,-1.933864 1.51393,-10.206424 4.4908,-4.889443 1.62894,3.800715 2.37297,9.005654 -1.27129,11.931708 -3.34156,3.442947 -9.25491,1.696858 -12.23417,5.757418 -1.76618,1.242642 -4.30812,8.141067 -1.28114,3.443741 3.08995,-4.418646 8.63604,-4.589505 13.12581,-6.106315 2.75651,-0.442664 3.83707,-9.322362 4.90128,-3.789453 0.62359,3.482745 -3.48318,7.58361 1.89658,8.422915 4.57691,2.455487 4.61537,7.953655 4.24695,12.443613 1.38563,5.349477 -3.18781,7.899959 -7.32314,9.755721 -2.79731,1.82477 -6.275,3.645218 -9.22874,1.202128 0.6302,4.772267 -3.77396,6.434952 -7.26401,8.214318 -1.87993,0.733788 -4.00912,3.058657 -6.1085,1.719557 z" /></g></g></svg>
