<?xml version="1.0" encoding="UTF-8" standalone="no"?>
<!-- Created with Inkscape (http://www.inkscape.org/) -->

<svg
   width="80.109062mm"
   height="100mm"
   viewBox="0 0 80.109061 100"
   version="1.1"
   id="svg1"
   xml:space="preserve"
   xmlns="http://www.w3.org/2000/svg"
   xmlns:svg="http://www.w3.org/2000/svg"><defs
     id="defs1" /><g
     id="layer1"
     transform="translate(-312.66884,-9.177723)"><g
       id="g44"
       transform="matrix(0.47150039,0,0,0.47150039,92.562513,-13.265214)"><path
         style="baseline-shift:baseline;display:inline;overflow:visible;opacity:1;fill:#93152e;fill-opacity:1;stroke:#92a3f2;stroke-width:4.1377;stroke-linecap:round;stroke-linejoin:round;stroke-dasharray:none;stroke-opacity:1;enable-background:accumulate;stop-color:#000000;stop-opacity:1"
         d="m 549.24196,50.344647 -77.82167,44.930697 a 5.0602672,5.0602672 0 0 0 -2.53034,4.380701 v 89.861415 a 5.0602672,5.0602672 0 0 0 2.53034,4.38068 l 77.82167,44.93072 a 5.0602672,5.0602672 0 0 0 5.06067,0 l 77.82167,-44.93072 a 5.0602672,5.0602672 0 0 0 2.53034,-4.38068 V 99.656045 A 5.0602672,5.0602672 0 0 0 632.1243,95.275344 L 554.30263,50.344647 a 5.0602672,5.0602672 0 0 0 -5.06067,0 z m 2.53032,10.221615 72.76099,42.010248 V 186.597 L 551.77228,228.60724 479.00774,186.597 v -84.02049 z"
         id="path46" /><path
         style="fill:#c1425d"
         d="m 542.98483,194.5791 c 1.36018,-8.16895 -1.30182,-15.58641 -6.11824,-21.67963 8.9133,-1.43137 8.27236,-9.48209 7.76367,-16.56469 0.0506,-7.98808 0.20687,-15.98942 -0.38231,-23.96325 -21.65913,-12.4735 -43.28176,-25.01024 -64.90854,-37.5397 -5.78101,-8.264578 0.33051,-18.189097 9.06071,-20.495593 5.05741,1.743159 -1.17162,13.777494 7.53685,14.077913 12.58637,7.484262 25.35831,14.66986 37.64621,22.64456 -0.96023,6.56963 12.2756,12.79577 11.2272,2.06519 5.47756,1.08125 -0.30689,4.94982 5.06986,4.72248 0.0856,2.05515 3.22353,-0.46987 5.29894,-0.37847 0.47501,3.34173 6.04291,-3.94013 4.67217,2.08263 10.74394,5.35764 10.44965,-9.73197 18.25932,-12.45027 10.10698,-4.8831 18.82518,-12.051982 28.75584,-17.290827 9.49113,-1.266238 4.06963,-11.682144 8.05598,-15.921458 4.77556,3.562757 13.71049,5.707456 11.61093,13.267423 -0.61256,2.908796 1.64268,7.466524 -2.07471,8.590035 -21.43563,12.482277 -42.79893,25.089697 -64.33471,37.399227 -0.0623,11.72986 -0.12453,23.45972 -0.1868,35.18958 7.64245,4.67111 -0.68957,11.6351 1.58756,19.01576 -0.53959,3.57722 0.84494,13.05966 -1.20825,5.80017 -0.62683,3.77836 0.72352,7.54424 -4.754,6.50603 -4.55984,6.29574 -14.3509,-1.39662 -12.25395,-4.78891 -0.0951,3.61049 -0.31676,11.5221 -0.30284,3.55741 -0.007,-1.28187 -0.014,-2.56375 -0.0209,-3.84561 z m -37.62279,-12.48656 c 0.10001,-7.5359 -0.0664,5.73737 -3.66999,-1.05391 -0.40017,-6.35098 -15.71856,-6.73394 -10.75491,-13.12879 10.06756,-6.19613 20.5697,-11.68691 30.34487,-18.35401 -10.36166,-6.51709 -20.50356,-13.68097 -32.17677,-17.64762 -5.0086,-4.61779 -15.97513,-5.71063 -15.76561,-13.84771 0,-4.71794 0,-9.43589 0,-14.15383 21.58863,11.40808 42.33656,24.30426 63.42611,36.58933 -0.24209,7.65338 3.03614,17.48953 -3.38932,23.24735 -2.79775,7.48232 -11.70197,0.34412 -16.64843,6.97642 -5.7719,3.65254 -13.91288,6.17234 -11.25746,14.79633 -0.0687,-1.13998 -0.0678,-2.28257 -0.10849,-3.42356 z m 89.23336,-7.27605 c -5.6978,-1.85982 -11.31457,-9.68564 -17.31295,-6.554 -7.0598,2.41981 1.01235,-1.80962 0.29961,-2.73149 -0.24953,-0.33667 -6.1579,0.83575 -4.8612,-1.24888 -2.68683,-2.84143 -7.00271,-4.38002 -5.12108,-9.88535 -0.15383,-4.30385 -0.0273,-8.61772 -0.0685,-12.92559 21.38114,-12.5377 42.6182,-25.32372 64.1731,-37.56305 -1.02237,6.3868 3.02482,16.56783 -3.53705,19.84652 -7.39635,4.14982 -13.63971,9.57214 -21.88649,11.62377 -6.83121,4.69197 -14.31374,8.29088 -21.26677,12.73794 -2.19715,5.7324 10.29556,6.66453 13.43385,10.78213 3.04428,3.31608 17.06727,6.68348 11.52612,11.54794 -4.4273,2.6021 -12.96378,-0.70915 -15.37859,4.37006 z m -42.2777,-69.58541 c -7.55922,-3.54972 -4.84448,-13.893859 -10.07045,-19.520548 -6.6998,-4.849276 -17.29498,-8.343707 -14.33509,-18.839507 1.38031,-8.6714 12.29117,-9.873953 17.82256,-15.262526 8.3874,-8.84332 15.00834,4.377684 23.30146,6.13825 8.85541,2.767874 10.63001,15.308205 4.46955,21.468185 -7.27157,3.493342 -14.60443,7.863088 -15.64626,16.885697 -1.41127,4.993899 -1.10214,8.599049 -5.54177,9.130449 z m 15.21354,-1.15088 c -2.5296,-6.462165 4.35681,-13.569932 9.6889,-16.50733 4.04744,-3.031387 14.37621,-10.543977 12.38424,-0.084 -1.88646,8.724907 -14.30081,10.600251 -20.6931,16.10933 l -1.28035,0.7658 -0.0997,-0.28383 z m -29.60264,-0.79974 c -6.81706,-2.62128 -15.45123,-5.744147 -18.98769,-12.309073 -3.20276,-6.430817 0.99022,-11.853896 6.22283,-5.139463 7.91701,1.337767 8.76603,8.774527 12.87628,13.988896 -0.59965,2.11927 0.97978,3.38817 -0.11142,3.45964 z"
         id="path45" /><path
         style="fill:#3e4e98"
         d="m 551.40339,259.67714 c -7.92389,-2.25985 -9.57718,-8.02453 -8.33899,-15.54457 -0.0105,-17.18957 -0.0903,-34.38149 0.28685,-51.5682 -2.00178,7.18605 5.22565,11.767 10.79596,8.40926 3.85372,-1.65966 8.09044,-1.92041 5.69494,-7.78481 3.75639,5.68113 0.28467,19.53581 1.58991,28.0549 -0.79453,11.05495 1.65646,24.05462 -1.21902,33.89344 -2.81267,1.61921 -5.27399,4.75743 -8.80965,4.53998 z m -55.30964,-35.76446 c -10.43797,-2.42276 -7.94629,-12.86772 -7.9357,-20.88782 -0.0826,-10.71611 0.0222,-21.49616 0.19647,-32.16977 -1.53036,2.32954 3.34582,-6.54226 1.77649,0.22539 4.74466,4.16938 10.74345,7.0248 14.09636,12.06717 2.35132,-6.09881 0.78265,7.87484 1.32772,10.88304 -0.3209,5.67063 -0.63117,12.59205 5.71963,6.5086 4.2274,-1.55511 10.40721,-7.59321 13.4211,-5.36168 -0.3686,8.10892 1.61799,16.88595 -8.64926,19.04278 -6.37894,2.30456 -13.50369,10.79131 -19.95281,9.69229 z m 106.2302,-1.53397 c -6.33399,-5.56435 -18.76237,-7.5604 -20.95601,-15.63697 0.54743,-5.33161 -2.57916,-17.63254 5.4894,-10.01059 4.98948,2.08758 14.40119,11.82092 12.15026,0.63979 -0.27838,-8.51093 2.45505,-18.79783 -4.13432,-24.374 6.63462,-2.09226 11.27549,-0.12305 17.16707,-3.49334 -0.62894,-3.04552 -4.63492,-4.99547 0.39514,-2.09439 6.16041,1.09792 9.32064,6.80364 3.57095,10.3064 -0.0641,13.88593 0.21445,27.79994 0.28855,41.69741 -4.4995,1.86409 -9.32412,7.87554 -13.97104,2.96569 z"
         id="path44" /></g></g></svg>
