<?xml version="1.0" encoding="UTF-8" standalone="no"?>
<!-- Created with Inkscape (http://www.inkscape.org/) -->

<svg
   width="61.927132mm"
   height="99.999992mm"
   viewBox="0 0 61.927131 99.999991"
   version="1.1"
   id="svg1"
   xml:space="preserve"
   xmlns="http://www.w3.org/2000/svg"
   xmlns:svg="http://www.w3.org/2000/svg"><defs
     id="defs1" /><g
     id="layer1"
     transform="translate(-41.749037,-118.86481)"><g
       id="g24"
       transform="matrix(1.4843774,0,0,1.4843774,-160.15508,-152.08503)"><path
         style="fill:#7a848a"
         d="m 152.09376,214.22227 c -2.03843,-0.15443 -7.04443,-0.44164 -7.0889,-1.06676 7.44511,-1.41318 15.09637,-0.95387 22.60608,-0.46723 3.22999,1.64688 -4.73099,1.27487 -6.50963,1.55956 -3.00167,0.10175 -6.00603,0.0585 -9.00755,-0.0256 z m -9.39608,-4.09597 c -2.34221,-7.13727 6.06264,-15.04683 12.95932,-11.56313 3.4887,0.59242 7.84293,-2.42779 11.25875,0.62523 3.8105,1.91679 6.57242,9.5818 3.29805,11.80196 -8.10493,-1.16762 -16.41066,-1.30575 -24.5373,-0.27256 -1.04947,-0.0799 -2.89001,1.27809 -2.97882,-0.5915 z"
         id="path26" /><path
         style="fill:#0a283a"
         d="m 138.44623,249.23056 c 0.65315,-3.28758 4.18432,-6.78766 2.54932,-10.01024 -2.14421,-2.90821 -4.87314,-5.99027 -4.26918,-9.88817 -1.2656,-3.98643 3.5968,-7.42263 1.34237,-10.76907 0.0424,-3.90379 -3.19788,-8.02313 -1.61198,-12.34091 1.32608,-7.24277 9.22917,-13.3817 16.55623,-10.98822 -2.68106,1.31092 -7.70606,0.59802 -10.38461,3.48739 -5.40861,3.82311 -6.99984,12.23406 -2.81158,17.51424 1.11866,2.20196 5.83776,0.5072 2.82189,-0.96147 -5.40713,-2.73227 2.80522,-5.36351 5.583,-4.84464 7.80538,-0.66864 15.88842,-0.84709 23.49453,1.24162 3.88248,1.37962 0.0408,3.24241 -1.1565,4.70694 3.7445,2.98102 6.96596,-5.07167 5.97874,-8.59725 -0.74515,-6.83399 -7.3289,-12.36147 -14.20712,-11.79678 -3.26417,-1.2544 4.54137,-1.90535 6.04673,-0.65599 8.13991,2.83629 11.85683,13.65102 7.55003,21.02408 -0.58378,3.25685 -1.18371,5.3008 0.8834,8.20994 1.64129,4.73209 0.27911,10.12726 -3.09467,13.76485 -2.93878,3.38873 0.90276,7.08728 1.62228,10.59746 -0.24091,2.23159 -3.80755,-3.44453 -5.34312,-4.50041 -2.99313,-3.69925 -7.89028,2.24495 -12.24118,0.96965 -4.24909,0.62406 -8.83126,-2.05741 -12.32499,-2.31155 -2.26133,1.80114 -5.58483,6.6714 -7.22505,6.82062 l 0.24149,-0.6721 z m 27.27357,-35.29261 c 2.4204,0.23531 4.35486,-1.03517 0.75185,-1.15131 -7.05712,-0.93442 -14.28737,-0.91562 -21.30514,0.30752 1.61226,1.13285 7.65431,1.19403 11.06474,1.25426 3.16693,-0.008 6.33021,-0.19135 9.48855,-0.41047 z m -8.79808,-18.35166 c -0.0402,-2.45131 -1.27341,-5.73231 -3.61702,-2.73973 -0.91135,-0.49066 2.60604,-3.82638 -0.82826,-3.43381 -3.26657,-0.27579 -1.61115,-0.7855 0.58112,-1.2864 3.01389,-0.87653 -2.82439,-5.30903 1.21622,-2.77655 2.73314,3.18287 2.22653,-6.84817 3.3054,-0.87804 0.54708,3.52479 5.49506,-2.11225 2.5933,2.23044 -1.8217,2.10122 6.71539,1.61196 1.24916,2.79262 -3.23974,0.0359 1.42629,4.8572 -1.95269,2.47933 -2.86212,-1.97913 -1.14707,2.68474 -2.54723,3.61214 z"
         id="path25" /></g></g></svg>
