<?xml version="1.0" encoding="UTF-8" standalone="no"?>
<!-- Created with Inkscape (http://www.inkscape.org/) -->

<svg
   width="91.941261mm"
   height="99.999992mm"
   viewBox="0 0 91.94126 99.999993"
   version="1.1"
   id="svg1"
   xml:space="preserve"
   xmlns="http://www.w3.org/2000/svg"
   xmlns:svg="http://www.w3.org/2000/svg"><defs
     id="defs1" /><g
     id="layer1"
     transform="translate(-4.9024121,-112.52566)"><g
       id="g47"
       transform="matrix(0.48145303,0,0,0.48145303,-149.69094,21.383751)"><path
         style="fill:#5ca7d1;stroke-width:0.737521"
         d="m 404.00189,325.08897 c -10.85707,-0.34423 -19.80775,-10.96097 -18.31745,-21.72786 0.70658,-8.64831 7.04052,-15.08923 12.83429,-20.88993 3.96923,-3.09618 5.84749,-8.39088 10.10791,-10.85684 1.35386,3.44941 0.42531,11.74294 4.29522,11.66713 2.65004,-6.01468 4.69705,-12.49393 3.63747,-19.1469 -0.64992,-4.62665 -0.9006,-13.66705 2.88019,-5.38879 4.51186,8.07849 7.98247,17.00531 7.70591,26.40878 -5.1747,6.16501 -13.31699,10.70382 -14.6125,19.35324 -2.0546,5.96646 1.86219,12.74082 3.85625,16.80467 -3.23259,3.1367 -8.03351,4.04226 -12.38729,3.7765 z m 1.5159,-25.64273 c 2.8419,-1.14164 2.47917,-6.47955 1.44737,-8.65395 -4.79368,-1.43605 -12.63753,6.53476 -5.65584,9.08394 1.38886,0.41183 2.92749,0.23872 4.20847,-0.42999 z"
         id="path50" /><path
         style="fill:#ad9f37;stroke-width:0.737521"
         d="m 431.02819,329.67535 c -4.04693,0.99204 -6.67467,-2.48564 -6.64831,-6.02633 -0.36016,-1.91921 6.2658,0.63275 8.50908,-0.27647 3.61093,0.105 7.22259,-0.0819 10.80838,-0.51963 0.0564,3.49972 -1.8162,7.63124 -5.99291,6.73905 -2.2213,0.14646 -4.4526,0.23329 -6.67624,0.0834 z m -3.0246,-8.95709 c -5.3916,1.93607 -6.74161,-8.45014 -0.74146,-6.401 6.02576,0.26991 12.091,-0.0697 18.14076,0.0515 0.63838,4.46642 -3.08929,7.62252 -7.39153,6.3854 -3.33466,0.0945 -6.67571,0.17493 -10.00777,-0.036 z m 18.24438,-4.55104 c 0.21887,-2.39716 0.6003,-7.32409 -3.235,-4.94019 -6.59194,0.63038 -13.31895,0.51239 -19.8292,-0.71613 -4.13919,-1.20748 2.7193,-2.72454 0.86997,-5.98302 -0.96927,-3.63512 3.88562,-8.30961 4.37962,-9.43135 -2.04926,-0.42186 -5.00169,-2.92894 -3.91287,-6.14743 -1.61597,0.0424 4.13949,-4.10317 4.60669,-6.52991 2.18378,-1.65499 1.82071,-7.79398 3.98637,-7.25329 4.20729,7.19191 9.95907,13.31987 14.45619,20.29445 3.53279,6.27719 3.44858,14.44032 -0.37316,20.55827 -0.31631,0.36207 -1.39003,1.46395 -0.94861,0.1486 z"
         id="path49" /><path
         style="fill:#4c3616;stroke-width:0.732236"
         d="m 416.10059,362.69247 c -13.49154,-7.69994 -27.51854,-14.44068 -40.78645,-22.53582 -4.44863,-6.28342 -5.49396,-14.24091 -6.83246,-21.63183 -0.4734,-6.30393 -1.52708,-13.20489 2.10036,-18.81891 14.93992,-26.22664 30.75874,-51.95648 45.64885,-78.21786 4.7587,1.27175 5.5566,9.44192 9.1988,13.22965 12.85113,22.25345 26.33772,44.14216 39.00831,66.49366 3.95169,5.61885 1.6114,12.63843 1.25919,18.95885 -0.94029,6.79076 -2.77398,13.54937 -6.20135,19.52912 -9.82511,6.69461 -20.86167,11.32067 -31.06432,17.38921 -3.99198,1.45373 -8.20551,5.80392 -12.33093,5.60393 z m 22.31305,-33.4586 c 5.63557,1.30088 6.95271,-10.26138 0.2033,-6.19624 -4.34238,1.00602 -13.05168,-1.19981 -14.49682,0.45126 0.61316,6.39636 6.51876,6.88119 11.603,5.91571 0.89787,-0.0386 1.79495,-0.0958 2.69052,-0.17073 z M 408.36015,324.68 c 4.44442,0.11598 11.8386,-4.35362 5.48809,-8.04072 -3.88153,-8.7607 -0.45211,-19.68176 7.24592,-25.19022 1.99205,-2.36942 3.72416,-3.89259 3.53659,0.3633 0.42858,3.8734 6.92075,1.86551 1.9218,5.25595 -1.95843,3.56204 -4.05986,11.42187 -3.85377,13.04098 7.43583,2.41049 15.8637,0.71152 23.02385,1.00093 0.55683,3.2045 -0.34434,8.20227 2.20839,2.91107 3.8412,-7.53264 1.85601,-16.92965 -3.70855,-23.06422 -4.05162,-5.53932 -8.40075,-10.87701 -12.00829,-16.7278 -0.80692,2.65111 -2.73911,10.96272 -5.10293,9.25332 -0.16901,-9.7128 -4.32965,-18.75998 -9.0407,-27.02791 -0.70583,-2.93208 -3.20682,-5.87675 -3.11827,-0.81323 -3.5844,14.34781 -14.58751,24.86295 -24.14655,35.45511 -6.38486,8.07934 -6.99223,20.98972 0.86873,28.3305 4.35973,4.18977 10.71807,6.14805 16.68569,5.25294 z m 34.09772,-4.45643 c 4.97089,-2.21151 2.22577,-8.61053 -2.75601,-5.98897 -5.0466,0.9026 -14.20506,-2.10572 -16.61266,1.82671 0.33874,7.66767 10.10531,3.5121 15.11682,4.52927 1.42159,-0.0615 2.84163,-0.17529 4.25185,-0.36701 z"
         id="path48" /><path
         style="fill:#5d9801"
         d="M 549.01151,105.77494 C 518.25855,87.60299 487.46827,69.463785 457.02438,50.784939 c -4.73454,-8.055685 -1.34899,-18.92532 -2.45981,-28.075341 0.12617,-22.63940767 -0.27332,-45.364067 0.13224,-67.964564 2.45154,-8.873807 13.70964,-9.910302 20.2605,-15.035198 24.72225,-13.542466 48.88202,-28.20924 73.71519,-41.470906 9.79824,1.35305 17.27059,9.552699 26.20503,13.557748 22.39576,13.571326 45.72705,25.470784 68.40835,38.528041 3.5974,8.971895 1.31636,19.514871 2.01082,29.142286 -0.0287,22.8071288 -0.0735,45.614239 -0.10917,68.421361 -4.88525,7.517966 -14.69868,9.974899 -21.72063,15.220637 -24.10686,14.11755 -47.99661,28.624981 -72.35672,42.298217 l -1.49487,0.53629 -0.60381,-0.16857 z m 2.03539,-14.147334 c 7.99021,-7.474294 -10.72782,-11.0398 -15.33639,-15.67219 -11.40376,-6.710032 -22.18562,-14.716757 -34.00208,-20.574845 -4.9285,10.821472 11.54306,13.537997 17.69161,18.962979 10.19197,5.883291 20.16853,12.154438 30.45624,17.861336 z m 27.64033,-16.24406 c 6.97361,-3.874546 13.83518,-7.947246 20.7274,-11.96418 1.62504,-6.695795 -1.5519,-10.579031 -7.14378,-4.81554 -7.74332,4.715609 -13.98109,8.297021 -21.82177,7.033119 -1.25563,3.942831 2.24578,12.620042 8.23815,9.746601 z m -22.66427,-8.95274 c 12.89403,-7.177855 25.82278,-14.357086 38.31981,-22.192199 -0.78398,-7.722459 0.0309,-14.849152 9.52526,-16.287198 3.68079,-5.150475 0.15231,-15.450557 1.57281,-22.2626864 -0.11713,-10.6534783 0.86627,-21.4722456 -1.12456,-31.9916726 -7.03913,-6.483183 -10.6279,-17.093955 -19.84713,-21.199223 -10.95675,-6.143912 -21.86012,-12.412824 -32.7306,-18.684611 -9.13912,2.148137 -16.927,8.478526 -25.38989,12.538262 -8.62688,5.423907 -19.24389,8.84221 -24.5721,18.185889 -7.9219,7.607033 -12.02958,17.909376 -10.92177,28.8865387 0.20542,10.2463939 -0.36449,20.7430123 0.35405,30.8809143 4.05599,8.209292 20.11711,6.546304 16.48965,18.857381 3.30195,7.82171 14.66757,9.902582 21.2369,15.264775 7.83925,2.898173 14.88613,12.920939 23.69664,9.73271 l 1.575,-0.761859 1.8159,-0.967021 z m 69.32702,-18.5761 c 10.85963,-3.047454 5.72606,-15.55299 7.03812,-23.788281 0.0869,-21.3174435 0.47057,-42.648947 -0.11204,-63.959209 -4.53254,-5.207658 -13.0016,-10.598271 -19.74169,-11.050533 -5.99524,8.059091 15.22007,9.310997 11.04994,20.447946 0.74027,21.726428 -0.2046,43.485191 0.10614,65.218572 0.22217,3.22272 -8.96903,19.197938 1.65953,13.131505 z m -147.70902,-4.56676 c 4.20197,-1.662514 -4.97741,-8.78419 -2.11857,-13.681399 -0.47511,-10.093095 2.80988,-19.896992 1.9659,-30.04003273 -0.35141,-3.98372977 0.8605,-8.38865857 -1.89866,-11.73855827 0.36665,-8.51359 -1.34445,-17.429493 1.1614,-25.61118 10.10774,-10.35813 24.93145,-13.684631 36.67227,-21.702864 8.88146,-4.456907 18.25771,-7.896255 25.78523,-14.638469 9.68305,-8.888219 21.08231,-1.734721 29.14123,5.545092 8.03108,5.948253 16.8574,10.835445 25.67782,15.482803 8.37241,3.476839 8.7992,-8.861527 0.56975,-9.154357 -14.91411,-8.651026 -29.62262,-17.672423 -44.72332,-25.988735 -23.02154,12.663391 -45.7325,25.914982 -68.82683,38.46395 -8.96033,2.946118 -13.6979,9.153438 -11.08095,18.607035 0.41433,24.1850086 -0.32161,48.41583 1.05672,72.567779 -0.14892,3.59113 4.63029,1.562759 6.61801,1.888936 z"
         id="path47"
         transform="translate(-133.31845,291.06697)" /></g></g></svg>
