<?xml version="1.0" encoding="UTF-8" standalone="no"?>
<!-- Created with Inkscape (http://www.inkscape.org/) -->

<svg
   width="80.228294mm"
   height="100mm"
   viewBox="0 0 80.228293 100"
   version="1.1"
   id="svg1"
   xml:space="preserve"
   xmlns="http://www.w3.org/2000/svg"
   xmlns:svg="http://www.w3.org/2000/svg"><defs
     id="defs1" /><g
     id="layer1"
     transform="translate(-113.19607,-112.9379)"><g
       id="g52"
       transform="matrix(0.43730091,0,0,0.43730091,32.561148,43.099177)"><path
         style="fill:#f78703"
         d="m 275.63492,388.3499 c 0.5561,-9.26628 0.0707,-18.6319 0.15746,-27.94324 -2.48429,0.73266 1.60874,10.63034 -1.89381,11.47346 -1.7091,0.74495 -9.03318,0.0976 -11.99685,-3.10197 -6.79942,-2.90886 -6.93006,-1.30049 -9.60075,-4.70612 -2.21458,-1.10308 -5.799,-3.19466 -7.4297,-2.82232 -4.92475,-4.04115 -6.40593,-1.97656 -5.74049,4.25476 -1.67228,-7.05473 2.88585,-9.94339 9.00698,-12.57765 2.24302,-0.5934 5.2196,3.77398 9.49538,5.72547 3.61233,0.54196 10.68052,-3.78748 11.83153,-6.68086 3.08367,-11.69089 -8.08233,0.31677 -10.91014,-0.31714 -3.62513,-2.65403 -3.69299,1.68475 -3.80162,-1.723 -3.6891,-2.01686 -0.45884,3.35763 -4.00194,-0.71611 0.22058,2.75449 -3.5428,0.25747 -6.1911,0.0279 -2.09312,-1.47603 -5.63142,-2.72284 -5.67044,-3.85769 -0.26649,-4.52732 -1.11819,-10.8825 5.2563,-10.74535 7.90329,4.94932 16.31104,11.3858 23.8444,1.89944 7.4188,-7.02152 -8.1199,-6.54055 -7.14497,-12.95371 -2.10628,-9.89378 8.2751,-0.10213 8.74083,-3.74348 0.19194,-11.36696 0.19878,-22.74414 -0.0526,-34.10976 -7.14571,4.30993 -14.54906,8.19353 -21.65404,12.57023 0,9.12898 0,18.25795 0,27.38693 -5.80981,3.32929 -11.68118,6.80642 -17.45999,10.00036 0.87999,-4.0718 -2.47456,-0.29749 -2.05631,-6.39625 -3.97355,1.35643 -13.48611,-4.78592 -4.19478,-6.52839 3.86845,-4.14589 14.39917,-4.61283 14.05375,-11.14002 0.80889,-6.05081 -0.41966,-9.86016 -6.36852,-4.28943 -9.45495,5.52057 -19.17959,10.71534 -28.22552,16.85194 5.07803,5.41097 17.952,6.45386 16.89407,14.27585 0.0424,5.40721 -9.34219,-3.33934 -13.09354,-4.72553 -4.23075,-1.40745 -3.05305,-0.88849 -2.45129,0.008 -4.91447,-3.59233 -4.76755,-1.75866 -2.35609,3.07395 -3.06052,-1.80249 -0.22554,-5.33546 -2.81114,-0.97317 -0.96303,-0.24596 0.26592,-5.41119 -1.63706,-1.11449 0.17212,0.99997 -1.07374,4.00242 -1.92585,2.03243 -1.95747,-0.0962 -4.5197,-2.93356 -6.56089,-3.30619 -4.19002,-1.23529 -6.94375,-5.98232 -3.19073,-11.21476 -2.11972,-0.63611 1.50038,-1.00956 -1.38389,-2.218 0.2913,-0.65742 1.58146,-4.80359 0.19377,-2.46727 -1.1255,-6.14494 -0.80197,-15.70904 0.45684,-20.03934 0.11992,-1.87885 -3.47721,-6.69624 0.73281,-8.51522 3.66876,-5.20212 12.42703,-3.17638 12.98602,2.71391 0.0436,8.06974 12.34888,9.79857 17.82729,13.59653 8.98447,-2.25665 13.83431,-11.51705 2.13457,-14.69606 -5.13693,-1.74476 -11.87044,-4.52463 -13.41335,-8.28761 4.70435,-1.43938 9.60803,-8.47253 14.22882,-3.70442 4.25142,4.22999 14.55503,4.83565 15.00986,11.34831 -1.9455,11.55768 11.06285,-2.95626 16.47565,-3.93646 5.96399,-4.32622 16.89806,-7.70072 19.78249,-12.99867 -13.11648,-7.28741 -25.95687,-15.22937 -39.38974,-21.86893 2.5396,5.18144 0.36751,13.37762 -4.97702,9.33895 -1.62536,-0.97034 -1.90978,1.09352 -2.90582,-0.69308 -1.8817,0.18338 1.91401,-3.56632 1.02311,-8.42167 2.6078,-7.18694 -8.61674,-9.33056 -11.73606,-4.86735 -3.69563,1.73248 -7.23962,3.49109 -9.86213,5.43919 -2.60866,2.11589 -4.99464,0.13048 -4.38156,-1.0411 -4.39781,-2.04757 -8.60975,-5.86932 -13.22159,-1.61117 -2.97101,-9.37611 -0.99907,-19.54916 -1.49118,-29.26536 -0.50734,-4.97305 1.05703,-3.89104 4.59765,-5.89711 4.16443,-2.19327 15.49243,-14.79065 15.17172,-5.14276 -0.19647,4.551 -7.41248,10.82323 -2.16465,14.60763 7.96437,4.26686 15.65497,8.60935 23.32573,13.16539 -0.54247,-7.20721 3.37703,-18.32144 -4.71513,-19.13402 -2.12843,-8.2782 6.48444,-8.98018 11.06224,-3.59351 4.97478,0.96882 3.17027,5.89813 3.48548,9.59283 0.2085,9.0448 -2.90928,21.39226 8.96005,24.13751 8.2709,4.81257 16.66441,9.41751 24.83888,14.3937 -0.0511,-6.23318 4.17498,-20.4852 -4.73372,-20.05071 2.44535,7.84048 -4.29667,8.95962 -6.72285,3.41501 1.04905,-3.87166 -0.96167,-11.42832 0.86107,-13.75265 4.07077,2.45867 10.84116,8.18237 12.01645,3.20523 5.90823,6.69514 12.7754,-5.20254 12.03463,-5.55905 -0.61492,5.72016 -0.11581,10.00861 5.89089,5.26371 8.86036,-7.66397 5.4766,6.14072 6.98914,11.18073 -4.67542,5.319 -8.6509,3.16369 -7.51028,-4.17829 -8.79472,0.14149 -4.43765,9.88224 -5.29952,15.37116 -0.5146,10.11877 11.92042,-3.43616 17.5,-4.66588 11.35048,-6.36142 22.15001,-13.57057 33.65598,-19.59142 5.89844,-2.60083 15.18327,-9.56645 18.97549,-9.94522 -0.43368,4.3446 2.55765,9.65563 -2.12258,11.14124 -8.09819,4.67754 -16.61192,9.13296 -24.66506,14.02538 0.94861,4.88548 4.70946,15.86834 -1.16604,14.2657 -2.94658,-1.10856 -3.35452,0.96773 -5.73693,-1.11086 -2.45506,1.80633 1.9155,-15.13981 -5.71839,-6.44047 -11.1861,6.37239 -22.53905,12.55354 -33.78569,18.74226 8.77709,6.59417 19.67622,11.50961 29.18307,17.56903 5.96981,4.48524 10.52237,6.14691 8.40164,-2.77386 0.91159,-4.55155 8.53853,-5.25423 11.79004,-8.46099 5.93193,-5.58305 15.9561,1.72151 19.55525,6.38496 1.20029,3.43915 -2.32255,8.01744 -5.53429,5.86035 -5.13864,-6.54928 -12.58373,-1.70589 -16.4605,3.40802 -3.06131,6.74508 8.13605,10.90685 12.30165,8.37496 4.03465,-4.51121 15.64664,-4.74034 13.8838,-12.53767 1.05983,-7.76165 12.15082,-4.38721 14.87005,0.60556 -0.26788,12.81561 -0.29305,25.63428 -0.26065,38.45217 -5.32128,2.54392 -13.96208,9.55909 -17.29466,8.66069 1.61985,3.07948 0.7805,-8.91994 0.67866,-3.46548 -1.31185,0.63453 -0.0992,4.35033 -2.93848,6.20321 -3.90067,1.12951 -15.27449,13.42611 -13.59989,4.10856 0.11699,-4.40943 0.004,-11.40452 -2.92208,-6.7204 1.77765,-9.14761 -7.38439,-7.75365 -11.38589,-12.56584 -2.8893,-0.28865 -2.99527,-0.26475 -4.88314,-3.2661 -2.16143,-0.59851 -6.46444,-7.15847 -9.45213,-5.3917 -1.24491,0.22785 -1.0252,-8.29277 -1.24232,-12.86375 1.42968,-6.02622 -2.11079,-9.37894 -7.73619,-11.32427 -6.18047,-2.71735 -17.23381,-13.68353 -14.13479,-0.12805 0.66407,8.61435 -1.44271,21.26872 1.18991,27.39932 8.97845,-8.01498 10.90061,8.12515 1.41578,8.59046 -4.34264,1.58515 -2.76443,8.06579 1.641,8.65332 6.96254,7.53452 14.68554,0.69319 21.34494,-3.26262 6.07888,-0.0655 6.30742,7.96936 4.81581,12.16952 -5.08688,3.34575 -15.14626,6.30978 -4.14181,9.01304 11.29421,6.64869 -2.59069,16.12132 -10.18994,19.00606 -7.52241,4.32556 -15.4759,9.58502 -22.86878,13.15629 z m 18.28152,-29.66879 c 9.67584,-4.67424 -7.66723,-9.85849 -8.48982,-10.57738 -0.25276,-2.71062 -5.23104,-1.99273 -2.7305,4.10983 0.57978,2.78929 8.74574,7.17257 11.22032,6.46755 z m 52.92687,-33.53656 c -1.7581,-6.71457 -16.10289,-10.33339 -22.63208,-15.60111 -4.46265,-1.75996 -13.25217,-10.43327 -10.27592,0.0384 1.43495,10.71153 17.82383,13.2328 25.62913,19.47092 2.61916,-0.90049 4.98904,-2.37927 7.27887,-3.90825 z m -144.91103,-11.3455 c 13.40248,-1.14737 -7.94067,-16.35696 -4.09693,-3.98951 0.26823,4.24268 -1.35162,7.72676 4.09693,3.98951 z m -1.85774,-71.0989 c 4.6512,-2.39476 10.39975,-4.94611 5.05304,-8.33386 -0.73112,-2.70818 -0.81515,-5.35794 -3.63876,-3.86571 -2.28998,3.16697 3.49552,-3.73223 -0.014,-1.14311 -1.64328,-0.27835 3.51935,-2.10967 0.26674,-3.53854 -2.76053,1.32522 -3.53058,1.97882 -3.13909,5.07733 4.25522,-5.10121 -3.79047,7.88244 0.0594,12.10587 -1.1399,0.77149 1.39976,0.2568 1.41265,-0.30198 z m 57.99491,62.41303 c -2.01809,-8.70678 12.89967,-8.03091 6.16944,0.37745 -3.06406,1.24728 -7.47253,6.68537 -6.16944,-0.37745 z"
         id="path53" /><path
         style="fill:#38322a"
         d="m 274.73415,387.67557 c -11.75992,-6.93268 -23.58611,-13.75799 -35.45417,-20.49713 0.18712,-3.59372 -1.22901,-11.81851 3.43959,-6.99765 3.04428,2.26304 6.31699,0.72921 8.74484,3.79837 4.01153,3.08039 2.45476,1.76129 8.70418,4.16106 3.76994,2.78978 11.26825,5.02905 13.5345,3.74433 3.81999,-0.63111 -0.36153,-10.59824 2.06345,-11.48452 0.10589,9.28175 0.0631,18.66532 0.15831,27.97953 l -1.19062,-0.70409 z m 15.71693,-29.61745 c -4.40202,-2.67015 -8.60832,-3.49044 -3.45918,-7.64937 -2.415,-5.05105 18.19058,5.79323 6.47431,8.8905 -1.11525,0.66766 -2.08201,-1.25976 -3.01513,-1.24113 z m -32.90738,0.55406 c -5.01481,-2.7755 -6.59249,-5.49402 -10.4774,-6.51752 -4.07163,-0.80972 -11.46054,-8.63398 -6.38027,-5.2612 1.95574,1.53071 4.55306,2.8148 7.68727,3.27137 2.1212,0.24017 3.98998,-0.45841 3.99182,0.52578 0.42431,-4.04157 2.76855,2.23306 3.00157,0.24201 1.82063,3.65851 8.31892,-4.53414 10.49855,1.19272 5.17367,2.13276 -6.6379,7.70108 -8.32154,6.54684 z m -41.28247,-8.49361 c -5.78662,-4.47441 -19.55328,-12.06683 -21.05707,-13.88593 3.79432,2.28018 2.20386,-1.14815 3.92873,-2.67679 -0.11573,-2.47482 0.90174,6.79546 1.51802,-0.13467 1.58607,4.58926 1.8369,2.49175 9e-5,-1.91979 2.6859,0.97186 6.20484,3.77345 3.21264,0.90744 5.73453,1.98286 10.95256,6.13758 16.91289,8.55336 2.09449,-8.65115 -7.52499,-10.04678 -13.69897,-14.46082 -7.9844,-4.38096 8.99374,-8.23751 12.41201,-12.07233 5.81224,-2.20512 14.86181,-10.87959 18.69114,-8.88762 0.58552,5.67671 0.91182,11.07752 -5.97825,12.52004 -4.75151,3.54767 -19.25789,7.70672 -6.41609,11.55977 4.35414,-1.88212 2.11985,5.87631 4.43743,3.25773 1.88986,2.63604 -3.37544,3.25938 -1.88579,8.29365 1.98145,6.29567 -6.81935,6.45917 -10.41405,9.53726 l -0.80196,-0.0871 -0.8606,-0.50431 z m 117.28194,-0.0262 c -1.9089,-1.49293 -12.12681,-2.65794 -10.61051,-8.02944 2.19934,-9.21764 -10.12006,-10.82422 -15.77442,-15.37554 -4.61362,-0.97385 -3.1312,-5.45351 -3.31464,-8.97515 -0.002,-3.68754 -0.004,-7.37509 -0.006,-11.06263 -9.89492,-6.89108 -4.87618,10.62831 -6.28202,15.77996 1.29889,5.65117 0.42589,16.756 -7.85231,12.47057 -6.66975,-2.54814 -7.16154,-5.70283 -0.043,-8.0246 6.09454,-4.51929 -2.10903,-12.28771 -7.01174,-5.42431 -0.41327,-11.89681 -0.25055,-23.8156 -0.12285,-35.71875 6.93997,4.54191 15.84531,7.85687 21.69029,13.26018 0.10428,5.94202 0.0669,11.9054 0.51268,17.82608 -0.62076,1.83996 3.98701,-0.6908 7.66155,4.59787 0.36811,0.35276 4.63764,3.98732 4.71806,4.95956 2.57292,-0.95142 5.74422,3.56237 8.80418,3.77687 7.13072,0.43253 3.96813,12.18026 7.71586,7.33607 0.39994,3.56875 1.25269,10.37342 -0.0851,12.60326 z m -74.68402,-14.1446 c -5.63593,-1.22543 -4.50316,-6.174 -4.48688,-10.49881 -0.1903,-7.23259 0.53637,-14.66099 -0.57901,-21.72482 -7.68724,-1.58481 -5.7321,14.24039 -5.92222,3.43959 0.72828,-3.04793 -1.51417,-7.72255 1.24706,-9.65729 6.44098,-2.78757 15.99627,-11.05377 20.4826,-10.35431 -0.15548,11.4683 0.79615,23.437 -0.52585,34.57121 -3.56766,-4.61709 -10.35916,-3.72718 -8.14611,3.03376 0.72373,4.49653 13.54573,5.95213 3.46053,9.23289 -1.77419,0.45932 -3.64347,3.52315 -5.53012,1.95778 z m 2.90819,-28.94504 c 10.34351,-3.5937 -2.73617,-14.5115 -3.67272,-3.37882 0.41025,4.04735 -1.74814,7.35161 3.67272,3.37882 z m 76.82217,22.07554 c -7.47351,-7.71046 -25.57944,-8.72909 -24.67727,-21.29836 -1.59976,-9.09824 10.24394,3.49844 14.55389,4.1571 5.26261,4.48119 18.26837,7.72259 18.33236,13.26039 -2.52422,1.50779 -5.20802,3.65642 -8.20898,3.88087 z m -140.75416,-19.2687 c -3.9282,-12.3085 17.18899,2.56703 4.28111,3.89012 -5.08983,3.37342 -4.32242,1.31706 -4.28111,-3.89012 z m 23.08721,-7.04124 c -1.02274,-5.45179 -17.29115,-9.43123 -15.50924,-12.55324 -3.73138,-3.32619 -0.49849,-10.3963 4.16448,-4.61298 3.95415,4.55951 11.41093,3.63054 16.93601,10.07284 2.23347,3.60358 -2.08262,6.88598 -5.59125,7.09338 z m 108.04958,-0.51019 c -7.97821,-3.96386 2.14512,-12.51093 7.67297,-13.88822 4.8746,2.11911 10.98421,5.22412 2.75347,7.79094 -3.67493,0.93844 -7.53664,6.13366 -10.42644,6.09728 z M 313.48811,293.726 c -11.28333,-6.50568 -22.58032,-13.01559 -33.77461,-19.66026 7.57984,-5.72812 18.04772,-9.9827 26.61803,-15.33754 4.97509,-2.02395 14.56717,-11.49574 11.81746,-0.32574 -0.94152,5.26509 3.33545,2.97503 4.1887,3.7358 4.58828,0.25571 6.90054,0.77419 5.32308,-6.67776 -1.79163,-5.0476 -2.64977,-9.68478 4.15019,-10.88913 -5.56386,5.2736 8.63624,8.09839 12.33666,11.9291 4.96032,2.32679 12.12062,10.09638 15.64825,3.16669 2.32948,2.14286 3.31836,3.77358 7.20389,2.5129 -10.41756,-5.63696 -20.63074,-11.73268 -30.75511,-17.905 1.69145,-5.10051 12.13015,-8.63948 16.75216,-11.45927 2.2875,-6.23027 1.05545,-12.57252 5.60447,-5.11392 1.65426,7.08563 -4.38101,18.60633 4.90784,20.61487 5.11922,2.08003 -5.25733,-3.74858 0.23517,-3.23529 5.13167,-2.66531 3.85584,10.2507 3.95127,14.69138 -1.39446,3.99766 2.30073,11.13334 -2.3415,13.27506 -4.45199,3.02307 -15.08953,10.2751 -17.27834,2.00146 -0.26769,-13.53545 -13.43403,-3.91488 -19.27733,0.28317 -7.024,7.27422 -15.35546,6.18577 -21.94353,-0.99108 4.40521,-3.85459 21.05488,-8.03516 8.30047,-12.9507 -6.10944,4.36499 -18.16672,9.06509 -20.49568,13.49425 6.9602,5.30434 19.70293,10.6222 22.55773,15.01456 -0.16105,4.13865 1.92333,7.97477 -3.72927,3.82645 z m -78.24581,-1.97403 c 1.14163,-7.75913 14.02576,-10.0431 20.04492,-15.81085 7.78341,-3.6345 -8.90734,-6.83546 -11.18277,-10.60792 -2.3659,-5.49651 -13.58707,-4.07746 -10.84379,1.25089 4.37033,3.71642 18.03905,7.65506 6.41615,11.33398 -5.72181,7.18426 -11.36963,-0.41808 -17.03628,-3.15317 -5.67698,-4.76006 -13.69296,-12.11066 -18.5954,-3.15437 3.28159,10.45535 -9.47715,7.98075 -14.08049,2.61257 -3.57405,-1.45576 -6.47409,-3.30489 -5.1696,-7.60792 0.0882,-6.9157 -0.15555,-13.85176 0.22935,-20.7512 0.22245,8.61799 9.39889,-4.34278 12.18676,4.71856 4.11043,0.56456 3.81899,3.71231 -1.96521,6.50618 0.77567,0.65366 4.05031,1.94127 2.79169,5.86774 6.55459,-5.77182 19.3406,-7.55951 21.72144,-16.00593 -0.65312,-7.75684 9.70738,3.08367 5.47869,7.61572 -0.58063,4.13405 -2.6475,4.30046 -0.69825,6.51143 1.3987,-2.02739 1.38435,-0.0185 4.37759,-0.15633 9.93986,3.61013 -2.60792,-16.74726 8.44289,-7.31542 11.44252,6.98053 23.6599,12.81278 34.83051,20.13214 -11.66175,8.03642 -24.75011,14.31945 -36.90366,21.78464 -0.10914,-1.25441 -0.0465,-2.5142 -0.0445,-3.77074 z m 33.11138,-30.05453 c -10.59336,-6.59613 -21.91821,-12.09919 -32.26592,-19.02142 -1.853,-6.02191 -1.48185,-14.89792 5.8434,-7.63918 5.21775,2.59934 15.62937,11.96304 12.82697,0.30662 -4.80067,-2.89723 -9.60742,-5.78767 -14.2875,-8.8778 0.30681,-11.71945 -0.0523,-23.40516 -1.25184,-35.00716 -0.39112,-6.38696 9.14436,1.59607 11.89593,3.40724 5.6787,2.13199 13.95212,10.85235 18.45978,9.37714 0.39237,-10.96595 -15.85427,-12.49944 -22.64997,-18.93819 -10.35149,-3.02185 1.75848,-17.38007 7.37115,-7.57876 6.01091,2.72247 19.34699,15.17074 14.5916,0.89565 0.83405,-5.48803 -4.16808,-14.23233 2.65647,-16.91133 3.55448,-4.70476 11.56024,-0.25724 11.91927,4.34438 -0.0586,6.57313 -1.28527,15.11014 0.24309,20.17296 6.33452,-2.11487 14.77668,-11.65122 19.89184,-9.09754 -0.9846,3.74436 2.26199,9.87114 -2.86851,11.2293 -5.54176,4.24118 -14.18757,6.5032 -18.09324,11.77523 -2.22768,11.81048 10.8754,-2.33925 15.73903,-3.30139 4.38356,-2.93635 10.39232,-7.39273 14.62119,-7.5003 0.6161,12.27929 -0.4495,24.52731 -0.13251,36.80658 -4.84696,4.21583 -12.89506,6.11302 -16.12352,11.17347 -2.41535,12.47083 12.46524,-2.84869 17.58755,-3.90841 4.66759,-1.01756 3.45176,-5.42564 3.52624,-9.09015 0.74345,-3.05497 -1.65751,-7.91501 1.52713,-9.5686 7.00968,-3.99951 13.94818,-8.13597 21.13554,-11.81309 -0.0243,6.47189 4.63231,11.43604 8.46671,6.72752 -6.2035,5.58775 -19.93961,6.72268 -18.96771,16.88425 0.23175,7.96709 -2.99171,12.1054 -10.9012,14.35883 -11.5183,7.85825 -23.97719,14.2378 -36.12348,21.06338 0.79505,-5.72276 -3.02675,-15.04295 1.33362,-18.94143 7.62053,-5.96035 0.93623,12.8528 9.36036,4.22141 4.75238,-2.87379 -1.06834,-10.24189 0.6273,-14.95995 -6.40103,2.28081 -14.32807,8.64963 -11.71169,-2.84959 0.6664,-0.3343 -5.17305,11.73763 -10.7872,6.02063 -3.17534,-1.56747 -2.53122,5.31945 -7.37759,-0.0698 -5.22278,-4.89808 -7.83092,-4.24754 -6.56345,2.40413 -2.42768,5.53545 1.09668,13.22586 6.19218,11.08479 -2.8225,-6.83534 4.60697,-9.78858 5.60828,-2.68156 -0.85116,4.18793 1.76992,13.95162 -1.3193,15.50217 z m 35.07705,-41.64777 c -0.11973,-6.16443 2.48517,-20.14308 -6.47541,-10.76342 -3.98461,4.53783 -14.434,5.41325 -14.28367,12.15459 1.08093,8.24121 15.38129,-12.49275 18.82035,-1.89637 1.90914,3.72567 -2.2084,-0.82741 1.39775,4.9652 0.81779,-1.22862 0.24143,-3.07759 0.54098,-4.46 z m -33.98825,1.29345 c 0.66872,-6.42602 -8.78095,-7.26681 -12.27019,-11.46078 -5.75174,-5.28312 -9.47963,-5.92512 -7.77806,2.1486 0.0623,4.94769 0.0522,13.92195 1.34286,4.14595 2.92621,-5.80431 18.71423,13.7148 18.70539,5.16623 z m -70.97659,21.8815 c -3.30538,-3.8773 4.06918,-17.60111 0.27436,-12.27544 -0.64413,-2.66667 0.21894,-3.74445 2.10366,-4.81792 4.43697,-0.56377 -0.55806,3.65903 0.78725,2.81398 2.78124,-0.62446 -1.73668,2.15579 -0.0188,2.27404 0.93417,-2.91479 2.76951,0.27531 3.32407,0.99568 -0.8037,4.52024 6.63874,5.7772 -1.35006,8.45756 -1.34899,0.7314 -4.29576,2.71793 -5.12048,2.5521 z m 168.93334,-3.21781 c -0.73284,-4.03408 -8.27641,1.19807 -7.13398,-3.39213 -3.64521,-4.50197 2.5139,-1.73332 3.32811,-1.82203 2.21747,-0.28253 2.04279,1.46813 3.48641,2.68586 -0.44783,-2.11767 1.06525,-5.56789 -0.87513,-5.78991 -2.13195,3.57719 -2.23138,-0.73911 -5.18054,-0.0725 -1.88607,1.5166 -2.14599,-3.65189 2.11308,-2.97937 0.23653,-0.80158 3.30945,-6.61274 3.05173,-3.0718 -1.20735,5.73791 3.18906,-2.46418 1.08814,4.03236 0.54646,3.40475 0.21886,6.97722 0.12218,10.40948 z m -142.55534,-3.59412 c -7.6002,-1.04706 4.15687,-17.7312 -8.29492,-19.6775 -5.13796,-2.46086 -15.07522,-12.08018 -11.95468,-0.0166 5.57329,3.59817 13.24531,5.90486 10.85088,13.90375 8.18086,5.5286 -7.00255,-3.87552 -9.9537,-5.2271 -7.56384,-0.83989 -5.37387,-9.90197 -1.76911,-13.15788 -1.96377,-5.77407 3.21926,-14.54297 9.25899,-9.15962 3.16221,3.35028 17.51282,6.30949 8.11619,9.10136 -2.47529,5.78094 1.77557,7.17583 4.6272,8.20406 -0.37294,4.80541 0.90023,13.18653 -0.88085,16.02951 z m 112.79897,-8.60822 c -2.69586,-8.79907 14.99744,-8.03857 12.82788,-14.50763 -0.48786,-10.07969 4.70388,5.51725 1.809,3.1629 2.91824,8.20954 -6.19818,8.60586 -11.03435,12.29788 -3.06797,1.3919 -4.18327,3.84645 -3.60253,-0.95315 z"
         id="path52" /></g></g></svg>
