<?xml version="1.0" encoding="UTF-8" standalone="no"?>
<!-- Created with Inkscape (http://www.inkscape.org/) -->

<svg
   width="58.022476mm"
   height="85.981316mm"
   viewBox="0 0 58.022475 85.981314"
   version="1.1"
   id="svg1"
   xml:space="preserve"
   xmlns="http://www.w3.org/2000/svg"
   xmlns:svg="http://www.w3.org/2000/svg"><defs
     id="defs1" /><g
     id="layer1"
     transform="translate(-119.13792,-128.31266)"><g
       id="g51"
       transform="translate(-5.1824031,-93.03647)"><path
         style="fill:#fbf957"
         d="m 152.28493,270.97753 c -3.13091,-3.27364 5.46517,-3.81902 2.06425,-0.0871 -0.54022,0.52696 -1.51101,0.65417 -2.06425,0.0871 z m 6.03481,-4.03266 c 1.03476,-5.54904 5.46656,-9.59654 9.31514,-13.37482 2.56975,-2.42949 8.47316,-6.76952 9.56902,-0.98704 0.8049,1.96803 2.71897,5.15729 -0.97652,4.00159 -4.46046,-0.0627 -8.72049,2.15123 -11.2689,5.77535 -1.36887,1.35444 -3.3379,2.9907 -4.42596,1.66201 -0.96419,0.46606 -1.37654,1.88496 -2.21278,2.92291 z m -10.5797,-4.36166 c -2.99741,-7.9633 -7.76839,-15.15726 -13.34657,-21.54175 2.21752,-1.34732 6.62633,-6.59428 8.24698,-2.68375 3.08652,6.40887 4.44327,13.52408 6.31879,20.27497 -0.88714,-8.0989 -2.71457,-16.06781 -4.71515,-23.95684 3.05287,-2.91902 7.08032,-5.06338 8.78362,-9.15048 1.74348,-0.57519 2.58683,4.32037 4.76191,5.16125 2.47771,2.17196 6.17081,3.46143 3.95096,7.29259 -1.45064,6.70105 -3.16258,13.3888 -3.62329,20.2535 1.75882,-7.46425 3.47275,-15.07772 6.92237,-21.9701 1.88472,1.87674 8.91462,2.83673 6.12043,6.38002 -5.72365,6.73316 -10.1477,14.55999 -13.00466,22.92075 -1.66032,-2.12657 -2.85786,-7.49081 -5.21729,-7.29449 -1.92706,1.83018 -2.28284,5.71323 -4.3212,6.78637 -0.32534,-0.80911 -0.49355,-1.67669 -0.8769,-2.47204 z m 7.32154,-6.98148 c 4.3025,-1.97369 0.55587,-9.17768 -3.57592,-6.49372 -3.77284,2.449 -0.70143,8.79208 3.57592,6.49372 z m -2.47649,-1.41453 c -4.92002,-2.62013 4.59188,-5.94216 2.68636,-1.11366 -0.35239,1.00289 -1.73392,1.45024 -2.68636,1.11366 z m 2.32078,-8.87683 c 4.18398,-2.25477 -1.26714,-8.4836 -4.0421,-4.40092 -1.65099,2.43269 1.37462,6.12803 4.0421,4.40092 z m -2.67982,-1.43763 c -2.7779,-3.33075 5.12351,-3.40175 2.38125,0 -0.61156,0.67432 -1.76969,0.6743 -2.38125,0 z m -5.99447,18.31084 c -1.45405,-0.94684 -1.53206,-4.0385 -1.74273,-0.85852 -0.0642,-1.64437 -1.08475,-2.95273 -1.27637,-1.76038 -3.13948,-1.98255 -3.20256,1.24045 -2.07489,1.59732 -2.97799,-3.82457 -8.74099,-4.23234 -12.31718,-5.26145 0.0955,-3.08999 2.77495,-8.39646 6.27899,-5.22179 4.80314,2.52099 8.51662,6.70195 11.40378,11.22018 0.22975,0.18552 0.0329,1.88846 -0.2716,0.28464 z"
         id="path56" /><path
         style="fill:#a69120"
         d="m 152.88751,307.17025 c -0.46924,-6.55019 -0.90608,-13.10814 -2.12365,-19.57445 -1.26177,-7.11173 -2.72668,-14.30757 -5.71349,-20.9153 -0.71467,-2.98141 -4.06673,-4.42314 -5.20007,-7.38995 1.65733,-0.91626 3.67129,0.84088 3.94068,-0.16458 0.80111,1.34702 0.80338,3.43326 0.84056,0.54391 -0.0397,1.91408 3.46646,3.76866 1.01324,0.64208 -1.5365,-3.03471 -4.02944,-4.63069 -6.4719,-7.23212 -1.97579,-2.36174 -7.0271,-2.20143 -7.65793,-4.90369 1.29332,-2.23404 2.29215,-6.92292 5.44504,-3.96929 3.38458,4.02991 5.99637,8.64888 8.58091,13.23626 1.15012,3.01528 2.2254,5.85194 3.23734,8.9909 2.03464,8.51955 3.17249,17.21892 3.64153,25.96242 0.28575,4.16064 0.54331,8.3244 0.96079,12.47454 0.95318,-11.89346 1.20919,-23.95794 4.15646,-35.57545 0.12678,-3.04982 3.68958,-6.10865 4.4183,-4.88557 3.77547,-2.12914 -1.68338,3.69379 -1.54019,5.71029 -3.68754,10.77292 -5.49895,22.13299 -6.34137,33.46454 -0.38594,0.86919 0.58188,4.55145 -1.18625,3.58546 z m 29.23646,-26.92929 c 0,-3.1349 0,-6.2698 0,-9.4047 -2.69053,0.0133 -7.83068,2.60159 -8.49891,2.61862 2.53514,-2.81244 9.61685,-0.81683 8.51043,-5.67072 0.0304,-6.50594 0.0245,-13.01227 0.12271,-19.5177 0.0521,13.79291 0.1631,27.58662 -0.004,41.37919 -0.16594,-3.13206 -0.10559,-6.27048 -0.13023,-9.40469 z m -23.88526,-14.21579 c 1.35373,-3.03442 1.79663,-6.16759 3.58536,-9.02396 1.48164,-3.18329 3.17126,-6.42473 5.41357,-9.12731 1.67449,-2.6679 2.74889,-3.66976 5.85513,-4.3355 3.92252,2.86383 0.62343,7.62893 -3.4121,8.04333 -3.40817,1.92794 -6.02011,5.09577 -8.10789,8.39616 -1.3258,1.87783 -1.69667,4.45196 -3.33407,6.04728 z m -9.68503,-8.4434 c -1.49724,-6.93491 -3.35001,-13.85172 -6.35396,-20.29175 4.83593,-0.88368 3.39169,6.45613 4.90201,9.62086 0.73108,3.66658 1.78518,9.67437 1.71112,11.98223 -0.11621,-0.4313 -0.15258,-0.87801 -0.25917,-1.31134 z m 9.52227,0.50393 c 0.73004,-6.98715 2.1552,-13.8815 3.83937,-20.69525 4.4168,-0.93405 0.21502,4.69395 -0.0529,6.6797 -1.59025,4.57692 -2.64793,9.31288 -3.78644,14.01555 z m -6.26921,-2.41821 c -5.40787,-2.10729 0.89747,-10.36684 4.39243,-5.70087 2.37392,2.59804 -0.79495,7.39567 -4.1098,5.80476 l -0.19474,-0.0716 z m 3.26359,-2.17846 c 2.90285,-4.75704 -7.28111,-2.94297 -2.76651,0.55129 0.89455,0.53824 2.12002,0.2336 2.76651,-0.55129 z m -3.26224,-8.26307 c -4.93546,-2.95435 3.83377,-8.61647 4.57225,-3.02374 0.54266,2.42482 -2.55554,4.47517 -4.57225,3.02374 z m 2.79921,-1.35322 c 2.77939,-3.75437 -5.88562,-2.93589 -2.0045,0.3054 0.63587,0.36934 1.50568,0.23392 2.0045,-0.3054 z"
         id="path55" /><path
         style="fill:#846e14"
         d="m 124.66684,251.87638 c 0.34962,-4.40505 -1.37513,-10.12583 0.6822,-13.70652 5.62448,-3.40138 11.22313,-6.85999 16.87032,-10.20181 3.92435,-1.87118 7.0089,-5.23576 11.17875,-6.61892 8.44288,4.71599 16.5671,9.96913 24.79124,15.0496 3.83335,1.0166 4.41467,4.20152 3.95235,7.72553 0.54669,2.84993 -1.16301,4.67626 -3.47582,2.13881 -2.35532,-1.27464 -3.37097,-3.0686 -5.79783,-5.39933 0.21194,-1.37288 -5.35626,-3.12496 -6.52592,-4.36477 -1.66705,-1.55812 -4.03982,-1.57288 -4.61298,-4.23204 0.29641,2.49539 -1.0082,-1.67257 -1.18051,0.40504 -0.76462,-2.44269 -1.09455,-0.23664 -2.62699,-2.21236 -2.18819,-1.22066 -2.85895,-4.94138 -4.90078,-5.39503 -1.43996,1.98493 -2.86326,5.43798 -4.81698,5.21971 -0.50646,-0.54956 -3.08781,0.56392 -1.24192,1.00157 2.09119,-1.29173 -0.0252,1.40446 -1.09256,0.66857 0.0139,0.98868 -1.84641,2.38212 -1.13908,0.76714 -1.2463,0.55039 -1.32623,2.66603 -1.59706,0.93803 -0.87606,0.46577 -3.57596,2.6162 -1.97958,0.66801 -1.76492,0.46398 -2.58609,1.86397 -1.98701,2.83287 -1.48032,0.54214 -0.17635,0.39452 -1.38601,1.02665 -1.0282,0.46958 -3.48567,1.81612 -4.50126,1.81155 -1.67901,1.00179 -0.76401,3.58721 -1.59125,3.09603 -0.0489,1.61866 -0.46357,-1.48764 -1.059,0.96057 -1.98441,2.5855 -3.5705,5.46189 -5.81884,7.81844 -0.42404,0.7363 -0.19507,0.19733 -0.14348,0.003 z"
         id="path54" /><path
         style="fill:#6b5809"
         d="m 148.33994,291.82444 c 0.55893,-1.62184 -3.89163,-5.51789 -0.31221,-4.76259 0.70088,0.5175 1.97863,6.61115 0.31221,4.76259 z m 9.81575,-0.45463 c -0.60952,-2.07091 1.39891,-8.74419 2.81064,-5.0475 -1.04373,1.02566 -2.12593,6.06966 -2.81064,5.0475 z m -4.18139,-1.39368 c -1.52531,-2.46053 1.68009,-6.01183 -1.62096,-7.24276 -1.16471,0.6683 -0.39455,-3.92997 -1.27561,-5.2184 -0.15972,-4.37415 -3.23028,-9.11907 -1.48088,-13.21262 1.40013,-1.69621 2.75267,-5.87028 4.05862,-6.09728 2.01085,3.1854 5.4569,6.94484 3.71331,10.90825 -1.60805,6.15118 -1.9492,12.52829 -3.00341,18.77633 -0.99039,-0.73809 0.5386,4.78566 -0.39107,2.08648 z m 0.67832,-19.02461 c 3.02814,-3.91439 -5.79033,-3.59128 -2.50479,0.0119 0.70601,0.55036 1.8217,0.62505 2.50479,-0.0119 z m -5.36095,17.70195 c 0.36177,-3.23593 -2.333,-5.18434 -1.513,-8.23418 1.42161,-0.46893 -2.36367,0.19887 -0.25146,-1.32488 0.97313,-0.53951 -2.56745,0.53141 -0.88111,-1.3553 2.65117,-1.48338 -2.74361,1.23538 -0.28868,-1.67554 1.89625,-1.34556 -2.91434,1.62439 -0.75005,-1.21631 3.38549,-2.70973 -2.93289,2.05498 -0.78701,-0.88761 1.46364,-1.30947 1.5681,-2.746 0.0231,-0.63461 -3.73998,2.25566 2.04351,-6.41844 2.2831,-1.16232 1.23806,3.0225 1.41364,6.26316 1.75922,9.46793 0.85468,2.13297 2.54231,6.89758 1.38244,7.6916 -0.1941,-1.92546 -0.3779,2.98907 -0.87404,-0.20229 -0.0345,-0.15515 -0.0677,-0.31179 -0.10253,-0.46649 z m 7.8367,0.2106 c 0.13995,-3.44956 -0.68823,-7.05776 1.11393,-10.09795 0.68553,-1.95362 0.93172,-9.62024 3.83299,-5.44657 1.80441,2.42098 -1.50793,1.362 -1.91354,0.37917 2.38266,1.54789 1.76492,3.76444 -0.32618,1.79411 1.06039,0.85065 2.39844,3.22146 -0.10284,1.95569 -1.79129,-1.11796 2.83716,2.32493 -0.30646,1.56894 -1.61435,-0.42246 2.22863,1.5918 -0.75506,1.46289 -0.75236,-0.0784 2.47104,0.48506 0.20519,1.29116 -2.25863,0.74135 1.69467,0.0306 0.0249,1.90082 -0.51491,1.6148 -1.14748,4.3393 -1.77296,5.19174 z m -11.94796,-3.57786 c -3.09415,-3.168 5.18902,-0.73429 0.61275,-0.39366 1.00033,0.43878 2.64397,0.90797 0.24786,0.84578 3.98788,0.81615 -0.49593,1.60271 -0.86061,-0.45212 z m 16.3885,-0.13847 c -2.99224,-0.315 -1.67753,-2.1243 -0.2849,-1.56957 -4.36743,-0.45786 2.61736,-2.34125 1.15102,-1.77347 -3.36673,-0.38076 -0.16639,-0.5401 1.35745,-0.65135 -2.10183,0.1987 -4.23616,-0.72894 -2.21662,-2.79577 0.192,-2.39599 3.05258,-1.87003 3.3777,-0.21003 -1.89008,-0.57213 -2.88991,-0.97682 -0.61075,0.4094 2.30661,1.11917 2.93189,-1.35305 0.34763,-1.23786 -2.90294,-1.74365 0.69632,-5.33011 1.89684,-7.14636 2.72783,-2.10854 5.11796,-5.10715 8.82171,-5.39361 0.57837,-0.49924 6.93485,-0.71292 3.92457,-0.87498 -5.02702,1.0914 -0.0556,-5.18956 -1.17163,-5.67055 -0.33885,1.20525 -2.43659,8.14156 -2.47929,3.69654 0.55215,-1.19437 0.27844,-6.22064 -0.24248,-2.48241 0.29184,1.96357 -1.18674,6.92761 -1.2458,2.21031 0.0633,-1.34232 -0.85994,-5.87534 -0.70322,-2.10937 0.74542,1.62782 -0.28551,7.57187 -0.7601,2.8363 -1.0006,-2.39673 -1.75025,-6.47712 2.32681,-5.5757 2.40682,0.67457 5.23849,-0.29517 2.87063,-2.86323 -1.72897,-3.7307 -3.10424,-7.62739 -5.0938,-11.23504 -2.41999,1.43261 -2.27458,0.40765 -0.45057,-1.04484 2.45417,-0.74257 3.65148,3.96365 5.62725,4.00348 1.74992,1.7857 5.06075,1.78498 4.08068,5.17213 -0.0495,4.73544 0.0336,9.47096 0.0319,14.20711 -1.77759,0.41775 2.41083,6.50304 -2.45251,6.01328 -3.42982,-0.19889 -5.64364,3.30694 -8.95327,3.11181 -2.74626,-1.73573 0.98623,1.28146 -1.43698,2.40391 -2.20016,1.89909 -4.66928,4.16002 -7.29427,3.50533 2.62617,-0.088 3.12225,2.79324 0.10454,2.28065 -3.09427,-0.23153 3.31382,0.43564 0.21151,0.93438 0.11981,0.67684 -0.25827,1.39365 -0.73401,1.84951 z m 5.47381,-8.73125 c 2.61683,0.25134 -1.41978,-3.8558 1.38813,-3.16592 -1.2904,-0.73124 -4.8965,0.2708 -1.70637,0.9988 1.83768,1.14835 -3.19335,-0.5911 -1.56354,1.96291 0.34943,0.70929 1.38134,0.84271 1.88178,0.20421 z m -23.48427,6.35359 c -0.24471,-1.64204 4.33894,-0.491 0.99469,-1.06193 -0.8792,0.30477 -2.63597,-0.52945 -0.71511,-0.5859 -4.83989,-0.49265 4.35016,-2.12893 0.21636,-1.54184 -2.05758,0.73581 -5.83786,-1.46353 -2.26839,-1.92865 -1.34951,0.67705 -4.03242,-0.42253 -2.7182,-1.85432 2.34313,3.02444 3.27957,-2.462 0.29418,-1.35725 -1.24597,-0.4719 2.63661,-1.21729 3.48556,0.25685 -1.97427,-3.35561 -5.78138,-0.0202 -8.2936,-0.54813 -2.83203,-2.0126 -7.336,-2.66904 -9.57481,-4.48752 -0.60679,-2.52509 3.42942,-4.83082 -0.28337,-4.76025 0.49584,-4.58101 -1.04029,-9.7746 1.12821,-13.93206 1.67444,-2.76124 3.91202,-5.26077 5.45859,-7.99311 0.99601,2.0094 -0.24822,-0.4267 0.87437,-0.0319 -1.32134,-2.55043 4.52458,-4.93994 4.47386,-4.09633 -2.36416,0.33296 -2.21916,3.20228 -1.92079,3.79541 -2.86237,1.67224 -2.62376,6.118 -4.4455,8.80881 -0.80887,2.18234 -4.0284,6.59848 0.44793,5.27123 2.57357,-0.0308 7.98924,0.71965 5.74273,4.32834 -0.35663,1.3639 -1.79003,6.14244 -1.82817,2.18539 0.22653,-1.89234 0.91313,-7.12679 -0.0572,-2.52564 -0.11318,1.58326 -0.92626,6.09643 -1.10224,2.02 0.0673,-1.21805 -0.16612,-7.50157 -0.53769,-3.2809 0.44107,1.60459 -0.42904,7.26553 -1.12687,2.7138 0.0598,-1.3852 -1.09319,-6.85197 -0.86459,-2.72225 0.77786,1.52887 0.45768,6.67869 -0.90005,2.59084 0.06,-1.42376 -2.11354,-6.49984 -1.42086,-2.76977 1.42194,2.3515 2.21332,5.81847 -1.81206,4.67516 1.72873,0.59027 6.97592,0.62256 9.3185,2.99783 2.686,1.97883 5.85314,4.58137 6.99418,7.74751 0.28081,1.00318 1.82736,2.7148 -0.33278,2.73447 2.96792,-1.24846 4.87435,5.26055 3.17029,5.93451 -0.77759,-0.0487 -1.80043,0.006 -2.39714,-0.58237 z m 18.13415,-10.31222 c -3.23594,-1.58758 0.60944,-7.07976 2.01719,-2.44466 1.71225,2.89809 -0.98459,1.69689 -2.04766,-0.17431 1.08351,1.35307 3.91897,6.24268 0.0305,2.61897 z m -18.5153,-0.063 c -0.22493,-0.74893 -1.34109,-1.00213 0.20498,-2.22372 1.90682,-2.93672 3.58249,-0.0511 0.95043,1.40534 -0.0403,0.0255 -1.51107,1.82966 -1.15541,0.81838 z m -1.48166,-1.32291 c -0.52132,-1.86829 3.4739,-6.46018 0.39858,-2.54878 -2.95406,3.17939 -1.02071,-2.01556 0.0764,-3.21591 0.67264,-1.74991 -3.81296,6.31828 -2.49644,1.73684 0.95293,-1.50521 2.17626,-5.63397 0.52263,-1.84836 -0.40083,1.52997 -2.96757,3.77217 -1.60442,0.65719 0.66152,-1.12764 2.28382,-5.89952 0.50694,-2.20288 -0.10819,1.32808 -2.58174,4.79617 -1.81321,1.46033 0.61353,-1.6077 1.76397,-6.797 0.40204,-2.41365 -0.1271,1.84302 -2.72884,4.58679 -1.5248,0.96242 0.28023,-1.84737 1.16652,-6.785 3.50007,-3.38219 1.83559,2.06458 6.08545,5.56397 4.80892,8.22324 -1.14062,0.52133 -1.28486,2.92607 -2.77675,2.57175 z m 22.00752,-1.5888 c -4.08516,-1.79562 1.4107,-8.28713 2.4612,-2.61395 1.1846,2.68665 -0.44654,3.04309 -1.63512,0.64671 -3.52063,-4.51999 3.84065,5.70035 -0.33338,2.54896 z m 2.72113,-2.63213 c -0.74639,-2.39035 -3.24494,-3.69952 -0.32873,-5.61976 1.87791,-2.55781 6.68283,-4.96386 5.92613,0.26948 0.74619,2.02477 -0.21655,5.1068 -1.08422,1.3777 -0.30994,-1.31026 -1.88163,-5.07553 -0.95148,-1.7486 1.1954,1.23003 1.21692,7.23095 -0.51489,3.30182 -0.36626,-1.25017 -2.56342,-5.50426 -1.1863,-1.97151 1.51078,1.31296 1.50647,7.58921 0.007,2.81697 -0.48822,-1.33975 -2.98478,-4.86407 -1.20773,-1.50694 1.31961,1.42172 1.78134,5.68597 -0.0712,1.84512 -0.96435,-2.32602 -1.61318,-2.01852 -0.27584,0.061 0.92996,1.23985 0.84918,3.7363 -0.31253,1.17479 z M 137.61939,238.25 c 1.19385,-0.89897 1.81615,-1.84036 1.44843,-2.54012 0.65062,-0.34197 3.15237,-2.29921 1.25604,-0.63466 1.6072,-0.21981 2.14046,-1.36044 3.21282,-1.2592 0.67414,-1.74479 2.25008,-0.23185 2.81985,-1.76277 -0.91507,1.78009 -3.51541,2.19496 -1.76887,4.24278 -1.38495,2.36678 -3.53799,-1.60984 -5.05918,1.03673 -0.59803,0.37422 -1.21745,0.74524 -1.90909,0.91724 z m 29.75406,-0.88448 c -1.5911,-3.03814 -3.21485,0.56793 -4.98518,-0.34524 -0.0706,-4.74195 4.20833,0.0577 6.12981,-0.0958 -1.42072,0.59537 2.49647,2.00454 -0.49157,0.91212 l -0.65306,-0.47107 z m -20.90683,-5.66357 c -0.49598,-2.85338 1.99056,-0.38861 2.79827,-2.60847 0.55627,1.89143 5.08262,-7.11193 2.97239,-2.56333 -1.48521,2.01494 -3.07457,4.80915 -5.77066,5.1718 z"
         id="path53" /><path
         style="fill:#2c2104"
         d="m 138.26928,298.28152 c -4.51996,-2.73939 -9.03993,-5.47877 -13.55989,-8.21816 0,-6.38358 0,-12.76717 0,-19.15075 11.44857,1.90262 20.22541,11.58942 23.62274,22.32382 1.55188,4.15062 2.88774,8.40614 3.57917,12.79229 -4.83467,-1.99182 -9.08983,-5.20025 -13.64202,-7.7472 z m 16.33802,8.15126 c 1.30962,-7.34361 3.98696,-14.46648 7.6069,-20.97191 4.14246,-6.66961 10.39523,-12.73393 18.29854,-14.37495 3.43594,0.66523 0.75276,6.08295 1.55233,8.84133 -0.0244,3.27683 -0.0489,6.55365 -0.0733,9.83047 -9.12666,5.55844 -18.09556,11.41379 -27.34738,16.74324 l -0.037,-0.0682 z m -2.49807,-4.28556 c -1.00836,-2.61986 -1.08917,-8.90071 -1.85232,-9.54485 0.0541,-1.42015 -0.76638,-4.89501 0.33867,-3.07982 0.50889,2.10308 1.04344,6.00155 1.24577,8.8188 0.24159,0.68541 0.94485,6.41827 0.26788,3.80587 z m 2.33568,0 c 0.67363,-5.96908 0.96956,-12.01944 2.50064,-17.8542 0.7378,3.88096 -0.13631,5.63467 -0.71011,9.6256 -0.61304,2.47765 -1.28071,8.55895 -1.79156,8.78493 z m -1.23492,-2.31511 c -0.38628,-5.67277 -0.75444,-11.34675 -1.12437,-17.02061 3.88311,0.65214 0.28223,5.98284 1.86318,8.56458 -0.0681,2.96022 -0.2672,8.47498 -0.62645,9.85842 -0.0488,-0.46652 -0.0767,-0.93479 -0.11236,-1.40239 z m 4.75133,-7.73906 c -0.28742,-5.25379 2.00392,-10.24993 4.05905,-14.96271 2.59544,-4.96291 6.3233,-9.86938 11.5891,-12.10238 1.64694,0.0119 -3.43652,1.71195 -4.1323,2.78979 -3.98171,2.85967 -5.93367,7.4974 -8.33859,11.5866 -2.38984,2.87922 4.56848,2.19435 0.43409,2.62759 -2.97876,0.67442 -2.01766,4.43292 -3.14157,6.92975 -0.27924,0.71789 -0.0167,3.19439 -0.46978,3.13136 z m -9.42535,-3.23669 c -0.20255,-1.55426 -0.55538,-3.35453 -2.58478,-3.06186 2.29271,-0.19086 1.29173,-0.66499 -0.24218,-0.81556 3.4157,-0.002 0.65197,-2.12799 -1.25955,-1.5176 2.01109,0.88777 2.64241,-1.91711 2.27815,-1.88198 1.04432,2.5467 2.54609,8.53856 2.30133,9.18439 -0.20188,-0.62578 -0.33233,-1.27071 -0.49297,-1.90739 z m -2.54874,-8.63169 c -2.3198,-5.69465 -6.04061,-10.93247 -11.25482,-14.29667 4.91319,2.36895 8.25252,7.4556 10.73264,12.27747 0.16308,0.13891 1.49529,3.46517 0.52218,2.0192 z"
         id="path52" /></g><g
       id="g60"
       transform="translate(49.356215,-112.53218)"><path
         style="fill:#62c2c8"
         d="m 90.702612,374.31233 c 0.01198,-2.14208 -0.0273,-10.28973 0.06957,-8.35633 0.05223,4.88195 0.06151,16.62451 -0.04485,17.25881 -0.03815,-2.96735 -0.01403,-5.935 -0.02472,-8.90248 z M 60.804325,363.26598 c -4.093535,-3.28733 -4.571021,-8.7398 -6.346081,-12.66777 4.161009,-1.36497 7.447942,-7.71711 11.097273,-2.35307 6.703609,1.76883 0.564144,6.31285 0.197023,10.59372 4.312026,-1.6469 -2.857515,3.38762 -2.921308,5.01893 -1.052385,1.00528 -1.518623,0.30208 -2.026907,-0.59181 z M 40.704179,352.95334 c 2.959679,-2.83752 5.61558,-2.03984 5.854583,-0.46616 -0.740638,0.50979 -7.442191,1.7585 -5.854583,0.46616 z"
         id="path66" /><path
         style="fill:#d35dbb"
         d="m 57.04026,387.49568 c -1.008022,-4.43105 -2.687722,-8.8756 -1.629315,-13.46755 0.753416,-4.23387 -5.372107,-8.36176 0.794948,-9.96398 4.960657,-1.54382 5.861738,6.85745 3.947519,10.14641 -0.676556,5.7424 0.230289,12.33392 -2.117885,17.38051 -0.328963,-1.36581 -0.663682,-2.73022 -0.995267,-4.09539 z m -5.758619,-11.29749 c -3.156991,-2.32923 -6.723433,-7.55085 -6.208338,-11.00975 5.335217,-3.57555 11.515588,10.98555 6.208338,11.00975 z"
         id="path65" /><path
         style="fill:#e1b047"
         d="m 61.645186,406.643 c -0.728079,-5.89352 -4.202408,-11.82311 -2.681002,-17.75852 1.555769,-6.26699 0.190321,-12.88169 2.012822,-19.1139 3.030158,1.58382 2.431008,-8.36709 7.133144,-4.70112 6.05575,1.15193 -1.882566,7.34892 0.829789,11.67025 0.327952,5.16526 -2.142021,10.17549 -3.005736,15.2578 -1.260424,4.62911 -2.280196,11.72015 -4.289017,14.64549 z m 9.341152,-30.91373 c -1.772894,-7.42976 6.199277,-13.18289 12.898058,-13.53114 2.90947,0.10624 -4.763731,2.9436 -4.889998,5.27078 -2.274726,2.30125 -3.711573,11.08338 -8.00806,8.26036 z"
         id="path64" /><path
         style="fill:#69f24d"
         d="m 69.014596,365.58108 c -7.421877,-1.63445 1.698454,-7.43958 5.10533,-8.45867 5.232599,-3.38284 10.779571,-1.02341 15.490311,2.05468 1.099199,1.13165 -7.108418,0.29518 -9.670458,1.77313 -4.271493,0.13204 -6.994166,5.77087 -10.925183,4.63087 z m -2.135378,-6.5843 c -2.598552,-3.40575 3.460264,-10.64628 7.700861,-6.1337 4.031583,2.49192 -7.269471,3.55606 -7.700861,6.1337 z"
         id="path63" /><path
         style="fill:#624ce7"
         d="m 43.333368,365.55784 c -2.131962,-1.94013 -7.671005,-4.38225 -1.481728,-3.17638 2.167922,0.35709 7.837544,1.92176 3.139675,3.02851 -0.983029,0.27232 -0.981378,1.10964 -1.657947,0.14787 z m 7.689561,-0.93786 c -3.422116,-4.87377 -14.420851,-3.75284 -15.715825,-5.75748 3.949347,-2.85356 9.241389,-4.76948 13.85743,-2.22569 3.231525,1.30889 12.786557,6.60122 5.188508,8.57126 -1.473343,0.97396 -2.229019,0.81695 -3.330113,-0.58809 z m 4.557091,-6.56897 c -1.76111,-2.48878 -11.114745,-3.31777 -4.816436,-5.673 4.031062,-5.3445 7.381554,5.13033 4.816436,5.673 z"
         id="path62" /><path
         style="fill:#23222a"
         d="m 55.37471,404.52044 c -7.428343,-4.48556 -14.782754,-9.09221 -22.211155,-13.57767 0.03787,-17.05346 -0.144345,-34.10634 -0.327195,-51.15856 9.604509,-5.8397 19.094035,-11.87168 28.833299,-17.4873 -1.163178,6.63254 -3.177713,13.06967 -4.825897,19.58839 -0.701042,-2.36242 -0.706783,-9.58307 -1.643913,-8.92142 -2.205989,5.00886 -1.240714,12.1615 -6.181244,15.42494 -3.435388,1.67382 -12.483797,6.28407 -3.667559,4.55064 4.38272,-1.87963 8.591945,-4.2811 12.679307,-6.74919 3.005765,-1.2345 3.677395,-9.61514 5.446297,-2.81306 3.430901,4.94595 9.753421,6.39652 14.687664,9.39483 2.547296,1.25725 8.488643,0.94669 3.085525,-0.91882 -4.996706,-2.47042 -10.393986,-4.68834 -10.320628,-11.16155 -0.817307,-2.36649 -2.485772,-12.04527 -2.86254,-5.08295 0.18853,3.29151 -1.302222,6.89225 -2.008215,1.6211 -0.799707,-4.16379 -4.311126,-12.40052 -2.849757,-14.12763 9.238559,5.36612 18.24441,11.11783 27.363004,16.68237 -0.0322,6.57042 0.09995,13.14326 -0.128987,19.71146 -4.878183,-2.26307 -9.941754,-6.11653 -15.400878,-3.00449 -6.181571,2.37863 -11.097708,7.76684 -12.958242,14.11699 -2.692037,-7.73922 -9.481434,-14.50031 -17.891957,-15.24951 -2.947742,0.0972 -9.072769,2.69252 -9.371273,4.27276 7.509428,0.33939 16.733053,2.3118 19.926903,10.02953 1.325309,5.27452 -0.353672,10.7457 1.82675,15.94325 1.682967,7.28896 3.688567,14.501 5.255294,21.8172 2.270783,-5.89584 3.098774,-12.29327 4.856712,-18.3804 0.690545,-4.08762 2.707174,-8.19496 2.208156,-12.32596 -1.513982,-5.78665 1.953584,-11.65117 7.176807,-14.13159 4.429388,-2.34765 9.556611,-2.97166 14.507132,-2.8232 -0.0025,10.36285 -0.0049,20.72569 -0.0074,31.08854 -9.291171,5.65411 -18.520493,11.40919 -27.816892,17.05475 -2.956932,0.45657 -4.907617,-2.33718 -7.379118,-3.38345 z m -2.285562,-28.90319 c 1.380035,-7.79647 -7.079653,-14.06759 -14.30327,-13.45268 3.81697,2.29311 7.303018,5.91783 9.008664,10.29183 1.003964,1.43897 3.284872,5.85099 5.294606,3.16085 z m 20.305418,0.31987 c 4.358811,-3.03175 4.206029,-9.83662 9.420959,-12.11237 6.441462,-3.24058 -4.420896,-1.20587 -6.281448,0.68988 -3.555616,0.64579 -9.547027,13.01189 -3.139511,11.42249 z m -7.697618,-15.64118 c 1.991451,-3.27827 9.613415,-4.78224 9.556235,-6.6727 -4.594794,-2.18993 -10.116735,-5.89299 -13.692131,-7.82186 -3.621573,3.82448 -9.270799,4.87753 -13.162448,8.22611 4.638508,2.39758 10.2332,5.25201 13.143121,10.24984 0.965017,1.82614 2.552396,-3.45608 4.155223,-3.98139 z"
         id="path61" /></g><g
       id="g66"
       transform="translate(-61.448494,-68.851926)"><path
         style="fill:#f9aa4c"
         d="m 272.73851,324.57066 c 0.0125,-5.18185 -0.0216,-10.36396 0.0436,-15.54557 0.0801,10.3635 0.0801,20.72763 0,31.09113 -0.0652,-5.1816 -0.0311,-10.36372 -0.0436,-15.54556 z m -36.77584,4.5622 c -5.11782,0.27527 -12.25326,-7.2231 -12.61398,-12.31671 0.43343,-2.47027 6.80758,-2.81653 8.26226,-1.69487 3.51314,2.31506 7.80901,7.06665 8.95382,11.31245 0.55331,1.19291 -3.99471,2.45386 -4.6021,2.69913 z m 11.79214,-1.12253 c 0.98862,-4.93981 6.86956,-10.4629 11.19688,-12.34123 1.69328,-1.40606 6.67647,1.1359 5.49548,3.50854 -0.71495,2.39716 -4.05384,6.46465 -6.00589,8.05431 -2.6519,1.91024 -7.56356,1.35876 -10.68647,0.77838 z m -4.18222,-3.13964 c -1.92185,-1.53252 -2.97696,-9.61024 -0.6151,-10.77629 1.63699,0.51048 5.0093,4.92165 4.42429,6.51027 -0.27732,1.93367 -2.90957,3.90611 -3.80919,4.26602 z"
         id="path69" /><path
         style="fill:#241a15;stroke-width:1.03757"
         d="m 239.60249,339.28673 c -3.76468,-0.35899 -7.17476,-2.25809 -10.85092,-3.03019 -3.03647,-0.58428 -5.12907,-2.74442 -7.63999,-4.25416 -2.87056,-2.29459 -4.34256,-5.77145 -4.4228,-9.38972 -0.83841,-4.23995 -0.85307,-9.83229 3.58421,-12.1161 0.88955,-1.72901 2.91007,-0.67944 4.09048,-2.22088 1.42148,-1.24578 4.57152,0.45267 4.50059,0.24619 1.17608,-2.0338 3.52054,0.76188 5.80605,-0.51216 5.7005,-0.67503 11.46767,-1.13524 17.1763,-0.24313 4.22523,-0.78642 8.242,-0.41755 12.37038,1.01098 3.18879,-0.2274 6.29144,3.11814 7.02462,6.21391 0.79981,4.40119 0.13922,9.02855 -1.19554,13.26907 -1.58396,2.73906 -3.58226,5.12287 -6.53293,6.36523 -2.67492,2.28532 -6.41871,2.22067 -9.55443,3.72867 -3.9342,0.95338 -8.11823,0.97318 -11.84115,0.48507 -0.41157,0.9755 -1.75953,0.79119 -2.51487,0.44722 z m -0.5827,-12.80022 c -2.19092,-5.50235 -7.26042,-10.05998 -13.16154,-11.04792 -2.67214,2.55556 1.4624,8.58709 4.42096,10.28299 2.4364,0.69435 6.61628,2.33566 8.74058,0.76493 z m 14.40173,0.37654 c 4.82171,0.21374 8.46056,-3.85482 9.61506,-8.19816 1.11877,-5.06172 -4.62885,-2.18713 -6.80003,-0.69709 -2.97619,1.91427 -5.36995,4.70769 -6.85373,7.91654 -0.34099,2.33699 2.92745,0.65032 4.0387,0.97871 z m -8.00805,-5.94582 c 2.94402,-1.9862 -2.29189,-8.10252 -3.0233,-3.4432 -1.56709,1.40475 1.92511,8.02359 3.0233,3.4432 z"
         id="path68" /><path
         style="fill:#15100e"
         d="m 241.09576,366.02395 c -3.68088,-2.20453 -7.20711,-4.70772 -10.92486,-6.79813 -5.01959,-2.96861 -9.90248,-6.16681 -14.97401,-9.05089 0.0562,-10.29853 -0.15587,-20.60107 0.21167,-30.89594 1.51197,0.36008 -1.12385,-2.72589 -0.15826,-4.00802 -0.10207,-5.33645 -0.0322,-10.67399 -0.0534,-16.01094 9.5322,-5.86531 19.0644,-11.73061 28.5966,-17.59592 9.5619,5.89225 19.1238,11.7845 28.68569,17.67676 0,16.99129 0,33.98257 0,50.97386 -9.5404,5.79091 -18.91979,11.8516 -28.62785,17.36287 -0.96032,-0.47921 -1.84522,-1.08946 -2.75556,-1.65365 z m 1.28707,-27.60992 c 2.16442,-1.00363 5.03523,1.21895 7.58522,-0.29312 3.58386,0.16755 6.13668,-1.87269 9.54036,-2.26539 2.53889,-1.54953 5.5359,-2.1201 7.12296,-4.89938 2.75976,-1.45489 3.01618,-5.0573 3.68935,-7.96825 0.19568,-4.0379 1.00329,-8.96288 -2.53961,-11.90753 -2.80673,-2.67713 -7.0034,-2.31353 -10.54914,-3.22755 -3.47988,-0.5303 -6.99367,1.12203 -10.40713,-0.17629 -3.5691,-0.01 -7.15114,0.3153 -10.70321,0.61955 -2.37909,1.64627 -6.1753,-2.15055 -6.91744,1.19334 -1.64307,-2.81172 -5.95434,-0.0307 -7.57785,1.03201 -2.58124,1.27762 -4.81472,4.49722 -4.34322,7.86173 0.1486,3.89288 0.35367,7.95614 2.68858,11.21238 2.36028,2.39641 5.27222,4.51765 8.39414,5.84239 4.31201,0.89093 8.36299,3.03611 12.79036,3.28549 l 0.634,-0.0952 0.59263,-0.21412 z"
         id="path67" /></g></g></svg>
