<?xml version="1.0" encoding="UTF-8" standalone="no"?>
<!-- Created with Inkscape (http://www.inkscape.org/) -->

<svg
   width="86.755058mm"
   height="99.047241mm"
   viewBox="0 0 86.755057 99.047242"
   version="1.1"
   id="svg1"
   xml:space="preserve"
   xmlns="http://www.w3.org/2000/svg"
   xmlns:svg="http://www.w3.org/2000/svg"><defs
     id="defs1" /><g
     id="layer1"
     transform="translate(-208.60275,-113.90919)"><g
       id="g53"
       transform="matrix(0.53141267,0,0,0.53141267,88.011642,53.474165)"><path
         style="baseline-shift:baseline;display:inline;overflow:visible;opacity:1;fill:#161021;fill-opacity:1;stroke:#63382f;stroke-width:3.97578;stroke-linecap:round;stroke-linejoin:round;stroke-dasharray:none;stroke-opacity:1;enable-background:accumulate;stop-color:#000000;stop-opacity:1"
         d="m 306.12106,116.36346 -74.77629,43.17245 a 4.8622455,4.8622455 0 0 0 -2.43133,4.20926 v 86.34489 a 4.8622455,4.8622455 0 0 0 2.43133,4.20926 l 74.77629,43.17247 a 4.8622455,4.8622455 0 0 0 4.86265,0 L 385.76,254.29932 a 4.8622455,4.8622455 0 0 0 2.43133,-4.20926 V 163.74517 A 4.8622455,4.8622455 0 0 0 385.76,159.53591 l -74.77629,-43.17245 a 4.8622455,4.8622455 0 0 0 -4.86265,0 z m 2.43132,9.82161 69.91365,40.36628 v 80.73254 l -69.91365,40.36628 -69.91708,-40.36628 v -80.73254 z"
         id="path56"
         transform="translate(1.7641657e-6)" /><path
         style="fill:#c94a32;stroke-width:0.856867"
         d="m 300.64542,221.0802 c -5.60941,-5.15929 -18.43019,-5.5744 -15.56408,-16.30758 1.25619,-6.54643 -3.09395,-18.13362 3.40523,-21.38037 2.75024,6.04236 3.34496,13.64647 10.21854,17.13801 6.88533,4.06006 8.79518,12.70978 5.51193,19.72193 -0.61838,1.40094 -2.3877,1.77639 -3.57162,0.82801 z m 13.30519,-3.12693 c -3.11939,-9.24289 2.66483,-18.15944 9.53142,-23.85806 2.10906,-3.76753 6.66723,-5.57073 4.59976,0.69176 -1.58372,6.25313 3.40817,16.42393 -3.67414,19.34545 -2.81744,0.35118 -11.26176,9.28324 -10.45704,3.82085 z m 38.68533,-0.71111 c -6.54108,-0.96321 -5.34734,-5.98503 0.22359,-6.90561 5.28743,-5.28629 12.9232,-3.52366 18.35508,-6.04323 0.87818,-2.26685 -9.00893,0.62697 -5.62683,-5.72026 0.64255,-5.44599 4.61597,-9.61686 6.66783,-13.85387 -2.86448,3.65746 -3.43642,-2.75707 -6.24513,1.89554 -2.15035,4.20739 -3.88987,1.88325 -3.75066,-0.52192 -3.35713,6.60113 -1.63764,16.93746 -10.69326,19.46554 -4.12545,4.44105 -12.7492,5.11494 -9.82447,-3.0863 1.29963,-9.99464 13.88633,-12.89493 15.52933,-22.78289 1.91225,-3.8846 1.0029,-8.34214 -2.31478,-6.3837 1.49972,6.59379 -10.06636,20.57375 -12.66741,8.55978 -2.70947,-4.36419 -7.80459,-11.34868 0.9853,-12.33435 6.76794,-5.84533 16.2071,-7.15618 22.7525,-0.53379 5.15434,3.36685 13.90945,5.06085 11.4476,12.92687 -1.08876,7.96627 1.72303,17.91503 -1.53835,24.41811 -7.65642,2.94823 -15.60592,11.15658 -23.30034,10.90008 z m -84.3224,-4.38259 c -7.50517,-1.5968 -7.80203,-10.62011 -8.8674,-14.11566 4.21499,-8.19373 14.33687,-0.97825 13.6053,6.37799 1.45037,4.71666 -1.26406,5.94543 -4.7379,7.73767 z m 65.00414,-6.83517 c -3.89747,-7.45016 -0.12562,-16.15618 -1.86645,-24.08443 -0.92396,-4.43281 4.10499,-10.76055 6.20243,-3.5292 4.69035,8.97625 -2.94954,17.59425 -2.30482,26.55569 0.18899,1.03239 -1.20713,2.09524 -2.03116,1.05794 z m -52.63406,-3.94685 c -2.81956,-5.21358 -1.67803,-12.75184 -1.34874,-18.85263 3.12054,-10.13939 1.93431,4.98681 1.76765,9.75695 0.0397,3.00666 0.31446,6.15031 -0.41891,9.09568 z m 29.7884,-3.8931 c -5.08254,-6.043 0.90906,-19.18815 8.45562,-18.52963 10.30669,1.06602 3.1973,11.34032 -0.90343,15.59075 -1.92653,1.94382 -4.69273,3.75239 -7.55219,2.93888 z m -9.25622,-1.55849 c -5.99845,-1.77519 -12.47499,-14.56723 -6.64591,-17.66679 5.57038,-5.52093 9.85015,-0.52575 9.91951,5.74446 0.42409,4.02737 0.23976,9.23968 -3.2736,11.92233 z m 30.75988,-38.00873 c -10.26166,-1.48554 -16.62453,-15.03292 -10.67487,-23.61106 2.7277,-2.84449 6.92498,-1.46533 10.24844,-0.32375 -3.50164,1.6166 2.87992,0.30235 3.38606,2.31944 3.58879,-1.3094 2.54349,7.39055 5.42478,2.80135 -1.14702,-7.00019 4.08556,-6.87669 7.54443,-3.33696 5.21875,0.46153 5.38932,6.21376 4.60544,10.13094 -1.8907,9.32599 -11.92396,13.30304 -20.53428,12.02004 z m 5.18148,-6.32186 c 8.63723,0.50648 8.76948,-14.05853 5.49863,-16.31484 -1.03485,6.20853 -3.24478,12.74171 -7.28223,16.80494 l 0.76551,0.0983 z"
         id="path55" /><path
         style="fill:#2d2244;stroke-width:0.856867"
         d="m 254.51298,286.97785 c 7.26227,-3.97229 16.14816,-4.70013 24.04111,-6.21313 7.55507,-0.69724 17.3353,-7.33684 18.15388,-15.34368 -2.66741,-8.26467 -14.31553,-12.62535 -21.65288,-10.27972 -6.04302,3.65027 -13.93941,11.68298 -20.84269,7.78414 -5.67237,-5.27055 -17.014,-6.32777 -18.16014,-14.68422 -2.95291,-5.20855 8.82881,-1.28113 4.12381,-6.21417 -1.17988,-1.09774 16.01205,5.14642 9.85138,-2.51654 -2.8997,-4.03589 -13.33556,-3.05797 -12.54323,-8.77426 3.54626,4.69146 15.94549,3.45459 9.40466,-3.73056 -1.59699,-3.25859 -5.50351,-14.28783 0.63465,-6.5459 6.06398,7.20791 7.13735,17.52301 13.46125,24.2925 3.75551,4.86787 18.4088,2.36873 9.4283,-3.55055 -3.77336,-3.09293 -8.28284,-12.76654 -4.34191,-14.68652 2.97669,3.9282 7.59283,19.27484 12.65914,10.13913 1.00367,-4.17356 3.76332,-5.15021 2.80414,0.16194 -0.574,8.35328 8.48098,17.06555 16.55073,13.43376 3.06543,-8.06549 -4.21117,-16.57311 -10.76468,-20.62539 -7.92203,-3.4106 -15.23325,-7.67388 -22.07651,-12.84924 -5.20105,-0.68428 -9.29377,2.12444 -13.85692,-2.61359 -6.25466,-4.95768 -18.44139,-6.12187 -15.45376,-16.33261 -0.03,-7.58493 -0.1242,-15.17544 0.25122,-22.7542 7.94018,-3.15738 15.96491,-12.19813 24.35504,-10.68567 3.39072,3.26884 10.71674,3.95967 6.18795,-2.61774 -2.58287,-4.41017 -10.42742,-13.64639 -7.75114,-16.19164 2.14142,5.51624 9.95484,14.63756 12.22511,4.09755 1.44413,-4.63494 4.01028,-4.36633 1.75444,0.26998 -2.72538,7.37667 -5.34897,20.97416 4.71495,23.53614 3.9774,-0.33771 3.26773,-6.42007 3.52451,-0.0499 0.95472,6.82394 -3.69546,11.0482 -2.3549,18.56189 0.36931,2.4503 0.53775,13.62644 2.11045,7.81125 -0.23199,6.54442 -2.61131,14.08439 4.32246,18.96253 4.29548,4.89763 16.84278,12.6973 19.03333,2.31057 2.13691,-6.7328 2.64953,-15.80111 -4.72774,-19.741 -5.9352,-3.84622 -9.22917,-9.90609 -10.17448,-16.72429 -1.87463,-3.20836 -0.63555,-16.30586 1.41392,-6.4654 1.99849,5.90802 3.63631,19.16615 11.65225,17.79602 4.87154,-8.20607 0.63092,-18.33715 -4.82115,-25.14779 -5.33163,0.0936 -9.00481,-12.59671 -2.26077,-5.25974 2.35733,4.92984 14.96036,10.81161 11.1504,0.73 -3.38109,-3.502 -7.98094,-13.19493 -4.23402,-14.66448 -1.48205,5.3669 7.70395,17.74274 8.70765,7.00525 1.56129,-7.5846 2.20749,5.91177 0.66375,7.94123 -4.25723,5.29181 1.19482,12.56883 5.50718,5.45186 1.69536,-1.75981 7.61572,-11.3802 4.95681,-3.42577 -2.36996,6.66359 -7.36451,11.63329 -11.55953,17.14058 -5.82176,5.37112 -0.0868,17.71102 6.92392,10.28371 5.76943,-4.84316 7.76075,-15.80462 9.21091,-19.87792 2.45679,7.31445 1.71731,15.7133 -5.34847,20.22801 -7.26526,5.44474 -8.66468,13.88387 -7.87913,22.35222 -2.50777,7.02646 4.25137,10.92129 8.21155,4.17145 6.58319,-3.70372 13.85661,-8.14654 13.53798,-17.11677 -0.63284,-8.59374 5.95499,-16.43845 3.35121,-25.03815 -2.65071,-2.94773 -5.26869,-14.09448 0.1808,-5.94719 1.91908,5.25439 6.93692,18.21807 12.65404,8.44344 2.32552,-4.27828 3.7358,-11.64558 7.05055,-9.91452 -0.0159,9.01426 -6.16351,16.19255 -12.95162,21.34298 -4.88231,3.84518 -6.59413,19.61523 2.74738,12.75315 9.52216,-2.43965 11.95411,-11.80801 13.23585,-20.23289 1.8202,-5.42682 0.72338,7.05879 4.02058,0.40606 0.68373,-1.86919 4.08164,-5.00034 4.09495,-1.05981 6.2686,-3.49147 -6.04617,7.83931 -3.92983,12.60122 -2.22247,5.88934 4.85072,3.39183 5.95052,5.21985 -7.41343,1.53855 -15.33238,2.52358 -21.78442,7.6036 -8.71622,2.47148 -13.14717,11.68477 -21.72292,14.16949 -8.73056,3.20564 -16.121,12.48874 -15.34044,21.99289 2.47474,5.27571 8.22118,-3.04962 12.42531,-3.53861 7.4457,-4.12609 11.97619,-11.48856 15.10604,-19.12943 1.64365,1.2985 -2.23406,8.33223 4.1383,7.72502 -10.05251,5.91502 3.24315,16.29322 9.888,9.00366 8.60488,-3.41181 8.04933,-13.62337 11.6063,-20.76476 4.95519,-8.44342 0.6138,4.55539 0.30013,7.33078 -2.09637,8.75819 7.40521,4.41536 10.01417,0.24418 4.04411,4.63406 -9.57823,7.66361 -12.59596,11.62262 -6.4869,5.62843 1.16549,7.92932 6.1529,5.98652 6.50918,1.06726 5.93182,-3.27609 7.08609,-6.71662 1.29605,6.92601 1.86218,15.30919 -6.77459,16.89071 -7.31497,3.88767 -16.07521,12.50532 -23.65638,4.04682 -8.19313,-3.81386 -16.72255,-13.93318 -25.37527,-4.86511 -9.02206,5.63036 -5.21149,19.7629 5.53699,19.73737 7.58184,3.53777 15.36357,6.68852 23.8399,8.00788 3.48448,-0.95639 13.75705,4.17254 5.26672,3.51385 -33.7424,0.0268 -67.51632,0.42373 -101.24008,-0.21432 z m 18.75381,-71.50405 c 0.99212,-5.6904 -0.0129,-12.66658 -2.90029,-17.38586 -3.21125,-6.32571 -12.90398,-2.14544 -9.6586,3.4063 -1.81406,7.05794 6.20073,10.61715 11.1247,14.09701 0.4993,0.0689 0.96299,0.0944 1.43419,-0.11745 z m 79.41279,-73.29992 c 0.091,-5.52976 -3.4605,-5.14014 -7.56825,-7.25664 -5.48564,-6.58605 -3.30622,10.28436 -7.69779,4.89604 2.86263,-4.898 -10.32729,-2.63355 -5.36491,-5.77352 -4.057,-0.37827 -6.0349,-0.59881 -9.25858,-0.46749 -3.69604,4.5652 2.5879,-6.34259 6.60764,-6.01359 8.24407,-3.74375 18.81938,-0.0848 22.3226,8.47811 0.859,1.88943 1.50434,4.0635 0.95929,6.13709 z"
         id="path54" /></g></g></svg>
