<?xml version="1.0" encoding="UTF-8" standalone="no"?>
<!-- Created with Inkscape (http://www.inkscape.org/) -->

<svg
   width="86.635376mm"
   height="100mm"
   viewBox="0 0 86.635374 100"
   version="1.1"
   id="svg1"
   xml:space="preserve"
   xmlns="http://www.w3.org/2000/svg"
   xmlns:svg="http://www.w3.org/2000/svg"><defs
     id="defs1" /><g
     id="layer1"
     transform="translate(-309.60054,-115.45605)"><g
       id="g56"
       transform="matrix(0.54034666,0,0,0.54034666,156.17705,41.068497)"><path
         style="fill:#e2a603"
         d="m 322.22374,285.52617 c -10.88485,-3.40766 3.95318,-16.54107 6.11044,-5.3533 0.138,2.99139 -2.74427,7.21955 -6.11044,5.3533 z m -24.83171,-1.89978 c -8.83515,-6.45239 8.57493,-15.90248 8.00955,-4.42011 0.83762,4.21776 -4.90182,7.83912 -8.00955,4.42011 z m 10.72396,-3.94523 c -8.72349,-5.30329 7.87335,-13.29143 5.64087,-2.60592 -0.65609,2.26505 -3.51473,3.48434 -5.64087,2.60592 z m 62.49733,-6.06662 c -5.68343,-0.56941 -19.60551,2.50144 -16.85408,-6.64236 7.22021,0.27178 14.56414,0.0593 21.84427,0.0517 -1.63213,2.19558 -2.42508,5.23111 -4.99019,6.59069 z m -54.92826,-4.44329 c -12.12773,-3.97252 2.04926,-23.10788 9.00187,-11.41587 6.56614,5.88371 -1.78379,15.88911 -9.00187,11.41587 z m 92.14892,0.86559 c -5.29136,-0.60968 -13.01422,-2.84388 -7.02929,-8.87285 2.68049,-9.87935 19.40372,-8.71239 17.2828,2.50225 -1.27415,4.14453 -5.97114,7.08383 -10.25351,6.3706 z M 287.9748,267.78859 c -11.41568,-4.91373 6.5951,-16.97387 7.19417,-5.52383 0.0134,3.7612 -3.34396,7.06812 -7.19417,5.52383 z m 148.83148,0.0641 c -12.69455,-6.08893 9.73019,-18.70247 6.78951,-3.99926 -0.91127,2.67335 -3.85787,5.08462 -6.78951,3.99926 z m -88.07651,-8.0498 c -4.19786,-8.61603 11.35433,-3.69219 16.12574,-5.04297 5.0702,0.75829 20.21225,-3.01149 13.15786,5.96332 -8.62491,1.90296 -18.10314,-0.11228 -27.07288,0.79349 -1.73531,1.07462 -1.62976,-0.89925 -2.21072,-1.71384 z m -16.96616,-0.63228 c -9.2594,-1.3807 -6.8296,-19.76199 0.26138,-16.18524 -1.0557,8.79588 15.25824,2.91432 9.10818,13.20895 -1.80755,3.13821 -6.06905,4.89727 -9.36956,2.97629 z m 58.45182,0.47168 c -9.71699,-3.00771 -3.13095,-16.38942 3.07372,-13.81189 6.00095,-11.70392 14.17472,10.03495 3.64991,12.57132 -1.98392,1.21585 -4.42981,1.78011 -6.72363,1.24057 z m -86.71276,-1.50381 c -11.32918,-5.65988 6.47261,-21.62141 8.89474,-8.3989 -0.12409,4.28216 -4.03479,9.99674 -8.89474,8.3989 z m 118.87751,-0.21822 c -10.97555,-2.76259 -1.66353,-20.85599 5.82004,-10.68223 2.6377,4.09274 0.35908,12.87455 -5.82004,10.68223 z m -132.92601,-7.73669 c -10.42574,-4.97582 2.70767,-22.8334 9.40718,-11.99498 2.27407,5.65653 -3.76577,12.12844 -9.40718,11.99498 z m 147.35745,-0.21171 c -10.19606,-0.56889 -9.98286,-19.80981 1.50487,-14.07088 5.96186,2.82582 6.9231,14.55881 -1.50487,14.07088 z m -73.14183,-0.80745 c -5.67135,-1.67168 -17.91998,3.80589 -17.72293,-4.39766 1.33993,-4.61172 7.66875,-1.24844 11.38807,-2.21692 8.04802,0 16.09604,0 24.14406,0 2.13028,7.93407 -5.29787,6.93356 -10.40244,6.67155 -2.46892,-0.019 -4.93786,-0.038 -7.40676,-0.057 z m -14.39296,-12.3783 c -7.06759,-0.10127 -1.28193,-9.58965 4.19448,-6.3943 9.12691,-0.0477 18.26832,-0.39235 27.38307,0.25172 3.92955,10.90525 -12.80221,4.60746 -18.635,6.21552 -4.31425,-0.005 -8.62861,-0.0227 -12.94255,-0.0729 z m -26.40217,-7.85267 c -7.41449,-6.41119 10.90909,-12.99456 6.2823,-2.83703 -1.05199,1.89132 -4.06524,5.16001 -6.2823,2.83703 z m 78.27623,0.20444 c -11.45561,-4.25838 5.37352,-21.07231 7.51411,-7.62979 0.37569,3.97435 -2.71836,10.30569 -7.51411,7.62979 z m -112.14658,-0.20614 c -12.84921,-3.72822 2.0413,-23.23425 8.28093,-11.07591 2.46131,5.02364 -2.11274,13.42577 -8.28093,11.07591 z m 145.24861,-0.16536 c -9.19022,-4.12157 -0.82717,-19.81522 7.61752,-13.17963 5.82004,5.1314 0.17275,16.70116 -7.61752,13.17963 z m -85.63572,-4.16184 c 0.89552,-9.12221 9.82368,-8.1866 15.92591,-5.65568 5.79818,-3.80415 15.60556,-1.99655 13.85339,5.68947 -9.84693,0.44106 -19.88298,0.17368 -29.7793,-0.0338 z m -33.85276,-0.9569 c -11.83723,-2.35112 3.85937,-17.39225 5.65761,-5.20515 0.46245,3.11673 -2.91858,5.20973 -5.65761,5.20515 z m 111.21472,-8.18143 c -1.8334,-4.68414 0.96221,-10.27102 -0.87008,-14.48398 4.21223,-6.22379 12.07934,5.27459 4.38014,7.08015 5.30021,1.86018 1.0584,10.07513 -3.51006,7.40383 z m -126.06607,-1.12247 c -10.08279,-5.04051 7.90732,-15.72355 6.9289,-3.71683 -0.40394,3.08775 -4.15786,4.9167 -6.9289,3.71683 z m 29.89003,-2.0536 c -11.26175,-2.04107 -20.42935,-12.80565 -20.27396,-24.31269 6.55165,-10.26219 19.9478,-0.96401 27.34592,3.72281 8.75338,1.29273 20.29004,12.17621 10.75458,19.34612 -5.75849,1.2064 -11.95874,1.50263 -17.82654,1.24376 z m 56.88542,-0.037 c -9.7763,1.77354 -14.24023,-12.34646 -4.32608,-15.59688 10.37511,-4.2887 19.30489,-13.28387 31.23155,-12.74619 12.31833,1.46364 4.23821,17.09343 -1.85673,21.81542 -6.1548,7.13975 -16.38964,7.48817 -25.04874,6.52765 z m -95.9752,-7.91524 c -13.22945,-5.4276 8.40931,-19.15385 7.46999,-4.41115 -0.86152,3.06266 -4.36389,5.16675 -7.46999,4.41115 z m 145.0554,-3.46103 c -9.22584,-4.68732 4.28408,-17.30996 6.74896,-5.67677 0.61172,3.64038 -3.12599,7.54816 -6.74896,5.67677 z m -99.08645,-11.46049 c -9.34624,-1.59168 -9.99085,-16.23361 1.29817,-13.68568 10.13309,0.57002 9.731,19.35813 -1.29817,13.68568 z m 52.3875,1.08712 c -12.88037,-2.71516 -1.15893,-21.32587 8.11588,-13.74058 10.00885,4.06161 -2.09037,14.43721 -8.11588,13.74058 z m -92.01745,-0.61666 c -12.84519,-3.63057 4.31943,-21.0101 7.9742,-7.65673 0.90932,4.3586 -3.50966,9.12696 -7.9742,7.65673 z m 132.53756,-3.29053 c -12.47302,-3.96587 6.16538,-18.30713 7.08312,-5.13409 0.0345,3.48135 -3.85836,5.99973 -7.08312,5.13409 z m -111.03157,-9.39347 c -11.72601,-2.20543 -7.39214,-21.15305 4.21605,-18.43242 12.78923,1.06833 11.65286,20.08708 -1.3216,18.953 l -1.46127,-0.14205 z m 85.18588,-0.0855 c -11.73174,-0.59171 -9.58876,-19.38865 1.81189,-18.03302 12.20962,-1.23952 12.54617,18.75024 0.46478,18.3136 l -1.14879,-0.0519 z m -60.44734,-3.56218 c -11.1877,-5.03676 -3.02498,-22.84444 8.26972,-18.67022 8.85862,1.07547 11.64218,14.6894 3.25849,18.3171 -3.68363,1.37124 -7.73001,0.8628 -11.52821,0.35312 z m 36.90937,0.58357 c -10.22359,3.5619 -17.49131,-12.3624 -7.94182,-17.6938 9.38383,-6.88898 24.05001,6.58602 14.28159,15.25056 -1.66366,1.55595 -3.96002,2.94423 -6.33977,2.44324 z m -19.45032,-16.45152 c -12.65154,-2.54666 -6.7028,-23.33274 5.44207,-19.56587 11.30987,1.92816 10.28821,19.28501 -1.12711,20.00401 -1.44499,0.19697 -2.94232,0.0666 -4.31496,-0.43814 z"
         id="path58" /><path
         style="fill:#142f1e"
         d="m 363.66979,322.72906 c -2.32351,-3.64185 0.42821,-13.01014 -7.21499,-8.35287 -3.96274,-2.4613 -18.22022,-2.85052 -11.90344,-9.44614 3.78284,-2.92599 6.39573,-1.31082 10.13489,1.63233 -1.99473,-5.19459 9.36376,2.86441 3.41777,-3.30789 -2.98337,-5.79468 -19.98477,-4.5746 -15.94803,-11.37725 10.60963,1.14345 -1.54967,-4.28697 -4.45262,-6.6025 2.99308,-2.55139 -6.41244,-8.74462 1.06449,-11.57133 4.59453,0.88188 5.71054,9.18239 10.40065,4.88735 2.85889,2.20028 0.47464,17.41274 4.78504,10.18804 2.75314,-10.50717 6.42232,4.79433 4.43377,8.85241 -0.344,5.42408 6.05828,7.77754 4.05197,0.58313 -0.43605,-3.72888 -1.20055,-15.48111 2.38863,-13.77944 1.60147,5.70379 -0.76245,16.45857 1.55482,19.08026 6.70389,-3.78633 -1.65454,-16.55434 5.49126,-17.49201 2.05017,3.17492 2.09763,9.79696 4.43365,2.93956 -0.009,-5.55763 0.50422,-12.28025 6.41551,-10.3328 3.39094,-5.58916 13.87108,-5.2588 7.0923,2.41126 2.21917,5.67267 -9.42921,7.32843 -8.86423,11.08349 6.36838,-2.52668 7.36359,4.40488 0.97839,5.01249 -3.71491,0.82829 -15.53724,5.59995 -12.29302,8.37161 4.40128,-3.25954 2.95472,4.92155 7.18518,-1.72306 3.76167,0.11414 12.52785,2.7875 4.95431,6.89427 -6.44253,2.79141 -10.01734,3.98939 -16.78122,3.81612 -0.78472,1.98999 2.46714,8.412 -1.32508,8.23297 z M 333.375,307.91416 c -11.15196,-4.37477 -17.49364,-15.2367 -26.96764,-21.73756 -5.18812,-4.4957 0.96728,-2.74938 3.0009,-1.41643 -1.17446,-9.00631 2.912,-1.17383 5.30072,1.61539 4.14869,-9.4716 -0.25563,9.12338 5.96714,9.56742 3.28623,4.52549 9.30886,6.66223 8.00467,0.4035 2.65829,2.33737 5.20024,10.63516 5.91413,11.82426 z m 57.94374,0.0349 c 4.9977,-4.23569 3.73313,-9.36943 3.40483,-14.69934 7.45378,-5.82149 0.96107,12.75264 7.9987,4.1737 7.1943,-5.22644 -9.59498,-9.85898 0.0441,-11.70358 -7.15424,-6.00601 4.84112,-11.65108 3.93281,-1.72278 3.236,3.14108 -1.04168,14.67771 3.26335,5.23491 -4.84262,-6.95176 14.13225,-13.29986 6.75748,-4.70876 -6.07019,5.69632 4.01255,-0.28341 5.45946,-3.13114 10.18251,-2.53902 3.99345,6.89794 -2.05645,7.0314 -3.65907,0.92426 -6.19038,4.85809 -0.35071,3.47779 0.13153,7.50807 -18.70643,0.0254 -11.4177,9.31328 -6.4365,0.92271 -11.15343,4.24049 -17.0359,6.73452 z m -40.62101,-43.21843 c 1.78027,-8.24217 14.78175,-0.39424 20.9805,-3.84946 8.27111,-1.11727 5.22952,8.7495 -1.34074,6.17309 -5.9571,-1.32643 -16.27874,2.98169 -19.63976,-2.32363 z m -3.67042,-11.80341 c -1.39592,-7.66395 12.23121,-1.96754 17.01632,-3.69732 4.96729,0.65961 22.75587,-2.66914 14.03772,5.2665 -10.10879,0.69533 -20.40489,-0.0426 -30.63088,0.35661 l -0.21158,-0.96289 -0.21158,-0.96289 z m 43.68064,-5.5678 c -7.20553,-7.00572 -2.65198,-19.20091 -6.32692,-25.66864 -4.00796,-0.52362 -14.70943,-6.95535 -4.61421,-6.23498 10.75307,0.61027 13.66422,11.43634 13.27679,20.30527 0.28387,3.48658 3.06623,10.77562 -2.33566,11.59835 z m -72.01733,-0.29458 c -3.74103,-6.70051 0.48831,-17.31345 -7.45755,-21.53167 -2.41136,-3.29742 -18.00954,-2.55716 -10.73642,-5.82395 6.85992,2.71056 -1.55388,-8.44986 4.61455,-3.16015 3.19719,2.76387 7.80371,12.85297 11.79732,6.69991 1.00443,7.34666 6.223,17.72715 1.7821,23.81586 z m 15.65641,-0.23084 c -0.15468,-9.58926 -2.4766,-23.07333 6.7437,-29.07803 3.41298,-3.60043 16.59649,-2.59052 7.32969,2.30488 -12.93065,1.17979 -2.75468,17.41354 -9.97272,24.74158 -0.92666,1.54048 -2.25689,3.71081 -4.10067,2.03157 z m 73.2719,-0.46934 c -0.22135,-16.08276 6.23163,-31.37566 12.35769,-45.93341 2.68821,-3.52892 4.98298,-15.63155 9.07352,-13.43078 -1.13158,3.03284 -3.23664,8.67722 2.52958,6.06652 1.9432,3.6585 -10.53651,0.81633 -8.67355,7.60989 -2.04901,6.18689 -9.43365,18.2941 -6.43741,21.25826 2.79984,-2.23022 16.41353,-9.44718 8.79977,-1.949 -9.37908,2.68289 -15.94332,10.12393 -14.04324,20.22669 0.0486,2.35488 0.20005,7.4886 -3.60636,6.15183 z M 346.075,239.65261 c 1.40663,-6.49628 13.56215,-1.06616 19.03403,-2.84017 5.35677,1.04836 20.59618,-3.5217 15.41868,5.86279 -11.40949,-0.27374 -22.97863,-0.0557 -34.45271,-0.12542 0,-0.96572 0,-1.93158 0,-2.8972 z m 0.79375,-9.42797 c 0.87838,-10.64266 16.21373,-3.34456 23.41409,-5.3485 4.92691,-2.11993 15.05315,2.43112 6.81586,5.58124 -10.06736,-0.39351 -20.13666,0.16074 -30.22995,-0.23274 z m 12.11226,-12.11043 c -9.2236,-1.55222 -10.7573,-14.98035 -4.97887,-20.98586 -0.3082,-4.6631 -8.3442,-10.40506 0.35826,-13.42676 13.51536,-1.89929 -14.59121,-9.47562 -1.63268,-9.98497 5.73674,2.70543 11.34237,14.17034 16.66124,4.07485 2.33557,-4.9309 15.8641,-4.68586 6.70336,-0.42817 -4.26776,2.10261 -9.28162,7.00545 -1.00425,6.38887 6.5247,5.98413 -4.69931,12.83856 1.91269,18.53831 1.64254,7.02229 -2.49534,16.9561 -10.80306,16.23467 -2.40232,0.12368 -4.8703,0.21922 -7.21669,-0.41094 z m -42.94443,-5.35741 c -4.81438,-4.94876 -6.37243,-15.97472 -14.75916,-14.11818 -7.96143,-2.23804 7.63827,-0.44538 1.69289,-6.40924 -2.97282,-8.29101 5.53506,3.45907 6.59824,5.71833 1.13197,2.62086 12.09514,15.75108 6.46803,14.80909 z"
         id="path57" /></g></g></svg>
