<?xml version="1.0" encoding="UTF-8" standalone="no"?>
<!-- Created with Inkscape (http://www.inkscape.org/) -->

<svg
   width="71.481224mm"
   height="101.13333mm"
   viewBox="0 0 71.481223 101.13333"
   version="1.1"
   id="svg1"
   xml:space="preserve"
   xmlns="http://www.w3.org/2000/svg"
   xmlns:svg="http://www.w3.org/2000/svg"><defs
     id="defs1" /><g
     id="layer1"
     transform="translate(-44.966074,-176.72962)"><g
       id="g29"
       transform="translate(2.9613687,-23.197423)"><path
         style="fill:#a99e47"
         d="m 98.270992,247.18195 c -4.004584,-4.67079 -0.115576,-8.39079 4.495728,-4.31765 3.21692,3.55024 -1.18805,6.80594 -4.495728,4.31765 z m 3.249818,-1.71217 c -0.7438,-6.14621 -3.590858,4.73351 0.0457,0.91885 l -0.0246,-0.49444 z m -5.189732,-6.90995 c 1.802653,-6.34869 10.465712,1.72428 0,0 z m -40.508117,-3.88136 c -1.570943,-4.05049 1.553297,-11.91658 1.163011,-3.41799 -0.01171,0.64826 -0.02378,7.04648 -1.163011,3.41799 z"
         id="path33" /><path
         style="fill:#579c95"
         d="m 85.964481,272.7391 c -2.867358,-3.48086 2.583633,-11.70584 1.480869,-3.68595 -0.262177,0.88993 0.363706,4.0426 -1.480869,3.68595 z m -10.070717,-0.75662 c -5.919464,-0.66903 -17.148183,-0.65053 -5.407294,-1.14285 1.22614,0.29473 5.456735,-0.70191 5.407294,1.14285 z m -7.659122,-4.62797 c -1.987659,-4.45757 0.589844,-14.39413 2.163202,-4.82516 0.174281,1.57887 1.005999,6.24328 -2.163202,4.82516 z m 17.380059,-2.84068 c 0.400864,-3.06413 0.948646,-13.99753 4.19813,-8.87551 -4.282616,0.55058 0.377096,7.79573 -4.19813,8.87551 z M 76.996195,247.6651 c 1.288611,-6.35805 -0.226293,1.64342 -2.009046,-3.27957 -5.488569,0.16843 -1.741156,-1.36197 -3.298795,-0.8627 -3.611152,2.61175 -6.608898,3.24806 -2.697071,-1.22876 3.311461,-8.22654 11.544839,-10.25974 16.237272,-2.33243 4.79343,1.83307 5.028555,10.30279 0.19546,4.19759 -1.219373,-4.2301 -7.55591,-5.9257 -2.465012,-0.78321 -0.298439,0.32887 -5.007045,2.07576 -5.962808,4.28908 z m -4.269992,-5.34372 c 4.883317,-1.29909 1.99855,-6.0033 0.07201,-0.65793 -2.989091,0.12032 -2.869257,2.24607 -0.07201,0.65793 z m 5.990999,-4.70735 c 1.669305,-6.14588 -6.48841,1.56398 0,0 z m 32.887418,4.20819 c -0.33117,-4.42128 -14.388202,-0.43662 -4.96018,-2.88439 3.697,-2.73573 8.47486,3.99581 4.8791,3.83688 z m -68.827871,-2.0743 c 2.760153,-2.17082 14.202503,-0.31308 4.916728,0.19406 -1.638141,0.08 -3.297585,0.12843 -4.916728,-0.19406 z M 103.0797,238.4002 c -6.130786,-3.0501 -0.43514,-13.76635 1.36087,-4.41997 1.54923,0.38061 1.63445,6.18053 -1.36087,4.41997 z m -49.760306,-0.35852 c 1.202085,-4.60593 9.612469,1.41239 0,0 z m 31.783573,-1.23722 c -0.370256,-6.27731 -13.727689,-2.21193 -4.998971,-6.93653 -3.926825,-5.68585 -9.03219,11.7041 -6.399191,4.20453 2.118544,-4.73578 -7.003083,6.74276 -4.073295,-0.26056 -4.271721,2.60682 9.234105,-6.99487 0.839125,-3.02947 2.706205,-8.01409 16.506412,-0.86041 14.930708,1.10709 -9.964963,-6.53853 5.024373,4.20821 -0.298376,4.91494 z m 11.461752,-8.75259 c -1.176527,-3.36225 0.390641,-16.50935 1.013072,-6.81634 0.15829,2.27467 0.409929,4.85151 -1.013072,6.81634 z"
         id="path32" /><path
         style="fill:#658d6c"
         d="m 62.628569,271.25863 c -5.055927,-0.9997 -0.351785,-10.29035 -1.983813,-9.90129 4.156525,1.61897 -2.228075,8.99995 1.983813,9.90129 z m 26.068538,-15.03776 c 7.263143,-1.89759 18.228933,2.52355 21.573663,-6.98896 5.77605,-5.43306 -8.40374,-8.45125 0.0972,-9.21241 1.83671,3.0223 2.59161,3.87258 1.82266,-0.63214 -7.93871,-2.33327 3.77058,0.22074 0.80073,5.63585 -0.30262,8.65029 -8.83435,12.6304 -16.525652,11.32059 -2.589147,-0.0748 -5.181613,0.018 -7.768641,-0.12293 z m 18.419363,-4.94283 c -1.45393,-3.01004 -6.56772,-10.12346 -2.08931,-4.20948 3.49099,-2.24805 2.51945,0.75964 2.08931,4.20948 z m -29.733907,-1.54052 c -3.040345,-2.63099 -8.253661,-2.22038 -1.402683,-2.16215 1.00147,-2.59126 8.960108,2.32573 9.115647,-2.62705 0.537258,5.74948 -6.505659,0.97735 -7.712964,4.7892 z m -25.576322,-9.73964 c -1.213624,-4.51415 12.815692,0.84923 3.028606,0.007 -1.009539,0.008 -2.019813,-0.002 -3.028606,-0.007 z m 43.009284,-0.51575 c 5.207275,-0.60625 7.391595,-3.33646 11.761185,-0.53727 -3.78921,0.61773 -7.994443,1.55283 -11.761185,0.53727 z M 68.442554,237.4566 c -2.900488,-4.07622 0.87992,-6.28807 1.539003,-8.82786 -2.748623,-2.22376 -7.732882,-5.12334 -1.29313,-2.53577 5.738334,2.53482 -1.216619,7.58157 -0.245873,11.36363 z m -7.365457,-2.70728 c -3.046085,-2.77057 -3.426818,-12.02049 -2.392564,-10.15908 -0.302693,-4.81226 -1.349761,-11.25978 2.396078,-11.94516 1.336113,-5.14403 17.276559,-5.836 6.971867,-2.63768 -8.505003,4.72015 -11.957496,16.67233 -6.074468,24.5381 1.407102,0.79971 -1.024668,1.32736 -0.900913,0.20382 z m 43.532003,-0.43533 c -3.77341,-4.16257 -0.2854,-5.39398 -0.065,-10.10543 1.71877,2.82605 1.01891,7.26295 0.065,10.10543 z m -50.146587,-2.01656 c -1.106027,-4.32991 -14.045625,-3.25811 -4.768918,-5.08438 1.498872,-0.39759 8.200788,4.85327 4.768918,5.08438 z m 33.932814,0.53789 c -7.02258,-1.75889 -2.729203,-7.91041 2.006176,-8.49476 -6.221962,2.51603 -4.197531,5.27823 -2.006176,8.49476 z m -18.719271,-6.68966 c -5.18476,-2.47026 6.637642,-4.20288 0.107078,-0.0412 z m 23.577746,-7.01146 c -1.8222,-3.84909 -1.311775,-12.93166 -1.930843,-4.06987 -2.613006,4.14233 -7.471044,5.52352 -2.171845,1.04634 -2.825446,3.24032 -8.363056,1.85541 -1.264555,0.57399 5.492316,-4.24706 -4.515115,-9.87416 -2.5973,-8.52526 5.906461,-0.87572 11.970741,5.32562 7.964543,10.9748 z M 88.81477,206.50035 c -2.890295,-6.86499 -14.97969,-6.21715 -17.336762,-4.89289 6.242163,-4.40814 17.62818,0.78954 17.336762,4.89289 z"
         id="path31" /><path
         style="fill:#546259"
         d="m 84.24275,297.43386 c 0.713729,-5.88433 -2.076707,-13.89285 4.82595,-16.20951 -0.614712,-5.20066 1.118832,-6.18542 2.357247,-1.28948 1.316254,5.94308 -10.087884,4.06245 -5.037998,10.47501 3.292429,-0.44036 10.212698,-11.63427 5.567187,-3.23051 -5.854569,2.68433 -7.633206,9.15948 -7.327265,13.88101 -0.542132,-1.12988 -0.583775,-2.41571 -0.385121,-3.62652 z m -5.557213,-0.77675 c -3.702843,-3.02525 -14.62248,-6.36239 -13.14862,-9.02218 4.313304,2.67932 4.004762,0.38956 6.338997,4.41172 10.602637,3.35129 1.226079,-11.43359 0.515724,-10.7376 1.471804,-2.37953 5.041284,-2.25286 0.842249,-5.80941 -8.744472,-2.67975 1.849403,12.77536 -7.160447,8.14146 -6.545628,-1.42864 7.050528,0.55327 2.352355,-6.38745 -4.929414,-6.82771 -7.136257,5.19942 -5.01435,8.91437 -7.207592,-8.7452 5.250387,-17.07044 12.026075,-9.80476 1.809518,4.18353 3.825706,9.28128 3.241279,1.90694 -2.871853,-9.32558 -15.702662,-0.19582 -18.529221,-8.14911 6.076704,1.69499 15.646014,1.87825 19.786172,3.48746 1.001421,-3.22214 2.827549,8.65604 0.359959,11.74313 -1.945886,3.73971 -0.662858,7.80789 -1.610172,11.30543 z M 88.19689,274.6778 c -0.425501,-2.149 -4.114903,-1.13658 -0.333684,-4.19366 1.58883,0.42095 2.495615,3.84703 0.333684,4.19366 z m 8.991782,-0.841 c -2.171708,-0.67392 -5.271174,-10.29876 -2.424067,-5.92362 6.467555,-1.87593 3.222201,5.01975 2.424067,5.92362 z m -13.515843,-3.05266 c -3.578134,-4.40003 3.170026,-0.95663 1.497205,-4.98038 0.299372,0.80232 0.896798,7.08792 -1.497205,4.98038 z m -18.667236,-0.81977 c -4.545146,-2.98008 3.651063,-9.01551 3.380684,-2.63279 6.75142,-0.26894 -0.36762,6.29385 -3.380684,2.63279 z m -6.933804,0.27947 c 1.63472,-6.70243 -13.350287,-5.5164 -3.415651,-5.82401 4.07741,0.13742 -8.506009,-0.90813 -9.135853,-1.44972 2.681581,5.14293 -6.639447,-7.47332 -1.049922,-1.99347 -3.000574,-3.98164 -0.02035,-9.16945 2.756524,-5.39498 -8.659731,-3.60164 3.493498,11.43528 -2.294743,2.62651 -0.373571,-4.72211 7.19765,11.53768 11.761135,2.94586 1.032686,-2.06547 3.663875,-6.00064 2.836806,-1.66164 4.01237,-2.39943 11.568007,0.53697 3.428123,0.75211 -5.005927,-0.76357 -2.225036,5.73381 -4.908215,4.9213 -2.857502,2.14432 4.096341,5.07203 0.0218,5.07804 z m 18.238054,-4.04949 c -4.056264,-2.82575 -2.041969,-8.29331 0.111464,-1.1977 4.648775,0.85646 5.656121,-12.76313 11.152728,-10.64821 0.632708,6.14617 -8.946522,3.33322 -8.020573,11.27949 -0.649129,0.70804 -2.419095,1.77927 -3.243619,0.56642 z m 12.614651,-0.6185 c -0.941142,-2.76705 -6.345363,1.24896 -3.956467,-4.70908 2.562182,-3.33198 -0.816345,8.32629 2.388492,1.23936 -0.919075,-4.45716 8.153694,-6.11131 4.941447,-1.96046 6.248777,0.75179 5.862304,-6.94828 10.300614,-1.90375 -2.33477,6.08461 -16.594732,1.76449 -14.151731,4.06023 2.815002,0.48507 6.301961,1.46247 1.717279,1.67159 l -0.554074,0.92568 z m -32.721301,-5.85016 c -5.523107,-1.00726 -5.919105,-3.74843 -0.395758,-1.8017 2.720325,0.88561 -2.536369,-0.46215 0.4482,-1.24078 -8.498412,1.86174 -15.832868,-6.4224 -13.954565,-14.64006 0.859892,-3.57705 4.946494,-4.60067 -0.0115,-2.04466 0.759874,5.48661 1.529291,2.64159 3.455461,0.1624 5.353635,-0.94474 18.283065,4.07426 13.367054,-3.08712 6.145688,3.14331 -1.862074,-2.78406 -1.468357,-2.81824 0.832398,-2.40623 0.399586,-11.85443 0.619965,-4.48739 3.227066,6.66171 9.02271,3.04211 5.385124,1.05488 -7.633666,-0.2003 -4.128375,-11.46381 -1.096886,-15.96275 3.863974,-4.30906 3.045537,-0.87432 2.69454,3.08226 3.452594,-10.09684 -0.258671,14.4775 7.338591,6.4878 4.019877,-0.3456 -4.251358,5.06071 -6.411187,0.93504 -4.743319,0.22273 10.588912,3.608 2.405853,5.20081 2.351188,2.14695 -6.26333,-6.88895 -3.594809,-2.43151 2.418888,2.47795 3.05833,10.42473 4.053056,8.33384 2.607012,5.36761 -3.626155,0.0586 -1.461579,3.26529 -6.438317,0.50726 1.363839,3.21319 1.424876,2.07421 -3.326557,3.19354 -0.836353,4.42041 -1.648119,4.90202 1.4971,2.78864 3.07287,-4.24655 4.474903,1.48927 4.107063,-0.91671 5.877645,3.0223 8.771636,0.18771 3.681941,-3.60409 12.159705,0.48985 8.456206,-6.76455 -5.532259,2.55945 1.743674,-7.78012 -2.341097,-2.04525 -4.643861,-1.56077 -8.691717,-7.75997 -2.837797,-3.20968 2.056354,5.54908 7.616557,-9.41556 8.077407,-1.44005 -3.771216,-1.58363 -3.580883,9.61697 -1.310815,2.34921 1.678162,-3.61221 9.612344,-9.81579 7.211596,-1.97253 -7.31325,1.37923 -2.390299,6.31659 -1.567827,10.2342 -3.13934,-1.97545 -7.806682,-8.39717 -3.984792,-1.39885 5.193702,-0.0353 2.566149,4.5239 1.635671,3.69493 5.048085,-0.0745 14.153216,-0.95578 13.226216,4.20164 1.53437,-3.35626 -0.11021,-12.25625 1.1027,-3.58148 -0.47681,5.77753 -2.86396,4.31656 -2.61004,0.39187 0.94349,1.58254 -5.895201,10.08068 -9.167083,4.94452 2.225801,-3.51329 0.184157,-5.54264 -5.176752,-6.36832 -2.84448,-5.51742 1.604497,-2.00287 -2.215654,0.59323 -6.303887,-3.81153 0.479967,-0.27598 -1.015891,1.17319 -5.163822,-4.3994 -8.935952,8.74521 -10.318182,3.34468 -5.392203,0.66252 -8.154119,-5.57571 -12.624316,-4.36592 3.081026,-5.57115 -6.033684,-1.35341 -2.064613,-0.21238 -4.400524,0.89732 -12.153381,-1.51127 -12.059293,3.74333 -2.783922,-1.80841 3.138246,6.03442 6.797207,4.62409 0.209693,1.33556 -0.790871,2.50738 -1.609353,3.4028 z m -10.713004,-9.14022 c 5.030821,-0.6352 0.731655,-13.24347 2.961434,-3.53369 4.332817,-5.94356 -4.760858,-8.18425 -3.810313,-0.74111 0.125094,0.9382 -1.021903,4.54032 0.848879,4.2748 z m 13.560904,-4.32579 c 4.502808,-1.83459 5.668879,-4.06683 0.264719,-1.77888 -2.392268,-0.22538 -1.980677,3.79451 -0.264719,1.77888 z m 2.167169,-22.4897 c 0.895919,-0.7887 2.181004,-8.39218 -0.833587,-2.44418 -0.40622,0.73365 -1.1964,4.32672 0.833587,2.44418 z m 7.48151,33.46573 c -2.923154,-1.45981 -11.976139,-0.10068 -4.322372,-1.35075 1.193645,0.76699 6.27648,-6.07099 4.322372,1.35075 z m 38.348678,-0.74658 c -0.71424,-0.76649 -17.268375,1.11077 -16.380151,-0.43714 5.898647,1.37671 13.871881,-0.72142 18.122771,-0.82726 -0.0913,0.63005 -4.23101,3.84874 -1.74262,1.2644 z m -52.816048,-1.83462 c 6.99481,-1.90941 -8.321646,-3.75624 0.688971,-6.02207 2.737517,-0.29955 5.418808,8.93487 -0.688971,6.02207 z m 48.930108,-12.60689 c -4.205908,-0.44723 -11.17243,-0.95528 -2.94724,-1.57594 12.02322,-1.14348 -5.730019,2.05717 -5.504598,-2.31161 1.440979,-0.97635 1.313591,3.93108 5.711668,1.87016 6.41677,-1.0151 10.56963,0.39545 7.20711,1.45232 3.87201,-0.0953 -4.68339,0.77453 -4.46694,0.56507 z m -14.480001,-9.25486 c -2.466628,-3.05069 3.639024,-6.98544 4.776584,-4.60528 -1.9733,-5.1265 -3.41044,-0.82029 -7.137385,1.79269 -1.22822,-3.93633 7.579346,-6.91094 2.248723,-10.18598 0.922477,0.66443 4.376262,3.57157 2.748057,-0.19994 2.731745,3.9288 -0.943803,-5.5531 -2.507794,-0.39126 1.471576,-3.57639 1.88067,-1.00607 2.869325,-6.00685 -0.517157,-5.90214 1.299376,6.99333 2.502966,7.85668 -0.121393,3.78688 5.648968,12.23417 -1.42872,9.20376 0.50919,5.94564 -2.546994,-2.97741 -4.10394,0.95558 3.185585,-0.9617 0.48056,2.35717 0.03218,1.5806 z m -6.72178,-4.85746 c -4.382203,-1.05328 -13.507362,1.12006 -6.7884,-5.2003 5.948736,-3.77965 7.909034,5.46043 13.637298,2.03004 -2.176752,5.37087 -10.362636,-3.46741 -5.759927,2.28787 0.299293,0.62272 -0.58595,1.47947 -1.088971,0.88239 z m -1.594187,-3.36009 c -1.935759,-5.43081 -8.754418,2.14093 0,0 z m 3.464722,-3.65501 c -6.374987,-3.47137 10.372053,-7.73143 1.971806,-3.39585 -5.422083,3.0671 8.12576,-4.25823 1.6898,0.38608 -5.632549,4.24261 5.860943,-3.36466 -0.237171,1.87889 -0.754196,1.05056 -2.158538,1.74515 -3.424435,1.13088 z M 61.738555,209.46939 c -0.767863,0.52913 5.537922,-1.11949 5.198295,-4.35939 3.550528,-4.03793 4.971316,-3.68789 1.000093,0.60531 -1.2735,2.11041 -3.346979,4.74807 -6.198388,3.75408 z m 28.310019,-0.38957 c -0.931968,-8.70293 -16.704761,-7.61862 -17.579928,-7.46318 7.448499,-3.99382 16.943991,3.30428 18.245304,7.27634 l -0.120884,0.36924 z"
         id="path30" /><path
         style="fill:#1f2026"
         d="m 85.346257,296.7894 c -2.195202,-5.81683 9.494153,-10.99402 8.526806,-12.12491 -3.451274,3.85165 -11.403525,12.42992 -8.503347,14.02821 -0.01108,-0.63439 -0.01427,-1.26888 -0.02346,-1.9033 z m -15.887674,-2.24895 c -2.344339,-4.79813 -10.025859,-11.95736 -8.065681,-15.45593 -1.357334,6.76158 9.018445,11.69167 8.347731,14.0057 -0.75438,1.2841 0.187497,5.68028 -0.28205,1.45023 z m 6.699765,-1.95132 c 3.442949,-6.26027 -12.812624,-11.55237 -4.682338,-17.28515 6.149112,1.48804 1.770583,4.49975 0.626424,7.43581 1.155689,2.59217 7.465936,6.7767 4.055914,9.84934 z M 69.40656,287.2644 c 1.305146,-5.6026 -11.297003,-2.56873 -6.391286,-9.97609 3.589178,-7.30799 8.396788,4.62968 4.730329,3.42169 -4.770832,-8.20837 -7.155415,5.70057 0.680646,3.04329 3.675759,-0.53632 -0.09646,10.70158 0.980311,3.51111 z m 14.027829,-2.04418 c -4.243096,-4.66925 0.246374,-14.39995 -8.630469,-14.40742 -1.079404,-7.66003 -0.3883,3.54064 -4.33629,-1.05467 1.157124,-3.7742 -1.504338,-15.76245 -1.570762,-15.01634 -1.710246,-2.65689 -3.987036,3.13073 -6.922474,-0.0463 5.852333,-3.44392 -5.54806,-1.00684 -1.717058,0.27896 -4.257394,0.93258 -9.200262,1.14485 -9.910618,-4.18747 1.229952,3.57027 1.707472,-5.53877 6.426304,-2.56408 4.022042,0.54462 7.284893,0.42364 5.57685,-2.30466 4.457662,-3.62717 2.203253,5.44727 6.548015,2.61425 1.840276,1.64436 6.518352,4.73016 9.913481,4.49036 -0.739336,4.75937 5.618574,-9.5186 10.416085,-3.44125 -3.012528,-3.31383 -4.981517,-5.83649 -0.101929,-1.26812 2.889917,-2.48478 0.254825,-8.06621 1.91073,-1.37785 1.684826,3.04851 9.297636,-0.26931 5.61285,4.82768 3.832986,-1.05626 -3.189269,7.66801 -6.615588,2.96308 -8.351901,-4.56147 -8.6102,10.32101 -13.360721,10.24055 -1.534549,-5.00417 -4.85872,-3.414 -1.270532,0.77031 6.827524,3.22963 2.930861,-8.80277 10.29179,-7.05657 -1.697067,3.46054 0.949931,10.39274 -3.113752,9.95678 1.331279,4.91368 9.661651,7.90513 5.347755,0.092 -2.27408,-5.40743 4.032538,-3.53436 4.197823,-5.35479 -2.25291,0.22166 -2.819656,-3.01749 -3.915756,0.17696 -1.024732,-6.59585 14.784397,3.11887 13.970677,-6.6712 -5.852586,-1.73248 -3.672726,4.26323 -10.203841,2.91597 4.613894,-5.20162 -8.30103,1.2685 -1.985882,-3.34672 6.367113,1.00847 17.132493,-0.16297 19.981493,-2.20202 -2.19824,3.53335 -5.3419,4.49499 0.11701,1.7613 -1.23466,2.93648 1.46985,2.61009 -0.66993,4.23785 1.3833,5.27558 -7.30252,10.93978 -5.55142,11.09635 -8.199899,-2.56555 -4.443821,12.78192 -11.780989,6.01797 0.02268,-0.95714 -2.444091,0.60999 -3.13171,-1.17774 2.391349,5.77128 -11.283348,4.49591 -5.521142,9.03687 z m 14.408434,-11.41378 c 5.122187,-5.83658 -8.979301,-9.97085 -2.576633,-2.98779 0.263396,1.27672 0.567259,4.27271 2.576633,2.98779 z M 55.68383,254.7868 c 5.65214,-0.83911 -2.179522,-11.48241 -3.063251,-3.46796 2.28247,2.22394 6.044026,1.3254 1.838017,3.24006 l 1.075481,0.56149 z m 21.549458,26.19375 c -0.318616,-11.95175 -14.254201,-2.99834 -19.648019,-7.43896 -5.341196,-1.90947 -12.888116,-8.59755 -13.703,-11.53026 4.794578,5.54078 12.915784,-0.2549 14.871646,8.27973 -1.352829,-4.31279 -0.592912,-6.82506 1.272603,-6.33848 3.271167,-2.01868 -4.450681,8.0838 2.216133,8.82749 5.878389,2.21695 17.494368,-1.93691 16.402433,8.75912 -0.96036,3.05971 -1.300723,1.49395 -1.411796,-0.55864 z M 62.177124,270.06649 c -2.551135,-2.52995 1.324315,-8.95994 -0.600783,-9.81898 3.990973,0.82048 7.730918,-1.69728 1.919984,-1.66453 -9.984812,3.12138 1.220756,-5.87704 4.102245,-1.10162 0.357678,3.33456 0.161289,7.22696 -3.720808,8.34525 0.0033,2.10044 2.818308,7.44787 -1.700638,4.23988 z m -11.688719,-7.42401 c -3.325658,-0.76296 -4.69731,-7.31871 -4.728602,-5.35325 -4.382296,-3.53543 4.097948,-0.38163 -0.409994,-3.70841 1.21826,3.20885 14.815646,2.72994 10.038696,5.06491 -2.914209,-4.02577 -7.232305,0.34729 -0.612748,0.57084 5.419968,2.81502 -1.777319,5.04201 -4.287352,3.42591 z m 54.216905,-7.73631 c 5.4033,-1.25107 3.62204,-17.39865 0.99697,-8.19605 -4.90795,-7.1433 8.60772,-5.08823 3.31933,-1.15325 0.43852,3.20084 -0.25547,8.94571 -4.3163,9.3493 z m -58.44488,-7.03534 c -3.526271,-5.49184 4.00822,-9.08052 1.399517,-1.27663 0.05363,2.50794 -1.091513,5.74229 -1.399517,1.27663 z m 27.913542,-0.29566 c -8.018234,-1.97898 4.591898,-6.30367 1.047683,0.18374 z m 5.442858,-0.41404 c -1.959747,-6.1577 10.323018,-0.62916 1.498684,0.37299 z m -22.093012,-1.10558 c 1.860656,-3.76073 10.710866,-2.86098 3.27756,-1.28089 -0.534661,-0.19231 -3.251986,3.64306 -3.27756,1.28089 z m 38.517998,0.19859 c -4.232673,-0.55153 -8.002938,-10.09226 -3.053189,-3.325 2.07413,0.99786 7.745563,4.71775 3.053189,3.325 z m -1.882494,-4.79984 c 0.03413,-5.82196 7.838688,-9.71767 3.432261,-15.92728 2.316548,-5.53853 10.427097,5.13278 3.291887,5.09343 1.03832,5.86823 -6.176776,5.52254 -6.269034,8.95968 2.931537,1.89945 16.062124,-0.0202 5.546654,0.82609 -2.021017,0.22475 -3.960326,0.99884 -6.001768,1.04808 z m -33.839364,0.16948 c -3.090439,-2.03492 -16.082289,-0.82981 -12.894908,-1.34999 3.257661,0.40934 14.965114,-1.67693 12.894908,1.34999 z m 28.2871,-1.41332 c 0.136626,-3.65631 6.262043,-8.66537 4.499933,-9.86599 8.024799,-1.93361 -4.578866,7.40634 -4.499933,9.86599 z m -27.609336,-1.41772 c -1.027656,-3.77496 -3.01132,1.37761 -3.241016,-3.22334 -0.762576,-3.67081 -1.513214,-15.17658 -2.48433,-5.13066 -3.2049,-0.0382 -4.81783,-6.11091 -1.087994,-3.51217 -0.393055,6.41595 1.74926,-9.78632 4.144926,-1.34622 -0.946106,8.41973 -1.597169,6.4513 2.668414,13.21239 z M 46.394529,234.2816 c -2.342097,-12.13967 17.22308,2.85216 4.190842,3.97409 -5.887522,-0.35154 5.7426,-4.13825 -0.931908,-2.59043 -3.248102,0.48411 -3.224426,6.11615 -3.258934,-1.38366 z m 59.176671,4.12309 c -2.02051,-4.46151 1.61641,-14.95011 3.73364,-5.39853 0.24781,7.23343 -2.17627,4.05217 -1.72961,-1.01773 -1.68713,-4.73155 1.66215,8.48392 -2.00403,6.41626 z m -43.832645,-4.49651 c -6.018424,-4.00001 5.345754,-5.51206 0.233675,-2.36692 0.03368,0.8158 1.604388,2.75922 -0.233675,2.36692 z m 24.341668,-10.30567 c -5.082683,-1.39805 -10.025781,-2.71556 -14.756285,0.10839 -11.104073,-2.7125 3.171082,-15.6211 10.290968,-10.61602 9.737499,6.43595 -5.329814,3.37263 -9.958185,3.17375 -5.104269,0.79498 7.345629,1.02236 -1.774875,1.61072 -0.798532,2.91204 7.33762,1.7418 0.517597,1.16305 2.546035,-2.18803 7.131881,-0.398 10.546059,-0.96664 0.889158,3.68489 13.022166,0.52012 8.247151,6.56899 -1.15579,0.35458 -2.262643,-0.36096 -3.11243,-1.04224 z M 65.646911,208.64156 c 3.722029,-9.02578 19.107598,-10.46206 22.974089,-1.0741 -4.350322,-7.07767 -15.760492,-8.13562 -20.715881,-1.20427 -0.539279,0.39971 -1.814067,3.25219 -2.258208,2.27837 z"
         id="path29" /></g></g></svg>
