<?xml version="1.0" encoding="UTF-8" standalone="no"?>
<!-- Created with Inkscape (http://www.inkscape.org/) -->

<svg
   width="99.924301mm"
   height="99.999985mm"
   viewBox="0 0 99.9243 99.999983"
   version="1.1"
   id="svg1"
   xml:space="preserve"
   xmlns="http://www.w3.org/2000/svg"
   xmlns:svg="http://www.w3.org/2000/svg"><defs
     id="defs1" /><g
     id="layer1"
     transform="translate(-3.8178379,-212.57336)"><g
       id="g10"
       transform="matrix(0.51628738,0,0,0.51628738,-197.93209,50.841146)"><path
         style="fill:#ee1619;fill-opacity:1"
         d="m 520.63887,506.59609 c -8.19225,-5.44541 -21.54937,-7.83895 -25.31181,-17.10447 0.41914,-9.47936 1.04778,-18.87272 0.38436,-28.36419 0.19221,-4.10481 -1.28733,-14.50476 3.24756,-8.20754 3.77973,-2.67972 3.57497,-9.19196 9.3539,-8.69986 1.31864,-10.16287 -13.28269,-0.90097 -12.26444,0.97019 1.36749,-8.54463 -4.45409,-20.93736 4.6831,-26.34553 10.04758,-7.65113 21.8707,-12.4303 32.55657,-19.0099 2.28096,-8.24337 14.93293,-7.40697 16.50308,-16.59902 -5.10164,-10.01955 -15.18697,5.78668 -23.29453,5.28008 -6.87648,4.08229 -18.27284,-9.8317 -16.84422,3.65387 -4.50118,7.07147 -15.66192,11.43746 -24.23988,13.10391 -7.94782,-4.17589 -20.94832,-7.25581 -22.29905,-17.89084 -3.04161,-1.89097 -14.6764,4.16684 -20.99447,-0.32945 -7.90142,-7.47604 -24.21443,-7.65126 -26.1825,-19.93806 0.64205,-10.84739 -1.11486,-21.92252 0.56457,-32.66889 4.76537,-11.04273 18.08225,-13.59493 27.09729,-20.05346 11.21649,-4.54157 20.00112,5.78604 29.57918,9.5842 7.76935,0.16741 13.00025,19.14362 18.00808,6.8523 6.63913,-7.6046 17.90682,-10.02481 26.48548,-15.61997 11.26283,-6.23489 21.25631,5.36368 30.92394,9.76129 12.70488,4.55029 8.81259,19.69315 10.13059,29.98095 -1.94759,11.27216 -3.39069,26.22984 11.09748,29.35573 11.76874,3.15817 15.51534,14.9769 14.12005,25.90146 1.77434,11.50834 -2.76422,23.44866 -14.59793,27.36918 -13.96787,3.10427 -11.13531,18.43107 -10.72861,29.1171 -0.23952,10.92621 0.65034,26.75478 -12.90074,30.05678 -8.06082,3.75247 -15.46312,11.41656 -25.07705,9.84414 z m 5.104,-16.00496 c 10.5634,-3.48892 20.91536,-11.39048 16.79204,-23.80575 0.035,-8.99233 3.39566,-22.05136 -7.71868,-25.65964 -10.85136,-5.21412 -4.27273,12.64809 -5.7777,18.18558 2.60782,9.48479 -3.5238,23.04916 -14.65008,15.53251 -5.04757,-5.07003 -16.12799,-7.81605 -12.22521,2.71524 6.17063,5.83314 15.3606,11.37768 23.57963,13.03206 z m 28.03003,-61.23304 c 11.92173,-2.28402 19.7385,-16.09372 12.97701,-26.89273 -4.93249,-10.23714 -24.86896,-12.36746 -23.14837,2.60455 1.37221,8.76551 -8.35367,10.64481 -11.43583,15.62828 5.03996,4.19331 14.96795,11.60061 21.60719,8.6599 z M 453.103,373.09235 c 5.45269,-2.0005 19.55374,-9.19865 6.63274,-12.26678 -9.90828,1.29763 -27.42229,-8.12794 -14.07331,-17.61075 8.64364,-6.7704 17.79738,5.0946 25.01202,3.30982 0.85519,-10.23332 -11.82334,-12.36658 -18.79724,-16.40986 -9.82774,-1.2284 -22.42127,6.63018 -20.94334,17.86804 -2.6414,11.85497 4.3412,22.20025 16.19777,24.70878 2.10744,1.2453 3.86047,1.68835 5.97136,0.40075 z m 76.15396,-1.10613 c 12.50101,-2.98385 15.70882,-15.92199 13.48548,-26.94594 -0.0256,-9.93118 -14.55672,-17.48578 -23.54039,-14.52084 -4.58397,5.00378 -21.37854,7.94488 -14.59954,16.77256 8.18114,-4.85345 24.0316,-10.76675 27.65692,2.35062 -0.35862,14.37961 -20.73707,5.01812 -25.70053,15.05364 5.3049,4.09975 13.91633,11.38622 21.52562,8.13825 z"
         id="path11" /><path
         style="fill:#0ea5b4;fill-opacity:1"
         d="m 448.20416,506.95038 c -10.74683,-4.81428 -22.64422,-9.81798 -30.52445,-18.6396 -4.12211,-10.89777 -1.51683,-23.04993 -1.96173,-34.46662 2.94277,-14.45482 -13.79978,-15.4939 -21.12424,-23.50152 -6.47158,-8.90913 -2.63782,-21.22769 -3.20937,-31.59919 1.23897,-11.31781 14.49552,-15.10804 23.38528,-19.29268 8.01894,3.53357 13.73751,15.3643 23.5122,18.75642 12.53582,6.86581 25.06865,13.79843 37.31436,21.14652 5.11272,7.50442 1.52295,17.54345 2.66809,26.19517 0.92959,6.79152 0.11878,14.3724 -8.66133,10.38447 -3.42457,-4.6961 0.42657,-16.35685 -5.82169,-18.20193 0.0904,8.87077 -2.34996,18.01344 1.00032,26.60139 5.30335,9.28758 -8.94285,15.19356 -16.04739,11.37094 -7.39033,-9.30615 1.64629,-27.42769 -4.745,-35.88409 -11.78268,0.83089 -14.79689,13.51262 -12.53822,23.09632 -0.43686,9.14359 -1.70159,19.80064 8.6197,23.99547 9.90204,7.92392 20.83782,-1.42016 29.18581,-6.90327 9.23065,-9.11644 13.4412,8.2653 8.41621,13.96519 -10.30751,3.11155 -18.25248,12.57422 -29.46844,12.97723 z M 429.3209,429.29556 c 7.09876,-0.96985 18.28977,-11.36487 5.49714,-13.68943 -8.56956,-4.6758 -2.2578,-20.5526 -13.46123,-21.82981 -11.70246,-0.0641 -17.6297,12.78081 -14.04611,22.87931 1.9839,8.3498 14.05302,15.68761 22.0102,12.63993 z m 68.47258,23.79988 c -7.72901,-7.56187 7.927,-19.67886 10.83161,-9.78567 -3.77099,1.9173 -7.38137,4.49137 -8.84319,9.37868 l -0.92706,0.34381 z"
         id="path10" /></g></g></svg>
