<?xml version="1.0" encoding="UTF-8" standalone="no"?>
<!-- Created with Inkscape (http://www.inkscape.org/) -->

<svg
   width="58.057793mm"
   height="85.224426mm"
   viewBox="0 0 58.057792 85.224425"
   version="1.1"
   id="svg1"
   xml:space="preserve"
   xmlns="http://www.w3.org/2000/svg"
   xmlns:svg="http://www.w3.org/2000/svg"><defs
     id="defs1" /><g
     id="layer1"
     transform="translate(-191.60435,-128.70627)"><g
       id="g47"
       transform="translate(-7.593344,-101.6543)"><path
         style="fill:#58e7d6"
         d="m 227.54288,298.44306 c -0.66723,-7.17614 -1.32399,-14.35673 -2.3125,-21.49739 -2.73801,2.04498 -5.23142,4.39043 -7.69996,6.74687 1.95471,-3.60771 6.35248,-7.91493 6.21013,-11.42892 -3.94171,-0.14048 -7.44273,2.20267 -11.01953,3.55924 -1.15685,0.79963 -3.95875,1.70166 -1.5216,-0.13339 2.6705,-2.9399 8.84444,-4.64332 9.84738,-7.60972 -2.15322,-2.49817 -7.77733,-3.77543 -9.16307,-4.88036 4.22824,-0.2857 8.33466,0.67724 12.41902,1.62715 2.73233,-0.32471 1.60069,-5.68772 2.48738,-8.15141 0.2845,-1.97447 0.81968,-6.49853 1.32808,-6.78142 0.47792,5.14297 1.14465,10.2772 2.25181,15.32579 4.66689,-1.22745 9.47239,-2.27602 14.32792,-1.98479 -3.11897,1.21082 -8.99261,2.58223 -9.50192,5.63883 2.43738,2.4545 5.75606,3.8147 8.39727,6.05513 1.48214,0.78517 4.00169,3.27177 0.82294,1.43437 -4.00082,-1.85425 -8.13093,-3.49348 -12.44789,-4.4444 -0.10759,3.96877 3.41767,6.77916 5.18024,10.04498 0.87714,2.07061 -2.96339,-2.10939 -3.73847,-2.73339 -1.20515,-1.85703 -4.01621,-2.47304 -3.36567,0.67935 -0.807,6.81457 -1.34066,13.65806 -2.13724,20.47377 -0.40479,-0.57033 -0.22889,-1.29823 -0.36432,-1.94029 z m -16.50496,-38.2766 c -6.0643,-0.74364 -11.05854,-6.1357 -11.66301,-12.16212 3.24898,-3.46813 7.9063,-5.08086 11.76899,-7.72126 3.37683,-2.57713 8.46842,-6.26593 12.30393,-2.31385 2.39996,1.42173 3.32958,8.38801 -0.60051,5.19529 -3.97713,-1.80939 -8.63002,0.88392 -9.57467,5.00749 -1.29758,4.59307 1.4095,10.27222 6.25357,11.33202 0.16547,2.0043 -6.89278,0.56625 -8.4883,0.66243 z m 24.99199,0.13355 c -1.08656,-1.40866 4.9761,-1.2938 4.8751,-4.01126 2.86352,-3.93558 2.36827,-10.57784 -2.24934,-12.97827 -2.87389,-3.63262 -8.95535,4.65466 -8.60819,-1.48962 0.70634,-3.80558 5.70827,-7.16541 9.33783,-5.30673 4.96735,3.3346 10.30154,6.1159 15.18654,9.5868 4.58397,2.1494 -0.37553,7.89524 -2.33607,10.49872 -1.20996,2.10629 -7.39203,3.86715 -7.08088,3.09283 1.35614,-2.25755 -0.28068,-1.47142 -1.10971,-0.0955 -0.59634,0.36112 -0.25967,-1.39875 -1.00138,0.26361 -0.9915,0.76244 -4.92673,0.54127 -7.0139,0.43943 z"
         id="path51" /><path
         style="fill:#2e937b"
         d="m 257.06503,272.15315 c -0.60537,-2.42045 1.31591,-6.45334 -1.49737,-7.47769 -5.20221,-2.17059 -10.96704,-1.21729 -16.41206,-1.42492 -1.62871,-0.5172 -5.60328,-4.0433 -1.54934,-2.76125 2.47964,0.0548 7.37047,-0.17725 6.97258,-2.34681 3.45592,-0.78898 -2.0484,3.06533 1.29491,1.67836 5.24647,-0.5885 8.98801,-5.19908 10.20608,-10.07683 1.61693,-4.0881 0.93732,3.70634 1.17566,5.41218 -0.0569,6.05572 -0.0711,12.11258 -0.15422,18.16744 -0.0435,-0.38854 -0.0162,-0.78092 -0.0362,-1.17048 z m -57.72891,-15.1263 c 0.082,-2.28813 -0.14498,-7.09294 0.13243,-7.78725 1.34017,5.5925 6.02305,10.47346 11.93889,10.92529 2.97906,0.85543 8.07564,0.0315 9.42629,-0.31085 -1.78328,2.79839 -4.88495,4.15589 -8.29901,3.48607 -3.74259,-0.0479 -7.5623,-0.15904 -11.19857,0.87775 -3.53685,2.65114 -1.49805,-3.95273 -2.00262,-5.69748 l 0.001,-0.74677 0.001,-0.74676 z m 26.17952,-14.68965 c 0.73575,-3.98762 -5.24665,-5.77562 -6.1231,-6.81579 3.01021,-1.88198 6.19031,-5.86829 9.93273,-5.05213 2.9799,1.62334 5.76256,3.60068 8.7106,5.29696 -3.94094,0.24387 -8.00059,2.83333 -8.08177,7.12008 -1.43119,0.0263 -1.79573,-6.5242 -2.78095,-2.23539 -0.23378,0.52798 -1.80245,4.55889 -1.65751,1.68627 z"
         id="path50" /><path
         style="fill:#1c5146"
         d="m 221.71425,306.38056 c -1.06024,-1.59118 -3.74913,-5.11306 -4.49982,-4.72438 1.56634,0.94552 2.82706,5.76355 0.35177,2.26932 -3.91186,-4.43614 -10.13604,-7.19722 -11.7544,-13.34847 -1.31844,-3.13734 0.50365,-8.88006 0.50565,-10.39742 -3.08862,4.79012 -3.25579,11.64578 0.78575,15.96396 1.67816,2.63975 5.58472,4.48348 6.75117,6.74786 -1.79556,0.12577 -3.93921,-2.62321 -6.44473,-2.71613 -1.9512,-0.36532 -5.57679,-4.61098 -6.48648,-7.66412 -2.66987,-6.76728 1.74416,-14.12424 7.56503,-17.58567 1.67286,-0.95655 6.19224,-3.60759 6.49935,-2.38966 -1.23061,1.6741 -6.27034,3.97244 -5.23571,4.88775 1.49626,-0.9031 6.8696,-3.54325 3.25282,-0.11877 -4.40729,5.53547 -5.20626,14.36844 -0.24127,19.82355 -0.44704,-2.97815 -0.35688,-7.83868 3.20042,-8.56291 -0.67848,3.01386 0.51112,5.51011 2.6539,7.63074 2.15109,2.73585 5.07485,5.30811 5.74963,8.84233 -1.00501,3.48304 -2.45592,-4.38263 -4.68876,-4.84132 -1.01773,-1.19137 -3.65168,-2.78273 -1.29631,-0.54438 1.28708,1.48153 4.74288,5.8515 3.33199,6.72772 z m 11.91433,-0.19843 c -0.002,-2.73481 4.709,-6.69207 4.16683,-7.53591 -2.45056,1.26296 -4.60372,6.22488 -5.86023,6.34478 -0.30803,-4.2732 4.32351,-6.57166 6.22728,-9.94859 2.12126,-1.56204 1.78765,-5.65617 1.9727,-6.57847 3.63912,1.09601 2.931,6.15364 3.17097,8.41259 4.76896,-5.62103 3.54151,-14.08853 -0.60948,-19.68197 -1.22228,-1.20607 -2.18373,-3.06487 0.30653,-1.40304 0.93502,0.80773 4.78114,2.08204 2.08433,0.0238 -0.89046,-1.20929 -5.71232,-3.14388 -4.57092,-3.97403 7.58257,2.05885 14.35275,8.28337 15.3112,16.34016 1.43631,3.31375 -1.43142,6.53653 -3.47075,8.97071 -0.85679,0.97723 -4.17989,4.45205 -4.14203,3.48204 1.91789,-2.46391 -2.86607,1.33223 -3.81279,1.53858 -1.914,0.89349 0.50369,-1.65747 -2.08154,-0.10401 4.56089,-3.12121 9.3212,-7.53445 9.35899,-13.49578 0.0109,-2.08458 -0.74883,-5.98893 -1.8552,-6.7847 1.43733,5.12241 0.52516,11.09437 -3.40436,14.90779 -2.5883,2.64468 -6.08449,4.7417 -8.72202,6.98165 -0.0214,-1.02059 2.62634,-3.8866 0.051,-1.77097 -1.27223,0.84917 -3.31785,5.02874 -4.12054,4.27535 z"
         id="path49" /><path
         style="fill:#0b1a18"
         d="m 223.92814,313.5392 c -8.08862,-4.96295 -16.20829,-9.87511 -24.34166,-14.76432 0.0519,-10.92174 -0.13715,-21.84612 0.17007,-32.7655 2.85201,-4.11921 8.81377,-2.36071 12.98732,-1.81428 2.78717,0.75527 7.82247,2.4563 8.19509,4.80615 -3.03485,2.37614 -6.83144,3.15143 -10.28454,4.63599 -6.52113,3.04555 -12.01665,10.29419 -10.07726,17.75853 1.00621,3.91083 3.79429,7.19862 7.1956,9.28825 0.40874,-2.13339 4.82408,3.35127 5.6873,1.81326 -0.34056,-1.28581 -4.82521,-4.02617 -6.29081,-6.21301 -3.33233,-3.89691 -4.23281,-9.66294 -1.80297,-14.25364 2.20452,-4.40996 -0.17197,2.13856 0.01,3.86693 -0.43102,5.01352 2.27296,9.70375 6.17513,12.67752 2.51813,2.16386 5.36731,4.04681 7.25187,6.84203 2.14979,-0.30066 -4.34406,-6.04568 -0.2733,-3.12598 1.0118,0.86221 4.14086,6.42403 3.22158,2.27528 -0.43794,-2.13737 -4.71563,-5.71977 -3.95953,-6.02702 2.90933,1.53662 5.1769,6.67267 6.28212,7.71819 1.00922,-3.84659 -3.02027,-6.60174 -4.91855,-9.45693 -2.6271,-2.0114 -3.48019,-5.74141 -3.61118,-8.31536 -3.03678,1.57867 -3.3586,5.31056 -2.77089,8.31334 -2.64196,-2.07638 -3.8368,-6.94883 -3.357,-10.60106 0.64758,-4.97695 3.25598,-10.35819 8.19291,-12.2393 1.79211,-1.25977 8.23741,-3.1516 5.39846,0.90985 -1.20822,2.82132 -5.26001,7.10621 -5.19554,8.71399 2.38944,-1.04728 5.46656,-7.16387 7.54295,-4.85946 1.06428,8.24551 1.52813,16.55428 2.54721,24.80481 0.64204,-4.73745 0.71988,-9.54019 1.36943,-14.28557 0.3957,-4.03492 0.77598,-8.07471 1.4035,-12.08179 2.58877,2.17644 5.04105,4.51832 7.7503,6.54902 -1.6467,-3.47778 -6.76354,-8.34216 -5.94987,-11.09276 4.68548,0.3212 9.94974,2.06593 11.81526,6.82095 2.82462,5.56364 2.73168,12.84954 -1.23779,17.85191 0.45974,-2.88258 0.32949,-8.60366 -3.22759,-8.52457 1.21277,3.25488 -1.25514,5.8087 -3.16228,8.16883 -1.98631,2.30368 -4.27229,4.57308 -5.08981,7.59808 2.04173,1.94869 2.44622,-4.14592 4.76464,-4.57059 1.30377,-1.46694 3.14202,-2.2584 0.90675,-0.0646 -1.26833,1.48804 -4.22745,5.41268 -2.95804,6.14029 1.20439,-1.43035 3.80377,-5.01543 4.55334,-4.614 -1.45203,1.05671 -1.24585,3.33476 0.26342,1.03339 4.95159,-3.3708 10.72116,-7.46792 11.29843,-13.96143 0.35192,-1.87406 -0.80219,-6.486 -0.26816,-6.73782 2.56553,5.19774 1.82947,12.00949 -2.57449,16.0018 -1.16486,1.28791 -5.09447,4.02124 -4.61555,4.02126 1.58306,-1.08908 -0.3265,1.77162 1.61464,0.29946 1.97398,-0.98721 5.77704,-3.85685 3.5784,-1.0185 3.08972,-1.99806 5.12323,-5.10552 7.37938,-7.92409 1.7015,-3.50854 -0.34771,-7.39416 -1.79775,-10.77524 -2.84887,-5.17338 -7.69242,-9.74878 -13.66743,-10.75755 -2.60643,-0.4958 -7.42897,-3.5346 -2.71684,-5.07296 5.79314,-3.59598 13.58772,-4.42765 19.637,-0.96679 -0.14474,10.90051 -0.13918,21.80267 -0.33451,32.70257 -7.3444,5.20127 -15.23543,9.5879 -22.80552,14.45197 -3.07776,2.1176 -6.27321,4.6106 -9.37002,1.14346 l -0.53319,-0.32294 z m -1.04019,-49.1964 c -1.59902,-0.49041 -6.89359,-0.78081 -3.32543,-2.9876 3.72207,-3.11211 -5.04106,-2.08167 -5.0449,-5.74413 -2.77061,-4.38864 -1.13549,-11.6801 4.43278,-12.82067 3.01789,-1.28899 6.70846,4.30365 7.6382,-0.58004 0.52036,-2.19983 1.88155,-3.32471 2.34353,-0.34007 1.0158,1.83974 1.76049,4.53886 3.54525,1.8804 3.45748,-2.64969 8.28798,0.0257 9.54255,3.74957 2.03563,4.74761 -0.92214,11.25364 -6.25972,11.88994 -3.33253,0.96327 5.68043,4.0732 0.97504,4.16569 -2.8804,0.86776 -7.93906,2.6142 -6.97031,-2.40332 -0.68556,-4.21397 -1.02771,-8.47897 -1.83027,-12.67469 -1.04912,3.50802 -0.81257,7.25718 -1.76396,10.78214 -0.24334,1.88213 0.2205,7.45836 -3.28276,5.08278 z"
         id="path48" /></g><g
       id="g66"
       transform="translate(-61.448494,-68.851926)"><path
         style="fill:#f9aa4c"
         d="m 272.73851,324.57066 c 0.0125,-5.18185 -0.0216,-10.36396 0.0436,-15.54557 0.0801,10.3635 0.0801,20.72763 0,31.09113 -0.0652,-5.1816 -0.0311,-10.36372 -0.0436,-15.54556 z m -36.77584,4.5622 c -5.11782,0.27527 -12.25326,-7.2231 -12.61398,-12.31671 0.43343,-2.47027 6.80758,-2.81653 8.26226,-1.69487 3.51314,2.31506 7.80901,7.06665 8.95382,11.31245 0.55331,1.19291 -3.99471,2.45386 -4.6021,2.69913 z m 11.79214,-1.12253 c 0.98862,-4.93981 6.86956,-10.4629 11.19688,-12.34123 1.69328,-1.40606 6.67647,1.1359 5.49548,3.50854 -0.71495,2.39716 -4.05384,6.46465 -6.00589,8.05431 -2.6519,1.91024 -7.56356,1.35876 -10.68647,0.77838 z m -4.18222,-3.13964 c -1.92185,-1.53252 -2.97696,-9.61024 -0.6151,-10.77629 1.63699,0.51048 5.0093,4.92165 4.42429,6.51027 -0.27732,1.93367 -2.90957,3.90611 -3.80919,4.26602 z"
         id="path69" /><path
         style="fill:#241a15;stroke-width:1.03757"
         d="m 239.60249,339.28673 c -3.76468,-0.35899 -7.17476,-2.25809 -10.85092,-3.03019 -3.03647,-0.58428 -5.12907,-2.74442 -7.63999,-4.25416 -2.87056,-2.29459 -4.34256,-5.77145 -4.4228,-9.38972 -0.83841,-4.23995 -0.85307,-9.83229 3.58421,-12.1161 0.88955,-1.72901 2.91007,-0.67944 4.09048,-2.22088 1.42148,-1.24578 4.57152,0.45267 4.50059,0.24619 1.17608,-2.0338 3.52054,0.76188 5.80605,-0.51216 5.7005,-0.67503 11.46767,-1.13524 17.1763,-0.24313 4.22523,-0.78642 8.242,-0.41755 12.37038,1.01098 3.18879,-0.2274 6.29144,3.11814 7.02462,6.21391 0.79981,4.40119 0.13922,9.02855 -1.19554,13.26907 -1.58396,2.73906 -3.58226,5.12287 -6.53293,6.36523 -2.67492,2.28532 -6.41871,2.22067 -9.55443,3.72867 -3.9342,0.95338 -8.11823,0.97318 -11.84115,0.48507 -0.41157,0.9755 -1.75953,0.79119 -2.51487,0.44722 z m -0.5827,-12.80022 c -2.19092,-5.50235 -7.26042,-10.05998 -13.16154,-11.04792 -2.67214,2.55556 1.4624,8.58709 4.42096,10.28299 2.4364,0.69435 6.61628,2.33566 8.74058,0.76493 z m 14.40173,0.37654 c 4.82171,0.21374 8.46056,-3.85482 9.61506,-8.19816 1.11877,-5.06172 -4.62885,-2.18713 -6.80003,-0.69709 -2.97619,1.91427 -5.36995,4.70769 -6.85373,7.91654 -0.34099,2.33699 2.92745,0.65032 4.0387,0.97871 z m -8.00805,-5.94582 c 2.94402,-1.9862 -2.29189,-8.10252 -3.0233,-3.4432 -1.56709,1.40475 1.92511,8.02359 3.0233,3.4432 z"
         id="path68" /><path
         style="fill:#15100e"
         d="m 241.09576,366.02395 c -3.68088,-2.20453 -7.20711,-4.70772 -10.92486,-6.79813 -5.01959,-2.96861 -9.90248,-6.16681 -14.97401,-9.05089 0.0562,-10.29853 -0.15587,-20.60107 0.21167,-30.89594 1.51197,0.36008 -1.12385,-2.72589 -0.15826,-4.00802 -0.10207,-5.33645 -0.0322,-10.67399 -0.0534,-16.01094 9.5322,-5.86531 19.0644,-11.73061 28.5966,-17.59592 9.5619,5.89225 19.1238,11.7845 28.68569,17.67676 0,16.99129 0,33.98257 0,50.97386 -9.5404,5.79091 -18.91979,11.8516 -28.62785,17.36287 -0.96032,-0.47921 -1.84522,-1.08946 -2.75556,-1.65365 z m 1.28707,-27.60992 c 2.16442,-1.00363 5.03523,1.21895 7.58522,-0.29312 3.58386,0.16755 6.13668,-1.87269 9.54036,-2.26539 2.53889,-1.54953 5.5359,-2.1201 7.12296,-4.89938 2.75976,-1.45489 3.01618,-5.0573 3.68935,-7.96825 0.19568,-4.0379 1.00329,-8.96288 -2.53961,-11.90753 -2.80673,-2.67713 -7.0034,-2.31353 -10.54914,-3.22755 -3.47988,-0.5303 -6.99367,1.12203 -10.40713,-0.17629 -3.5691,-0.01 -7.15114,0.3153 -10.70321,0.61955 -2.37909,1.64627 -6.1753,-2.15055 -6.91744,1.19334 -1.64307,-2.81172 -5.95434,-0.0307 -7.57785,1.03201 -2.58124,1.27762 -4.81472,4.49722 -4.34322,7.86173 0.1486,3.89288 0.35367,7.95614 2.68858,11.21238 2.36028,2.39641 5.27222,4.51765 8.39414,5.84239 4.31201,0.89093 8.36299,3.03611 12.79036,3.28549 l 0.634,-0.0952 0.59263,-0.21412 z"
         id="path67" /></g></g></svg>
