<?xml version="1.0" encoding="UTF-8" standalone="no"?>
<!-- Created with Inkscape (http://www.inkscape.org/) -->

<svg
   width="83.630844mm"
   height="100.00002mm"
   viewBox="0 0 83.630843 100.00002"
   version="1.1"
   id="svg1"
   xml:space="preserve"
   xmlns="http://www.w3.org/2000/svg"
   xmlns:svg="http://www.w3.org/2000/svg"><defs
     id="defs1" /><g
     id="layer1"
     transform="translate(-112.62894,-220.53616)"><g
       id="g11"
       transform="matrix(0.72320551,0,0,0.72320551,-46.639355,18.923454)"><path
         style="fill:#0ebc63"
         d="m 272.66938,415.43781 c -16.07566,-9.04185 -32.51718,-17.44967 -48.20942,-27.16075 -5.99668,-6.03237 -3.44291,-15.04145 -4.07315,-22.59071 2.44119,-8.08861 9.30246,3.73945 14.0092,4.09679 21.07529,11.8442 42.1538,23.68565 63.42061,35.18385 -0.37989,6.90463 -10.44294,6.01235 -14.35578,10.54659 -3.3191,1.59805 -7.68875,2.48496 -10.79146,-0.0758 z m 58.63668,-26.97076 c 2.86486,-4.44051 3.03694,-11.08665 3.16043,-15.72565 0.5014,-2.40756 -1.67637,-0.10029 -2.73389,-3.00531 5.06299,0.52987 -1.83024,-3.33162 -3.6736,-1.61273 1.10547,3.26608 -9.55248,0.22902 -6.28091,5.86067 1.78464,6.08945 -6.1941,2.48167 -5.86108,8.34247 -1.98787,6.2975 -9.81608,1.00947 -13.50286,-1.20733 -5.45151,-5.28475 -12.85651,-7.63608 -19.30832,-11.43848 -11.14544,-5.81884 -22.31625,-11.59302 -33.32596,-17.66675 -8.78283,2.18362 -13.86844,-8.00766 -22.09134,-9.02797 -7.84263,-3.05738 -7.4825,-12.21421 -7.45251,-19.15828 0.0833,-6.55754 -0.22832,-15.01306 6.38585,-18.67558 5.35103,-3.4253 11.76296,-5.05864 16.519,-9.42916 8.72565,-3.81747 2.74869,7.29344 4.64623,11.48075 2.49578,5.8999 -0.51434,11.30084 -1.97063,16.55885 2.91888,5.2595 8.9884,7.92628 14.07638,10.76624 14.50713,7.55388 29.09532,14.95055 43.62472,22.46129 6.36808,0.14961 12.15542,2.54487 17.61998,5.31521 3.20444,2.74645 5.40841,5.03686 9.13907,1.06112 7.19273,-6.28184 4.6233,6.73101 5.29104,10.62486 -0.22654,4.85681 -0.0317,11.1843 -4.2616,14.47578 z m -13.54148,-47.80168 c -10.26293,-1.92741 -19.7377,-7.06317 -28.10998,-13.11316 -5.92841,-5.66036 -11.71407,-12.06029 -19.37885,-15.19647 0.0526,-2.64166 -5.54988,-4.61374 -3.6347,-3.94144 6.56668,-1.59824 8.08014,-10.51162 0.8664,-11.95099 -3.64218,-2.93526 -12.20264,-9.72021 -3.4178,-12.04708 6.58483,-4.48597 15.39481,-8.66521 22.48797,-2.63267 12.47547,6.45928 24.20379,14.47332 36.68571,20.773 7.72975,1.31867 13.78753,9.302 12.04193,17.13496 2.11791,8.09943 -1.88302,17.40328 -10.23082,19.82824 -2.262,1.03507 -4.82702,1.69054 -7.30986,1.14561 z"
         id="path13" /><path
         style="fill:#014233"
         d="m 298.90066,405.65713 c -23.49989,-12.80531 -46.83179,-25.91554 -70.14336,-39.05959 -7.75793,-0.69268 -7.22388,-11.66675 0.75468,-11.38124 7.79435,-2.66309 3.92557,-9.46341 -2.22499,-10.51567 -2.55707,-1.45652 -3.9191,-5.3833 0.19816,-2.30053 12.21876,5.67783 22.53766,14.47693 34.28846,20.96061 10.90018,6.25054 21.97962,12.23648 33.24305,17.78568 6.34896,0.0662 12.13434,2.58013 18.02746,3.70907 5.21224,-0.96168 2.15992,-8.43259 7.88291,-6.97327 1.61405,-3.25411 -0.71499,-9.87403 5.97356,-7.78753 2.40865,-0.39551 -0.0302,-3.28004 3.5832,-2.19401 3.69579,-0.36417 2.78278,1.86551 1.92976,2.58596 4.2677,2.73274 0.78565,10.49427 0.63739,15.15539 -4.84248,6.48585 -13.13041,8.86367 -19.68523,13.21509 -4.69926,2.40997 -9.08869,6.1595 -14.46505,6.80004 z m 24.42017,-39.18267 c 0.64157,-6.43546 -9.42355,-6.33369 -13.75145,-8.6419 -7.0332,-0.44564 -12.86,-4.14155 -18.7736,-7.52872 -14.66461,-7.70696 -30.15896,-14.05124 -43.65326,-23.80594 -3.23063,-5.90069 4.53559,-11.67909 0.63345,-17.71802 0.94336,-6.51159 -2.78978,-16.49984 5.7443,-18.87425 8.09119,-4.1297 10.95879,5.83132 16.91152,8.77275 7.56918,6.78651 -6.3576,8.19998 -8.67947,13.18017 1.12649,4.86098 8.77973,4.99681 12.42431,8.27756 16.52487,9.43714 33.95456,17.23128 50.15077,27.24794 2.0315,4.90122 10.75048,9.95304 7.96587,15.00284 -2.52494,2.23898 -6.0233,2.65065 -8.97244,4.08757 z"
         id="path12" /></g></g></svg>
