<?xml version="1.0" encoding="UTF-8" standalone="no"?>
<!-- Created with Inkscape (http://www.inkscape.org/) -->

<svg
   width="89.266029mm"
   height="100mm"
   viewBox="0 0 89.266028 99.999999"
   version="1.1"
   id="svg1"
   xml:space="preserve"
   xmlns="http://www.w3.org/2000/svg"
   xmlns:svg="http://www.w3.org/2000/svg"><defs
     id="defs1" /><g
     id="layer1"
     transform="translate(-207.10479,-220.40655)"><g
       id="g13"
       transform="matrix(0.54973741,0,0,0.54973741,-93.965888,83.503706)"><path
         style="fill:#cfeb2a"
         d="m 624.76281,370.75717 c -11.97956,-4.24412 -3.09336,-19.02578 -9.71827,-26.07381 -0.92128,-7.30091 -12.68257,-4.19237 -6.59947,-0.96434 2.87437,2.82946 -2.32897,4.49943 1.37632,6.89379 -7.52487,6.03815 -10.11827,-9.3622 -7.36441,-14.37681 4.55617,-4.53989 10.73812,-16.22948 -0.39605,-16.82723 -0.90514,-8.35441 -8.46141,-13.02852 -13.94971,-16.48437 7.79365,-2.46071 17.99692,4.44809 21.18897,12.11225 1.38562,6.05294 0.9483,11.07786 7.49131,7.35921 8.30961,2.41817 1.52144,8.51292 -0.54083,12.01666 0.91699,7.28608 14.60935,8.87756 8.3019,-0.11201 -1.3652,-7.71205 9.44687,-1.04732 3.33854,3.28315 -0.12027,10.42035 18.71432,-4.75978 8.51732,-9.01642 -6.6558,-5.918 6.05286,-9.054 7.31556,-2.00893 1.75924,-5.59808 7.34369,7.01474 8.73333,10.25346 2.62593,4.02482 -1.29572,15.81034 -1.83556,12.3659 -4.24193,3.62291 -7.28921,0.41273 -3.80435,-3.80027 0.19251,-12.20056 -12.14406,2.03374 -9.69429,8.23235 -0.81126,-4.65515 -9.50621,-6.76707 -3.47179,-1.00744 6.91746,6.02281 0.93768,21.7271 -8.88852,18.15486 z m -59.4047,-19.92744 c -2.00414,-2.90241 3.27576,-10.04211 3.21018,-10.90836 4.38572,-4.44851 3.94934,-16.70978 11.96568,-16.68834 2.68134,2.84898 -5.81277,10.08088 0.76661,7.83233 4.19276,4.75736 -5.10683,-2.58317 -1.02444,3.28498 -1.76207,6.18214 -6.00181,16.54196 -13.57652,17.04759 z m 120.30306,0.35903 c -4.66586,-4.5637 -12.41426,-16.4879 -10.27376,-19.8705 6.83543,1.16181 0.52672,-13.7924 6.5116,-5.2879 2.02895,7.6058 6.24365,14.37001 8.43616,21.92145 1.18339,3.83268 -1.73794,4.0552 -4.674,3.23695 z m -39.91561,-27.29697 c -1.86573,-11.28845 9.75054,-22.02656 20.62141,-21.4494 -1.46386,5.56754 -11.09672,7.54703 -12.13019,14.39663 0.22162,3.8514 -6.08655,4.30069 -8.49122,7.05277 z m -16.45113,-4.28207 c -1.90252,-6.96409 9.05701,-21.82059 13.32116,-11.45299 -0.36021,5.7664 -11.38076,10.21974 -13.32116,11.45299 z"
         id="path17" /><path
         style="fill:#9ccb0d"
         d="m 599.72134,391.91061 c -4.01314,-7.51405 -4.24913,-21.91854 0.66859,-26.19347 3.3355,3.92484 10.28741,3.21002 6.59244,9.85594 -7.39359,-4.188 -3.0256,8.1659 -3.42257,12.34259 -0.94658,0.0996 -3.80491,5.36754 -3.83846,3.99494 z m 56.82336,-4.01248 c -4.66782,-2.42426 -2.5892,-17.86876 -8.51456,-13.09395 -1.21249,3.57781 -10.74737,11.90413 -4.74312,4.32719 7.39664,-4.75488 1.8433,-15.21106 6.81995,-20.18788 6.66866,2.96268 7.17148,12.58276 7.66494,19.19559 -0.0384,3.25845 0.11116,6.71234 -1.22721,9.75905 z m -33.2611,-6.99545 c -8.26463,-1.23257 -8.53482,-16.30737 -5.09704,-18.32255 1.50949,6.63529 4.32761,12.44818 7.47921,17.95228 -0.0843,1.21275 -1.83331,0.92125 -2.38217,0.37027 z m 5.89558,-0.83172 c 1.69998,-4.80821 7.62209,-8.1502 5.60233,-13.32104 0.61819,-3.02545 2.65097,-10.11554 3.28258,-2.95478 3.40949,6.12883 -2.03704,20.7052 -8.88491,16.27582 z m -55.3435,-14.86197 c -6.5109,-0.9839 10.75638,-4.32936 3.67974,-5.69542 -4.87768,4.3172 -11.03543,-2.00382 -4.64356,-5.57443 -2.22825,-8.7293 11.08719,-14.63117 8.0604,-22.30337 -5.66635,0.90978 4.37177,-8.03541 -3.16021,-8.88824 -5.03495,3.51478 -5.0782,16.1994 -11.22276,16.19373 -4.96676,-9.47579 6.38076,-16.95769 13.16363,-21.56152 2.816,-3.45387 10.33468,-1.88653 11.49334,-3.92614 -6.99348,-5.62533 0.94494,-12.3557 4.97854,-4.68164 5.46525,3.82985 4.55862,13.15097 12.52988,14.20365 0.20464,10.48372 -12.14227,-1.08775 -15.37008,-5.30883 -3.33103,-1.50073 -6.00336,4.0589 -7.83897,6.2277 3.8021,1.5928 1.10119,7.2984 1.62641,9.96432 3.23148,-3.45605 -4.81562,4.02311 -0.27125,6.55078 3.93788,5.67277 -10.04081,11.19531 -0.88255,16.36067 0.43336,5.80236 -7.048,10.00813 -12.14256,8.43874 z m 103.05412,-0.0225 c -9.27615,-1.09603 -6.97281,-11.52214 -4.87491,-16.51091 -5.45994,-3.04897 -8.84403,-7.26785 -1.7898,-10.13128 3.12295,-5.40379 -11.42037,-10.53227 -1.3096,-8.24534 9.48945,5.04839 12.33848,15.92891 15.38492,25.36636 6.00971,7.65618 -4.29647,3.04653 -7.37892,4.1192 1.96282,2.95506 9.26312,5.34712 1.31674,5.6266 -0.44947,-0.0749 -0.89902,-0.1497 -1.34843,-0.22463 z m -60.25485,-5.12368 c -5.25498,0.0579 -15.4506,-9.62512 -4.51542,-9.69514 4.19994,-0.7586 5.84145,-5.9556 5.88269,1.12761 0.22246,2.8509 0.55727,6.19301 -1.36727,8.56753 z m 26.11394,-0.71208 c -0.47858,-4.15349 -6.94371,-3.3288 -5.54685,-0.90114 -2.32977,-2.67653 -8.88984,-14.28882 -1.84785,-7.29258 3.93466,5.4121 0.60147,-9.05881 5.8056,-0.89537 2.68731,3.81583 13.89724,-4.78202 7.78813,2.85815 -1.86342,2.26452 -3.87161,4.43361 -6.19903,6.23094 z m 43.85614,-21.35247 c -3.77341,-3.29281 -3.14159,-15.90842 -7.9882,-13.8177 2.89311,6.30825 -7.02713,11.55918 -7.59738,5.10726 -2.94106,-2.80316 -7.9816,-5.54383 -4.88739,-8.51207 -2.17199,-12.6886 14.49136,-2.95968 18.46298,1.89774 4.74469,2.92085 8.08938,15.92813 2.53548,16.41706 z m -67.21858,1.25934 c -8.98062,-4.13578 9.52488,-16.65236 -3.01544,-16.28984 -8.84269,2.91464 -1.73764,-6.43092 3.16138,-5.17264 4.91053,-0.1675 -7.23923,-3.27614 0.66074,-1.96647 3.30142,-3.68952 -2.33596,-9.25255 -7.13853,-8.85071 2.30988,-10.20678 13.79476,1.27017 12.28357,8.14886 -0.12813,3.90185 2.32887,8.7766 4.07661,2.25385 -0.90182,7.35747 6.693,-6.10544 9.50672,0.66766 3.32815,1.11198 6.21942,6.79896 6.54927,4.74333 5.88175,0.51917 9.35418,-5.70455 11.03716,-10.6724 4.02329,-2.72533 8.87431,-7.53987 11.19712,-9.86424 4.45977,6.04628 -3.31436,14.67051 -8.03574,18.80436 -4.20486,4.59983 -12.23009,8.47577 -15.45851,3.70774 -0.0311,5.04477 -7.49788,-7.72237 -9.61229,0.25866 1.49456,4.05786 7.99847,8.16861 2.01776,13.0502 -2.02269,-3.86839 -0.34303,-9.1082 -6.32966,-3.71868 -3.72628,2.92429 3.08938,-2.27681 -2.46655,-2.84094 -4.3813,-6.14867 -2.74575,7.77463 -2.62011,4.03048 -3.82869,-7.43698 -12.31186,-1.24504 -5.8135,3.71078 z m 66.41356,-36.88772 c -1.04601,-5.13538 -0.82147,-9.34939 5.54607,-8.13371 5.7677,0.75571 8.08754,9.96132 0.21043,6.66178 -1.95657,0.3316 -3.85493,0.91848 -5.7565,1.47193 z m -125.75366,-0.71816 c -3.36706,-8.37114 13.84371,-10.63259 13.24696,-2.31434 -0.25533,4.01256 -9.61636,-0.45942 -13.24696,2.31434 z m 57.62345,-1.58724 c -8.26312,-4.54986 -4.86041,-16.71622 -12.34189,-22.42083 -5.27673,-5.25546 -12.59688,-10.6706 -20.42737,-9.40831 -6.80306,3.60472 -9.6962,-5.12032 -2.24513,-6.26661 13.56015,-4.34684 29.12668,3.23707 35.16113,15.90894 3.89195,4.9392 6.45976,12.7752 3.38724,17.36038 4.25836,4.4201 0.4168,4.72004 -3.53398,4.82643 z m 23.81438,-2.21976 c -10.8766,-0.66948 -8.34169,-10.45605 -4.23787,-17.03022 4.63961,-9.21045 12.21912,-17.88548 22.9773,-19.48057 8.3952,-1.50241 19.37744,-0.7315 24.68174,6.93181 -2.94404,6.93262 -11.93387,-5.0015 -17.70395,0.0331 -11.82769,2.55282 -20.06249,13.34676 -23.26994,24.50267 -5.21039,-3.23202 1.7012,4.27239 -2.44728,5.04322 z M 606.9158,263.56018 c -8.75439,-3.6189 4.24058,-13.70677 5.02499,-3.76653 0.11971,2.33717 -2.60194,5.85216 -5.02499,3.76653 z m 17.42799,-0.13881 c -9.98561,-6.41237 5.31058,-22.70854 8.50832,-9.14586 0.53825,4.48672 -2.84896,12.4196 -8.50832,9.14586 z m 20.85274,0.0987 c -7.79646,-7.28018 11.92302,-10.39637 5.42816,-1.70108 -1.30969,1.17842 -3.71658,3.70383 -5.42816,1.70108 z"
         id="path16" /><path
         style="fill:#57980b"
         d="m 622.3741,402.79682 c -2.96673,-3.99685 -4.08156,-19.32174 3.33003,-13.92854 6.2364,-3.03759 13.21807,-0.0873 9.64402,7.58658 -2.25635,8.28856 -19.65453,0.81297 -11.90177,7.49308 z m -15.22876,-2.37723 c -5.78036,-2.7418 -8.89428,-9.63699 -3.38449,-13.50972 -1.78226,-6.22339 -1.98859,-13.70031 3.99467,-12.69886 3.27621,-7.62016 -12.99197,-5.52246 -5.93351,-13.48181 1.567,-4.32855 6.12147,-5.65683 4.82836,0.4385 4.38118,6.0324 7.19421,12.48354 9.24214,19.62376 3.15314,8.47108 -7.08229,-5.35939 -4.4918,2.24548 -0.26463,2.35042 -1.7442,9.0061 2.76391,6.66947 -4.04937,2.18302 -1.87834,10.468 -7.01928,10.71318 z m 38.34625,-0.30765 c 2.08437,-7.11989 -6.36151,-15.76761 -0.38307,-20.82422 2.00869,-4.69089 5.90636,-9.58075 7.36749,-1.70861 2.114,7.50543 6.9335,15.30906 -1.93342,20.78981 -1.46145,1.05417 -3.22503,1.78042 -5.051,1.74302 z m -64.46658,-0.40744 c -9.57748,-1.53635 -4.95017,-18.68192 3.21214,-9.19272 3.15444,2.97733 2.37568,10.45281 -3.21214,9.19272 z m 88.58866,-0.61133 c -7.80101,-7.04627 11.58577,-17.88836 8.78013,-5.20275 -0.71359,4.03579 -4.81782,7.14232 -8.78013,5.20275 z m -30.86964,-15.67925 c 2.32688,-6.057 3.48577,-18.90042 9.17981,-19.47983 0.77192,7.0052 -1.88558,14.39163 -7.67074,18.30402 5.10144,-1.10406 -1.18053,2.04399 -1.50907,1.17581 z m -57.28182,-0.67871 c -1.39142,-6.24398 5.14835,-18.35158 9.98529,-17.20959 5.95492,7.38628 -3.14949,15.5775 -9.98529,17.20959 z m 88.36876,-1.25966 c -7.24795,-0.16718 -11.86882,-17.74988 -4.39534,-15.33198 4.8057,2.58172 11.30966,14.12706 5.92099,16.07236 z m -99.06791,-1.75977 c -8.14645,-0.18145 -17.17051,-13.80454 -3.52969,-10.91922 7.99794,-0.57314 18.12703,13.18704 3.52969,10.91922 z m 107.58767,-0.48444 c -5.43208,-9.33349 17.70721,-16.09132 17.45067,-4.64396 -0.25609,-6.60788 -6.38471,6.21496 -11.58454,5.19392 -1.89309,0.43464 -4.21432,0.56918 -5.86613,-0.54996 z m -10.67468,-19.65773 c -7.2368,-0.49024 -13.37266,-5.77457 -8.74102,-12.57223 0.0148,-6.10399 -6.67082,-19.36114 4.40044,-18.08167 7.64472,2.0925 -1.54811,-9.35322 3.82605,-3.36013 2.57266,2.12077 10.79236,12.44563 2.86375,5.76044 -3.98617,-4.54369 -7.18292,0.89395 -9.14608,3.48365 1.96225,7.31691 8.65695,10.59803 12.03008,16.09224 -3.02812,2.24929 -2.19803,7.42713 -5.23322,8.6777 z m -81.35937,-0.35815 c -2.10078,-5.20756 -5.43267,-12.03561 1.21523,-14.78563 -0.14199,-4.87004 13.30998,-7.50012 4.71843,-11.32659 -5.42009,1.10568 -6.96367,-0.25883 -4.33997,-5.27995 2.2159,-3.88018 -0.42067,-11.50166 5.32169,-10.51405 8.78815,4.03755 -10.30227,11.21401 -0.17327,11.53943 10.47945,2.54317 2.92618,16.38019 2.27846,21.68244 8.10972,5.11083 -4.82946,9.84519 -9.02057,8.68435 z m 35.95219,-18.59999 c -7.98073,-0.42524 -4.17584,-14.36635 1.85838,-5.95233 2.47072,2.415 3.6551,8.46557 -1.85838,5.95233 z m -71.00948,-20.65315 c -8.40354,-7.00288 -0.50548,-20.14492 7.59763,-23.72766 5.36308,-1.5257 -2.11585,7.77162 5.51937,4.92591 4.96378,-0.64189 12.35323,1.60572 7.55347,-5.85155 -10.80108,-1.44964 7.09089,-0.90574 8.63363,3.28118 3.89043,5.39732 -0.4094,2.27622 -1.91307,3.89214 1.50098,4.19226 4.75977,6.50667 -0.74186,2.95777 -4.27236,-3.9729 -15.64911,-7.75624 -17.8153,-1.61423 2.15319,4.41922 13.09182,0.3033 5.60311,6.71092 -4.56935,1.95192 -10.00518,0.69831 -10.48647,7.76979 -0.53801,1.53143 -2.44595,2.4042 -3.95051,1.65573 z m 152.84928,-0.0676 c -2.23594,-8.09965 -13.0857,-9.13529 -10.63593,-18.81108 -6.33099,-0.96696 -12.34842,5.29727 -15.3239,7.58383 -1.76174,-7.05114 -6.01909,-7.73791 -12.72005,-6.49562 -5.27715,-0.50899 -9.19169,-13.85343 -10.61094,-2.6039 -2.99635,7.18882 -13.24839,-6.33428 -11.97773,-7.43567 2.02287,-3.67142 8.48838,-10.86878 8.64336,-16.61176 -2.86978,-0.19162 -14.06453,-4.00092 -5.05077,-3.03675 9.68864,8.03569 16.81302,-8.67121 27.8467,-4.33097 4.84899,-0.30253 9.41096,5.53677 11.53806,0.92138 5.4768,4.87476 5.91208,21.20898 -3.54292,18.47391 -2.14093,-7.71749 -12.88246,-9.56992 -18.01923,-3.99392 -2.6891,3.14325 -6.17799,4.44017 -0.12873,3.64254 6.22299,2.18488 9.60818,8.54497 13.39616,11.70343 4.17041,-3.62884 10.29868,-4.37468 8.37012,3.09653 2.59465,-0.17281 8.22427,-1.00429 11.3393,-1.80473 0.63838,-6.31974 -13.80015,-5.89503 -3.72247,-5.63966 10.88994,0.78896 20.51087,13.72997 14.86366,24.01557 -0.88135,1.32489 -2.76766,2.18108 -4.26469,1.32687 z M 602.50674,303.07327 c -0.13895,-4.42572 -2.492,-14.27863 -6.65266,-5.98869 -1.38175,8.22736 -12.40931,2.23043 -13.16833,-2.23781 3.20198,-3.93494 12.37281,-10.94691 12.10856,-2.36106 8.66546,-2.25399 -3.58025,-12.16571 -9.07289,-12.17033 -8.39392,-2.9956 -11.76103,13.75622 -18.11776,4.52757 -3.21605,-8.55397 3.31066,-18.76641 11.51939,-21.37973 -4.77324,8.23508 7.23042,3.37337 10.21316,5.20359 -1.7859,2.29839 5.58544,-0.18199 6.79154,2.38727 6.94861,-0.29363 -1.16653,7.99381 3.78598,8.46301 4.46766,-6.50879 9.26732,9.91191 4.91717,12.22952 -2.31451,4.81666 9.33331,1.75204 3.6316,7.45655 -2.80004,0.23225 -5.02313,7.14111 -5.95576,3.87011 z m 27.32591,-1.2697 c -0.4407,-4.82602 3.06179,-11.15807 6.19549,-6.26475 2.46286,2.48941 8.87027,0.64044 6.50435,1.71205 -2.66541,5.73853 -9.6503,2.82134 -12.69984,4.5527 z m 3.01981,-12.20593 c -0.22462,-6.49532 -9.9446,-5.79712 -11.1242,-4.12245 -2.49484,-5.48885 -9.53788,-12.8672 0.0798,-15.49376 6.23517,-4.19159 15.28511,-0.39559 18.81023,5.10861 -4.36224,3.73752 -3.62575,10.9168 -7.76587,14.5076 z"
         id="path15" /><path
         style="fill:#145d11"
         d="m 623.73352,430.45105 c -21.35507,-11.44085 -42.68695,-23.02892 -63.19076,-35.93113 -6.11506,-7.44079 -1.50514,-18.00258 -3.02378,-26.78449 0.28703,-16.1608 -0.25759,-32.54163 2.31797,-48.51217 1.12891,-5.82264 15.4361,-14.64972 2.73552,-13.14033 -8.18979,-6.97348 12.78513,-6.1609 15.95981,-0.52311 8.03386,7.66736 -5.42366,-7.58589 2.93932,-3.05499 1.54741,-1.96869 1.71394,-7.6176 6.33856,-3.15249 7.1497,7.19014 6.83306,-6.06771 12.88378,-5.30944 1.13046,4.358 1.12625,13.74408 6.34754,6.68216 4.34472,-3.67871 2.97072,-6.46492 -2.30367,-6.79737 2.32498,-4.35599 2.78122,-13.05231 -3.03421,-16.68764 -4.18412,8.3545 -5.27159,-9.98178 0.47213,-2.11168 7.00576,6.28456 11.56629,16.04753 11.13662,25.50787 -3.56907,7.4442 9.14243,19.39601 -3.04492,20.33123 0.0305,-11.12558 -11.66357,-19.95942 -22.44217,-19.41566 -0.27745,5.572 5.93294,14.62736 -4.19509,13.91886 -8.36146,3.80042 -17.95187,9.88619 -18.59549,20.02336 6.84131,4.78554 -7.47024,20.10403 5.57129,14.99929 8.00029,-1.49068 -7.9654,13.57508 4.02314,10.24843 7.19465,-4.76066 0.86513,5.70689 -3.3039,2.57539 6.02487,7.12419 13.82854,-4.36327 20.47024,-4.27563 6.40222,-1.40293 5.83142,-8.5758 3.26597,-10.42852 5.41598,-6.17813 5.64536,-20.92949 -5.15007,-19.95736 1.24107,-10.07331 12.49105,-6.24093 16.21903,0.13783 -3.349,6.73014 -8.16252,16.21215 -1.25989,23.30217 3.48127,6.07725 16.36347,8.82818 10.97076,17.60946 -1.75552,4.92603 7.53101,15.44401 9.44845,9.10116 -2.90854,-2.85541 -8.60926,-13.99572 -0.83317,-7.67295 4.22085,1.01789 14.5711,-5.13148 8.66486,2.87108 -3.43849,2.44061 -5.92466,9.83965 0.95411,6.11181 7.41816,-3.18509 4.05383,-17.39709 4.05725,-18.88721 6.41691,1.69392 11.44989,-9.66916 14.71906,-14.67722 4.08491,-8.93049 -9.83015,-18.26891 2.1482,-22.63665 4.32608,-6.81577 17.88729,3.55232 7.97685,5.25241 -11.21468,-1.60181 -2.99212,13.72995 -4.01752,19.69805 -7.03282,10.28889 10.07696,7.78379 12.969,14.27933 3.35779,4.2537 18.52004,1.24123 7.08235,-1.16485 -3.83119,-5.94486 9.3053,2.5904 11.31495,-3.42163 0.32122,-0.46598 -7.71915,0.17116 -7.41553,-5.3234 -1.6278,-6.77204 11.37725,2.61398 7.48345,-6.40893 -5.0697,-7.74524 4.0332,-17.11986 -5.23572,-23.85567 -3.72952,-7.17146 -15.54114,-5.8335 -17.97977,-11.89357 0.87906,-4.35503 3.87214,-13.17905 8.10937,-8.76964 0.80478,4.57845 3.86835,9.33636 6.5974,3.20742 4.04278,-3.0573 13.58588,-7.95334 12.17153,1.34172 1.86724,19.76788 1.00852,39.87069 2.2258,59.73145 0.0797,7.90814 -10.00227,-1.50926 -14.24892,4.08711 -8.64233,2.31553 -3.93338,13.23719 3.61019,8.62763 5.85309,-0.71157 11.31195,-13.25082 10.02039,-1.77493 3.11853,10.72471 -2.88166,20.27039 -13.10488,23.80784 -16.26167,9.32776 -32.62394,18.50115 -48.79844,27.95524 -3.08828,1.46905 -6.68659,2.19797 -10.02699,1.16036 z m 5.61589,-24.73702 c 6.60343,-2.64815 10.49235,-21.47636 -0.21261,-17.14347 -5.01274,0.032 -10.33834,-2.89691 -8.95132,4.52038 -0.90663,4.96389 2.73131,16.15467 9.16393,12.62309 z m -19.75871,-5.45515 c -0.0141,-5.34725 6.68007,-11.15263 1.32052,-12.37477 -0.80333,-5.13046 1.31181,-8.36228 5.53308,-4.29483 -1.40684,-7.17182 -4.42256,-13.6909 -8.11858,-19.90312 -0.86552,-5.05736 -3.99558,-9.83914 -6.79665,-2.66653 -7.64526,12.00059 -6.89164,30.79488 5.54613,39.32501 0.69884,0.50661 1.91469,0.67794 2.5155,-0.0858 z m 40.2429,-1.16114 c 11.62022,-11.04783 10.57634,-31.3607 0.30702,-42.76151 -2.363,7.08961 -8.58845,12.30672 -9.45438,19.97895 0.0888,4.08873 -3.55603,7.86408 1.72944,7.3963 5.44038,3.16118 -1.50435,21.2904 7.41792,15.38626 z m -65.00813,0.001 c 8.15539,-8.76214 -14.85129,-16.41005 -8.53168,-3.48228 1.411,3.01366 5.336,5.70613 8.53168,3.48228 z m 89.82448,0.10354 c 8.07638,-2.68056 2.35438,-17.55162 -4.41022,-9.12997 -3.69157,3.46987 -2.0322,12.63887 4.41022,9.12997 z m -89.88959,-17.66113 c 6.33365,-2.26441 13.12111,-13.24391 4.70993,-16.73961 -4.20699,3.34251 -11.43182,15.35266 -6.31835,17.92425 l 0.72767,-0.4859 z m 88.50168,0.55205 c 1.52163,-6.59697 -5.58743,-17.73496 -11.08908,-16.05163 -2.35878,7.05628 3.57144,16.72239 11.08908,16.05163 z m -96.56013,-2.47198 c 5.35496,-8.44793 -11.59256,-13.78763 -17.22457,-9.19835 0.92904,6.04459 11.37163,11.51474 17.22457,9.19835 z m 33.29498,-29.42656 c -3.52617,-2.23153 1.79308,-7.36738 -2.84108,-9.33592 6.62132,-4.61922 13.74879,12.56636 2.84108,9.33592 z m 31.03134,-0.1061 c -8.72504,-4.47092 10.39014,-14.96981 3.64141,-5.04284 2.05835,3.01716 0.31603,6.53582 -3.64141,5.04284 z m -53.80659,-9.87722 c -7.11807,-7.93726 13.83393,-10.2603 6.48443,-1.22019 -1.75097,1.41773 -4.33312,2.34468 -6.48443,1.22019 z m 77.21571,0.0599 c -6.98093,-0.48708 -0.64793,-13.40664 -1.44714,-4.82841 4.38256,0.066 2.31918,-6.59196 6.47215,-1.72445 2.78433,3.58159 -0.81991,8.68266 -5.02501,6.55286 z m -23.28578,-21.21651 c -4.51113,-3.49752 5.13361,-5.18492 1.61722,-9.91294 -1.20265,-11.40243 -14.4745,0.93163 -14.84974,6.55537 -5.76231,-2.62612 -3.59753,-16.37174 -13.49348,-13.81365 2.13951,-3.41526 12.45041,1.87243 9.64693,-6.90588 -2.5819,-5.0534 -2.79282,-14.44101 5.21531,-10.16295 10.20588,3.75741 -6.45799,18.57927 5.96514,16.30921 6.27506,1.7248 9.18399,-11.83806 11.13157,-2.57075 4.82477,5.79578 9.81651,1.8362 10.34795,-4.17963 3.17866,2.49496 9.21193,9.5314 1.12921,9.48291 -7.97406,2.12208 -10.62098,13.55901 -15.2198,16.64204 l -0.81262,-0.865 z"
         id="path14" /></g></g></svg>
