<?xml version="1.0" encoding="UTF-8" standalone="no"?>
<!-- Created with Inkscape (http://www.inkscape.org/) -->

<svg
   width="91.795952mm"
   height="100mm"
   viewBox="0 0 91.795951 99.999999"
   version="1.1"
   id="svg1"
   xml:space="preserve"
   xmlns="http://www.w3.org/2000/svg"
   xmlns:svg="http://www.w3.org/2000/svg"><defs
     id="defs1" /><g
     id="layer1"
     transform="translate(-305.20794,-219.04004)"><g
       id="g17"
       transform="matrix(0.60417479,0,0,0.60417479,-51.549352,40.779095)"><path
         style="fill:#bccd27"
         d="m 634.76684,416.86037 c 1.97477,-2.74914 2.08045,-3.95965 -0.44884,-0.99258 1.15153,-1.95435 -8.2072,-3.87332 -4.33776,-4.78321 0.79831,-1.9219 1.48304,3.75639 2.33892,-0.97701 3.7758,-2.14432 6.40306,1.47057 10.8917,1.21111 2.71869,-3.82984 1.27951,2.75444 3.49508,2.66771 -5.43004,-3.18979 -4.41346,0.7286 -7.72219,-0.90612 -0.73724,1.71814 -1.56809,2.51693 -3.05774,4.21691 l -0.71138,0.0231 -0.44783,-0.46045 z m 68.67607,-5.16952 c -1.87949,0.80436 -5.03198,-2.88695 -6.1625,-0.23468 -3.48413,-0.96111 -2.68133,-1.46547 -7.64209,-0.49236 -3.38793,1.0931 -0.0124,-3.72959 -3.11746,-0.47548 -7.44143,-1.66497 6.36541,-7.83785 0.4698,-6.01122 -1.32837,1.16263 -9.73069,0.57164 -6.68073,-2.19713 7.97178,-3.15618 11.2565,4.41561 17.48608,5.51932 4.63128,-0.92757 9.68429,3.22577 5.64693,3.89151 z m -62.5191,-2.64907 c 1.3754,-5.618 -0.69232,-0.90569 -3.54255,-1.48699 4.32214,-4.14716 -0.6311,-2.55285 -1.85178,-1.35959 -0.47232,-5.69067 9.91078,-0.35094 7.32096,-4.03327 -5.87584,1.76662 -4.34508,-2.50767 0.21936,-1.94963 -3.92406,-0.70979 -4.80035,-5.38253 0.034,-2.54684 -2.35072,-1.77898 -1.48604,-8.00115 -0.2612,-3.30474 2.24525,-1.12124 1.95388,4.80132 2.2256,-1.3782 0.23645,-5.10659 1.25752,-11.2106 -3.45133,-11.49855 8.41029,-2.9225 2.03733,7.39473 4.41019,11.83021 -0.79203,6.3767 0.97539,-1.48717 4.30582,1.1203 -0.0442,-2.74838 1.52714,-10.15447 0.87213,-3.06863 0.12862,3.46996 -1.33144,9.65163 2.21337,3.54577 2.15385,-3.64144 8.7555,-6.43418 4.97218,0.0205 -2.47234,2.61911 -4.36148,1.6436 -0.89881,3.39079 -0.0575,2.74385 -8.43426,1.19946 -1.94877,1.8963 6.46091,-0.56836 -0.0541,4.13166 -4.03064,2.31998 2.64995,-0.28358 10.45298,8.54963 4.6854,4.16679 -2.83129,-4.82941 2.17626,5.98705 -2.3656,1.32493 -2.11058,-4.17889 -6.10515,-8.03339 -4.29043,-1.28333 -1.8069,-0.53555 -2.67076,-0.40228 -1.14363,-3.51677 -2.5407,4.95864 -4.18818,-3.04345 -4.83285,1.92501 3.31573,-1.13736 -1.61508,6.51921 -2.64141,3.88591 z m 56.64289,-2.31799 c 1.25871,-5.65458 -0.48672,-13.27908 -0.32345,-17.60259 -12.67121,-0.23023 7.53247,-11.53419 7.80084,-0.58814 -5.10213,1.45937 -7.97849,-0.4567 -4.73052,4.46776 -0.40817,5.05524 1.12361,3.66414 3.38275,5.00609 -1.20398,2.36886 8.02754,-0.33283 2.19475,2.79517 -3.28557,0.74527 -6.84053,10.401 -4.70194,1.66161 -0.49268,-4.71267 -4.13074,8.59685 -3.62243,4.2601 z m -9.45159,-11.15543 c -1.41867,-3.61016 3.80139,-14.05855 -3.91126,-12.64678 1.32367,-5.79055 13.24818,-3.24102 9.67851,0.69361 -5.40339,-1.30672 -4.76202,3.86323 -1.96665,6.74319 8.22941,3.34869 -1.7856,3.65456 -3.62406,4.23957 1.50335,0.11586 -0.21964,1.66381 -0.17654,0.97041 z m -80.89635,-17.81644 c 0.91446,-5.36178 -0.27843,-0.79189 -1.27045,-1.35966 -1.85156,-3.26238 -0.88465,0.3714 -3.2942,0.50941 4.20132,1.47643 -8.3563,-0.90898 -1.79845,-0.67176 -2.83014,-2.74982 -5.71201,-0.68489 -0.23,-2.01741 2.52517,-2.81722 8.72098,2.82254 3.32826,-1.29199 -2.3224,-2.30976 0.0371,-1.33981 -3.15202,-0.25236 -2.92083,4.27808 -10.15264,-0.7533 -2.38918,-1.9463 -0.94025,-2.74157 3.67398,-2.01182 1.75511,-5.06902 1.53396,-5.37208 -2.24045,-2.4163 -2.27558,-0.004 -2.46855,0.60123 -7.83917,-4.52414 -2.45319,-3.19362 -1.41057,-3.07869 -0.33797,-5.61624 1.01385,-7.55071 -0.36195,-0.21113 -8.53777,5.50493 -5.14225,-0.51798 2.23,-0.81609 4.14223,-5.08872 3.40659,-5.21885 -3.3326,0.12643 -4.40585,-2.96873 -1.05974,-2.22167 -1.32218,-4.12783 2.06276,-8.72255 1.45821,-2.00355 1.15644,4.36587 0.52372,7.26212 2.86905,9.22771 -3.34849,-4.36942 6.35936,-12.22316 2.19335,-4.84922 -4.08201,6.75062 1.41007,2.12335 2.84727,1.21826 -0.33182,4.34528 2.61687,4.77253 4.27641,4.48206 -3.50586,-4.28832 6.55912,-6.25799 4.23922,-0.021 0.68227,0.83431 -8.23696,3.71963 -2.25552,3.00888 0.37067,2.67094 -4.21637,2.36638 1.37288,4.3712 4.9171,3.10228 -1.4584,9.4522 -2.16951,9.20327 0.33379,2.33843 -2.62435,-2.52352 1.31054,-3.35852 1.2062,3.3612 0.52363,-6.28443 -0.56211,-5.40154 1.47077,-2.82559 -6.14249,3.77417 -6.61647,1.65589 -0.26549,0.75014 -1.59504,8.23554 0.72969,3.57141 1.49956,3.48544 1.83885,3.16197 0.52472,4.20741 3.65053,-2.50865 3.29803,5.88932 6.31926,1.18511 5.96095,2.19108 -3.01792,3.86793 -2.97574,4.3084 z m 80.74706,-13.51142 c -4.93663,0.30268 -2.31865,-0.97334 -2.03348,-3.6865 -1.53853,-2.29439 -4.25745,-1.5835 1.47665,-2.95936 0.62171,4.51882 6.79883,-4.74337 8.97836,2.40808 -0.98975,2.02939 -3.74991,1.02548 -2.01335,3.51983 -1.9723,0.75484 -4.31623,0.82137 -6.40818,0.71795 z m 15.56757,-33.23936 c -2.10587,0.97635 0.31944,-5.93571 -0.0884,-4.97974 -0.35013,10.64376 2.48545,-8.23033 1.42146,-2.34626 -0.21781,6.61157 -1.7519,-7.17566 -1.87001,1.16012 -1.11825,-1.27487 -2.41701,-2.48328 -2.89258,-4.15651 0.095,5.89518 -0.45612,1.63937 -1.43598,2.10598 -0.35631,3.52643 -1.5965,-4.65573 -0.77124,-6.13379 -0.31872,-6.25976 5.84653,-4.55296 6.89108,-4.08469 -1.71041,3.50237 2.35994,2.46186 0.0456,4.74348 3.16584,-1.24594 -1.78401,4.14726 0.6741,2.89533 -0.65862,1.27491 0.6284,13.31311 -0.81167,8.67847 -1.06336,-3.62001 0.66109,4.33362 -1.16236,2.11761 z m 8.06687,-0.62501 c -0.92011,-2.68194 4.32928,-8.73983 -0.17401,-4.78333 -2.19494,-4.16021 7.58428,-4.7981 5.43371,-5.54377 0.10961,-2.3909 4.6248,2.67531 5.18764,-2.09302 -0.73217,3.66458 -0.70553,5.43489 -3.61464,8.05294 3.43539,1.1743 2.50865,-4.72938 6.12859,-3.06256 0.80101,0.52253 5.7692,-0.60674 1.06015,-2.28777 5.95013,-4.23755 -9.1508,2.52127 -0.6901,-1.65286 2.78682,0.0869 8.40901,-7.43594 5.6899,-0.66531 -2.46178,2.64968 -2.86418,6.09814 -5.73524,7.44874 6.61834,5.27971 -7.41436,3.00405 -6.28555,4.59042 -0.36874,-3.79712 -2.38963,1.89209 -5.88649,0.15489 -0.59689,0.21997 -1.79559,1.226 -1.11396,-0.15837 z m -50.87383,-18.01427 c -1.26913,-3.66871 -15.26648,-3.51329 -6.39584,-3.9876 1.5097,0.3227 2.3791,-3.38873 1.07305,-4.80554 -3.63653,-1.79998 -1.57184,-1.08278 -6.69788,-2.66145 -0.29276,-1.7876 -4.54446,1.49683 -3.3077,-1.94525 -1.33115,-0.41871 -0.83531,3.56733 -3.03049,0.49504 -3.99876,0.92215 3.58793,0.72433 -2.22182,1.66875 -1.67283,-1.6676 -3.57758,-3.07596 -4.12186,-0.31821 2.92666,4.55143 1.04385,-3.3178 2.74353,2.17949 -2.81205,0.48951 -3.82148,-2.24061 -1.61859,1.47837 -0.52636,2.8211 -3.63787,1.68861 -5.56883,-2.33818 -2.30262,-2.41642 -2.62724,1.31511 -6.45393,-0.82779 -1.46658,1.51023 -7.25984,-3.51547 -1.9267,-3.02766 -1.83897,-1.51461 -4.21801,1.11864 -5.99984,0.91173 -0.7212,-1.07278 7.42077,-5.82881 11.6358,-3.50165 6.37085,0.54388 11.82381,-1.05666 18.22313,-0.33408 -0.32302,2.28726 7.02252,0.31493 7.22871,3.54462 0.6685,1.58036 2.15594,3.06657 -0.36938,2.97272 5.27172,0.58945 1.39844,8.66376 5.26593,7.05015 2.53043,-3.0765 9.52344,1.10026 3.24318,2.01474 1.17541,0.94678 -1.9585,1.69999 -1.70047,1.4318 z"
         id="path21" /><path
         style="fill:#1ab9b7"
         d="m 695.06615,452.45727 c 0.16783,-7.75623 -0.38719,-15.6693 0.14963,-23.3207 7.83505,-5.53106 2.82473,12.18983 2.90489,17.09876 -0.58168,2.13529 -0.74652,5.22927 -3.05452,6.22194 z m -49.63209,-5.51681 c 0.69473,-3.52916 -1.63511,-19.15327 2.2554,-14.17843 -0.13011,6.99661 0.50558,14.04772 -0.23346,21.00239 -1.98388,2.7474 -2.01656,-6.24983 -2.02194,-6.82396 z m 22.78456,13.21761 c -3.89039,-2.84706 -0.16908,-13.36569 -3.49826,-14.2534 3.11016,-1.78477 -1.99531,-4.95744 3.66,-2.27657 9.47561,-6.49414 4.27711,9.28113 4.60568,14.41431 -0.40426,2.34581 -2.7962,3.06379 -4.76742,2.11566 z m 18.20661,-11.43168 c -2.13427,-1.43383 -2.27601,-11.67115 -0.5439,-14.1518 0.16671,6.80931 2.13128,2.21057 2.07009,-1.41392 2.22898,0.10839 1.21894,6.65237 1.3822,7.69006 0.38649,2.35757 2.41068,10.99994 -2.90839,7.87566 z m -55.05421,-1.5698 c -4.44719,-5.66587 -0.7596,-15.56669 -1.90696,-22.74693 -0.66941,-6.52882 7.0203,0.4203 4.78071,4.16194 -0.20036,5.91244 1.19769,12.1743 -0.27127,17.82016 -0.64508,0.70939 -1.69069,0.90874 -2.60248,0.76483 z m 105.16284,-13.78116 c -4.57359,-1.9261 5.6175,-0.26628 -0.33038,-2.25202 -5.49584,-0.93851 -14.55326,-0.57728 -15.86998,1.75565 -8.35511,-2.6527 4.26551,-11.16277 8.90929,-10.69509 5.44931,-1.16298 21.87535,11.38577 7.29107,11.19146 z m -68.03318,-3.95005 c -2.49678,-5.01004 0.43956,-13.10869 -1.2858,-15.36801 3.62656,-6.60412 -5.53503,1.02378 -6.40949,-3.2325 3.03817,-2.01554 2.97423,-4.84369 4.86234,-2.56948 5.03253,-3.89004 -9.2425,-2.3615 -10.19179,-4.46746 3.28756,1.57251 2.63231,-4.70104 7.4443,-2.12338 0.97708,-0.44899 -3.00029,-2.92218 -1.52268,-6.49821 -0.2131,-5.70298 -0.24013,-7.2737 -3.74974,-10.30121 -1.41355,-1.90866 1.56435,-3.93332 -0.60296,-3.05337 -0.38627,-3.58512 -3.03775,-3.03259 0.44468,-6.0621 4.15076,-0.39434 0.65546,-6.86023 2.11981,-9.7167 -1.04682,-3.60931 -5.64171,-9.74461 -1.0266,-4.61357 2.14544,-3.14698 0.43541,-8.30131 -2.9534,-6.49358 2.98709,-4.65351 -2.12182,-4.82139 -4.34917,-5.68609 2.25688,-1.17046 2.85402,-0.72067 0.10201,-3.89665 1.76127,3.0207 -3.637,3.25514 -0.53348,0.0859 -3.76038,0.99719 -3.41516,0.40893 -3.04885,-0.61426 -1.28008,-1.88449 3.45621,1.38375 0.36099,-2.42191 -2.65492,-7.13956 4.44075,7.49874 1.95148,-1.69734 1.06899,-4.22374 1.31783,2.86496 3.18221,2.15505 -2.50611,-3.20594 0.23958,-7.07696 -0.14409,-1.41914 2.08705,4.52989 -0.55596,-5.48816 1.80783,-0.98581 -0.77886,-3.79542 -1.13874,-3.14391 0.6237,-1.37047 -0.59892,-1.58813 -0.0548,-3.11992 2.3694,-5.01695 4.1625,6.61871 1.671,-8.76641 1.37146,-8.90576 4.21812,-5.7067 9.27667,0.41451 4.89585,3.31876 -1.02662,1.71349 -4.5865,9.64441 -0.8082,7.11383 1.99188,-0.90821 -0.50084,10.43578 0.83144,8.75157 2.29421,-2.63637 1.75399,6.80499 2.373,0.1576 -0.15078,-3.55759 -1.44362,-7.35424 2.11368,-7.6214 2.42618,-4.85789 -1.03958,-7.60959 -2.58327,-9.03005 0.53315,-2.10943 4.96946,3.85852 5.10371,-1.24116 2.31408,-2.19367 4.16425,-0.93716 5.70044,-2.40784 -0.99654,4.66142 1.45075,2.74599 2.84674,1.56345 2.82522,2.41013 1.17552,4.20422 -0.0878,2.93257 -0.4331,5.11464 1.58952,5.90691 1.49814,3.83688 -1.99218,3.21605 -3.69941,9.39209 2.47654,6.27465 1.10749,-0.60883 4.09235,-2.42505 5.70653,-3.38432 2.79055,7.38654 1.24049,-0.0682 -0.0548,-3.57622 4.69882,0.54829 3.35967,5.57097 5.20515,2.71116 3.81269,3.07332 12.38577,5.78588 13.51902,8.8801 -2.90566,-1.53946 -12.13743,7.38775 -5.803,5.36382 4.15896,2.9835 2.78007,-0.97678 7.9296,-1.67732 6.54451,-1.49654 -4.59933,-2.43533 0.35334,-3.6668 0.55643,-8.63932 11.50962,-6.92588 17.28743,-5.88907 3.28493,-1.6348 4.91742,3.66301 3.9028,6.72064 -0.70312,5.87933 -9.9226,1.25203 -7.54156,-2.61387 -2.68137,-2.00543 -8.53112,-4.87434 -4.64087,-0.34799 -3.6618,4.15603 -1.04827,7.3052 -1.27281,11.94445 0.69106,4.81 0.34902,8.11683 -4.35171,9.49832 2.65304,1.95523 5.75013,0.27914 3.84916,5.39668 -0.0517,-3.88002 -1.35679,-2.7702 -3.36449,-1.76997 -4.21186,-1.4418 -7.47286,4.30232 -11.79808,5.85169 4.44618,-2.54964 1.45416,-6.33045 -0.63638,-8.24881 -0.91131,-3.90719 3.88456,-0.90688 1.51875,-5.57243 2.85363,-4.64806 5.04192,1.67323 5.74626,-1.19876 2.4141,-0.63824 5.46056,-8.0578 0.90557,-9.28094 -1.74433,3.00986 -4.21659,4.40352 -2.12445,6.2615 -4.0092,-2.7 -6.98381,-4.59465 -10.24605,-4.50678 -3.52459,0.66281 -1.44804,8.20962 -4.11383,1.59699 -3.73963,-4.15234 9.06777,-11.71048 0.696,-11.30048 -3.13001,1.44861 -11.71272,4.69063 -5.37994,7.3322 -5.79347,9.12438 -1.30058,-12.10969 -6.33354,-3.35151 0.25862,4.29456 -0.70995,7.17802 -3.05334,5.7214 0.25968,5.94497 -1.46592,5.86012 -1.946,8.99331 -0.48985,5.50825 -0.22013,7.57415 1.7885,9.80346 -0.56228,3.2731 3.31235,4.4102 0.54882,5.29167 -3.22863,0.18193 3.11909,15.41177 -3.175,14.10911 -2.8928,3.47409 -0.79869,7.70233 2.55421,4.38388 0.38898,3.74843 -4.69862,0.88209 -3.90176,4.98377 -2.40694,-5.41963 -2.28204,7.89505 3.17502,4.88142 2.96768,1.79466 0.89787,6.02278 -2.67996,3.44481 -1.13771,0.60373 -0.95279,2.92821 -0.87147,5.75182 -4.31128,2.12786 -0.64104,5.8646 -2.9508,8.83518 0.51448,3.5307 -0.52617,15.21066 -0.5321,5.65854 -0.43446,-3.25969 0.70046,-7.832 -0.45981,-10.44524 -4.37007,1.16789 -0.6309,13.34846 -2.6368,14.03872 z m -36.23632,-31.51819 c -0.14199,-2.10048 4.6562,-5.47028 2.7808,-6.72221 -1.9881,-3.31838 -5.38625,1.78625 -3.721,4.82315 -0.90677,-3.99193 -3.87527,1.826 -4.56078,-4.49792 1.04575,-1.7354 10.4268,-5.62502 9.90957,-0.0265 3.19551,-2.75849 6.57562,2.02205 5.29015,5.73492 -4.37183,0.0665 -2.10988,0.22829 -3.14063,-3.26488 -4.49162,-1.92589 -3.17362,-0.37272 -1.17683,0.89676 -2.18318,5.74361 -2.95754,-4.48724 -4.37509,2.58446 -0.43621,0.0496 -0.3606,1.63512 -1.00619,0.47218 z m -11.80925,-41.44798 c -0.006,-2.95243 -0.0112,-5.90486 -0.0168,-8.85729 2.47953,-2.08677 10.60872,-5.55425 4.11069,-1.70404 -0.28178,4.42868 2.02888,10.94621 1.6124,13.42096 -1.24136,1.49503 -2.44001,2.4277 -2.79604,2.44348 0.2534,3.16899 -3.75908,1.26061 -1.59426,2.99658 -2.63896,1.84399 -0.6364,-7.16235 -1.31599,-8.29969 z m 111.31625,8.1529 c -1.00818,-1.40365 -8.4815,1.41773 -6.36455,-4.55928 -2.03517,-5.2884 8.35538,-1.94793 6.02888,-4.63358 -6.88248,-3.26764 -0.0855,-9.31481 4.35166,-7.0408 2.36759,6.29253 8.96637,6.24203 3.24506,12.25525 -2.16616,3.29586 -6.13293,3.49633 -7.26105,3.97841 z"
         id="path20" /><path
         style="fill:#479f29"
         d="m 697.72017,416.18265 c -0.28124,-4.31886 -3.01775,-5.11941 -5.61291,-1.16824 -4.16347,-5.2957 -1.6321,0.90174 -4.23394,-0.44256 -1.09167,0.59348 -7.62776,1.16091 -8.51665,-1.28482 -3.62865,0.0569 -4.38929,-1.29014 -2.76392,-4.80442 1.71467,-3.45892 6.7266,-5.09211 9.67133,-3.23051 5.60659,-4.30598 -1.36756,2.46627 -1.95166,3.13191 2.38263,4.60764 4.70759,-1.77906 3.56304,2.86495 1.89805,-0.40875 7.45369,-2.11511 6.70755,0.24519 3.37779,-1.67098 4.14226,-0.62222 7.26606,-0.0212 1.21879,0.40935 4.05554,-0.11885 3.05305,-2.20892 2.33288,-0.45672 -8.22072,-1.44185 -10.44751,-2.23782 -2.48496,-5.27536 -11.28399,-4.51044 -13.86914,-5.62122 -3.23065,-1.02445 -4.48344,-2.93056 -2.67948,-3.08777 2.17778,2.133 4.58526,0.2395 8.08171,2.08954 -4.89109,-3.64863 4.23336,-1.14792 -1.8233,-4.90693 -0.20592,-2.5489 -6.78748,-5.70605 -7.23065,-1.67224 -2.93574,-0.86656 1.08012,-4.88935 0.42438,-5.22781 -1.21425,-2.28289 6.02719,2.72266 4.87026,2.27052 3.67805,0.68583 5.11455,1.40792 6.21749,4.33032 -0.94142,0.0828 4.03167,-3.00692 1.83203,1.9353 0.68066,5.46085 0.11625,-0.58919 -2.41238,3.09323 2.67997,5.48989 2.87958,-0.65188 4.17362,-0.74206 0.52298,0.69644 1.74611,4.22478 1.96337,4.94671 5.71872,7.83962 -0.61309,-6.38412 -2.30105,-9.3935 0.9873,-1.20705 2.30855,1.54618 4.69165,0.79902 -0.2882,4.38839 2.89517,1.51837 1.58899,7.54569 -1.68979,7.53163 1.04983,1.87444 2.35431,-1.94292 2.45933,1.07262 -1.84535,8.78106 1.86333,2.6476 -0.65021,1.03092 1.00657,3.10243 0.58808,1.84126 3.95295,-1.02709 6.31343,-1.39057 1.45786,0.22822 3.40476,2.0521 6.52654,1.07095 7.55072,0.94513 -0.5506,-1.79664 4.64585,1.42629 3.10834,1.86839 3.37702,-0.61775 -0.76714,2.06485 -0.39215,1.68987 0.18197,4.24913 -9.55428,-6.14424 -4.93446,1.36473 1.53007,4.95169 -4.04229,1.84759 -2.34635,0.59646 -3.02003,0.15583 -4.03255,-0.52192 -5.61838,1.81075 -1.77888,-1.14149 -0.7433,2.29964 -3.1546,-2.1545 0.51805,1.03753 0.51124,6.71839 -0.73864,3.90262 z m -66.86963,-4.52036 c -0.33257,-2.56989 -3.66943,1.87743 -3.44847,-2.72962 -1.25252,-0.58187 5.76681,-3.03971 0.58946,-3.97325 4.39375,-0.92468 -2.65135,-3.40448 -1.07297,0.83837 -2.06507,-0.82302 0.0528,-4.26934 -1.87202,-5.74134 2.03575,1.30635 1.54612,-3.29153 2.29406,-3.69811 -1.52512,1.51758 -0.74074,-4.71778 0.3082,-1.14388 0.59437,-2.98498 3.34308,5.37194 2.89413,0.0939 2.97254,4.64135 3.56361,-4.8551 2.44788,1.94827 -3.19055,2.08858 -6.79368,-5.17512 -3.81155,1.3396 1.86937,2.0197 4.27259,-0.6458 2.38277,2.1773 3.07049,4.2571 4.37424,-0.72212 6.48078,-1.72276 -5.2007,4.66626 3.45528,1.44081 -1.51056,5.11386 -2.19394,1.76153 0.66034,7.00419 -1.42553,1.89001 0.64443,-6.80782 -4.80861,3.70328 -0.96648,1.1697 1.41542,2.96735 8.76182,2.61255 1.70479,2.74558 -0.58615,-5.35387 -5.02639,4.17103 -4.99449,1.69236 z m -21.25385,-25.06067 c -5.18983,0.7795 -8.0741,-7.81021 -10.48814,-3.29347 -2.68361,3.71377 -8.93848,-0.92298 -2.00609,-1.90368 2.6856,0.82425 10.91859,-0.40675 8.53524,-3.91742 -3.32399,-0.49562 -2.6688,-0.97069 -0.91691,-1.71884 -1.00572,-3.29936 2.9287,4.57581 2.49774,-1.31127 0.43471,3.10784 -0.29948,3.18185 1.153,3.03943 1.97355,1.42709 1.86513,4.27421 -0.59487,3.57961 -4.09267,2.27804 4.83499,5.60775 1.82003,5.52564 z m 24.27055,-5.30816 c -0.12654,-4.51207 -10.86838,-3.35329 -5.12736,-5.06787 -5.71551,-3.17222 4.95944,3.35253 0.12423,-2.00634 -1.37416,-5.22028 -0.50606,-1.50666 5.10859,-1.39953 1.95056,1.95413 7.05474,1.68707 3.25533,5.06238 3.31002,-1.1667 -4.36956,5.69433 -2.01132,-1.45319 -0.66084,1.4299 -0.58581,3.76643 -1.34947,4.86455 z m 52.07658,-2.15171 c -0.26207,-4.09991 -0.0658,-8.21424 -0.0696,-12.32046 -3.67507,-1.42848 2.56918,-0.0456 -0.0591,-2.37915 -4.59487,2.99666 -1.03527,-1.93881 -6.03587,-0.63501 -2.59709,-1.89264 -0.002,-0.56443 1.80282,-4.42615 4.08339,-2.21375 0.89591,-0.69193 3.92862,0.64392 2.60531,0.97291 -4.31134,5.95607 2.01217,3.6992 3.37705,1.9168 7.70138,-0.51449 6.74381,-2.0394 1.97433,0.0637 2.10829,-3.37148 0.39688,-4.15295 5.8646,2.47005 -4.1529,6.6982 3.24853,6.35238 2.94943,1.85979 -3.6832,3.65527 -3.15547,2.51141 -0.66431,3.71778 -3.4612,-5.60862 -4.8292,0.0767 -5.71114,-1.31578 -2.50198,5.26191 -3.22283,6.69665 -1.51347,7.24508 4.59801,-4.26062 0.92253,3.42525 -1.2292,-0.0161 -0.80448,3.87817 -1.68328,2.5476 z m -81.75585,-42.98719 c -2.30146,0.15631 -5.79292,-5.67059 -0.32398,-5.05341 4.33094,-2.31286 9.1104,-0.67304 13.62981,-2.94031 0.39713,-0.55519 6.34906,-0.9387 4.06955,1.36202 0.0285,2.86449 -5.55108,1.35056 -0.95028,2.94306 -2.44966,-0.0116 -2.87244,1.6268 -5.47182,2.15922 1.15106,2.35209 -3.69054,1.34516 -3.23774,0.32995 -0.52502,-1.10699 -2.96177,1.42019 -5.38886,0.92679 -0.73314,0.1302 -1.79468,1.50989 -2.32668,0.27268 z m -1.20254,-15.31023 c 3.32206,-2.16881 1.78039,-1.55911 -0.79204,-0.83772 1.68114,-2.21811 5.28488,-5.663 5.66386,-2.147 4.11407,-1.38468 3.34077,-1.99713 5.51309,-0.71851 3.14127,-0.86903 2.83808,-3.10952 5.73683,-3.80412 1.88176,-0.13549 5.01696,1.16138 3.72222,3.03164 -0.4932,0.88984 -5.77477,3.15182 -9.525,3.66748 -2.7335,1.283 -6.02026,-1.70565 -7.22616,0.27085 -2.51928,-2.13378 -1.71229,0.70918 -3.0928,0.53738 z m 55.65334,-4.38124 c -2.70956,-2.17796 -5.47431,0.31366 -7.63676,-1.10747 -2.68313,1.1022 -6.62788,-0.40779 -8.48072,-1.28035 1.87108,-3.80384 9.6226,-5.83851 14.57144,-4.18968 5.62673,0.6209 2.85423,5.96789 1.58047,6.88677 l -0.0344,-0.3096 z m -27.05468,-7.92973 c -4.48102,-1.55246 -9.32777,-0.61832 -12.42526,-3.605 -0.48472,-1.61019 -8.77501,0.12216 -5.21837,-3.39545 2.37799,-1.14618 4.89928,-3.87571 7.675,-3.21655 4.4972,-0.50239 -4.72971,1.0524 0.94914,1.76418 0.29341,2.58919 3.77427,1.50468 6.27228,1.81853 1.63925,-2.88461 3.70305,4.22113 7.35377,4.41478 0.24976,-1.05917 0.90456,-3.00453 -0.33962,-4.28184 1.34996,3.64093 4.80529,-2.21829 1.26343,-0.5931 2.39513,3.4001 -3.364,-3.78508 0.41286,-2.00426 0.0785,0.37402 5.93574,2.40596 4.33647,0.65202 -2.27827,0.0174 1.46373,-1.13585 2.30147,0.67088 0.88898,-2.39628 0.74329,-2.3636 2.0179,0.15736 3.37719,-1.24129 6.49782,1.76191 7.79727,1.80172 2.55746,0.74879 2.8524,3.05047 0.21307,2.80344 1.89524,2.59159 -2.2886,3.64119 0.10535,1.60868 -3.66803,2.03283 -4.61438,-0.13468 -8.51714,0.10913 -3.24185,0.59062 -7.05346,2.03836 -8.6691,0.72958 -0.99164,-0.48594 -4.01989,2.5017 -5.52852,0.5659 z"
         id="path19" /><path
         style="fill:#093230"
         d="m 667.90717,434.83184 c -10.10365,-6.0618 -20.9411,-11.57197 -30.52591,-18.05072 2.2982,-2.269 7.33021,0.42483 9.53166,-2.1967 1.04529,1.38478 3.55595,2.615 3.70981,0.47592 2.55043,2.17519 7.19536,-3.52263 4.77459,-3.6124 -1.36182,-2.73996 -1.69724,3.16615 -2.91239,-1.95744 4.49895,-0.29125 6.95333,0.69536 5.51515,-4.39768 4.14057,-0.31355 8.49638,3.19107 2.73058,5.75844 -0.61077,3.72418 8.52776,-2.01433 7.11108,1.54306 -2.52529,5.28467 2.20998,2.05292 -0.34508,8.28223 -1.3146,3.73243 2.1354,14.19453 1.50204,5.1953 -1.41776,-3.08567 2.07682,-15.50171 2.60062,-7.57461 -0.0139,3.28073 -0.14725,16.44225 0.5553,8.59502 -0.28601,-6.49659 1.08405,-9.34047 0.88747,-13.99503 1.90648,-3.03952 4.52092,1.06983 6.55287,0.79788 2.33664,3.24935 5.08353,-0.006 7.82746,1.80985 2.17941,-0.3275 1.09578,-3.95921 4.86041,-0.6943 4.30075,-6.33388 1.77542,1.43825 3.50472,1.50188 1.09621,-5.77826 1.41237,-3.00786 2.40768,0.82598 1.83943,-3.07221 -1.22454,-6.79931 2.53708,-1.99964 -0.85314,-1.75485 3.74347,-1.92402 3.61644,-2.57648 5.93425,-1.48213 -0.56132,4.89337 1.82411,9.73785 0.6806,2.13946 -1.77234,8.04401 2.11667,6.54441 2.11117,0.56091 -7.1331,4.05406 -4.0507,-2.68668 0.47269,-4.68231 0.65316,-14.71637 -5.73892,-7.91549 -9.99963,5.36523 -19.56121,11.52505 -29.57215,16.85576 l -0.49414,-0.0156 -0.52655,-0.25095 z M 626.26288,409.9911 c -9.58355,-2.43986 -4.75786,-13.13459 -5.71025,-20.20665 0.49346,-3.10556 2.52224,-2.99972 0.77981,-0.74762 2.59248,-1.36167 0.25137,2.55204 5.07634,1.27355 -3.50489,2.09838 -5.84246,1.91629 -0.71005,2.44038 2.61015,3.16971 1.33373,7.48143 -0.95808,7.87648 3.78971,1.52725 -1.80788,8.776 2.53551,3.11376 0.14638,-1.7797 4.32163,1.29747 0.72412,1.47234 5.85689,0.97625 -3.61698,3.1347 -0.14807,4.21305 0.33526,1.29702 -0.94365,1.35597 -1.58933,0.56471 z m 88.37671,-1.15064 c 0.17537,-3.67907 -10.41069,-4.004 -12.90829,-3.11726 1.0631,-6.79143 14.95541,0.32899 14.04844,-3.62961 -5.16069,-3.74421 -10.63639,-1.99341 -12.91712,-5.47675 -3.51397,2.52013 -4.83749,-10.84892 1.48853,-7.59477 2.53287,-6.26227 -10.51244,-7.2939 -11.92996,-0.55452 8.15696,-2.41887 5.42293,11.15264 0.32061,6.53933 6.07387,-2.49555 -2.01526,-3.40477 -2.36212,-6.88094 -1.47015,-5.38572 0.32135,-3.61613 4.95012,-4.90167 -1.9384,-9.53886 -17.96263,1.72067 -6.37574,1.20838 -1.21786,1.97234 -1.06971,13.02662 -2.62495,5.24113 -0.94845,-3.21392 -0.0564,5.61067 -2.72742,0.91043 1.24024,-4.27418 0.73097,-5.71225 -0.61615,-0.73359 -1.51905,4.80208 -0.16853,-12.11418 -1.38387,-1.91224 -0.64593,7.62102 -3.46308,-6.44262 -2.10024,-8.95387 -0.83292,-2.68993 -0.77247,-7.32182 1.1963,-4.90711 1.33611,-3.71022 -2.32356,-1.37027 -1.46585,-6.64154 -2.82251,1.30558 -2.31023,-12.45326 -0.54726,-10.1647 0.0149,-4.44144 1.70216,-10.58119 2.94785,-6.42277 -5.41053,6.45759 7.29981,0.72789 5.45795,6.85859 -5.29634,-2.01109 -10.72415,7.66266 -7.92053,6.52343 3.57072,-1.39124 3.73988,1.16614 6.69935,3.09981 0.11088,4.03022 -0.44087,8.22341 0.28954,12.13577 1.24254,-3.09946 4.5259,-8.38328 0.48228,-3.6052 2.15776,-3.57293 -2.35702,-7.87924 1.33438,-9.33803 3.26661,1.01733 3.37032,-4.88146 5.39553,0.3405 0.20282,0.38428 8.75359,-0.80388 5.68296,3.36861 -6.1751,1.3831 -5.77594,7.07626 -0.17263,6.18644 2.37683,4.08671 5.92422,8.83741 7.30454,2.09828 3.13954,-1.68729 -2.70942,-2.16654 -3.00657,2.52824 -4.41769,-4.78738 -2.20912,-7.74518 1.81989,-10.63751 5.32788,-4.99415 8.55143,2.27571 7.17657,6.46114 -3.69726,-4.24549 -1.21054,9.28015 0.50599,5.13346 -2.86235,6.17528 -0.46055,1.11388 3.01572,0.85394 -4.20942,0.33983 1.47699,-6.04861 -0.25406,-0.51195 3.6621,-4.9187 3.3655,3.96809 1.58745,2.49157 -3.45136,3.19472 4.18102,0.98265 0.91387,5.34709 -1.07686,5.82486 6.90432,4.67509 0.65218,8.47642 -0.67669,3.27237 2.12669,10.81997 -3.95729,10.18147 z m -55.82708,-7.90182 c -2.66601,-2.6221 4.07206,-14.71654 -2.84427,-8.67187 -3.28152,4.07763 -1.84695,0.90346 -3.24302,0.43504 -2.24117,0.4287 0.45278,-1.54218 1.33373,-3.31894 1.7917,-1.41422 2.70256,-7.26949 -0.26988,-8.06536 -0.95688,-3.54826 1.6177,-4.73656 -2.25266,-2.38279 3.30696,-7.17969 -6.44034,4.58065 -3.87416,-3.61914 -0.95886,-2.50868 -0.48345,8.8462 -3.80794,1.59715 -4.73625,0.029 6.2192,6.31507 -0.95226,4.17536 -3.03831,1.89991 -9.57638,0.39205 -3.04963,4.43573 1.45823,-1.87431 -0.38883,5.10872 1.67039,0.0271 -0.90525,-0.28245 0.31852,-4.39379 3.5798,-2.31305 0.29779,4.2627 -0.60475,10.78927 -0.66273,2.59333 -2.31629,-4.09627 -0.65177,9.67034 -5.5686,3.84031 -0.11895,0.58207 -2.8777,3.99099 -2.74693,-1.02598 -4.41487,-0.80224 -9.78081,4.10463 -13.33328,-0.68551 0.33346,-2.72775 -2.49336,-3.01056 -1.37939,-7.56106 2.1631,-1.5474 6.47982,-5.55049 8.97066,-1.94763 2.22918,2.62469 -9.75022,3.10574 -2.36784,3.45723 4.10611,0.21088 7.31421,1.41655 3.37564,-3.19016 3.77182,4.82012 2.73448,-0.73049 4.08256,-1.93191 -1.37125,8.35209 7.30774,-3.51613 1.9614,-2.14782 -1.17429,-0.30903 -6.57886,-2.96269 -2.48353,-2.76816 3.95048,-3.20751 -2.69168,-6.85224 -3.6612,-0.71743 -3.39114,-0.18218 -4.28307,2.023 -1.1039,5.46572 -4.15024,-2.16076 -7.00026,-4.4092 -9.57114,-0.31536 1.37159,-1.57396 -0.12243,-6.20151 1.15963,-6.72227 -2.94727,-1.74334 0.58241,-6.09608 3.48575,-5.50307 -3.16283,-1.04369 -2.1403,-4.48164 -0.84506,-2.54258 1.86443,-2.43935 1.43357,-2.13747 2.40523,-6.04406 1.14441,2.386 4.604,6.13347 0.8365,4.07037 4.17764,4.21701 7.61641,3.91839 9.1172,10.07827 2.16581,0.0796 -0.88002,-7.23256 3.21763,-1.53926 3.89978,2.99196 -0.98964,3.13833 1.45169,6.70562 4.48275,0.019 4.65137,-2.23059 0.90706,-2.44009 -0.81522,-3.80285 6.27407,-0.0953 2.11585,-4.9213 0.25642,-3.46574 1.51046,-6.98579 2.29058,-1.39729 -1.85446,5.73765 0.11828,9.57575 4.32765,4.0975 2.48532,-0.49554 -1.97968,-9.42786 -1.50746,-2.97656 -2.65029,-3.59769 2.55931,-10.00648 -5.05185,-7.94057 -3.20936,0.58569 -3.86673,6.02349 -3.54673,0.0708 -3.0782,0.33532 -8.08572,6.922 -5.27883,1.73691 -3.18692,2.54021 -5.09137,0.50441 -2.10874,-2.37063 3.05245,3.55406 8.30272,-1.0787 5.991,-5.24944 -2.33981,1.42777 -0.54475,5.932 -3.06316,1.0875 1.33887,-3.20777 -6.79851,0.15722 -2.63987,-4.45204 1.86842,7.0531 8.63558,-5.52143 0.21281,-1.94235 -2.41273,-0.34586 -1.86098,-4.56497 -4.72781,-3.19674 -2.7227,-2.05857 5.57206,-5.62214 5.35652,-3.47312 -1.44785,0.41894 2.13758,1.81164 0.39475,-2.10558 0.56506,5.94854 2.95205,-5.00984 7.34433,-3.91461 -4.40138,5.11832 2.67362,13.2065 8.32873,9.90689 -2.23258,2.9707 -9.6234,-0.0706 -2.43816,2.11957 1.76643,0.88511 -0.55639,10.04805 -2.71531,3.13019 -0.21577,1.86195 -7.37805,-0.61324 -0.16509,1.33455 3.5733,3.04164 6.59601,15.85798 5.80248,7.05671 -1.35873,-1.54125 4.04798,-4.16223 3.72155,-1.37985 -0.62494,-3.44708 6.17077,-4.432 4.32183,1.16585 0.66367,7.27665 -5.74769,-4.75267 -1.69908,3.45524 3.31507,4.0129 2.13893,10.48513 0.30271,13.66357 -2.84844,1.04662 -2.57788,3.31831 -1.18022,3.99739 -1.29498,3.95168 3.25139,0.14037 0.33818,4.04681 4.34709,4.04227 4.26665,7.56344 4.33696,14.50727 0.0689,2.48223 -0.86338,2.60779 -2.60107,2.51567 z m 43.66512,-31.32625 c -1.64776,-6.09296 -3.1869,-4.84621 -8.02026,-6.93706 6.57966,-2.73939 -3.78012,-8.41564 -6.19953,-4.63838 -2.74555,-5.30676 4.2518,-2.48489 4.80311,-1.21504 1.26713,-2.27404 7.24219,-1.77342 8.79487,0.57716 1.76881,3.62899 -5.61131,0.18265 -2.13697,4.3671 -3.13864,5.28502 3.09432,-4.14373 2.57268,2.17076 -1.45721,0.12932 6.09582,4.98746 0.1861,5.67546 z m -89.65139,-27.80037 c -5.44919,-0.20321 -10.12271,-0.87216 -13.5882,-3.84184 -2.16737,-2.75642 -0.0493,-4.07495 1.55873,-4.91031 1.44765,3.53112 4.43059,3.58008 7.59112,2.71849 1.06064,-1.13416 3.22858,0.16202 3.17017,-1.57711 0.42849,2.6628 1.82726,1.16222 4.12378,1.87161 -0.62122,-2.59096 3.31693,-3.13772 4.93168,-3.60717 -4.47247,-0.55262 0.56885,-2.82642 3.53905,-1.63591 6.05438,1.77593 2.23675,6.27254 -2.06406,7.57674 7.71871,5.96957 -6.93099,-2.62557 -8.20145,2.53381 3.46669,1.59321 0.82768,2.38092 -1.06082,0.87169 z m 17.28918,-12.34494 c -2.23712,-1.97829 0.0867,1.07062 -3.21094,-1.70002 -4.25239,-5.3361 -7.93528,-1.55556 -14.20926,-2.50161 -3.80239,0.40179 -12.82691,-0.0627 -8.7873,-5.30204 3.00728,-0.5047 4.21065,0.0657 7.52601,0.23008 3.38027,-0.6786 9.10759,-0.76212 10.33185,-3.82436 2.47543,1.62543 -0.94047,-4.63662 3.60485,-0.82517 7.8194,3.06752 -1.46548,-4.44033 -4.28785,-4.80206 0.32401,-5.40327 -10.16694,-1.10236 -4.77568,-6.71017 3.41852,-0.0885 5.08447,3.42002 9.28485,3.42668 4.55805,0.87105 8.40742,1.62732 12.77789,0.89327 3.39579,0.97837 7.77166,-2.66517 12.20442,-0.30644 -0.0453,2.9946 -7.95242,3.16592 -8.37957,6.14786 4.15129,1.07943 6.48234,2.54162 10.37092,0.61936 0.0239,3.00134 8.10743,-1.39551 4.8095,2.4823 -0.89277,0.95601 -8.49777,3.67333 -7.72116,4.08627 -1.2232,-2.20753 -5.66221,-0.30765 -6.84765,-1.00322 1.29943,1.87695 -6.15202,11.89173 -2.86594,3.19251 3.68336,-4.41039 -7.6455,-2.39229 -2.34387,2.1393 1.47491,1.72772 -1.52567,6.36291 -5.6515,4.79877 -0.57339,0.77606 -2.00761,-0.0124 -1.82957,-1.04131 z"
         id="path18" /></g></g></svg>
