<?xml version="1.0" encoding="UTF-8" standalone="no"?>
<!-- Created with Inkscape (http://www.inkscape.org/) -->

<svg
   width="57.81057mm"
   height="86.013504mm"
   viewBox="0 0 57.810569 86.013503"
   version="1.1"
   id="svg1"
   xml:space="preserve"
   xmlns="http://www.w3.org/2000/svg"
   xmlns:svg="http://www.w3.org/2000/svg"><defs
     id="defs1" /><g
     id="layer1"
     transform="translate(-153.58312,-212.81222)"><g
       id="g47"
       transform="translate(-7.593344,-101.6543)"><path
         style="fill:#58e7d6"
         d="m 227.54288,298.44306 c -0.66723,-7.17614 -1.32399,-14.35673 -2.3125,-21.49739 -2.73801,2.04498 -5.23142,4.39043 -7.69996,6.74687 1.95471,-3.60771 6.35248,-7.91493 6.21013,-11.42892 -3.94171,-0.14048 -7.44273,2.20267 -11.01953,3.55924 -1.15685,0.79963 -3.95875,1.70166 -1.5216,-0.13339 2.6705,-2.9399 8.84444,-4.64332 9.84738,-7.60972 -2.15322,-2.49817 -7.77733,-3.77543 -9.16307,-4.88036 4.22824,-0.2857 8.33466,0.67724 12.41902,1.62715 2.73233,-0.32471 1.60069,-5.68772 2.48738,-8.15141 0.2845,-1.97447 0.81968,-6.49853 1.32808,-6.78142 0.47792,5.14297 1.14465,10.2772 2.25181,15.32579 4.66689,-1.22745 9.47239,-2.27602 14.32792,-1.98479 -3.11897,1.21082 -8.99261,2.58223 -9.50192,5.63883 2.43738,2.4545 5.75606,3.8147 8.39727,6.05513 1.48214,0.78517 4.00169,3.27177 0.82294,1.43437 -4.00082,-1.85425 -8.13093,-3.49348 -12.44789,-4.4444 -0.10759,3.96877 3.41767,6.77916 5.18024,10.04498 0.87714,2.07061 -2.96339,-2.10939 -3.73847,-2.73339 -1.20515,-1.85703 -4.01621,-2.47304 -3.36567,0.67935 -0.807,6.81457 -1.34066,13.65806 -2.13724,20.47377 -0.40479,-0.57033 -0.22889,-1.29823 -0.36432,-1.94029 z m -16.50496,-38.2766 c -6.0643,-0.74364 -11.05854,-6.1357 -11.66301,-12.16212 3.24898,-3.46813 7.9063,-5.08086 11.76899,-7.72126 3.37683,-2.57713 8.46842,-6.26593 12.30393,-2.31385 2.39996,1.42173 3.32958,8.38801 -0.60051,5.19529 -3.97713,-1.80939 -8.63002,0.88392 -9.57467,5.00749 -1.29758,4.59307 1.4095,10.27222 6.25357,11.33202 0.16547,2.0043 -6.89278,0.56625 -8.4883,0.66243 z m 24.99199,0.13355 c -1.08656,-1.40866 4.9761,-1.2938 4.8751,-4.01126 2.86352,-3.93558 2.36827,-10.57784 -2.24934,-12.97827 -2.87389,-3.63262 -8.95535,4.65466 -8.60819,-1.48962 0.70634,-3.80558 5.70827,-7.16541 9.33783,-5.30673 4.96735,3.3346 10.30154,6.1159 15.18654,9.5868 4.58397,2.1494 -0.37553,7.89524 -2.33607,10.49872 -1.20996,2.10629 -7.39203,3.86715 -7.08088,3.09283 1.35614,-2.25755 -0.28068,-1.47142 -1.10971,-0.0955 -0.59634,0.36112 -0.25967,-1.39875 -1.00138,0.26361 -0.9915,0.76244 -4.92673,0.54127 -7.0139,0.43943 z"
         id="path51" /><path
         style="fill:#2e937b"
         d="m 257.06503,272.15315 c -0.60537,-2.42045 1.31591,-6.45334 -1.49737,-7.47769 -5.20221,-2.17059 -10.96704,-1.21729 -16.41206,-1.42492 -1.62871,-0.5172 -5.60328,-4.0433 -1.54934,-2.76125 2.47964,0.0548 7.37047,-0.17725 6.97258,-2.34681 3.45592,-0.78898 -2.0484,3.06533 1.29491,1.67836 5.24647,-0.5885 8.98801,-5.19908 10.20608,-10.07683 1.61693,-4.0881 0.93732,3.70634 1.17566,5.41218 -0.0569,6.05572 -0.0711,12.11258 -0.15422,18.16744 -0.0435,-0.38854 -0.0162,-0.78092 -0.0362,-1.17048 z m -57.72891,-15.1263 c 0.082,-2.28813 -0.14498,-7.09294 0.13243,-7.78725 1.34017,5.5925 6.02305,10.47346 11.93889,10.92529 2.97906,0.85543 8.07564,0.0315 9.42629,-0.31085 -1.78328,2.79839 -4.88495,4.15589 -8.29901,3.48607 -3.74259,-0.0479 -7.5623,-0.15904 -11.19857,0.87775 -3.53685,2.65114 -1.49805,-3.95273 -2.00262,-5.69748 l 0.001,-0.74677 0.001,-0.74676 z m 26.17952,-14.68965 c 0.73575,-3.98762 -5.24665,-5.77562 -6.1231,-6.81579 3.01021,-1.88198 6.19031,-5.86829 9.93273,-5.05213 2.9799,1.62334 5.76256,3.60068 8.7106,5.29696 -3.94094,0.24387 -8.00059,2.83333 -8.08177,7.12008 -1.43119,0.0263 -1.79573,-6.5242 -2.78095,-2.23539 -0.23378,0.52798 -1.80245,4.55889 -1.65751,1.68627 z"
         id="path50" /><path
         style="fill:#1c5146"
         d="m 221.71425,306.38056 c -1.06024,-1.59118 -3.74913,-5.11306 -4.49982,-4.72438 1.56634,0.94552 2.82706,5.76355 0.35177,2.26932 -3.91186,-4.43614 -10.13604,-7.19722 -11.7544,-13.34847 -1.31844,-3.13734 0.50365,-8.88006 0.50565,-10.39742 -3.08862,4.79012 -3.25579,11.64578 0.78575,15.96396 1.67816,2.63975 5.58472,4.48348 6.75117,6.74786 -1.79556,0.12577 -3.93921,-2.62321 -6.44473,-2.71613 -1.9512,-0.36532 -5.57679,-4.61098 -6.48648,-7.66412 -2.66987,-6.76728 1.74416,-14.12424 7.56503,-17.58567 1.67286,-0.95655 6.19224,-3.60759 6.49935,-2.38966 -1.23061,1.6741 -6.27034,3.97244 -5.23571,4.88775 1.49626,-0.9031 6.8696,-3.54325 3.25282,-0.11877 -4.40729,5.53547 -5.20626,14.36844 -0.24127,19.82355 -0.44704,-2.97815 -0.35688,-7.83868 3.20042,-8.56291 -0.67848,3.01386 0.51112,5.51011 2.6539,7.63074 2.15109,2.73585 5.07485,5.30811 5.74963,8.84233 -1.00501,3.48304 -2.45592,-4.38263 -4.68876,-4.84132 -1.01773,-1.19137 -3.65168,-2.78273 -1.29631,-0.54438 1.28708,1.48153 4.74288,5.8515 3.33199,6.72772 z m 11.91433,-0.19843 c -0.002,-2.73481 4.709,-6.69207 4.16683,-7.53591 -2.45056,1.26296 -4.60372,6.22488 -5.86023,6.34478 -0.30803,-4.2732 4.32351,-6.57166 6.22728,-9.94859 2.12126,-1.56204 1.78765,-5.65617 1.9727,-6.57847 3.63912,1.09601 2.931,6.15364 3.17097,8.41259 4.76896,-5.62103 3.54151,-14.08853 -0.60948,-19.68197 -1.22228,-1.20607 -2.18373,-3.06487 0.30653,-1.40304 0.93502,0.80773 4.78114,2.08204 2.08433,0.0238 -0.89046,-1.20929 -5.71232,-3.14388 -4.57092,-3.97403 7.58257,2.05885 14.35275,8.28337 15.3112,16.34016 1.43631,3.31375 -1.43142,6.53653 -3.47075,8.97071 -0.85679,0.97723 -4.17989,4.45205 -4.14203,3.48204 1.91789,-2.46391 -2.86607,1.33223 -3.81279,1.53858 -1.914,0.89349 0.50369,-1.65747 -2.08154,-0.10401 4.56089,-3.12121 9.3212,-7.53445 9.35899,-13.49578 0.0109,-2.08458 -0.74883,-5.98893 -1.8552,-6.7847 1.43733,5.12241 0.52516,11.09437 -3.40436,14.90779 -2.5883,2.64468 -6.08449,4.7417 -8.72202,6.98165 -0.0214,-1.02059 2.62634,-3.8866 0.051,-1.77097 -1.27223,0.84917 -3.31785,5.02874 -4.12054,4.27535 z"
         id="path49" /><path
         style="fill:#0b1a18"
         d="m 223.92814,313.5392 c -8.08862,-4.96295 -16.20829,-9.87511 -24.34166,-14.76432 0.0519,-10.92174 -0.13715,-21.84612 0.17007,-32.7655 2.85201,-4.11921 8.81377,-2.36071 12.98732,-1.81428 2.78717,0.75527 7.82247,2.4563 8.19509,4.80615 -3.03485,2.37614 -6.83144,3.15143 -10.28454,4.63599 -6.52113,3.04555 -12.01665,10.29419 -10.07726,17.75853 1.00621,3.91083 3.79429,7.19862 7.1956,9.28825 0.40874,-2.13339 4.82408,3.35127 5.6873,1.81326 -0.34056,-1.28581 -4.82521,-4.02617 -6.29081,-6.21301 -3.33233,-3.89691 -4.23281,-9.66294 -1.80297,-14.25364 2.20452,-4.40996 -0.17197,2.13856 0.01,3.86693 -0.43102,5.01352 2.27296,9.70375 6.17513,12.67752 2.51813,2.16386 5.36731,4.04681 7.25187,6.84203 2.14979,-0.30066 -4.34406,-6.04568 -0.2733,-3.12598 1.0118,0.86221 4.14086,6.42403 3.22158,2.27528 -0.43794,-2.13737 -4.71563,-5.71977 -3.95953,-6.02702 2.90933,1.53662 5.1769,6.67267 6.28212,7.71819 1.00922,-3.84659 -3.02027,-6.60174 -4.91855,-9.45693 -2.6271,-2.0114 -3.48019,-5.74141 -3.61118,-8.31536 -3.03678,1.57867 -3.3586,5.31056 -2.77089,8.31334 -2.64196,-2.07638 -3.8368,-6.94883 -3.357,-10.60106 0.64758,-4.97695 3.25598,-10.35819 8.19291,-12.2393 1.79211,-1.25977 8.23741,-3.1516 5.39846,0.90985 -1.20822,2.82132 -5.26001,7.10621 -5.19554,8.71399 2.38944,-1.04728 5.46656,-7.16387 7.54295,-4.85946 1.06428,8.24551 1.52813,16.55428 2.54721,24.80481 0.64204,-4.73745 0.71988,-9.54019 1.36943,-14.28557 0.3957,-4.03492 0.77598,-8.07471 1.4035,-12.08179 2.58877,2.17644 5.04105,4.51832 7.7503,6.54902 -1.6467,-3.47778 -6.76354,-8.34216 -5.94987,-11.09276 4.68548,0.3212 9.94974,2.06593 11.81526,6.82095 2.82462,5.56364 2.73168,12.84954 -1.23779,17.85191 0.45974,-2.88258 0.32949,-8.60366 -3.22759,-8.52457 1.21277,3.25488 -1.25514,5.8087 -3.16228,8.16883 -1.98631,2.30368 -4.27229,4.57308 -5.08981,7.59808 2.04173,1.94869 2.44622,-4.14592 4.76464,-4.57059 1.30377,-1.46694 3.14202,-2.2584 0.90675,-0.0646 -1.26833,1.48804 -4.22745,5.41268 -2.95804,6.14029 1.20439,-1.43035 3.80377,-5.01543 4.55334,-4.614 -1.45203,1.05671 -1.24585,3.33476 0.26342,1.03339 4.95159,-3.3708 10.72116,-7.46792 11.29843,-13.96143 0.35192,-1.87406 -0.80219,-6.486 -0.26816,-6.73782 2.56553,5.19774 1.82947,12.00949 -2.57449,16.0018 -1.16486,1.28791 -5.09447,4.02124 -4.61555,4.02126 1.58306,-1.08908 -0.3265,1.77162 1.61464,0.29946 1.97398,-0.98721 5.77704,-3.85685 3.5784,-1.0185 3.08972,-1.99806 5.12323,-5.10552 7.37938,-7.92409 1.7015,-3.50854 -0.34771,-7.39416 -1.79775,-10.77524 -2.84887,-5.17338 -7.69242,-9.74878 -13.66743,-10.75755 -2.60643,-0.4958 -7.42897,-3.5346 -2.71684,-5.07296 5.79314,-3.59598 13.58772,-4.42765 19.637,-0.96679 -0.14474,10.90051 -0.13918,21.80267 -0.33451,32.70257 -7.3444,5.20127 -15.23543,9.5879 -22.80552,14.45197 -3.07776,2.1176 -6.27321,4.6106 -9.37002,1.14346 l -0.53319,-0.32294 z m -1.04019,-49.1964 c -1.59902,-0.49041 -6.89359,-0.78081 -3.32543,-2.9876 3.72207,-3.11211 -5.04106,-2.08167 -5.0449,-5.74413 -2.77061,-4.38864 -1.13549,-11.6801 4.43278,-12.82067 3.01789,-1.28899 6.70846,4.30365 7.6382,-0.58004 0.52036,-2.19983 1.88155,-3.32471 2.34353,-0.34007 1.0158,1.83974 1.76049,4.53886 3.54525,1.8804 3.45748,-2.64969 8.28798,0.0257 9.54255,3.74957 2.03563,4.74761 -0.92214,11.25364 -6.25972,11.88994 -3.33253,0.96327 5.68043,4.0732 0.97504,4.16569 -2.8804,0.86776 -7.93906,2.6142 -6.97031,-2.40332 -0.68556,-4.21397 -1.02771,-8.47897 -1.83027,-12.67469 -1.04912,3.50802 -0.81257,7.25718 -1.76396,10.78214 -0.24334,1.88213 0.2205,7.45836 -3.28276,5.08278 z"
         id="path48" /></g><g
       id="g51"
       transform="translate(-5.1824031,-93.03647)"><path
         style="fill:#fbf957"
         d="m 152.28493,270.97753 c -3.13091,-3.27364 5.46517,-3.81902 2.06425,-0.0871 -0.54022,0.52696 -1.51101,0.65417 -2.06425,0.0871 z m 6.03481,-4.03266 c 1.03476,-5.54904 5.46656,-9.59654 9.31514,-13.37482 2.56975,-2.42949 8.47316,-6.76952 9.56902,-0.98704 0.8049,1.96803 2.71897,5.15729 -0.97652,4.00159 -4.46046,-0.0627 -8.72049,2.15123 -11.2689,5.77535 -1.36887,1.35444 -3.3379,2.9907 -4.42596,1.66201 -0.96419,0.46606 -1.37654,1.88496 -2.21278,2.92291 z m -10.5797,-4.36166 c -2.99741,-7.9633 -7.76839,-15.15726 -13.34657,-21.54175 2.21752,-1.34732 6.62633,-6.59428 8.24698,-2.68375 3.08652,6.40887 4.44327,13.52408 6.31879,20.27497 -0.88714,-8.0989 -2.71457,-16.06781 -4.71515,-23.95684 3.05287,-2.91902 7.08032,-5.06338 8.78362,-9.15048 1.74348,-0.57519 2.58683,4.32037 4.76191,5.16125 2.47771,2.17196 6.17081,3.46143 3.95096,7.29259 -1.45064,6.70105 -3.16258,13.3888 -3.62329,20.2535 1.75882,-7.46425 3.47275,-15.07772 6.92237,-21.9701 1.88472,1.87674 8.91462,2.83673 6.12043,6.38002 -5.72365,6.73316 -10.1477,14.55999 -13.00466,22.92075 -1.66032,-2.12657 -2.85786,-7.49081 -5.21729,-7.29449 -1.92706,1.83018 -2.28284,5.71323 -4.3212,6.78637 -0.32534,-0.80911 -0.49355,-1.67669 -0.8769,-2.47204 z m 7.32154,-6.98148 c 4.3025,-1.97369 0.55587,-9.17768 -3.57592,-6.49372 -3.77284,2.449 -0.70143,8.79208 3.57592,6.49372 z m -2.47649,-1.41453 c -4.92002,-2.62013 4.59188,-5.94216 2.68636,-1.11366 -0.35239,1.00289 -1.73392,1.45024 -2.68636,1.11366 z m 2.32078,-8.87683 c 4.18398,-2.25477 -1.26714,-8.4836 -4.0421,-4.40092 -1.65099,2.43269 1.37462,6.12803 4.0421,4.40092 z m -2.67982,-1.43763 c -2.7779,-3.33075 5.12351,-3.40175 2.38125,0 -0.61156,0.67432 -1.76969,0.6743 -2.38125,0 z m -5.99447,18.31084 c -1.45405,-0.94684 -1.53206,-4.0385 -1.74273,-0.85852 -0.0642,-1.64437 -1.08475,-2.95273 -1.27637,-1.76038 -3.13948,-1.98255 -3.20256,1.24045 -2.07489,1.59732 -2.97799,-3.82457 -8.74099,-4.23234 -12.31718,-5.26145 0.0955,-3.08999 2.77495,-8.39646 6.27899,-5.22179 4.80314,2.52099 8.51662,6.70195 11.40378,11.22018 0.22975,0.18552 0.0329,1.88846 -0.2716,0.28464 z"
         id="path56" /><path
         style="fill:#a69120"
         d="m 152.88751,307.17025 c -0.46924,-6.55019 -0.90608,-13.10814 -2.12365,-19.57445 -1.26177,-7.11173 -2.72668,-14.30757 -5.71349,-20.9153 -0.71467,-2.98141 -4.06673,-4.42314 -5.20007,-7.38995 1.65733,-0.91626 3.67129,0.84088 3.94068,-0.16458 0.80111,1.34702 0.80338,3.43326 0.84056,0.54391 -0.0397,1.91408 3.46646,3.76866 1.01324,0.64208 -1.5365,-3.03471 -4.02944,-4.63069 -6.4719,-7.23212 -1.97579,-2.36174 -7.0271,-2.20143 -7.65793,-4.90369 1.29332,-2.23404 2.29215,-6.92292 5.44504,-3.96929 3.38458,4.02991 5.99637,8.64888 8.58091,13.23626 1.15012,3.01528 2.2254,5.85194 3.23734,8.9909 2.03464,8.51955 3.17249,17.21892 3.64153,25.96242 0.28575,4.16064 0.54331,8.3244 0.96079,12.47454 0.95318,-11.89346 1.20919,-23.95794 4.15646,-35.57545 0.12678,-3.04982 3.68958,-6.10865 4.4183,-4.88557 3.77547,-2.12914 -1.68338,3.69379 -1.54019,5.71029 -3.68754,10.77292 -5.49895,22.13299 -6.34137,33.46454 -0.38594,0.86919 0.58188,4.55145 -1.18625,3.58546 z m 29.23646,-26.92929 c 0,-3.1349 0,-6.2698 0,-9.4047 -2.69053,0.0133 -7.83068,2.60159 -8.49891,2.61862 2.53514,-2.81244 9.61685,-0.81683 8.51043,-5.67072 0.0304,-6.50594 0.0245,-13.01227 0.12271,-19.5177 0.0521,13.79291 0.1631,27.58662 -0.004,41.37919 -0.16594,-3.13206 -0.10559,-6.27048 -0.13023,-9.40469 z m -23.88526,-14.21579 c 1.35373,-3.03442 1.79663,-6.16759 3.58536,-9.02396 1.48164,-3.18329 3.17126,-6.42473 5.41357,-9.12731 1.67449,-2.6679 2.74889,-3.66976 5.85513,-4.3355 3.92252,2.86383 0.62343,7.62893 -3.4121,8.04333 -3.40817,1.92794 -6.02011,5.09577 -8.10789,8.39616 -1.3258,1.87783 -1.69667,4.45196 -3.33407,6.04728 z m -9.68503,-8.4434 c -1.49724,-6.93491 -3.35001,-13.85172 -6.35396,-20.29175 4.83593,-0.88368 3.39169,6.45613 4.90201,9.62086 0.73108,3.66658 1.78518,9.67437 1.71112,11.98223 -0.11621,-0.4313 -0.15258,-0.87801 -0.25917,-1.31134 z m 9.52227,0.50393 c 0.73004,-6.98715 2.1552,-13.8815 3.83937,-20.69525 4.4168,-0.93405 0.21502,4.69395 -0.0529,6.6797 -1.59025,4.57692 -2.64793,9.31288 -3.78644,14.01555 z m -6.26921,-2.41821 c -5.40787,-2.10729 0.89747,-10.36684 4.39243,-5.70087 2.37392,2.59804 -0.79495,7.39567 -4.1098,5.80476 l -0.19474,-0.0716 z m 3.26359,-2.17846 c 2.90285,-4.75704 -7.28111,-2.94297 -2.76651,0.55129 0.89455,0.53824 2.12002,0.2336 2.76651,-0.55129 z m -3.26224,-8.26307 c -4.93546,-2.95435 3.83377,-8.61647 4.57225,-3.02374 0.54266,2.42482 -2.55554,4.47517 -4.57225,3.02374 z m 2.79921,-1.35322 c 2.77939,-3.75437 -5.88562,-2.93589 -2.0045,0.3054 0.63587,0.36934 1.50568,0.23392 2.0045,-0.3054 z"
         id="path55" /><path
         style="fill:#846e14"
         d="m 124.66684,251.87638 c 0.34962,-4.40505 -1.37513,-10.12583 0.6822,-13.70652 5.62448,-3.40138 11.22313,-6.85999 16.87032,-10.20181 3.92435,-1.87118 7.0089,-5.23576 11.17875,-6.61892 8.44288,4.71599 16.5671,9.96913 24.79124,15.0496 3.83335,1.0166 4.41467,4.20152 3.95235,7.72553 0.54669,2.84993 -1.16301,4.67626 -3.47582,2.13881 -2.35532,-1.27464 -3.37097,-3.0686 -5.79783,-5.39933 0.21194,-1.37288 -5.35626,-3.12496 -6.52592,-4.36477 -1.66705,-1.55812 -4.03982,-1.57288 -4.61298,-4.23204 0.29641,2.49539 -1.0082,-1.67257 -1.18051,0.40504 -0.76462,-2.44269 -1.09455,-0.23664 -2.62699,-2.21236 -2.18819,-1.22066 -2.85895,-4.94138 -4.90078,-5.39503 -1.43996,1.98493 -2.86326,5.43798 -4.81698,5.21971 -0.50646,-0.54956 -3.08781,0.56392 -1.24192,1.00157 2.09119,-1.29173 -0.0252,1.40446 -1.09256,0.66857 0.0139,0.98868 -1.84641,2.38212 -1.13908,0.76714 -1.2463,0.55039 -1.32623,2.66603 -1.59706,0.93803 -0.87606,0.46577 -3.57596,2.6162 -1.97958,0.66801 -1.76492,0.46398 -2.58609,1.86397 -1.98701,2.83287 -1.48032,0.54214 -0.17635,0.39452 -1.38601,1.02665 -1.0282,0.46958 -3.48567,1.81612 -4.50126,1.81155 -1.67901,1.00179 -0.76401,3.58721 -1.59125,3.09603 -0.0489,1.61866 -0.46357,-1.48764 -1.059,0.96057 -1.98441,2.5855 -3.5705,5.46189 -5.81884,7.81844 -0.42404,0.7363 -0.19507,0.19733 -0.14348,0.003 z"
         id="path54" /><path
         style="fill:#6b5809"
         d="m 148.33994,291.82444 c 0.55893,-1.62184 -3.89163,-5.51789 -0.31221,-4.76259 0.70088,0.5175 1.97863,6.61115 0.31221,4.76259 z m 9.81575,-0.45463 c -0.60952,-2.07091 1.39891,-8.74419 2.81064,-5.0475 -1.04373,1.02566 -2.12593,6.06966 -2.81064,5.0475 z m -4.18139,-1.39368 c -1.52531,-2.46053 1.68009,-6.01183 -1.62096,-7.24276 -1.16471,0.6683 -0.39455,-3.92997 -1.27561,-5.2184 -0.15972,-4.37415 -3.23028,-9.11907 -1.48088,-13.21262 1.40013,-1.69621 2.75267,-5.87028 4.05862,-6.09728 2.01085,3.1854 5.4569,6.94484 3.71331,10.90825 -1.60805,6.15118 -1.9492,12.52829 -3.00341,18.77633 -0.99039,-0.73809 0.5386,4.78566 -0.39107,2.08648 z m 0.67832,-19.02461 c 3.02814,-3.91439 -5.79033,-3.59128 -2.50479,0.0119 0.70601,0.55036 1.8217,0.62505 2.50479,-0.0119 z m -5.36095,17.70195 c 0.36177,-3.23593 -2.333,-5.18434 -1.513,-8.23418 1.42161,-0.46893 -2.36367,0.19887 -0.25146,-1.32488 0.97313,-0.53951 -2.56745,0.53141 -0.88111,-1.3553 2.65117,-1.48338 -2.74361,1.23538 -0.28868,-1.67554 1.89625,-1.34556 -2.91434,1.62439 -0.75005,-1.21631 3.38549,-2.70973 -2.93289,2.05498 -0.78701,-0.88761 1.46364,-1.30947 1.5681,-2.746 0.0231,-0.63461 -3.73998,2.25566 2.04351,-6.41844 2.2831,-1.16232 1.23806,3.0225 1.41364,6.26316 1.75922,9.46793 0.85468,2.13297 2.54231,6.89758 1.38244,7.6916 -0.1941,-1.92546 -0.3779,2.98907 -0.87404,-0.20229 -0.0345,-0.15515 -0.0677,-0.31179 -0.10253,-0.46649 z m 7.8367,0.2106 c 0.13995,-3.44956 -0.68823,-7.05776 1.11393,-10.09795 0.68553,-1.95362 0.93172,-9.62024 3.83299,-5.44657 1.80441,2.42098 -1.50793,1.362 -1.91354,0.37917 2.38266,1.54789 1.76492,3.76444 -0.32618,1.79411 1.06039,0.85065 2.39844,3.22146 -0.10284,1.95569 -1.79129,-1.11796 2.83716,2.32493 -0.30646,1.56894 -1.61435,-0.42246 2.22863,1.5918 -0.75506,1.46289 -0.75236,-0.0784 2.47104,0.48506 0.20519,1.29116 -2.25863,0.74135 1.69467,0.0306 0.0249,1.90082 -0.51491,1.6148 -1.14748,4.3393 -1.77296,5.19174 z m -11.94796,-3.57786 c -3.09415,-3.168 5.18902,-0.73429 0.61275,-0.39366 1.00033,0.43878 2.64397,0.90797 0.24786,0.84578 3.98788,0.81615 -0.49593,1.60271 -0.86061,-0.45212 z m 16.3885,-0.13847 c -2.99224,-0.315 -1.67753,-2.1243 -0.2849,-1.56957 -4.36743,-0.45786 2.61736,-2.34125 1.15102,-1.77347 -3.36673,-0.38076 -0.16639,-0.5401 1.35745,-0.65135 -2.10183,0.1987 -4.23616,-0.72894 -2.21662,-2.79577 0.192,-2.39599 3.05258,-1.87003 3.3777,-0.21003 -1.89008,-0.57213 -2.88991,-0.97682 -0.61075,0.4094 2.30661,1.11917 2.93189,-1.35305 0.34763,-1.23786 -2.90294,-1.74365 0.69632,-5.33011 1.89684,-7.14636 2.72783,-2.10854 5.11796,-5.10715 8.82171,-5.39361 0.57837,-0.49924 6.93485,-0.71292 3.92457,-0.87498 -5.02702,1.0914 -0.0556,-5.18956 -1.17163,-5.67055 -0.33885,1.20525 -2.43659,8.14156 -2.47929,3.69654 0.55215,-1.19437 0.27844,-6.22064 -0.24248,-2.48241 0.29184,1.96357 -1.18674,6.92761 -1.2458,2.21031 0.0633,-1.34232 -0.85994,-5.87534 -0.70322,-2.10937 0.74542,1.62782 -0.28551,7.57187 -0.7601,2.8363 -1.0006,-2.39673 -1.75025,-6.47712 2.32681,-5.5757 2.40682,0.67457 5.23849,-0.29517 2.87063,-2.86323 -1.72897,-3.7307 -3.10424,-7.62739 -5.0938,-11.23504 -2.41999,1.43261 -2.27458,0.40765 -0.45057,-1.04484 2.45417,-0.74257 3.65148,3.96365 5.62725,4.00348 1.74992,1.7857 5.06075,1.78498 4.08068,5.17213 -0.0495,4.73544 0.0336,9.47096 0.0319,14.20711 -1.77759,0.41775 2.41083,6.50304 -2.45251,6.01328 -3.42982,-0.19889 -5.64364,3.30694 -8.95327,3.11181 -2.74626,-1.73573 0.98623,1.28146 -1.43698,2.40391 -2.20016,1.89909 -4.66928,4.16002 -7.29427,3.50533 2.62617,-0.088 3.12225,2.79324 0.10454,2.28065 -3.09427,-0.23153 3.31382,0.43564 0.21151,0.93438 0.11981,0.67684 -0.25827,1.39365 -0.73401,1.84951 z m 5.47381,-8.73125 c 2.61683,0.25134 -1.41978,-3.8558 1.38813,-3.16592 -1.2904,-0.73124 -4.8965,0.2708 -1.70637,0.9988 1.83768,1.14835 -3.19335,-0.5911 -1.56354,1.96291 0.34943,0.70929 1.38134,0.84271 1.88178,0.20421 z m -23.48427,6.35359 c -0.24471,-1.64204 4.33894,-0.491 0.99469,-1.06193 -0.8792,0.30477 -2.63597,-0.52945 -0.71511,-0.5859 -4.83989,-0.49265 4.35016,-2.12893 0.21636,-1.54184 -2.05758,0.73581 -5.83786,-1.46353 -2.26839,-1.92865 -1.34951,0.67705 -4.03242,-0.42253 -2.7182,-1.85432 2.34313,3.02444 3.27957,-2.462 0.29418,-1.35725 -1.24597,-0.4719 2.63661,-1.21729 3.48556,0.25685 -1.97427,-3.35561 -5.78138,-0.0202 -8.2936,-0.54813 -2.83203,-2.0126 -7.336,-2.66904 -9.57481,-4.48752 -0.60679,-2.52509 3.42942,-4.83082 -0.28337,-4.76025 0.49584,-4.58101 -1.04029,-9.7746 1.12821,-13.93206 1.67444,-2.76124 3.91202,-5.26077 5.45859,-7.99311 0.99601,2.0094 -0.24822,-0.4267 0.87437,-0.0319 -1.32134,-2.55043 4.52458,-4.93994 4.47386,-4.09633 -2.36416,0.33296 -2.21916,3.20228 -1.92079,3.79541 -2.86237,1.67224 -2.62376,6.118 -4.4455,8.80881 -0.80887,2.18234 -4.0284,6.59848 0.44793,5.27123 2.57357,-0.0308 7.98924,0.71965 5.74273,4.32834 -0.35663,1.3639 -1.79003,6.14244 -1.82817,2.18539 0.22653,-1.89234 0.91313,-7.12679 -0.0572,-2.52564 -0.11318,1.58326 -0.92626,6.09643 -1.10224,2.02 0.0673,-1.21805 -0.16612,-7.50157 -0.53769,-3.2809 0.44107,1.60459 -0.42904,7.26553 -1.12687,2.7138 0.0598,-1.3852 -1.09319,-6.85197 -0.86459,-2.72225 0.77786,1.52887 0.45768,6.67869 -0.90005,2.59084 0.06,-1.42376 -2.11354,-6.49984 -1.42086,-2.76977 1.42194,2.3515 2.21332,5.81847 -1.81206,4.67516 1.72873,0.59027 6.97592,0.62256 9.3185,2.99783 2.686,1.97883 5.85314,4.58137 6.99418,7.74751 0.28081,1.00318 1.82736,2.7148 -0.33278,2.73447 2.96792,-1.24846 4.87435,5.26055 3.17029,5.93451 -0.77759,-0.0487 -1.80043,0.006 -2.39714,-0.58237 z m 18.13415,-10.31222 c -3.23594,-1.58758 0.60944,-7.07976 2.01719,-2.44466 1.71225,2.89809 -0.98459,1.69689 -2.04766,-0.17431 1.08351,1.35307 3.91897,6.24268 0.0305,2.61897 z m -18.5153,-0.063 c -0.22493,-0.74893 -1.34109,-1.00213 0.20498,-2.22372 1.90682,-2.93672 3.58249,-0.0511 0.95043,1.40534 -0.0403,0.0255 -1.51107,1.82966 -1.15541,0.81838 z m -1.48166,-1.32291 c -0.52132,-1.86829 3.4739,-6.46018 0.39858,-2.54878 -2.95406,3.17939 -1.02071,-2.01556 0.0764,-3.21591 0.67264,-1.74991 -3.81296,6.31828 -2.49644,1.73684 0.95293,-1.50521 2.17626,-5.63397 0.52263,-1.84836 -0.40083,1.52997 -2.96757,3.77217 -1.60442,0.65719 0.66152,-1.12764 2.28382,-5.89952 0.50694,-2.20288 -0.10819,1.32808 -2.58174,4.79617 -1.81321,1.46033 0.61353,-1.6077 1.76397,-6.797 0.40204,-2.41365 -0.1271,1.84302 -2.72884,4.58679 -1.5248,0.96242 0.28023,-1.84737 1.16652,-6.785 3.50007,-3.38219 1.83559,2.06458 6.08545,5.56397 4.80892,8.22324 -1.14062,0.52133 -1.28486,2.92607 -2.77675,2.57175 z m 22.00752,-1.5888 c -4.08516,-1.79562 1.4107,-8.28713 2.4612,-2.61395 1.1846,2.68665 -0.44654,3.04309 -1.63512,0.64671 -3.52063,-4.51999 3.84065,5.70035 -0.33338,2.54896 z m 2.72113,-2.63213 c -0.74639,-2.39035 -3.24494,-3.69952 -0.32873,-5.61976 1.87791,-2.55781 6.68283,-4.96386 5.92613,0.26948 0.74619,2.02477 -0.21655,5.1068 -1.08422,1.3777 -0.30994,-1.31026 -1.88163,-5.07553 -0.95148,-1.7486 1.1954,1.23003 1.21692,7.23095 -0.51489,3.30182 -0.36626,-1.25017 -2.56342,-5.50426 -1.1863,-1.97151 1.51078,1.31296 1.50647,7.58921 0.007,2.81697 -0.48822,-1.33975 -2.98478,-4.86407 -1.20773,-1.50694 1.31961,1.42172 1.78134,5.68597 -0.0712,1.84512 -0.96435,-2.32602 -1.61318,-2.01852 -0.27584,0.061 0.92996,1.23985 0.84918,3.7363 -0.31253,1.17479 z M 137.61939,238.25 c 1.19385,-0.89897 1.81615,-1.84036 1.44843,-2.54012 0.65062,-0.34197 3.15237,-2.29921 1.25604,-0.63466 1.6072,-0.21981 2.14046,-1.36044 3.21282,-1.2592 0.67414,-1.74479 2.25008,-0.23185 2.81985,-1.76277 -0.91507,1.78009 -3.51541,2.19496 -1.76887,4.24278 -1.38495,2.36678 -3.53799,-1.60984 -5.05918,1.03673 -0.59803,0.37422 -1.21745,0.74524 -1.90909,0.91724 z m 29.75406,-0.88448 c -1.5911,-3.03814 -3.21485,0.56793 -4.98518,-0.34524 -0.0706,-4.74195 4.20833,0.0577 6.12981,-0.0958 -1.42072,0.59537 2.49647,2.00454 -0.49157,0.91212 l -0.65306,-0.47107 z m -20.90683,-5.66357 c -0.49598,-2.85338 1.99056,-0.38861 2.79827,-2.60847 0.55627,1.89143 5.08262,-7.11193 2.97239,-2.56333 -1.48521,2.01494 -3.07457,4.80915 -5.77066,5.1718 z"
         id="path53" /><path
         style="fill:#2c2104"
         d="m 138.26928,298.28152 c -4.51996,-2.73939 -9.03993,-5.47877 -13.55989,-8.21816 0,-6.38358 0,-12.76717 0,-19.15075 11.44857,1.90262 20.22541,11.58942 23.62274,22.32382 1.55188,4.15062 2.88774,8.40614 3.57917,12.79229 -4.83467,-1.99182 -9.08983,-5.20025 -13.64202,-7.7472 z m 16.33802,8.15126 c 1.30962,-7.34361 3.98696,-14.46648 7.6069,-20.97191 4.14246,-6.66961 10.39523,-12.73393 18.29854,-14.37495 3.43594,0.66523 0.75276,6.08295 1.55233,8.84133 -0.0244,3.27683 -0.0489,6.55365 -0.0733,9.83047 -9.12666,5.55844 -18.09556,11.41379 -27.34738,16.74324 l -0.037,-0.0682 z m -2.49807,-4.28556 c -1.00836,-2.61986 -1.08917,-8.90071 -1.85232,-9.54485 0.0541,-1.42015 -0.76638,-4.89501 0.33867,-3.07982 0.50889,2.10308 1.04344,6.00155 1.24577,8.8188 0.24159,0.68541 0.94485,6.41827 0.26788,3.80587 z m 2.33568,0 c 0.67363,-5.96908 0.96956,-12.01944 2.50064,-17.8542 0.7378,3.88096 -0.13631,5.63467 -0.71011,9.6256 -0.61304,2.47765 -1.28071,8.55895 -1.79156,8.78493 z m -1.23492,-2.31511 c -0.38628,-5.67277 -0.75444,-11.34675 -1.12437,-17.02061 3.88311,0.65214 0.28223,5.98284 1.86318,8.56458 -0.0681,2.96022 -0.2672,8.47498 -0.62645,9.85842 -0.0488,-0.46652 -0.0767,-0.93479 -0.11236,-1.40239 z m 4.75133,-7.73906 c -0.28742,-5.25379 2.00392,-10.24993 4.05905,-14.96271 2.59544,-4.96291 6.3233,-9.86938 11.5891,-12.10238 1.64694,0.0119 -3.43652,1.71195 -4.1323,2.78979 -3.98171,2.85967 -5.93367,7.4974 -8.33859,11.5866 -2.38984,2.87922 4.56848,2.19435 0.43409,2.62759 -2.97876,0.67442 -2.01766,4.43292 -3.14157,6.92975 -0.27924,0.71789 -0.0167,3.19439 -0.46978,3.13136 z m -9.42535,-3.23669 c -0.20255,-1.55426 -0.55538,-3.35453 -2.58478,-3.06186 2.29271,-0.19086 1.29173,-0.66499 -0.24218,-0.81556 3.4157,-0.002 0.65197,-2.12799 -1.25955,-1.5176 2.01109,0.88777 2.64241,-1.91711 2.27815,-1.88198 1.04432,2.5467 2.54609,8.53856 2.30133,9.18439 -0.20188,-0.62578 -0.33233,-1.27071 -0.49297,-1.90739 z m -2.54874,-8.63169 c -2.3198,-5.69465 -6.04061,-10.93247 -11.25482,-14.29667 4.91319,2.36895 8.25252,7.4556 10.73264,12.27747 0.16308,0.13891 1.49529,3.46517 0.52218,2.0192 z"
         id="path52" /></g><g
       id="g66"
       transform="translate(-61.448494,-68.851926)"><path
         style="fill:#f9aa4c"
         d="m 272.73851,324.57066 c 0.0125,-5.18185 -0.0216,-10.36396 0.0436,-15.54557 0.0801,10.3635 0.0801,20.72763 0,31.09113 -0.0652,-5.1816 -0.0311,-10.36372 -0.0436,-15.54556 z m -36.77584,4.5622 c -5.11782,0.27527 -12.25326,-7.2231 -12.61398,-12.31671 0.43343,-2.47027 6.80758,-2.81653 8.26226,-1.69487 3.51314,2.31506 7.80901,7.06665 8.95382,11.31245 0.55331,1.19291 -3.99471,2.45386 -4.6021,2.69913 z m 11.79214,-1.12253 c 0.98862,-4.93981 6.86956,-10.4629 11.19688,-12.34123 1.69328,-1.40606 6.67647,1.1359 5.49548,3.50854 -0.71495,2.39716 -4.05384,6.46465 -6.00589,8.05431 -2.6519,1.91024 -7.56356,1.35876 -10.68647,0.77838 z m -4.18222,-3.13964 c -1.92185,-1.53252 -2.97696,-9.61024 -0.6151,-10.77629 1.63699,0.51048 5.0093,4.92165 4.42429,6.51027 -0.27732,1.93367 -2.90957,3.90611 -3.80919,4.26602 z"
         id="path69" /><path
         style="fill:#241a15;stroke-width:1.03757"
         d="m 239.60249,339.28673 c -3.76468,-0.35899 -7.17476,-2.25809 -10.85092,-3.03019 -3.03647,-0.58428 -5.12907,-2.74442 -7.63999,-4.25416 -2.87056,-2.29459 -4.34256,-5.77145 -4.4228,-9.38972 -0.83841,-4.23995 -0.85307,-9.83229 3.58421,-12.1161 0.88955,-1.72901 2.91007,-0.67944 4.09048,-2.22088 1.42148,-1.24578 4.57152,0.45267 4.50059,0.24619 1.17608,-2.0338 3.52054,0.76188 5.80605,-0.51216 5.7005,-0.67503 11.46767,-1.13524 17.1763,-0.24313 4.22523,-0.78642 8.242,-0.41755 12.37038,1.01098 3.18879,-0.2274 6.29144,3.11814 7.02462,6.21391 0.79981,4.40119 0.13922,9.02855 -1.19554,13.26907 -1.58396,2.73906 -3.58226,5.12287 -6.53293,6.36523 -2.67492,2.28532 -6.41871,2.22067 -9.55443,3.72867 -3.9342,0.95338 -8.11823,0.97318 -11.84115,0.48507 -0.41157,0.9755 -1.75953,0.79119 -2.51487,0.44722 z m -0.5827,-12.80022 c -2.19092,-5.50235 -7.26042,-10.05998 -13.16154,-11.04792 -2.67214,2.55556 1.4624,8.58709 4.42096,10.28299 2.4364,0.69435 6.61628,2.33566 8.74058,0.76493 z m 14.40173,0.37654 c 4.82171,0.21374 8.46056,-3.85482 9.61506,-8.19816 1.11877,-5.06172 -4.62885,-2.18713 -6.80003,-0.69709 -2.97619,1.91427 -5.36995,4.70769 -6.85373,7.91654 -0.34099,2.33699 2.92745,0.65032 4.0387,0.97871 z m -8.00805,-5.94582 c 2.94402,-1.9862 -2.29189,-8.10252 -3.0233,-3.4432 -1.56709,1.40475 1.92511,8.02359 3.0233,3.4432 z"
         id="path68" /><path
         style="fill:#15100e"
         d="m 241.09576,366.02395 c -3.68088,-2.20453 -7.20711,-4.70772 -10.92486,-6.79813 -5.01959,-2.96861 -9.90248,-6.16681 -14.97401,-9.05089 0.0562,-10.29853 -0.15587,-20.60107 0.21167,-30.89594 1.51197,0.36008 -1.12385,-2.72589 -0.15826,-4.00802 -0.10207,-5.33645 -0.0322,-10.67399 -0.0534,-16.01094 9.5322,-5.86531 19.0644,-11.73061 28.5966,-17.59592 9.5619,5.89225 19.1238,11.7845 28.68569,17.67676 0,16.99129 0,33.98257 0,50.97386 -9.5404,5.79091 -18.91979,11.8516 -28.62785,17.36287 -0.96032,-0.47921 -1.84522,-1.08946 -2.75556,-1.65365 z m 1.28707,-27.60992 c 2.16442,-1.00363 5.03523,1.21895 7.58522,-0.29312 3.58386,0.16755 6.13668,-1.87269 9.54036,-2.26539 2.53889,-1.54953 5.5359,-2.1201 7.12296,-4.89938 2.75976,-1.45489 3.01618,-5.0573 3.68935,-7.96825 0.19568,-4.0379 1.00329,-8.96288 -2.53961,-11.90753 -2.80673,-2.67713 -7.0034,-2.31353 -10.54914,-3.22755 -3.47988,-0.5303 -6.99367,1.12203 -10.40713,-0.17629 -3.5691,-0.01 -7.15114,0.3153 -10.70321,0.61955 -2.37909,1.64627 -6.1753,-2.15055 -6.91744,1.19334 -1.64307,-2.81172 -5.95434,-0.0307 -7.57785,1.03201 -2.58124,1.27762 -4.81472,4.49722 -4.34322,7.86173 0.1486,3.89288 0.35367,7.95614 2.68858,11.21238 2.36028,2.39641 5.27222,4.51765 8.39414,5.84239 4.31201,0.89093 8.36299,3.03611 12.79036,3.28549 l 0.634,-0.0952 0.59263,-0.21412 z"
         id="path67" /></g></g></svg>
