<?xml version="1.0" encoding="UTF-8" standalone="no"?>
<!-- Created with Inkscape (http://www.inkscape.org/) -->

<svg
   width="66.384888mm"
   height="99.999992mm"
   viewBox="0 0 66.384887 99.999991"
   version="1.1"
   id="svg1"
   xml:space="preserve"
   xmlns="http://www.w3.org/2000/svg"
   xmlns:svg="http://www.w3.org/2000/svg"><defs
     id="defs1" /><g
     id="layer1"
     transform="translate(-201.21146,-121.67046)"><g
       id="g32"
       transform="matrix(1.476647,0,0,1.476647,-192.96242,-151.05905)"><path
         style="fill:#51919f"
         d="m 268.17644,234.87692 c -0.4202,-5.50362 -0.388,-11.02897 -0.73583,-16.53646 0.007,1.32429 -0.53221,2.6295 -0.38924,0.542 -0.0476,-4.8546 -0.26403,-9.71676 0.071,-14.56613 4.9563,-3.47606 10.08396,-6.71646 15.26433,-9.8424 0.89122,-0.89582 3.16726,-0.4336 0.99697,0.493 -5.0857,3.39927 -10.32691,6.55918 -15.40236,9.97408 0.11015,9.3282 -0.33368,18.69006 0.51512,27.98721 0.0456,0.30325 -0.13438,3.65302 -0.31999,1.9487 z m 0.13449,-17.31176 c 0.0195,-4.13655 -0.13829,-8.28253 0.22086,-12.40963 5.62322,-4.15056 11.62861,-7.7388 17.54294,-11.45069 3.40954,0.23274 7.33154,-0.75636 10.02887,2.00968 3.06033,1.86326 5.92961,4.02866 8.98824,5.87839 2.38448,1.20093 5.65129,2.65488 5.38908,5.84879 0.15379,4.96954 0.0589,9.96967 -0.11956,14.92299 0.30313,-1.33907 -1.02009,-2.43169 -0.59347,-0.60011 0.76742,1.05487 -1.95627,-1.11564 -1.34159,0.56634 -0.96393,-0.0468 -0.88154,-1.41543 -2.4687,-1.47388 1.42525,-1.38461 -2.19507,-3.56077 -0.82876,-0.97266 1.50482,1.55269 1.04084,5.06778 -1.44665,3.40642 -0.0941,-2.59721 -0.0799,-5.20954 -0.4302,-7.81181 0.0989,-1.83986 0.0774,-3.60115 2.51105,-3.43196 -0.8434,-0.47236 -3.86761,-3.4256 -2.88323,-0.78821 -2.82031,-1.15427 -5.41728,-3.28529 -8.59658,-3.32853 -2.07572,0.69578 -4.08689,-0.0593 -3.07412,-2.44057 -1.15679,-1.17989 0.37941,-3.85733 -2.29149,-3.40207 -3.45068,0.84049 1.23127,4.96299 -1.57908,5.6934 -2.80868,0.0554 -5.62811,0.10908 -7.95997,1.88473 -2.10019,1.45324 -4.19753,-0.63145 -5.55523,1.75993 -1.86019,1.35833 3.058,0.35282 1.1223,2.47152 -1.42595,0.96653 -0.53973,4.65824 0.12207,1.85782 1.13917,0.18529 0.20338,3.95682 0.55245,5.49284 0.029,2.62418 0.038,5.24854 0.0659,7.87274 -2.18359,-0.74574 1.24548,-4.89593 -2.36069,-4.65318 -1.07966,-0.70369 -1.59145,-1.57404 -1.83073,-0.3228 0.89221,0.0129 1.24199,1.41406 0.024,0.51878 -0.28592,-1.45346 -0.7214,-3.57674 -2.63642,-2.79422 -0.38272,-1.45285 -0.0814,-3.25274 -0.323,-0.66979 0.007,1.03063 -0.14933,6.18535 -0.2104,2.7453 -0.0244,-2.12642 -0.0237,-4.25317 -0.038,-6.37956 z m 7.74109,11.0956 c -0.21974,-4.451 -0.1903,-8.91597 0.13431,-13.36117 1.9663,0.17975 -1.46319,-1.76975 0.28485,-1.07886 -0.14099,-3.36748 4.61838,-2.60374 6.76915,-3.79069 1.67918,-0.30802 4.55325,0.0417 4.37657,2.32834 0.43294,-2.95871 0.68848,2.62879 0.0158,0.4597 -0.41454,3.42143 0.61536,6.55339 0.13479,10.06172 5.2e-4,1.49428 -0.0535,3.51255 -0.19166,0.9934 -0.37116,-2.99946 0.34113,0.80238 -1.57801,0.39216 -2.09491,0.61419 -1.52036,-1.64613 -3.35574,-1.05229 0.89331,0.64228 -1.82933,-0.27881 -1.42322,1.05689 0.86192,-2.07497 -3.10792,-0.5549 -1.26975,-2.50512 -1.38987,1.18241 0.53895,-1.70428 -1.1127,-0.41979 1.98166,-1.02563 -1.0274,-3.16339 -0.72884,-3.12523 1.1065,-1.63406 -2.46629,-4.50866 -1.19746,-1.14609 0.28069,1.78552 1.82908,1.66067 1.38095,3.34007 1.28958,1.35341 0.36436,2.24335 -1.1403,2.0371 -1.80406,0.98487 0.0492,5.77212 -1.09874,5.80986 z m 26.32508,-0.62253 c 0.49577,-2.52044 -4.41743,-0.85239 -3.28543,-3.62084 -1.48091,0.73255 0.17086,-3.38218 -2.19166,-1.61837 -1.56103,0.80472 -5.12382,0.96557 -4.45191,-1.71784 -0.009,0.98224 -1.04233,4.16557 -1.06325,1.36653 -1.1216,-2.2665 0.56279,-6.17463 -0.17321,-7.45191 -0.45422,0.88979 -4.31808,-0.28284 -1.54197,-0.0694 2.38283,-0.61078 0.68405,-5.42145 4.23486,-4.58748 2.82709,0.0615 6.53848,0.74536 8.51555,2.54484 -0.52211,1.43242 -0.58747,2.79198 0.39537,3.51231 -0.002,4.13628 0.18789,8.30914 -0.25253,12.42333 -0.22096,-0.1923 -0.074,-0.55012 -0.18582,-0.78119 z m -25.6339,-3.15354 c -1.06656,-3.44744 4.66454,-0.57095 1.68136,0.8945 -0.826,0.51102 -2.22228,0.51202 -1.68136,-0.8945 z m 34.093,-9.17376 c -0.0416,-3.65463 -0.0832,-7.30926 -0.12473,-10.96389 -5.16278,-3.38215 -10.41203,-6.62953 -15.59724,-9.97682 0.25673,-1.89026 3.35776,1.2994 4.56705,1.64536 4.10504,2.53641 8.14689,5.17286 12.21368,7.76967 -0.0902,6.06577 0.15239,12.14204 -0.29993,18.19819 -0.15597,-1.03837 -0.3451,-4.62813 -0.4403,-1.77054 0.0579,1.04777 -0.25271,4.39197 -0.23425,1.35362 -0.0378,-2.08505 -0.0595,-4.17039 -0.0843,-6.25559 z"
         id="path34" /><path
         style="fill:#417789"
         d="m 284.70017,240.31888 c 0.76334,-1.46282 -1.68636,0.55058 -0.0562,-0.54914 -2.49471,0.64426 -5.88808,0.29163 -7.36807,-2.04018 -1.90459,-2.00376 -6.36344,3.75192 -4.78523,-0.70642 -0.0589,-2.33783 -2.46219,0.51029 -3.13871,-2.12159 -1.04311,-1.77246 0.47434,-4.46121 1.76696,-1.78395 3.17649,2.76383 8.84862,1.60001 10.82663,-2.02362 0.95066,-2.5133 -1.53104,-5.99654 -1.35501,-7.7822 1.03498,0.59456 0.46469,1.98547 1.55346,0.34407 1.24204,0.56131 0.0415,-0.69688 1.70673,0.044 0.0514,1.68113 1.86082,0.0758 2.90034,1.02454 0.99104,-0.91882 0.58047,-2.80483 0.7867,-0.48118 0.23754,3.95098 0.41419,7.92314 0.054,11.87257 -1.41506,1.40197 -0.79902,4.03432 -3.09543,4.61816 l 0.2034,-0.415 z m 7.86367,-0.0673 c 0.11106,-1.73583 -1.46392,-3.96225 -1.34008,-6.13539 -0.0769,-3.90077 -0.23805,-7.81797 -0.0367,-11.71399 0.23524,2.31696 1.4569,0.0114 1.25546,-1.30289 -0.21109,4.15019 4.081,1.02787 6.14249,1.75467 0.0795,2.84115 -3.31184,5.44903 -1.73453,8.31853 2.28101,3.65664 8.05143,4.84696 11.11427,1.49816 2.88802,-2.47351 0.4532,-6.3114 -0.42207,-9.17336 -0.77771,-1.28331 -0.64851,-3.32205 0.38248,-1.15342 0.64536,-0.84328 1.07849,-1.00893 1.9859,-0.13879 -0.4159,-1.46941 0.57964,-2.65474 0.49209,-0.44927 0.0613,5.38894 0.32007,10.80389 -0.26032,16.17532 0.21353,-1.05068 -0.0772,-5.56734 0.0853,-2.35226 0.37537,2.0837 -2.64746,4.61778 -3.68763,3.05717 -0.81287,2.32867 -2.09769,-0.63464 -2.88469,-0.24774 -2.4997,2.19121 -5.05419,-4.70476 -6.97887,-0.32581 -1.3002,0.80309 -2.89045,1.57265 -4.1131,2.18907 z m 19.08449,-2.72888 c -0.17628,-1.73633 -0.27003,-5.60691 -0.46556,-6.02869 -0.0313,1.72021 0.0482,5.25562 -0.29019,5.86709 -0.16146,-6.78002 0.25302,-13.55503 0.30579,-20.33359 0.55032,7.14755 0.83454,14.3263 0.52693,21.49257 l -0.0415,-0.49842 -0.0355,-0.49896 z m -44.67646,-7.69752 c 0.068,-3.65572 -0.15925,-7.3417 0.45142,-10.96503 0.33133,4.71402 0.55863,9.51135 -0.20852,14.18886 -0.49947,0.62505 -0.0579,-2.72003 -0.2429,-3.22383 z m 1.62367,1.17389 c -0.24046,-3.93979 -0.0835,-7.889 0.0944,-11.82782 -0.89172,2.13547 1.506,3.79164 3.01545,2.55999 -0.72141,3.00457 -2.43136,5.67541 -2.74934,8.79713 -0.0924,0.2629 -0.1914,1.57963 -0.36051,0.4707 z m 2.05917,-2.17435 c -0.74404,-2.74021 3.03945,-6.70269 4.55353,-2.83648 0.72419,2.94151 -2.39225,3.67614 -4.55353,2.83648 z m 7.44238,0.11895 c -3.39913,-0.0682 -1.99179,-8.31131 0.74537,-5.54733 0.81354,1.42479 2.84932,5.19565 0.91476,5.77373 -0.55867,-0.0371 -1.09668,-0.24598 -1.66013,-0.2264 z m -0.82377,-2.9026 c 3.44036,0.70773 0.97212,-4.86122 -0.50461,-2.21758 0.12716,0.59494 -0.55779,2.29991 0.50461,2.21758 z m 20.39404,2.85613 c 0.64367,-1.18411 0.86137,-4.37832 2.34983,-2.57027 2.67103,-0.8003 3.41161,3.69066 0.33019,2.55916 -0.88381,0.0611 -1.81211,0.305 -2.68002,0.0111 z m 7.75244,0.046 c -3.3978,0.1537 -1.31961,-4.45379 -1.82918,-6.49416 -0.50842,2.47777 3.66665,-0.0229 1.8729,1.47621 2.12827,0.90912 4.39201,6.67831 -0.0437,5.01795 z"
         id="path33" /><path
         style="fill:#223f4e"
         d="m 284.47774,249.54795 c -3.44685,-2.38709 -7.00252,-4.58654 -10.58664,-6.7558 -2.2012,-2.21359 -6.6251,-2.79531 -6.9112,-6.2663 -0.22842,-0.98417 0.55951,-5.78531 0.60884,-2.46025 -0.66309,3.32172 1.97022,5.73129 4.82872,6.76417 5.63323,3.69232 11.30311,7.35895 17.07221,10.84819 4.90911,-2.9249 9.65764,-6.10669 14.4685,-9.18782 2.26432,-0.98165 4.34998,-2.60404 6.34015,-3.97834 1.69873,-1.86406 0.30524,-5.48892 0.97395,-7.06079 -0.26363,2.86438 1.90177,7.43709 -2.00836,8.58274 -6.50266,4.03916 -12.8327,8.34873 -19.33886,12.38237 -2.13756,-0.20752 -3.61239,-1.96874 -5.44731,-2.86817 z m 0.61625,-1.15836 c -0.92532,-0.69357 -5.61788,-3.02565 -2.15371,-2.95453 4.9775,-0.0562 9.95802,-0.0609 14.93206,0.15748 -3.05024,1.66477 -5.45566,4.65893 -9.03252,5.21753 -1.26373,-0.78323 -2.49838,-1.61189 -3.74583,-2.42048 z m 13.04977,-3.67017 c -1.51185,-2.77042 -6.54047,-2.25286 -6.33967,-6.26787 -0.29822,-1.09574 -1.1076,-5.11138 -0.6472,-4.72871 0.29855,2.22014 0.80537,4.80898 1.91206,6.61002 1.44059,-1.62222 4.13544,-2.03928 5.43257,-3.9435 2.0937,0.7031 3.36104,3.95068 5.64023,1.90396 0.4182,0.98122 2.07541,1.99532 2.38002,0.24343 0.65714,2.76722 -3.65968,3.53355 -5.36885,5.00302 -0.77441,0.40694 -2.20903,2.38192 -3.00916,1.17965 z m -20.12766,-0.88665 c -3.11428,-2.00186 -6.24386,-3.98084 -9.31522,-6.04848 -0.22376,-2.30048 -0.51146,-4.8869 0.44453,-7.03291 0.99486,0.64351 1.88395,2.5866 -0.0148,1.5267 -0.61364,1.91485 1.57526,5.68086 2.73992,3.29158 0.89023,0.73112 0.70488,2.06049 0.27231,3.53735 1.3827,-0.46468 4.60181,-3.50372 5.45227,-0.6137 1.54146,2.32458 5.97119,0.93866 7.12657,1.62986 -0.0389,1.07342 2.02545,-1.88574 1.45697,0.42649 -0.97936,0.79591 -3.15543,2.42392 -5.13722,3.21329 -1.04239,1.88317 -1.65396,1.01562 -3.02533,0.0698 z m 3.19433,0.70144 c 3.36941,-1.1639 6.9768,-0.19196 10.45032,-0.4965 1.36608,0.006 5.64682,-0.43684 5.1357,0.70159 -3.3105,0.90551 -6.78276,-0.11303 -10.16142,0.30284 -1.8038,0.0256 -3.74003,0.30191 -5.4246,-0.50793 z m 2.11667,-1.85209 c 3.82501,-0.41823 7.68265,-0.28457 11.51549,-0.0579 -3.61936,0.58962 -7.32467,0.26393 -10.96675,0.15486 z m 2.85467,-1.25677 c 0.37957,-4.01422 7.37949,-2.5364 5.93526,0.77716 -2.14209,-0.10014 -4.29314,-0.031 -6.44472,-0.0495 0.16982,-0.24254 0.33964,-0.48508 0.50946,-0.72761 z m 0.92938,-3.14999 c 2.27585,-1.14311 1.88038,-6.53772 1.6128,-6.53242 -0.17083,1.26495 -0.30581,5.8762 -0.52285,2.50986 -0.23238,-5.88568 0.2301,-11.78925 -0.24833,-17.66919 1.0527,-0.16014 -0.10217,-0.9752 1.71157,-0.62502 2.4523,1.0469 -0.80408,4.60007 0.29245,6.73966 -0.008,4.62284 -0.01,9.24569 -0.0156,13.86854 3.8762,1.8195 -1.43008,3.16599 -2.83005,1.70857 z m -13.31077,-4.30711 c -1.41781,-0.21347 -5.06478,-2.86287 -3.27299,-3.71048 1.47736,0.12516 3.65284,0.31381 0.90016,-0.1357 -0.8888,-1.12915 3.98171,-1.05499 5.31003,-1.0191 1.31778,-0.0498 6.6662,0.89073 2.89956,1.18493 -1.13737,0.20077 -4.38887,0.0571 -4.24896,0.53359 1.60534,0.3542 6.10828,-1.58841 5.70452,0.94876 -1.74134,2.05789 -4.7272,2.72061 -7.29232,2.198 z m 26.31304,-0.36412 c -1.61623,-0.0761 -4.4724,-4.15328 -1.18172,-3.13699 3.18008,0.72095 6.51682,-0.4671 9.64559,0.49828 -1.29077,3.14101 -5.61754,3.96998 -8.46387,2.63871 z m -1.61833,-3.44265 c -1.46345,0.0902 -2.16733,-1.1555 -0.17029,-0.71033 2.46746,0.35024 5.92556,-0.25309 4.64035,-3.58304 0.0146,-1.03657 0.0649,-5.38918 0.21285,-2.37414 -0.463,2.66459 -0.56524,6.88709 3.34465,5.92932 0.97145,-0.12361 3.62616,0.57332 1.09953,0.75775 -3.01707,0.37838 -6.10417,0.1874 -9.12709,-0.0196 z m -10.45154,-17.07087 c 0.55005,-3.57221 -4.62032,-3.15184 -6.85747,-2.45264 -2.04965,0.45894 -5.66457,2.45123 -6.96895,0.97209 2.90384,-0.6985 5.5564,-1.93344 8.3079,-3.12688 2.40289,-0.86458 7.24044,0.72378 5.85599,-3.44418 -1.18285,-1.85576 1.74604,-4.13633 2.02954,-1.55575 -0.55618,2.39607 0.12612,5.8973 3.33151,4.63414 3.89124,-0.0316 6.86128,3.31463 10.74992,3.30738 0.13937,1.85799 -3.93625,0.0126 -5.24483,-0.31252 -2.48892,-0.76466 -5.82312,-2.03098 -7.8692,0.3032 -0.0913,1.59375 -1.07147,5.02109 -3.398,3.00928 0.0212,-0.44471 0.0423,-0.88944 0.0636,-1.33412 z m -4.07478,-21.86995 c -0.82958,-0.95893 -0.37144,-5.59045 -0.37144,-5.59045 0,0 1.9291,2.85109 2.3841,3.72522 1.46722,0.31632 3.30004,-4.6603 3.30004,-4.6603 0,0 0.93373,2.79871 1.25567,4.15234 0.58568,1.59833 4.23219,-3.42144 4.23219,-3.42144 0,0 0.72233,3.6432 0.0768,5.03969 -2.4674,2.19091 -8.07157,1.71744 -10.87738,0.75494 z"
         id="path32" /></g></g></svg>
