<?xml version="1.0" encoding="UTF-8" standalone="no"?>
<!-- Created with Inkscape (http://www.inkscape.org/) -->

<svg
   width="70.697075mm"
   height="100mm"
   viewBox="0 0 70.697074 99.999999"
   version="1.1"
   id="svg1"
   xml:space="preserve"
   xmlns="http://www.w3.org/2000/svg"
   xmlns:svg="http://www.w3.org/2000/svg"><defs
     id="defs1" /><g
     id="layer1"
     transform="translate(-118.37755,-120.48399)"><g
       id="g29"
       transform="matrix(1.4692386,0,0,1.4692386,-72.951182,-166.035)"><path
         style="fill:#8d6b4b"
         d="m 154.15305,262.75356 c -3.97808,-1.33501 2.56227,0.33755 0.73064,-2.54664 -0.27962,-1.85252 0.39882,-4.61244 0.58714,-1.40606 -0.18388,-2.927 0.68311,-2.5295 0.2987,0.0665 2.40667,-0.16504 5.65957,0.24239 1.63519,0.58133 -3.08471,-1.78702 -2.22724,4.82577 -1.57291,0.45385 -0.31245,1.06537 -0.22065,3.40466 2.44761,2.17878 1.83375,0.41264 -2.25273,1.54189 -4.12637,0.67224 z m -6.63603,-4.98113 c -2.58236,-0.91154 -6.75696,-5.26059 -6.02956,-6.29978 1.73328,3.36616 5.47093,5.10442 7.79249,6.98767 -0.63884,-0.0254 -1.20558,-0.43678 -1.76293,-0.68789 z m 16.48299,-0.54079 c 2.819,-2.78502 5.60899,-6.10885 7.19797,-9.5809 -0.13839,2.09226 -1.02027,3.22261 -1.63748,3.44494 0.71801,1.21076 -2.72653,2.90818 -0.61393,1.95331 -0.85878,0.9576 -5.77014,5.68144 -4.94656,4.18265 z m -18.69016,-4.59407 c -2.01652,-0.80386 -5.16391,-6.71509 -5.07449,-3.96228 -1.40919,-3.49663 1.17171,4.61766 -0.43328,0.0853 -0.72581,-2.58474 -2.8555,-5.93109 -4.25986,-5.58425 -2.48989,-1.2749 -5.6985,-5.64778 -4.57884,-7.31114 0.0961,4.13891 3.27702,5.10851 6.20764,7.47336 -1.44106,-2.50203 -3.43416,-8.65413 -0.92046,-3.15814 0.63282,1.48865 3.21282,7.72471 1.73785,2.81481 1.83191,2.52474 1.62996,-1.87801 1.85247,1.46893 1.18118,2.83212 3.54136,6.00068 5.77378,7.81675 0.0767,0.77959 2.55497,2.16152 -0.30481,0.35668 z m 24.70578,-5.2192 c -1.19625,-2.11068 5.47264,-6.00473 3.07277,-3.01063 4.65658,-3.60989 -2.18726,3.1692 -3.07277,3.01063 z m -31.43446,-6.24101 c -1.1967,-2.06772 -0.81773,-7.67504 -0.97481,-7.77432 -0.10043,0.57114 -1.13264,-7.46356 3.07535,-6.52292 2.76367,0.58407 5.78947,-3.98802 4.58377,-5.37193 -2.25429,-0.0825 -5.47799,-0.1731 -1.36819,-0.20284 4.49395,0.53591 5.60378,-6.16817 5.71049,-9.648 0.78164,-0.84451 -1.85576,-0.14763 0.32313,-1.36516 1.33097,-4.57157 -3.39171,-5.44705 -6.67465,-3.59383 2.18767,-1.28515 7.80658,-4.96298 6.81444,0.21647 1.95725,5.34926 -0.99578,11.33643 -3.76067,15.99356 -2.37696,3.28962 -3.67258,5.91175 -5.21495,9.74288 -1.06001,2.93534 -1.75807,5.00237 -1.78105,6.42458 -0.0249,0.47302 0.32076,4.16332 -0.73286,2.10151 z m -0.1538,-2.92701 c 1.44172,-3.96339 1.95388,-5.17788 2.8395,-7.76434 3.68762,-3.59251 -3.43039,-4.21717 -2.91408,-0.27749 -0.43382,3.99807 9e-5,-4.08216 -0.36313,0.34336 0.0603,1.67464 -0.32167,8.8265 0.43771,7.69847 z m 36.99006,-10.92485 c -0.9842,-2.3077 1.94317,-1.74138 -1.03829,-2.23609 -3.54246,-1.50741 -9.04155,2.83221 -9.8879,-2.22418 0.0855,-2.45619 8.53953,-0.37461 2.8226,-0.88571 -3.85072,-1.48695 -1.8867,4.52377 0.97818,2.59 2.16921,0.51418 9.23109,0.20472 4.52426,-2.4583 2.30524,0.2486 6.01166,-0.48257 1.52372,-0.37155 -2.37605,-0.0281 -3.65601,0.007 -0.54073,-0.42456 -0.99422,-2.10988 -1.29014,-5.03699 -0.50418,-4.72376 0.20996,1.22848 0.5089,6.93261 4.61744,4.63747 2.25344,2.71759 -5.25009,-0.3514 -2.39446,3.18221 1.95957,0.461 0.12203,6.49159 -0.10064,2.91447 z m -13.14717,-8.52202 c -2.60043,-4.44988 -2.53976,-9.89564 -1.23571,-14.51526 3.18374,0.29195 7.41753,2.20768 9.74962,5.04845 1.61706,1.55405 1.52743,3.76896 -0.28559,0.94268 -1.38225,-3.10297 -6.04194,-5.71655 -9.12723,-3.16435 -1.88131,4.10914 0.35807,8.66161 1.8875,12.52983 1.16702,1.8546 0.33504,2.62604 -0.98859,-0.84135 z m -25.34594,1.74184 c 0.6668,-3.17834 0.48893,-7.56226 2.67286,-10.71148 0.14462,-2.63944 5.55972,-4.03044 1.82672,-1.36309 -2.24745,1.45557 -3.75663,7.34732 -2.9954,7.94371 1.34324,-2.43888 5.11982,-3.40312 4.23594,-3.61652 1.99867,-1.59142 7.79673,-1.45231 2.67383,-0.64569 -3.96052,1.48133 -6.80438,4.96614 -8.41395,8.39307 z m 34.76441,-3.6345 c -2.35437,-3.57452 -6.43991,-5.12237 -10.55626,-5.32653 3.63724,-0.74326 7.31128,1.16944 10.13431,3.30354 0.5059,0.47206 1.99489,2.47529 0.44634,1.13681 -0.0833,0.38235 1.32513,2.87104 -0.0244,0.88618 z m -17.99115,-15.458 c -5.04571,-2.75737 1.88829,-9.83436 4.65059,-4.50762 1.81138,2.85866 -1.90319,6.19913 -4.65059,4.50762 z m 3.38297,-0.97843 c 4.47852,-3.72913 -4.89418,-7.48246 -4.42087,-1.59829 0.0366,2.18793 2.98177,2.91424 4.42087,1.59829 z"
         id="path30" /><path
         style="fill:#23504b"
         d="m 155.31499,260.60764 c 0.82154,-2.636 6.57698,-1.11212 8.65964,-3.8575 2.68594,-1.17985 5.83981,-5.89353 6.34375,-6.78986 -2.03201,6.12643 -8.69872,9.06851 -14.61601,9.83659 -0.45108,0.38383 -0.25104,3.21306 -0.38738,0.81077 z m -0.0283,-2.64583 c 1.62355,-2.96315 -7.79193,-3.02962 -2.08801,-2.56126 6.62301,0.81786 13.38255,-2.8115 16.80471,-8.45551 -0.6815,3.97726 -5.05699,5.60658 -8.16707,7.40426 -2.60691,1.36597 -7.13006,0.92403 -6.54963,3.61251 z m -3.72207,-5.64691 c -3.32629,-1.36309 -10.87289,-5.28713 -7.72368,-9.1186 4.21302,-2.85505 8.57261,2.0678 5.57443,6.10041 3.483,-3.2867 -0.66056,-9.63028 -5.02111,-6.5353 -4.56923,0.57339 -2.20364,-6.4315 -1.43671,-9.11113 2.98191,-7.28338 7.99123,-13.62837 10.05159,-21.32054 1.10014,-3.08881 2.34752,-10.82072 3.65598,-3.68417 1.92701,8.74872 7.07959,16.1864 10.70649,24.2416 0.95968,2.75932 3.53223,8.94725 -0.39351,9.82085 -3.84788,-2.09306 -9.07369,1.02791 -6.2947,5.50629 -0.62207,-0.15719 -0.37566,-7.53451 3.91739,-5.85266 6.07759,0.3232 1.9799,5.94637 -0.94789,7.74937 -3.44822,2.44106 -8.00013,3.29462 -12.08828,2.20388 z m 0.73842,-14.82945 c 1.18832,-2.70031 -6.57183,-2.01653 -1.99714,0.007 0.64112,0.24385 1.35315,0.18117 1.99714,-0.007 z m 8.52729,-0.23002 c 4.43589,-3.27534 -6.00175,-0.60163 -1.31018,0.37462 l 0.67545,-0.11708 z m -10.67891,-7.20808 c 2.20034,-1.92046 3.94644,-9.25993 7.08603,-5.0243 1.51006,2.29856 4.9526,7.72435 5.36857,7.51667 -2.44984,-3.04127 -4.25661,-8.41582 -7.64834,-9.59768 -2.82974,3.10512 -5.19693,6.90736 -7.30798,10.53166 0.88252,-1.10589 1.68039,-2.27528 2.50172,-3.42635 z m -13.13889,14.04843 c -3.656,-2.72037 -7.71144,-6.62744 -6.60368,-11.66319 -0.0276,-2.2943 3.34657,-6.27688 3.73243,-6.14673 -3.07063,2.93512 -4.71554,7.6288 -2.58107,11.59084 0.86989,2.12862 5.2409,6.61698 6.17894,5.60275 -1.29525,-3.51955 2.77831,3.88983 -0.1186,1.13408 z"
         id="path29" /></g></g></svg>
