<?xml version="1.0" encoding="UTF-8" standalone="no"?>
<!-- Created with Inkscape (http://www.inkscape.org/) -->

<svg
   width="68.621086mm"
   height="108.86723mm"
   viewBox="0 0 68.621085 108.86723"
   version="1.1"
   id="svg1"
   xml:space="preserve"
   xmlns="http://www.w3.org/2000/svg"
   xmlns:svg="http://www.w3.org/2000/svg"><defs
     id="defs1" /><g
     id="layer1"
     transform="translate(-156.03508,-166.40645)"><g
       id="g38"
       transform="translate(-59.227463,-57.253214)"><path
         style="fill:#6e90a5"
         d="m 245.92607,324.49553 c 0.12988,-4.81348 0.0967,5.4399 -1e-5,0 z m -13.7744,-23.87137 c -1.12956,-2.64365 -8.48018,-2.01842 -7.78361,-2.51927 4.42555,0.6555 7.95804,-2.89329 12.0889,-1.93455 5.99555,1.09905 -1.21295,7.22876 -4.30529,4.45382 z m 33.1464,-0.91931 c 1.08354,-1.33886 2.28843,-6.64129 2.73146,-1.91809 0.40692,3.01921 -2.31714,-1.01581 -1.95242,1.94149 -0.088,-0.0148 -1.1494,0.56586 -0.77904,-0.0234 z m -43.32888,-7.45734 c 3.75944,-0.80846 -0.73767,-5.592 4.05888,-5.84922 2.14129,0.0804 6.0488,-1.18154 3.34824,1.86428 -2.4553,1.91642 -5.45059,3.12565 -8.03685,4.68418 z m 50.96957,-2.18096 c -5.07663,0.1546 -3.471,-7.93879 0.70829,-3.63656 4.46071,0.215 -0.75879,4.3068 2.30853,5.59301 -1.06675,-0.55455 -2.01443,-1.29974 -3.01682,-1.95645 z m 3.50442,0.59509 c -2.71259,-3.32692 3.79404,2.2766 0,0 z m -11.36025,-6.73423 c -4.5936,-1.07105 2.59143,-3.601 1.17649,0.033 3.15303,1.24186 0.0468,1.64312 -1.17649,-0.033 z m -32.45923,-0.13534 c -2.11906,-4.44234 8.29211,-2.95014 2.35656,-1.18105 -0.63973,0.46701 -1.45382,2.54652 -2.35656,1.18105 z m 27.93989,-3.81342 c -3.07984,-3.97918 6.52681,2.21686 0.5842,0.46142 -0.19473,-0.15381 -0.38948,-0.3076 -0.5842,-0.46142 z m 14.31068,-4.58906 c 2.16272,-2.10612 7.05637,1.25822 1.66865,0.51138 -0.0368,-0.33273 -3.15099,0.57862 -1.66865,-0.51138 z m -57.66882,-4.68301 c -6.72794,-2.48353 6.72106,-1.87402 0,0 z m 38.81108,-0.2522 c 2.09298,-1.76686 5.58017,-6.50239 5.81066,-6.92903 0.37059,3.30391 -2.25497,7.12375 -5.81066,6.92903 z m 4.81755,0.009 c -1.11738,-4.51652 8.06707,-2.0696 2.14153,-0.13596 -1.3098,-0.7781 -1.18417,-0.43406 -2.14153,0.13596 z m -18.3402,-1.45927 c -5.92072,-2.94458 3.22051,-0.86292 0,0 z m 14.79061,-1.45526 c -1.71731,-1.01394 -4.46637,-0.8247 -1.26223,-2.30882 0.92217,-0.35937 1.89692,2.64147 1.26223,2.30882 z m -0.47753,-3.08371 c 0.0225,-3.42479 2.21394,-7.11571 1.4807,-10.0677 2.73263,-3.31151 6.49091,2.92811 2.16322,3.74122 4.48667,3.03297 -1.88637,4.10062 -2.83969,5.99706 0.33184,0.60099 -0.33653,1.63016 -0.80423,0.32942 z m 6.73432,-0.27339 c -2.29637,-2.39815 0.55331,-8.87434 2.98459,-4.07501 1.12887,4.62362 -3.49938,-4.26532 -2.20694,1.27387 1.16725,0.76516 -0.6226,5.90267 -0.77765,2.80114 z m 7.14852,0.54041 c -3.47686,-1.63946 2.02615,-3.69118 0.7775,-2.303 -1.61101,0.85889 4.97362,-0.37387 0.85426,1.51666 -0.25236,-0.003 -1.23225,2.0433 -1.63176,0.78634 z m -36.29717,-0.54271 c -3.28371,-1.77062 -6.5979,-3.58011 -9.83281,-5.3148 0.28194,0.62141 7.07316,1.16333 6.2174,-0.24596 -1.99231,3.17993 3.84636,4.91615 1.96948,1.0239 1.38846,-3.51103 6.48152,5.12258 3.45517,2.5962 -0.37375,0.49736 -1.10568,4.19069 -1.80924,1.94066 z m -8.91446,-2.01408 c 0.2906,-1.22431 5.64204,-1.62709 1.81248,0.48913 -0.43872,0.80688 -1.57673,0.1544 -1.81248,-0.48913 z m 41.67198,0.0872 c -1.48112,-3.04357 -0.20467,-12.43359 4.50958,-8.37112 -1.27036,3.42513 3.71591,8.31019 -2.10833,7.52288 -0.85679,0.0147 -1.77253,0.21527 -2.40125,0.84824 z m -10.74785,-2.22129 c -3.59924,-0.0383 -8.62261,-9.65277 -2.8757,-8.28535 1.72967,-1.77049 -3.15438,-6.72799 0.15715,-3.01513 1.10815,1.94228 0.93068,9.10496 2.18361,3.56009 -1.31109,-1.59281 1.15207,-7.25571 1.11571,-2.54693 1.69222,3.20721 -1.34227,5.87957 -1.75106,8.35894 0.25653,0.42513 3.40672,2.15225 1.17029,1.92838 z m -3.33313,-5.72638 c -0.75015,-4.22446 -1.07797,1.52232 -0.14501,1.43679 l 0.0806,-0.53704 z m -7.36931,4.4531 c -0.1201,-2.0445 2.00792,-9.68163 2.00137,-3.77823 0.61117,1.38291 0.12729,4.44282 -2.00137,3.77823 z m 28.95869,-0.69798 c -2.20409,-3.6219 5.27347,-2.80111 1.94928,-0.0293 -0.0409,0.52059 -2.4983,1.18843 -1.94928,0.0293 z m -48.92702,-0.99261 c -1.86935,-4.71004 4.36875,-0.41051 0,0 z m 16.43652,-0.87959 c -2.01349,-1.28904 -6.20917,-1.34306 -4.09545,-4.34411 -3.00255,-3.71522 0.68402,-11.35946 4.65877,-5.69072 0.37153,3.14392 -0.70626,6.67602 -0.56332,10.03483 z m 6.03217,-3.72865 c 0.46041,-5.59554 2.28671,4.86418 -0.0118,1.26929 0.0724,-0.42245 0.0361,-0.84472 0.0118,-1.26929 z m 17.80921,-0.35799 c -1.76647,-3.0301 1.74708,-6.30052 0.35023,-7.79443 -0.006,-1.8611 2.35593,-5.81475 2.1437,-1.5716 0.0739,2.04859 0.0457,4.04282 -0.29468,0.611 -1.36774,-0.42492 1.53238,8.31077 -2.19925,8.75503 z m 1.24079,0.0338 c 1.20126,-0.7428 4.38502,-2.32949 2.51861,0.18086 -0.74443,0.18439 -2.0812,0.74996 -2.51861,-0.18086 z m 7.46721,-2.54143 c -1.62883,-1.34101 3.83167,0.0828 0.37243,-0.74414 -0.33564,-4.50694 3.58361,1.00369 -0.37243,0.74414 z m -25.72346,-2.75269 c -2.19542,-4.4828 -1.1391,-9.9402 0.12849,-14.56449 0.55989,-2.34654 1.29703,-8.21637 1.26963,-8.62671 -1.09464,5.4349 3.02055,10.27484 2.38354,15.68356 -1.82174,1.76711 -1.32399,8.74673 -2.19704,2.85055 -1.33093,0.35524 -1.20263,4.28085 -1.58462,4.65709 z m 2.72817,-3.64737 c 1.23811,-6.78586 0.69145,4.99926 0,0 z m -5.73695,0.78142 c -0.64014,-2.09182 0.5789,-8.28852 0.26303,-2.47359 0.0142,0.63888 1.12192,2.61707 -0.26303,2.47359 z m 11.07826,-4.86579 c -0.14577,-1.69557 -0.097,-7.74197 0.068,-6.36712 -1.44788,4.19948 0.78472,7.85191 5.4886,6.45271 -1.80566,0.0326 -4.01158,1.44425 -5.55656,-0.0856 z"
         id="path42" /><path
         style="fill:#6a7587"
         d="m 247.24838,321.98199 c 0.11116,-4.96317 0.11752,4.96309 0.01,0.58385 z m 16.36382,-11.77286 c -1.30309,-1.9831 1.22737,-9.47647 1.01586,-3.49361 -0.5512,0.69664 0.45012,4.5645 -1.01586,3.49361 z m -3.5736,-15.94858 c -0.62532,-2.06701 -4.6719,-0.0776 -2.15625,-2.20742 0.96021,-0.52757 4.7578,1.98357 2.15625,2.20742 z m -36.30648,-2.65782 c 0.86471,-1.77509 5.43842,-2.14023 1.68657,-0.37042 -1.52523,0.58163 -0.28698,-1.25915 -1.6661,0.80927 z m 47.75143,-1.59123 c -1.6348,-0.3114 -4.88238,-4.2014 -1.42926,-1.66106 1.08706,1.11137 -0.2667,0.60318 1.6016,1.28779 z m -41.03065,-1.27044 c 2.06651,-1.41318 -1.87891,-4.21435 1.36113,-2.5538 1.17607,1.17427 0.18509,2.77767 -1.36113,2.5538 z m 45.7997,-3.68567 c -0.22057,-2.15659 -1.85388,-8.48151 1.87598,-5.40327 -0.29695,1.42554 0.35783,5.96452 -1.87598,5.40327 z m -54.51071,-0.83924 c -4.33539,1.2071 -2.18009,-4.54587 0.80375,-1.95399 0.33454,0.4495 0.13246,2.88647 -0.80375,1.95399 z m 10.84792,-4.87169 c 2.72195,-0.43594 -0.0757,-4.64521 2.41566,-1.46989 1.54199,2.06681 -1.14908,2.18886 -2.41566,1.46989 z m -4.16766,-2.55699 c -1.64638,-3.44595 4.35118,-5.37045 2.60819,-1.19976 -0.2183,0.77498 -3.9776,3.57004 -2.60819,1.19976 z m 19.75264,0.10428 c -1.37566,-1.93231 2.65274,-4.99837 0.34439,-1.82468 2.36766,0.0547 -0.26233,0.95751 -0.34439,1.82468 z m 24.63168,-1.03087 c 1.16134,-2.55969 9.12988,-0.58356 3.35312,-1.07342 -4.3523,2.09437 7.48095,0.51345 1.34903,1.3853 -1.54457,-0.41407 -3.27392,0.65602 -4.70215,-0.31188 z m -13.36146,-1.38437 c -3.0661,-0.89402 -0.0761,-5.32481 1.80533,-2.72209 0.42947,-3.30138 -2.06862,-1.67616 -3.97492,-0.91159 1.45945,-2.23188 4.95472,-3.8309 4.83275,-0.0192 1.04816,2.91041 -3.3592,2.98627 -2.66316,3.65287 z m -31.76088,-0.13713 c 0.23157,-1.99672 3.41179,-3.32301 1.15098,-0.54829 -0.0246,0.60516 -0.76421,0.94891 -1.15098,0.54829 z m 23.14539,-0.51707 c -1.99579,-0.4489 -3.45457,-3.87511 -3.58735,-3.36506 -3.15544,2.16672 -5.24786,-6.82484 -0.81787,-3.98802 4.03769,-0.66972 7.98339,0.97296 10.87366,0.0504 -1.68349,1.79443 -0.75761,7.60965 -2.54123,6.97297 1.97561,-2.42329 -1.29471,0.0958 -2.72916,-1.66706 -0.085,1.50126 -1.91068,0.94625 -0.59411,2.43978 l -0.60397,-0.44299 z m -27.18409,-1.18753 c -1.77395,-3.26603 0.55179,-2.8675 1.30029,-0.2377 2.20617,-0.16635 5.25903,-3.61184 2.47773,0.33679 -1.06085,0.86792 -2.77738,0.87452 -3.77802,-0.0991 z m 48.8843,-0.49643 c -3.22452,-4.38117 4.28994,-0.87064 2.0042,0.56162 -0.69606,-0.0743 -1.35472,-0.31737 -2.0042,-0.56162 z m -47.93741,-0.62564 c -1.42285,-2.85905 1.50619,1.32781 0.52327,-1.83412 1.94199,-0.15833 1.5563,3.24558 -0.52327,1.83412 z m 1.82928,-1.86656 c -1.50284,-3.02135 2.88588,1.38478 0.58631,0.35516 z m 16.13683,0.31879 c -2.30903,-2.38625 4.51796,0.1258 0.076,0.39384 L 242.447,270.2353 Z m 21.68294,-0.58026 c 2.13628,-1.73178 -2.63551,-5.60584 1.99512,-4.19949 2.03188,2.8496 -0.56151,-4.24424 2.94946,-1.90612 4.50865,2.84661 -4.29551,4.00069 -4.94458,6.10561 z m -28.47656,-0.76915 c -0.90385,-1.04278 -2.08708,-3.58329 -0.90877,-0.92757 -2.64025,-0.90253 -7.73241,-3.29589 -7.72979,-5.17677 3.71919,-3.48904 7.59369,5.74093 9.30406,0.61129 2.62529,1.54226 4.22973,2.75301 3.85856,-1.19598 0.66555,-3.96712 1.74006,3.06037 3.2178,-0.40235 2.44124,-1.56727 -1.33024,-4.32797 0.59983,-7.02378 3.23097,-3.00242 -0.71386,6.18755 3.85427,4.27417 1.91941,-0.98058 3.05097,-4.53492 0.25271,-1.39767 -2.94517,0.69134 3.99505,-5.59689 3.57546,-0.66748 -0.94501,1.27781 -3.33518,3.758 -1.90147,4.1958 1.42623,-3.95739 1.32716,3.62356 -1.91605,2.73992 -2.91114,0.0535 -6.13263,2.38262 -7.5502,3.27073 -2.43334,-1.80041 -2.52179,2.60617 -4.65641,1.69969 z m 42.86249,-0.65772 c -0.8856,-4.67773 8.74682,0.0462 2.37505,0.16357 -0.79258,-0.0426 -1.58426,-0.095 -2.37505,-0.16357 z m -16.95207,-0.28156 c 9e-5,-2.03214 2.4836,-4.56142 2.44734,-1.11228 -1.25196,-0.0836 -1.73457,1.71606 -2.44734,1.11228 z m -7.91876,-3.40185 c -6.27308,-3.26892 1.35963,-8.95071 3.23032,-2.38851 0.23695,1.78891 -1.70176,2.77212 -3.23032,2.38851 z m -27.69093,-2.43272 c -1.8734,-0.082 -4.42669,-2.66289 -0.90976,-1.37217 0.50591,0.25869 0.92769,0.78446 0.90976,1.37217 z m 6.38931,0.0756 c -2.66073,-0.0857 -0.81206,-4.78007 -3.88146,-2.03517 -1.57076,-0.77568 -5.02351,-1.87477 -1.11798,-1.88022 1.94305,1.51026 8.52082,-0.80198 4.99944,3.91539 z m 9.21965,-1.65939 c -2.01145,-1.55723 -6.33952,-7.16829 -1.13058,-5.16333 1.33485,0.86462 3.50956,4.34044 1.13058,5.16333 z m 15.78614,-0.30488 c -4.87965,-0.002 -0.0464,-8.73699 0.66445,-3.21557 0.86503,1.06881 -0.35274,2.19893 -0.66445,3.21557 z m 14.89331,-0.59456 c 0.26286,-1.03568 -0.28084,-4.10284 1.02,-1.44198 0.51735,-4.42768 3.91665,4.53987 -1.02,1.44198 z m -47.64363,-3.38998 c 1.05023,-5.82301 6.0452,4.09205 0.60923,1.47792 -0.96539,0.0287 -0.48138,-0.95466 -0.60923,-1.47792 z m 1.68383,0.92604 c 3.36181,-2.74864 -1.35774,-3.18907 -1.1452,-0.25957 l 0.43212,0.1803 z m 6.72482,-1.14652 c -0.23776,-2.09991 -3.51337,-1.88454 0.16093,-2.57966 0.18611,-5.67459 0.72416,5.86507 -0.16093,2.57966 z m 32.0754,-2.75669 c -0.24382,-2.9684 -0.54677,-8.2191 0.74416,-9.93035 0.34525,0.95256 -0.58423,3.60374 1.24857,2.05179 -1.49463,2.41379 -3.34136,8.30452 1.20095,6.92572 4.72671,0.82033 -2.7888,-0.16521 -2.09254,3.04361 -1.11853,2.45005 -1.15017,-1.48226 -1.10114,-2.09077 z m -17.22804,-0.11607 c -0.77457,-2.11317 -1.64344,-5.13051 1.44139,-7.06804 0.26108,-1.06268 0.0461,-3.8567 0.88165,-1.84253 0.68352,-3.31688 0.0305,-0.0566 0.70742,0.73686 0.54691,-2.35073 0.47423,-5.11921 0.80714,-1.02764 0.70796,2.15008 1.1872,-4.14124 1.41061,-0.0246 0.69337,3.38431 -2.23469,3.62709 0.66306,6.126 1.19183,3.83509 -6.39966,1.37445 -5.70809,0.45818 0.0416,0.83346 -0.003,5.99258 -0.20318,2.64177 z m -10.56255,-1.60311 c 0.28888,-5.39121 1.02523,6.5639 -0.002,0.71392 6.4e-4,-0.23797 0.001,-0.47595 0.002,-0.71392 z m 8.24486,1.90892 c -5.07941,-0.0279 1.1082,-7.00491 0.13798,-1.49595 -0.1298,0.19446 0.49124,1.69397 -0.13798,1.49595 z m 22.56157,-1.36853 c -3.80091,-3.05345 4.06789,0.45071 0,0 z m -0.20936,-2.72321 c -0.79535,-2.07167 0.10867,-8.90675 0.52974,-3.06565 1.57409,0.66423 -1.22532,6.91172 -0.52974,3.06565 z m 7.89375,0.81672 c -2.79271,-0.0331 -0.3224,-4.46224 -0.6926,-0.99572 1.23728,-1.17842 2.71831,1.53697 0.6926,0.99572 z m -30.07563,-3.46255 c 1.58666,-2.74348 1.09084,3.61054 0,0 z m -1.63512,-4.74722 c 0.16503,-5.31049 0.92076,4.73833 0.1576,1.1838 l -0.0744,-0.53212 z"
         id="path41" /><path
         style="fill:#525968"
         d="m 254.02105,325.28928 c -0.18089,-1.49521 0.10268,-8.3825 0.37571,-3.27034 0.23929,1.8514 0.37985,9.00888 -0.27632,7.66576 -0.10746,-1.46324 -0.1042,-2.92947 -0.0994,-4.39542 z m -3.17094,-5.49011 c -0.0525,-5.42342 0.9847,2.31577 0.14391,2.19825 -0.24465,-0.71156 -0.11186,-1.46469 -0.14391,-2.19825 z m -1.67633,-4.96189 c -1.92916,-1.92926 1.80024,-6.99769 1.35866,-2.25166 -0.0112,1.79322 0.0211,2.9723 -1.18075,2.21018 0.48247,1.91136 -0.10281,0.47659 -0.17791,0.0415 z m -6.09959,-7.51234 c -0.48002,-3.61564 1.58318,-4.02475 0.47055,-0.45556 0.79071,0.45983 -0.8061,1.40326 -0.47055,0.45556 z m -17.89272,0.74752 c 1.43885,-3.76663 4.64212,-5.77789 8.52931,-4.94035 3.05449,-1.27891 2.17918,1.36348 1.89612,3.03835 -0.30793,0.64861 -2.98547,-1.40802 -0.64246,0.49382 4.38117,2.56769 1.6694,-10.20573 5.72444,-7.78739 -1.54329,2.30995 -0.20009,7.06802 -1.87615,8.23745 -2.49835,2.08752 -7.62757,0.33111 -11.12654,0.81683 -0.84151,0.006 -1.66209,0.18464 -2.50472,0.14129 z m 30.98042,-2.91273 c -0.89904,-1.66939 2.89933,-4.40852 -0.55643,-2.67665 -1.65241,-0.75087 -3.85675,0.25986 -1.8564,-2.29119 1.78157,-2.4373 2.18638,-5.77238 -0.19747,-4.35248 1.59409,-4.06353 9.49316,-2.63993 6.00066,1.77207 -3.18564,-1.8535 1.91858,2.50958 -1.11348,3.65495 3.71847,0.70302 -1.37686,10.16626 -2.27688,3.8933 z m 2.19712,-5.27045 c -1.20816,-0.46305 -1.93202,-3.29418 -2.44744,-0.42448 0.63156,0.62733 2.60127,3.09606 2.44744,0.42448 z m 13.25684,5.75435 c 0.45647,-2.77194 -2.00781,-9.82633 1.96696,-9.20879 0.60683,2.96414 0.59666,7.15499 -1.96696,9.20879 z m -25.67802,-6.20907 c -2.3452,0.34067 -6.22795,-1.46526 -2.53672,-2.89723 0.53977,-0.14688 4.83868,4.89113 2.53672,2.89723 z m -5.17622,-3.91091 c -3.02014,-2.98463 2.13865,-2.27255 1.5256,0.0273 -1.4034,-0.62098 -1.43809,2.22056 -1.51776,0.0491 z m 1.71346,-1.45521 c -1.68691,-1.60541 -1.49188,-5.36727 0.45252,-1.6785 0.24706,0.58321 0.0757,1.32498 -0.45252,1.6785 z m 33.30205,-0.95643 c -1.99148,-0.27876 -8.18392,-5.72052 -3.5822,-3.05429 2.40865,1.81347 1.7909,-0.24269 3.65291,2.17235 0.98947,0.76644 1.7398,2.35401 -0.0707,0.88194 z m -50.99252,-0.76336 c 1.22631,-1.65868 7.7136,-4.30031 3.10609,-1.45724 -0.50561,0.17831 -3.46922,2.03706 -3.10609,1.45724 z m 24.47395,-1.05833 c -1.95272,-0.8683 -5.41843,-2.1642 -2.60581,-4.80903 -3.80356,-2.70748 3.47588,-2.46468 1.17915,-6.01797 -0.99365,-2.98611 -5.47005,-4.64609 -5.55503,-8.72793 -1.67052,-0.70707 -6.71728,-0.57246 -7.37896,-4.14777 0.59461,2.00201 3.23074,0.0171 3.20599,1.91772 -1.03186,1.9523 3.84672,-2.17511 0.12687,-2.08807 -2.71775,1.33562 1.92079,-2.19698 2.49417,0.76857 0.99665,3.25973 3.57945,1.12335 5.46415,2.57415 2.88103,-2.79279 0.65337,4.08449 4.24614,2.62721 2.65686,0.35621 0.32078,-3.03902 3.36101,-1.32259 1.44807,1.28987 2.46344,-0.8146 0.93902,1.91271 0.97263,-0.96049 4.40928,-2.82475 2.34446,0.35569 -2.63285,-0.51666 -3.78954,3.06563 -0.52574,1.66709 1.6449,-1.27485 1.24208,-3.62182 3.9012,-2.17744 4.00066,-2.36039 -6.48235,3.07368 -2.94895,5.22585 -0.8629,2.25661 3.45839,-1.41434 3.78364,1.71107 2.19272,-0.20822 3.29668,-0.62084 1.53751,1.64701 1.84912,0.79843 6.21831,4.96458 1.42458,2.54943 -2.76269,3.35872 -8.85292,-1.27543 -9.87021,-4.14398 -0.54394,-5.52966 -0.66665,3.23137 0.66404,4.89492 1.9571,3.68289 -2.27994,1.98343 -3.29177,2.64903 -0.36317,1.28742 -0.59198,3.3589 -2.49546,2.93433 z m 2.69548,-8.74555 c 3.19711,-3.36946 -5.53459,-5.96254 -3.07276,-2.81365 -0.55493,1.47888 0.49563,7.83521 2.07833,4.04885 0.87034,4.18208 0.95213,-0.5596 0.99443,-1.2352 z m -3.25947,-6.93102 c 2.87846,-0.0372 -0.33389,-4.57469 -0.56126,-0.56939 -0.38059,1.27251 0.51586,2.77861 0.56126,0.56939 z m 29.04799,14.58313 c -2.24305,-0.19065 1.21501,-5.02173 -2.41446,-2.61711 -2.08024,-2.2676 4.04541,-4.14698 2.48573,-0.48703 1.31517,3.62241 2.29469,-4.81795 3.04932,-1.2378 1.66564,0.72517 1.90558,-3.94829 2.79918,-0.4308 1.41438,4.43522 -4.37854,2.74402 -5.27197,3.64616 4.59716,0.42832 2.45803,1.45851 -0.6478,1.12658 z m -8.93941,-1.09448 c -4.01195,-1.44663 0.0545,-2.45347 0.91016,-0.25123 -0.0713,0.3101 -1.42829,0.87167 -0.91016,0.25123 z m -34.7114,-2.37166 c -3.63739,-3.31964 9.30157,-2.00633 3.05985,0.74957 -1.09722,1.98967 -2.12945,0.19028 -3.05985,-0.74957 z m 27.62312,1.687 c -1.3532,-1.07434 -2.67856,-4.02794 -0.0666,-1.40955 0.46826,0.2102 1.30473,1.67898 0.0666,1.40955 z m -34.50262,-2.85777 c 3.16868,0.42756 0.74817,-4.28743 3.81941,-4.28516 0.28497,1.84104 -1.41933,6.13017 -3.81941,4.28516 z m -11.48189,-0.3292 c 2.63309,-0.88306 3.11238,-3.49493 3.52938,-5.22532 2.70656,-1.46636 4.9293,-0.82705 3.64744,2.47863 -1.0741,3.92043 0.81711,-1.99462 -2.35278,-0.83258 -3.73798,0.48162 1.36521,4.18418 -1.81416,3.28255 -0.89735,0.49575 -2.07696,1.12649 -3.00988,0.29672 z m 15.86512,-0.48961 c 1.55318,-1.52629 5.05831,-1.4087 1.44743,0.22455 -0.55013,0.17257 -0.97121,0.10509 -1.44743,-0.22455 z m -8.24976,-3.58845 c -0.42014,-2.00646 0.19737,-4.2289 0.48683,-0.86204 0.2713,2.34009 -0.8302,6.45626 -0.48683,0.86204 z m 3.23952,2.20011 c -0.73375,-2.15563 0.55981,-4.92072 3.08946,-3.31115 -1.40664,0.77352 -3.012,-0.10271 -2.0549,2.34303 2.53551,-3.43478 -0.90231,3.05231 -1.03456,0.96812 z m -1.63626,-2.38125 c -0.21342,-2.00936 0.64012,-3.8078 0.55404,-0.58717 -0.0151,2.52138 -0.71771,4.06947 -0.55404,0.58717 z m 14.08134,1.46868 c -1.79514,-4.16404 -6.94714,-1.58205 -10.14715,-3.03842 -1.35068,-2.86726 6.15527,-0.13595 2.33845,-3.13584 -0.0785,-3.42833 3.36234,2.41413 5.82832,0.63709 3.47931,-0.58552 4.60477,-2.3926 1.20027,-3.65397 3.07572,-4.13767 6.12487,3.77276 2.73396,1.09727 3.77257,1.2442 5.28437,5.25284 0.57278,6.5925 -0.85094,0.48471 -1.72683,0.93255 -2.52663,1.50137 z m -3.36142,-3.11497 c -1.0322,-3.71797 -4.99462,1.81571 -0.49472,0.32165 l 0.40841,-0.1224 z m 32.50868,-0.20443 c -3.86905,-1.4742 4.09029,-5.20078 0.0673,-1.66625 -0.95252,0.1575 4.28135,2.12057 0.49266,1.7971 z m -2.30607,-0.72897 c 0.15089,-5.08828 6.46928,-6.45281 9.2709,-7.30066 1.37307,-0.86297 -0.30172,3.57518 -2.21363,2.781 -1.80656,1.41583 -0.73545,2.11426 -0.6069,0.2154 -2.4573,0.60497 -5.01966,2.19377 -6.45037,4.30426 z m 4.09482,-4.24438 c 2.37748,-1.03662 1.61856,-3.43985 0.15689,-0.62148 -0.73073,-0.32855 -1.22483,1.34945 -0.15689,0.62148 z m 1.80997,3.02153 c 3.04017,-0.64816 8.07478,-2.14803 10.12451,0.36382 -3.37609,-0.0842 -6.74934,-0.25225 -10.12451,-0.36382 z m 8.06985,-1.42298 c -2.35141,-1.52586 -1.58061,-3.48474 0.73629,-2.2835 4.88856,-0.85025 1.76183,3.72556 -0.76347,2.59037 l 0.0272,-0.30687 z m -14.18342,-2.94187 c 0.12073,-1.97343 4.80559,-3.59067 1.67817,-1.0551 -0.53658,0.3869 -1.10223,0.7308 -1.67817,1.0551 z m 13.11307,-0.48479 c 1.13903,-3.22182 -0.97221,-0.52084 -1.27045,-0.48707 -2.53434,-2.67419 0.0675,-8.0428 2.57315,-3.57147 3.55577,-0.65821 1.40728,5.94833 -1.3027,4.05854 z m -54.62038,-0.43706 c 0.38317,-3.20785 -1.87652,-0.82325 -3.49379,-2.09269 -0.84211,2.94174 -2.80441,-1.38491 0.37431,-0.73594 4.83315,-0.27298 -0.35482,-0.49085 -0.88285,-0.87094 2.14488,-0.38825 8.12172,-0.18075 4.97482,2.20787 0.38564,0.53751 -0.21597,2.01076 -0.97249,1.4917 z m 31.73488,-0.99831 c -0.93446,-3.61737 2.37827,3.36261 3.241,-1.20913 4.0675,0.72756 -3.62381,2.20012 -3.241,1.20913 z m 5.27654,-3.1454 c 1.04685,-0.88088 3.73737,-0.27282 2.42675,-2.44482 3.54037,3.21532 -1.51419,2.66291 -2.42675,2.44482 z m -36.38742,0.0122 c -2.41627,-0.0213 -6.27488,0.22103 -5.23247,-2.31398 -3.3981,-3.17177 3.78572,-10.16799 4.5277,-7.35325 -1.8152,3.17656 -4.35484,6.50075 0.28334,8.50827 0.15531,0.0303 1.54315,1.28873 0.42143,1.15896 z m 5.26812,-1.45765 c -3.53791,-2.27096 5.47658,0.27485 0,-5e-5 z m 49.42073,-2.43027 c -1.04005,-2.91111 -1.12006,-4.00917 -2.05412,-3.54705 -0.0537,-3.41103 4.0238,-2.01959 2.10753,0.19788 4.55774,-1.92718 1.48694,6.00899 -0.0652,3.48186 l 0.0118,-0.13265 z m -28.14483,-1.346 c 0.2854,-2.80271 -1.68817,-4.8906 -1.56022,-0.8439 -2.7827,-3.23351 4.35599,-6.45311 4.16083,-2.05261 -4.12593,-4.23781 -2.15394,0.0506 -2.60061,2.89651 z m -4.50837,-3.29558 c 0.69677,-1.79972 5.62357,-5.07842 1.88207,-1.50824 -0.63125,0.49158 -0.95822,1.47249 -1.88207,1.50824 z m -18.3297,-0.54088 c -2.24032,-0.62978 -3.64645,-0.17018 -0.88085,-1.58572 3.13517,-2.49549 -4.65472,-3.53981 0.24212,-2.93561 4.27957,-2.55284 3.80884,6.82722 1.52613,1.79153 -1.24821,-0.87233 -0.18484,4.05813 -0.8874,2.7298 z m 10.45445,-0.85989 c -2.06053,-3.12144 0.84588,-1.05043 0.76407,0.57905 l -0.76407,-0.5791 z m 21.75818,-4.9763 c -1.90606,-1.86823 2.4651,-5.2655 0.6284,-1.48392 -2.04199,1.30731 2.94903,1.58899 -0.6284,1.48392 z m -16.55547,-3.55652 c -0.32278,-1.58897 -0.0933,-9.73094 0.47713,-4.09811 -0.94148,0.86399 0.60877,2.98517 -0.47713,4.09811 z m 17.88218,-0.93186 c -4.06142,-2.12519 5.20703,-2.12663 0.89391,0.34991 -0.34782,0.0631 -0.59629,-0.23396 -0.89391,-0.34991 z m -5.61827,-12.49574 c 0.0496,-2.08596 -0.17958,-3.51753 -0.25592,-0.61899 -0.0749,2.5013 -0.22819,5.79483 -0.26209,1.25421 -0.15376,-2.19084 0.25305,-9.7672 0.70076,-3.71106 0.14396,2.2304 -0.14544,8.67057 -0.18275,3.07584 z"
         id="path40" /><path
         style="fill:#313948"
         d="m 251.11064,327.5998 c -3.68599,-2.62086 -1.48681,-7.79882 -1.84835,-11.6011 -0.12949,-1.61176 -1.06496,-6.96357 -0.0843,-2.54617 0.22393,2.48408 1.48887,2.22472 1.26444,-0.14826 4.77795,-0.90789 -0.59453,10.93318 1.32057,3.48926 -2.61823,1.50609 0.49599,7.03611 -0.62487,10.02876 -0.009,0.25917 -0.0183,0.51834 -0.0275,0.77751 z m 6.24847,-8.29501 c -2.37775,-4.4726 -0.90567,-9.58225 -1.77521,-14.31639 -0.009,-2.33011 -4.5464,-0.10848 -1.37324,-0.80464 1.59596,2.06275 1.0996,8.10896 -0.5405,8.68747 -0.17218,-1.42007 -0.49268,-9.80099 -0.99473,-4.64566 1.79963,2.23807 -2.44581,6.68175 -2.20002,2.40241 0.50421,-0.79781 -2.43155,-1.22254 -3.03073,-2.19041 -0.11203,2.00598 -0.0392,7.47318 -0.41712,2.5325 -1.30026,-5.29864 5.3956,-9.14551 2.16647,-14.37533 -1.14666,-0.37531 -3.5136,0.11101 -3.11793,-1.58771 3.53394,1.70697 2.99934,-1.6283 0.65412,-2.8054 -2.06714,-1.48336 -2.44213,-9.83579 -0.45315,-5.74532 -3.08815,3.66485 5.39168,6.81192 5.38292,1.84885 1.94837,-0.87091 5.72557,0.94815 3.65829,-2.96514 -2.01393,-1.36506 -1.15903,-10.2289 -0.89911,-4.48701 2.46762,4.41518 2.27503,11.31908 -2.22159,14.33992 0.68716,1.44161 4.78434,-2.84184 1.8133,-0.37076 -1.04763,2.05123 3.03942,0.61147 0.43127,3.26247 -1.46502,2.04046 -2.16059,4.98446 0.89235,4.42877 4.44786,-2.04107 -2.7427,3.79884 2.0945,4.23665 3.95954,1.68335 0.68318,8.10581 0.4293,11.67624 -0.31742,1.85867 -0.62161,4.10986 -0.49919,0.87849 z m -13.08445,-0.43166 c -2.24211,-1.91424 -0.11008,-9.29522 1.27973,-3.53252 -0.34877,0.9629 0.91668,4.72099 -1.27973,3.53252 z m 1.02968,-6.20071 c -5.11908,0.12327 -0.56676,-12.85284 -0.69944,-5.59811 -0.32033,2.4583 1.39344,4.01248 0.76034,0.45456 -0.81737,-2.67881 1.13202,-9.63606 -3.21762,-6.92472 -0.67155,-3.32355 7.34443,-0.0645 2.35195,-2.32942 -0.67516,-4.09546 6.08268,3.8477 3.99413,5.97664 -4.63186,1.02256 -0.82119,6.76258 -3.18936,8.42105 z m -4.37981,-2.85869 c -0.27069,-2.87692 -9.00393,-1.40351 -3.51657,-1.88418 3.71735,1.06869 -0.65124,-2.95448 2.85515,-2.60197 -1.12838,1.69434 3.3217,5.31687 0.71365,4.95129 l -0.0288,-0.25651 -0.0234,-0.20862 z m 31.56777,-2.42244 c -1.18555,-1.74655 2.11867,-7.43706 1.13732,-6.77758 -0.0229,1.50911 -0.22121,7.62289 -1.13732,6.77758 z m -35.24824,-3e-4 c -1.78202,-0.1085 -4.41381,-2.61559 -1.23192,-0.84777 -2.40007,-1.36413 2.61171,-4.18813 0.90915,-0.78554 0.28108,0.66071 2.36731,2.79988 0.32277,1.63331 z m 23.20597,-3.88103 c 0.59405,-2.04998 0.85174,-3.34343 -1.8601,-2.43051 0.29792,-2.137 1.12651,-3.63682 1.5474,-0.58919 2.27861,0.60611 2.72198,2.29429 0.3127,3.0197 z m -2.89378,-2.49246 c -2.82062,0.16565 -0.24566,-5.34177 -0.41084,-1.49708 1.31966,-1.45832 1.95745,1.43176 0.41084,1.49708 z m -16.76436,-2.05427 c -0.52295,-3.10604 1.41567,-3.33473 0.98467,-0.0985 -0.3031,0.52755 -0.5467,0.24022 -0.98467,0.0985 z m 33.34155,-0.32848 c -3.12658,-3.47588 6.43763,-2.87427 0.61374,-2.1757 -0.10465,0.13345 -0.41211,4.25046 -0.61374,2.1757 z m -2.91447,-0.40667 c -2.50838,0.60048 1.35729,-4.11638 -1.57188,-3.2658 1.59129,-0.0152 5.20651,0.95386 1.63316,1.55883 -0.30888,0.10871 0.49868,2.60191 -0.0613,1.70697 z m -29.04213,-1.24679 c 1.97901,-3.71896 -4.56944,-4.87195 -1.54568,-1.63155 -4.90597,-1.74961 2.58425,-4.68368 -0.61366,-6.84058 2.52595,3.67681 4.00253,-1.04792 3.94506,-2.32993 0.45607,2.41971 -0.13013,4.56353 0.70402,6.23072 -1.42315,0.86864 -0.40346,3.41778 -2.48974,4.57134 z m 0.70789,-3.50816 c -0.43002,-2.271 -2.45035,-4.88267 -1.20207,-0.7941 0.11414,0.52525 0.85296,2.48886 1.20207,0.7941 z m 30.71549,1.42064 c -2.70258,-0.31837 -6.48362,-3.33676 -7.78358,-1.7932 -0.15019,-1.66164 -3.61908,-5.00633 -3.25902,-2.70426 -2.17588,-0.86432 -5.7164,-6.99326 -1.25273,-4.20233 2.58104,1.36656 4.4187,-3.50851 2.00617,0.55177 0.23659,2.12074 2.59449,-2.29264 3.62039,-1.17179 -1.6087,-1.58476 2.02328,1.06203 -0.0499,1.97744 1.48014,3.35772 7.36415,3.43344 8.48391,6.90343 1.81329,0.80653 -1.36309,0.72857 -1.76524,0.43894 z m -11.21906,-6.49252 c -0.31323,-4.24113 -3.38474,0.35617 0,0 z m -40.75545,5.55271 c 2.44389,-3.86064 8.31957,-3.10436 10.76292,-6.88496 1.32128,-3.29682 -8.39047,-0.72162 -2.20122,-2.18817 -0.99676,-2.2933 3.82751,-6.12095 1.37054,-1.70828 0.56132,3.24518 4.49427,-0.60837 2.22342,1.91292 -1.63379,3.96093 6.9028,3.44656 4.42361,-0.65752 -2.41437,-0.18549 -1.71477,-2.18522 -1.01065,-3.74971 4.84292,2.69008 1.61679,9.21179 -3.40092,7.82205 2.0177,-0.78857 0.44706,5.68451 -1.86239,3.27211 0.62204,-3.57862 0.94904,-1.44244 -1.0833,-6.3e-4 1.69326,-4.11269 -6.31826,-0.32061 -5.70518,0.82381 -0.97546,0.39931 -2.52699,1.8684 -3.51683,1.35838 z m 7.39266,-0.0171 c 0.67648,-1.39794 -2.09459,-4.17919 0.25353,-2.38205 0.79713,0.90147 2.32189,3.29675 -0.25353,2.38205 z m 49.25637,-1.69777 c -0.68015,-2.11013 -1.81508,-2.5771 0.91903,-2.01154 1.56102,0.10118 0.12386,2.3838 -0.91903,2.01154 z m -20.60567,-4.02353 c -0.94547,-2.10572 0.21497,-4.0663 0.51011,-0.88894 0.18472,1.57426 -0.6135,4.11732 -0.51011,0.88894 z m 22.96191,2.07851 c 1.64746,-2.10132 -5.34779,-0.54554 -1.04102,-1.68048 1.36284,-0.61272 2.72906,1.05752 1.04102,1.68048 z m -7.61486,-4.54966 c -3.52754,-1.98166 4.26939,-7.45431 2.30014,-1.76883 0.44902,1.21566 1.21143,-2.8653 0.91373,0.56 -0.0687,1.28031 -2.40089,2.47728 -3.21387,1.20883 z m -54.50141,-0.23058 c 1.4257,-2.14562 4.12029,-0.035 0.63369,0.0547 l -0.86484,0.0571 z m 9.64168,-0.22013 c -6.42852,-3.19422 5.23614,-0.97767 0,0 z m 20.8815,-1.83073 c -0.31226,-2.50002 0.99659,-3.45776 1.79758,-2.86359 1.67363,-0.27793 -10e-4,7.66803 -2.10673,3.50216 z m -20.22785,0.23002 c -3.26916,-2.4096 0.36113,-5.01277 1.49257,-2.50158 -0.37253,0.89125 -0.79819,1.81118 -1.49257,2.50158 z m -2.36434,-2.19227 c 0.0694,-2.48027 -0.21967,-4.90393 -0.51515,-1.0562 0.32697,1.7773 -1.88736,-6.2117 -3.34548,-1.49672 -5.45078,1.86735 -3.60102,-5.94291 -3.14418,-8.52197 2.14294,2.01355 -0.1407,-2.10363 2.40641,-0.0163 1.88927,1.8879 2.4074,3.38836 5.15975,3.00622 1.94403,2.32603 2.86558,7.27753 -0.2118,6.73515 -0.0137,1.3346 -0.24243,4.29531 -0.34955,1.34983 z m 42.05418,-0.42603 c -3.30239,-1.01341 0.14626,-1.06015 -0.0548,-1.22518 -6.29407,-1.15129 3.55467,-7.65098 3.73966,-4.70408 0.60392,-1.27601 3.03383,-4.28383 2.64474,-1.65712 2.69539,-2.6905 0.0571,-3.29408 -1.9948,-3.61949 0.008,-1.73688 2.35887,-3.34923 -0.17048,-1.28797 -0.32248,3.08149 -4.87946,2.87748 -2.28611,-0.2676 -1.77041,3.38627 -4.76136,0.44944 -1.65882,-1.50546 2.32971,-2.22975 5.60284,-3.35788 8.4537,-3.5523 2.27856,-1.57403 4.05847,3.99883 4.24284,-0.9508 1.96824,-2.97121 -4.47622,-1.71301 -0.25326,-2.73039 3.415,3.61009 -1.37668,7.02456 -4.61655,7.49604 0.73688,2.48542 1.0383,6.41376 -2.76623,7.89009 -3.39387,2.27177 4.28816,1.07339 5.98063,1.37709 3.97523,-0.30278 -4.68328,0.64474 -6.34511,0.30349 -2.45891,-1.5746 -6.3769,4.3468 -4.43544,-0.64205 -0.24886,-1.86919 -3.6833,3.35333 0.0477,3.8358 2.2109,0.34319 0.039,0.81128 -0.52773,1.23993 z m -21.53215,-0.72911 c -1.80578,-0.7151 -2.43319,-4.52764 -0.17086,-1.7677 0.45996,0.54131 1.81506,3.52313 0.17086,1.7677 z m 9.43457,-0.21187 c 2.41174,-1.69942 1.27552,-6.47505 4.892,-6.80297 0.24775,-2.44732 6.60806,-6.37199 4.31047,-1.46161 -4.20498,0.67615 -4.19148,6.65034 -7.91969,8.46876 -0.40293,0.27825 -0.95018,0.085 -1.28278,-0.20418 z m 21.43531,-1.75859 c -1.75566,0.47491 -7.75552,-1.43958 -2.61741,-1.07778 2.2409,0.11658 5.19329,-0.11234 7.01098,0.52336 -1.88538,-0.12613 -4.06448,-0.0746 -4.39357,0.55442 z m -47.62905,-1.82597 c 4.35519,-1.33184 -1.79945,-5.43139 1.34261,-6.90704 0.39555,5.13623 0.86915,-2.73415 -2.58868,-0.81925 -0.72164,2.38767 -5.04957,-4.18513 -3.0946,0.26894 3.51419,1.22024 0.42357,2.86393 -1.40589,2.98599 4.33842,-0.0553 0.6128,-3.30198 -0.21976,-4.58379 2.15044,0.23995 -5.42615,-6.62278 -0.57682,-4.16194 1.3957,1.04074 4.76968,3.75851 2.34234,0.41963 3.11107,-0.96908 3.02865,5.66745 5.88946,2.96305 4.83363,2.35823 1.93486,8.02358 -1.68866,9.83441 z m 7.97124,-0.52317 c -1.93297,-3.79053 4.63174,-0.58597 1.70882,-0.82884 0.16042,0.56934 -2.73991,2.01825 -1.70882,0.82884 z m 4.19959,-0.4518 c -1.04082,-1.3173 -3.18773,-2.15547 -0.31358,-0.91762 1.95596,-0.17167 -2.81873,-4.07357 0.44273,-1.35041 0.01,0.96752 2.52683,4.23958 -0.12915,2.26803 z m 35.26113,-1.2862 c -3.04506,-2.98222 6.88853,-1.00347 1.52553,-1.18252 -1.27333,-1.01821 -1.56939,1.89138 -1.52553,1.18252 z m -39.75905,-1.06528 c -3.39444,-0.10724 -4.04603,-7.20066 -0.51296,-2.52828 2.64575,-0.0919 3.30311,0.86292 0.81312,1.60963 0.6158,-0.69071 -0.85303,1.12278 -0.30016,0.91865 z m 6.93179,-3.21951 c -2.56021,-1.23556 -3.36581,-5.05698 -0.0894,-6.00079 -2.73713,1.64513 -1.53238,4.04844 0.0894,6.00079 z m -27.63543,-1.13378 c 1.71389,-1.26015 7.57731,-1.29742 2.15824,-0.5403 1.55958,1.01241 6.79882,0.0913 2.2778,0.60189 -1.45771,0.0405 -3.00543,0.23191 -4.43604,-0.0616 z m 1.70869,-5.01161 c -0.67199,-2.46931 1.484,-5.91958 0.0542,-1.37347 0.26702,1.49625 -0.0394,6.91203 -0.0623,2.37712 z m 21.00712,-0.92287 c -3.41463,-0.89286 -9.15152,-6.99975 -4.06436,-9.30059 -6.27568,0.17605 3.46521,-7.95507 1.47898,-1.63755 -1.98955,4.32123 4.84322,6.84202 2.58538,10.93814 z m 39.02894,-0.55035 c -3.75727,-0.0195 -0.0389,-7.72298 -1.33758,-1.93905 1.65306,-2.29983 1.64217,1.7453 1.33758,1.93905 z m -53.09771,-1.42342 c -3.92444,-2.25893 1.8497,-1.40107 1.02866,0.51633 l -0.36016,-0.13693 z m 35.04518,-1.20401 c 1.9676,-2.97576 1.98115,-6.08166 0.41092,-8.63603 0.55747,-4.25788 -1.3012,0.6942 -1.28497,2.28138 -4.64143,2.26472 -2.20152,-5.6566 -4.07433,-5.95147 -0.76127,2.09811 -0.77541,8.51126 -1.16792,2.64593 -0.43672,-2.23407 0.47136,-9.93845 1.41338,-3.75311 1.25534,-1.69936 -0.20218,-5.32606 -0.1905,-5.1321 0.0628,-1.53194 0.12051,-8.68871 0.41587,-6.93081 -0.65867,4.84548 0.18793,10.32963 4.5843,13.25605 2.52986,0.49718 6.49888,3.90623 2.72913,5.80109 2.32758,0.64914 3.73577,6.54841 0.009,4.23513 -1.13783,0.42263 -1.78085,1.61208 -2.84497,2.18394 z m -30.39673,-1.87049 c 2.02166,-1.32579 -1.60502,-5.36121 2.30836,-3.48804 0.81122,1.45794 -0.018,5.29254 -2.30836,3.48804 z m 15.29944,-0.11668 c -0.51458,-2.27077 1.20583,-5.59988 0.47327,-1.40988 l -0.20002,0.67691 z m 26.16585,-1.3024 c -1.61126,-6.26426 6.02972,1.86143 0,0 z m -29.02088,-5.52623 c -2.5382,-1.87949 1.57733,-8.98239 1.32556,-3.30477 0.0794,1.2623 -0.73698,2.27434 -1.32556,3.30477 z m 1.84291,-3.57188 c -0.55192,-1.93115 0.87167,-4.54626 1.10081,-0.9877 0.27779,1.2541 -1.44818,3.55226 -1.10081,0.9877 z m 2.48829,-0.99218 c -1.06202,-1.45389 0.17206,-6.35426 0.56334,-2.19209 -0.0594,0.75637 -0.27223,1.49419 -0.56334,2.19209 z m 6.81177,-0.64363 c -1.73007,-1.96466 -0.52838,-4.59636 0.23046,-0.91344 z"
         id="path39" /><path
         style="fill:#15181f"
         d="m 250.38303,332.5269 c -1.25428,-4.99283 -1.871,-10.20265 -1.21521,-15.33364 0.19692,2.77118 -0.89287,8.85096 1.52947,9.72697 1.36679,-2.02181 0.25098,-5.54168 1.17487,-7.11484 0.31841,4.33365 -0.55173,8.52056 -1.48913,12.72151 z m -3.82516,-3.34132 c -0.88534,-7.47998 -0.0903,-15.10639 -0.43062,-22.54835 2.08427,-2.45433 4.04754,-5.75495 -0.022,-7.65907 -1.37864,-1.21114 -4.50699,-3.96708 -1.14627,-1.5312 3.15883,2.92115 -4.20925,-5.67869 0.40251,-5.01431 -2.15664,-1.39621 -1.01054,-9.82105 -1.92384,-3.68246 -1.06013,3.12121 -4.47363,-2.25003 -3.4696,1.36002 -5.06147,0.62516 2.83893,7.45037 -0.2709,5.96795 -0.58386,-1.97346 2.76914,4.65748 -0.72614,1.7917 -2.98937,-3.98727 -8.72179,-0.83942 -12.67431,0.30633 -1.9904,0.45799 -4.78657,-0.0714 -1.17989,0.42521 2.55895,-0.20913 10.19197,1.8736 7.19399,4.48254 -5.39425,0.12257 -8.73703,-4.92865 -13.4791,-6.63416 -0.53562,-4.12979 -0.9313,-12.27936 5.58391,-10.22619 -1.43592,1.26873 -5.31127,-2.39601 -1.9156,-1.15598 0.80653,-2.21251 0.69782,-8.93415 0.78968,-3.23652 -1.38396,2.40867 2.83204,3.28995 2.35472,0.58787 1.2814,2.15825 1.93705,3.76599 -1.26468,4.74469 -3.40755,2.08905 -3.36147,5.41554 -1.45626,3.88012 -3.98186,4.8478 3.88133,1.12331 5.57009,-0.15301 1.85273,-1.98837 2.87943,-0.54715 2.68363,1.39313 1.09544,-3.38727 0.95295,-2.18513 1.59622,0.19742 1.59465,-2.86689 7.20496,-4.96006 6.58639,-8.26169 -1.21901,-3.18707 5.89725,-4.66777 6.49352,-6.10073 1.27857,1.74628 3.30214,6.09108 -0.63684,5.82379 -2.34314,4.34632 3.17674,8.78918 2.96915,11.54779 -2.30052,-0.39784 -2.65943,-0.61149 -0.95625,1.47528 4.90091,-2.00911 2.48158,7.4116 0.31233,9.1311 -1.17961,7.89943 0.0785,15.89018 -0.47081,23.82275 l -0.51329,-0.73402 z m -16.21952,-35.77455 c 0.4013,-2.78622 -4.15523,-2.88267 -1.67861,-1.5158 0.38118,0.28559 1.08573,2.85386 1.67861,1.5158 z m 3.65116,-0.86902 c 4.17637,-2.98737 -4.47155,1.40544 -2e-5,0 z m 9.89454,26.84879 c -0.54515,-2.5299 -0.57068,-2.46783 0.80692,-0.22672 1.80661,-1.36256 0.66027,-7.30562 1.085,-2.39845 0.14832,1.28867 0.34295,4.39249 -1.89192,2.62517 z m 9.87242,-2.72879 c -1.19932,-3.29635 -1.99698,-7.33862 -0.54917,-10.64939 -1.04093,3.87811 2.91215,10.99125 0.60135,12.66192 -0.13721,-0.66658 -0.003,-1.34143 -0.0522,-2.01253 z m -12.92494,-4.13888 c 0.71339,-5.27871 0.85891,6.48764 -0.0107,0.76634 0.004,-0.25545 0.007,-0.51089 0.0107,-0.76634 z m 7.36869,1.97312 c -2.17178,-1.28195 -0.16977,-9.84875 0.47046,-4.2223 -0.33324,1.17682 1.27764,3.82526 -0.47046,4.2223 z m 6.66554,-5.68224 c -0.69386,-1.98443 1.18381,-6.27918 0.97644,-1.93339 0.94885,1.45353 -1.00083,8.58429 -1.11673,3.68288 0.0526,-0.58379 0.13637,-1.16238 0.14029,-1.74949 z m 6.56363,1.6586 c -4.41468,-0.46407 -1.65166,-7.39648 -1.5809,-9.55994 1.94336,-0.14144 0.40699,4.43655 2.20388,1.1211 -3.25717,-1.52027 -2.24496,-3.87328 -0.81222,-6.47256 0.55814,-6.00351 -7.34082,-1.4842 -8.35383,-0.84536 4.33306,-2.47934 2.40892,-8.08458 3.46225,-11.0674 2.94419,2.38359 4.37909,6.2845 8.45398,7.78827 2.53345,1.95946 -0.7306,4.36024 1.4496,5.96186 0.58865,3.14714 -3.02758,5.05523 -3.91444,3.55075 -0.25419,2.13169 4.59391,1.31187 0.4361,2.9568 -1.4254,0.9664 1.71364,10.79456 -1.34442,6.56648 z m -3.175,-22.34798 c -0.15924,-2.3506 -1.24482,-5.02921 -0.7845,-1.08499 -0.0654,2.14059 0.88231,4.74983 0.7845,1.08499 z m -15.94115,22.97801 c -1.95478,-2.31782 -1.78427,-5.31581 -0.54551,-7.01117 -1.95355,-3.65771 4.69897,-5.63529 2.97548,-1.16015 1.01734,1.56758 1.39817,6.95208 -0.0396,5.9299 1.11974,-2.48803 -2.42838,-8.00885 -1.84164,-2.46158 -0.53061,1.36626 0.81633,3.89804 -0.54877,4.703 z m -2.08768,-5.91477 c -1.06113,-1.80209 0.37721,-8.79445 1.2765,-3.43591 0.11197,1.13759 1.05659,4.30076 -1.2765,3.43591 z m 27.23907,-1.39599 c -1.51006,-2.10424 2.54353,-3.94641 0.72455,-6.62849 -1.67529,-2.18342 -2.78562,-6.27911 0.63194,-3.92403 2.51155,1.82824 8.36593,2.59223 5.75243,-0.13334 3.92327,2.59892 5.0812,-3.38288 7.6532,-3.60526 -0.94831,3.34404 0.61108,8.84856 -4.38702,9.6405 -4.31884,3.65911 -3.01868,-3.54688 -1.60201,-3.17452 -1.33835,-0.22298 -7.30779,-1.53482 -6.33559,-0.5837 3.16016,0.19158 -0.0401,3.04305 0.002,2.48195 4.96356,-0.0508 -2.62182,4.83674 1.09806,4.34075 -0.2066,1.01884 -3.17009,3.64698 -3.5378,1.58614 z m -30.90607,-0.46302 c -5.24134,-0.36997 1.95301,-4.43209 1.30103,-0.4619 0.69716,1.03759 -1.72051,1.26098 -1.30103,0.4619 z m 39.72226,-11.40287 c -5.60774,-5.03202 6.1539,2.51566 0,0 z m -13.26393,-4.03159 c 0.12263,-1.85292 2.62099,-3.60887 1.277,-0.62211 -0.24562,0.44483 -0.77573,0.73545 -1.277,0.62211 z m 4.84351,-1.00769 c 3.57395,-3.95521 -3.38434,-7.03923 -6.50041,-7.95499 -3.13336,-2.1945 2.1422,-3.80676 1.60856,-6.30502 1.49971,-2.14606 3.83676,-0.11226 3.60954,-0.06 1.71348,-0.89878 3.96244,-6.72385 3.88278,-1.61421 -4.12784,2.49442 -5.90854,10.54135 -1.98374,10.48869 -1.28404,-1.03788 3.47284,-1.16398 3.28417,-2.98965 6.62784,-0.23452 -0.26026,7.23276 -3.14686,8.32736 z m 2.28755,-16.03546 c -2.12147,0.15226 -7.22419,7.67155 -2.99987,3.28013 0.99543,-1.0973 2.12744,-2.07155 2.99987,-3.28013 z m 8.06082,15.2095 c -1.63017,-2.52676 1.27791,-6.80165 3.38595,-5.85063 -1.53501,1.84343 -1.86862,4.2655 -2.6811,6.07755 z m -26.80782,-2.97252 c 1.04157,-2.06517 -1.41322,-4.15694 -2.31984,-2.10072 0.32213,-4.08876 3.6489,-2.19633 2.53428,0.90073 -0.0376,1.53556 -0.24633,4.31689 -0.21444,1.19999 z m -16.85854,0.94064 c 3.68184,-2.95273 1.84859,3.42914 0,0 z m -6.85607,-0.66178 c 0.0803,-3.33169 10.41884,-4.95023 5.05352,-1.24493 0.0129,-4.66181 -3.46644,1.2567 -5.05352,1.24493 z m 50.77557,-3.24283 c -1.63081,-4.19877 6.2351,0.51183 0.82254,0.14992 -0.27418,-0.05 -0.54836,-0.0999 -0.82254,-0.14992 z m -59.63044,-4.88533 c -0.0737,-3.01139 0.33697,-3.20139 0.35577,-0.0249 0.49331,2.5149 -0.26974,5.93249 -0.417,1.65127 0.0471,-0.54014 0.11409,-1.08341 0.0612,-1.62636 z m 10.47322,2.26855 c 4.04209,-3.44181 1.50105,3.44736 0,0 z m 4.3683,-1.26873 c -0.85011,-1.91403 0.54556,-9.23956 2.35077,-4.67902 5.45449,0.85227 -0.48163,8.03755 -2.35077,4.67902 z m 20.71047,0.16875 c 2.05611,-4.43013 3.35702,0.9156 -0.14377,0.34203 z m -25.10095,-5.78515 c -1.74904,-1.21513 -6.25718,-5.29778 -5.85606,-5.4586 1.51301,2.99829 7.16682,4.63744 8.23264,4.38878 -1.66347,-1.95515 -0.78435,2.59682 -2.37658,1.06982 z m 37.04522,-0.6633 c 0.7549,-5.6974 1.44252,2.79985 0,0 z m -20.17541,-4.12447 c -1.87053,-0.82612 -4.40259,-0.13408 -1.22554,-1.8308 2.55466,2.51134 7.00233,-4.39168 9.06678,0.65515 4.02211,-1.10895 1.16931,2.41117 -1.20046,1.75353 1.55177,-2.73965 -6.36761,1.75012 -6.64078,-0.57788 z m 12.36665,-0.0209 c -2.9975,-3.53388 5.9,-4.5647 1.82804,-0.51374 -0.30394,0.59398 -1.29147,1.30448 -1.82804,0.51374 z m 3.43958,-2.24097 c 1.18547,-7.51207 1.90174,5.77217 0,0 z m 12.45685,-0.17011 c 2.05083,-3.88802 4.8962,-0.26936 0,0 z m -50.39733,-0.88148 c -3.69462,-2.91796 2.71453,-0.12362 1.6624,0.59605 -0.57215,-0.14562 -1.11777,-0.37272 -1.6624,-0.59605 z m 40.74984,0.77389 c -1.45709,-2.14525 0.56366,-5.78666 1.37941,-1.66076 -9.5e-4,0.79821 -0.65018,1.44072 -1.37941,1.66076 z m 7.8865,-1.40543 c 0.28801,-2.10486 5.6641,-2.84273 2.02742,-0.82628 -0.65752,0.31862 -1.33909,0.58322 -2.02742,0.82628 z m -30.09863,-1.7319 c -1.37406,-2.32806 0.87456,-5.76088 1.46756,-1.51321 -0.0319,0.78919 -0.72611,1.38221 -1.46756,1.51321 z m 3.53139,-9.24146 c -0.83979,-4.44281 2.37727,-1.59547 0.89601,0.97471 -1.34902,1.89439 -0.74562,-0.33443 -0.89601,-0.97471 z"
         id="path38" /></g></g></svg>
