<?xml version="1.0" encoding="UTF-8" standalone="no"?>
<!-- Created with Inkscape (http://www.inkscape.org/) -->

<svg
   width="57.973625mm"
   height="85.656967mm"
   viewBox="0 0 57.973624 85.656966"
   version="1.1"
   id="svg1"
   xml:space="preserve"
   xmlns="http://www.w3.org/2000/svg"
   xmlns:svg="http://www.w3.org/2000/svg"><defs
     id="defs1" /><g
     id="layer1"
     transform="translate(-82.19257,-209.76473)"><g
       id="g51"
       transform="translate(-5.1824031,-93.03647)"><path
         style="fill:#fbf957"
         d="m 152.28493,270.97753 c -3.13091,-3.27364 5.46517,-3.81902 2.06425,-0.0871 -0.54022,0.52696 -1.51101,0.65417 -2.06425,0.0871 z m 6.03481,-4.03266 c 1.03476,-5.54904 5.46656,-9.59654 9.31514,-13.37482 2.56975,-2.42949 8.47316,-6.76952 9.56902,-0.98704 0.8049,1.96803 2.71897,5.15729 -0.97652,4.00159 -4.46046,-0.0627 -8.72049,2.15123 -11.2689,5.77535 -1.36887,1.35444 -3.3379,2.9907 -4.42596,1.66201 -0.96419,0.46606 -1.37654,1.88496 -2.21278,2.92291 z m -10.5797,-4.36166 c -2.99741,-7.9633 -7.76839,-15.15726 -13.34657,-21.54175 2.21752,-1.34732 6.62633,-6.59428 8.24698,-2.68375 3.08652,6.40887 4.44327,13.52408 6.31879,20.27497 -0.88714,-8.0989 -2.71457,-16.06781 -4.71515,-23.95684 3.05287,-2.91902 7.08032,-5.06338 8.78362,-9.15048 1.74348,-0.57519 2.58683,4.32037 4.76191,5.16125 2.47771,2.17196 6.17081,3.46143 3.95096,7.29259 -1.45064,6.70105 -3.16258,13.3888 -3.62329,20.2535 1.75882,-7.46425 3.47275,-15.07772 6.92237,-21.9701 1.88472,1.87674 8.91462,2.83673 6.12043,6.38002 -5.72365,6.73316 -10.1477,14.55999 -13.00466,22.92075 -1.66032,-2.12657 -2.85786,-7.49081 -5.21729,-7.29449 -1.92706,1.83018 -2.28284,5.71323 -4.3212,6.78637 -0.32534,-0.80911 -0.49355,-1.67669 -0.8769,-2.47204 z m 7.32154,-6.98148 c 4.3025,-1.97369 0.55587,-9.17768 -3.57592,-6.49372 -3.77284,2.449 -0.70143,8.79208 3.57592,6.49372 z m -2.47649,-1.41453 c -4.92002,-2.62013 4.59188,-5.94216 2.68636,-1.11366 -0.35239,1.00289 -1.73392,1.45024 -2.68636,1.11366 z m 2.32078,-8.87683 c 4.18398,-2.25477 -1.26714,-8.4836 -4.0421,-4.40092 -1.65099,2.43269 1.37462,6.12803 4.0421,4.40092 z m -2.67982,-1.43763 c -2.7779,-3.33075 5.12351,-3.40175 2.38125,0 -0.61156,0.67432 -1.76969,0.6743 -2.38125,0 z m -5.99447,18.31084 c -1.45405,-0.94684 -1.53206,-4.0385 -1.74273,-0.85852 -0.0642,-1.64437 -1.08475,-2.95273 -1.27637,-1.76038 -3.13948,-1.98255 -3.20256,1.24045 -2.07489,1.59732 -2.97799,-3.82457 -8.74099,-4.23234 -12.31718,-5.26145 0.0955,-3.08999 2.77495,-8.39646 6.27899,-5.22179 4.80314,2.52099 8.51662,6.70195 11.40378,11.22018 0.22975,0.18552 0.0329,1.88846 -0.2716,0.28464 z"
         id="path56" /><path
         style="fill:#a69120"
         d="m 152.88751,307.17025 c -0.46924,-6.55019 -0.90608,-13.10814 -2.12365,-19.57445 -1.26177,-7.11173 -2.72668,-14.30757 -5.71349,-20.9153 -0.71467,-2.98141 -4.06673,-4.42314 -5.20007,-7.38995 1.65733,-0.91626 3.67129,0.84088 3.94068,-0.16458 0.80111,1.34702 0.80338,3.43326 0.84056,0.54391 -0.0397,1.91408 3.46646,3.76866 1.01324,0.64208 -1.5365,-3.03471 -4.02944,-4.63069 -6.4719,-7.23212 -1.97579,-2.36174 -7.0271,-2.20143 -7.65793,-4.90369 1.29332,-2.23404 2.29215,-6.92292 5.44504,-3.96929 3.38458,4.02991 5.99637,8.64888 8.58091,13.23626 1.15012,3.01528 2.2254,5.85194 3.23734,8.9909 2.03464,8.51955 3.17249,17.21892 3.64153,25.96242 0.28575,4.16064 0.54331,8.3244 0.96079,12.47454 0.95318,-11.89346 1.20919,-23.95794 4.15646,-35.57545 0.12678,-3.04982 3.68958,-6.10865 4.4183,-4.88557 3.77547,-2.12914 -1.68338,3.69379 -1.54019,5.71029 -3.68754,10.77292 -5.49895,22.13299 -6.34137,33.46454 -0.38594,0.86919 0.58188,4.55145 -1.18625,3.58546 z m 29.23646,-26.92929 c 0,-3.1349 0,-6.2698 0,-9.4047 -2.69053,0.0133 -7.83068,2.60159 -8.49891,2.61862 2.53514,-2.81244 9.61685,-0.81683 8.51043,-5.67072 0.0304,-6.50594 0.0245,-13.01227 0.12271,-19.5177 0.0521,13.79291 0.1631,27.58662 -0.004,41.37919 -0.16594,-3.13206 -0.10559,-6.27048 -0.13023,-9.40469 z m -23.88526,-14.21579 c 1.35373,-3.03442 1.79663,-6.16759 3.58536,-9.02396 1.48164,-3.18329 3.17126,-6.42473 5.41357,-9.12731 1.67449,-2.6679 2.74889,-3.66976 5.85513,-4.3355 3.92252,2.86383 0.62343,7.62893 -3.4121,8.04333 -3.40817,1.92794 -6.02011,5.09577 -8.10789,8.39616 -1.3258,1.87783 -1.69667,4.45196 -3.33407,6.04728 z m -9.68503,-8.4434 c -1.49724,-6.93491 -3.35001,-13.85172 -6.35396,-20.29175 4.83593,-0.88368 3.39169,6.45613 4.90201,9.62086 0.73108,3.66658 1.78518,9.67437 1.71112,11.98223 -0.11621,-0.4313 -0.15258,-0.87801 -0.25917,-1.31134 z m 9.52227,0.50393 c 0.73004,-6.98715 2.1552,-13.8815 3.83937,-20.69525 4.4168,-0.93405 0.21502,4.69395 -0.0529,6.6797 -1.59025,4.57692 -2.64793,9.31288 -3.78644,14.01555 z m -6.26921,-2.41821 c -5.40787,-2.10729 0.89747,-10.36684 4.39243,-5.70087 2.37392,2.59804 -0.79495,7.39567 -4.1098,5.80476 l -0.19474,-0.0716 z m 3.26359,-2.17846 c 2.90285,-4.75704 -7.28111,-2.94297 -2.76651,0.55129 0.89455,0.53824 2.12002,0.2336 2.76651,-0.55129 z m -3.26224,-8.26307 c -4.93546,-2.95435 3.83377,-8.61647 4.57225,-3.02374 0.54266,2.42482 -2.55554,4.47517 -4.57225,3.02374 z m 2.79921,-1.35322 c 2.77939,-3.75437 -5.88562,-2.93589 -2.0045,0.3054 0.63587,0.36934 1.50568,0.23392 2.0045,-0.3054 z"
         id="path55" /><path
         style="fill:#846e14"
         d="m 124.66684,251.87638 c 0.34962,-4.40505 -1.37513,-10.12583 0.6822,-13.70652 5.62448,-3.40138 11.22313,-6.85999 16.87032,-10.20181 3.92435,-1.87118 7.0089,-5.23576 11.17875,-6.61892 8.44288,4.71599 16.5671,9.96913 24.79124,15.0496 3.83335,1.0166 4.41467,4.20152 3.95235,7.72553 0.54669,2.84993 -1.16301,4.67626 -3.47582,2.13881 -2.35532,-1.27464 -3.37097,-3.0686 -5.79783,-5.39933 0.21194,-1.37288 -5.35626,-3.12496 -6.52592,-4.36477 -1.66705,-1.55812 -4.03982,-1.57288 -4.61298,-4.23204 0.29641,2.49539 -1.0082,-1.67257 -1.18051,0.40504 -0.76462,-2.44269 -1.09455,-0.23664 -2.62699,-2.21236 -2.18819,-1.22066 -2.85895,-4.94138 -4.90078,-5.39503 -1.43996,1.98493 -2.86326,5.43798 -4.81698,5.21971 -0.50646,-0.54956 -3.08781,0.56392 -1.24192,1.00157 2.09119,-1.29173 -0.0252,1.40446 -1.09256,0.66857 0.0139,0.98868 -1.84641,2.38212 -1.13908,0.76714 -1.2463,0.55039 -1.32623,2.66603 -1.59706,0.93803 -0.87606,0.46577 -3.57596,2.6162 -1.97958,0.66801 -1.76492,0.46398 -2.58609,1.86397 -1.98701,2.83287 -1.48032,0.54214 -0.17635,0.39452 -1.38601,1.02665 -1.0282,0.46958 -3.48567,1.81612 -4.50126,1.81155 -1.67901,1.00179 -0.76401,3.58721 -1.59125,3.09603 -0.0489,1.61866 -0.46357,-1.48764 -1.059,0.96057 -1.98441,2.5855 -3.5705,5.46189 -5.81884,7.81844 -0.42404,0.7363 -0.19507,0.19733 -0.14348,0.003 z"
         id="path54" /><path
         style="fill:#6b5809"
         d="m 148.33994,291.82444 c 0.55893,-1.62184 -3.89163,-5.51789 -0.31221,-4.76259 0.70088,0.5175 1.97863,6.61115 0.31221,4.76259 z m 9.81575,-0.45463 c -0.60952,-2.07091 1.39891,-8.74419 2.81064,-5.0475 -1.04373,1.02566 -2.12593,6.06966 -2.81064,5.0475 z m -4.18139,-1.39368 c -1.52531,-2.46053 1.68009,-6.01183 -1.62096,-7.24276 -1.16471,0.6683 -0.39455,-3.92997 -1.27561,-5.2184 -0.15972,-4.37415 -3.23028,-9.11907 -1.48088,-13.21262 1.40013,-1.69621 2.75267,-5.87028 4.05862,-6.09728 2.01085,3.1854 5.4569,6.94484 3.71331,10.90825 -1.60805,6.15118 -1.9492,12.52829 -3.00341,18.77633 -0.99039,-0.73809 0.5386,4.78566 -0.39107,2.08648 z m 0.67832,-19.02461 c 3.02814,-3.91439 -5.79033,-3.59128 -2.50479,0.0119 0.70601,0.55036 1.8217,0.62505 2.50479,-0.0119 z m -5.36095,17.70195 c 0.36177,-3.23593 -2.333,-5.18434 -1.513,-8.23418 1.42161,-0.46893 -2.36367,0.19887 -0.25146,-1.32488 0.97313,-0.53951 -2.56745,0.53141 -0.88111,-1.3553 2.65117,-1.48338 -2.74361,1.23538 -0.28868,-1.67554 1.89625,-1.34556 -2.91434,1.62439 -0.75005,-1.21631 3.38549,-2.70973 -2.93289,2.05498 -0.78701,-0.88761 1.46364,-1.30947 1.5681,-2.746 0.0231,-0.63461 -3.73998,2.25566 2.04351,-6.41844 2.2831,-1.16232 1.23806,3.0225 1.41364,6.26316 1.75922,9.46793 0.85468,2.13297 2.54231,6.89758 1.38244,7.6916 -0.1941,-1.92546 -0.3779,2.98907 -0.87404,-0.20229 -0.0345,-0.15515 -0.0677,-0.31179 -0.10253,-0.46649 z m 7.8367,0.2106 c 0.13995,-3.44956 -0.68823,-7.05776 1.11393,-10.09795 0.68553,-1.95362 0.93172,-9.62024 3.83299,-5.44657 1.80441,2.42098 -1.50793,1.362 -1.91354,0.37917 2.38266,1.54789 1.76492,3.76444 -0.32618,1.79411 1.06039,0.85065 2.39844,3.22146 -0.10284,1.95569 -1.79129,-1.11796 2.83716,2.32493 -0.30646,1.56894 -1.61435,-0.42246 2.22863,1.5918 -0.75506,1.46289 -0.75236,-0.0784 2.47104,0.48506 0.20519,1.29116 -2.25863,0.74135 1.69467,0.0306 0.0249,1.90082 -0.51491,1.6148 -1.14748,4.3393 -1.77296,5.19174 z m -11.94796,-3.57786 c -3.09415,-3.168 5.18902,-0.73429 0.61275,-0.39366 1.00033,0.43878 2.64397,0.90797 0.24786,0.84578 3.98788,0.81615 -0.49593,1.60271 -0.86061,-0.45212 z m 16.3885,-0.13847 c -2.99224,-0.315 -1.67753,-2.1243 -0.2849,-1.56957 -4.36743,-0.45786 2.61736,-2.34125 1.15102,-1.77347 -3.36673,-0.38076 -0.16639,-0.5401 1.35745,-0.65135 -2.10183,0.1987 -4.23616,-0.72894 -2.21662,-2.79577 0.192,-2.39599 3.05258,-1.87003 3.3777,-0.21003 -1.89008,-0.57213 -2.88991,-0.97682 -0.61075,0.4094 2.30661,1.11917 2.93189,-1.35305 0.34763,-1.23786 -2.90294,-1.74365 0.69632,-5.33011 1.89684,-7.14636 2.72783,-2.10854 5.11796,-5.10715 8.82171,-5.39361 0.57837,-0.49924 6.93485,-0.71292 3.92457,-0.87498 -5.02702,1.0914 -0.0556,-5.18956 -1.17163,-5.67055 -0.33885,1.20525 -2.43659,8.14156 -2.47929,3.69654 0.55215,-1.19437 0.27844,-6.22064 -0.24248,-2.48241 0.29184,1.96357 -1.18674,6.92761 -1.2458,2.21031 0.0633,-1.34232 -0.85994,-5.87534 -0.70322,-2.10937 0.74542,1.62782 -0.28551,7.57187 -0.7601,2.8363 -1.0006,-2.39673 -1.75025,-6.47712 2.32681,-5.5757 2.40682,0.67457 5.23849,-0.29517 2.87063,-2.86323 -1.72897,-3.7307 -3.10424,-7.62739 -5.0938,-11.23504 -2.41999,1.43261 -2.27458,0.40765 -0.45057,-1.04484 2.45417,-0.74257 3.65148,3.96365 5.62725,4.00348 1.74992,1.7857 5.06075,1.78498 4.08068,5.17213 -0.0495,4.73544 0.0336,9.47096 0.0319,14.20711 -1.77759,0.41775 2.41083,6.50304 -2.45251,6.01328 -3.42982,-0.19889 -5.64364,3.30694 -8.95327,3.11181 -2.74626,-1.73573 0.98623,1.28146 -1.43698,2.40391 -2.20016,1.89909 -4.66928,4.16002 -7.29427,3.50533 2.62617,-0.088 3.12225,2.79324 0.10454,2.28065 -3.09427,-0.23153 3.31382,0.43564 0.21151,0.93438 0.11981,0.67684 -0.25827,1.39365 -0.73401,1.84951 z m 5.47381,-8.73125 c 2.61683,0.25134 -1.41978,-3.8558 1.38813,-3.16592 -1.2904,-0.73124 -4.8965,0.2708 -1.70637,0.9988 1.83768,1.14835 -3.19335,-0.5911 -1.56354,1.96291 0.34943,0.70929 1.38134,0.84271 1.88178,0.20421 z m -23.48427,6.35359 c -0.24471,-1.64204 4.33894,-0.491 0.99469,-1.06193 -0.8792,0.30477 -2.63597,-0.52945 -0.71511,-0.5859 -4.83989,-0.49265 4.35016,-2.12893 0.21636,-1.54184 -2.05758,0.73581 -5.83786,-1.46353 -2.26839,-1.92865 -1.34951,0.67705 -4.03242,-0.42253 -2.7182,-1.85432 2.34313,3.02444 3.27957,-2.462 0.29418,-1.35725 -1.24597,-0.4719 2.63661,-1.21729 3.48556,0.25685 -1.97427,-3.35561 -5.78138,-0.0202 -8.2936,-0.54813 -2.83203,-2.0126 -7.336,-2.66904 -9.57481,-4.48752 -0.60679,-2.52509 3.42942,-4.83082 -0.28337,-4.76025 0.49584,-4.58101 -1.04029,-9.7746 1.12821,-13.93206 1.67444,-2.76124 3.91202,-5.26077 5.45859,-7.99311 0.99601,2.0094 -0.24822,-0.4267 0.87437,-0.0319 -1.32134,-2.55043 4.52458,-4.93994 4.47386,-4.09633 -2.36416,0.33296 -2.21916,3.20228 -1.92079,3.79541 -2.86237,1.67224 -2.62376,6.118 -4.4455,8.80881 -0.80887,2.18234 -4.0284,6.59848 0.44793,5.27123 2.57357,-0.0308 7.98924,0.71965 5.74273,4.32834 -0.35663,1.3639 -1.79003,6.14244 -1.82817,2.18539 0.22653,-1.89234 0.91313,-7.12679 -0.0572,-2.52564 -0.11318,1.58326 -0.92626,6.09643 -1.10224,2.02 0.0673,-1.21805 -0.16612,-7.50157 -0.53769,-3.2809 0.44107,1.60459 -0.42904,7.26553 -1.12687,2.7138 0.0598,-1.3852 -1.09319,-6.85197 -0.86459,-2.72225 0.77786,1.52887 0.45768,6.67869 -0.90005,2.59084 0.06,-1.42376 -2.11354,-6.49984 -1.42086,-2.76977 1.42194,2.3515 2.21332,5.81847 -1.81206,4.67516 1.72873,0.59027 6.97592,0.62256 9.3185,2.99783 2.686,1.97883 5.85314,4.58137 6.99418,7.74751 0.28081,1.00318 1.82736,2.7148 -0.33278,2.73447 2.96792,-1.24846 4.87435,5.26055 3.17029,5.93451 -0.77759,-0.0487 -1.80043,0.006 -2.39714,-0.58237 z m 18.13415,-10.31222 c -3.23594,-1.58758 0.60944,-7.07976 2.01719,-2.44466 1.71225,2.89809 -0.98459,1.69689 -2.04766,-0.17431 1.08351,1.35307 3.91897,6.24268 0.0305,2.61897 z m -18.5153,-0.063 c -0.22493,-0.74893 -1.34109,-1.00213 0.20498,-2.22372 1.90682,-2.93672 3.58249,-0.0511 0.95043,1.40534 -0.0403,0.0255 -1.51107,1.82966 -1.15541,0.81838 z m -1.48166,-1.32291 c -0.52132,-1.86829 3.4739,-6.46018 0.39858,-2.54878 -2.95406,3.17939 -1.02071,-2.01556 0.0764,-3.21591 0.67264,-1.74991 -3.81296,6.31828 -2.49644,1.73684 0.95293,-1.50521 2.17626,-5.63397 0.52263,-1.84836 -0.40083,1.52997 -2.96757,3.77217 -1.60442,0.65719 0.66152,-1.12764 2.28382,-5.89952 0.50694,-2.20288 -0.10819,1.32808 -2.58174,4.79617 -1.81321,1.46033 0.61353,-1.6077 1.76397,-6.797 0.40204,-2.41365 -0.1271,1.84302 -2.72884,4.58679 -1.5248,0.96242 0.28023,-1.84737 1.16652,-6.785 3.50007,-3.38219 1.83559,2.06458 6.08545,5.56397 4.80892,8.22324 -1.14062,0.52133 -1.28486,2.92607 -2.77675,2.57175 z m 22.00752,-1.5888 c -4.08516,-1.79562 1.4107,-8.28713 2.4612,-2.61395 1.1846,2.68665 -0.44654,3.04309 -1.63512,0.64671 -3.52063,-4.51999 3.84065,5.70035 -0.33338,2.54896 z m 2.72113,-2.63213 c -0.74639,-2.39035 -3.24494,-3.69952 -0.32873,-5.61976 1.87791,-2.55781 6.68283,-4.96386 5.92613,0.26948 0.74619,2.02477 -0.21655,5.1068 -1.08422,1.3777 -0.30994,-1.31026 -1.88163,-5.07553 -0.95148,-1.7486 1.1954,1.23003 1.21692,7.23095 -0.51489,3.30182 -0.36626,-1.25017 -2.56342,-5.50426 -1.1863,-1.97151 1.51078,1.31296 1.50647,7.58921 0.007,2.81697 -0.48822,-1.33975 -2.98478,-4.86407 -1.20773,-1.50694 1.31961,1.42172 1.78134,5.68597 -0.0712,1.84512 -0.96435,-2.32602 -1.61318,-2.01852 -0.27584,0.061 0.92996,1.23985 0.84918,3.7363 -0.31253,1.17479 z M 137.61939,238.25 c 1.19385,-0.89897 1.81615,-1.84036 1.44843,-2.54012 0.65062,-0.34197 3.15237,-2.29921 1.25604,-0.63466 1.6072,-0.21981 2.14046,-1.36044 3.21282,-1.2592 0.67414,-1.74479 2.25008,-0.23185 2.81985,-1.76277 -0.91507,1.78009 -3.51541,2.19496 -1.76887,4.24278 -1.38495,2.36678 -3.53799,-1.60984 -5.05918,1.03673 -0.59803,0.37422 -1.21745,0.74524 -1.90909,0.91724 z m 29.75406,-0.88448 c -1.5911,-3.03814 -3.21485,0.56793 -4.98518,-0.34524 -0.0706,-4.74195 4.20833,0.0577 6.12981,-0.0958 -1.42072,0.59537 2.49647,2.00454 -0.49157,0.91212 l -0.65306,-0.47107 z m -20.90683,-5.66357 c -0.49598,-2.85338 1.99056,-0.38861 2.79827,-2.60847 0.55627,1.89143 5.08262,-7.11193 2.97239,-2.56333 -1.48521,2.01494 -3.07457,4.80915 -5.77066,5.1718 z"
         id="path53" /><path
         style="fill:#2c2104"
         d="m 138.26928,298.28152 c -4.51996,-2.73939 -9.03993,-5.47877 -13.55989,-8.21816 0,-6.38358 0,-12.76717 0,-19.15075 11.44857,1.90262 20.22541,11.58942 23.62274,22.32382 1.55188,4.15062 2.88774,8.40614 3.57917,12.79229 -4.83467,-1.99182 -9.08983,-5.20025 -13.64202,-7.7472 z m 16.33802,8.15126 c 1.30962,-7.34361 3.98696,-14.46648 7.6069,-20.97191 4.14246,-6.66961 10.39523,-12.73393 18.29854,-14.37495 3.43594,0.66523 0.75276,6.08295 1.55233,8.84133 -0.0244,3.27683 -0.0489,6.55365 -0.0733,9.83047 -9.12666,5.55844 -18.09556,11.41379 -27.34738,16.74324 l -0.037,-0.0682 z m -2.49807,-4.28556 c -1.00836,-2.61986 -1.08917,-8.90071 -1.85232,-9.54485 0.0541,-1.42015 -0.76638,-4.89501 0.33867,-3.07982 0.50889,2.10308 1.04344,6.00155 1.24577,8.8188 0.24159,0.68541 0.94485,6.41827 0.26788,3.80587 z m 2.33568,0 c 0.67363,-5.96908 0.96956,-12.01944 2.50064,-17.8542 0.7378,3.88096 -0.13631,5.63467 -0.71011,9.6256 -0.61304,2.47765 -1.28071,8.55895 -1.79156,8.78493 z m -1.23492,-2.31511 c -0.38628,-5.67277 -0.75444,-11.34675 -1.12437,-17.02061 3.88311,0.65214 0.28223,5.98284 1.86318,8.56458 -0.0681,2.96022 -0.2672,8.47498 -0.62645,9.85842 -0.0488,-0.46652 -0.0767,-0.93479 -0.11236,-1.40239 z m 4.75133,-7.73906 c -0.28742,-5.25379 2.00392,-10.24993 4.05905,-14.96271 2.59544,-4.96291 6.3233,-9.86938 11.5891,-12.10238 1.64694,0.0119 -3.43652,1.71195 -4.1323,2.78979 -3.98171,2.85967 -5.93367,7.4974 -8.33859,11.5866 -2.38984,2.87922 4.56848,2.19435 0.43409,2.62759 -2.97876,0.67442 -2.01766,4.43292 -3.14157,6.92975 -0.27924,0.71789 -0.0167,3.19439 -0.46978,3.13136 z m -9.42535,-3.23669 c -0.20255,-1.55426 -0.55538,-3.35453 -2.58478,-3.06186 2.29271,-0.19086 1.29173,-0.66499 -0.24218,-0.81556 3.4157,-0.002 0.65197,-2.12799 -1.25955,-1.5176 2.01109,0.88777 2.64241,-1.91711 2.27815,-1.88198 1.04432,2.5467 2.54609,8.53856 2.30133,9.18439 -0.20188,-0.62578 -0.33233,-1.27071 -0.49297,-1.90739 z m -2.54874,-8.63169 c -2.3198,-5.69465 -6.04061,-10.93247 -11.25482,-14.29667 4.91319,2.36895 8.25252,7.4556 10.73264,12.27747 0.16308,0.13891 1.49529,3.46517 0.52218,2.0192 z"
         id="path52" /></g><g
       id="g56"
       transform="translate(3.7017169,4.4420593)"><path
         style="fill:#648470"
         d="m 103.0081,178.38413 c -0.10669,-4.49214 0.14526,-8.99802 -0.29433,-13.47825 -2.3789,0.0701 -5.826789,-0.0847 -8.743498,1.5719 -1.754815,0.98197 -2.933266,0.93321 -0.617982,-0.44224 1.590677,-1.09124 -4.415143,-1.83124 -3.079017,-1.34116 -1.050967,-0.40995 -3.010878,0.62811 -1.873931,0.77584 0.951892,-2.07711 -0.313897,3.95536 -0.36798,0.40881 -0.995417,-1.93943 -4.345647,5.21993 -2.696625,1.49405 -1.294987,0.45455 -4.371768,1.0536 -1.469806,1.31185 0.08209,1.14668 -4.804983,-0.12197 -1.985476,-2.05754 2.923763,-3.44572 7.665446,-3.87216 11.755646,-2.83359 3.550038,-0.1662 9.188179,-1.55021 9.431389,-5.70766 -0.006,-1.85615 -0.012,-3.71231 -0.018,-5.56846 -2.32212,5.71077 -9.08255,7.34528 -14.652655,7.54323 -4.461004,0.33384 -9.957096,2.30069 -10.731077,7.31979 -0.307183,1.62255 -1.26255,5.59778 -0.648952,1.80798 0.410171,-1.55798 -0.319352,-4.02065 -0.906353,-1.01493 -0.645266,1.38219 -1.729265,4.90872 -1.026465,1.51414 0.953925,-4.80413 3.198352,-9.32302 6.473244,-12.95989 0.294434,-2.45038 -3.618601,1.43114 -4.013331,2.67956 -1.67182,2.47431 0.129629,-5.18067 0.08114,-4.39901 -0.464864,1.69978 -0.167321,4.11885 1.569743,1.71111 1.938702,-0.88424 4.749228,-2.86461 1.437029,-4.18718 -2.55712,-1.53132 -4.963741,-6.46611 -6.565622,-6.71316 -1.623986,3.51749 -5.946842,5.81863 -7.344396,8.83236 1.468991,1.33215 6.659079,4.27772 4.868041,4.95393 -0.928793,-1.44045 -3.669819,-4.5762 -4.592962,-3.37329 2.601682,3.81691 5.740106,7.62858 6.32383,12.37366 -0.421614,-1.44667 -1.636691,-3.7411 -1.248914,-1.12915 -0.560348,-0.82824 -1.427545,-1.84495 -0.903702,-0.0281 -0.744154,-2.82933 -2.72739,-5.24472 -5.555383,-6.19998 -5.284073,-2.13965 -11.669651,-0.55391 -16.341611,-4.37551 -3.128642,-2.1672 -4.491027,-5.87714 -3.870425,-9.56806 0.0019,-1.26113 0.0038,-2.52227 0.0057,-3.7834 2.391539,8.18417 13.024039,13.72311 20.626981,8.90358 1.644447,-0.93759 3.483097,-3.42116 0.458264,-1.37324 -1.388271,0.80612 -4.466574,-0.34519 -1.388742,-0.73634 5.891705,-2.29678 8.104998,-8.92617 9.213377,-14.61684 1.147192,6.34761 4.444524,13.48012 11.161934,15.36347 -1.802472,1.44209 -7.603442,-2.79527 -3.599841,0.80312 6.230154,4.74812 15.893492,1.81375 19.748688,-4.61987 1.24135,-0.83073 1.59855,-5.62771 1.54595,-1.97927 0.13344,15.60165 0.2115,31.20479 0.0346,46.80644 -0.18523,-4.5605 -0.15063,-9.12574 -0.19846,-13.68873 z M 45.48202,167.59877 c 0.457449,-2.11382 -0.981935,-7.29257 0.883293,-7.42179 3.087337,3.41042 7.755211,3.84033 12.002121,3.02063 3.411849,-1.14286 9.843652,3.81409 8.953166,4.61011 -1.225444,-1.9268 -1.104425,0.88411 -1.722751,-1.81193 -0.610513,-1.74225 -5.214944,-2.17774 -2.570296,0.10738 0.413956,0.96252 1.788262,3.05895 1.223041,0.75335 1.34646,1.90893 1.099511,3.36527 -0.794579,1.03041 -0.757117,-1.082 -3.148653,-3.62208 -1.825726,-0.58226 1.548539,2.00734 -1.242622,1.33283 -0.307725,-0.0132 -2.120464,0.479 -3.814785,2.07827 -5.62657,-0.37809 -2.771106,-1.78739 -10.807714,-3.79669 -9.974474,1.50267 -0.02125,1.87943 -0.224597,8.52812 -0.224539,3.32986 -0.0089,-1.38236 -0.0071,-2.76477 -0.01496,-4.14714 z m 46.778248,-16.53646 c -0.516454,-4.09278 -5.787414,-5.5287 -6.054078,-9.8568 -1.366201,-2.9597 2.532657,-11.46079 5.122344,-6.65254 -3.810701,2.86418 -1.342224,7.83807 0.832801,11.0035 0.765888,1.45554 1.443898,4.29753 0.09893,5.50584 z m -36.261627,-0.77494 c -1.324863,-5.02285 5.173407,-8.76292 3.044754,-13.79554 -3.496102,-1.68006 0.876907,-6.49184 2.041299,-2.30694 2.733414,3.87418 1.89958,9.3684 -1.697389,12.38409 -1.318755,0.17337 -3.303338,5.6093 -3.388664,3.71839 z"
         id="path60" /><path
         style="fill:#536d5d"
         d="m 70.726777,181.69924 c -0.969237,-2.6814 -3.741263,0.48389 -4.313901,-2.43631 -2.939197,-3.17783 -5.149355,-6.92914 -7.958866,-10.14523 -2.306959,-1.19949 3.441015,-2.23849 3.278232,-1.35622 0.735834,2.34926 4.387264,4.81318 7.345679,3.99666 1.350844,0.52401 3.551539,6.23011 3.085046,2.14053 0.238504,-2.38938 -1.241773,-5.72598 -0.734343,-7.40798 1.085839,2.71166 0.340302,-0.88252 0.973038,-0.0718 1.353218,1.60848 1.589684,7.83306 3.05666,3.18321 0.188177,-1.52786 1.747978,-4.96611 1.685298,-1.38369 0.07168,1.91099 -1.926528,6.44621 0.06915,6.7775 0.717239,-4.45921 5.560755,-2.16888 7.804831,-4.69905 2.386184,-0.75341 2.380842,-4.0894 2.508584,-4.97791 0.857158,-0.11519 0.5069,3.30479 1.154753,0.47599 0.234921,-2.36418 -0.668338,1.5559 -0.577941,-1.02937 1.258968,-0.0484 2.457945,0.22918 2.167536,-0.36472 1.892118,0.91338 4.608912,0.50457 2.085267,2.50935 -1.568689,1.8062 -4.274962,4.12014 -5.55364,6.89612 -1.859243,1.91981 -4.072965,5.7194 -5.752602,6.5259 -1.037147,-2.22624 -2.13295,1.59571 -2.907384,0.41323 1.221391,-1.35445 1.192366,-3.73496 -0.451856,-1.19909 -1.187896,1.47655 -0.562497,2.08383 -1.885911,1.02723 -2.457783,0.56234 -4.845961,-0.61519 -6.085759,-1.85023 -0.03859,0.32016 1.887042,3.70584 1.008129,2.97583 z m -5.300198,-12.57912 c -1.111912,0.20173 -0.728943,-3.96959 -1.043718,-1.10854 -1.538647,0.26526 -0.121808,0.67425 -1.110939,-1.29165 -1.169127,-0.99889 -1.49153,-3.08603 0.613567,-2.34003 0.892399,1.61432 1.679479,0.41118 2.615594,2.23385 0.867813,0.77108 2.704642,3.52256 -1.074504,2.50637 z m 5.657826,-14.67933 c 0.913175,-2.57572 -3.197788,-3.02335 0.08551,-4.55666 1.785318,-1.53411 3.330012,-6.53011 5.0697,-2.04009 -0.184671,3.20001 2.53338,4.51226 1.039157,7.76694 1.314138,-4.44552 -5.287677,-5.80452 -5.845011,-1.22851 -0.06098,2.46859 -0.502388,2.91635 -0.349355,0.0583 z m 10.127474,-13.92732 c -3.58898,-2.26826 -3.042934,-9.28355 0.739674,-11.03217 2.573128,0.70091 -1.906987,4.19698 -1.27695,6.36065 -0.987255,1.098 1.102782,5.63561 0.537276,4.67152 z m -13.951643,-0.57518 c 3.227569,-3.43863 -1.498574,-9.34574 -1.815542,-10.77361 1.735039,0.80151 3.8728,0.90647 1.972525,-1.21333 1.660236,-3.23716 3.092789,1.70074 1.682603,1.94233 2.094907,2.96417 0.284003,8.10139 -2.185327,10.59775 -0.463565,0.23078 0.481168,-1.36091 0.345741,-0.55314 z"
         id="path59" /><path
         style="fill:#304438"
         d="m 74.787819,194.28183 c 0.383205,-4.60102 1.258076,-9.23427 3.268319,-13.4224 1.316785,-0.25399 1.284832,-0.54641 1.874416,-1.09066 2.978986,0.67972 -0.715577,4.54869 -0.901064,6.528 -1.23265,2.81955 -1.940878,5.87973 -3.309331,8.61426 -0.853735,0.19579 -0.284777,-1.10018 -0.979918,0.14516 z m -2.293915,-0.19542 c -1.525184,-4.47031 -2.752719,-9.18734 -5.220432,-13.2317 -0.669762,-1.15866 0.462799,0.65573 1.137986,-0.39875 3.404893,-1.15881 3.137622,3.84247 4.421937,6.23187 -0.418463,1.76141 3.296117,8.22897 -0.339491,7.39858 z m -5.465971,-6.53319 c 0.01694,-2.34573 -2.287978,-2.08787 -1.82164,-1.7089 -1.880213,-2.13381 -4.472493,-2.02103 -5.045303,-5.32736 -1.828497,-4.02846 -7.397837,-3.35186 -10.194097,-0.80644 -1.855261,0.76667 -3.611436,5.5693 -4.078834,4.71506 0.19242,-3.84519 -1.470226,-9.17307 0.840345,-12.06435 6.569455,-3.58988 15.206906,0.55932 17.78388,7.29098 1.065674,2.08203 3.09133,7.6827 2.735876,8.26046 0.130678,0.40883 -0.196376,-0.79014 -0.220227,-0.35945 z m 6.799621,-1.89664 c -1.565559,-2.60407 -3.014266,-6.52463 1.614649,-5.2199 2.978976,0.79349 -0.83204,5.64301 -1.364002,6.09771 l -0.123398,-0.35835 z m 28.624506,-1.14886 c -1.91802,-4.40813 -7.097914,-8.41934 -12.014574,-6.2359 -1.907556,0.63322 -3.135359,6.77653 -3.644831,5.32913 1.598192,-2.4401 -5.754881,1.65615 -3.129774,-2.37777 1.947277,-6.50967 9.064085,-12.01309 15.980625,-9.78263 5.374854,0.35487 2.886694,6.84546 3.422144,10.40136 -0.22832,0.61899 0.4204,5.43691 -0.61359,2.66581 z M 60.332434,147.87768 c -1.149914,-2.12077 2.73063,-5.00929 2.778225,-5.95538 2.543882,0.0607 4.34135,-2.60745 5.389006,-3.428 1.351352,-1.90964 1.410842,-6.27558 1.695785,-7.07944 0.01687,1.60668 1.622716,7.21417 0.420736,6.38634 -1.018039,-3.60777 -1.817769,2.62616 -2.109883,3.6926 -1.080487,2.98016 -4.63546,7.79921 -8.173869,6.38388 z m 26.070678,0.48292 c -2.960664,-1.04164 -4.651897,-4.16854 -5.628385,-6.92062 -0.80598,-0.79588 -1.554312,-4.26703 -0.644457,-1.44344 0.795158,0.54295 2.510619,1.12429 1.194208,-0.38437 3.050426,1.82093 6.961712,4.11511 7.642869,7.67796 -0.365857,0.95945 -1.599294,1.73477 -2.564235,1.07047 z m -7.656146,-17.16016 c -0.317467,-2.07719 0.905603,-6.0554 2.792702,-2.94034 3.609215,1.29993 -2.228809,1.65069 -2.410541,3.73417 -0.533351,0.73843 -0.535454,-0.76962 -0.382161,-0.79383 z"
         id="path58" /><path
         style="fill:#141e17"
         d="m 59.878633,201.12987 c -4.740451,-2.87766 -9.480903,-5.75532 -14.221354,-8.63298 0.437531,-2.91572 -0.900133,-6.52433 1.070819,-8.90782 2.052709,-3.32194 5.484174,-6.75435 9.755853,-5.8198 4.715364,0.61943 3.686947,6.80003 8.285085,7.41596 1.103608,2.4471 -0.09716,-1.55837 1.54384,0.78476 0.625451,1.93195 1.795565,2.66845 0.725721,0.24361 -1.742586,-5.6657 -4.341326,-12.00019 -10.3128,-14.29498 -3.490025,-1.80231 -8.336854,-0.63568 -11.06852,0.91917 0,-2.23563 0,-4.47127 0,-6.7069 5.752009,-2.50204 12.087641,1.41312 15.128607,6.29822 4.974612,5.67364 9.363257,12.15423 10.929268,19.63861 0.289593,2.23167 3.301482,2.72264 2.11291,-0.0288 -0.582944,-4.72318 -2.062105,-9.30833 -4.114863,-13.59183 2.377297,1.8573 3.602294,7.28436 4.864028,8.00243 0.835329,-2.279 3.134097,-7.11107 4.127238,-7.23209 -2.332163,4.93197 -3.790853,10.3242 -3.897083,15.7956 2.078644,0.0147 2.496351,-5.47878 3.865117,-7.88414 1.690151,-4.7866 4.460054,-9.08245 7.862967,-12.82109 2.799495,-3.96231 6.211634,-8.15975 11.339528,-8.88642 2.905306,-0.64214 6.494576,0.28877 5.220176,3.98578 0.39115,2.71807 -0.41955,3.71112 -2.75526,2.10517 -6.86196,-2.29398 -14.335279,2.58687 -16.50319,9.17252 -2.245935,3.52774 2.345384,1.93406 3.424738,2.28335 -2.449326,2.97498 2.030008,-0.46377 1.051098,-2.05294 1.806828,-4.39318 8.019121,-4.0901 10.799036,-0.83075 3.605428,2.68371 4.376328,7.29051 3.840788,11.48197 -1.67258,2.43917 -5.538667,3.62959 -8.062136,5.59281 -6.846512,4.24788 -13.682199,8.51489 -20.614256,12.62259 -4.835381,-2.82329 -9.603629,-5.75914 -14.397355,-8.65203 z m 10.904509,-27.57245 c -1.418772,-3.63378 -6.973812,-0.72412 -8.315486,-5.04853 -0.873504,-1.30627 -1.678497,-4.12282 0.05598,-1.40823 0.888094,2.90315 6.947978,3.78778 4.919709,-0.27914 -2.955944,-3.30288 -7.687028,-4.55488 -11.965558,-3.61507 -4.105334,0.76099 -9.045706,-1.40859 -9.709565,-5.89344 -0.314218,-1.52791 -0.5325,-6.202 1.177352,-2.55358 3.495588,5.19456 10.375504,5.19642 15.960701,5.74329 4.469965,0.46453 7.721507,4.41781 8.246687,8.72357 0.431137,0.99178 1.755057,7.73868 -0.369817,4.33113 z m 5.962931,0.39135 c 0.454056,-4.74054 1.575543,-10.63549 6.528695,-12.64777 5.310457,-2.00167 11.81019,-0.29927 16.39322,-4.25169 1.553602,-0.91424 3.793752,-5.4942 3.403872,-1.43014 0,1.28828 0,2.57655 0,3.86483 -3.431,4.04666 -8.973674,4.09248 -13.785843,3.63456 -3.222114,-0.26026 -10.787512,3.26224 -7.406153,6.67238 2.008366,0.46554 5.013781,-3.70523 5.230018,-2.7392 -1.081455,3.95268 -5.41941,4.55287 -8.457101,5.10868 -0.672345,0.63612 -2.511097,5.58974 -1.906708,1.78835 z m -2.486783,-2.88091 c -0.744071,-5.69678 -3.988748,-10.62517 -7.245551,-15.20378 2.774767,-0.19643 4.326895,5.60392 5.410488,4.85379 -1.489799,-3.13833 -0.948577,-11.73597 4.084006,-7.96664 1.781055,2.27734 -0.656415,7.05405 0.100751,8.21654 0.988231,-1.80342 4.005697,-5.24561 4.991146,-4.68072 -3.380657,4.06703 -6.023819,8.82928 -6.963813,14.07621 -0.221916,-0.31144 -0.03702,0.92187 -0.377027,0.7046 z m -4.090892,-14.14479 c -2.90751,-1.11957 -4.936927,-4.14873 -0.511549,-5.00224 1.761835,-0.66422 1.957553,7.91732 0.511549,5.00224 z m 7.824588,-2.19114 c -0.866521,-3.0837 1.732461,-3.44788 3.500551,-1.31962 2.000058,1.43991 -2.765465,3.29303 -3.575076,3.54104 0.04232,-0.73981 0.0512,-1.48091 0.07453,-2.22142 z M 55.51557,153.34526 c -4.686529,-1.73515 -9.02605,-5.49611 -10.065301,-10.56125 1.571695,-4.21547 6.730626,-5.11793 9.844584,-7.83468 5.547955,-0.86709 4.334111,6.44996 1.901084,9.16875 -1.521286,1.903 -2.463558,6.67745 -0.490553,7.5148 -0.278347,-2.81023 2.347041,-6.10198 4.879346,-3.22442 3.016219,-0.008 4.863914,-3.32069 6.183398,-5.69316 1.148656,-1.83414 1.62602,-5.61462 2.279767,-6.55164 0.351336,1.30906 1.335242,3.53914 0.926151,0.70429 0.540993,-3.72177 -3.158222,-8.47416 -0.288275,-11.33107 2.339373,-1.76657 4.474186,-2.25249 6.817981,-0.26255 3.61667,2.30016 0.402762,7.1444 0.565771,10.51766 -0.465628,2.53905 0.5196,1.92186 0.898429,1.1517 1.279067,4.47652 3.093879,9.58769 7.644,11.65758 1.887376,-0.60196 3.741163,-2.67083 4.863937,0.33569 0.49428,1.57139 1.161053,4.03967 1.697591,0.86752 0.965367,-4.79068 -5.007502,-7.98763 -3.585116,-12.81799 2.259436,-5.55164 7.099166,1.26059 10.399979,2.36117 4.255847,0.98507 3.421257,5.73104 1.316157,8.42169 -4.136115,5.39344 -12.531673,8.05182 -18.622459,4.44049 -1.459141,-1.06554 -2.203775,-1.57686 -0.02493,-0.80962 1.905137,0.5583 4.643092,-0.88633 1.15277,-1.29314 -6.130266,-2.38964 -8.290433,-9.44396 -9.19126,-15.37939 -1.019285,-0.54497 -0.882296,4.7042 -1.915201,6.1425 -1.485827,4.21818 -4.349521,8.82584 -9.06585,9.68068 -1.719584,2.35179 6.324352,-0.93162 2.771953,1.39917 -3.131222,2.18324 -7.306476,2.49132 -10.893952,1.39522 z m 7.336485,-13.03604 c 0.559319,-2.99248 -2.119519,-6.27483 -2.538825,-8.22723 2.138683,-2.14259 6.096646,-3.71104 6.857387,0.56235 2.412733,3.41547 -0.151571,10.10307 -4.351475,8.98248 l -0.02534,-0.52944 z m 21.010776,1.07362 c -4.607503,-2.15698 -3.641863,-8.84884 -0.286356,-11.6481 3.880188,-0.10354 6.002959,4.07506 2.765791,6.79999 -1.10435,1.45461 1.203541,7.52041 -2.479435,4.84811 z"
         id="path57" /></g><g
       id="g60"
       transform="translate(49.356215,-112.53218)"><path
         style="fill:#62c2c8"
         d="m 90.702612,374.31233 c 0.01198,-2.14208 -0.0273,-10.28973 0.06957,-8.35633 0.05223,4.88195 0.06151,16.62451 -0.04485,17.25881 -0.03815,-2.96735 -0.01403,-5.935 -0.02472,-8.90248 z M 60.804325,363.26598 c -4.093535,-3.28733 -4.571021,-8.7398 -6.346081,-12.66777 4.161009,-1.36497 7.447942,-7.71711 11.097273,-2.35307 6.703609,1.76883 0.564144,6.31285 0.197023,10.59372 4.312026,-1.6469 -2.857515,3.38762 -2.921308,5.01893 -1.052385,1.00528 -1.518623,0.30208 -2.026907,-0.59181 z M 40.704179,352.95334 c 2.959679,-2.83752 5.61558,-2.03984 5.854583,-0.46616 -0.740638,0.50979 -7.442191,1.7585 -5.854583,0.46616 z"
         id="path66" /><path
         style="fill:#d35dbb"
         d="m 57.04026,387.49568 c -1.008022,-4.43105 -2.687722,-8.8756 -1.629315,-13.46755 0.753416,-4.23387 -5.372107,-8.36176 0.794948,-9.96398 4.960657,-1.54382 5.861738,6.85745 3.947519,10.14641 -0.676556,5.7424 0.230289,12.33392 -2.117885,17.38051 -0.328963,-1.36581 -0.663682,-2.73022 -0.995267,-4.09539 z m -5.758619,-11.29749 c -3.156991,-2.32923 -6.723433,-7.55085 -6.208338,-11.00975 5.335217,-3.57555 11.515588,10.98555 6.208338,11.00975 z"
         id="path65" /><path
         style="fill:#e1b047"
         d="m 61.645186,406.643 c -0.728079,-5.89352 -4.202408,-11.82311 -2.681002,-17.75852 1.555769,-6.26699 0.190321,-12.88169 2.012822,-19.1139 3.030158,1.58382 2.431008,-8.36709 7.133144,-4.70112 6.05575,1.15193 -1.882566,7.34892 0.829789,11.67025 0.327952,5.16526 -2.142021,10.17549 -3.005736,15.2578 -1.260424,4.62911 -2.280196,11.72015 -4.289017,14.64549 z m 9.341152,-30.91373 c -1.772894,-7.42976 6.199277,-13.18289 12.898058,-13.53114 2.90947,0.10624 -4.763731,2.9436 -4.889998,5.27078 -2.274726,2.30125 -3.711573,11.08338 -8.00806,8.26036 z"
         id="path64" /><path
         style="fill:#69f24d"
         d="m 69.014596,365.58108 c -7.421877,-1.63445 1.698454,-7.43958 5.10533,-8.45867 5.232599,-3.38284 10.779571,-1.02341 15.490311,2.05468 1.099199,1.13165 -7.108418,0.29518 -9.670458,1.77313 -4.271493,0.13204 -6.994166,5.77087 -10.925183,4.63087 z m -2.135378,-6.5843 c -2.598552,-3.40575 3.460264,-10.64628 7.700861,-6.1337 4.031583,2.49192 -7.269471,3.55606 -7.700861,6.1337 z"
         id="path63" /><path
         style="fill:#624ce7"
         d="m 43.333368,365.55784 c -2.131962,-1.94013 -7.671005,-4.38225 -1.481728,-3.17638 2.167922,0.35709 7.837544,1.92176 3.139675,3.02851 -0.983029,0.27232 -0.981378,1.10964 -1.657947,0.14787 z m 7.689561,-0.93786 c -3.422116,-4.87377 -14.420851,-3.75284 -15.715825,-5.75748 3.949347,-2.85356 9.241389,-4.76948 13.85743,-2.22569 3.231525,1.30889 12.786557,6.60122 5.188508,8.57126 -1.473343,0.97396 -2.229019,0.81695 -3.330113,-0.58809 z m 4.557091,-6.56897 c -1.76111,-2.48878 -11.114745,-3.31777 -4.816436,-5.673 4.031062,-5.3445 7.381554,5.13033 4.816436,5.673 z"
         id="path62" /><path
         style="fill:#23222a"
         d="m 55.37471,404.52044 c -7.428343,-4.48556 -14.782754,-9.09221 -22.211155,-13.57767 0.03787,-17.05346 -0.144345,-34.10634 -0.327195,-51.15856 9.604509,-5.8397 19.094035,-11.87168 28.833299,-17.4873 -1.163178,6.63254 -3.177713,13.06967 -4.825897,19.58839 -0.701042,-2.36242 -0.706783,-9.58307 -1.643913,-8.92142 -2.205989,5.00886 -1.240714,12.1615 -6.181244,15.42494 -3.435388,1.67382 -12.483797,6.28407 -3.667559,4.55064 4.38272,-1.87963 8.591945,-4.2811 12.679307,-6.74919 3.005765,-1.2345 3.677395,-9.61514 5.446297,-2.81306 3.430901,4.94595 9.753421,6.39652 14.687664,9.39483 2.547296,1.25725 8.488643,0.94669 3.085525,-0.91882 -4.996706,-2.47042 -10.393986,-4.68834 -10.320628,-11.16155 -0.817307,-2.36649 -2.485772,-12.04527 -2.86254,-5.08295 0.18853,3.29151 -1.302222,6.89225 -2.008215,1.6211 -0.799707,-4.16379 -4.311126,-12.40052 -2.849757,-14.12763 9.238559,5.36612 18.24441,11.11783 27.363004,16.68237 -0.0322,6.57042 0.09995,13.14326 -0.128987,19.71146 -4.878183,-2.26307 -9.941754,-6.11653 -15.400878,-3.00449 -6.181571,2.37863 -11.097708,7.76684 -12.958242,14.11699 -2.692037,-7.73922 -9.481434,-14.50031 -17.891957,-15.24951 -2.947742,0.0972 -9.072769,2.69252 -9.371273,4.27276 7.509428,0.33939 16.733053,2.3118 19.926903,10.02953 1.325309,5.27452 -0.353672,10.7457 1.82675,15.94325 1.682967,7.28896 3.688567,14.501 5.255294,21.8172 2.270783,-5.89584 3.098774,-12.29327 4.856712,-18.3804 0.690545,-4.08762 2.707174,-8.19496 2.208156,-12.32596 -1.513982,-5.78665 1.953584,-11.65117 7.176807,-14.13159 4.429388,-2.34765 9.556611,-2.97166 14.507132,-2.8232 -0.0025,10.36285 -0.0049,20.72569 -0.0074,31.08854 -9.291171,5.65411 -18.520493,11.40919 -27.816892,17.05475 -2.956932,0.45657 -4.907617,-2.33718 -7.379118,-3.38345 z m -2.285562,-28.90319 c 1.380035,-7.79647 -7.079653,-14.06759 -14.30327,-13.45268 3.81697,2.29311 7.303018,5.91783 9.008664,10.29183 1.003964,1.43897 3.284872,5.85099 5.294606,3.16085 z m 20.305418,0.31987 c 4.358811,-3.03175 4.206029,-9.83662 9.420959,-12.11237 6.441462,-3.24058 -4.420896,-1.20587 -6.281448,0.68988 -3.555616,0.64579 -9.547027,13.01189 -3.139511,11.42249 z m -7.697618,-15.64118 c 1.991451,-3.27827 9.613415,-4.78224 9.556235,-6.6727 -4.594794,-2.18993 -10.116735,-5.89299 -13.692131,-7.82186 -3.621573,3.82448 -9.270799,4.87753 -13.162448,8.22611 4.638508,2.39758 10.2332,5.25201 13.143121,10.24984 0.965017,1.82614 2.552396,-3.45608 4.155223,-3.98139 z"
         id="path61" /></g></g></svg>
