<?xml version="1.0" encoding="UTF-8" standalone="no"?>
<!-- Created with Inkscape (http://www.inkscape.org/) -->

<svg
   width="57.873116mm"
   height="86.12056mm"
   viewBox="0 0 57.873115 86.120558"
   version="1.1"
   id="svg1"
   xml:space="preserve"
   xmlns="http://www.w3.org/2000/svg"
   xmlns:svg="http://www.w3.org/2000/svg"><defs
     id="defs1" /><g
     id="layer1"
     transform="translate(-268.94749,-125.35616)"><g
       id="g44"
       transform="translate(13.057604,8.700227)"><path
         style="fill:#e29641"
         d="m 276.71252,198.06459 c -6.78241,-4.11337 -13.57542,-8.20924 -20.37292,-12.29762 -0.0503,-1.80624 -0.10067,-3.61249 -0.151,-5.41873 2.79519,1.49758 6.22261,0.34734 9.22889,1.12496 2.52578,0.56994 8.82619,-1.44346 9.02426,-0.67119 3.40881,0.37931 5.43379,0.7151 7.55572,-2.14076 0.92191,-9.23131 0.57682,-18.54282 0.66825,-27.81256 -0.37887,-1.52675 2.02969,-3.45683 3.19322,-2.02746 1.51656,0.46316 0.93456,2.01857 1.04012,3.21612 0.0293,8.96123 0.0813,17.92372 0.39684,26.88023 1.7519,0.0259 2.11563,1.91593 3.39899,0.58409 -0.45376,1.53967 4.37895,-0.23761 5.99377,0.39626 3.38236,0.31788 7.18951,-0.76861 10.25781,0.37581 2.67408,-0.67271 7.85834,-1.4897 6.63183,2.8818 0.19827,1.34857 0.17898,2.57958 -1.3547,2.99243 -9.04818,5.55314 -18.01972,11.2358 -27.16423,16.62853 -2.90003,-1.32796 -5.59349,-3.1015 -8.34685,-4.71191 z m 7.01813,-52.64962 c -2.41797,-3.05056 -0.65544,-7.11054 0.58528,-10.27012 2.54636,-0.35888 2.27266,5.15309 2.36297,7.30627 0.18979,1.26561 -1.52406,5.75709 -2.94825,2.96385 z"
         id="path47" /><path
         style="fill:#a56439"
         d="m 265.00518,181.40394 c -2.87633,-0.65047 -6.13368,0.38402 -8.79787,-1.04339 0.0526,-5.62833 -0.0481,-11.2622 0.17645,-16.88582 3.83225,1.14511 8.03429,0.95098 12.03468,0.9578 3.46194,-0.26476 6.89136,-0.83797 10.53388,-0.83007 4.34203,0.91999 3.37658,-4.02553 3.44748,-6.78299 0.11114,-2.21145 -0.34459,-6.56526 0.59657,-7.40346 -0.7047,4.98015 -0.14767,10.09428 -0.37443,15.12556 -0.12295,4.70612 0.0106,9.44712 -0.62463,14.11975 -2.12192,2.85582 -4.14683,2.51995 -7.55564,2.14068 0.57078,-0.76179 -4.47375,0.61122 -6.15411,0.63872 -1.08684,0.0455 -2.20501,0.1632 -3.28238,-0.0368 z m 48.41431,-1.00914 c -2.27109,-1.59631 -5.76416,0.60314 -7.97947,-0.66818 -4.9237,0.35242 -9.92239,-0.14752 -14.81405,0.47167 0.26913,-0.25545 -0.71708,-1.23976 -0.9487,-0.03 -1.86376,-0.92481 -2.86105,-1.49983 -2.45575,-3.73824 -0.30447,-8.95717 -0.21865,-17.92066 -0.20269,-26.88131 0.11503,4.82846 0.12717,9.6617 0.34936,14.48594 0.98924,-0.88059 4.72149,-0.95981 6.97052,-0.93772 2.55449,-0.47554 4.50806,-0.57646 7.17848,-0.39224 3.84075,-0.0555 7.75929,-0.46011 11.55778,-0.0227 1.0556,3.65792 0.27638,7.71239 0.46971,11.52552 -0.0372,2.0622 -0.0262,4.12698 -0.12519,6.18727 z"
         id="path46" /><path
         style="fill:#4c2745"
         d="m 259.5146,164.22002 c -4.77425,0.69483 -2.87662,-5.16201 -3.35098,-8.11107 -0.0924,-7.30198 -0.18169,-14.604 -0.27373,-21.90599 9.59092,-5.85676 19.11003,-11.83482 28.78754,-17.54702 9.82745,5.53736 19.30617,11.68136 28.94255,17.54702 -0.0515,9.64406 0.0488,19.29233 -0.17521,28.93288 -3.39481,-1.36194 -7.45969,-0.33996 -11.11012,-0.46719 -2.97208,-0.17787 -4.97062,0.0713 -7.76272,0.26908 -2.17495,0.0816 -5.66615,0.57872 -7.07635,0.7119 -0.49261,-1.07562 -0.19643,-5.48084 -0.30296,-7.93364 -0.01,-2.00357 -0.0193,-4.00715 -0.029,-6.01072 -0.9675,-0.35231 -1.97125,-2.34762 -2.91138,-1.45953 -0.85314,0.82018 -2.30163,1.36205 -1.85112,2.79162 -0.1221,3.96171 0.33606,8.00492 -0.39603,11.89914 -2.83434,1.31751 -6.44087,0.35746 -9.57024,1.10626 -2.87776,0.26955 -6.17602,0.45434 -9.29274,0.39654 -1.20949,-0.0349 -2.43377,0.008 -3.62751,-0.21928 z m 26.21033,-18.57383 c 2.94993,-3.50404 0.54696,-8.13654 -1.03179,-11.70782 -1.76402,3.76184 -3.76215,8.87398 -0.40197,12.32751 0.5274,0.54168 1.15815,-0.30196 1.43376,-0.61969 z"
         id="path45" /></g></g></svg>
