<?xml version="1.0" encoding="UTF-8" standalone="no"?>
<!-- Created with Inkscape (http://www.inkscape.org/) -->

<svg
   width="90.735588mm"
   height="100mm"
   viewBox="0 0 90.735587 99.999999"
   version="1.1"
   id="svg1"
   xml:space="preserve"
   xmlns="http://www.w3.org/2000/svg"
   xmlns:svg="http://www.w3.org/2000/svg"><defs
     id="defs1" /><g
     id="layer1"
     transform="translate(-8.5857581,-325.89276)"><g
       id="g21"
       transform="matrix(0.50489616,0,0,0.50489616,-189.57945,167.69428)"><path
         style="fill:#d6a22b"
         d="m 484.99186,475.61243 c -6.36602,0.4981 -25.29911,-2.84862 -14.16296,-10.96493 5.84804,-4.9012 11.23228,9.78965 15.23598,2.95806 3.49572,2.69182 16.647,-3.74895 11.74677,3.93624 -4.1303,1.74796 -8.18331,4.06631 -12.81979,4.07063 z m -53.88473,-63.08099 c -10.96452,-5.13839 -23.19611,-1.79365 -34.6415,-0.73845 -7.44293,-5.58698 -1.12991,-16.40052 -3.25703,-24.22378 -0.14347,-3.98321 0.47136,-15.59508 -0.17283,-14.76896 3.08338,9.78531 18.05689,6.3082 26.15219,10.28228 9.15997,2.55016 4.7269,12.87039 12.15182,15.06683 6.99669,6.56879 -1.51276,-14.31818 7.81645,-15.54604 4.61072,-1.57794 13.52041,-7.42297 5.18959,-10.40392 -6.68777,-1.25014 -18.32997,4.21206 -16.58265,9.308 -9.72828,-5.29967 -19.54446,-10.44109 -29.2176,-15.80396 -7.79919,-6.87314 9.8997,-9.92734 14.27009,-14.42683 7.06262,-3.12877 17.72602,-11.48531 22.74439,-10.86879 2.65382,9.4054 15.75249,5.43073 21.95279,9.68903 2.74737,6.63818 19.89344,12.64232 10.82357,20.59822 -7.57423,5.05369 2.20743,7.98233 -2.90453,14.50091 -5.496,8.92134 -8.66005,20.88501 -19.56238,24.83401 -4.55778,2.13914 -9.73096,3.42061 -14.76237,2.50145 z m 50.77403,-54.7446 c -3.27356,-1.07624 -14.64822,-7.18628 -4.70509,-5.90134 3.72631,-0.59945 16.56076,0.50048 15.00677,0.92729 -3.31782,1.85067 -6.37279,4.56642 -10.30168,4.97405 z"
         id="path27" /><path
         style="fill:#189ec1"
         d="m 505.89478,397.79409 c -5.69666,-9.37046 -4.01415,-20.87611 -3.59544,-31.05152 5.46186,-9.10263 17.35647,-6.69669 25.52245,-11.37715 7.85397,-4.12972 18.54818,-6.96285 26.15035,-0.99329 5.6333,5.8327 8.89784,15.66612 -1.35057,19.18147 -6.83838,1.55086 -15.19515,11.98755 -18.75556,1.58807 -10.06781,-3.3387 -17.02907,6.92777 -5.52395,10.30194 -5.76925,5.0828 -14.9768,9.69292 -22.44728,12.35048 z"
         id="path26" /><path
         style="fill:#016d93"
         d="m 527.50747,412.74841 c -7.42482,-1.68733 -21.87443,-5.9132 -18.11994,-15.87107 3.62978,-2.61362 9.64185,-6.68179 10.25951,-2.85487 6.17075,-1.47502 9.75667,-2.62048 12.1926,3.64773 5.14353,-5.11388 5.53919,-15.99298 11.50742,-18.71895 -2.30785,-1.62981 9.84024,-5.10131 13.04253,-7.8483 9.92235,-4.90059 -4.78133,-17.67588 -3.58735,-18.38585 8.35861,4.3884 22.12961,7.84474 18.92038,20.28245 -0.0906,12.69701 -0.1503,25.39485 -0.41073,38.08984 -13.38719,0.11223 -27.12454,-2.46909 -40.16121,1.69646 -1.21247,0.0883 -2.43316,0.0861 -3.64321,-0.0374 z m -44.99568,-1.30623 c -0.53898,-11.65864 -0.43948,-23.35484 0.51306,-34.98997 3.95189,-11.93963 11.84337,-22.44404 23.55683,-27.56758 8.7677,-6.57638 21.02956,-13.37115 30.96072,-5.19009 5.03139,2.0705 17.66935,10.18588 5.3886,7.42165 -8.64008,-1.02117 -14.80561,6.27817 -23.13267,6.7446 -8.18626,1.2497 -20.94892,5.67284 -17.76699,15.85845 -4.97129,9.43279 8.76082,21.85318 -1.26459,27.94137 -5.71032,3.92811 -12.32887,6.23079 -18.25496,9.78157 z m -4.12164,-59.84013 c -4.43829,-1.93679 -0.46777,-5.3726 -0.093,-4.25417 -1.38145,-4.13663 -0.62848,1.20441 1.85378,-2.97998 10.82228,-0.95872 6.41602,9.43049 -1.76074,7.23415 z"
         id="path25" /><path
         style="fill:#ac331e"
         d="m 481.80059,511.38921 c -10.82352,-5.86586 -21.65983,-11.70958 -32.39733,-17.73219 6.6027,-6.24825 17.04458,0.94542 23.54633,-7.37023 13.43432,-6.696 8.51577,11.18061 9.70898,18.37361 -0.007,2.26208 -0.10148,4.57194 -0.85798,6.72881 z m 13.56766,-7.09712 c -2.07879,-9.41382 12.62116,-11.85071 18.44261,-10.72821 -5.13522,4.89908 -12.61105,6.78254 -18.44261,10.72821 z m -54.392,-15.25286 c -9.98898,-5.55372 -20.36665,-10.36742 -30.11103,-16.37936 -7.8534,-5.35555 -21.45051,-7.0005 -17.60001,-19.28931 -0.0548,-14.20119 -0.10952,-28.40239 -0.16427,-42.60358 12.39428,2.55494 25.31009,-4.81092 37.26083,1.67327 11.00896,3.15891 19.83313,-7.49199 29.52997,-4.87793 6.46859,4.00248 20.22831,-2.06168 9.2045,-7.63028 -3.2712,2.87263 -0.0173,2.91451 -4.25578,1.15545 -11.83734,-2.04171 0.78238,-14.08461 2.46592,-20.11367 -3.37508,-5.5725 -2.71306,-8.40552 3.99595,-13.14475 1.58995,-6.19751 -10.68849,-12.28134 -10.99511,-14.40239 7.78066,0.05 17.76714,10.6799 14.34116,18.17666 -2.86992,9.81078 10.61616,10.76579 7.35153,21.08984 -0.95843,9.07215 3.20871,21.67536 -9.12922,24.50614 -10.3629,4.97025 -20.13817,11.13624 -30.38575,16.41468 -3.16932,2.31035 -15.42244,7.71299 -6.09171,5.18347 -1.04685,6.94294 -13.59,9.58699 -5.04921,15.7831 -0.01,7.7799 8.33817,5.93425 5.85067,-1.21033 -1.95577,-6.42743 1.29658,-13.3504 8.33546,-8.0249 7.96512,4.12997 13.29359,-4.28534 19.20278,-7.9809 5.36753,-2.83654 8.68961,3.40345 7.18306,4.98004 5.00966,-3.17858 4.45184,4.61481 9.88729,2.45412 2.65995,6.2324 9.72701,13.31811 17.60706,14.08031 9.95732,2.97017 4.93177,15.28354 -3.58526,8.27719 -3.38196,2.60758 -12.68876,-2.39983 -11.85036,3.7612 -2.83213,-3.09868 -7.57365,-5.41738 -10.20757,-7.79916 -5.37789,4.98235 -11.31957,9.18286 -17.53597,2.47504 -3.78331,-3.06809 -14.79542,-4.64705 -9.63984,3.35095 -2.31087,4.10393 -5.47336,7.49715 -5.78302,11.55087 4.71755,-1.22736 -2.26834,6.34787 0.16793,8.54423 z m -15.3841,-61.22712 c -9.46264,-6.4431 -20.60343,-11.45181 -30.86259,-15.55614 -6.59353,7.83313 3.21715,19.0073 11.33783,10.76558 2.89913,-1.12592 8.45505,0.40825 3.81643,-3.02374 4.94072,2.10562 11.44911,7.78688 15.70833,7.8143 z m 8.16834,-25.91698 c -4.49165,-5.57318 -8.20773,-9.95872 -10.62769,-16.87969 -8.84792,-5.84135 -21.38606,-2.67722 -29.35913,-9.22251 -4.13458,-7.72213 2.45663,-16.2559 8.9903,-7.86031 10.85265,6.03607 21.70359,12.08102 32.74008,17.77694 -2.38266,5.13369 0.24547,10.97208 -1.74356,16.18557 z m 17.8088,-53.44583 c -5.30774,-0.8948 -18.40582,-3.06233 -15.1876,-9.17308 5.24807,0.72108 14.82515,5.07912 15.1876,9.17308 z"
         id="path24" /><path
         style="fill:#671514"
         d="m 482.4677,504.81804 c -0.55216,-7.41663 3.47398,-25.70737 -10.06688,-18.12126 -7.8257,6.62003 -16.89389,3.80285 -26.37902,5.51072 -6.28715,-1.23764 -4.83305,-9.07191 -3.68963,-11.65188 -4.6606,-2.36173 7.98837,-10.75597 3.18288,-16.21811 5.63638,-5.52574 14.11583,5.07377 20.48002,6.66419 8.94841,5.3214 21.21812,8.0877 30.09303,1.12412 8.68476,-1.79721 13.13573,-10.24217 2.6636,-13.68297 -7.88409,-0.7995 -13.83399,-6.46915 -17.40409,-12.92774 0.10683,-2.58863 -5.97526,1.17889 -6.25964,-4.2713 -7.59839,4.09623 0.6266,-4.40012 -6.9199,-3.80941 -8.3745,-0.86716 -11.27338,11.03959 -20.31316,8.58624 -4.82298,-2.79071 -12.89003,-4.85104 -10.9252,3.9667 1.84072,5.80768 -0.89734,13.69562 -4.22783,8.7237 -4.29478,-7.18137 -6.10621,-12.11001 2.53866,-16.27607 4.32468,-4.34611 -5.74131,-3.09275 1.75814,-5.53676 10.09535,-5.99497 20.19414,-12.12656 31.68157,-15.11428 8.20466,-3.0649 18.28373,4.67912 12.85208,13.71657 -1.87591,13.22315 11.08619,18.48925 21.6807,20.0834 8.2538,1.63499 18.51591,1.83512 18.09618,12.37366 8.56063,4.164 4.90957,20.07848 -2.96937,24.2227 -8.48518,1.58098 -23.0513,0.63014 -23.98344,11.82534 -2.70108,3.71762 -15.64675,11.62034 -11.8887,0.81244 z m 67.46874,-55.83215 c -7.28283,-4.24198 -14.2804,-9.05922 -21.39593,-12.87983 -4.63649,-3.28735 -18.78578,-7.02618 -17.11786,-10.14207 10.49361,-1.72377 21.94078,-1.49489 31.2481,-6.26392 6.38766,-2.88911 11.20992,3.78754 3.38934,6.40022 -7.83984,6.12863 11.26908,14.83655 3.87635,22.8856 z m -149.41075,-22.9097 c -8.92762,3.3856 -10.34739,-18.02967 -2.6952,-12.58547 4.5429,1.91917 19.08124,8.77841 8.5068,9.65067 -2.12591,1.44827 -4.13927,-0.50885 -5.8116,2.9348 z m 81.57582,-17.67672 c -2.53614,-9.07028 4.35181,-21.82045 -5.48278,-27.79716 -4.39514,-6.61864 1.08896,-16.00196 -4.84223,-21.48675 6.58408,6.45096 10.82646,16.27334 10.5492,25.8193 -0.24644,7.81985 0.34036,15.6668 -0.22419,23.46461 z m -34.26988,1.40641 c 5.51103,-4.03283 13.84535,-16.68688 19.97081,-6.45389 1.11772,-9.87586 11.54698,9.42788 -0.17748,4.97806 -6.78821,0.37232 -13.79157,-3.52019 -19.79333,1.47583 z m 47.60065,-59.18331 c -7.89695,-5.9803 -19.39622,-8.47229 -26.55752,-0.22539 -12.22172,-3.54234 4.53129,-13.74898 10.80571,-14.35705 7.58593,-1.29407 22.28893,4.9972 19.99436,13.35838 -1.26299,0.80601 -2.78894,1.03837 -4.24255,1.22406 z"
         id="path23" /><path
         style="fill:#141413"
         d="m 526.96579,485.95705 c -6.35652,-4.35945 4.76216,-17.09811 -5.88921,-17.52298 1.1012,-11.65927 -10.72858,-11.16632 -18.82588,-12.95397 -9.20528,-2.72848 -24.03061,-6.53941 -19.92683,-19.48511 3.39205,-9.45958 -4.79554,-17.88486 -14.00839,-14.21076 -4.17175,2.23598 -11.58777,3.44686 -3.01415,-0.43894 14.1541,-7.55109 27.76109,-16.12788 42.27342,-23.00231 3.02601,11.954 18.41217,16.32472 29.1259,13.10056 10.21947,-1.45599 20.76372,-1.06832 30.85262,-0.73217 8.4374,4.13216 2.14188,14.87729 3.95872,22.12125 0.031,10.00102 0.0283,20.00535 -0.33998,30.00107 -14.50517,7.9301 -28.96304,15.95312 -43.66657,23.51284 l -0.43356,-0.31311 -4.1e-4,-3e-4 -0.10559,-0.0763 z m 24.52093,-36.98011 c 3.46006,-8.83899 -14.89993,-19.59547 -2.0114,-25.14152 2.69866,-8.92112 -11.94955,-1.91846 -16.04319,-0.49838 -7.30388,1.29696 -15.87232,0.76727 -22.47169,3.80969 13.35886,7.15695 26.20298,15.24189 39.69012,22.16397 0.30835,0.17461 0.57219,-0.95421 0.83616,-0.33376 z m -20.70263,-50.68375 c 3.58676,-10.37267 -18.24196,-0.52953 -9.51996,-7.72185 6.86487,-3.3925 16.70759,-10.77862 22.135,-10.95953 -8.9272,4.50729 -5.07407,14.9395 -12.61504,18.68138 z m -48.6579,-18.85533 c -1.63606,-13.32034 -11.54617,-23.13166 -22.94087,-28.89756 -7.06322,-3.77721 -26.80332,-11.73696 -12.45337,-19.37801 10.36617,-4.83666 20.28311,-10.29372 29.89708,-16.47909 8.97995,-4.89028 16.6398,4.8045 24.56511,7.84501 7.54869,4.24162 15.08058,8.5139 22.68084,12.66288 -3.53099,11.67975 -19.42921,10.59096 -26.38928,19.65534 -9.36798,5.69001 -12.38928,16.53545 -15.55775,26.2792 z m 3.09363,-22.41745 c 7.57077,-3.01243 22.50899,-10.994 8.37193,-17.33871 -7.56561,-5.83742 -18.09069,-4.74339 -24.88005,1.74388 -11.29208,7.81366 5.17304,11.03745 10.46689,15.35103 1.83987,0.93234 4.1555,1.38458 6.04123,0.2438 z"
         id="path22" /></g></g></svg>
