<?xml version="1.0" encoding="UTF-8" standalone="no"?>
<!-- Created with Inkscape (http://www.inkscape.org/) -->

<svg
   width="80.678024mm"
   height="99.999992mm"
   viewBox="0 0 80.678023 99.999991"
   version="1.1"
   id="svg1"
   xml:space="preserve"
   xmlns="http://www.w3.org/2000/svg"
   xmlns:svg="http://www.w3.org/2000/svg"><defs
     id="defs1" /><g
     id="layer1"
     transform="translate(-274.61673,-123.58639)"><g
       id="g34"
       transform="matrix(1.5154036,0,0,1.5154036,-160.34721,-115.19728)"><path
         style="fill:#636262"
         d="m 326.40193,216.05315 c -0.18747,-4.13498 -2.30236,-7.89377 -3.18607,-11.904 -0.62462,-2.11866 -2.28949,-7.66118 -1.57727,-7.76415 2.12958,2.6082 4.2677,12.31367 7.91855,6.75848 2.35387,-2.89215 1.7099,-8.10666 4.67437,-9.87573 4.55802,1.31383 0.87197,7.75225 2.01176,11.46318 1.67127,5.41868 -3.0677,7.18836 -6.96672,9.53056 -0.37381,0.0921 -3.5549,2.628 -2.87462,1.79166 z m -27.33212,-1.09547 c -2.71326,-2.60769 -8.855,-3.38235 -7.9502,-7.98038 0.9037,-4.06766 -1.54325,-10.83096 0.76562,-13.34548 4.93273,-1.93195 2.87161,6.21607 5.84545,8.70873 0.97582,2.62418 3.8414,4.51706 4.68624,0.67913 1.32594,-1.76567 3.23399,-6.95615 3.82626,-6.71022 -0.90026,6.04601 -3.09036,11.83683 -4.8955,17.66158 -0.46535,1.51088 -0.68629,2.3408 -2.27787,0.98664 z m -5.08386,-25.06242 c -4.91041,-1.05619 -1.97244,-7.49578 -2.83807,-11.04371 -1.08486,-5.42869 6.19861,-3.05042 8.05536,-5.23491 -0.56306,-1.80654 -6.3386,-2.616 -1.70814,-1.81448 1.97193,1.32636 9.25985,0.74828 4.73195,-1.63172 -1.25417,-1.41543 -4.63524,-0.90063 -1.35477,0.0545 -1.86562,-0.18091 2.59699,1.60607 -1.51149,0.77538 -1.58223,-3.60782 0.59328,-4.87277 2.99031,-1.95335 3.23974,-1.58739 6.54033,-4.11292 9.57857,-6.40129 0.96305,-1.44941 1.52995,-3.44843 -0.16375,-2.25186 1.19332,-3.06445 2.54721,-4.21213 3.64553,-0.46944 -2.04397,3.04599 3.63141,4.85207 5.77456,6.76501 2.42017,2.41361 5.24166,2.92688 7.32872,-0.0212 0.79683,2.06913 -0.15004,5.35481 -2.85726,4.68686 2.69786,0.17838 3.44968,-3.42312 0.30041,-1.23245 -2.98583,1.00991 4.28302,-1.64274 1.86842,-2.60724 -3.14951,1.52353 -7.30233,6.92278 -3.81357,6.15573 -4.10689,0.16424 -3.52521,2.15155 0.19535,2.56609 3.50283,1.62286 -3.11079,-0.91828 0.74448,1.08033 2.57009,2.26862 3.35782,-5.3562 0.0831,-2.45654 0.16947,-1.68711 4.526,-0.67556 1.21058,-1.47049 5.43358,-0.98917 -5.68454,-0.94105 -0.30144,-0.9758 1.99795,-0.81477 6.98395,-1.34062 3.19316,0.96924 3.35366,-0.8266 -3.37651,1.14734 0.26785,1.30373 4.18823,-1.6519 8.27555,1.65957 6.82693,6.26807 0.28501,4.35662 0.82982,10.06857 -5.28188,9.57759 -3.99358,0.90576 -8.65589,-4.85498 -4.46802,-6.94475 -0.49937,-2.71515 -3.61313,-2.18446 -1.04529,0.0991 -1.13048,0.20499 -2.67974,-3.22726 -0.72123,-3.94658 -2.37499,-2.96581 -9.40518,-3.34706 -8.09213,-8.3286 1.98225,-5.21579 -6.93651,-7.2038 -5.4981,-0.99535 1.55063,5.18434 -4.40974,6.48037 -7.77197,8.43134 -2.19154,-0.23016 7.21701,-2.6076 3.14618,-3.74819 -1.97691,-0.29246 -8.18464,1.62421 -3.87333,1.76397 -3.93643,1.28115 4.13518,-0.50952 -0.70312,0.96688 -1.1247,1.93223 4.2695,4.04267 0.31971,3.8767 -2.55129,2.30582 3.08764,5.37636 -1.08972,7.53544 -1.94058,1.19289 -5.13694,1.89361 -7.16789,0.65201 z m 35.03087,-8.5103 c 1.54727,-2.71463 -6.81838,-1.91274 -2.02283,0.024 0.57877,0.37209 1.49878,0.61694 2.02283,-0.024 z m 1.08862,-1.5943 c 0.0188,-1.59671 -5.03059,-1.89153 -0.93037,-0.95252 2.62905,0.39907 3.26389,-3.82564 -0.0177,-2.44422 -3.24735,-0.40025 6.37499,-0.28775 1.83724,-1.47115 -4.70725,-0.95204 -3.65144,3.57041 -0.71199,2.92937 -4.32946,1.33786 -6.84802,-2.44947 -10.78981,-2.15283 2.59696,-0.0448 8.16087,4.36877 2.96196,1.17018 -4.95376,-1.57981 2.30815,2.28044 4.22055,2.21747 1.11617,0.15912 2.2898,1.37725 3.43012,0.7037 z m -30.87102,-2.54995 c 3.40489,-1.75639 -5.86414,-0.59312 -0.56977,-1.47642 2.92617,-0.14448 10.4633,-0.63358 6.40073,-2.38952 0.89222,-1.93123 -4.63635,-0.1824 -5.27382,0.0614 1.57234,-0.29206 5.62615,0.38298 1.52494,0.18419 -1.45543,2.15866 -7.79333,0.21355 -5.00781,3.70148 0.97272,0.26716 1.95215,-0.0312 2.92573,-0.0811 z"
         id="path36" /><path
         style="fill:#0c0b0a"
         d="m 309.25627,221.38614 c -3.01941,-2.8724 -10.6078,-4.35074 -7.10536,-9.70588 1.47215,-5.26199 3.49452,-10.44758 4.23338,-15.9008 -2.53446,2.30048 -3.13301,10.62531 -7.23027,8.85655 -2.79807,-3.17933 -3.26665,-8.11847 -5.06325,-11.31058 -2.78284,0.67384 -5.80282,0.8632 -7.06231,-0.23779 1.70142,-0.24798 -1.73247,-1.31892 1.58782,-1.39968 2.6623,0.0357 3.06588,-1.70026 1.57066,-2.31364 3.65028,-0.43324 7.63947,2.89897 11.02577,-0.14239 3.23222,-1.99853 0.0165,-4.58364 0.29769,-6.64344 1.45189,-1.73393 3.79395,-0.43274 1.00336,-2.77361 -3.08,-1.76366 3.84798,-3.4845 -0.83921,-2.34377 -0.94883,-0.24853 2.82436,-1.17543 -0.60627,-0.61326 -1.03421,-1.98436 10.78253,-2.54587 4.71461,0.44716 -2.22096,0.36855 -4.2075,2.72737 -1.13642,0.71279 3.74524,-0.85468 8.49713,-4.26332 6.14848,-8.44277 0.88633,-6.10139 8.40238,-1.85095 5.44249,2.89859 0.77541,4.17987 5.45111,4.58301 8.41695,6.7724 0.18565,1.72045 -2.57448,2.10263 0.18941,4.21299 1.79762,1.80373 -2.67109,-4.47026 1.53506,-0.85712 0.42501,2.14279 -3.66134,2.66602 -1.02191,5.20881 2.9037,4.92452 8.42559,1.10057 12.3309,1.75156 -5.72678,1.2842 5.9102,2.58498 1.59727,3.16026 3.48271,1.53588 -4.52253,1.66978 -5.63888,0.46894 -2.15196,3.38203 -2.11865,7.87018 -4.85881,11.08385 -3.5751,2.75726 -4.71542,-4.93925 -6.66865,-7.02459 -1.82536,-2.8399 0.3846,4.01328 0.70078,5.56252 1.21757,4.31957 2.72577,8.55189 3.89948,12.88432 -4.60039,2.34205 -9.41479,8.09358 -14.14784,7.85528 -1.10685,-0.71936 -2.2097,-1.44498 -3.31493,-2.1667 z m 17.43605,-40.25731 c -4.44413,-2.79557 6.1742,-1.09029 1.38239,0.77863 l -0.72614,-0.32435 z m 1.15093,-1.60073 c -1.9385,-0.87544 -7.31237,-1.74314 -7.05113,-3.257 1.93664,0.40616 5.50395,3.24139 2.80589,0.60854 1.69136,1.92732 5.63026,0.54998 6.51278,0.74282 -3.90869,1.02342 -2.83936,-3.99418 0.49895,-2.69887 4.7215,0.40539 -2.67145,1.64815 -1.96598,1.37383 4.25064,-1.33592 2.83354,4.02312 -0.55714,2.08303 -2.24615,-0.74497 4.80228,1.3734 0.93228,1.51838 l -0.58828,-0.18399 z m -3.10885,-2.34292 c -1.7896,-0.81076 -7.63661,-2.0013 -2.52701,-1.28911 1.70965,0.94121 4.95652,1.23296 1.3686,0.0945 -4.13397,-0.30146 -2.28539,-2.98235 1.11755,-2.29837 -5.54562,0.32423 1.23592,-5.08676 2.53048,-6.93651 2.38391,-2.13537 0.83143,4.05054 -1.66554,3.30454 -1.95274,1.07558 4.93387,-2.34901 2.03628,0.65908 -2.79087,0.83336 -1.85331,0.85949 0.47114,0.43404 -0.25616,2.12661 -6.22073,0.83637 -1.23393,1.43566 3.00336,0.23065 -2.34354,0.91856 0.64582,1.14219 -2.44531,0.81861 -3.10085,1.09858 -0.50719,0.61317 1.30219,0.61305 -0.8012,5.22044 -2.2362,2.84077 z m -28.58588,-0.005 c -2.55071,-3.78895 3.90871,-1.1596 5.0448,-3.36904 4.3608,-0.5398 -0.38136,0.0782 -1.40974,-0.76008 2.8037,-0.3875 6.25204,-1.03786 5.85641,1.23843 2.54467,0.65676 -4.12138,1.19984 -5.42244,1.44083 -2.42889,-0.16497 -4.23167,0.97198 -0.82527,0.45017 3.03351,0.3731 -2.99656,2.13625 -3.24376,0.99969 z m -0.20048,-2.55206 c -4.16565,-1.2135 2.97499,-2.18163 -0.44974,-1.96961 -3.46478,-2.21597 0.25701,-3.3331 2.20972,-1.19919 1.32219,-0.49966 5.78598,-0.0152 2.20378,-1.17513 2.43301,0.39932 -2.71647,-2.01742 1.03871,-0.72878 2.9389,0.35444 4.24414,3.64945 0.13718,2.98013 -2.11024,-0.13763 -8.46788,-2.01949 -3.11904,-0.20883 2.95437,1.92052 -0.0791,2.76204 -2.02061,2.30141 z m 32.1734,-0.24997 c 0.45015,-1.47927 3.11208,-0.51132 0.95856,-1.28796 0.74494,-0.95043 2.7736,-1.43282 0.51059,-1.20513 1.8661,-2.44172 5.91764,-1.99703 2.39607,0.89273 -1.1696,-0.42758 2.63403,0.99745 -0.0973,2.01274 -1.1922,0.0883 -2.57661,-0.11249 -3.76796,-0.41238 z"
         id="path35" /></g></g></svg>
