<?xml version="1.0" encoding="UTF-8" standalone="no"?>
<!-- Created with Inkscape (http://www.inkscape.org/) -->

<svg
   width="77.442886mm"
   height="100mm"
   viewBox="0 0 77.442885 99.999999"
   version="1.1"
   id="svg1"
   xml:space="preserve"
   xmlns="http://www.w3.org/2000/svg"
   xmlns:svg="http://www.w3.org/2000/svg"><defs
     id="defs1" /><g
     id="layer1"
     transform="translate(-20.882281,-236.73568)"><path
       style="fill:#3c304c;stroke-width:1.48766"
       d="m 58.576641,335.68632 c -4.85877,-8.64784 -14.223495,-13.12163 -23.269445,-16.051 -2.676016,-0.65928 -9.382369,-5.84028 -7.615164,-5.60588 6.725038,5.91871 18.613533,4.64627 22.786774,-3.69194 5.575419,-11.81001 7.595318,-27.21371 -0.218805,-38.54069 -5.040145,-7.93713 -15.96718,-9.3778 -23.966324,-5.41992 -2.128171,1.18944 -7.796792,4.43142 -3.680945,-0.19489 8.581384,-10.54231 25.847871,-10.25823 35.285968,-1.03685 -3.617214,-0.8866 -6.679367,-10.27293 -2.421478,-9.7039 2.173187,4.47832 5.535208,5.31166 7.615774,0.2187 5.313948,-3.6253 -0.889978,10.0966 4.894666,5.00105 10.27894,-5.16003 24.52149,-2.01167 30.33751,8.28616 -4.7361,-2.01936 -11.66263,-5.26312 -17.83539,-3.74164 -8.399096,0.98154 -17.058017,7.69396 -16.374259,16.85214 -0.43511,10.3495 -0.597131,21.86478 6.439735,30.29335 4.508574,6.84304 14.938184,7.56741 20.561164,1.72304 3.78008,-1.78022 -4.42868,4.96414 -6.00949,4.90688 -8.59013,3.31445 -18.200619,6.40754 -23.355225,14.68049 -1.029043,0.68055 -2.083347,5.03528 -3.175066,2.0249 z M 33.175618,306.2757 c -6.613225,-1.75923 -12.143539,-7.5347 -12.232768,-14.6144 -0.410907,-5.22517 1.162189,-14.2554 8.017977,-13.79134 1.960244,0.86173 4.431112,6.98916 2.465022,1.66326 -2.216538,-2.06082 -8.069823,-1.65393 -3.0993,-4.78953 2.765246,-3.04701 5.710201,-4.69791 4.932245,0.94902 -0.102947,3.27056 4.15585,10.03736 -0.234694,4.08568 -1.759781,-3.29878 -7.80121,-5.04602 -1.935355,-1.67985 3.286358,2.8457 4.520208,6.52068 -0.633847,7.25499 -3.121124,2.23104 -9.160395,-3.93242 -4.441377,0.74296 3.413628,0.17086 2.403626,4.06289 4.969764,-0.2253 1.099841,-2.91281 12.271195,-2.09897 4.588238,-1.23405 -4.035766,-0.0913 -8.230787,7.78232 -3.482506,2.20129 4.266101,-4.59166 11.810497,-0.82638 10.901076,5.31447 0.508199,3.04584 -4.791661,9.18228 -0.561651,3.66495 2.274438,-1.52987 -0.354717,-6.68982 2.696903,-5.77696 -3.018535,-1.85221 -5.217622,-5.79411 -0.853529,-1.65792 1.754917,1.97738 7.809467,1.99255 2.222533,0.79146 -5.338941,-1.72222 -9.835644,-10.01114 -11.241928,-12.17353 0.428698,3.56413 4.765403,9.36574 -0.222004,3.80986 -1.536231,-3.03693 -3.27834,-12.63265 2.134062,-10.00284 -1.233998,7.11823 3.94197,14.25441 10.598189,16.60439 7.074875,-0.167 3.155012,8.18969 1.282689,11.90755 -2.867671,5.02941 -8.840578,6.74974 -13.507782,7.13873 l -1.024506,-0.0939 -1.337451,-0.089 z m 46.642774,-0.0861 c -7.00277,-1.79287 -13.481764,-8.20054 -12.644688,-15.81007 2.329943,-2.40147 4.411341,0.83257 0.270963,-1.39948 2.166686,-1.00762 7.72287,-3.3349 10.758665,-5.76227 3.61761,1.13034 -10.378241,8.9767 -3.140377,5.0038 4.120827,-3.6326 -1.698312,6.55766 1.689297,0.32873 1.38845,-2.49339 5.37203,-4.14056 0.86536,-1.87991 3.53103,-5.94766 13.0918,-2.06722 13.54074,4.1672 2.96116,3.37118 8.55394,6.55166 2.69228,10.68211 -3.45555,3.79957 -8.94873,5.95383 -14.03224,4.66989 z m 14.69398,-12.41791 c -2.9577,-3.92951 -5.83238,-8.56554 -9.40666,-11.35273 1.2315,-7.04863 10.4636,-7.21022 11.44849,0.18174 1.57875,2.67705 2.74711,11.55604 -1.3872,5.66517 3.5349,1.32504 3.73852,11.17477 -0.65463,5.50582 z m -14.69419,-11.27248 c 2.01548,-3.84962 1.53616,-9.39348 3.1983,-12.48302 6.57704,0.98378 -0.9699,13.10549 1.28527,11.16558 2.48851,-3.61675 -0.13523,-13.58937 5.58376,-7.26441 4.55864,2.5389 -4.2374,3.49856 -4.84538,7.44067 -5.22988,6.34758 -1.17874,-8.19048 -2.7242,-1.15998 -0.35774,1.08727 -1.18944,2.42276 -2.49775,2.30116 z m -22.59299,-25.82039 c -4.124253,-4.21582 -8.887262,-10.15899 -2.568265,-14.83733 2.567848,-3.99037 5.551378,-8.17372 8.261239,-1.88894 3.809211,3.86727 7.443265,9.07173 1.677217,13.10855 -2.64122,1.40126 -4.336929,9.38003 -7.370191,3.61772 z m 7.86756,-5.20172 c 4.353441,-3.35558 -0.899365,-4.79891 -1.838836,-0.3697 -2.929097,3.9858 -1.394145,-0.43102 -2.141664,-1.4766 5.189357,2.00012 -0.01041,-4.33457 -1.116131,0.4016 0.506503,3.11736 -0.350582,6.90883 -2.798957,2.60469 -0.916041,-3.15009 -8.225654,-6.83414 -3.910089,-1.88247 3.05894,3.65259 6.392561,10.79808 9.735272,3.31776 0.707902,-0.8507 1.398742,-1.71566 2.070405,-2.59528 z m -10.268583,-5.82707 c 1.764736,-0.59044 5.759979,-4.05158 4.619108,-2.69296 1.758859,0.42141 7.739919,5.05968 2.751991,2.38367 -4.103143,-1.76338 -1.931324,4.76132 1.575163,2.24231 7.803397,0.87183 -1.779597,-6.89218 -3.152677,-9.68007 -3.711784,-2.5848 -6.476643,8.3465 -1.940637,2.11343 1.629047,-2.13156 6.108091,6.05361 1.660124,1.31658 -2.600934,0.27458 -9.787429,2.91898 -8.018364,6.27859 1.220832,0.0443 1.870731,-1.13196 2.505292,-1.96155 z"
       id="path37" /></g></svg>
