<?xml version="1.0" encoding="UTF-8" standalone="no"?>
<!-- Created with Inkscape (http://www.inkscape.org/) -->

<svg
   width="78.434357mm"
   height="100mm"
   viewBox="0 0 78.434356 99.999999"
   version="1.1"
   id="svg1"
   xml:space="preserve"
   xmlns="http://www.w3.org/2000/svg"
   xmlns:svg="http://www.w3.org/2000/svg"><defs
     id="defs1" /><g
     id="layer1"
     transform="translate(-164.67916,-328.63705)"><g
       id="g27"
       transform="matrix(0.62518939,0,0,0.62518939,60.414346,120.55835)"><path
         style="fill:#8cba28"
         d="m 225.51564,445.39311 c -5.04358,-3.04874 -15.71026,-9.05543 -17.09879,-10.40743 6.955,3.22866 12.88686,8.74243 19.83826,11.57523 7.18393,-3.31506 14.34076,-7.05641 21.22828,-11.24825 6.21886,-3.18602 11.81667,-7.21044 18.6741,-7.08565 4.10995,-2.80101 -3.91131,-12.029 2.28723,-6.63583 6.7517,4.59744 -2.66083,17.23164 -1.65658,18.15949 1.86652,-2.68377 1.70757,-10.25972 -1.60428,-4.31497 -2.92213,1.48702 -9.87029,0.24466 -3.52286,-1.19792 1.57707,-6.85961 -7.69906,-4.29025 -9.97937,-0.61304 -7.99732,4.80612 -16.04265,9.53814 -24.25286,13.97339 -1.31819,-0.71028 -2.61266,-1.46316 -3.91313,-2.20502 z m -35.53079,-6.05943 c -4.05185,-6.93615 -6.7632,-18.14223 3.80981,-20.47525 -5.20466,1.44945 -3.67966,7.80907 1.95288,8.09986 2.92107,0.94444 11.85927,8.49196 4.60591,3.20864 -5.83592,-3.83374 -4.3314,6.35807 -4.07633,4.77445 -2.20071,-4.01397 -6.73454,-4.78776 -6.84004,0.67069 -0.41667,0.18755 1.80997,6.79223 0.54777,3.72161 z"
         id="path30" /><path
         style="fill:#6ca610"
         d="m 225.11876,491.02288 c -5.87142,-1.79512 -11.8954,-11.14753 -16.84318,-3.7149 -10.32797,-1.72401 0.27396,-12.70221 6.52024,-9.02378 6.57291,2.00893 13.08298,11.42825 20.03834,5.76592 5.54878,-3.70122 12.84009,-9.62976 19.30084,-4.09618 7.27426,3.08486 -2.06775,11.78922 -4.12663,4.04477 -5.51422,-1.88443 -12.02289,7.27263 -18.60464,8.2822 -2.38005,1.24195 -4.25997,-0.10368 -6.28497,-1.25803 z m -30.48329,-9.98743 c -1.00267,-9.79778 -10.57125,-12.13969 -18.09882,-16.00512 -5.76088,-0.9317 -8.75782,-10.59186 -0.7337,-8.15214 6.78319,4.34051 13.5934,8.60351 20.77996,12.28031 3.89975,2.35636 11.78852,-4.22876 11.11239,3.37353 -4.54419,2.06304 -8.20341,4.74009 -11.46941,8.51984 z m 69.80939,-0.0401 c -1.67118,-5.81925 -17.92722,-6.21679 -11.31681,-12.96732 5.19338,0.63716 9.89256,3.4135 14.49541,-1.15545 6.58105,-2.69627 11.37695,-8.70916 18.33311,-10.36163 8.72316,2.95336 -4.55991,10.18551 -8.94883,11.25981 -3.47295,-0.12877 -4.28346,1.25835 -4.24129,2.7079 -5.74676,-0.0793 -0.33906,12.81751 -8.32159,10.51669 z m -36.1728,-34.26152 c -8.53383,-4.75048 -16.59947,-10.25199 -25.15726,-14.89809 -3.20299,-4.81534 -14.864,-3.95716 -11.91529,-11.40553 7.55777,-5.19063 14.9655,3.47999 21.61214,6.41319 6.63746,2.1458 13.30303,11.89516 19.9873,8.07132 8.94468,-4.93887 17.42384,-10.71469 26.54226,-15.30256 7.93173,-5.97665 15.11072,9.51954 4.94199,9.50761 -6.45454,-1.12766 -10.3852,5.7899 -16.59024,6.96 -5.26385,4.84165 -12.74053,5.70627 -17.97737,10.38305 l -0.71002,0.2419 z m 32.18946,-1.20138 c 2.92588,-4.17809 -9.47475,-9.88043 0.6156,-9.63227 3.45844,1.2603 7.4252,-1.68757 8.65251,-2.7689 2.05318,5.99142 -4.70512,10.35044 -9.26811,12.40117 z m -68.00257,-3.58238 c -6.31595,-1.97796 -1.22255,-15.89579 2.48357,-7.7151 7.32362,0.83414 0.47993,6.80516 -1.57724,8.46719 z m 35.9671,-12.23289 c -10.78616,-6.0654 -21.3579,-12.50151 -31.89255,-18.99098 -4.76319,6.69665 -16.11255,-1.25236 -8.13905,-6.64768 5.02233,-4.24555 12.12117,-3.02059 16.89588,0.91858 8.08998,4.71238 15.92731,9.86625 24.23752,14.19445 10.99778,-5.599 20.94218,-13.24109 32.38535,-17.93157 7.96734,-3.36254 17.64204,12.47355 6.23131,11.73899 -6.2187,-3.80441 -10.96224,1.23552 -15.96576,4.28384 -7.55787,4.28613 -14.98192,9.50842 -22.92797,12.68 -0.27487,-0.0818 -0.54988,-0.16384 -0.82473,-0.24563 z m 63.51482,-24.84551 c -0.49841,-4.20387 -13.27841,6.52542 -10.85299,-4.76267 -0.44202,-6.11778 2.60439,-14.94912 -5.22088,-17.28031 -5.68238,-4.468 -17.48282,-6.34233 -15.1312,-15.79224 2.29679,-7.30849 9.71902,3.14483 14.21553,4.02058 5.62999,3.37722 11.2025,6.85241 16.91236,10.09476 0.16855,9.22795 0.44467,18.45974 0.18094,27.68872 -0.0346,-1.32295 -0.0692,-2.64589 -0.10376,-3.96884 z m -23.21038,-7.75177 c -2.92041,-0.98158 -6.20886,-6.00921 -9.20591,-2.37583 -0.29875,-5.22665 1.21856,-15.38819 8.35651,-9.31517 6.44227,1.22619 8.8197,12.68826 0.8494,11.691 z m -81.03146,-0.25229 c -6.77072,-6.12281 3.71517,-13.63243 9.86248,-13.15577 1.50632,3.34359 -0.71062,7.86248 1.6647,10.95441 -3.83554,-4.91109 -6.83947,4.39647 -11.52718,2.20136 z m -9.75348,-6.33397 c -4.71423,-1.60011 -13.70336,1.44766 -10.49639,-7.16107 4.15189,-7.56682 14.1473,-8.6158 20.34524,-14.09671 3.69149,-4.65606 10.98724,-4.96745 10.07679,2.45792 -0.97084,7.35699 -11.11699,7.66498 -16.03187,12.26467 -3.47332,1.36606 -4.12664,2.89809 -3.89377,6.53519 z"
         id="path29" /><path
         style="fill:#2b6519"
         d="m 228.2578,479.16145 c -6.6901,-2.48545 -12.94423,-10.3589 -19.74499,-7.80709 -3.96457,-6.3983 -10.48873,-9.84089 -17.1607,-13.4596 -7.79975,-4.8687 -16.02224,-9.05999 -23.54424,-14.37001 -0.7004,-17.94597 -0.71084,-35.91443 -0.24707,-53.86658 4.31141,0.23301 12.71282,-1.87517 10.40891,5.77422 0.29108,14.59123 0.10218,29.18791 0.4501,43.77832 17.05692,9.80808 33.97385,19.85867 51.09346,29.55787 17.294,-9.51708 34.22257,-19.67603 51.16799,-29.79499 0.15784,-12.71355 0.13638,-25.43036 0.51077,-38.14043 -2.50985,8.3422 9.99946,3.08451 10.75414,1.91176 -0.10207,12.93198 0.76957,25.88038 -0.12068,38.8014 -3.41795,6.75644 -11.9189,7.71768 -17.34258,12.32519 -6.96657,4.24933 -14.1413,8.16322 -20.92141,12.71371 -0.9534,7.54683 -9.42667,1.90719 -13.24856,7.3831 -3.65782,1.55005 -8.09265,6.08248 -12.05514,5.19313 z m -2.87445,-17.61571 c -10.49701,-6.08757 -21.09868,-12.02162 -31.2019,-18.75616 2.19505,-8.12565 10.02751,-6.99482 14.83535,-2.01321 6.88207,4.0163 13.72849,8.09343 20.62109,12.09172 8.59922,-4.91491 17.14322,-9.92819 25.82603,-14.69538 7.75612,0.71462 5.64313,10.9499 -1.26101,11.3197 -8.05389,4.80879 -15.94925,9.92763 -24.41264,14.0063 -1.69994,-0.0119 -2.954,-1.28015 -4.40692,-1.95297 z m 1.85208,-49.75456 c -9.55272,-5.15668 -18.73442,-10.96711 -27.77096,-16.97364 -3.48326,-5.20191 -1.4478,-15.14384 5.28375,-7.71351 7.31028,4.65435 15.47684,8.25159 21.97661,14.0041 1.01561,3.22431 4.11746,7.05646 4.74122,1.33128 5.61835,-7.7082 15.40023,-10.31198 22.95268,-15.61711 2.65574,-2.93919 8.75196,-3.42033 5.8874,2.02918 -0.16582,9.69094 -11.74772,11.98658 -18.12323,16.86318 -4.44924,2.48377 -9.46611,7.86219 -14.94747,6.07652 z m 0.52917,-18.39544 c -9.24231,-4.3357 -20.67418,-9.10787 -23.11911,-20.20604 -1.1749,-2.69169 -0.34596,-11.15383 2.13805,-4.33604 6.67788,6.9339 18.80056,8.46364 21.92975,18.64089 2.65437,2.97915 2.90988,-7.82668 7.34816,-7.87498 6.07905,-4.88652 15.29066,-6.81075 18.27341,-14.81781 2.13095,9.55422 -3.49572,19.59971 -12.47047,23.26413 -4.29924,2.21219 -9.10557,5.89651 -14.09979,5.32985 z m -0.48592,-17.89475 c -8.76324,-3.0269 -19.01407,-9.67817 -18.39373,-20.17514 7.05307,2.97025 15.01995,6.68071 19.09364,13.35247 2.27441,9.16529 3.40544,-5.4753 8.37036,-5.91747 4.09664,-2.06296 11.19461,-7.42868 13.55055,-7.24911 -0.0619,10.88389 -10.68606,17.77139 -20.0968,20.46997 l -1.28512,-0.11051 z m 0.16347,-15.73838 c -6.02521,-0.95041 -15.47652,-10.31081 -10.23169,-14.59018 5.71805,0.4272 10.49095,9.37083 13.13501,9.75401 1.68109,-4.50218 10.19589,-11.64859 13.21333,-7.90559 -0.11899,7.61089 -8.39769,13.43801 -15.53797,12.90507 l -0.39083,-0.1103 z m 0.98219,-13.47874 c -10.4466,-2.52046 -0.68348,-20.05585 6.09526,-10.76795 2.52734,4.17239 -0.3421,12.17248 -6.09526,10.76795 z"
         id="path28" /></g></g></svg>
