<?xml version="1.0" encoding="UTF-8" standalone="no"?>
<!-- Created with Inkscape (http://www.inkscape.org/) -->

<svg
   width="66.049034mm"
   height="90.670227mm"
   viewBox="0 0 66.049033 90.670226"
   version="1.1"
   id="svg1"
   xml:space="preserve"
   xmlns="http://www.w3.org/2000/svg"
   xmlns:svg="http://www.w3.org/2000/svg"><defs
     id="defs1" /><g
     id="layer1"
     transform="translate(-270.04878,-173.78087)"><g
       id="g47"
       transform="translate(-15.793991,-11.845488)"><path
         style="fill:#926696"
         d="m 327.41545,254.40817 c -1.59004,-0.10274 -1.33849,-1.94139 -1.62705,-2.28616 4.15689,1.82852 -0.89129,-4.97267 -0.51248,-2.25619 4.09013,4.69445 -4.70074,-5.6959 -2.43449,0.2623 -0.3078,3.62021 -1.39257,3.42666 -0.10481,-0.0317 -1.19009,-2.50677 -1.9656,4.52685 -1.90914,0.72547 -1.57308,2.9326 0.99715,-2.85943 -1.51287,1.1672 -1.19816,3.54834 -3.95338,-5.20518 -2.20312,-0.77605 -0.68102,-1.13767 -3.564,-5.52708 -3.46523,-5.49745 1.88785,1.95127 3.7757,3.90255 5.66355,5.85382 1.37485,-4.27573 8.40578,-6.75895 6.46367,-10.87166 1.98113,2.31094 0.40542,2.99277 3.00607,-0.0339 -0.69291,-0.58996 -2.475,2.62396 -0.72691,-0.81572 -1.63956,-0.0217 -1.00617,-4.43488 -0.58874,-7.54039 1.76871,-0.80229 -1.8284,-7.08903 1.38086,-2.88135 -3.18919,-3.57158 -4.98229,-11.7088 -4.84877,-13.58063 -4.18722,-4.26579 7.13516,3.66059 1.0779,0.14227 -2.44163,-1.04748 6.32739,5.00816 -0.34297,0.77875 1.81373,1.37881 -0.17589,0.97624 2.84233,3.06338 3.62629,3.2432 -0.0995,0.25597 -0.95285,-1.60882 2.96508,2.68039 2.96914,2.77286 1.07764,-0.51453 1.43763,2.61123 5.04771,2.89827 1.0681,0.94368 -0.69658,-3.33539 -6.73597,-4.21654 -5.73311,-6.55428 -0.42486,4.89761 -3.56293,-4.67041 -4.60355,-1.09023 0.80473,-3.73638 -6.44104,-3.40827 -2.81985,-8.25555 3.16584,-6.10478 -2.26762,2.24506 -1.88538,5.03601 -0.5607,2.2938 3.1958,6.35546 -0.3292,2.28361 0.33199,-6.11533 3.09299,-11.94242 3.74041,-18.10903 0.76793,-2.87383 1.80672,-10.32825 2.76066,-3.60344 0.65853,4.14689 1.19431,6.96695 2.40826,10.35156 -2.50543,-6.48025 5.6604,2.94364 4.48051,-3.13676 1.35355,1.33957 0.28344,5.35047 1.06897,1.0725 -1.18758,4.45538 5.2986,5.36367 6.95115,7.07787 1.46522,-0.37199 0.5522,8.00984 1.19801,2.18215 1.40362,-3.63195 0.58097,-7.08029 1.3871,-11.64132 -0.34144,4.8276 0.7471,11.82913 -0.87945,15.10817 1.9037,-0.16833 -0.90119,6.31894 2.8959,1.81335 0.23566,-0.39274 -2.8283,4.70703 -2.87965,2.50673 -1.89929,4.13025 5.04111,2.60445 0.10061,3.75351 -3.71453,-0.62764 -4.18049,6.35436 -1.58983,5.6813 -2.11725,-2.00695 4.36322,-2.55325 2.75578,-1.42655 2.28047,0.70591 3.32438,2.05427 5.84438,0.1318 -2.64972,2.01735 -3.60926,1.74711 -5.33964,3.31348 -1.81372,-0.0963 -1.71979,3.95676 -3.09408,5.13937 -1.88447,1.17138 2.53889,0.66818 0.29931,1.463 1.26272,1.27491 -3.0617,-2.55373 -1.64236,0.71589 4.2286,0.3758 -3.39253,2.91067 0.69976,2.67292 3.67967,0.7539 -5.91712,-0.54418 -0.68115,1.95959 0.10971,-0.8991 7.2587,-3.18099 6.92953,-4.93013 -2.86518,3.03223 2.56605,2.6879 -1.27377,3.62467 -4.00703,2.65329 8.11602,9.16498 1.76331,5.023 -2.11506,-3.89777 -8.24241,-1.19601 -10.22764,-0.64888 1.95603,0.91471 0.59085,-1.71802 3.27955,-0.19083 -4.7516,1.4588 -3.60495,10.62068 -4.35944,11.27829 0.24646,-6.45235 -4.80154,2.32813 -2.0099,3.76913 l -0.56555,-0.61314 z m 3.40629,-35.40459 c -0.97292,-1.27458 6.66797,-6.67205 2.12789,-3.10876 -5.69202,4.6236 5.24655,-5.09833 0.73884,-2.7784 2.52916,-3.89338 -3.06284,2.47978 -0.88805,-0.86129 -2.58685,2.87388 1.07891,-2.81681 -2.76749,-2.21217 -1.16923,-1.50142 -2.37528,3.88153 -1.6083,-0.45479 0.0468,-2.34645 -2.09224,8.05788 -0.0651,2.71903 1.28175,-1.63657 -1.22549,4.05582 1.04424,4.45066 -2.30045,-0.36393 3.01599,4.13271 1.41796,2.24572 z m -3.15804,-8.88812 c 1.34417,-1.54484 1.80032,-4.82624 2.43366,-5.45066 -3.04589,2.7364 5.0317,9.57023 2.71799,5.05853 -4.52002,0.54132 -1.35318,-10.95958 -3.87384,-3.30698 0.60458,1.61153 -5.96441,-2.50732 -5.96532,-5.18076 0.77466,3.38595 1.77397,10.47828 4.00941,11.09478 0.29165,-0.71777 0.43952,-1.4802 0.6781,-2.21491 z"
         id="path51" /><path
         style="fill:#735a8f"
         d="m 293.51355,248.33404 c -1.30614,-1.89935 -2.28508,-2.67388 -6.07487,-3.24554 -2.27102,-0.75907 -0.77492,5.04164 -1.37629,-0.10403 -0.30043,-4.6117 -0.31917,-12.03824 4.91861,-9.89296 -1.97669,-1.02653 7.39469,0.1033 6.42738,1.56614 -1.10499,1.9153 7.16362,8.14789 1.03357,8.9673 -1.51618,0.87145 -3.47817,2.41639 -4.9284,2.70909 z m 43.55134,-32.82674 c -0.73283,-2.94911 5.79666,-5.57674 0.35678,-3.5344 -0.69555,-2.20589 -0.34993,-8.91577 3.07533,-4.08758 2.79407,0.68078 2.69731,2.6051 4.14769,2.33488 6.28398,1.47959 0.22244,5.2685 -3.23827,4.91779 -0.63333,0.33675 -5.44772,3.30951 -4.34153,0.36931 z"
         id="path50" /><path
         style="fill:#654e68"
         d="m 286.15814,254.66774 c -0.62315,-3.28937 -0.11049,-6.75971 -0.22408,-10.13354 0.65401,4.20214 -0.32004,3.1606 1.13962,0.2807 3.40799,0.61029 5.83275,1.87414 6.15571,3.36138 -1.15657,3.97288 -7.15893,1.15013 -6.35324,4.40637 -1.57203,0.27531 0.0568,3.20662 -0.71801,2.08509 z m 52.33387,-34.22776 c -2.43887,-0.59965 -6.11591,-2.75437 -1.25973,-2.56279 1.76693,-0.40979 11.10674,-6.81229 7.98923,0.46853 -1.63171,1.54016 -3.81049,2.51013 -6.7295,2.09426 z"
         id="path49" /><path
         style="fill:#4d3459"
         d="m 335.37199,269.66493 c 2.18999,-7.50404 -5.69271,-0.39375 -5.52326,-1.78166 7.92228,-1.77135 3.99024,-10.53774 4.77578,-16.16346 1.82709,2.73207 3.2285,4.21787 2.57627,7.63105 -1.79375,-0.77674 0.26572,6.87413 3.00324,2.34091 1.90588,-2.12544 4.63769,-1.88047 0.86469,-0.0801 -6.0336,1.30687 -4.4763,7.67134 -5.37636,12.01127 -0.86833,0.34998 -0.0316,-3.3015 -0.32036,-3.95799 z m -33.4863,-2.70563 c 0.79295,-2.6797 -4.20265,-4.74118 -0.44102,-3.03494 -0.26648,-1.82912 -0.7265,-8.70078 -1.95911,-3.34962 -2.7533,5.50394 0.41336,-2.81425 -0.69625,-6.0599 0.83828,-4.19614 -5.43658,-7.77236 0.99644,-9.47652 4.62819,-1.6713 -3.78246,-4.24393 0.0269,-7.0548 -2.41048,-2.95162 0.38922,2.0004 -2.08195,-2.34395 0.58771,-0.53548 4.07416,-0.36841 5.3938,0.7536 -3.47729,-0.49543 4.04603,1.59481 2.79101,0.78764 1.16161,0.27086 -0.70408,-4.5397 1.04582,-0.82964 3.09705,1.82193 -2.29558,-3.65237 1.98296,0.15407 3.94277,-0.78982 2.92403,6.19917 6.23255,9.45548 2.17068,5.10229 12.44156,-3.56771 6.23713,2.52648 -1.12905,2.73091 -4.70784,-0.99521 -2.30828,2.01591 -1.149,-0.185 -4.38085,-4.71926 -1.7841,-1.38503 -3.07709,-2.5664 -5.60702,-5.98681 -8.63752,-8.46158 0.12447,1.64542 4.47704,3.44967 1.5813,5.28334 1.35548,-2.61165 4.08904,-0.29237 2.43073,0.65696 -0.22367,-4.22798 -0.25741,4.94593 -3.68463,1.08174 2.58948,1.91314 -2.9433,-0.0781 0.95762,1.44369 1.76451,5.58822 -5.02545,-4.92738 -6.39476,1.28181 -0.14785,4.95053 -1.09557,14.5569 0.98249,15.99404 -2.85533,-2.42705 -2.2902,5.82859 -2.67109,0.56123 z m 13.58828,-4.74333 c 0.82913,-1.42088 -2.31667,-5.82223 -1.91669,-7.55834 1.8059,1.03981 1.47368,0.0406 0.23256,-0.16687 2.69404,-2.51756 -1.20719,0.20615 -1.8678,-0.66885 1.93504,-3.15082 -1.40371,2.19987 -1.16116,-1.43227 1.59217,-0.0518 4.33492,1.38548 1.74858,-0.79365 -1.41186,-0.81103 -0.90129,0.40274 -0.25297,-1.80029 -2.79612,-0.15835 -1.30742,-1.53658 1.3605,-1.48519 -0.99809,1.10751 0.53901,-2.10992 -1.29584,-0.22617 2.37973,-2.90188 3.12505,3.86598 0.409,2.43472 2.11363,1.91781 3.24309,4.95539 4.98848,2.93646 -4.01647,1.2607 -0.84667,4.77077 -1.37718,4.87971 -0.66783,2.53764 1.95849,3.51138 -0.86748,3.88074 z m 18.78542,-12.11206 c -1.97284,-2.85196 -5.06586,0.35651 -3.56179,-4.82431 0.9169,-5.37713 8.46116,-8.91931 11.02074,-4.0509 -4.55919,-2.3374 -2.50318,-7.65868 2.4563,-6.15993 3.6103,-2.03907 10.85571,1.32344 5.05518,4.63178 -1.35793,-0.63626 -4.06856,-2.02307 -3.15407,1.35604 -2.0196,1.78378 0.94149,3.12534 -2.24953,1.2801 -1.61457,-0.36934 -2.53593,-2.27097 -0.32578,0.46451 2.83194,2.19416 -3.42007,1.86528 -3.92832,2.80747 -1.09639,-1.89864 -4.94763,-2.46858 -1.80537,-6.36917 -4.22654,-0.10078 -1.52456,5.42433 -0.0568,6.11819 -1.87438,1.95939 -0.23827,-0.81787 -2.12439,2.18853 -1.85578,3.77313 2.54168,-3.34094 -0.12162,1.5301 -0.16516,0.0434 -0.78425,1.70969 -1.20452,1.02759 z m -16.20321,-3.16728 c -8.00401,-2.60542 4.27901,-8.20296 4.94874,-2.2712 -0.81818,1.10367 -3.21136,3.3796 -4.94874,2.2712 z m -7.96439,-10.61799 c -1.99959,-2.90269 -2.23479,-0.41679 -4.26708,-4.331 -2.3159,-4.85367 0.0787,0.33557 0.84753,0.006 2.22774,-1.68382 -0.75819,3.40584 2.47177,1.65338 1.76053,2.07483 -3.42825,-6.94199 -0.3207,-1.59194 0.69505,-1.76975 -4.33356,-10.52528 -3.35384,-10.31339 1.94341,3.97602 6.44243,-0.16249 4.97223,-2.49649 2.09813,-0.69435 -0.60186,-1.57865 1.95122,-1.14753 -1.45231,-1.17512 0.48578,-3.72683 -0.13148,-0.96354 1.73361,0.213 0.9959,0.36181 1.9751,-0.1998 -2.1182,2.77763 -1.38853,5.99449 -2.50513,9.9898 -5.43596,2.28289 0.2242,7.84398 -1.63962,9.39429 z m 24.27462,-1.48262 c 3.68243,-0.90364 3.38288,-5.16774 4.83266,-1.99589 -0.8119,-1.93874 2.08606,-2.56558 -0.11598,-2.67845 0.55149,-1.8822 -1.54536,1.16394 -0.78967,-1.1722 -1.57531,3.32736 -2.55836,3.06348 -0.0586,-0.4436 2.92951,2.48484 -0.5514,-2.83121 2.94039,-4.22808 2.36671,-2.16961 8.95982,-7.43034 10.5618,-4.07614 -0.20655,5.46677 2.12669,14.49167 -6.13,13.61561 -2.32804,1.16961 -5.92059,0.87845 -4.90614,0.31347 -0.23468,-2.7486 1.04812,-3.54003 -1.30262,-0.52085 -1.20714,1.08843 -3.62656,1.75125 -5.03187,1.18613 z m 7.72957,-14.69477 c 1.87522,-1.13347 4.05145,-1.18552 3.53661,-5.28045 2.63665,-5.54594 10.10052,3.52757 2.88136,3.44735 -2.11003,0.70399 -4.21843,1.45549 -6.41797,1.8331 z"
         id="path48" /><path
         style="fill:#0a060b"
         d="m 317.48882,276.18894 c -2.06855,-3.21215 -3.21643,-6.03435 -2.46152,-10.15503 0.89498,3.89729 -1.85797,7.33588 -5.01758,3.264 -2.83925,-3.94239 0.19193,-10.55835 0.45224,-15.4691 2.65702,0.48408 3.8326,8.60207 5.63927,12.32232 0.5511,2.18992 1.96891,11.22879 1.38759,10.03781 z m 3.10187,-2.31904 c 1.0037,-2.41534 0.52686,-8.47164 1.35358,-8.91452 0.0665,3.3955 1.94012,-7.12376 3.53611,-9.04384 3.03348,-5.13067 3.07005,6.2029 3.48394,8.59551 2.7658,4.5368 -7.81534,10.77637 -5.73044,3.25688 -1.14649,-3.0193 1.68606,6.07229 -2.31416,6.07568 -0.35194,1.43699 -0.61686,0.55462 -0.32903,0.0303 z m -13.84797,-6.72879 c -6.36374,-1.7924 -2.5934,-8.73706 -3.23765,-13.4233 -1.9683,-4.51085 5.32937,-7.65358 4.1723,-1.49547 -0.28324,4.74267 1.68903,12.67257 -0.16447,15.42311 z m 23.01875,-3.49157 c -0.16262,-2.51551 -0.39869,-8.08367 2.73856,-3.84339 3.48104,2.16382 -4.81265,-3.11193 -2.29329,-5.68925 -0.53486,-3.82071 1.12733,-7.94666 4.70925,-3.97265 1.19129,-2.03859 2.09445,-4.25484 -0.18023,-0.91604 0.80783,-2.69823 3.97061,-3.86335 2.43483,-4.94717 4.81913,2.67847 9.63463,5.76508 14.54957,8.45519 -1.34217,4.35076 -7.62565,5.4735 -10.99101,8.4608 -2.62411,2.30619 -4.74272,3.49488 -3.73369,-1.18034 1.70962,-3.76552 -1.43993,-5.7125 -2.29011,-8.60338 -1.69394,4.63751 2.77535,11.72744 -1.6696,14.5322 -4.81118,3.49337 -2.90466,1.32723 -3.27428,-2.29597 z m -34.52812,-3.65017 c -2.97808,-2.28034 -13.70421,-6.15019 -5.64824,-8.823 3.2854,-2.99818 9.35008,-5.27142 8.98337,1.63317 -0.22306,3.25389 2.63247,13.0805 -3.33513,7.18983 z m 53.8427,-9.10234 c -2.3821,-1.71721 -11.1466,-5.9901 -8.88137,-6.16541 1.73118,-1.57661 -0.81946,2.1189 2.2529,-0.48029 1.07867,0.0169 5.38007,0.66726 1.39554,-2.03159 2.87888,2.6798 1.33335,-7.45433 4.96846,-2.21658 2.83685,-3.95712 3.33233,-1.85957 2.91034,1.94802 -0.88825,2.40669 2.21091,13.69987 -2.64587,8.94585 z m -33.88092,-5.76305 c -2.47035,-4.99579 -5.79182,-10.67677 -5.63853,-16.15959 4.55126,-3.47688 2.27867,-11.21711 6.45628,-14.16024 2.59022,1.27148 -4.10585,5.64372 0.62795,2.25263 3.18598,-2.27888 1.25581,8.10268 2.58445,2.24132 0.17562,-6.71901 7.73053,1.95654 6.68574,5.42884 0.4337,2.88048 2.76651,6.06527 -1.42258,4.465 -4.36256,1.28927 -0.10451,7.23361 2.61812,3.99079 -0.056,3.21126 -3.35419,10.79188 -4.09189,10.95957 -2.02165,-4.78036 -8.86636,-0.59516 -7.69712,1.14504 l -0.12242,-0.16288 z m -10.17848,-7.74994 c -4.55594,-1.40326 -2.41977,-1.02913 -0.95892,-1.06087 -3.29801,-0.58018 -6.34532,-2.38484 -1.284,-0.911 0.89747,-0.25282 -6.14681,-1.12501 -5.97407,-4.3174 1.56558,4.02504 1.31382,5.10641 -3.32369,3.5778 -2.73386,-0.15863 -4.15525,-0.50707 -1.05126,-0.79154 -5.49967,1.01672 -6.70951,-3.87501 -6.05491,-8.0775 0,-2.51404 0,-5.02807 0,-7.54211 7.76691,1.57055 12.22108,7.86222 16.03428,14.20205 1.29201,1.93192 3.76436,5.12698 2.61257,4.92057 z m 1.14014,-0.0597 c -2.91675,-4.75714 -6.63647,-8.98436 -9.31859,-13.89105 5.98275,1.05731 7.57873,6.93201 10.95364,11.37341 0.84518,1.54195 -2.05143,-0.56035 0.33854,1.65933 -0.76513,1.13706 -2.91308,-2.99585 -1.61672,0.2147 -0.61398,0.97784 0.58356,1.31401 -0.35687,0.64361 z m 1.71041,-3.01883 c -0.29544,-3.33656 -0.56456,-2.14589 -1.52414,-2.35369 -1.58127,-2.10835 -5.91954,-7.84421 -0.63916,-4.322 4.53436,2.35752 -5.50955,-3.52197 -0.32999,-1.21136 1.64958,1.62538 -3.62555,-3.9363 0.54384,-1.11766 -1.356,-3.56641 -3.89778,2.91573 -4.55166,-1.3698 1.86635,-3.23891 -2.43271,2.64198 -0.278,-1.12927 -1.29424,2.21327 -2.1339,0.31346 -0.89379,-0.23752 0.46211,-0.71037 3.21313,-0.0732 1.61481,1.71853 0.94653,-2.20745 3.37132,-1.98071 1.14205,0.43339 1.06673,-3.70415 4.58689,1.51655 1.87387,-2.55708 -2.20808,-3.5812 4.59776,0.088 1.91536,-3.64285 -2.17012,-1.49842 -8.10698,-7.35495 -2.76282,-3.01216 1.85806,3.80077 5.4433,2.67736 6.17053,0.87493 -1.32788,1.53709 -2.92469,4.30185 -0.19757,1.23833 -1.04103,2.62049 -0.88698,1.81292 -0.29076,3.2505 -1.07139,-1.30258 -4.4504,3.50385 -1.72637,-0.0821 -2.9116,0.53232 -1.03772,3.99739 0.69247,0.54822 -0.99466,2.64442 -2.82589,2.35295 -3.62172,-0.28782 0.99322,2.73293 4.44032,10.86746 3.55146,10.19101 -2.51324,-2.83763 3.45808,4.28139 -0.50978,2.79456 1.24291,1.4427 0.95345,1.87957 -0.17863,0.27381 z m -5.75469,-12.38814 c -5.06321,-1.91163 -12.43256,-2.37119 -15.81805,-5.90238 3.3767,-4.26185 9.37795,-6.49145 13.97295,-9.66197 0.72035,2.95333 -0.25944,5.9937 -1.31091,5.36035 2.96065,1.95062 2.20623,7.68899 -1.26536,3.28051 -3.86747,-0.62301 -3.21338,-0.11674 -0.0294,1.12502 2.99096,0.46426 10.07263,3.31836 5.31069,5.9716 l -0.86,-0.17313 z m 8.66596,-10.78678 c -1.08117,-2.59943 -2.96935,-11.66405 -2.78882,-4.25465 0.30719,6.67966 -8.65072,3.66741 -5.88928,-1.93293 4.19868,-2.07581 11.15758,-8.44789 13.73845,-7.64211 -1.51745,4.75428 -1.9087,11.34903 -4.63622,14.93072 z"
         id="path47" /></g></g></svg>
