<?xml version="1.0" encoding="UTF-8" standalone="no"?>
<!-- Created with Inkscape (http://www.inkscape.org/) -->

<svg
   width="69.494514mm"
   height="100mm"
   viewBox="0 0 69.494514 99.999999"
   version="1.1"
   id="svg1"
   xml:space="preserve"
   xmlns="http://www.w3.org/2000/svg"
   xmlns:svg="http://www.w3.org/2000/svg"><defs
     id="defs1" /><g
     id="layer1"
     transform="translate(-120.21858,-241.8657)"><g
       id="g37"
       transform="matrix(1.5430629,0,0,1.5430629,-154.39317,-193.03769)"><path
         style="fill:#93979b"
         d="m 193.30552,342.08635 c -1.63441,-1.91752 -8.23984,-3.41258 -5.96871,-5.78627 2.5328,-2.55952 5.51528,4.93066 8.30095,0.34513 2.39577,-3.10399 6.47959,-4.20633 9.08876,-0.68124 2.26608,3.46532 5.6134,1.72328 7.91426,-0.54779 4.92151,2.30297 -1.79982,4.10601 -3.69496,5.7691 -2.85479,1.78721 -5.69046,3.60515 -8.49843,5.46513 -2.39322,-1.50157 -4.76317,-3.03972 -7.14187,-4.56406 z"
         id="path40" /><path
         style="fill:#023247"
         d="m 192.19815,337.86596 c -2.21074,-1.45139 -4.00362,-3.6469 -6.1438,-0.66146 -2.59494,-2.69427 -8.84865,-3.16241 -8.0127,-7.97007 -0.0131,-6.30527 0.1303,-12.60967 0.32263,-18.91164 1.13523,1.3104 1.01137,-2.55163 1.80095,0.62215 1.85672,1.56402 4.59699,-2.21382 4.31688,1.94783 0.84425,4.04108 3.68651,7.3377 6.63354,9.9782 1.19951,0.94715 2.49109,0.79416 1.56702,2.19231 3.76432,-0.65323 8.28609,2.58006 12.66025,1.21102 1.99241,0.40699 -2.97818,2.17549 0.53669,2.64582 3.03763,-0.88469 6.4497,-2.06196 8.79436,-1.96474 0.15474,-1.91198 1.9625,1.05622 1.34721,0.7647 2.95716,-1.94738 -1.92992,1.65958 1.56354,1.92955 2.13344,0.69584 7.53879,2.3036 2.85519,3.59394 -1.33443,1.65061 -5.2977,2.58557 -6.19324,3.03936 0.90662,1.31647 -1.70127,-3.552 -2.37542,-0.46776 -2.33267,2.01832 1.42303,-1.87681 -0.89857,-0.0837 -1.73597,3.25256 -3.59183,2.83339 -6.03476,0.17967 -2.93035,-3.28936 -7.20585,-2.36625 -9.6915,0.97407 -0.7663,0.64229 -2.02571,2.00699 -3.04827,0.9807 z m -11.90252,-29.46843 c 0.20908,-1.28413 -4.07965,-3.83251 -0.42805,-5.1487 1.86277,1.02864 4.07937,1.09686 5.01992,-0.17994 -0.67657,0.81872 0.50426,6.10977 -2.78643,5.16395 -0.54317,0.10966 -1.41202,1.04531 -1.80544,0.16469 z"
         id="path39" /><path
         style="fill:#021a27"
         d="m 208.45001,337.93211 c 1.85887,-1.7825 4.43542,-4.57767 6.58135,-1.70767 1.87542,-1.37924 8.12521,-2.89532 6.76545,-5.2043 -3.34786,-0.15252 -7.51979,-2.47604 -3.63903,-5.44716 -1.64641,-1.10735 -1.25243,-1.85382 -2.59883,0.076 -1.78495,0.25676 3.38145,1.26122 0.17852,2.10129 1.39122,-1.35279 -1.86685,-1.45901 -1.60357,-0.78922 -1.68742,0.0458 -5.41909,0.89314 -8.0662,2.03653 -3.6959,-0.6485 1.85079,-2.97151 -1.27427,-2.72868 -1.60227,0.44919 -8.37722,-0.1585 -3.2778,-0.22339 6.15064,0.0244 12.18399,-3.69682 14.75797,-9.31364 -3.73589,3.41854 -9.16995,5.24091 -14.0528,3.23977 -1.84,-0.56115 -7.59829,-4.03441 -5.11231,-5.4734 -0.79998,2.51173 1.27245,-1.48222 1.16999,-0.43703 1.88901,-1.85944 -3.21781,-2.79015 -1.81894,-1.29662 -2.00012,0.36863 -0.55982,-2.38501 -2.15204,-1.70726 0.77948,1.24078 2.90814,5.36818 0.47892,2.12401 -2.78535,-5.87418 -0.51832,-13.8104 5.56746,-16.57183 1.70231,-1.97732 8.00535,-0.6925 7.64318,-2.13311 -8.46677,-3.95413 -19.63965,0.65845 -22.60628,9.57818 -1.71345,4.56988 -0.90192,9.67782 1.28987,13.91903 -2.86759,-1.95371 -0.82461,-9.34686 -5.40964,-6.59533 -1.7266,0.25904 -1.79286,-3.71263 -2.3292,-0.60894 -1.06433,-1.72879 -0.5407,7.20585 -0.85983,2.44614 -0.10904,-5.66188 -0.0389,-11.32496 -0.0591,-16.9874 7.01963,-4.09761 13.53758,-9.22385 20.79663,-12.79499 -1.02071,0.99248 -1.13889,3.38093 0.64929,2.57534 -0.43938,-0.19459 2.16798,2.23463 2.17957,-0.27273 4.36392,0.12156 0.98317,-1.41017 -0.13633,-3.41666 -0.48292,-1.96678 2.10546,2.82033 3.9487,2.69897 5.86761,3.69302 11.75728,7.38734 17.54136,11.22447 -0.001,12.00018 -0.003,24.00037 -0.004,36.00055 -3.31952,0.93205 -6.37999,6.31767 -9.58578,3.58837 -1.83725,-1.56807 -5.03008,3.45086 -4.9623,2.1007 z m 0.91111,-27.11248 c -0.41521,-2.5534 5.52068,-2.09854 1.09065,-3.34464 -1.49926,-1.65198 -1.42432,-3.36141 -2.42018,-0.53551 -1.6943,1.38456 -3.53786,1.35067 -0.54753,2.09922 1.29787,0.0872 1.35746,4.92627 1.87706,1.78093 z m -28.0309,-2.25627 c 3.8669,1.2962 3.11611,-4.17488 3.39279,-5.57425 -1.25194,3.10188 -7.00818,-2.19022 -6.30432,2.76474 1.85895,1.69616 1.79404,1.38659 2.30804,3.12771 l 0.60349,-0.31822 z"
         id="path38" /></g></g></svg>
