<?xml version="1.0" encoding="UTF-8" standalone="no"?>
<!-- Created with Inkscape (http://www.inkscape.org/) -->

<svg
   width="68.112671mm"
   height="100.00002mm"
   viewBox="0 0 68.11267 100.00002"
   version="1.1"
   id="svg1"
   xml:space="preserve"
   xmlns="http://www.w3.org/2000/svg"
   xmlns:svg="http://www.w3.org/2000/svg"><defs
     id="defs1" /><g
     id="layer1"
     transform="translate(-209.97036,-238.96928)"><g
       id="g40"
       transform="matrix(1.4420794,0,0,1.4420794,-145.49349,-139.80765)"><path
         style="fill:#f6a54d"
         d="m 267.24151,303.5115 c 1.32777,-4.5182 0.46983,-9.36279 1.9376,-13.87229 1.05744,-2.19546 -0.99531,-9.6103 -1.90357,-4.00163 0.14088,3.46007 -0.6287,8.66056 -3.88435,9.31 3.60829,-2.35621 2.68671,-7.17367 3.25832,-10.85659 0.76348,-4.77245 -3.54885,-1.50081 -3.50558,2.05358 -2.33814,5.39145 0.81016,-2.85813 1.05444,-4.83027 -0.5044,-1.86221 4.10367,-0.66796 1.6996,-2.8905 2.88305,1.22151 -2.18002,-1.12341 -0.27859,-2.49374 2.79127,2.71617 2.61492,-2.83622 1.58146,-4.38149 1.03982,-0.53964 3.02681,-3.46218 1.80538,-4.14417 2.09153,1.80617 1.67165,-0.47901 1.38166,-1.35605 2.67689,1.48332 -0.28135,8.43402 4.28103,8.50283 0.0907,0.59759 4.75092,-0.16862 1.75184,0.5879 -0.2453,1.09735 -3.15079,0.90823 -1.09894,2.10162 -1.284,-1.04396 -3.97195,2.27749 -1.12284,0.93866 -2.3453,2.40478 0.54728,2.12635 1.33241,3.45321 -1.39797,0.77352 -1.20507,1.6156 -1.673,3.27873 0.38858,-3.79405 -1.47857,-1.89633 -1.38181,-1.7439 -2.23432,-1.52563 -0.9961,6.09082 -0.87183,7.99404 0.63353,2.65198 0.15471,4.28836 -0.37744,0.5874 -0.0428,-2.93491 -1.4179,-3.63286 -1.82323,-0.52242 -1.99368,3.90386 0.76711,9.02328 -2.16256,12.28508 z"
         id="path44" /><path
         style="fill:#cd5334"
         d="m 265.35411,276.99604 c -0.57739,-1.93352 -3.32917,-1.69336 -0.97737,-3.07141 1.37256,4.92089 6.17734,-1.60192 0.43038,-1.24198 -3.13844,-0.54312 0.62917,-3.12388 -2.48357,-3.01953 -0.61571,-1.59446 -4.14785,0.66582 -2.63294,-2.81037 1.58502,-2.2651 3.41137,0.16328 5.48264,-1.52857 2.1431,1.35087 2.60067,-2.54042 5.48712,-1.19036 2.68268,-0.9079 6.98095,-1.94887 9.3883,-1.23836 -1.90044,0.81027 -1.55662,4.44757 -4.98854,3.44795 -0.66873,1.75854 3.41799,2.50622 0.67602,4.48355 -0.89431,1.95697 -4.44658,0.77617 -2.15514,2.57437 1.83615,0.0631 4.33606,-3.2164 3.02017,0.24174 2.52435,1.85744 -0.46452,1.23202 -2.17068,1.20139 -0.93695,0.13578 -3.16142,-2.17045 -2.35363,-4.37275 -0.91405,-2.26969 -0.95198,-6.31533 -1.84523,-2.4342 -1.66721,-0.43134 -1.51552,-1.22372 -0.83204,0.54921 0.7385,0.71823 -4.24429,3.23855 -1.3164,5.46945 0.62543,2.86618 -2.12676,3.04863 -2.56497,2.25026 0.36627,0.1292 -0.26042,1.63676 -0.16412,0.68961 z"
         id="path43" /><path
         style="fill:#732b48"
         d="m 246.72678,292.09987 c 0.87998,-3.86846 -2.14103,-10.04467 2.09136,-11.89299 4.25588,-2.89468 8.71917,-5.41076 12.98577,-8.26118 1.97115,-0.35744 9.14675,2.5151 4.45121,3.80633 -1.5785,-0.24195 -3.28705,-3.41137 -2.56374,-0.31179 2.52934,1.7055 2.78808,4.38145 -0.13612,5.53267 -0.39261,3.96476 -3.86879,7.25136 -5.4877,11.01785 0.3961,0.0873 4.15715,-5.22187 1.49785,-1.19995 -2.8891,2.80012 -5.21527,6.30069 -8.06077,8.90929 -2.25645,-0.35823 -5.7864,3.51688 -4.7274,-0.71549 0.006,-2.29468 -0.0584,-4.58949 -0.0505,-6.88474 z m 43.43502,9.17398 c -2.48524,-2.81687 -5.75393,-4.90953 -7.81598,-7.9372 -2.6123,-4.24137 -4.50679,-8.97949 -7.56026,-12.86872 -2.80498,0.28732 0.55274,-2.82886 -1.28621,-2.77018 2.74007,-0.50217 0.24717,-1.98873 3.20858,-1.91897 1.77354,-1.37824 -0.72596,-2.70692 0.17594,-4.09837 -0.81755,2.04549 -5.89823,1.96951 -2.25818,0.0382 3.66348,-2.66534 7.03766,3.41336 10.51767,4.55631 2.78124,2.31964 8.58816,3.20402 8.2477,7.3915 0.27012,5.73499 0.0242,11.47835 0.12251,17.21681 -1.02838,0.42286 -2.27313,1.15788 -3.35177,0.3906 z"
         id="path42" /><path
         style="fill:#180a15"
         d="m 266.8928,330.445 c -2.72529,-2.10586 -7.07127,-3.71366 -8.46391,-6.41294 -0.37306,2.48879 -2.937,-1.73744 -0.46659,-2.21137 -2.20086,3.43014 -5.12725,-0.80095 -1.42668,-2.04628 1.3655,0.29974 3.48049,-4.19542 3.09453,-1.27538 0.91338,-1.966 4.94449,-6.21238 4.80703,-6.16505 0.29046,3.29458 -5.55315,7.47792 -4.97287,8.74502 2.40739,-3.06176 5.57596,-6.00377 5.7324,-10.13543 0.52977,-1.91695 1.11878,-6.03212 2.56066,-6.53063 -0.58196,2.21473 -1.05511,5.41796 0.22737,1.30612 1.67645,-3.59615 0.56999,-8.01941 1.89582,-11.89774 0.008,-2.4433 -1.40205,6.72337 -1.10923,1.58183 0.26296,-2.014 2.04053,-8.79454 2.15127,-3.5975 0.17188,4.45541 1.19919,8.7592 3.20028,12.7471 0.47646,1.81975 3.20587,6.03788 1.26054,2.05938 -0.89321,-1.55629 -3.07437,-8.25071 -0.96855,-3.59652 1.08099,3.66001 3.77045,6.29966 6.3419,8.95005 1.76533,2.53868 6.57818,6.28397 7.68509,6.69889 -3.36807,-2.4562 -6.07979,-5.37086 -8.48337,-8.76266 -3.03261,-2.01026 -5.23006,-6.89997 -5.10997,-8.73669 -3.11044,-1.45853 -1.09267,-8.49867 -1.13052,-8.40842 1.28115,4.48283 3.33032,8.65367 6.33222,12.20025 1.47931,1.69227 5.42589,5.30734 6.45267,5.13029 -3.04424,-2.24275 -6.18092,-4.5351 -7.51635,-8.21688 -2.06961,-1.22951 -3.63823,-6.8566 -0.0728,-3.37191 1.03849,1.35517 3.94,3.22958 1.16405,0.65712 -3.54797,-3.08957 -6.23946,-6.64824 -6.65465,-11.51784 -0.60639,-2.62286 0.54024,-3.67679 0.71492,-0.41122 0.41516,2.34525 1.8591,5.06742 0.59264,1.11018 -0.80691,-2.94863 0.4546,-3.45974 0.62398,-5.37496 2.25017,1.99367 3.19794,8.35905 4.1154,8.75612 2.23167,2.07083 1.50466,1.63907 0.21725,-0.64486 -0.93263,-2.00762 -3.26109,-7.4272 -2.75522,-7.45488 2.37027,3.73175 4.03369,7.91263 6.57772,11.53575 3.14184,1.50986 4.46586,5.50751 7.89903,6.41568 4.26905,-1.87561 1.15589,5.41442 2.0432,7.58779 -0.12108,4.38246 1.26752,9.58884 -4.13748,11.01476 -6.30107,3.86962 -12.30434,8.32594 -18.81139,11.79726 -1.38878,0.22809 -2.60636,-0.69857 -3.61037,-1.52443 z m -16.76692,-10.77834 c -3.761,-0.34065 -3.68404,-6.36308 -2.60027,-7.32425 -0.64338,-3.05449 -3.09594,-13.02256 3.05083,-12.16966 3.3101,-1.99103 5.13592,-5.81969 8.11982,-8.37319 1.45755,-1.53779 2.75196,-4.13089 0.53246,-0.99994 -2.76925,3.31819 1.66428,-3.0539 1.96858,-4.53603 0.99055,-0.92452 3.07419,-5.87617 1.91596,-1.69833 -0.65644,3.20024 -3.36482,8.01027 -3.42967,9.88837 0.979,-1.70489 3.41303,-8.68588 2.26387,-2.89511 1.22912,-2.68004 1.20865,-6.4948 2.76485,-9.37018 2.60859,0.28463 -1.05979,8.31752 1.19443,3.04349 0.9005,-4.84614 0.25445,4.29953 -0.30623,6.07295 -1.72244,3.10584 -3.78541,6.27222 -5.16879,9.73375 -0.88889,2.0874 -6.80622,5.40895 -1.82681,2.74916 3.83055,-2.02913 2.78032,-7.98871 6.86279,-9.51352 -0.6745,6.54825 -5.55071,11.45184 -9.5002,16.29374 0.81049,-2.76426 -3.46132,4.15568 -0.56661,0.76043 -2.3758,4.68893 2.7539,-3.54417 4.35825,-4.78194 4.47277,-4.5573 6.74771,-10.8037 7.38205,-17.07679 0.0985,-1.33484 0.16216,3.88514 0.60904,0.3481 -1.14906,-1.85614 0.27791,-8.84151 1.2885,-3.57249 0.41378,4.22129 -1.64772,8.236 -1.26831,12.48562 0.83478,3.57155 -2.16865,6.87979 -4.35898,8.38656 2.79558,-1.28418 -0.65416,4.70191 -0.92474,6.23129 -2.51366,3.25291 -6.52005,5.86738 -9.7666,7.97069 -0.99438,-0.33219 -1.6512,-1.22622 -2.59422,-1.65272 z m 22.51152,-23.90138 c -1.32728,-3.99319 -0.8544,-8.21864 -0.69982,-12.3196 1.14284,4.02561 0.77772,8.54808 1.06673,12.75677 l -0.16559,0.0798 z"
         id="path41" /></g></g></svg>
