<?xml version="1.0" encoding="UTF-8" standalone="no"?>
<!-- Created with Inkscape (http://www.inkscape.org/) -->

<svg
   width="76.062057mm"
   height="100.00002mm"
   viewBox="0 0 76.062057 100.00002"
   version="1.1"
   id="svg1"
   xml:space="preserve"
   xmlns="http://www.w3.org/2000/svg"
   xmlns:svg="http://www.w3.org/2000/svg"><defs
     id="defs1" /><g
     id="layer1"
     transform="translate(-297.1948,-241.28744)"><g
       id="g44"
       transform="matrix(1.5956052,0,0,1.5956052,-213.55659,-179.35163)"><path
         style="fill:#f29f27"
         d="m 344.97301,313.98444 c -1.06379,-2.56521 -2.61404,2.38385 -3.86585,-0.23488 -1.33825,-2.75969 -1.70362,-5.91652 -3.1897,-8.66175 -0.76544,-1.1591 0.35558,-5.95895 -1.51398,-3.04496 -0.54733,2.85615 -1.6877,-0.45736 -0.0483,-1.30162 2.27092,-2.04931 2.27085,-5.33066 -0.39767,-6.93669 -1.17033,-0.60812 -1.36949,-4.46395 -0.32476,-3.24527 0.20204,2.02902 3.06274,5.26048 4.44111,4.81576 1.13602,-1.07366 1.554,-2.86896 -0.5675,-2.37077 -2.41111,-1.54007 0.27547,-4.55867 -2.14864,-5.65538 -0.31384,-2.7171 -1.61012,-4.9682 -4.56299,-5.17649 -3.42901,-1.5458 0.16468,-4.73541 -1.44561,-7.0444 -0.13893,-1.47455 2.17801,1.73834 1.39445,2.67821 -1.07787,3.40826 2.33466,3.85125 4.30656,5.30292 1.2623,1.56439 1.39128,3.47462 2.85925,4.71893 -0.32301,1.98335 -1.25269,4.55044 1.45804,5.20457 1.19029,2.11368 -0.78184,2.73628 -0.75329,4.81572 -1.49984,2.48702 -3.40621,6.33653 -1.07544,8.77604 1.1776,-0.52395 3.31294,-0.26936 3.375,-2.06393 -0.32256,1.03664 -0.72163,4.08959 1.11625,2.60191 -0.53192,-1.48303 1.6517,-1.92198 1.07518,-2.98786 1.1584,1.16148 0.87963,0.0165 1.57992,-0.25666 -1.39156,2.59962 2.25531,3.94155 1.35833,6.50539 -0.45103,0.97126 -1.77367,6.42333 -3.07037,3.56121 z"
         id="path47" /><path
         style="fill:#db3c12"
         d="m 336.95592,309.73688 c -0.41874,-0.95123 -0.88146,-5.74467 -2.1715,-3.21347 -2.14817,-1.92513 -1.56782,-5.36382 -1.09865,-7.6106 0.74347,-0.44681 1.1194,-0.90957 0.25147,-1.78396 1.49018,0.49769 3.00879,-2.23095 0.70654,-1.47633 -0.89052,-0.81265 1.2205,-2.07977 -0.36102,-3.03489 0.76359,-2.08517 -0.87595,-4.37488 -1.55033,-5.6395 0.14513,1.86028 -2.34536,3.59447 -0.98961,4.68412 -1.46679,0.20325 0.10722,2.49493 -1.98364,1.88882 -2.83791,-0.77051 2.04599,-1.56394 -0.76709,-1.93011 -1.13757,-0.0794 -2.35012,-1.1253 -0.49849,-1.10555 -1.14865,-1.15975 -2.15221,-2.13662 -0.0529,-2.81857 0.77265,-1.32878 -2.95122,-0.53855 -1.07549,-2.42696 -0.17049,-1.45186 -1.2916,-3.05879 -1.96922,-5.03471 -2.16187,-0.10229 -0.7337,4.32695 -2.51378,5.3095 0.49168,1.77671 -0.84981,-1.93935 -0.26309,-2.6934 0.28253,-1.98988 -0.97326,-4.84516 1.62983,-5.53303 6.40313,-3.92985 12.66176,-8.09494 19.15701,-11.87424 3.25584,0.72071 5.54744,3.41973 8.52818,4.7689 2.61872,1.63638 5.16981,3.41881 7.96566,4.73484 -0.0382,0.80109 -2.25434,1.95032 -0.38404,2.37672 -1.89728,0.25894 -1.07819,2.49693 -0.80033,3.09136 -1.91818,0.60872 0.18901,2.18717 -2.00896,2.77491 -0.94114,1.26084 4.30947,1.13993 1.14565,2.61978 -2.75413,1.00076 -2.26545,2.47537 -0.32947,3.11832 -1.15502,0.90882 2.87457,0.62174 0.6387,1.5364 -0.84451,1.60746 -6.87285,1.34336 -3.15439,-0.30344 1.8635,-0.23761 -4.77011,-2.3564 -0.93661,-1.9941 1.31037,-1.2906 -1.92539,-2.05924 -1.5771,-3.22227 0.65587,-1.52687 -0.51678,-4.07824 -1.55913,-5.61919 -0.0445,1.91435 -2.24277,4.29791 -1.1169,5.67853 1.54429,0.7469 -3.86066,2.02397 -1.17622,3.11064 1.98538,-0.0913 -3.61537,2.93718 -0.35835,3.30946 -2.10417,1.27423 -0.36435,2.47468 0.96125,1.96968 -1.99301,1.02119 -1.63812,2.74959 -0.78603,2.72823 -2.22005,0.67292 -2.6415,2.42451 0.027,2.12432 -1.71398,1.10807 -2.01313,2.04261 -0.10845,2.85539 -1.29715,0.59207 -4.38049,2.37364 -1.03423,2.33188 1.4131,0.34029 1.28526,0.91035 2.60609,1.05356 0.83523,0.78743 -0.3387,3.37384 -0.40895,1.09291 -0.48854,0.76078 -1.36605,4.82809 -1.81034,2.43227 -0.37102,-1.20641 -2.24954,-1.51303 -1.21852,-3.33421 0.52151,-2.03416 -0.60769,1.44525 -1.39469,-0.53341 -0.021,0.46986 0.0864,1.72433 -1.23684,2.00926 0.79368,2.54004 -2.88023,1.01082 -0.93542,-0.62553 -0.0615,-1.2865 -2.28702,2.13723 -3.3684,0.87889 -2.23368,-1.4554 -0.82935,-5.34396 0.42509,-7.37947 1.2948,-1.37005 0.41835,-3.53216 1.95767,-4.12005 -0.43766,-2.38175 -4.30529,-4.05311 -1.91986,-6.59214 -1.16448,-1.58723 -2.09157,-3.17756 -2.60515,-4.95424 -2.62076,-1.43153 -6.0303,-2.86217 -4.50371,-6.38444 -0.0496,-1.35758 -2.64659,-3.51641 -1.12739,-1.05038 -0.0428,2.3152 -1.93762,5.95469 1.77224,6.40118 2.85435,0.55189 3.44024,3.25521 4.10461,5.42136 2.27663,1.18626 -0.86526,4.99785 2.54431,5.37579 2.45151,-0.66679 -0.98431,4.70142 -1.73707,1.73236 -1.35872,-1.45513 -2.9417,-3.00108 -3.13991,-5.09699 -2.22769,3.38962 3.90773,5.07238 2.70137,8.5174 -0.5816,1.75209 -3.68952,3.21814 -2.0824,5.24719 -0.44285,-1.2661 2.47132,-4.11474 1.47666,-1.2012 0.4541,2.56013 1.45764,5.0307 0.19825,7.5329 -0.0422,0.44782 -0.6611,0.13039 -0.68401,-0.12049 z m -15.49591,-27.02611 c -0.35444,-2.9699 0.0864,-6.67371 3.52252,-7.4595 6.16158,-3.85747 12.29223,-7.76405 18.44989,-11.62775 5.27705,2.59695 10.02205,6.15136 15.09939,9.0689 1.33002,0.7394 1.45114,2.27744 -0.27544,0.94734 -4.59446,-2.6616 -8.9735,-5.67257 -13.52264,-8.40841 -3.52265,-0.15958 -5.96823,2.92001 -8.92813,4.34918 -4.47496,2.84308 -8.96736,5.65857 -13.45247,8.48558 -0.22079,3.1653 0.5308,6.54222 -0.60109,9.56228 -0.87118,-0.44618 -0.0232,-3.71886 -0.29203,-4.91762 z"
         id="path46" /><path
         style="fill:#270506"
         d="m 342.05195,325.52777 c -6.88988,-4.48342 -13.87746,-8.81382 -20.81398,-13.22416 -0.0401,-5.12396 0.46064,-10.28855 -0.0504,-15.3868 -2.37283,-0.77943 -0.18648,-1.43749 0.20997,-2.77955 -1.50925,-1.6086 1.22815,-3.47644 0.16756,-5.67974 -0.16445,-1.98467 2.3018,-1.77856 1.74586,-3.49937 1.09822,-1.57709 0.1542,-3.88408 2.00914,-4.992 0.55093,2.28867 2.445,4.12865 1.89593,5.85871 -1.63088,1.48906 3.70755,0.91353 0.45941,2.29555 -2.01733,1.04558 2.42336,2.30199 -0.34288,2.94143 1.30242,0.21188 3.59398,1.04472 1.54132,1.80197 1.29852,1.62652 2.41802,0.52076 2.46822,-1.09717 1.29969,0.12091 -1.55477,-1.7296 0.46837,-1.32318 0.0347,-1.14245 1.11095,-5.25316 1.57864,-2.09126 1.64558,1.91845 0.86811,4.42477 1.28162,6.55968 -1.42278,0.79027 3.00935,0.67327 0.52272,1.99098 -2.50674,-0.0947 0.41763,1.5278 -1.45848,1.89533 -0.72189,2.04958 -0.84244,6.82941 1.09222,7.38543 1.99983,-2.11341 1.32241,5.21433 2.94213,3.19496 0.18895,-1.36478 1.03723,-2.99379 1.39965,-0.58858 0.79772,1.98775 0.41322,5.57636 3.17072,5.9046 0.86041,-0.97758 0.84621,-0.8598 1.79793,-1.16837 0.71697,-0.333 1.87326,2.34325 2.74978,0.29138 1.15023,-1.16433 0.83801,-5.64805 2.28859,-5.09695 0.10257,1.04859 1.04017,5.29562 1.26209,1.99333 -0.21379,-2.37951 1.13762,-6.2049 -1.95381,-6.75099 0.65178,-1.48017 -3.98246,0.46072 -1.57069,-1.66945 1.10618,-0.77863 1.3435,-1.72347 -0.0157,-2.15029 0.43254,-1.44949 2.97196,-2.11299 0.11023,-2.07241 -2.32736,-1.02077 3.94255,-2.20488 0.21586,-2.58192 0.37498,-1.07547 3.66672,-2.79123 0.68174,-2.06496 -2.12582,-0.31051 1.86371,-2.84187 -0.8303,-2.63557 0.53439,-1.43476 3.58796,-2.99 0.73215,-3.12998 -0.0647,-1.55394 3.99542,-2.13957 1.45822,-3.11638 1.01449,-1.52829 0.69862,-3.87751 2.05518,-5.13715 1.12984,2.46995 1.19881,4.81108 1.77239,7.03358 2.7334,0.6637 0.65529,1.77111 -0.35589,2.01839 0.91373,0.36981 4.23704,1.8209 1.53948,1.89318 -2.32132,1.87162 3.01448,1.39213 3.85937,0.12557 1.37183,-0.8757 -2.08166,-1.28317 -0.67948,-1.99545 -2.50929,0.4403 -1.94731,-2.20062 0.007,-2.44157 1.77671,-0.43785 1.82001,-2.01961 -0.13626,-1.83551 -2.45347,-1.03276 1.90502,-1.59775 0.45935,-3.34509 2.33502,-0.23629 -1.08945,-3.0644 1.53595,-3.44675 -1.46266,-1.611 1.63833,-2.85924 1.17228,-5.00827 0.73576,-3.21926 1.79301,2.34808 2.14193,3.51773 0.11706,1.40927 0.75959,2.03383 1.65051,3.27043 -3.70567,1.39591 2.19579,2.36037 1.77734,4.319 -1.00271,0.61504 -4.3931,1.16976 -1.504,2.14212 2.32171,0.71824 3.1931,3.91466 0.33394,3.15565 -1.0403,2.28255 4.31939,4.1895 2.48968,5.66383 -2.65565,-1.47989 -0.75773,3.45257 -1.36085,4.87457 -0.0342,4.34691 -0.003,8.69396 -0.0144,13.04092 -7.31215,4.55178 -14.46759,9.3554 -21.83322,13.81979 -0.77768,0.30296 -1.53368,-0.23204 -2.12417,-0.67924 z m 5.52696,-2.585 c 5.93377,-3.64879 11.65535,-7.63627 17.67107,-11.15283 -0.0984,-5.31951 0.0536,-10.64856 -0.35076,-15.95858 -0.48423,5.20687 0.0818,10.44921 -0.4256,15.65488 -2.49391,2.39814 -5.83662,3.61897 -8.56937,5.71202 -4.02831,2.62795 -8.02486,5.31848 -12.24353,7.63698 -6.94593,-4.16928 -13.66923,-8.70134 -20.60288,-12.88675 -0.71105,-2.21832 -0.11897,-4.8392 -0.30404,-7.2164 0.01,-2.64856 -0.002,-5.30043 -0.20224,-7.94286 -0.33878,5.02649 -0.14821,10.06636 -0.19843,15.09927 6.9954,4.14608 13.67713,8.82268 20.74556,12.83527 1.73586,0.52568 3.07713,-1.08087 4.48022,-1.781 z"
         id="path45" /></g></g></svg>
