<?xml version="1.0" encoding="UTF-8" standalone="no"?>
<!-- Created with Inkscape (http://www.inkscape.org/) -->

<svg
   width="87.414467mm"
   height="100mm"
   viewBox="0 0 87.414466 99.999999"
   version="1.1"
   id="svg1"
   xml:space="preserve"
   xmlns="http://www.w3.org/2000/svg"
   xmlns:svg="http://www.w3.org/2000/svg"><defs
     id="defs1" /><g
     id="layer1"
     transform="translate(-297.87433,-331.56307)"><g
       id="g32"
       transform="matrix(0.34779349,0,0,0.34779349,153.07774,308.94277)"><path
         style="baseline-shift:baseline;display:inline;overflow:visible;opacity:1;fill:#ee1619;fill-opacity:1;stroke:#000000;stroke-width:17.45;stroke-linecap:round;stroke-linejoin:round;stroke-dasharray:none;stroke-opacity:1;enable-background:accumulate;stop-color:#000000;stop-opacity:1"
         d="M 542.0022,73.764352 658.94441,141.28365 V 276.32223 L 542.0022,343.84157 425.05427,276.32223 V 141.28365 Z"
         id="path32" /><path
         style="fill:#fad103"
         d="m 538.57748,340.14431 c -7.11952,-5.59375 -20.69543,-7.76988 -16.81552,-20.18522 -2.77426,-9.53348 3.72535,-13.1199 10.4613,-17.50883 0.0777,-7.71679 2.41902,-17.58102 -1.27161,-24.19475 -6.86791,-13.82972 -16.22398,1.52732 -24.38389,6.00302 -6.96734,9.41861 -23.03734,2.08427 -15.26806,-8.78798 8.6115,-3.07805 16.62975,-7.2157 24.01825,-12.86425 3.36714,-8.80749 -10.60197,-15.79697 -13.38198,-24.44788 -6.9308,-10.13743 -13.85915,-20.2769 -20.89314,-30.34319 -9.49289,-1.77888 -25.14456,2.46016 -30.68399,-2.60562 -1.81165,-6.46661 -6.15552,-18.39222 5.43729,-15.17935 11.60185,-0.0272 23.20383,-0.12993 34.80567,-0.0465 10.26431,12.09175 17.49907,26.35897 27.26667,38.81916 6.90433,-4.69468 19.09194,-8.44023 14.01899,-19.45685 -6.40616,-5.71371 -13.31356,-11.73484 -20.5887,-16.67442 -10.00359,0.89363 -24.70939,-5.53813 -21.74015,-17.8194 1.25561,-8.58191 -10.1429,-12.00653 -15.66785,-16.75335 -9.52853,-1.17973 -20.89386,1.31184 -27.27324,-8.20075 -4.01494,-7.92984 -4.10315,-21.39994 6.06469,-24.60317 7.97697,-9.3059 19.55367,-3.3953 26.56463,3.50426 4.49911,1.76518 1.64717,7.65837 2.44543,11.51056 -2.12573,7.35051 5.45405,9.52066 9.77764,13.97926 6.61704,6.91893 16.40488,0.17785 24.16458,4.50784 10.21035,3.27383 8.86553,13.39526 8.11824,21.81469 5.32919,5.20188 12.61308,15.71073 20.48102,14.68981 6.81862,-5.95114 19.04572,-10.24401 15.78995,-21.57579 -2.62436,-13.36122 14.014,-18.27924 24.73437,-15.95097 8.03649,-1.71198 17.90335,-7.50132 18.41204,-16.57583 -3.35818,-10.88317 6.03957,-15.39203 13.96419,-20.10019 9.75026,-3.00548 23.35288,6.41208 22.50793,16.6564 2.91727,12.05485 -8.52073,21.44041 -19.91457,19.72812 -9.72635,-1.96029 -17.2345,6.34299 -24.41183,11.62192 -2.84938,7.30176 1.24458,17.25675 -8.81624,20.77039 -7.90167,3.8347 -18.3214,1.09206 -23.68178,10.73392 -7.0624,3.68621 -16.134,11.12737 -9.96588,19.66588 6.55567,4.49284 14.99138,13.29684 18.67891,1.69168 7.50666,-10.56564 14.47278,-21.51365 22.2971,-31.8532 14.87684,-0.5115 29.76444,-0.22862 44.64403,-0.0153 -2.34644,9.23308 -6.05205,23.0768 -18.67169,17.28665 -12.40745,-2.92848 -22.5255,4.62657 -26.87934,15.73867 -8.73759,12.54214 -18.18228,24.59327 -26.42374,37.47853 8.68383,4.52645 17.70946,12.83508 26.61562,13.06665 5.47494,11.83525 -11.53904,21.54645 -17.2432,8.76264 -8.16644,-3.29886 -17.81107,-18.94525 -22.91111,-4.87539 -2.11353,7.92051 -5.05023,21.15595 1.23576,26.67459 10.07921,3.89121 7.56745,16.12751 7.65106,24.57728 -5.76642,4.50512 -13.86131,12.46356 -22.14181,12.0241 l -1.12604,-0.68787 z m 6.16247,-81.70982 c 5.94867,-7.70198 16.5487,-18.33875 2.14198,-23.43021 -6.78199,-4.12259 -23.6146,5.30887 -15.24553,12.8171 4.06916,2.59328 9.86245,19.26465 13.10355,10.61311 z m -33.72349,-77.95802 c 12.48194,-9.34878 -13.37785,-20.48268 -10.66869,-3.99879 0.0153,4.98217 7.30996,7.31466 10.66869,3.99879 z m 70.55581,0.0995 c 11.20899,-9.60444 -11.43928,-20.74259 -11.02834,-5.30215 -0.0369,5.22259 6.93716,8.94004 11.02834,5.30215 z M 468.15022,145.75371 c 12.10983,-8.89351 -11.35868,-22.8523 -12.16821,-6.77302 -0.73143,6.31521 7.17059,10.68107 12.16821,6.77302 z m 157.52854,0.23512 c 10.67832,-5.62885 -3.48012,-22.22317 -10.82476,-10.91726 -3.05628,7.26962 3.25354,15.6063 10.82476,10.91726 z"
         id="path31" /></g></g></svg>
